# Blender 4.4.3
# www.blender.org
mtllib text_backToTitle.mtl
o テキスト
v 1.298133 0.165795 -0.025000
v 1.634205 -0.348618 -0.025000
v 1.634205 -0.202539 -0.025000
v 1.458551 0.066318 -0.025000
v 1.452882 0.074976 -0.025000
v 1.445905 0.085470 -0.025000
v 1.437883 0.097433 -0.025000
v 1.429077 0.110497 -0.025000
v 1.419747 0.124296 -0.025000
v 1.410157 0.138462 -0.025000
v 1.400566 0.152627 -0.025000
v 1.391237 0.166426 -0.025000
v 1.382431 0.179490 -0.025000
v 1.374409 0.191453 -0.025000
v 1.367432 0.201947 -0.025000
v 1.361763 0.210605 -0.025000
v 1.354358 0.221941 -0.025000
v 1.347710 0.232209 -0.025000
v 1.341640 0.241425 -0.025000
v 1.335972 0.249606 -0.025000
v 1.330528 0.256766 -0.025000
v 1.325131 0.262920 -0.025000
v 1.319603 0.268085 -0.025000
v 1.313767 0.272276 -0.025000
v 1.307445 0.275509 -0.025000
v 1.300461 0.277799 -0.025000
v 1.292636 0.279161 -0.025000
v 1.283794 0.279612 -0.025000
v 1.277324 0.279349 -0.025000
v 1.271318 0.278554 -0.025000
v 1.265716 0.277217 -0.025000
v 1.260460 0.275330 -0.025000
v 1.255490 0.272882 -0.025000
v 1.250747 0.269866 -0.025000
v 1.246172 0.266270 -0.025000
v 1.241706 0.262086 -0.025000
v 1.237290 0.257305 -0.025000
v 1.232865 0.251917 -0.025000
v 1.228371 0.245913 -0.025000
v 1.223749 0.239283 -0.025000
v 1.204762 0.208362 -0.025000
v 1.186785 0.179222 -0.025000
v 1.169824 0.151848 -0.025000
v 1.153879 0.126230 -0.025000
v 1.138956 0.102355 -0.025000
v 1.125056 0.080209 -0.025000
v 1.112183 0.059781 -0.025000
v 1.100340 0.041059 -0.025000
v 1.089530 0.024029 -0.025000
v 1.079757 0.008680 -0.025000
v 1.071023 -0.005002 -0.025000
v 1.063331 -0.017028 -0.025000
v 1.063331 -0.169380 -0.025000
v 1.270351 0.165795 -0.025000
v 1.272421 0.168688 -0.025000
v 1.274587 0.171085 -0.025000
v 1.276834 0.172979 -0.025000
v 1.279147 0.174359 -0.025000
v 1.281509 0.175216 -0.025000
v 1.283906 0.175541 -0.025000
v 1.286321 0.175325 -0.025000
v 1.288740 0.174558 -0.025000
v 1.291146 0.173231 -0.025000
v 1.293524 0.171334 -0.025000
v 1.295858 0.168859 -0.025000
v 0.373264 -0.365646 -0.025000
v 0.462883 -0.365646 -0.025000
v 0.473401 -0.339971 -0.025000
v 0.483396 -0.313045 -0.025000
v 0.492793 -0.284737 -0.025000
v 0.501519 -0.254917 -0.025000
v 0.509497 -0.223453 -0.025000
v 0.516654 -0.190217 -0.025000
v 0.522915 -0.155075 -0.025000
v 0.528205 -0.117899 -0.025000
v 0.532450 -0.078557 -0.025000
v 0.535574 -0.036918 -0.025000
v 0.537503 0.007148 -0.025000
v 0.538163 0.053771 -0.025000
v 0.538163 0.290366 -0.025000
v 0.457506 0.290366 -0.025000
v 0.457506 0.053771 -0.025000
v 0.456875 0.012950 -0.025000
v 0.455000 -0.026276 -0.025000
v 0.451904 -0.064064 -0.025000
v 0.447614 -0.100573 -0.025000
v 0.442154 -0.135961 -0.025000
v 0.435549 -0.170388 -0.025000
v 0.427823 -0.204013 -0.025000
v 0.419003 -0.236993 -0.025000
v 0.409111 -0.269488 -0.025000
v 0.398174 -0.301656 -0.025000
v 0.386217 -0.333655 -0.025000
v 0.944137 -0.249141 -0.025000
v 0.944137 -0.138910 -0.025000
v 0.929553 -0.153788 -0.025000
v 0.914912 -0.167940 -0.025000
v 0.900196 -0.181353 -0.025000
v 0.885387 -0.194009 -0.025000
v 0.870466 -0.205893 -0.025000
v 0.855415 -0.216990 -0.025000
v 0.840214 -0.227285 -0.025000
v 0.824844 -0.236760 -0.025000
v 0.809289 -0.245402 -0.025000
v 0.793528 -0.253195 -0.025000
v 0.777542 -0.260122 -0.025000
v 0.761315 -0.266169 -0.025000
v 0.761315 0.300224 -0.025000
v 0.681553 0.300224 -0.025000
v 0.681553 -0.376400 -0.025000
v 0.707480 -0.371244 -0.025000
v 0.732433 -0.365169 -0.025000
v 0.756483 -0.358154 -0.025000
v 0.779703 -0.350178 -0.025000
v 0.802163 -0.341219 -0.025000
v 0.823936 -0.331255 -0.025000
v 0.845092 -0.320263 -0.025000
v 0.865704 -0.308223 -0.025000
v 0.885843 -0.295113 -0.025000
v 0.905581 -0.280910 -0.025000
v 0.924988 -0.265594 -0.025000
v -0.155489 -0.401494 -0.025000
v -0.155489 -0.017028 -0.025000
v 0.237939 -0.017028 -0.025000
v 0.237939 0.069007 -0.025000
v -0.155489 0.069007 -0.025000
v -0.155489 0.325317 -0.025000
v -0.242420 0.325317 -0.025000
v -0.242420 -0.401494 -0.025000
v -0.399253 0.307394 -0.025000
v -0.499627 0.309186 -0.025000
v -0.528762 0.262013 -0.025000
v -0.559667 0.218061 -0.025000
v -0.592284 0.177152 -0.025000
v -0.626554 0.139109 -0.025000
v -0.662417 0.103754 -0.025000
v -0.699813 0.070911 -0.025000
v -0.738685 0.040402 -0.025000
v -0.778973 0.012049 -0.025000
v -0.820617 -0.014325 -0.025000
v -0.863559 -0.038897 -0.025000
v -0.907740 -0.061845 -0.025000
v -0.953099 -0.083346 -0.025000
v -0.953099 -0.171173 -0.025000
v -0.923598 -0.158308 -0.025000
v -0.895133 -0.145258 -0.025000
v -0.867695 -0.132020 -0.025000
v -0.841275 -0.118596 -0.025000
v -0.815862 -0.104985 -0.025000
v -0.791449 -0.091187 -0.025000
v -0.768025 -0.077203 -0.025000
v -0.745581 -0.063032 -0.025000
v -0.724109 -0.048674 -0.025000
v -0.703597 -0.034130 -0.025000
v -0.684038 -0.019399 -0.025000
v -0.665422 -0.004481 -0.025000
v -0.665422 -0.405975 -0.025000
v -0.582076 -0.405975 -0.025000
v -0.582076 0.068111 -0.025000
v -0.565232 0.083789 -0.025000
v -0.547996 0.101456 -0.025000
v -0.530573 0.120748 -0.025000
v -0.513169 0.141299 -0.025000
v -0.495989 0.162747 -0.025000
v -0.479238 0.184727 -0.025000
v -0.463122 0.206875 -0.025000
v -0.447847 0.228827 -0.025000
v -0.433617 0.250219 -0.025000
v -0.420637 0.270687 -0.025000
v -0.409114 0.289867 -0.025000
v -1.396714 0.328902 -0.025000
v -1.480060 0.328902 -0.025000
v -1.487748 0.299576 -0.025000
v -1.496457 0.271587 -0.025000
v -1.506161 0.244856 -0.025000
v -1.516837 0.219301 -0.025000
v -1.528458 0.194842 -0.025000
v -1.541001 0.171397 -0.025000
v -1.554440 0.148885 -0.025000
v -1.568750 0.127226 -0.025000
v -1.583906 0.106339 -0.025000
v -1.599884 0.086142 -0.025000
v -1.616658 0.066556 -0.025000
v -1.634205 0.047498 -0.025000
v -1.634205 -0.061837 -0.025000
v -1.614105 -0.044962 -0.025000
v -1.595366 -0.028255 -0.025000
v -1.577815 -0.011510 -0.025000
v -1.561281 0.005477 -0.025000
v -1.545594 0.022912 -0.025000
v -1.530583 0.041001 -0.025000
v -1.516075 0.059948 -0.025000
v -1.501900 0.079960 -0.025000
v -1.487888 0.101242 -0.025000
v -1.473865 0.123998 -0.025000
v -1.459663 0.148435 -0.025000
v -1.445108 0.174757 -0.025000
v -1.169082 0.174757 -0.025000
v -1.169455 0.158608 -0.025000
v -1.170127 0.142872 -0.025000
v -1.171098 0.127553 -0.025000
v -1.172367 0.112655 -0.025000
v -1.173936 0.098179 -0.025000
v -1.175803 0.084130 -0.025000
v -1.177969 0.070510 -0.025000
v -1.180433 0.057323 -0.025000
v -1.183196 0.044571 -0.025000
v -1.186258 0.032259 -0.025000
v -1.189619 0.020388 -0.025000
v -1.193279 0.008962 -0.025000
v -1.463928 0.008962 -0.025000
v -1.463928 -0.069903 -0.025000
v -1.222853 -0.069903 -0.025000
v -1.243332 -0.100615 -0.025000
v -1.265323 -0.129566 -0.025000
v -1.288807 -0.156749 -0.025000
v -1.313767 -0.182159 -0.025000
v -1.340183 -0.205789 -0.025000
v -1.368036 -0.227633 -0.025000
v -1.397308 -0.247684 -0.025000
v -1.427981 -0.265936 -0.025000
v -1.460036 -0.282384 -0.025000
v -1.493453 -0.297021 -0.025000
v -1.528215 -0.309841 -0.025000
v -1.564302 -0.320836 -0.025000
v -1.564302 -0.406871 -0.025000
v -1.533117 -0.397999 -0.025000
v -1.502722 -0.387951 -0.025000
v -1.473086 -0.376708 -0.025000
v -1.444179 -0.364252 -0.025000
v -1.415969 -0.350563 -0.025000
v -1.388424 -0.335624 -0.025000
v -1.361515 -0.319414 -0.025000
v -1.335209 -0.301917 -0.025000
v -1.309476 -0.283112 -0.025000
v -1.284284 -0.262982 -0.025000
v -1.259602 -0.241508 -0.025000
v -1.235400 -0.218671 -0.025000
v -1.214535 -0.196110 -0.025000
v -1.194619 -0.171492 -0.025000
v -1.175817 -0.144889 -0.025000
v -1.158294 -0.116372 -0.025000
v -1.142215 -0.086013 -0.025000
v -1.127745 -0.053883 -0.025000
v -1.115048 -0.020055 -0.025000
v -1.104290 0.015401 -0.025000
v -1.095636 0.052413 -0.025000
v -1.089250 0.090909 -0.025000
v -1.085297 0.130819 -0.025000
v -1.083943 0.172069 -0.025000
v -1.083943 0.255414 -0.025000
v -1.417326 0.255414 -0.025000
v -1.415723 0.260643 -0.025000
v -1.414057 0.266024 -0.025000
v -1.412341 0.271560 -0.025000
v -1.410588 0.277255 -0.025000
v -1.408810 0.283112 -0.025000
v -1.407020 0.289134 -0.025000
v -1.405230 0.295324 -0.025000
v -1.403452 0.301685 -0.025000
v -1.401699 0.308220 -0.025000
v -1.399983 0.314932 -0.025000
v -1.398318 0.321826 -0.025000
v 1.298133 0.165795 0.025000
v 1.634205 -0.348618 0.025000
v 1.634205 -0.202539 0.025000
v 1.458551 0.066318 0.025000
v 1.452882 0.074976 0.025000
v 1.445905 0.085470 0.025000
v 1.437883 0.097433 0.025000
v 1.429077 0.110497 0.025000
v 1.419747 0.124296 0.025000
v 1.410157 0.138462 0.025000
v 1.400566 0.152627 0.025000
v 1.391237 0.166426 0.025000
v 1.382431 0.179490 0.025000
v 1.374409 0.191453 0.025000
v 1.367432 0.201947 0.025000
v 1.361763 0.210605 0.025000
v 1.354358 0.221941 0.025000
v 1.347710 0.232209 0.025000
v 1.341640 0.241425 0.025000
v 1.335972 0.249606 0.025000
v 1.330528 0.256766 0.025000
v 1.325131 0.262920 0.025000
v 1.319603 0.268085 0.025000
v 1.313767 0.272276 0.025000
v 1.307445 0.275509 0.025000
v 1.300461 0.277799 0.025000
v 1.292636 0.279161 0.025000
v 1.283794 0.279612 0.025000
v 1.277324 0.279349 0.025000
v 1.271318 0.278554 0.025000
v 1.265716 0.277217 0.025000
v 1.260460 0.275330 0.025000
v 1.255490 0.272882 0.025000
v 1.250747 0.269866 0.025000
v 1.246172 0.266270 0.025000
v 1.241706 0.262086 0.025000
v 1.237290 0.257305 0.025000
v 1.232865 0.251917 0.025000
v 1.228371 0.245913 0.025000
v 1.223749 0.239283 0.025000
v 1.204762 0.208362 0.025000
v 1.186785 0.179222 0.025000
v 1.169824 0.151848 0.025000
v 1.153879 0.126230 0.025000
v 1.138956 0.102355 0.025000
v 1.125056 0.080209 0.025000
v 1.112183 0.059781 0.025000
v 1.100340 0.041059 0.025000
v 1.089530 0.024029 0.025000
v 1.079757 0.008680 0.025000
v 1.071023 -0.005002 0.025000
v 1.063331 -0.017028 0.025000
v 1.063331 -0.169380 0.025000
v 1.270351 0.165795 0.025000
v 1.272421 0.168688 0.025000
v 1.274587 0.171085 0.025000
v 1.276834 0.172979 0.025000
v 1.279147 0.174359 0.025000
v 1.281509 0.175216 0.025000
v 1.283906 0.175541 0.025000
v 1.286321 0.175325 0.025000
v 1.288740 0.174558 0.025000
v 1.291146 0.173231 0.025000
v 1.293524 0.171334 0.025000
v 1.295858 0.168859 0.025000
v 0.373264 -0.365646 0.025000
v 0.462883 -0.365646 0.025000
v 0.473401 -0.339971 0.025000
v 0.483396 -0.313045 0.025000
v 0.492793 -0.284737 0.025000
v 0.501519 -0.254917 0.025000
v 0.509497 -0.223453 0.025000
v 0.516654 -0.190217 0.025000
v 0.522915 -0.155075 0.025000
v 0.528205 -0.117899 0.025000
v 0.532450 -0.078557 0.025000
v 0.535574 -0.036918 0.025000
v 0.537503 0.007148 0.025000
v 0.538163 0.053771 0.025000
v 0.538163 0.290366 0.025000
v 0.457506 0.290366 0.025000
v 0.457506 0.053771 0.025000
v 0.456875 0.012950 0.025000
v 0.455000 -0.026276 0.025000
v 0.451904 -0.064064 0.025000
v 0.447614 -0.100573 0.025000
v 0.442154 -0.135961 0.025000
v 0.435549 -0.170388 0.025000
v 0.427823 -0.204013 0.025000
v 0.419003 -0.236993 0.025000
v 0.409111 -0.269488 0.025000
v 0.398174 -0.301656 0.025000
v 0.386217 -0.333655 0.025000
v 0.944137 -0.249141 0.025000
v 0.944137 -0.138910 0.025000
v 0.929553 -0.153788 0.025000
v 0.914912 -0.167940 0.025000
v 0.900196 -0.181353 0.025000
v 0.885387 -0.194009 0.025000
v 0.870466 -0.205893 0.025000
v 0.855415 -0.216990 0.025000
v 0.840214 -0.227285 0.025000
v 0.824844 -0.236760 0.025000
v 0.809289 -0.245402 0.025000
v 0.793528 -0.253195 0.025000
v 0.777542 -0.260122 0.025000
v 0.761315 -0.266169 0.025000
v 0.761315 0.300224 0.025000
v 0.681553 0.300224 0.025000
v 0.681553 -0.376400 0.025000
v 0.707480 -0.371244 0.025000
v 0.732433 -0.365169 0.025000
v 0.756483 -0.358154 0.025000
v 0.779703 -0.350178 0.025000
v 0.802163 -0.341219 0.025000
v 0.823936 -0.331255 0.025000
v 0.845092 -0.320263 0.025000
v 0.865704 -0.308223 0.025000
v 0.885843 -0.295113 0.025000
v 0.905581 -0.280910 0.025000
v 0.924988 -0.265594 0.025000
v -0.155489 -0.401494 0.025000
v -0.155489 -0.017028 0.025000
v 0.237939 -0.017028 0.025000
v 0.237939 0.069007 0.025000
v -0.155489 0.069007 0.025000
v -0.155489 0.325317 0.025000
v -0.242420 0.325317 0.025000
v -0.242420 -0.401494 0.025000
v -0.399253 0.307394 0.025000
v -0.499627 0.309186 0.025000
v -0.528762 0.262013 0.025000
v -0.559667 0.218061 0.025000
v -0.592284 0.177152 0.025000
v -0.626554 0.139109 0.025000
v -0.662417 0.103754 0.025000
v -0.699813 0.070911 0.025000
v -0.738685 0.040402 0.025000
v -0.778973 0.012049 0.025000
v -0.820617 -0.014325 0.025000
v -0.863559 -0.038897 0.025000
v -0.907740 -0.061845 0.025000
v -0.953099 -0.083346 0.025000
v -0.953099 -0.171173 0.025000
v -0.923598 -0.158308 0.025000
v -0.895133 -0.145258 0.025000
v -0.867695 -0.132020 0.025000
v -0.841275 -0.118596 0.025000
v -0.815862 -0.104985 0.025000
v -0.791449 -0.091187 0.025000
v -0.768025 -0.077203 0.025000
v -0.745581 -0.063032 0.025000
v -0.724109 -0.048674 0.025000
v -0.703597 -0.034130 0.025000
v -0.684038 -0.019399 0.025000
v -0.665422 -0.004481 0.025000
v -0.665422 -0.405975 0.025000
v -0.582076 -0.405975 0.025000
v -0.582076 0.068111 0.025000
v -0.565232 0.083789 0.025000
v -0.547996 0.101456 0.025000
v -0.530573 0.120748 0.025000
v -0.513169 0.141299 0.025000
v -0.495989 0.162747 0.025000
v -0.479238 0.184727 0.025000
v -0.463122 0.206875 0.025000
v -0.447847 0.228827 0.025000
v -0.433617 0.250219 0.025000
v -0.420637 0.270687 0.025000
v -0.409114 0.289867 0.025000
v -1.396714 0.328902 0.025000
v -1.480060 0.328902 0.025000
v -1.487748 0.299576 0.025000
v -1.496457 0.271587 0.025000
v -1.506161 0.244856 0.025000
v -1.516837 0.219301 0.025000
v -1.528458 0.194842 0.025000
v -1.541001 0.171397 0.025000
v -1.554440 0.148885 0.025000
v -1.568750 0.127226 0.025000
v -1.583906 0.106339 0.025000
v -1.599884 0.086142 0.025000
v -1.616658 0.066556 0.025000
v -1.634205 0.047498 0.025000
v -1.634205 -0.061837 0.025000
v -1.614105 -0.044962 0.025000
v -1.595366 -0.028255 0.025000
v -1.577815 -0.011510 0.025000
v -1.561281 0.005477 0.025000
v -1.545594 0.022912 0.025000
v -1.530583 0.041001 0.025000
v -1.516075 0.059948 0.025000
v -1.501900 0.079960 0.025000
v -1.487888 0.101242 0.025000
v -1.473865 0.123998 0.025000
v -1.459663 0.148435 0.025000
v -1.445108 0.174757 0.025000
v -1.169082 0.174757 0.025000
v -1.169455 0.158608 0.025000
v -1.170127 0.142872 0.025000
v -1.171098 0.127553 0.025000
v -1.172367 0.112655 0.025000
v -1.173936 0.098179 0.025000
v -1.175803 0.084130 0.025000
v -1.177969 0.070510 0.025000
v -1.180433 0.057323 0.025000
v -1.183196 0.044571 0.025000
v -1.186258 0.032259 0.025000
v -1.189619 0.020388 0.025000
v -1.193279 0.008962 0.025000
v -1.463928 0.008962 0.025000
v -1.463928 -0.069903 0.025000
v -1.222853 -0.069903 0.025000
v -1.243332 -0.100615 0.025000
v -1.265323 -0.129566 0.025000
v -1.288807 -0.156749 0.025000
v -1.313767 -0.182159 0.025000
v -1.340183 -0.205789 0.025000
v -1.368036 -0.227633 0.025000
v -1.397308 -0.247684 0.025000
v -1.427981 -0.265936 0.025000
v -1.460036 -0.282384 0.025000
v -1.493453 -0.297021 0.025000
v -1.528215 -0.309841 0.025000
v -1.564302 -0.320836 0.025000
v -1.564302 -0.406871 0.025000
v -1.533117 -0.397999 0.025000
v -1.502722 -0.387951 0.025000
v -1.473086 -0.376708 0.025000
v -1.444179 -0.364252 0.025000
v -1.415969 -0.350563 0.025000
v -1.388424 -0.335624 0.025000
v -1.361515 -0.319414 0.025000
v -1.335209 -0.301917 0.025000
v -1.309476 -0.283112 0.025000
v -1.284284 -0.262982 0.025000
v -1.259602 -0.241508 0.025000
v -1.235400 -0.218671 0.025000
v -1.214535 -0.196110 0.025000
v -1.194619 -0.171492 0.025000
v -1.175817 -0.144889 0.025000
v -1.158294 -0.116372 0.025000
v -1.142215 -0.086013 0.025000
v -1.127745 -0.053884 0.025000
v -1.115048 -0.020055 0.025000
v -1.104290 0.015401 0.025000
v -1.095636 0.052413 0.025000
v -1.089250 0.090909 0.025000
v -1.085297 0.130819 0.025000
v -1.083943 0.172069 0.025000
v -1.083943 0.255414 0.025000
v -1.417326 0.255414 0.025000
v -1.415723 0.260643 0.025000
v -1.414057 0.266024 0.025000
v -1.412341 0.271560 0.025000
v -1.410588 0.277255 0.025000
v -1.408810 0.283112 0.025000
v -1.407020 0.289134 0.025000
v -1.405230 0.295324 0.025000
v -1.403452 0.301685 0.025000
v -1.401699 0.308220 0.025000
v -1.399983 0.314932 0.025000
v -1.398318 0.321826 0.025000
vn -0.0000 -0.0000 -1.0000
vn -0.0000 -0.0000 1.0000
vn -0.0000 0.0004 1.0000
vn 1.0000 -0.0000 -0.0000
vn -0.8180 0.5752 -0.0000
vn -0.4432 0.8964 -0.0000
vn -0.9227 0.3855 -0.0000
vn 0.8372 0.5469 -0.0000
vn 0.7774 -0.6290 -0.0000
vn -0.6667 0.7453 -0.0000
vn -0.9032 0.4292 -0.0000
vn 0.8326 -0.5539 -0.0000
vn 0.6517 -0.7585 -0.0000
vn 0.8366 0.5478 -0.0000
vn -0.3976 0.9175 -0.0000
vn -0.8511 0.5250 -0.0000
vn -0.8818 0.4717 -0.0000
vn 0.8208 -0.5712 -0.0000
vn 0.7342 -0.6790 -0.0000
vn -0.7819 0.6234 -0.0000
vn -0.3492 0.9371 -0.0000
vn -0.6171 0.7869 -0.0000
vn 0.8328 0.5536 -0.0000
vn -0.0000 -1.0000 -0.0000
vn 0.8086 -0.5884 -0.0000
vn 0.6195 -0.7850 -0.0000
vn 0.8305 0.5570 -0.0000
vn 0.6863 -0.7273 -0.0000
vn -0.5651 0.8250 -0.0000
vn 0.7954 -0.6061 -0.0000
vn 0.8751 -0.4839 -0.0000
vn -0.7430 0.6693 -0.0000
vn 0.5841 -0.8117 -0.0000
vn -0.9997 0.0231 -0.0000
vn 0.8292 0.5589 -0.0000
vn 0.6564 -0.7544 -0.0000
vn 0.5456 -0.8381 -0.0000
vn -0.8500 0.5267 -0.0000
vn -0.5114 0.8594 -0.0000
vn 0.7805 -0.6252 -0.0000
vn 0.9995 -0.0328 -0.0000
vn 0.5044 -0.8635 -0.0000
vn -0.8586 0.5126 -0.0000
vn 0.7631 -0.6463 -0.0000
vn 0.1345 -0.9909 -0.0000
vn 0.6243 -0.7812 -0.0000
vn -0.7020 0.7121 -0.0000
vn 0.4610 -0.8874 -0.0000
vn -0.0892 -0.9960 -0.0000
vn -0.4565 0.8897 -0.0000
vn -0.9991 0.0427 -0.0000
vn 0.4161 -0.9093 -0.0000
vn -0.3023 -0.9532 -0.0000
vn -0.4012 0.9160 -0.0000
vn -0.8343 0.5512 -0.0000
vn 0.7421 -0.6703 -0.0000
vn -0.6599 0.7514 -0.0000
vn 0.3705 -0.9288 -0.0000
vn 0.3411 -0.9400 -0.0000
vn 0.5900 -0.8074 -0.0000
vn 0.8646 -0.5025 -0.0000
vn 0.3249 -0.9458 -0.0000
vn -0.4830 -0.8756 -0.0000
vn -0.3460 0.9382 -0.0000
vn -0.9980 0.0632 -0.0000
vn 0.7158 -0.6983 -0.0000
vn 0.2800 -0.9600 -0.0000
vn 0.6813 -0.7320 -0.0000
vn 0.1951 -0.9808 -0.0000
vn 0.5125 -0.8587 -0.0000
vn 0.5538 -0.8326 -0.0000
vn 0.9951 -0.0986 -0.0000
vn -0.6174 0.7866 -0.0000
vn 0.2365 -0.9716 -0.0000
vn -0.6235 -0.7818 -0.0000
vn -0.2915 0.9566 -0.0000
vn -0.9964 0.0849 -0.0000
vn -1.0000 -0.0000 -0.0000
vn -0.8094 0.5873 -0.0000
vn -0.0000 1.0000 -0.0000
vn 0.6444 -0.7647 -0.0000
vn 0.5160 -0.8566 -0.0000
vn -0.7275 -0.6861 -0.0000
vn 0.8514 -0.5246 -0.0000
vn -0.5755 0.8178 -0.0000
vn -0.9999 0.0154 -0.0000
vn -0.9942 0.1077 -0.0000
vn 0.7420 -0.6704 -0.0000
vn 0.4768 -0.8790 -0.0000
vn -0.5350 0.8448 -0.0000
vn -0.8028 -0.5962 -0.0000
vn -0.7843 0.6204 -0.0000
vn 0.9999 -0.0141 -0.0000
vn 0.4366 -0.8997 -0.0000
vn -0.9989 0.0478 -0.0000
vn 0.6253 -0.7804 -0.0000
vn 0.8132 -0.5820 -0.0000
vn 0.3957 -0.9184 -0.0000
vn 0.8352 -0.5499 -0.0000
vn -0.9913 0.1317 -0.0000
vn 0.9990 -0.0437 -0.0000
vn 0.8284 0.5601 -0.0000
vn 0.3547 -0.9350 -0.0000
vn -0.4967 0.8679 -0.0000
vn -0.9967 0.0816 -0.0000
vn 0.2736 -0.9618 -0.0000
vn 0.8508 -0.5255 -0.0000
vn 0.3139 -0.9495 -0.0000
vn 0.9865 -0.1636 -0.0000
vn -0.8372 -0.5469 -0.0000
vn -0.7595 0.6505 -0.0000
vn 0.6016 -0.7988 -0.0000
vn 0.9972 -0.0748 -0.0000
vn -0.9932 0.1167 -0.0000
vn -0.9876 0.1570 -0.0000
vn 0.5784 -0.8157 -0.0000
vn 0.8281 0.5606 -0.0000
vn -0.4609 0.8874 -0.0000
vn -0.8490 0.5284 -0.0000
vn 0.9942 -0.1073 -0.0000
vn 0.8160 -0.5780 -0.0000
vn -0.9883 0.1525 -0.0000
vn -0.9830 0.1837 -0.0000
vn 0.5558 -0.8313 -0.0000
vn -0.4283 0.9036 -0.0000
vn -0.8480 0.5300 -0.0000
vn -0.7357 0.6773 -0.0000
vn 0.9900 -0.1409 -0.0000
vn -0.9821 0.1884 -0.0000
vn 0.5339 -0.8456 -0.0000
vn 0.7940 -0.6079 -0.0000
vn -0.9773 0.2118 -0.0000
vn 0.5126 -0.8586 -0.0000
vn 0.9845 -0.1754 -0.0000
vn -0.0406 0.9992 -0.0000
vn -0.9746 0.2239 -0.0000
vn -0.8470 0.5316 -0.0000
vn 0.0509 0.9987 -0.0000
vn 0.9737 -0.2277 -0.0000
vn -0.1312 0.9914 -0.0000
vn 0.4920 -0.8706 -0.0000
vn 0.9776 -0.2105 -0.0000
vn -0.9660 0.2584 -0.0000
vn -0.9704 0.2413 -0.0000
vn 0.4721 -0.8815 -0.0000
vn 0.1715 0.9852 -0.0000
vn -0.8460 0.5331 -0.0000
vn -0.2321 0.9727 -0.0000
vn 0.4530 -0.8915 -0.0000
vn 0.9693 -0.2458 -0.0000
vn 0.7695 -0.6386 -0.0000
vn -0.9567 0.2912 -0.0000
vn -0.9622 0.2724 -0.0000
vn 0.4345 -0.9007 -0.0000
vn 0.3115 0.9502 -0.0000
vn 0.3997 -0.9166 -0.0000
vn -0.3379 0.9412 -0.0000
vn 0.4168 -0.9090 -0.0000
vn 0.9598 -0.2808 -0.0000
vn 0.7434 -0.6689 -0.0000
vn -0.9673 0.2536 -0.0000
vn -0.9468 0.3219 -0.0000
vn -0.8451 0.5346 -0.0000
vn -0.9523 0.3050 -0.0000
vn 0.4553 0.8903 -0.0000
vn -0.8443 0.5359 -0.0000
vn -0.4418 0.8971 -0.0000
vn 0.9491 -0.3151 -0.0000
vn 0.9569 -0.2903 -0.0000
vn 0.9753 -0.2210 -0.0000
vn -0.9367 0.3500 -0.0000
vn -0.8435 0.5371 -0.0000
vn -0.5367 0.8438 -0.0000
vn 0.9720 -0.2349 -0.0000
vn -0.8429 0.5381 -0.0000
vn 0.9375 -0.3480 -0.0000
vn 0.5833 0.8123 -0.0000
vn 0.9689 -0.2476 -0.0000
vn -0.9269 0.3753 -0.0000
vn -0.8424 0.5388 -0.0000
vn -0.6179 0.7862 -0.0000
vn 0.7166 -0.6975 -0.0000
vn 0.9659 -0.2591 -0.0000
vn 0.9254 -0.3791 -0.0000
vn 0.6827 0.7307 -0.0000
vn 0.6903 -0.7235 -0.0000
vn 0.9631 -0.2692 -0.0000
vn -0.6837 0.7298 -0.0000
vn -0.9548 0.2971 -0.0000
vn 0.9362 -0.3514 -0.0000
vn 0.6430 -0.7659 -0.0000
vn -0.7141 0.7000 -0.0000
vn 0.7518 0.6593 -0.0000
vn 0.6655 -0.7464 -0.0000
vn 0.9606 -0.2778 -0.0000
vn -0.7346 0.6785 -0.0000
vn 0.9585 -0.2850 -0.0000
vn -0.6950 0.7190 -0.0000
vn -0.7728 0.6347 -0.0000
vn 0.9118 -0.4106 -0.0000
vn 0.9569 -0.2905 -0.0000
vn -0.6736 0.7391 -0.0000
vn -0.8320 0.5548 -0.0000
vn 0.7960 0.6053 -0.0000
vn 0.9557 -0.2942 -0.0000
vn -0.6497 0.7602 -0.0000
vn -0.8006 0.5992 -0.0000
vn -0.9400 0.3413 -0.0000
vn 0.8837 -0.4680 -0.0000
vn -0.6230 0.7822 -0.0000
vn -0.7963 0.6049 -0.0000
vn -0.8508 0.5255 -0.0000
vn 0.8220 0.5695 -0.0000
vn 0.9552 -0.2960 -0.0000
vn -0.5934 0.8049 -0.0000
vn -0.8203 0.5719 -0.0000
vn 0.0179 0.9998 -0.0000
vn 0.8520 -0.5235 -0.0000
vn 0.9553 -0.2957 -0.0000
vn -0.5607 0.8280 -0.0000
vn -0.7567 0.6537 -0.0000
vn 0.8715 -0.4903 -0.0000
vn 0.8352 0.5500 -0.0000
vn 0.9560 -0.2932 -0.0000
vn -0.5248 0.8512 -0.0000
vn -0.8522 0.5233 -0.0000
vn 0.8572 -0.5150 -0.0000
vn 0.8166 -0.5772 -0.0000
vn -0.4856 0.8742 -0.0000
vn -0.7134 0.7008 -0.0000
vn 0.8445 -0.5355 -0.0000
vn 0.8394 0.5435 -0.0000
vn 0.7631 -0.6462 -0.0000
vn 0.4162 -0.9093 -0.0000
vn -0.8204 0.5719 -0.0000
vt 0.437500 0.000000
vt 0.421875 0.000000
vt 0.406250 0.000000
vt 0.453125 0.000000
vt 0.390625 0.000000
vt 0.468750 0.000000
vt 0.375000 0.000000
vt 0.484375 0.000000
vt 0.359375 0.000000
vt 0.500000 0.000000
vt 0.515625 0.000000
vt 0.343750 0.000000
vt 0.531250 0.000000
vt 0.328125 0.000000
vt 0.546875 0.000000
vt 0.312500 0.000000
vt 0.562500 0.000000
vt 0.130435 0.000000
vt 0.217391 0.000000
vt 0.141304 0.000000
vt 0.119565 0.000000
vt 0.228261 0.000000
vt 0.625000 0.000000
vt 0.218750 0.000000
vt 0.640625 0.000000
vt 0.250000 0.000000
vt 0.234375 0.000000
vt 0.108696 0.000000
vt 0.239130 0.000000
vt 0.203125 0.000000
vt 0.187500 0.000000
vt 0.921875 0.000000
vt 0.171875 0.000000
vt 0.656250 0.000000
vt 0.906250 0.000000
vt 0.937500 0.000000
vt 0.953125 0.000000
vt 0.890625 0.000000
vt 0.968750 0.000000
vt 0.875000 0.000000
vt 0.984375 0.000000
vt 0.859375 0.000000
vt 1.000000 0.000000
vt 0.843750 0.000000
vt 0.000000 0.000000
vt 0.828125 0.000000
vt 0.156250 0.000000
vt 0.812500 0.000000
vt 0.015625 0.000000
vt 0.140625 0.000000
vt 0.671875 0.000000
vt 0.125000 0.000000
vt 0.687500 0.000000
vt 0.109375 0.000000
vt 0.093750 0.000000
vt 0.703125 0.000000
vt 0.078125 0.000000
vt 0.062500 0.000000
vt 0.718750 0.000000
vt 0.046875 0.000000
vt 0.031250 0.000000
vt 0.734375 0.000000
vt 0.750000 0.000000
vt 0.765625 0.000000
vt 0.781250 0.000000
vt 0.796875 0.000000
vt 0.800000 0.000000
vt 0.781818 0.000000
vt 0.763636 0.000000
vt 0.745455 0.000000
vt 0.545455 0.000000
vt 0.527273 0.000000
vt 0.509091 0.000000
vt 0.563636 0.000000
vt 0.581818 0.000000
vt 0.600000 0.000000
vt 0.618182 0.000000
vt 0.636364 0.000000
vt 0.654545 0.000000
vt 0.672727 0.000000
vt 0.690909 0.000000
vt 0.709091 0.000000
vt 0.727273 0.000000
vt 0.981818 0.000000
vt 0.963636 0.000000
vt 0.945455 0.000000
vt 0.927273 0.000000
vt 0.909091 0.000000
vt 0.890909 0.000000
vt 0.872727 0.000000
vt 0.854545 0.000000
vt 0.836364 0.000000
vt 0.818182 0.000000
vt 0.418182 0.000000
vt 0.127273 0.000000
vt 0.109091 0.000000
vt 0.400000 0.000000
vt 0.145455 0.000000
vt 0.381818 0.000000
vt 0.163636 0.000000
vt 0.363636 0.000000
vt 0.181818 0.000000
vt 0.436364 0.000000
vt 0.072727 0.000000
vt 0.454545 0.000000
vt 0.345455 0.000000
vt 0.200000 0.000000
vt 0.327273 0.000000
vt 0.218182 0.000000
vt 0.090909 0.000000
vt 0.309091 0.000000
vt 0.236364 0.000000
vt 0.358696 0.000000
vt 0.836957 0.000000
vt 0.826087 0.000000
vt 0.043478 0.000000
vt 0.858696 0.000000
vt 0.054348 0.000000
vt 0.456522 0.000000
vt 0.771739 0.000000
vt 0.467391 0.000000
vt 0.010870 0.000000
vt 0.021739 0.000000
vt 0.857143 0.000000
vt 0.714286 0.000000
vt 0.571429 0.000000
vt 0.142857 0.000000
vt 0.272727 0.000000
vt 0.290909 0.000000
vt 0.050000 0.000000
vt 0.025000 0.000000
vt 0.975000 0.000000
vt 0.950000 0.000000
vt 0.075000 0.000000
vt 0.925000 0.000000
vt 0.900000 0.000000
vt 0.100000 0.000000
vt 0.850000 0.000000
vt 0.825000 0.000000
vt 0.150000 0.000000
vt 0.775000 0.000000
vt 0.175000 0.000000
vt 0.725000 0.000000
vt 0.650000 0.000000
vt 0.700000 0.000000
vt 0.225000 0.000000
vt 0.675000 0.000000
vt 0.275000 0.000000
vt 0.575000 0.000000
vt 0.300000 0.000000
vt 0.550000 0.000000
vt 0.325000 0.000000
vt 0.525000 0.000000
vt 0.350000 0.000000
vt 0.475000 0.000000
vt 0.450000 0.000000
vt 0.425000 0.000000
vt 0.945652 0.000000
vt 0.032609 0.000000
vt 0.989130 0.000000
vt 0.978261 0.000000
vt 0.967391 0.000000
vt 0.956522 0.000000
vt 0.760870 0.000000
vt 0.478261 0.000000
vt 0.934783 0.000000
vt 0.923913 0.000000
vt 0.913043 0.000000
vt 0.489130 0.000000
vt 0.902174 0.000000
vt 0.891304 0.000000
vt 0.880435 0.000000
vt 0.869565 0.000000
vt 0.065217 0.000000
vt 0.271739 0.000000
vt 0.076087 0.000000
vt 0.472727 0.000000
vt 0.036364 0.000000
vt 0.490909 0.000000
vt 0.282609 0.000000
vt 0.293478 0.000000
vt 0.380435 0.000000
vt 0.815217 0.000000
vt 0.391304 0.000000
vt 0.086957 0.000000
vt 0.315217 0.000000
vt 0.304348 0.000000
vt 0.847826 0.000000
vt 0.097826 0.000000
vt 0.326087 0.000000
vt 0.609375 0.000000
vt 0.347826 0.000000
vt 0.336957 0.000000
vt 0.739130 0.000000
vt 0.593750 0.000000
vt 0.296875 0.000000
vt 0.281250 0.000000
vt 0.369565 0.000000
vt 0.578125 0.000000
vt 0.413043 0.000000
vt 0.804348 0.000000
vt 0.423913 0.000000
vt 0.152174 0.000000
vt 0.402174 0.000000
vt 0.206522 0.000000
vt 0.195652 0.000000
vt 0.054545 0.000000
vt 0.445652 0.000000
vt 0.434783 0.000000
vt 0.184783 0.000000
vt 0.173913 0.000000
vt 0.793478 0.000000
vt 0.163043 0.000000
vt 0.782609 0.000000
vt 0.018182 0.000000
vt 0.260870 0.000000
vt 0.265625 0.000000
vt 0.510870 0.000000
vt 0.728261 0.000000
vt 0.521739 0.000000
vt 0.717391 0.000000
vt 0.532609 0.000000
vt 0.706522 0.000000
vt 0.543478 0.000000
vt 0.695652 0.000000
vt 0.554348 0.000000
vt 0.565217 0.000000
vt 0.684783 0.000000
vt 0.576087 0.000000
vt 0.673913 0.000000
vt 0.586957 0.000000
vt 0.663043 0.000000
vt 0.597826 0.000000
vt 0.652174 0.000000
vt 0.641304 0.000000
vt 0.630435 0.000000
vt 0.619565 0.000000
vt 0.608696 0.000000
vt 0.285714 0.000000
vt 0.254545 0.000000
vt 0.428571 0.000000
s 0
f 29/1/1 28/2/1 27/3/1
f 30/4/1 29/1/1 27/3/1
f 30/4/1 27/3/1 26/5/1
f 31/6/1 30/4/1 26/5/1
f 31/6/1 26/5/1 25/7/1
f 32/8/1 31/6/1 25/7/1
f 32/8/1 25/7/1 24/9/1
f 33/10/1 32/8/1 24/9/1
f 34/11/1 33/10/1 24/9/1
f 34/11/1 24/9/1 23/12/1
f 35/13/1 34/11/1 23/12/1
f 35/13/1 23/12/1 22/14/1
f 36/15/1 35/13/1 22/14/1
f 36/15/1 22/14/1 21/16/1
f 37/17/1 36/15/1 21/16/1
f 292/1/2 290/3/2 291/2/2
f 293/4/2 290/3/2 292/1/2
f 183/18/1 191/19/1 184/20/1
f 294/6/2 289/5/2 293/4/2
f 182/21/1 192/22/1 183/18/1
f 295/8/2 288/7/2 294/6/2
f 41/23/1 15/24/1 42/25/1
f 297/11/2 286/12/2 287/9/2
f 41/23/1 17/26/1 16/27/1
f 181/28/1 193/29/1 182/21/1
f 297/11/2 287/9/2 296/10/2
f 42/25/1 15/24/1 14/30/1
f 42/25/1 14/30/1 13/31/1
f 42/25/1 13/31/1 60/32/1
f 60/32/1 13/31/1 12/33/1
f 43/34/1 42/25/1 59/35/1
f 59/35/1 42/25/1 60/32/1
f 61/36/1 60/32/1 12/33/1
f 62/37/1 61/36/1 12/33/1
f 43/34/1 59/35/1 58/38/1
f 63/39/1 62/37/1 12/33/1
f 43/34/1 58/38/1 57/40/1
f 64/41/1 63/39/1 12/33/1
f 43/34/1 57/40/1 56/42/1
f 65/43/1 64/41/1 12/33/1
f 43/34/1 56/42/1 55/44/1
f 1/45/1 65/43/1 12/33/1
f 43/34/1 55/44/1 54/46/1
f 1/45/1 12/33/1 11/47/1
f 43/34/1 54/46/1 53/48/1
f 2/49/1 1/45/1 11/47/1
f 2/49/1 11/47/1 10/50/1
f 44/51/1 43/34/1 53/48/1
f 2/49/1 10/50/1 9/52/1
f 45/53/1 44/51/1 53/48/1
f 2/49/1 9/52/1 8/54/1
f 2/49/1 8/54/1 7/55/1
f 46/56/1 45/53/1 53/48/1
f 2/49/1 7/55/1 6/57/1
f 2/49/1 6/57/1 5/58/1
f 47/59/1 46/56/1 53/48/1
f 2/49/1 5/58/1 4/60/1
f 2/49/1 4/60/1 3/61/1
f 48/62/1 47/59/1 53/48/1
f 49/63/1 48/62/1 53/48/1
f 50/64/1 49/63/1 53/48/1
f 51/65/1 50/64/1 53/48/1
f 52/66/1 51/65/1 53/48/1
f 110/67/1 109/68/1 108/69/1
f 110/67/1 108/69/1 107/70/1
f 96/71/1 95/72/1 94/73/1
f 97/74/1 96/71/1 94/73/1
f 98/75/1 97/74/1 94/73/1
f 99/76/1 98/75/1 94/73/1
f 100/77/1 99/76/1 94/73/1
f 101/78/1 100/77/1 94/73/1
f 102/79/1 101/78/1 94/73/1
f 103/80/1 102/79/1 94/73/1
f 104/81/1 103/80/1 94/73/1
f 105/82/1 104/81/1 94/73/1
f 105/82/1 94/73/1 121/43/1
f 106/83/1 105/82/1 121/43/1
f 107/70/1 106/83/1 121/43/1
f 107/70/1 121/43/1 120/84/1
f 110/67/1 107/70/1 120/84/1
f 110/67/1 120/84/1 119/85/1
f 110/67/1 119/85/1 118/86/1
f 110/67/1 118/86/1 117/87/1
f 110/67/1 117/87/1 116/88/1
f 110/67/1 116/88/1 115/89/1
f 110/67/1 115/89/1 114/90/1
f 110/67/1 114/90/1 113/91/1
f 110/67/1 113/91/1 112/92/1
f 110/67/1 112/92/1 111/93/1
f 89/94/1 73/95/1 72/96/1
f 264/45/2 274/47/2 275/33/2
f 88/97/1 74/98/1 73/95/1
f 306/34/2 318/44/2 319/42/2
f 87/99/1 75/100/1 74/98/1
f 306/34/2 319/42/2 320/40/2
f 86/101/1 76/102/1 75/100/1
f 306/34/2 320/40/2 321/38/2
f 90/103/1 70/104/1 91/105/1
f 326/39/2 275/33/2 325/37/2
f 85/106/1 77/107/1 76/102/1
f 327/41/2 275/33/2 326/39/2
f 84/108/1 78/109/1 77/107/1
f 328/43/2 275/33/2 327/41/2
f 89/94/1 71/110/1 90/103/1
f 306/34/2 317/46/2 318/44/2
f 83/111/1 79/112/1 78/109/1
f 264/45/2 275/33/2 328/43/2
f 204/113/1 248/114/1 247/115/1
f 306/34/2 321/38/2 322/35/2
f 175/116/1 250/117/1 176/118/1
f 305/25/2 323/32/2 276/31/2
f 213/119/1 242/120/1 214/121/1
f 456/29/2 444/28/2 445/21/2
f 172/122/1 263/43/1 173/123/1
f 278/24/2 304/23/2 305/25/2
f 129/43/1 128/124/1 127/125/1
f 129/43/1 127/125/1 126/126/1
f 129/43/1 126/126/1 123/127/1
f 81/128/1 79/112/1 82/129/1
f 306/34/2 316/48/2 317/46/2
f 129/43/1 123/127/1 122/45/1
f 132/130/1 131/131/1 130/45/1
f 132/130/1 130/45/1 170/43/1
f 132/130/1 170/43/1 169/132/1
f 132/130/1 169/132/1 168/133/1
f 133/134/1 132/130/1 168/133/1
f 133/134/1 168/133/1 167/135/1
f 133/134/1 167/135/1 166/136/1
f 134/137/1 133/134/1 166/136/1
f 134/137/1 166/136/1 165/40/1
f 134/137/1 165/40/1 164/138/1
f 135/52/1 134/137/1 164/138/1
f 135/52/1 164/138/1 163/139/1
f 135/52/1 163/139/1 162/67/1
f 136/140/1 135/52/1 162/67/1
f 136/140/1 162/67/1 161/141/1
f 137/142/1 136/140/1 161/141/1
f 137/142/1 161/141/1 160/63/1
f 137/142/1 160/63/1 159/143/1
f 138/107/1 137/142/1 159/143/1
f 138/107/1 159/143/1 156/144/1
f 156/144/1 159/143/1 158/145/1
f 139/146/1 138/107/1 156/144/1
f 140/26/1 139/146/1 156/144/1
f 140/26/1 156/144/1 155/23/1
f 157/147/1 156/144/1 158/145/1
f 141/148/1 140/26/1 155/23/1
f 141/148/1 155/23/1 154/76/1
f 141/148/1 154/76/1 153/149/1
f 142/150/1 141/148/1 153/149/1
f 142/150/1 153/149/1 152/151/1
f 143/152/1 142/150/1 152/151/1
f 143/152/1 152/151/1 151/153/1
f 143/152/1 151/153/1 150/10/1
f 144/154/1 143/152/1 150/10/1
f 144/154/1 150/10/1 149/155/1
f 144/154/1 149/155/1 148/156/1
f 144/154/1 148/156/1 147/157/1
f 144/154/1 147/157/1 146/97/1
f 144/154/1 146/97/1 145/7/1
f 173/123/1 258/158/1 174/159/1
f 455/22/2 445/21/2 446/18/2
f 173/123/1 263/43/1 262/160/1
f 173/123/1 262/160/1 261/161/1
f 173/123/1 261/161/1 260/162/1
f 173/123/1 260/162/1 259/163/1
f 214/121/1 241/164/1 215/165/1
f 454/19/2 446/18/2 447/20/2
f 174/159/1 258/158/1 257/166/1
f 174/159/1 257/166/1 256/167/1
f 174/159/1 256/167/1 255/168/1
f 215/165/1 240/63/1 216/169/1
f 299/15/2 284/16/2 285/14/2
f 175/116/1 254/170/1 253/171/1
f 175/116/1 253/171/1 252/172/1
f 175/116/1 252/172/1 251/173/1
f 177/174/1 196/175/1 178/176/1
f 305/25/2 276/31/2 277/30/2
f 177/174/1 176/118/1 250/117/1
f 92/177/1 68/178/1 93/179/1
f 197/180/1 177/174/1 198/181/1
f 198/181/1 177/174/1 250/117/1
f 305/25/2 277/30/2 278/24/2
f 206/182/1 246/183/1 207/184/1
f 322/35/2 323/32/2 305/25/2
f 179/185/1 178/176/1 196/175/1
f 200/186/1 199/187/1 249/188/1
f 180/189/1 194/26/1 181/28/1
f 298/13/2 285/14/2 286/12/2
f 201/190/1 200/186/1 249/188/1
f 199/187/1 250/117/1 249/188/1
f 324/36/3 275/33/3 323/32/3
f 40/191/1 17/26/1 41/23/1
f 298/13/2 286/12/2 297/11/2
f 203/192/1 202/193/1 248/114/1
f 216/169/1 239/194/1 217/10/1
f 296/10/2 287/9/2 295/8/2
f 202/193/1 249/188/1 248/114/1
f 325/37/2 275/33/2 324/36/2
f 39/195/1 20/196/1 19/197/1
f 205/198/1 204/113/1 247/115/1
f 294/6/2 288/7/2 289/5/2
f 206/182/1 205/198/1 247/115/1
f 37/17/1 20/196/1 38/199/1
f 293/4/2 289/5/2 290/3/2
f 209/200/1 245/201/1 210/202/1
f 306/34/2 322/35/2 305/25/2
f 185/203/1 184/20/1 191/19/1
f 208/204/1 207/184/1 246/183/1
f 185/203/1 191/19/1 190/205/1
f 209/200/1 208/204/1 246/183/1
f 185/203/1 190/205/1 189/206/1
f 91/105/1 69/207/1 92/177/1
f 323/32/2 275/33/2 276/31/2
f 212/208/1 211/209/1 210/202/1
f 212/208/1 210/202/1 245/201/1
f 185/203/1 189/206/1 188/210/1
f 185/203/1 188/210/1 187/211/1
f 212/208/1 245/201/1 244/212/1
f 185/203/1 187/211/1 186/213/1
f 212/208/1 244/212/1 213/119/1
f 213/119/1 244/212/1 243/214/1
f 93/179/1 67/215/1 66/45/1
f 304/23/2 279/27/2 280/26/2
f 174/159/1 254/170/1 175/116/1
f 300/17/2 284/16/2 299/15/2
f 179/185/1 195/216/1 180/189/1
f 299/15/2 285/14/2 298/13/2
f 40/191/1 19/197/1 18/217/1
f 295/8/2 287/9/2 288/7/2
f 218/218/1 217/10/1 239/194/1
f 218/218/1 239/194/1 238/219/1
f 219/220/1 218/218/1 238/219/1
f 219/220/1 238/219/1 237/221/1
f 220/222/1 219/220/1 237/221/1
f 220/222/1 237/221/1 236/223/1
f 221/224/1 220/222/1 236/223/1
f 221/224/1 236/223/1 235/225/1
f 222/226/1 221/224/1 235/225/1
f 223/227/1 222/226/1 235/225/1
f 223/227/1 235/225/1 234/228/1
f 224/229/1 223/227/1 234/228/1
f 224/229/1 234/228/1 233/230/1
f 225/231/1 224/229/1 233/230/1
f 225/231/1 233/230/1 232/232/1
f 226/233/1 225/231/1 232/232/1
f 226/233/1 232/232/1 231/234/1
f 226/233/1 231/234/1 230/235/1
f 226/233/1 230/235/1 229/236/1
f 226/233/1 229/236/1 228/237/1
f 226/233/1 228/237/1 227/238/1
f 126/126/1 124/239/1 123/127/1
f 265/49/2 274/47/2 264/45/2
f 265/49/2 273/50/2 274/47/2
f 307/51/2 316/48/2 306/34/2
f 265/49/2 272/52/2 273/50/2
f 308/53/2 316/48/2 307/51/2
f 265/49/2 271/54/2 272/52/2
f 265/49/2 270/55/2 271/54/2
f 309/56/2 316/48/2 308/53/2
f 265/49/2 269/57/2 270/55/2
f 265/49/2 268/58/2 269/57/2
f 310/59/2 316/48/2 309/56/2
f 265/49/2 267/60/2 268/58/2
f 265/49/2 266/61/2 267/60/2
f 311/62/2 316/48/2 310/59/2
f 312/63/2 316/48/2 311/62/2
f 313/64/2 316/48/2 312/63/2
f 314/65/2 316/48/2 313/64/2
f 315/66/2 316/48/2 314/65/2
f 373/67/2 371/69/2 372/68/2
f 373/67/2 370/70/2 371/69/2
f 359/71/2 357/73/2 358/72/2
f 360/74/2 357/73/2 359/71/2
f 361/75/2 357/73/2 360/74/2
f 362/76/2 357/73/2 361/75/2
f 363/77/2 357/73/2 362/76/2
f 364/78/2 357/73/2 363/77/2
f 365/79/2 357/73/2 364/78/2
f 366/80/2 357/73/2 365/79/2
f 367/81/2 357/73/2 366/80/2
f 368/82/2 357/73/2 367/81/2
f 368/82/2 384/43/2 357/73/2
f 369/83/2 384/43/2 368/82/2
f 370/70/2 384/43/2 369/83/2
f 370/70/2 383/84/2 384/43/2
f 373/67/2 383/84/2 370/70/2
f 373/67/2 382/85/2 383/84/2
f 373/67/2 381/86/2 382/85/2
f 373/67/2 380/87/2 381/86/2
f 373/67/2 379/88/2 380/87/2
f 373/67/2 378/89/2 379/88/2
f 373/67/2 377/90/2 378/89/2
f 373/67/2 376/91/2 377/90/2
f 373/67/2 375/92/2 376/91/2
f 373/67/2 374/93/2 375/92/2
f 352/94/2 336/95/2 351/97/2
f 351/97/2 337/98/2 350/99/2
f 350/99/2 338/100/2 349/101/2
f 349/101/2 339/102/2 348/106/2
f 333/104/2 353/103/2 354/105/2
f 348/106/2 340/107/2 347/108/2
f 347/108/2 341/109/2 346/111/2
f 334/110/2 352/94/2 353/103/2
f 346/111/2 342/112/2 345/129/2
f 467/113/2 511/114/2 466/192/2
f 513/117/2 438/116/2 439/118/2
f 505/120/2 476/119/2 477/121/2
f 526/43/2 435/122/2 436/123/2
f 392/43/2 390/125/2 391/124/2
f 392/43/2 389/126/2 390/125/2
f 392/43/2 386/127/2 389/126/2
f 342/112/2 344/128/2 345/129/2
f 392/43/2 385/45/2 386/127/2
f 395/130/2 393/45/2 394/131/2
f 395/130/2 433/43/2 393/45/2
f 395/130/2 432/132/2 433/43/2
f 395/130/2 431/133/2 432/132/2
f 396/134/2 431/133/2 395/130/2
f 396/134/2 430/135/2 431/133/2
f 396/134/2 429/136/2 430/135/2
f 397/137/2 429/136/2 396/134/2
f 397/137/2 428/40/2 429/136/2
f 397/137/2 427/138/2 428/40/2
f 398/52/2 427/138/2 397/137/2
f 398/52/2 426/139/2 427/138/2
f 398/52/2 425/67/2 426/139/2
f 399/140/2 425/67/2 398/52/2
f 399/140/2 424/141/2 425/67/2
f 400/142/2 424/141/2 399/140/2
f 400/142/2 423/63/2 424/141/2
f 400/142/2 422/143/2 423/63/2
f 401/107/2 422/143/2 400/142/2
f 401/107/2 419/144/2 422/143/2
f 419/144/2 421/145/2 422/143/2
f 402/146/2 419/144/2 401/107/2
f 403/26/2 419/144/2 402/146/2
f 403/26/2 418/23/2 419/144/2
f 420/147/2 421/145/2 419/144/2
f 404/148/2 418/23/2 403/26/2
f 404/148/2 417/76/2 418/23/2
f 404/148/2 416/149/2 417/76/2
f 405/150/2 416/149/2 404/148/2
f 405/150/2 415/151/2 416/149/2
f 406/152/2 415/151/2 405/150/2
f 406/152/2 414/153/2 415/151/2
f 406/152/2 413/10/2 414/153/2
f 407/154/2 413/10/2 406/152/2
f 407/154/2 412/155/2 413/10/2
f 407/154/2 411/156/2 412/155/2
f 407/154/2 410/157/2 411/156/2
f 407/154/2 409/97/2 410/157/2
f 407/154/2 408/7/2 409/97/2
f 521/158/2 436/123/2 437/159/2
f 436/123/2 525/160/2 526/43/2
f 436/123/2 524/161/2 525/160/2
f 436/123/2 523/162/2 524/161/2
f 436/123/2 522/163/2 523/162/2
f 504/164/2 477/121/2 478/165/2
f 437/159/2 520/166/2 521/158/2
f 437/159/2 519/167/2 520/166/2
f 437/159/2 518/168/2 519/167/2
f 503/63/2 478/165/2 479/169/2
f 438/116/2 516/171/2 517/170/2
f 438/116/2 515/172/2 516/171/2
f 438/116/2 514/173/2 515/172/2
f 459/175/2 440/174/2 441/176/2
f 440/174/2 513/117/2 439/118/2
f 331/178/2 355/177/2 356/179/2
f 460/180/2 461/181/2 440/174/2
f 461/181/2 513/117/2 440/174/2
f 509/183/2 469/182/2 470/184/2
f 442/185/2 459/175/2 441/176/2
f 463/186/2 512/188/2 462/187/2
f 457/26/2 443/189/2 444/28/2
f 464/190/2 512/188/2 463/186/2
f 462/187/2 513/117/2 461/181/2
f 280/26/2 303/191/2 304/23/2
f 466/192/2 511/114/2 465/193/2
f 502/194/2 479/169/2 480/10/2
f 465/193/2 512/188/2 464/190/2
f 302/195/2 283/196/2 301/199/2
f 468/198/2 510/115/2 467/113/2
f 469/182/2 510/115/2 468/198/2
f 283/196/2 300/17/2 301/199/2
f 508/201/2 472/200/2 473/202/2
f 448/203/2 454/19/2 447/20/2
f 471/204/2 509/183/2 470/184/2
f 448/203/2 453/205/2 454/19/2
f 472/200/2 509/183/2 471/204/2
f 448/203/2 452/206/2 453/205/2
f 332/207/2 354/105/2 355/177/2
f 475/208/2 473/202/2 474/209/2
f 475/208/2 508/201/2 473/202/2
f 448/203/2 451/210/2 452/206/2
f 448/203/2 450/211/2 451/210/2
f 475/208/2 507/212/2 508/201/2
f 448/203/2 449/213/2 450/211/2
f 475/208/2 476/119/2 507/212/2
f 476/119/2 506/214/2 507/212/2
f 330/215/2 356/179/2 329/45/2
f 517/170/2 437/159/2 438/116/2
f 458/216/2 442/185/2 443/189/2
f 303/191/2 282/197/2 302/195/2
f 481/218/2 502/194/2 480/10/2
f 481/218/2 501/219/2 502/194/2
f 482/220/2 501/219/2 481/218/2
f 482/220/2 500/221/2 501/219/2
f 483/222/2 500/221/2 482/220/2
f 483/222/2 499/223/2 500/221/2
f 484/224/2 499/223/2 483/222/2
f 484/224/2 498/225/2 499/223/2
f 485/226/2 498/225/2 484/224/2
f 486/227/2 498/225/2 485/226/2
f 486/227/2 497/228/2 498/225/2
f 487/229/2 497/228/2 486/227/2
f 487/229/2 496/230/2 497/228/2
f 488/231/2 496/230/2 487/229/2
f 488/231/2 495/232/2 496/230/2
f 489/233/2 495/232/2 488/231/2
f 489/233/2 494/234/2 495/232/2
f 489/233/2 493/235/2 494/234/2
f 489/233/2 492/236/2 493/235/2
f 489/233/2 491/237/2 492/236/2
f 489/233/2 490/238/2 491/237/2
f 387/239/2 389/126/2 386/127/2
f 251/173/4 513/117/4 250/117/4
f 133/134/5 395/130/5 132/130/5
f 105/82/6 367/81/6 104/81/6
f 175/116/7 439/118/7 438/116/7
f 17/26/8 279/27/8 16/27/8
f 240/63/9 502/194/9 239/194/9
f 218/218/10 480/10/10 217/10/10
f 176/118/11 440/174/11 439/118/11
f 168/133/12 430/135/12 167/135/12
f 94/73/13 384/43/13 121/43/13
f 16/27/14 278/24/14 15/24/14
f 106/83/15 368/82/15 105/82/15
f 42/25/16 304/23/16 41/23/16
f 178/176/17 440/174/17 177/174/17
f 167/135/18 429/136/18 166/136/18
f 239/194/19 501/219/19 238/219/19
f 134/137/20 396/134/20 133/134/20
f 107/70/21 369/83/21 106/83/21
f 218/218/22 482/220/22 481/218/22
f 15/24/23 277/30/23 14/30/23
f 198/181/24 460/180/24 197/180/24
f 166/136/25 428/40/25 165/40/25
f 120/84/26 384/43/26 383/84/26
f 14/30/27 276/31/27 13/31/27
f 238/219/28 500/221/28 237/221/28
f 220/222/29 482/220/29 219/220/29
f 165/40/30 427/138/30 164/138/30
f 197/180/31 459/175/31 196/175/31
f 135/52/32 397/137/32 134/137/32
f 120/84/33 382/85/33 119/85/33
f 199/187/34 461/181/34 198/181/34
f 13/31/35 275/33/35 12/33/35
f 237/221/36 499/223/36 236/223/36
f 119/85/37 381/86/37 118/86/37
f 43/34/38 305/25/38 42/25/38
f 221/224/39 483/222/39 220/222/39
f 163/139/40 427/138/40 426/139/40
f 250/117/41 512/188/41 249/188/41
f 118/86/42 380/87/42 117/87/42
f 179/185/43 441/176/43 178/176/43
f 163/139/44 425/67/44 162/67/44
f 60/32/45 322/35/45 59/35/45
f 236/223/46 498/225/46 235/225/46
f 136/140/47 398/52/47 135/52/47
f 117/87/48 379/88/48 116/88/48
f 61/36/49 323/32/49 60/32/49
f 222/226/50 484/224/50 221/224/50
f 200/186/51 462/187/51 199/187/51
f 116/88/52 378/89/52 115/89/52
f 62/37/53 324/36/53 61/36/53
f 223/227/54 485/226/54 222/226/54
f 180/189/55 442/185/55 179/185/55
f 161/141/56 425/67/56 424/141/56
f 137/142/57 399/140/57 136/140/57
f 115/89/58 377/90/58 114/90/58
f 59/35/59 321/38/59 58/38/59
f 235/225/60 497/228/60 234/228/60
f 196/175/61 458/216/61 195/216/61
f 114/90/62 376/91/62 113/91/62
f 63/39/63 325/37/63 62/37/63
f 224/229/64 486/227/64 223/227/64
f 200/186/65 464/190/65 463/186/65
f 161/141/66 423/63/66 160/63/66
f 112/92/67 376/91/67 375/92/67
f 160/63/68 422/143/68 159/143/68
f 111/93/69 373/67/69 110/67/69
f 58/38/70 320/40/70 57/40/70
f 234/228/71 496/230/71 233/230/71
f 249/188/72 511/114/72 248/114/72
f 137/142/73 401/107/73 400/142/73
f 112/92/74 374/93/74 111/93/74
f 64/41/75 326/39/75 63/39/75
f 225/231/76 487/229/76 224/229/76
f 202/193/77 464/190/77 201/190/77
f 82/129/78 344/128/78 81/128/78
f 181/28/79 443/189/79 180/189/79
f 81/128/80 343/240/80 80/240/80
f 57/40/81 319/42/81 56/42/81
f 233/230/82 495/232/82 232/232/82
f 65/43/83 327/41/83 64/41/83
f 226/233/78 488/231/78 225/231/78
f 159/143/4 421/145/4 158/145/4
f 79/112/4 343/240/4 342/112/4
f 195/216/84 457/26/84 194/26/84
f 138/107/85 402/146/85 401/107/85
f 83/111/86 345/129/86 82/129/86
f 203/192/87 465/193/87 202/193/87
f 56/42/88 318/44/88 55/44/88
f 232/232/89 494/234/89 231/234/89
f 140/26/90 402/146/90 139/146/90
f 1/45/91 328/43/91 65/43/91
f 182/21/92 444/28/92 181/28/92
f 79/112/93 341/109/93 78/109/93
f 231/234/94 493/235/94 230/235/94
f 84/108/95 346/111/95 83/111/95
f 155/23/96 419/144/96 418/23/96
f 55/44/97 317/46/97 54/46/97
f 230/235/98 492/236/98 229/236/98
f 194/26/99 456/29/99 193/29/99
f 157/147/78 419/144/78 156/144/78
f 204/113/100 466/192/100 203/192/100
f 158/145/24 420/147/24 157/147/24
f 77/107/101 341/109/101 340/107/101
f 12/33/102 274/47/102 11/47/102
f 229/236/103 491/237/103 228/237/103
f 141/148/104 403/26/104 140/26/104
f 85/106/105 347/108/105 84/108/105
f 227/238/106 489/233/106 226/233/106
f 54/46/107 316/48/107 53/48/107
f 228/237/108 490/238/108 227/238/108
f 248/114/109 510/115/109 247/115/109
f 2/49/110 264/45/110 1/45/110
f 183/18/111 445/21/111 182/21/111
f 155/23/112 417/76/112 154/76/112
f 77/107/113 339/102/113 76/102/113
f 86/101/114 348/106/114 85/106/114
f 205/198/115 467/113/115 204/113/115
f 154/76/116 416/149/116 153/149/116
f 11/47/117 273/50/117 10/50/117
f 141/148/118 405/150/118 404/148/118
f 44/51/119 306/34/119 43/34/119
f 76/102/120 338/100/120 75/100/120
f 193/29/121 455/22/121 192/22/121
f 87/99/122 349/101/122 86/101/122
f 206/182/123 468/198/123 205/198/123
f 153/149/124 415/151/124 152/151/124
f 10/50/117 272/52/117 9/52/117
f 143/152/125 405/150/125 142/150/125
f 45/53/126 307/51/126 44/51/126
f 184/20/127 446/18/127 183/18/127
f 75/100/128 337/98/128 74/98/128
f 87/99/129 351/97/129 350/99/129
f 152/151/130 414/153/130 151/153/130
f 9/52/102 271/54/102 8/54/102
f 191/19/131 455/22/131 454/19/131
f 207/184/132 469/182/132 206/182/132
f 151/153/133 413/10/133 150/10/133
f 74/98/134 336/95/134 73/95/134
f 8/54/35 270/55/35 7/55/35
f 29/1/135 291/2/135 28/2/135
f 144/154/78 406/152/78 143/152/78
f 89/94/136 351/97/136 88/97/136
f 46/56/137 308/53/137 45/53/137
f 28/2/138 290/3/138 27/3/138
f 247/115/139 509/183/139 246/183/139
f 30/4/140 292/1/140 29/1/140
f 185/203/78 447/20/78 184/20/78
f 150/10/141 412/155/141 149/155/141
f 73/95/142 335/96/142 72/96/142
f 7/55/27 269/57/27 6/57/27
f 89/94/143 353/103/143 352/94/143
f 207/184/144 471/204/144 470/184/144
f 149/155/145 411/156/145 148/156/145
f 6/57/23 268/58/23 5/58/23
f 27/3/146 289/5/146 26/5/146
f 47/59/147 309/56/147 46/56/147
f 31/6/148 293/4/148 30/4/148
f 148/156/149 410/157/149 147/157/149
f 72/96/150 334/110/150 71/110/150
f 191/19/151 453/205/151 190/205/151
f 91/105/152 353/103/152 90/103/152
f 209/200/153 471/204/153 208/204/153
f 147/157/154 409/97/154 146/97/154
f 5/58/14 267/60/14 4/60/14
f 26/5/155 288/7/155 25/7/155
f 145/7/156 407/154/156 144/154/156
f 3/61/4 265/49/4 2/49/4
f 32/8/157 294/6/157 31/6/157
f 146/97/158 408/7/158 145/7/158
f 71/110/159 333/104/159 70/104/159
f 4/60/8 266/61/8 3/61/8
f 190/205/160 452/206/160 189/206/160
f 173/123/161 435/122/161 172/122/161
f 91/105/162 355/177/162 354/105/162
f 48/62/163 310/59/163 47/59/163
f 210/202/164 472/200/164 209/200/164
f 25/7/165 287/9/165 24/9/165
f 172/122/80 434/45/80 171/45/80
f 49/63/166 311/62/166 48/62/166
f 33/10/167 295/8/167 32/8/167
f 70/104/168 332/207/168 69/207/168
f 246/183/169 508/201/169 245/201/169
f 171/45/170 526/43/170 263/43/170
f 93/179/171 355/177/171 92/177/171
f 49/63/172 313/64/172 312/63/172
f 34/11/173 296/10/173 33/10/173
f 212/208/78 474/209/78 211/209/78
f 263/43/174 525/160/174 262/160/174
f 51/65/175 313/64/175 50/64/175
f 211/209/80 473/202/80 210/202/80
f 69/207/176 331/178/176 68/178/176
f 24/9/177 286/12/177 23/12/177
f 262/160/178 524/161/178 261/161/178
f 66/45/179 356/179/179 93/179/179
f 52/66/180 314/65/180 51/65/180
f 35/13/181 297/11/181 34/11/181
f 53/48/78 315/66/78 52/66/78
f 189/206/182 451/210/182 188/210/182
f 261/161/183 523/162/183 260/162/183
f 67/215/24 329/45/24 66/45/24
f 110/67/78 372/68/78 109/68/78
f 67/215/184 331/178/184 330/215/184
f 23/12/185 285/14/185 22/14/185
f 187/211/186 451/210/186 450/211/186
f 260/162/187 522/163/187 259/163/187
f 129/43/78 391/124/78 128/124/78
f 109/68/80 371/69/80 108/69/80
f 36/15/188 298/13/188 35/13/188
f 174/159/189 436/123/189 173/123/189
f 245/201/190 507/212/190 244/212/190
f 128/124/80 390/125/80 127/125/80
f 108/69/4 370/70/4 107/70/4
f 186/213/191 448/203/191 185/203/191
f 96/71/192 358/72/192 95/72/192
f 22/14/193 284/16/193 21/16/193
f 187/211/194 449/213/194 186/213/194
f 259/163/195 521/158/195 258/158/195
f 127/125/4 389/126/4 126/126/4
f 37/17/196 299/15/196 36/15/196
f 213/119/24 475/208/24 212/208/24
f 95/72/4 357/73/4 94/73/4
f 258/158/197 520/166/197 257/166/197
f 97/74/198 359/71/198 96/71/198
f 38/199/199 300/17/199 37/17/199
f 243/214/200 507/212/200 506/214/200
f 257/166/201 519/167/201 256/167/201
f 126/126/80 388/241/80 125/241/80
f 98/75/202 360/74/202 97/74/202
f 214/121/203 476/119/203 213/119/203
f 124/239/24 386/127/24 123/127/24
f 21/16/204 283/196/204 20/196/204
f 256/167/205 518/168/205 255/168/205
f 125/241/4 387/239/4 124/239/4
f 99/76/206 361/75/206 98/75/206
f 39/195/207 301/199/207 38/199/207
f 175/116/208 437/159/208 174/159/208
f 122/45/24 392/43/24 129/43/24
f 242/120/209 506/214/209 505/120/209
f 123/127/4 385/45/4 122/45/4
f 100/77/210 362/76/210 99/76/210
f 214/121/211 478/165/211 477/121/211
f 132/130/212 394/131/212 131/131/212
f 20/196/213 282/197/213 19/197/213
f 255/168/214 517/170/214 254/170/214
f 100/77/215 364/78/215 363/77/215
f 40/191/216 302/195/216 39/195/216
f 131/131/217 393/45/217 130/45/217
f 242/120/218 504/164/218 241/164/218
f 254/170/219 516/171/219 253/171/219
f 102/79/220 364/78/220 101/78/220
f 216/169/221 478/165/221 215/165/221
f 130/45/222 433/43/222 170/43/222
f 18/217/223 282/197/223 281/217/223
f 253/171/224 515/172/224 252/172/224
f 102/79/225 366/80/225 365/79/225
f 41/23/226 303/191/226 40/191/226
f 169/132/227 433/43/227 432/132/227
f 241/164/228 503/63/228 240/63/228
f 252/172/80 514/173/80 251/173/80
f 104/81/229 366/80/229 103/80/229
f 217/10/230 479/169/230 216/169/230
f 169/132/231 431/133/231 168/133/231
f 18/217/232 280/26/232 17/26/232
f 183/18/1 192/22/1 191/19/1
f 182/21/1 193/29/1 192/22/1
f 41/23/1 16/27/1 15/24/1
f 181/28/1 194/26/1 193/29/1
f 89/94/1 88/97/1 73/95/1
f 88/97/1 87/99/1 74/98/1
f 87/99/1 86/101/1 75/100/1
f 86/101/1 85/106/1 76/102/1
f 90/103/1 71/110/1 70/104/1
f 85/106/1 84/108/1 77/107/1
f 84/108/1 83/111/1 78/109/1
f 89/94/1 72/96/1 71/110/1
f 83/111/1 82/129/1 79/112/1
f 204/113/1 203/192/1 248/114/1
f 175/116/1 251/173/1 250/117/1
f 213/119/1 243/214/1 242/120/1
f 456/29/2 457/26/2 444/28/2
f 172/122/1 171/45/1 263/43/1
f 278/24/2 279/27/2 304/23/2
f 81/128/1 80/240/1 79/112/1
f 173/123/1 259/163/1 258/158/1
f 455/22/2 456/29/2 445/21/2
f 214/121/1 242/120/1 241/164/1
f 454/19/2 455/22/2 446/18/2
f 215/165/1 241/164/1 240/63/1
f 177/174/1 197/180/1 196/175/1
f 92/177/1 69/207/1 68/178/1
f 206/182/1 247/115/1 246/183/1
f 180/189/1 195/216/1 194/26/1
f 199/187/1 198/181/1 250/117/1
f 40/191/1 18/217/1 17/26/1
f 216/169/1 240/63/1 239/194/1
f 202/193/1 201/190/1 249/188/1
f 39/195/1 38/199/1 20/196/1
f 37/17/1 21/16/1 20/196/1
f 209/200/1 246/183/1 245/201/1
f 91/105/1 70/104/1 69/207/1
f 93/179/1 68/178/1 67/215/1
f 174/159/1 255/168/1 254/170/1
f 179/185/1 196/175/1 195/216/1
f 40/191/1 39/195/1 19/197/1
f 126/126/1 125/241/1 124/239/1
f 352/94/2 335/96/2 336/95/2
f 351/97/2 336/95/2 337/98/2
f 350/99/2 337/98/2 338/100/2
f 349/101/2 338/100/2 339/102/2
f 333/104/2 334/110/2 353/103/2
f 348/106/2 339/102/2 340/107/2
f 347/108/2 340/107/2 341/109/2
f 334/110/2 335/96/2 352/94/2
f 346/111/2 341/109/2 342/112/2
f 467/113/2 510/115/2 511/114/2
f 513/117/2 514/173/2 438/116/2
f 505/120/2 506/214/2 476/119/2
f 526/43/2 434/45/2 435/122/2
f 342/112/2 343/240/2 344/128/2
f 521/158/2 522/163/2 436/123/2
f 504/164/2 505/120/2 477/121/2
f 503/63/2 504/164/2 478/165/2
f 459/175/2 460/180/2 440/174/2
f 331/178/2 332/207/2 355/177/2
f 509/183/2 510/115/2 469/182/2
f 457/26/2 458/216/2 443/189/2
f 462/187/2 512/188/2 513/117/2
f 280/26/2 281/217/2 303/191/2
f 502/194/2 503/63/2 479/169/2
f 465/193/2 511/114/2 512/188/2
f 302/195/2 282/197/2 283/196/2
f 283/196/2 284/16/2 300/17/2
f 508/201/2 509/183/2 472/200/2
f 332/207/2 333/104/2 354/105/2
f 330/215/2 331/178/2 356/179/2
f 517/170/2 518/168/2 437/159/2
f 458/216/2 459/175/2 442/185/2
f 303/191/2 281/217/2 282/197/2
f 387/239/2 388/241/2 389/126/2
f 251/173/4 514/173/4 513/117/4
f 133/134/5 396/134/5 395/130/5
f 105/82/6 368/82/6 367/81/6
f 175/116/7 176/118/7 439/118/7
f 17/26/8 280/26/8 279/27/8
f 240/63/9 503/63/9 502/194/9
f 218/218/10 481/218/10 480/10/10
f 176/118/11 177/174/11 440/174/11
f 168/133/12 431/133/12 430/135/12
f 94/73/13 357/73/13 384/43/13
f 16/27/14 279/27/14 278/24/14
f 106/83/15 369/83/15 368/82/15
f 42/25/16 305/25/16 304/23/16
f 178/176/17 441/176/17 440/174/17
f 167/135/18 430/135/18 429/136/18
f 239/194/19 502/194/19 501/219/19
f 134/137/20 397/137/20 396/134/20
f 107/70/21 370/70/21 369/83/21
f 218/218/22 219/220/22 482/220/22
f 15/24/23 278/24/23 277/30/23
f 198/181/24 461/181/24 460/180/24
f 166/136/25 429/136/25 428/40/25
f 120/84/26 121/43/26 384/43/26
f 14/30/27 277/30/27 276/31/27
f 238/219/28 501/219/28 500/221/28
f 220/222/29 483/222/29 482/220/29
f 165/40/30 428/40/30 427/138/30
f 197/180/31 460/180/31 459/175/31
f 135/52/32 398/52/32 397/137/32
f 120/84/33 383/84/33 382/85/33
f 199/187/34 462/187/34 461/181/34
f 13/31/35 276/31/35 275/33/35
f 237/221/36 500/221/36 499/223/36
f 119/85/37 382/85/37 381/86/37
f 43/34/38 306/34/38 305/25/38
f 221/224/39 484/224/39 483/222/39
f 163/139/40 164/138/40 427/138/40
f 250/117/41 513/117/41 512/188/41
f 118/86/42 381/86/42 380/87/42
f 179/185/43 442/185/43 441/176/43
f 163/139/233 426/139/233 425/67/233
f 60/32/45 323/32/45 322/35/45
f 236/223/46 499/223/46 498/225/46
f 136/140/47 399/140/47 398/52/47
f 117/87/48 380/87/48 379/88/48
f 61/36/49 324/36/49 323/32/49
f 222/226/50 485/226/50 484/224/50
f 200/186/51 463/186/51 462/187/51
f 116/88/234 379/88/234 378/89/234
f 62/37/53 325/37/53 324/36/53
f 223/227/54 486/227/54 485/226/54
f 180/189/55 443/189/55 442/185/55
f 161/141/56 162/67/56 425/67/56
f 137/142/57 400/142/57 399/140/57
f 115/89/58 378/89/58 377/90/58
f 59/35/59 322/35/59 321/38/59
f 235/225/60 498/225/60 497/228/60
f 196/175/61 459/175/61 458/216/61
f 114/90/62 377/90/62 376/91/62
f 63/39/63 326/39/63 325/37/63
f 224/229/64 487/229/64 486/227/64
f 200/186/65 201/190/65 464/190/65
f 161/141/66 424/141/66 423/63/66
f 112/92/67 113/91/67 376/91/67
f 160/63/68 423/63/68 422/143/68
f 111/93/69 374/93/69 373/67/69
f 58/38/70 321/38/70 320/40/70
f 234/228/71 497/228/71 496/230/71
f 249/188/72 512/188/72 511/114/72
f 137/142/73 138/107/73 401/107/73
f 112/92/74 375/92/74 374/93/74
f 64/41/75 327/41/75 326/39/75
f 225/231/76 488/231/76 487/229/76
f 202/193/77 465/193/77 464/190/77
f 82/129/78 345/129/78 344/128/78
f 181/28/79 444/28/79 443/189/79
f 81/128/80 344/128/80 343/240/80
f 57/40/81 320/40/81 319/42/81
f 233/230/82 496/230/82 495/232/82
f 65/43/83 328/43/83 327/41/83
f 226/233/78 489/233/78 488/231/78
f 159/143/4 422/143/4 421/145/4
f 79/112/4 80/240/4 343/240/4
f 195/216/84 458/216/84 457/26/84
f 138/107/85 139/146/85 402/146/85
f 83/111/86 346/111/86 345/129/86
f 203/192/87 466/192/87 465/193/87
f 56/42/88 319/42/88 318/44/88
f 232/232/89 495/232/89 494/234/89
f 140/26/90 403/26/90 402/146/90
f 1/45/91 264/45/91 328/43/91
f 182/21/92 445/21/92 444/28/92
f 79/112/93 342/112/93 341/109/93
f 231/234/94 494/234/94 493/235/94
f 84/108/95 347/108/95 346/111/95
f 155/23/96 156/144/96 419/144/96
f 55/44/97 318/44/97 317/46/97
f 230/235/98 493/235/98 492/236/98
f 194/26/99 457/26/99 456/29/99
f 157/147/78 420/147/78 419/144/78
f 204/113/100 467/113/100 466/192/100
f 158/145/24 421/145/24 420/147/24
f 77/107/101 78/109/101 341/109/101
f 12/33/102 275/33/102 274/47/102
f 229/236/103 492/236/103 491/237/103
f 141/148/104 404/148/104 403/26/104
f 85/106/105 348/106/105 347/108/105
f 227/238/106 490/238/106 489/233/106
f 54/46/107 317/46/107 316/48/107
f 228/237/108 491/237/108 490/238/108
f 248/114/109 511/114/109 510/115/109
f 2/49/110 265/49/110 264/45/110
f 183/18/111 446/18/111 445/21/111
f 155/23/112 418/23/112 417/76/112
f 77/107/113 340/107/113 339/102/113
f 86/101/114 349/101/114 348/106/114
f 205/198/115 468/198/115 467/113/115
f 154/76/116 417/76/116 416/149/116
f 11/47/117 274/47/117 273/50/117
f 141/148/118 142/150/118 405/150/118
f 44/51/119 307/51/119 306/34/119
f 76/102/120 339/102/120 338/100/120
f 193/29/121 456/29/121 455/22/121
f 87/99/122 350/99/122 349/101/122
f 206/182/123 469/182/123 468/198/123
f 153/149/124 416/149/124 415/151/124
f 10/50/117 273/50/117 272/52/117
f 143/152/125 406/152/125 405/150/125
f 45/53/126 308/53/126 307/51/126
f 184/20/127 447/20/127 446/18/127
f 75/100/128 338/100/128 337/98/128
f 87/99/129 88/97/129 351/97/129
f 152/151/130 415/151/130 414/153/130
f 9/52/102 272/52/102 271/54/102
f 191/19/131 192/22/131 455/22/131
f 207/184/132 470/184/132 469/182/132
f 151/153/133 414/153/133 413/10/133
f 74/98/134 337/98/134 336/95/134
f 8/54/35 271/54/35 270/55/35
f 29/1/135 292/1/135 291/2/135
f 144/154/78 407/154/78 406/152/78
f 89/94/136 352/94/136 351/97/136
f 46/56/137 309/56/137 308/53/137
f 28/2/138 291/2/138 290/3/138
f 247/115/139 510/115/139 509/183/139
f 30/4/140 293/4/140 292/1/140
f 185/203/78 448/203/78 447/20/78
f 150/10/141 413/10/141 412/155/141
f 73/95/142 336/95/142 335/96/142
f 7/55/27 270/55/27 269/57/27
f 89/94/143 90/103/143 353/103/143
f 207/184/144 208/204/144 471/204/144
f 149/155/145 412/155/145 411/156/145
f 6/57/23 269/57/23 268/58/23
f 27/3/146 290/3/146 289/5/146
f 47/59/147 310/59/147 309/56/147
f 31/6/148 294/6/148 293/4/148
f 148/156/149 411/156/149 410/157/149
f 72/96/150 335/96/150 334/110/150
f 191/19/151 454/19/151 453/205/151
f 91/105/152 354/105/152 353/103/152
f 209/200/153 472/200/153 471/204/153
f 147/157/154 410/157/154 409/97/154
f 5/58/14 268/58/14 267/60/14
f 26/5/155 289/5/155 288/7/155
f 145/7/156 408/7/156 407/154/156
f 3/61/4 266/61/4 265/49/4
f 32/8/157 295/8/157 294/6/157
f 146/97/158 409/97/158 408/7/158
f 71/110/159 334/110/159 333/104/159
f 4/60/8 267/60/8 266/61/8
f 190/205/160 453/205/160 452/206/160
f 173/123/161 436/123/161 435/122/161
f 91/105/162 92/177/162 355/177/162
f 48/62/163 311/62/163 310/59/163
f 210/202/164 473/202/164 472/200/164
f 25/7/165 288/7/165 287/9/165
f 172/122/80 435/122/80 434/45/80
f 49/63/166 312/63/166 311/62/166
f 33/10/167 296/10/167 295/8/167
f 70/104/168 333/104/168 332/207/168
f 246/183/169 509/183/169 508/201/169
f 171/45/170 434/45/170 526/43/170
f 93/179/171 356/179/171 355/177/171
f 49/63/172 50/64/172 313/64/172
f 34/11/173 297/11/173 296/10/173
f 212/208/78 475/208/78 474/209/78
f 263/43/174 526/43/174 525/160/174
f 51/65/175 314/65/175 313/64/175
f 211/209/80 474/209/80 473/202/80
f 69/207/176 332/207/176 331/178/176
f 24/9/177 287/9/177 286/12/177
f 262/160/178 525/160/178 524/161/178
f 66/45/179 329/45/179 356/179/179
f 52/66/180 315/66/180 314/65/180
f 35/13/181 298/13/181 297/11/181
f 53/48/78 316/48/78 315/66/78
f 189/206/182 452/206/182 451/210/182
f 261/161/183 524/161/183 523/162/183
f 67/215/24 330/215/24 329/45/24
f 110/67/78 373/67/78 372/68/78
f 67/215/184 68/178/184 331/178/184
f 23/12/185 286/12/185 285/14/185
f 187/211/186 188/210/186 451/210/186
f 260/162/187 523/162/187 522/163/187
f 129/43/78 392/43/78 391/124/78
f 109/68/80 372/68/80 371/69/80
f 36/15/188 299/15/188 298/13/188
f 174/159/189 437/159/189 436/123/189
f 245/201/190 508/201/190 507/212/190
f 128/124/80 391/124/80 390/125/80
f 108/69/4 371/69/4 370/70/4
f 186/213/191 449/213/191 448/203/191
f 96/71/192 359/71/192 358/72/192
f 22/14/193 285/14/193 284/16/193
f 187/211/194 450/211/194 449/213/194
f 259/163/195 522/163/195 521/158/195
f 127/125/4 390/125/4 389/126/4
f 37/17/196 300/17/196 299/15/196
f 213/119/24 476/119/24 475/208/24
f 95/72/4 358/72/4 357/73/4
f 258/158/197 521/158/197 520/166/197
f 97/74/198 360/74/198 359/71/198
f 38/199/199 301/199/199 300/17/199
f 243/214/200 244/212/200 507/212/200
f 257/166/201 520/166/201 519/167/201
f 126/126/80 389/126/80 388/241/80
f 98/75/202 361/75/202 360/74/202
f 214/121/203 477/121/203 476/119/203
f 124/239/24 387/239/24 386/127/24
f 21/16/204 284/16/204 283/196/204
f 256/167/205 519/167/205 518/168/205
f 125/241/4 388/241/4 387/239/4
f 99/76/206 362/76/206 361/75/206
f 39/195/207 302/195/207 301/199/207
f 175/116/208 438/116/208 437/159/208
f 122/45/24 385/45/24 392/43/24
f 242/120/209 243/214/209 506/214/209
f 123/127/4 386/127/4 385/45/4
f 100/77/210 363/77/210 362/76/210
f 214/121/211 215/165/211 478/165/211
f 132/130/212 395/130/212 394/131/212
f 20/196/213 283/196/213 282/197/213
f 255/168/214 518/168/214 517/170/214
f 100/77/215 101/78/215 364/78/215
f 40/191/235 303/191/235 302/195/235
f 131/131/217 394/131/217 393/45/217
f 242/120/218 505/120/218 504/164/218
f 254/170/219 517/170/219 516/171/219
f 102/79/220 365/79/220 364/78/220
f 216/169/221 479/169/221 478/165/221
f 130/45/222 393/45/222 433/43/222
f 18/217/223 19/197/223 282/197/223
f 253/171/224 516/171/224 515/172/224
f 102/79/225 103/80/225 366/80/225
f 41/23/226 304/23/226 303/191/226
f 169/132/227 170/43/227 433/43/227
f 241/164/228 504/164/228 503/63/228
f 252/172/80 515/172/80 514/173/80
f 104/81/229 367/81/229 366/80/229
f 217/10/230 480/10/230 479/169/230
f 169/132/231 432/132/231 431/133/231
f 18/217/232 281/217/232 280/26/232
