# Blender 4.4.3
# www.blender.org
mtllib attack.mtl
o 球.001
v -0.530330 0.265165 0.416758
v 0.530330 0.265165 0.416758
v -0.530486 0.254897 0.287603
v 0.509794 0.265243 0.287603
v -0.510256 0.234833 0.163410
v 0.469666 0.255128 0.163410
v -0.470417 0.205745 0.048954
v 0.411490 0.235208 0.048954
v -0.412500 0.168750 -0.051368
v 0.337500 0.206250 -0.051368
v -0.338731 0.125270 -0.133700
v 0.250540 0.169365 -0.133700
v -0.251945 0.076976 -0.194878
v 0.153952 0.125972 -0.194878
v 0.051448 0.077738 -0.232551
v -0.155476 0.025724 -0.232551
v -0.053033 0.026516 -0.245272
v -0.053033 -0.026517 -0.245272
v -0.155476 -0.025724 -0.232551
v 0.051448 -0.077738 -0.232551
v 0.153952 -0.125972 -0.194878
v -0.251945 -0.076976 -0.194878
v 0.250540 -0.169366 -0.133700
v -0.338731 -0.125270 -0.133700
v 0.337500 -0.206250 -0.051368
v -0.412500 -0.168750 -0.051368
v 0.411490 -0.235209 0.048954
v -0.470417 -0.205745 0.048954
v -0.510256 -0.234833 0.163410
v 0.469666 -0.255128 0.163410
v -0.530486 -0.254897 0.287603
v 0.509794 -0.265243 0.287603
v -0.520140 0.260070 0.285072
v 0.520140 0.260070 0.285072
v -0.489961 0.244980 0.158447
v 0.489961 0.244980 0.158447
v -0.440953 0.220477 0.041748
v 0.440953 0.220476 0.041748
v -0.375000 0.187500 -0.060539
v 0.375000 0.187500 -0.060539
v 0.294636 0.147318 -0.144484
v -0.294636 0.147318 -0.144484
v -0.202949 0.101474 -0.206861
v 0.202949 0.101474 -0.206861
v -0.103462 0.051731 -0.245272
v 0.103462 0.051731 -0.245272
v 0.103462 -0.051731 -0.245272
v -0.103462 -0.051731 -0.245272
v 0.202949 -0.101474 -0.206861
v -0.202949 -0.101474 -0.206861
v -0.294636 -0.147318 -0.144484
v 0.294636 -0.147318 -0.144484
v 0.375000 -0.187500 -0.060539
v -0.375000 -0.187500 -0.060539
v -0.440953 -0.220477 0.041748
v 0.440953 -0.220477 0.041748
v 0.489961 -0.244981 0.158447
v -0.489961 -0.244981 0.158447
v 0.520140 -0.260070 0.285072
v -0.520140 -0.260070 0.285072
v 0.530486 0.254897 0.287603
v -0.509794 0.265243 0.287603
v 0.510256 0.234833 0.163410
v -0.469666 0.255128 0.163410
v -0.411490 0.235208 0.048954
v 0.470417 0.205745 0.048954
v -0.337500 0.206250 -0.051368
v 0.412500 0.168750 -0.051368
v 0.338731 0.125270 -0.133700
v -0.250540 0.169365 -0.133700
v 0.251945 0.076976 -0.194878
v -0.153952 0.125972 -0.194878
v 0.155476 0.025724 -0.232551
v -0.051448 0.077738 -0.232551
v 0.053033 -0.026517 -0.245272
v 0.053033 0.026516 -0.245272
v 0.155476 -0.025724 -0.232551
v -0.051448 -0.077738 -0.232551
v -0.153952 -0.125972 -0.194878
v 0.251945 -0.076976 -0.194878
v -0.250540 -0.169366 -0.133700
v 0.338731 -0.125270 -0.133700
v 0.412500 -0.168750 -0.051368
v -0.337500 -0.206250 -0.051368
v 0.470417 -0.205745 0.048954
v -0.411490 -0.235209 0.048954
v -0.469666 -0.255128 0.163410
v 0.510256 -0.234833 0.163410
v -0.509794 -0.265243 0.287603
v 0.530486 -0.254897 0.287603
v 0.530330 -0.265165 0.416758
v -0.530330 -0.265165 0.416758
v -0.525313 0.257483 0.273252
v 0.514967 0.262656 0.273252
v -0.500108 0.239907 0.135260
v 0.479814 0.250054 0.135260
v -0.455685 0.213111 0.008087
v 0.426222 0.227842 0.008087
v -0.393750 0.178125 -0.103382
v 0.356250 0.196875 -0.103382
v -0.316683 0.136294 -0.194862
v 0.272588 0.158341 -0.194862
v -0.227447 0.089225 -0.262838
v 0.178450 0.113723 -0.262838
v -0.129469 0.038727 -0.304697
v 0.077455 0.064734 -0.304697
v 0.077455 -0.064735 -0.304697
v -0.129469 -0.038728 -0.304697
v 0.178450 -0.113723 -0.262838
v -0.227447 -0.089225 -0.262838
v -0.316683 -0.136294 -0.194862
v 0.272588 -0.158342 -0.194862
v 0.356250 -0.196875 -0.103382
v -0.393750 -0.178125 -0.103382
v 0.426222 -0.227843 0.008087
v -0.455685 -0.213111 0.008087
v -0.500108 -0.239907 0.135260
v 0.479814 -0.250054 0.135260
v -0.525313 -0.257484 0.273252
v 0.514967 -0.262657 0.273252
v 0.520140 0.260070 0.270440
v -0.520140 0.260070 0.270440
v -0.489961 0.244980 0.129746
v 0.489961 0.244980 0.129745
v 0.440953 0.220477 0.000080
v -0.440953 0.220477 0.000080
v -0.375000 0.187500 -0.113572
v 0.375000 0.187500 -0.113572
v 0.294636 0.147318 -0.206844
v -0.294636 0.147318 -0.206844
v -0.202949 0.101474 -0.276152
v 0.202949 0.101474 -0.276152
v -0.103462 0.051731 -0.318831
v 0.103462 0.051731 -0.318831
v 0.000000 -0.000000 -0.333242
v 0.000000 -0.000000 -0.333242
v -0.103462 -0.051731 -0.318831
v 0.103462 -0.051731 -0.318831
v -0.202949 -0.101474 -0.276152
v 0.202948 -0.101474 -0.276152
v -0.294636 -0.147318 -0.206844
v 0.294636 -0.147318 -0.206844
v -0.375000 -0.187500 -0.113572
v 0.375000 -0.187500 -0.113572
v 0.440953 -0.220477 0.000080
v -0.440953 -0.220477 0.000080
v -0.489961 -0.244981 0.129746
v 0.489961 -0.244981 0.129745
v -0.520140 -0.260070 0.270440
v 0.520140 -0.260070 0.270440
v 0.525313 0.257483 0.273252
v -0.514967 0.262656 0.273252
v 0.500109 0.239907 0.135260
v -0.479814 0.250054 0.135260
v 0.455685 0.213111 0.008087
v -0.426221 0.227842 0.008087
v -0.356250 0.196875 -0.103382
v 0.393750 0.178125 -0.103382
v -0.272588 0.158341 -0.194862
v 0.316683 0.136294 -0.194862
v -0.178450 0.113723 -0.262838
v 0.227447 0.089225 -0.262838
v 0.129469 0.038727 -0.304697
v -0.077455 0.064734 -0.304697
v 0.129469 -0.038728 -0.304697
v -0.077455 -0.064735 -0.304697
v 0.227447 -0.089225 -0.262838
v -0.178450 -0.113723 -0.262838
v 0.316683 -0.136294 -0.194862
v -0.272588 -0.158342 -0.194862
v -0.356250 -0.196875 -0.103382
v 0.393750 -0.178125 -0.103382
v -0.426221 -0.227843 0.008087
v 0.455685 -0.213111 0.008087
v -0.479814 -0.250054 0.135260
v 0.500109 -0.239907 0.135260
v 0.525313 -0.257484 0.273252
v -0.514967 -0.262657 0.273252
v -0.050646 0.025323 -0.251893
v 0.000000 -0.000000 -0.258242
v -0.050646 0.025323 -0.251893
v -0.105031 -0.000000 -0.238815
v 0.050646 -0.025323 -0.251893
v 0.000000 -0.000000 -0.258242
v 0.050646 -0.025323 -0.251893
v 0.000000 -0.000000 -0.258242
v -0.000001 -0.052516 -0.238815
v 0.000000 -0.052516 -0.238815
v -0.000001 0.052515 -0.238815
v 0.000000 0.000000 -0.258242
v 0.105032 -0.000000 -0.238815
v -0.052773 -0.000000 -0.315226
v -0.000000 -0.000000 -0.333242
v -0.000000 -0.026387 -0.315226
v 0.000000 -0.000000 -0.333242
v 0.000000 -0.000000 -0.333242
v 0.000000 -0.000000 -0.333242
v 0.000000 0.026386 -0.315226
v -0.000000 0.026386 -0.315226
v 0.052773 -0.000000 -0.315226
v 0.000000 -0.026387 -0.315226
v 0.000000 -0.035189 -0.289486
v 0.000000 -0.035189 -0.289486
v -0.050646 -0.025323 -0.251893
v -0.050646 -0.025323 -0.251893
v -0.070377 -0.000000 -0.289486
v 0.000000 0.035188 -0.289486
v 0.000000 0.035188 -0.289486
v 0.050646 0.025323 -0.251893
v 0.000000 0.052516 -0.238815
v 0.070377 -0.000000 -0.289486
v 0.050646 0.025323 -0.251893
vn -0.1579 0.6705 0.7249
vn 0.4790 -0.6970 0.5336
vn -0.2381 0.7674 0.5953
vn 0.4496 -0.5580 0.6975
vn -0.3029 0.8326 0.4637
vn 0.3903 -0.3678 0.8440
vn -0.3554 0.8735 0.3327
vn 0.2980 -0.1338 0.9451
vn -0.3982 0.8949 0.2015
vn 0.0768 0.8905 0.4484
vn 0.1806 0.1164 0.9766
vn 0.4597 -0.8853 0.0698
vn -0.4328 0.8989 0.0683
vn -0.0020 0.4153 0.9097
vn 0.0558 0.3464 0.9364
vn 0.4784 -0.8513 0.2155
vn -0.0598 0.5325 0.8443
vn 0.4863 -0.7914 0.3704
vn -0.4784 0.8513 0.2155
vn -0.0558 -0.3464 0.9364
vn 0.4328 -0.8989 0.0683
vn -0.4597 0.8853 0.0698
vn -0.1806 -0.1164 0.9766
vn 0.3982 -0.8949 0.2015
vn -0.2980 0.1338 0.9451
vn 0.3554 -0.8735 0.3327
vn -0.3903 0.3678 0.8440
vn 0.3029 -0.8326 0.4637
vn -0.4496 0.5580 0.6975
vn 0.2381 -0.7674 0.5953
vn -0.4790 0.6970 0.5336
vn 0.1579 -0.6705 0.7249
vn -0.4863 0.7914 0.3704
vn 0.0598 -0.5325 0.8443
vn 0.0646 -0.7908 -0.6086
vn -0.5911 0.6153 -0.5215
vn 0.1543 -0.8521 -0.5001
vn -0.5870 0.4252 -0.6889
vn 0.2316 -0.8900 -0.3927
vn -0.5364 0.1754 -0.8256
vn 0.3000 -0.9102 -0.2854
vn -0.4350 -0.1024 -0.8946
vn 0.3621 -0.9154 -0.1759
vn -0.3000 -0.9023 -0.3096
vn -0.7083 -0.0000 -0.7060
vn -0.5845 -0.6735 -0.4525
vn -0.5233 0.8281 -0.2011
vn -0.0410 -0.6966 -0.7163
vn -0.5651 0.7450 -0.3544
vn 0.5233 -0.8281 -0.2011
vn 0.1646 0.5562 -0.8146
vn 0.5107 -0.0000 -0.8598
vn 0.3018 0.3573 -0.8839
vn -0.3621 0.9154 -0.1758
vn 0.4350 0.1024 -0.8946
vn -0.3000 0.9102 -0.2854
vn 0.5364 -0.1754 -0.8256
vn -0.2316 0.8900 -0.3927
vn 0.5870 -0.4252 -0.6889
vn -0.1543 0.8521 -0.5001
vn 0.5911 -0.6153 -0.5215
vn -0.0646 0.7908 -0.6086
vn 0.5651 -0.7450 -0.3544
vn 0.0410 0.6966 -0.7163
vn -0.4198 0.9056 -0.0608
vn -0.4737 0.8784 -0.0636
vn 0.4198 -0.9056 -0.0608
vn 0.4737 -0.8784 -0.0636
vn 0.3283 -0.9432 -0.0516
vn 0.5821 -0.8106 -0.0637
vn 0.1419 -0.9819 -0.1258
vn 0.0070 -0.9846 -0.1749
vn -0.0961 -0.9730 -0.2100
vn -0.1804 -0.9546 -0.2371
vn -0.2542 -0.9317 -0.2595
vn -0.3228 -0.9043 -0.2794
vn -0.3907 -0.8710 -0.2978
vn -0.4619 -0.8288 -0.3159
vn -0.5406 -0.7721 -0.3341
vn -0.6323 -0.6900 -0.3523
vn -0.7416 -0.5607 -0.3684
vn -0.8631 -0.3409 -0.3726
vn -0.9419 0.0269 -0.3347
vn -0.8452 0.4886 -0.2166
vn -0.5821 0.8106 -0.0637
vn -0.3283 0.9431 -0.0516
vn -0.1419 0.9819 -0.1258
vn -0.0070 0.9846 -0.1749
vn 0.0961 0.9730 -0.2100
vn 0.1804 0.9546 -0.2371
vn 0.2542 0.9317 -0.2595
vn 0.3228 0.9043 -0.2794
vn 0.3907 0.8710 -0.2978
vn 0.3914 0.8080 -0.4403
vn 0.4619 0.8288 -0.3159
vn 0.4874 0.7973 -0.3560
vn 0.5406 0.7721 -0.3341
vn 0.6323 0.6900 -0.3523
vn 0.7416 0.5607 -0.3684
vn 0.8631 0.3409 -0.3726
vn 0.9419 -0.0269 -0.3347
vn 0.8452 -0.4886 -0.2166
vn 0.3903 0.3678 0.8440
vn -0.3029 -0.8326 0.4637
vn 0.4496 0.5580 0.6975
vn -0.2381 -0.7674 0.5953
vn 0.4790 0.6970 0.5336
vn -0.1579 -0.6705 0.7249
vn 0.4863 0.7914 0.3704
vn -0.0598 -0.5325 0.8443
vn 0.4784 0.8513 0.2155
vn 0.0558 -0.3464 0.9364
vn 0.0020 -0.4092 0.9125
vn -0.4328 -0.8989 0.0683
vn 0.4597 0.8853 0.0698
vn 0.1806 -0.1164 0.9766
vn -0.3982 -0.8949 0.2015
vn 0.2980 0.1338 0.9451
vn -0.3554 -0.8735 0.3327
vn 0.3982 0.8949 0.2015
vn -0.1806 0.1164 0.9766
vn -0.1819 -0.0000 0.9833
vn -0.4597 -0.8853 0.0698
vn 0.4328 0.8989 0.0683
vn -0.0427 0.3088 0.9502
vn -0.4784 -0.8513 0.2155
vn 0.0598 0.5325 0.8443
vn -0.4863 -0.7914 0.3704
vn 0.1579 0.6705 0.7249
vn -0.4790 -0.6970 0.5336
vn 0.2381 0.7674 0.5953
vn -0.4496 -0.5580 0.6975
vn 0.3029 0.8326 0.4637
vn -0.3903 -0.3678 0.8440
vn 0.3554 0.8735 0.3327
vn -0.2980 -0.1338 0.9451
vn -0.5364 -0.1754 -0.8256
vn 0.2316 0.8900 -0.3927
vn -0.5870 -0.4252 -0.6889
vn 0.1543 0.8521 -0.5001
vn -0.5911 -0.6153 -0.5215
vn 0.0646 0.7908 -0.6086
vn -0.5651 -0.7450 -0.3544
vn -0.0410 0.6966 -0.7163
vn -0.5233 -0.8281 -0.2011
vn -0.1646 0.5562 -0.8146
vn -0.3017 0.3573 -0.8839
vn 0.3621 0.9154 -0.1759
vn -0.4350 0.1024 -0.8946
vn 0.3000 0.9102 -0.2854
vn -0.3621 -0.9154 -0.1759
vn 0.3018 -0.3573 -0.8839
vn 0.1646 -0.5562 -0.8146
vn 0.5233 0.8281 -0.2011
vn 0.0410 -0.6966 -0.7163
vn 0.5651 0.7450 -0.3544
vn -0.0646 -0.7908 -0.6086
vn 0.5911 0.6153 -0.5215
vn -0.1543 -0.8521 -0.5001
vn 0.5870 0.4252 -0.6889
vn -0.2316 -0.8900 -0.3927
vn 0.5364 0.1754 -0.8256
vn -0.3000 -0.9102 -0.2854
vn 0.4350 -0.1024 -0.8946
vn 0.4737 0.8784 -0.0636
vn 0.4198 0.9056 -0.0608
vn -0.4737 -0.8784 -0.0636
vn -0.4198 -0.9056 -0.0608
vn -0.5821 -0.8106 -0.0637
vn -0.3283 -0.9432 -0.0516
vn -0.8452 -0.4886 -0.2166
vn -0.9419 -0.0269 -0.3347
vn -0.8631 0.3409 -0.3726
vn -0.7416 0.5607 -0.3684
vn -0.6323 0.6900 -0.3523
vn -0.5406 0.7721 -0.3341
vn -0.4619 0.8288 -0.3159
vn -0.3907 0.8710 -0.2978
vn -0.3838 0.8783 -0.2851
vn -0.3228 0.9043 -0.2794
vn -0.2542 0.9317 -0.2595
vn -0.1804 0.9546 -0.2371
vn -0.0961 0.9730 -0.2100
vn 0.0070 0.9846 -0.1749
vn 0.1419 0.9819 -0.1258
vn 0.3283 0.9431 -0.0516
vn 0.5821 0.8106 -0.0637
vn 0.8452 0.4886 -0.2166
vn 0.9419 0.0269 -0.3347
vn 0.8631 -0.3409 -0.3726
vn 0.7416 -0.5607 -0.3684
vn 0.6323 -0.6900 -0.3523
vn 0.5406 -0.7721 -0.3341
vn 0.4619 -0.8288 -0.3159
vn 0.4567 -0.7188 -0.5241
vn 0.3907 -0.8710 -0.2978
vn 0.3228 -0.9043 -0.2794
vn 0.2542 -0.9317 -0.2595
vn 0.1804 -0.9546 -0.2371
vn 0.0961 -0.9730 -0.2100
vn -0.0070 -0.9846 -0.1749
vn -0.1419 -0.9819 -0.1258
vn -0.0000 0.4061 0.9138
vn -0.0832 0.0605 0.9947
vn -0.0434 -0.2871 0.9569
vn -0.3017 -0.3573 -0.8839
vn -0.3018 -0.3573 -0.8839
vn -0.1646 -0.5562 -0.8146
vn 0.5704 0.4632 -0.6784
vn 0.1464 0.4970 -0.8553
vn -0.3621 0.9154 -0.1759
vn -0.3370 -0.8986 -0.2808
vn -0.3838 -0.8783 -0.2851
vn -0.4683 -0.7493 -0.4683
vn 0.3523 0.8884 -0.2944
vn -0.0830 -0.0000 0.9965
vn -0.0000 -0.3818 0.9242
vn 0.0526 0.3126 0.9484
vn -0.0558 0.3464 0.9364
vn -0.3483 0.8277 -0.4400
vn -0.0997 0.9512 -0.2920
vn -0.3018 0.3573 -0.8839
vn 0.3621 0.9154 -0.1758
vn -0.3621 -0.9154 -0.1758
vn 0.1448 -0.5150 -0.8449
vn 0.5778 -0.4602 -0.6740
vn -0.3632 0.8126 -0.4559
vn -0.3188 0.9044 -0.2838
vn 0.5457 -0.7652 -0.3417
vn 0.3370 -0.8986 -0.2808
vt 0.281250 0.312500
vt 0.250000 0.375000
vt 0.281250 0.375000
vt 0.281250 0.750000
vt 0.250000 0.812500
vt 0.281250 0.812500
vt 0.281250 0.250000
vt 0.250000 0.312500
vt 0.281250 0.687500
vt 0.250000 0.750000
vt 0.281250 0.187500
vt 0.250000 0.250000
vt 0.281250 0.625000
vt 0.250000 0.687500
vt 0.281250 0.125000
vt 0.250000 0.187500
vt 0.281250 0.562500
vt 0.250000 0.625000
vt 0.250000 0.062500
vt 0.281250 0.062500
vt 0.250000 0.530595
vt 0.250000 0.530595
vt 0.281250 0.500000
vt 0.250000 0.500000
vt 0.281250 0.531724
vt 0.281250 0.937500
vt 0.250000 0.937500
vt 0.265625 1.000000
vt 0.265625 0.000000
vt 0.250000 0.500000
vt 0.250000 0.500000
vt 0.250000 0.437500
vt 0.250000 0.469405
vt 0.281250 0.468276
vt 0.281250 0.875000
vt 0.281250 0.437500
vt 0.250000 0.875000
vt 0.218750 0.125000
vt 0.250000 0.125000
vt 0.218750 0.562500
vt 0.218750 0.531724
vt 0.218750 0.937500
vt 0.234375 1.000000
vt 0.234375 0.000000
vt 0.218750 0.062500
vt 0.250000 0.500000
vt 0.218750 0.468276
vt 0.218750 0.500000
vt 0.218750 0.875000
vt 0.218750 0.437500
vt 0.218750 0.375000
vt 0.218750 0.812500
vt 0.218750 0.312500
vt 0.218750 0.750000
vt 0.218750 0.250000
vt 0.218750 0.687500
vt 0.218750 0.187500
vt 0.250000 0.562500
vt 0.218750 0.625000
vt 0.250000 0.500000
vt 0.250000 0.500000
vt 0.218750 0.515940
vt 0.250000 0.500000
vt 0.218750 0.484060
vt 0.000000 0.000000
vt 0.281250 0.484060
vt 0.281250 0.478743
vt 0.281250 0.468276
vt 0.281250 0.478743
vt 0.281250 0.521257
vt 0.218750 0.521257
vt 0.218750 0.515940
vt 0.218750 0.531724
vt 0.218750 0.478743
vt 0.281250 0.531724
vt 0.250000 0.530595
vt 0.250000 0.469405
vt 0.281250 0.468276
vt 0.218750 0.531724
vt 0.218750 0.468276
vt 0.281250 0.515940
vt 0.218750 0.484060
vt 0.281250 0.478743
vt 0.281250 0.521257
vt 0.281250 0.515940
vt 0.281250 0.521257
vt 0.218750 0.521257
vt 0.218750 0.468276
vt 0.218750 0.484060
vt 0.218750 0.478743
vt 0.281250 0.515940
vt 0.281250 0.484060
vt 0.218750 0.521257
vt 0.281250 0.531723
vt 0.250000 0.469405
vt 0.218750 0.478743
s 0
usemtl マテリアル.001
f 23/1/1 49/2/1 21/3/1
f 9/4/2 37/5/2 7/6/2
f 25/7/3 52/8/3 23/1/3
f 11/9/4 39/10/4 9/4/4
f 27/11/5 53/12/5 25/7/5
f 13/13/6 42/14/6 11/9/6
f 30/15/7 56/16/7 27/11/7
f 16/17/8 43/18/8 13/13/8
f 59/19/9 30/15/9 32/20/9
f 16/17/10 181/21/10 179/22/10
f 18/23/11 180/24/11 182/25/11
f 3/26/12 33/27/12 1/28/12
f 91/29/13 59/19/13 32/20/13
f 18/23/14 186/30/14 184/31/14
f 47/32/15 185/33/15 188/34/15
f 5/35/16 33/27/16 3/26/16
f 21/3/17 47/32/17 20/36/17
f 7/6/18 35/37/18 5/35/18
f 59/19/19 88/38/19 57/39/19
f 74/40/20 179/22/20 189/41/20
f 33/27/21 62/42/21 1/43/21
f 91/44/22 90/45/22 59/19/22
f 190/46/23 191/47/23 76/48/23
f 47/32/23 191/47/23 183/33/23
f 64/49/24 33/27/24 35/37/24
f 49/2/25 77/50/25 47/32/25
f 37/5/26 64/49/26 35/37/26
f 52/8/27 80/51/27 49/2/27
f 39/10/28 65/52/28 37/5/28
f 53/12/29 82/53/29 52/8/29
f 42/14/30 67/54/30 39/10/30
f 56/16/31 83/55/31 53/12/31
f 43/18/32 70/56/32 42/14/32
f 57/39/33 85/57/33 56/16/33
f 45/58/34 72/59/34 43/18/34
f 112/1/35 140/2/35 142/8/35
f 99/4/36 126/5/36 127/10/36
f 113/7/37 142/8/37 144/12/37
f 101/9/38 127/10/38 130/14/38
f 113/7/39 145/16/39 115/11/39
f 103/13/40 130/14/40 131/18/40
f 115/11/41 148/39/41 118/15/41
f 105/17/42 131/18/42 133/58/42
f 118/15/43 150/19/43 120/20/43
f 105/17/44 136/60/44 193/60/44
f 136/60/45 196/60/45 193/60/45
f 107/36/46 195/61/46 196/60/46
f 95/35/47 122/27/47 123/37/47
f 109/3/48 138/32/48 140/2/48
f 97/6/49 123/37/49 126/5/49
f 150/19/50 176/38/50 177/45/50
f 136/60/51 164/40/51 199/62/51
f 196/60/52 136/60/52 197/63/52
f 138/32/53 200/64/53 165/50/53
f 122/27/54 154/49/54 123/37/54
f 140/2/55 165/50/55 167/51/55
f 123/37/56 156/52/56 126/5/56
f 142/8/57 167/51/57 169/53/57
f 126/5/58 157/54/58 127/10/58
f 144/12/59 169/53/59 172/55/59
f 130/14/60 157/54/60 159/56/60
f 145/16/61 172/55/61 174/57/61
f 131/18/62 159/56/62 161/59/62
f 148/39/63 174/57/63 176/38/63
f 133/58/64 161/59/64 164/40/64
f 122/27/65 1/65/65 152/42/65
f 122/27/66 93/26/66 1/65/66
f 91/65/67 120/20/67 150/19/67
f 150/19/68 177/45/68 91/65/68
f 91/65/69 32/20/69 120/20/69
f 91/65/70 177/45/70 90/45/70
f 120/20/71 32/20/71 118/15/71
f 32/20/71 30/15/71 118/15/71
f 118/15/72 30/15/72 115/11/72
f 30/15/72 27/11/72 115/11/72
f 115/11/73 27/11/73 113/7/73
f 27/11/73 25/7/73 113/7/73
f 113/7/74 25/7/74 112/1/74
f 25/7/74 23/1/74 112/1/74
f 112/1/75 23/1/75 109/3/75
f 23/1/75 21/3/75 109/3/75
f 109/3/76 21/3/76 107/36/76
f 21/3/76 20/36/76 107/36/76
f 201/66/77 107/36/77 202/67/77
f 18/23/77 204/23/77 187/68/77
f 203/69/77 20/36/77 188/34/77
f 18/23/78 182/25/78 205/23/78
f 182/25/78 16/17/78 206/70/78
f 105/17/78 206/70/78 16/17/78
f 16/17/79 13/13/79 105/17/79
f 105/17/79 13/13/79 103/13/79
f 13/13/80 11/9/80 103/13/80
f 103/13/80 11/9/80 101/9/80
f 11/9/81 9/4/81 101/9/81
f 101/9/81 9/4/81 99/4/81
f 9/4/82 7/6/82 99/4/82
f 99/4/82 7/6/82 97/6/82
f 7/6/83 5/35/83 97/6/83
f 97/6/83 5/35/83 95/35/83
f 5/35/84 3/26/84 95/35/84
f 95/35/84 3/26/84 93/26/84
f 1/65/85 93/26/85 3/26/85
f 1/65/86 62/42/86 152/42/86
f 152/42/87 62/42/87 154/49/87
f 62/42/87 64/49/87 154/49/87
f 154/49/88 64/49/88 156/52/88
f 64/49/88 65/52/88 156/52/88
f 156/52/89 65/52/89 157/54/89
f 65/52/89 67/54/89 157/54/89
f 157/54/90 67/54/90 159/56/90
f 67/54/90 70/56/90 159/56/90
f 159/56/91 70/56/91 161/59/91
f 70/56/91 72/59/91 161/59/91
f 161/59/92 72/59/92 164/40/92
f 72/59/92 74/40/92 164/40/92
f 74/40/93 208/71/93 198/72/93
f 210/73/94 74/40/94 76/48/94
f 77/50/95 211/74/95 191/47/95
f 76/48/96 212/48/96 209/48/96
f 211/74/95 165/50/95 200/64/95
f 77/50/97 80/51/97 165/50/97
f 165/50/97 80/51/97 167/51/97
f 80/51/98 82/53/98 167/51/98
f 167/51/98 82/53/98 169/53/98
f 82/53/99 83/55/99 169/53/99
f 169/53/99 83/55/99 172/55/99
f 83/55/100 85/57/100 172/55/100
f 172/55/100 85/57/100 174/57/100
f 85/57/101 88/38/101 174/57/101
f 174/57/101 88/38/101 176/38/101
f 88/38/102 90/45/102 176/38/102
f 176/38/102 90/45/102 177/45/102
f 51/8/103 22/3/103 24/1/103
f 40/10/104 8/6/104 10/4/104
f 54/12/105 24/1/105 26/7/105
f 41/14/106 10/4/106 12/9/106
f 55/16/107 26/7/107 28/11/107
f 44/18/108 12/9/108 14/13/108
f 58/39/109 28/11/109 29/15/109
f 46/58/110 14/13/110 15/17/110
f 60/19/111 29/15/111 31/20/111
f 46/58/112 210/75/112 209/76/112
f 17/23/113 184/31/113 190/46/113
f 4/26/114 34/27/114 2/28/114
f 92/29/115 60/19/115 31/20/115
f 48/32/116 205/77/116 182/78/116
f 17/23/116 182/78/116 180/24/116
f 6/35/117 34/27/117 4/26/117
f 50/2/118 19/36/118 22/3/118
f 38/5/119 6/35/119 8/6/119
f 60/19/120 87/38/120 58/39/120
f 46/58/121 191/79/121 73/40/121
f 186/30/122 191/79/122 184/31/122
f 34/27/123 61/42/123 2/43/123
f 92/44/124 89/45/124 60/19/124
f 78/50/125 75/48/125 187/80/125
f 63/49/126 34/27/126 36/37/126
f 79/51/127 48/32/127 50/2/127
f 66/52/128 36/37/128 38/5/128
f 81/53/129 50/2/129 51/8/129
f 68/54/130 38/5/130 40/10/130
f 84/55/131 51/8/131 54/12/131
f 69/56/132 40/10/132 41/14/132
f 86/57/133 54/12/133 55/16/133
f 71/59/134 41/14/134 44/18/134
f 87/38/135 55/16/135 58/39/135
f 73/40/136 44/18/136 46/58/136
f 110/3/137 141/8/137 111/1/137
f 100/4/138 125/5/138 128/10/138
f 111/1/139 143/12/139 114/7/139
f 100/4/140 129/14/140 102/9/140
f 114/7/141 146/16/141 116/11/141
f 102/9/142 132/18/142 104/13/142
f 116/11/143 147/39/143 117/15/143
f 104/13/144 134/58/144 106/17/144
f 117/15/145 149/19/145 119/20/145
f 134/58/146 197/63/146 199/81/146
f 135/60/45 193/60/45 196/60/45
f 135/60/147 108/36/147 192/66/147
f 96/35/148 121/27/148 124/37/148
f 108/36/149 139/2/149 110/3/149
f 98/6/150 124/37/150 125/5/150
f 149/19/151 175/38/151 178/45/151
f 134/58/152 200/72/152 196/60/152
f 195/61/52 135/60/52 196/60/52
f 166/50/153 135/60/153 194/82/153
f 121/27/154 153/49/154 124/37/154
f 137/32/155 168/51/155 139/2/155
f 124/37/156 155/52/156 125/5/156
f 139/2/157 170/53/157 141/8/157
f 125/5/158 158/54/158 128/10/158
f 141/8/159 171/55/159 143/12/159
f 128/10/160 160/56/160 129/14/160
f 146/16/161 171/55/161 173/57/161
f 129/14/162 162/59/162 132/18/162
f 147/39/163 173/57/163 175/38/163
f 132/18/164 163/40/164 134/58/164
f 121/27/165 2/65/165 151/42/165
f 121/27/166 94/26/166 2/65/166
f 92/65/167 119/20/167 149/19/167
f 149/19/168 178/45/168 92/65/168
f 92/65/169 31/20/169 119/20/169
f 92/65/170 178/45/170 89/45/170
f 119/20/171 31/20/171 117/15/171
f 31/20/171 29/15/171 117/15/171
f 117/15/172 29/15/172 116/11/172
f 29/15/172 28/11/172 116/11/172
f 116/11/173 28/11/173 114/7/173
f 28/11/173 26/7/173 114/7/173
f 114/7/174 26/7/174 111/1/174
f 26/7/174 24/1/174 111/1/174
f 111/1/175 24/1/175 110/3/175
f 24/1/175 22/3/175 110/3/175
f 110/3/176 22/3/176 108/36/176
f 22/3/176 19/36/176 108/36/176
f 108/36/177 206/83/177 192/66/177
f 19/36/177 182/78/177 206/83/177
f 182/78/177 17/23/177 181/23/177
f 15/17/178 207/84/178 210/75/178
f 17/23/179 179/23/179 181/23/179
f 106/17/178 198/85/178 208/86/178
f 15/17/180 14/13/180 106/17/180
f 106/17/180 14/13/180 104/13/180
f 14/13/181 12/9/181 104/13/181
f 104/13/181 12/9/181 102/9/181
f 12/9/182 10/4/182 102/9/182
f 102/9/182 10/4/182 100/4/182
f 10/4/183 8/6/183 100/4/183
f 100/4/183 8/6/183 98/6/183
f 8/6/184 6/35/184 98/6/184
f 98/6/184 6/35/184 96/35/184
f 6/35/185 4/26/185 96/35/185
f 96/35/185 4/26/185 94/26/185
f 2/65/186 94/26/186 4/26/186
f 2/65/187 61/42/187 151/42/187
f 151/42/188 61/42/188 153/49/188
f 61/42/188 63/49/188 153/49/188
f 153/49/189 63/49/189 155/52/189
f 63/49/189 66/52/189 155/52/189
f 155/52/190 66/52/190 158/54/190
f 66/52/190 68/54/190 158/54/190
f 158/54/191 68/54/191 160/56/191
f 68/54/191 69/56/191 160/56/191
f 160/56/192 69/56/192 162/59/192
f 69/56/192 71/59/192 162/59/192
f 162/59/193 71/59/193 163/40/193
f 71/59/193 73/40/193 163/40/193
f 163/40/194 211/87/194 200/72/194
f 191/79/194 211/87/194 73/40/194
f 75/48/194 183/48/194 191/79/194
f 75/48/195 78/50/195 188/88/195
f 78/50/196 201/89/196 202/90/196
f 78/50/197 79/51/197 166/50/197
f 166/50/197 79/51/197 168/51/197
f 79/51/198 81/53/198 168/51/198
f 168/51/198 81/53/198 170/53/198
f 81/53/199 84/55/199 170/53/199
f 170/53/199 84/55/199 171/55/199
f 84/55/200 86/57/200 171/55/200
f 171/55/200 86/57/200 173/57/200
f 86/57/201 87/38/201 173/57/201
f 173/57/201 87/38/201 175/38/201
f 87/38/202 89/45/202 175/38/202
f 175/38/202 89/45/202 178/45/202
f 23/1/1 52/8/1 49/2/1
f 9/4/2 39/10/2 37/5/2
f 25/7/3 53/12/3 52/8/3
f 11/9/4 42/14/4 39/10/4
f 27/11/5 56/16/5 53/12/5
f 13/13/6 43/18/6 42/14/6
f 30/15/7 57/39/7 56/16/7
f 16/17/8 45/58/8 43/18/8
f 59/19/9 57/39/9 30/15/9
f 179/22/11 45/58/11 16/17/11
f 16/17/11 182/25/11 181/21/11
f 184/31/203 180/24/203 18/23/203
f 18/23/15 187/68/15 186/30/15
f 188/34/15 20/36/15 47/32/15
f 47/32/204 183/33/204 185/33/204
f 5/35/16 35/37/16 33/27/16
f 21/3/17 49/2/17 47/32/17
f 7/6/18 37/5/18 35/37/18
f 59/19/19 90/45/19 88/38/19
f 189/41/20 190/46/20 76/48/20
f 74/40/20 45/58/20 179/22/20
f 189/41/205 76/48/205 74/40/205
f 190/46/122 184/31/122 191/47/122
f 47/32/23 77/50/23 191/47/23
f 64/49/24 62/42/24 33/27/24
f 49/2/25 80/51/25 77/50/25
f 37/5/26 65/52/26 64/49/26
f 52/8/27 82/53/27 80/51/27
f 39/10/28 67/54/28 65/52/28
f 53/12/29 83/55/29 82/53/29
f 42/14/30 70/56/30 67/54/30
f 56/16/31 85/57/31 83/55/31
f 43/18/32 72/59/32 70/56/32
f 57/39/33 88/38/33 85/57/33
f 45/58/34 74/40/34 72/59/34
f 112/1/35 109/3/35 140/2/35
f 99/4/36 97/6/36 126/5/36
f 113/7/37 112/1/37 142/8/37
f 101/9/38 99/4/38 127/10/38
f 113/7/39 144/12/39 145/16/39
f 103/13/40 101/9/40 130/14/40
f 115/11/41 145/16/41 148/39/41
f 105/17/42 103/13/42 131/18/42
f 118/15/43 148/39/43 150/19/43
f 193/60/206 192/91/206 105/17/206
f 105/17/207 133/58/207 136/60/207
f 196/60/208 138/32/208 107/36/208
f 107/36/208 194/92/208 195/61/208
f 95/35/47 93/26/47 122/27/47
f 109/3/48 107/36/48 138/32/48
f 97/6/49 95/35/49 123/37/49
f 150/19/50 148/39/50 176/38/50
f 199/62/209 197/63/209 136/60/209
f 136/60/51 133/58/51 164/40/51
f 164/40/210 198/72/210 199/62/210
f 138/32/53 196/60/53 200/64/53
f 122/27/211 152/42/211 154/49/211
f 140/2/55 138/32/55 165/50/55
f 123/37/56 154/49/56 156/52/56
f 142/8/57 140/2/57 167/51/57
f 126/5/58 156/52/58 157/54/58
f 144/12/59 142/8/59 169/53/59
f 130/14/60 127/10/60 157/54/60
f 145/16/61 144/12/61 172/55/61
f 131/18/62 130/14/62 159/56/62
f 148/39/63 145/16/63 174/57/63
f 133/58/64 131/18/64 161/59/64
f 201/66/212 194/92/212 107/36/212
f 107/36/77 20/36/77 202/67/77
f 18/23/213 205/23/213 204/23/213
f 203/69/214 202/67/214 20/36/214
f 105/17/78 192/91/78 206/70/78
f 198/72/93 164/40/93 74/40/93
f 74/40/215 207/93/215 208/71/215
f 210/73/93 207/93/93 74/40/93
f 76/48/93 209/48/93 210/73/93
f 76/48/95 191/47/95 212/48/95
f 211/74/95 77/50/95 165/50/95
f 51/8/103 50/2/103 22/3/103
f 40/10/104 38/5/104 8/6/104
f 54/12/105 51/8/105 24/1/105
f 41/14/106 40/10/106 10/4/106
f 55/16/107 54/12/107 26/7/107
f 44/18/108 41/14/108 12/9/108
f 58/39/109 55/16/109 28/11/109
f 46/58/110 44/18/110 14/13/110
f 60/19/111 58/39/111 29/15/111
f 209/76/216 212/76/216 46/58/216
f 46/58/112 15/17/112 210/75/112
f 190/46/112 189/94/112 17/23/112
f 17/23/217 180/24/217 184/31/217
f 182/78/116 19/36/116 48/32/116
f 48/32/218 204/95/218 205/77/218
f 6/35/117 36/37/117 34/27/117
f 50/2/118 48/32/118 19/36/118
f 38/5/119 36/37/119 6/35/119
f 60/19/120 89/45/120 87/38/120
f 46/58/121 212/76/121 191/79/121
f 186/30/121 75/48/121 191/79/121
f 187/80/219 204/95/219 48/32/219
f 75/48/219 186/30/219 187/80/219
f 187/80/219 48/32/219 78/50/219
f 63/49/126 61/42/126 34/27/126
f 79/51/127 78/50/127 48/32/127
f 66/52/128 63/49/128 36/37/128
f 81/53/129 79/51/129 50/2/129
f 68/54/130 66/52/130 38/5/130
f 84/55/131 81/53/131 51/8/131
f 69/56/132 68/54/132 40/10/132
f 86/57/133 84/55/133 54/12/133
f 71/59/134 69/56/134 41/14/134
f 87/38/135 86/57/135 55/16/135
f 73/40/136 71/59/136 44/18/136
f 110/3/137 139/2/137 141/8/137
f 100/4/138 98/6/138 125/5/138
f 111/1/139 141/8/139 143/12/139
f 100/4/140 128/10/140 129/14/140
f 114/7/141 143/12/141 146/16/141
f 102/9/142 129/14/142 132/18/142
f 116/11/143 146/16/143 147/39/143
f 104/13/144 132/18/144 134/58/144
f 117/15/145 147/39/145 149/19/145
f 199/81/146 106/17/146 134/58/146
f 134/58/220 196/60/220 197/63/220
f 192/66/221 193/60/221 135/60/221
f 135/60/222 137/32/222 108/36/222
f 96/35/223 94/26/223 121/27/223
f 108/36/149 137/32/149 139/2/149
f 98/6/150 96/35/150 124/37/150
f 149/19/224 147/39/224 175/38/224
f 134/58/152 163/40/152 200/72/152
f 194/82/225 201/89/225 166/50/225
f 166/50/153 137/32/153 135/60/153
f 135/60/226 195/61/226 194/82/226
f 121/27/154 151/42/154 153/49/154
f 137/32/155 166/50/155 168/51/155
f 124/37/156 153/49/156 155/52/156
f 139/2/157 168/51/157 170/53/157
f 125/5/158 155/52/158 158/54/158
f 141/8/159 170/53/159 171/55/159
f 128/10/160 158/54/160 160/56/160
f 146/16/161 143/12/161 171/55/161
f 129/14/162 160/56/162 162/59/162
f 147/39/163 146/16/163 173/57/163
f 132/18/164 162/59/164 163/40/164
f 108/36/177 19/36/177 206/83/177
f 15/17/227 208/86/227 207/84/227
f 17/23/178 189/94/178 179/23/178
f 208/86/178 15/17/178 106/17/178
f 106/17/228 199/81/228 198/85/228
f 163/40/194 73/40/194 211/87/194
f 75/48/229 185/48/229 183/48/229
f 78/50/196 203/96/196 188/88/196
f 188/88/196 185/48/196 75/48/196
f 202/90/230 203/96/230 78/50/230
f 78/50/196 166/50/196 201/89/196
