# Blender 4.4.3
# www.blender.org
mtllib bullet.mtl
o 球.001
v -0.000000 0.206034 -0.310066
v -0.000000 0.072349 -0.365748
v -0.000000 -0.072349 -0.365748
v -0.000000 -0.206034 -0.310066
v 0.014193 0.363725 -0.071354
v 0.014193 -0.363725 -0.071354
v -0.072752 0.363725 0.000000
v -0.142708 0.342621 0.000000
v -0.263689 0.262231 0.000000
v -0.310066 0.206034 0.000000
v -0.344527 0.141918 0.000000
v -0.365748 0.072349 0.000000
v -0.365748 -0.072349 0.000000
v -0.344527 -0.141918 0.000000
v -0.310066 -0.206034 0.000000
v -0.263689 -0.262231 0.000000
v -0.142708 -0.342621 0.000000
v -0.072752 -0.363725 0.000000
v -0.071354 0.363725 -0.014193
v -0.139966 0.342621 -0.027841
v -0.203198 0.308351 -0.040419
v -0.258623 0.262231 -0.051443
v -0.304108 0.206034 -0.060491
v -0.337907 0.141918 -0.067214
v -0.358720 0.072349 -0.071354
v -0.365747 0.000000 -0.072752
v -0.358720 -0.072349 -0.071354
v -0.337907 -0.141918 -0.067214
v -0.304108 -0.206034 -0.060491
v -0.258623 -0.262231 -0.051443
v -0.203198 -0.308351 -0.040419
v -0.139966 -0.342621 -0.027841
v -0.071354 -0.363725 -0.014193
v -0.067214 0.363725 -0.027841
v -0.131845 0.342621 -0.054612
v -0.191409 0.308351 -0.079284
v -0.243617 0.262231 -0.100910
v -0.286463 0.206034 -0.118657
v -0.318301 0.141918 -0.131845
v -0.337907 0.072349 -0.139966
v -0.344527 0.000000 -0.142708
v -0.337907 -0.072349 -0.139966
v -0.318301 -0.141918 -0.131845
v -0.286463 -0.206034 -0.118657
v -0.243617 -0.262231 -0.100910
v -0.191409 -0.308351 -0.079284
v -0.131845 -0.342621 -0.054612
v -0.067214 -0.363725 -0.027841
v -0.060491 0.363725 -0.040419
v -0.118657 0.342621 -0.079284
v -0.172263 0.308351 -0.115103
v -0.219250 0.262231 -0.146498
v -0.257810 0.206034 -0.172263
v -0.286464 0.141918 -0.191409
v -0.304108 0.072349 -0.203199
v -0.310066 0.000000 -0.207179
v -0.304108 -0.072349 -0.203199
v -0.286464 -0.141918 -0.191409
v -0.257810 -0.206034 -0.172263
v -0.219250 -0.262231 -0.146498
v -0.172263 -0.308351 -0.115103
v -0.118657 -0.342621 -0.079284
v -0.060491 -0.363725 -0.040419
v -0.051443 0.363725 -0.051443
v -0.100910 0.342621 -0.100910
v -0.146498 0.308351 -0.146498
v -0.186457 0.262231 -0.186457
v -0.243617 0.141918 -0.243617
v -0.258623 0.072349 -0.258623
v -0.258623 -0.072349 -0.258623
v -0.243617 -0.141918 -0.243617
v -0.219250 -0.206034 -0.219250
v -0.146498 -0.308351 -0.146498
v -0.100910 -0.342621 -0.100910
v -0.051443 -0.363725 -0.051443
v -0.040419 0.363725 -0.060491
v -0.079284 0.342621 -0.118657
v -0.115103 0.308351 -0.172263
v -0.146498 0.262231 -0.219250
v -0.172263 0.206034 -0.257810
v -0.191409 0.141918 -0.286463
v -0.203198 0.072349 -0.304108
v -0.207179 0.000000 -0.310066
v -0.203198 -0.072349 -0.304108
v -0.191409 -0.141918 -0.286463
v -0.172263 -0.206034 -0.257810
v -0.146498 -0.262231 -0.219250
v -0.115103 -0.308351 -0.172263
v -0.079284 -0.342621 -0.118657
v -0.040419 -0.363725 -0.060491
v -0.027841 0.363725 -0.067214
v -0.054612 0.342621 -0.131845
v -0.079284 0.308351 -0.191409
v -0.100910 0.262231 -0.243617
v -0.118657 0.206034 -0.286463
v -0.131845 0.141918 -0.318301
v -0.139965 0.072349 -0.337907
v -0.142707 0.000000 -0.344527
v -0.139965 -0.072349 -0.337907
v -0.131845 -0.141918 -0.318301
v -0.118657 -0.206034 -0.286463
v -0.100910 -0.262231 -0.243617
v -0.079284 -0.308351 -0.191409
v -0.054612 -0.342621 -0.131845
v -0.027841 -0.363725 -0.067214
v -0.014193 0.363725 -0.071354
v -0.027841 0.342621 -0.139966
v -0.040419 0.308351 -0.203198
v -0.051443 0.262231 -0.258623
v -0.060491 0.206034 -0.304108
v -0.067214 0.141918 -0.337907
v -0.071354 0.072349 -0.358720
v -0.072752 0.000000 -0.365747
v -0.071354 -0.072349 -0.358720
v -0.067214 -0.141918 -0.337907
v -0.060491 -0.206034 -0.304108
v -0.051443 -0.262231 -0.258623
v -0.040419 -0.308351 -0.203198
v -0.027841 -0.342621 -0.139966
v -0.014193 -0.363725 -0.071354
v -0.000000 0.363725 -0.072752
v -0.000000 0.342621 -0.142708
v -0.000000 0.262231 -0.263689
v -0.000000 0.141918 -0.344527
v -0.000000 -0.141918 -0.344527
v -0.000000 -0.262231 -0.263689
v -0.000000 -0.342621 -0.142708
v -0.000000 -0.363725 -0.072752
v -0.000000 0.000000 -0.500000
v 0.000000 -0.500000 0.000000
v 0.000000 0.500000 0.000000
v -0.500000 0.000000 0.000000
v -0.294106 0.278802 -0.294106
v -0.250205 -0.354929 -0.250205
v -0.014193 0.363725 -0.071354
v -0.014193 -0.363725 -0.071354
v 0.072752 0.363725 -0.000000
v 0.142708 0.342621 -0.000000
v 0.263689 0.262231 -0.000000
v 0.310066 0.206034 -0.000000
v 0.344527 0.141918 -0.000000
v 0.365748 0.072349 -0.000000
v 0.365748 -0.072349 -0.000000
v 0.344527 -0.141918 -0.000000
v 0.310066 -0.206034 -0.000000
v 0.263689 -0.262231 -0.000000
v 0.142708 -0.342621 -0.000000
v 0.072752 -0.363725 -0.000000
v 0.071354 0.363725 -0.014193
v 0.139966 0.342621 -0.027841
v 0.203198 0.308351 -0.040419
v 0.258623 0.262231 -0.051443
v 0.304108 0.206034 -0.060491
v 0.337907 0.141918 -0.067214
v 0.358720 0.072349 -0.071354
v 0.365747 0.000000 -0.072752
v 0.358720 -0.072349 -0.071354
v 0.337907 -0.141918 -0.067214
v 0.304108 -0.206034 -0.060491
v 0.258623 -0.262231 -0.051443
v 0.203198 -0.308351 -0.040419
v 0.139966 -0.342621 -0.027841
v 0.071354 -0.363725 -0.014193
v 0.067214 0.363725 -0.027841
v 0.131845 0.342621 -0.054612
v 0.191409 0.308351 -0.079284
v 0.243617 0.262231 -0.100910
v 0.286463 0.206034 -0.118657
v 0.318301 0.141918 -0.131845
v 0.337907 0.072349 -0.139966
v 0.344527 0.000000 -0.142708
v 0.337907 -0.072349 -0.139966
v 0.318301 -0.141918 -0.131845
v 0.286463 -0.206034 -0.118657
v 0.243617 -0.262231 -0.100910
v 0.191409 -0.308351 -0.079284
v 0.131845 -0.342621 -0.054612
v 0.067214 -0.363725 -0.027841
v 0.060491 0.363725 -0.040419
v 0.118657 0.342621 -0.079284
v 0.172263 0.308351 -0.115103
v 0.219250 0.262231 -0.146498
v 0.257810 0.206034 -0.172263
v 0.286463 0.141918 -0.191409
v 0.304108 0.072349 -0.203199
v 0.310066 0.000000 -0.207179
v 0.304108 -0.072349 -0.203199
v 0.286463 -0.141918 -0.191409
v 0.257810 -0.206034 -0.172263
v 0.219250 -0.262231 -0.146498
v 0.172263 -0.308351 -0.115103
v 0.118657 -0.342621 -0.079284
v 0.060491 -0.363725 -0.040419
v 0.051443 0.363725 -0.051443
v 0.100910 0.342621 -0.100910
v 0.146498 0.308351 -0.146498
v 0.186457 0.262231 -0.186457
v 0.243617 0.141918 -0.243617
v 0.258623 0.072349 -0.258623
v 0.258623 -0.072349 -0.258623
v 0.243617 -0.141918 -0.243617
v 0.219250 -0.206034 -0.219250
v 0.146498 -0.308351 -0.146498
v 0.100910 -0.342621 -0.100910
v 0.051443 -0.363725 -0.051443
v 0.040419 0.363725 -0.060491
v 0.079284 0.342621 -0.118657
v 0.115103 0.308351 -0.172263
v 0.146498 0.262231 -0.219250
v 0.172263 0.206034 -0.257810
v 0.191409 0.141918 -0.286463
v 0.203198 0.072349 -0.304108
v 0.207179 0.000000 -0.310066
v 0.203198 -0.072349 -0.304108
v 0.191409 -0.141918 -0.286463
v 0.172263 -0.206034 -0.257810
v 0.146498 -0.262231 -0.219250
v 0.115103 -0.308351 -0.172263
v 0.079284 -0.342621 -0.118657
v 0.040419 -0.363725 -0.060491
v 0.027841 0.363725 -0.067214
v 0.054612 0.342621 -0.131845
v 0.079284 0.308351 -0.191409
v 0.100910 0.262231 -0.243617
v 0.118657 0.206034 -0.286463
v 0.131845 0.141918 -0.318301
v 0.139965 0.072349 -0.337907
v 0.142707 0.000000 -0.344527
v 0.139965 -0.072349 -0.337907
v 0.131845 -0.141918 -0.318301
v 0.118657 -0.206034 -0.286463
v 0.100910 -0.262231 -0.243617
v 0.079284 -0.308351 -0.191409
v 0.054612 -0.342621 -0.131845
v 0.027841 -0.363725 -0.067214
v 0.014193 0.363725 -0.071354
v 0.027841 0.342621 -0.139966
v 0.040419 0.308351 -0.203198
v 0.051443 0.262231 -0.258623
v 0.060491 0.206034 -0.304108
v 0.067214 0.141918 -0.337907
v 0.071354 0.072349 -0.358720
v 0.072751 0.000000 -0.365747
v 0.071354 -0.072349 -0.358720
v 0.067214 -0.141918 -0.337907
v 0.060491 -0.206034 -0.304108
v 0.051443 -0.262231 -0.258623
v 0.040419 -0.308351 -0.203198
v 0.027841 -0.342621 -0.139966
v 0.014193 -0.363725 -0.071354
v 0.500000 0.000000 -0.000000
v 0.294106 0.278802 -0.294106
v 0.250204 -0.354929 -0.250205
v 0.000000 0.206034 0.310066
v 0.000000 0.072349 0.365748
v 0.000000 -0.072349 0.365748
v 0.000000 -0.206034 0.310066
v 0.014193 0.363725 0.071354
v 0.014193 -0.363725 0.071354
v -0.071354 0.363725 0.014193
v -0.139966 0.342621 0.027841
v -0.203198 0.308351 0.040419
v -0.258623 0.262231 0.051443
v -0.304108 0.206034 0.060491
v -0.337907 0.141918 0.067214
v -0.358720 0.072349 0.071354
v -0.365747 0.000000 0.072752
v -0.358720 -0.072349 0.071354
v -0.337907 -0.141918 0.067214
v -0.304108 -0.206034 0.060491
v -0.258623 -0.262231 0.051443
v -0.203198 -0.308351 0.040419
v -0.139966 -0.342621 0.027841
v -0.071354 -0.363725 0.014193
v -0.067214 0.363725 0.027841
v -0.131845 0.342621 0.054612
v -0.191409 0.308351 0.079284
v -0.243617 0.262231 0.100910
v -0.286463 0.206034 0.118657
v -0.318301 0.141918 0.131845
v -0.337907 0.072349 0.139966
v -0.344527 0.000000 0.142708
v -0.337907 -0.072349 0.139966
v -0.318301 -0.141918 0.131845
v -0.286463 -0.206034 0.118657
v -0.243617 -0.262231 0.100910
v -0.191409 -0.308351 0.079284
v -0.131845 -0.342621 0.054612
v -0.067214 -0.363725 0.027841
v -0.060491 0.363725 0.040419
v -0.118657 0.342621 0.079284
v -0.172263 0.308351 0.115103
v -0.219250 0.262231 0.146498
v -0.257810 0.206034 0.172263
v -0.286463 0.141918 0.191409
v -0.304108 0.072349 0.203199
v -0.310066 0.000000 0.207179
v -0.304108 -0.072349 0.203199
v -0.286463 -0.141918 0.191409
v -0.257810 -0.206034 0.172263
v -0.219250 -0.262231 0.146498
v -0.172263 -0.308351 0.115103
v -0.118657 -0.342621 0.079284
v -0.060491 -0.363725 0.040419
v -0.051443 0.363725 0.051443
v -0.100910 0.342621 0.100910
v -0.146498 0.308351 0.146498
v -0.186457 0.262231 0.186457
v -0.243617 0.141918 0.243617
v -0.258623 0.072349 0.258623
v -0.258623 -0.072349 0.258623
v -0.243617 -0.141918 0.243617
v -0.219250 -0.206034 0.219250
v -0.146498 -0.308351 0.146498
v -0.100910 -0.342621 0.100910
v -0.051443 -0.363725 0.051443
v -0.040419 0.363725 0.060491
v -0.079284 0.342621 0.118657
v -0.115103 0.308351 0.172263
v -0.146498 0.262231 0.219250
v -0.172263 0.206034 0.257810
v -0.191409 0.141918 0.286463
v -0.203198 0.072349 0.304108
v -0.207179 0.000000 0.310066
v -0.203198 -0.072349 0.304108
v -0.191409 -0.141918 0.286463
v -0.172263 -0.206034 0.257810
v -0.146498 -0.262231 0.219250
v -0.115103 -0.308351 0.172263
v -0.079284 -0.342621 0.118657
v -0.040419 -0.363725 0.060491
v -0.027841 0.363725 0.067214
v -0.054612 0.342621 0.131845
v -0.079284 0.308351 0.191409
v -0.100910 0.262231 0.243617
v -0.118657 0.206034 0.286463
v -0.131845 0.141918 0.318301
v -0.139965 0.072349 0.337907
v -0.142707 0.000000 0.344527
v -0.139965 -0.072349 0.337907
v -0.131845 -0.141918 0.318301
v -0.118657 -0.206034 0.286463
v -0.100910 -0.262231 0.243617
v -0.079284 -0.308351 0.191409
v -0.054612 -0.342621 0.131845
v -0.027841 -0.363725 0.067214
v -0.014193 0.363725 0.071354
v -0.027841 0.342621 0.139966
v -0.040419 0.308351 0.203198
v -0.051443 0.262231 0.258623
v -0.060491 0.206034 0.304108
v -0.067214 0.141918 0.337907
v -0.071354 0.072349 0.358720
v -0.072751 0.000000 0.365747
v -0.071354 -0.072349 0.358720
v -0.067214 -0.141918 0.337907
v -0.060491 -0.206034 0.304108
v -0.051443 -0.262231 0.258623
v -0.040419 -0.308351 0.203198
v -0.027841 -0.342621 0.139966
v -0.014193 -0.363725 0.071354
v 0.000000 0.363725 0.072752
v 0.000000 0.342621 0.142708
v 0.000000 0.262231 0.263689
v 0.000000 0.141918 0.344527
v 0.000000 -0.141918 0.344527
v 0.000000 -0.262231 0.263689
v 0.000000 -0.342621 0.142708
v 0.000000 -0.363725 0.072752
v 0.000000 0.000000 0.500000
v -0.294106 0.278802 0.294106
v -0.250204 -0.354929 0.250205
v -0.014193 0.363725 0.071354
v -0.014193 -0.363725 0.071354
v 0.071354 0.363725 0.014193
v 0.139966 0.342621 0.027841
v 0.203198 0.308351 0.040419
v 0.258623 0.262231 0.051443
v 0.304108 0.206034 0.060491
v 0.337907 0.141918 0.067214
v 0.358720 0.072349 0.071354
v 0.365747 0.000000 0.072752
v 0.358720 -0.072349 0.071354
v 0.337907 -0.141918 0.067214
v 0.304108 -0.206034 0.060491
v 0.258623 -0.262231 0.051443
v 0.203198 -0.308351 0.040419
v 0.139966 -0.342621 0.027841
v 0.071354 -0.363725 0.014193
v 0.067214 0.363725 0.027841
v 0.131845 0.342621 0.054612
v 0.191409 0.308351 0.079284
v 0.243617 0.262231 0.100910
v 0.286463 0.206034 0.118657
v 0.318301 0.141918 0.131845
v 0.337907 0.072349 0.139966
v 0.344527 0.000000 0.142708
v 0.337907 -0.072349 0.139966
v 0.318301 -0.141918 0.131845
v 0.286463 -0.206034 0.118657
v 0.243617 -0.262231 0.100910
v 0.191409 -0.308351 0.079284
v 0.131845 -0.342621 0.054612
v 0.067214 -0.363725 0.027841
v 0.060491 0.363725 0.040419
v 0.118657 0.342621 0.079284
v 0.172263 0.308351 0.115103
v 0.219250 0.262231 0.146498
v 0.257810 0.206034 0.172263
v 0.286464 0.141918 0.191409
v 0.304108 0.072349 0.203199
v 0.310066 0.000000 0.207179
v 0.304108 -0.072349 0.203199
v 0.286464 -0.141918 0.191409
v 0.257810 -0.206034 0.172263
v 0.219250 -0.262231 0.146498
v 0.172263 -0.308351 0.115103
v 0.118657 -0.342621 0.079284
v 0.060491 -0.363725 0.040419
v 0.051443 0.363725 0.051443
v 0.100910 0.342621 0.100910
v 0.146498 0.308351 0.146498
v 0.186457 0.262231 0.186457
v 0.243617 0.141918 0.243617
v 0.258623 0.072349 0.258623
v 0.258623 -0.072349 0.258623
v 0.243617 -0.141918 0.243617
v 0.219250 -0.206034 0.219250
v 0.146498 -0.308351 0.146498
v 0.100910 -0.342621 0.100910
v 0.051443 -0.363725 0.051443
v 0.040419 0.363725 0.060491
v 0.079284 0.342621 0.118657
v 0.115103 0.308351 0.172263
v 0.146498 0.262231 0.219250
v 0.172263 0.206034 0.257810
v 0.191409 0.141918 0.286463
v 0.203198 0.072349 0.304108
v 0.207179 0.000000 0.310066
v 0.203198 -0.072349 0.304108
v 0.191409 -0.141918 0.286463
v 0.172263 -0.206034 0.257810
v 0.146498 -0.262231 0.219250
v 0.115103 -0.308351 0.172263
v 0.079284 -0.342621 0.118657
v 0.040419 -0.363725 0.060491
v 0.027841 0.363725 0.067214
v 0.054612 0.342621 0.131845
v 0.079284 0.308351 0.191409
v 0.100910 0.262231 0.243617
v 0.118657 0.206034 0.286463
v 0.131845 0.141918 0.318301
v 0.139965 0.072349 0.337907
v 0.142707 0.000000 0.344527
v 0.139965 -0.072349 0.337907
v 0.131845 -0.141918 0.318301
v 0.118657 -0.206034 0.286463
v 0.100910 -0.262231 0.243617
v 0.079284 -0.308351 0.191409
v 0.054612 -0.342621 0.131845
v 0.027841 -0.363725 0.067214
v 0.014193 0.363725 0.071354
v 0.027841 0.342621 0.139966
v 0.040419 0.308351 0.203198
v 0.051443 0.262231 0.258623
v 0.060491 0.206034 0.304108
v 0.067214 0.141918 0.337907
v 0.071354 0.072349 0.358720
v 0.072752 0.000000 0.365747
v 0.071354 -0.072349 0.358720
v 0.067214 -0.141918 0.337907
v 0.060491 -0.206034 0.304108
v 0.051443 -0.262231 0.258623
v 0.040419 -0.308351 0.203198
v 0.027841 -0.342621 0.139966
v 0.014193 -0.363725 0.071354
v 0.294106 0.278802 0.294106
v 0.250205 -0.354929 0.250205
v -0.000000 0.365135 -0.242413
v -0.242413 0.365135 0.000000
v -0.308482 0.000000 -0.308483
v -0.000000 -0.365135 -0.242413
v -0.242413 -0.365135 0.000000
v 0.242413 0.365135 -0.000000
v 0.308482 0.000000 -0.308483
v 0.242413 -0.365135 -0.000000
v 0.000000 0.365135 0.242413
v -0.308482 0.000000 0.308483
v 0.000000 -0.365135 0.242413
v 0.308482 0.000000 0.308483
vn -0.8179 0.3529 0.4544
vn -0.6826 0.4692 -0.5602
vn -0.0866 0.4692 -0.8788
vn -0.6826 -0.4692 -0.5602
vn -0.4755 -0.0631 -0.8775
vn -0.0866 -0.4692 -0.8788
vn -0.4755 0.0631 -0.8775
vn -0.6861 -0.4607 -0.5630
vn -0.8451 0.4692 -0.2564
vn 0.2350 -0.9527 0.1929
vn -0.8451 -0.4692 -0.2564
vn -0.7419 0.2808 -0.6089
vn 0.0840 0.9941 0.0690
vn -0.0467 -0.8793 -0.4739
vn -0.5630 -0.4607 -0.6861
vn 0.1929 -0.9527 0.2350
vn -0.0467 0.8793 -0.4739
vn 0.0960 -0.2015 0.9748
vn -0.9523 0.2905 -0.0938
vn -0.2887 -0.9570 -0.0284
vn 0.0690 0.9941 0.0840
vn -0.2887 0.9570 -0.0284
vn -0.9523 -0.2905 -0.0938
vn -0.5549 0.6962 0.4554
vn -0.8775 -0.4717 -0.0864
vn 0.4554 -0.6962 0.5549
vn -0.7691 -0.6347 -0.0757
vn -0.7691 0.6347 -0.0757
vn 0.9964 -0.0829 -0.0156
vn -0.8775 0.4717 -0.0864
vn -0.8438 -0.4717 -0.2560
vn -0.6068 0.7732 -0.1841
vn -0.7395 -0.6347 -0.2243
vn -0.7395 0.6347 -0.2243
vn -0.6068 -0.7732 -0.1841
vn -0.8438 0.4717 -0.2560
vn -0.4508 -0.8821 -0.1368
vn -0.9157 0.2905 -0.2778
vn -0.2776 -0.9570 -0.0842
vn -0.9523 0.0981 -0.2889
vn -0.6089 0.2808 -0.7419
vn -0.2564 -0.4692 -0.8451
vn -0.9523 -0.0981 -0.2889
vn -0.2776 0.9570 -0.0842
vn -0.9157 -0.2905 -0.2778
vn -0.4508 0.8821 -0.1368
vn -0.2558 -0.9570 -0.1367
vn -0.8777 0.0981 -0.4691
vn -0.8777 -0.0981 -0.4691
vn -0.2558 0.9570 -0.1367
vn -0.8439 -0.2905 -0.4511
vn -0.4155 0.8821 -0.2221
vn -0.7777 -0.4717 -0.4157
vn -0.5592 0.7732 -0.2989
vn -0.6815 -0.6347 -0.3643
vn -0.6815 0.6347 -0.3643
vn -0.5592 -0.7732 -0.2989
vn -0.7777 0.4717 -0.4157
vn -0.4155 -0.8821 -0.2221
vn -0.8439 0.2905 -0.4511
vn -0.4902 0.7732 -0.4023
vn -0.2564 0.4692 -0.8451
vn -0.3642 -0.8821 -0.2989
vn -0.7397 0.2905 -0.6070
vn -0.2242 -0.9570 -0.1840
vn 0.1149 0.5222 -0.8451
vn -0.2202 -0.9752 0.0217
vn -0.2242 0.9570 -0.1840
vn -0.7397 -0.2905 -0.6070
vn -0.3642 0.8821 -0.2989
vn -0.6816 -0.4717 -0.5594
vn 0.0960 -0.2015 -0.9748
vn -0.0217 0.9752 0.2202
vn -0.1840 0.9570 -0.2242
vn -0.6070 -0.2905 -0.7397
vn -0.2989 0.8821 -0.3642
vn -0.5594 -0.4717 -0.6816
vn -0.4023 0.7732 -0.4902
vn -0.2989 -0.8821 -0.3642
vn -0.6070 0.2905 -0.7397
vn -0.1840 -0.9570 -0.2242
vn -0.3643 -0.6347 -0.6815
vn -0.3643 0.6347 -0.6815
vn -0.2989 -0.7732 -0.5592
vn -0.4157 0.4717 -0.7777
vn -0.2221 -0.8821 -0.4155
vn -0.4511 0.2905 -0.8439
vn -0.1367 -0.9570 -0.2558
vn -0.4691 0.0981 -0.8777
vn -0.5602 -0.4692 -0.6826
vn -0.4691 -0.0981 -0.8777
vn -0.1367 0.9570 -0.2558
vn -0.4511 -0.2905 -0.8439
vn -0.2221 0.8821 -0.4155
vn -0.4157 -0.4717 -0.7777
vn -0.2989 0.7732 -0.5592
vn -0.2889 -0.0981 -0.9523
vn -0.0842 0.9570 -0.2776
vn -0.2778 -0.2905 -0.9157
vn -0.1368 0.8821 -0.4508
vn -0.2560 -0.4717 -0.8438
vn -0.1841 0.7732 -0.6068
vn -0.2243 -0.6347 -0.7395
vn -0.2243 0.6347 -0.7395
vn -0.1841 -0.7732 -0.6068
vn -0.2560 0.4717 -0.8438
vn -0.1368 -0.8821 -0.4508
vn -0.2778 0.2905 -0.9157
vn -0.0842 -0.9570 -0.2776
vn -0.2889 0.0981 -0.9523
vn -0.0757 0.6347 -0.7691
vn 0.0960 0.2015 0.9748
vn -0.0864 0.4717 -0.8775
vn 0.0156 0.0829 0.9964
vn -0.0938 0.2905 -0.9523
vn -0.0284 -0.9570 -0.2887
vn -0.5602 0.4692 -0.6826
vn 0.0866 0.4692 -0.8789
vn -0.0284 0.9570 -0.2887
vn -0.0938 -0.2905 -0.9523
vn -0.2202 0.9752 0.0217
vn -0.0864 -0.4717 -0.8775
vn 0.0960 0.2015 -0.9748
vn -0.0757 -0.6347 -0.7691
vn -0.8697 0.2642 0.4169
vn -0.4163 -0.4692 -0.7788
vn -0.4163 0.4692 -0.7788
vn -0.4739 0.8793 -0.0467
vn 0.4544 0.3529 -0.8179
vn -0.7981 -0.3110 0.5162
vn 0.4169 0.2642 -0.8697
vn -0.7408 -0.3756 0.5569
vn -0.8788 -0.4692 -0.0866
vn -0.8788 0.4692 -0.0866
vn -0.7788 -0.4692 -0.4163
vn -0.4739 -0.8793 -0.0467
vn 0.5162 -0.3110 -0.7981
vn 0.5569 -0.3756 -0.7408
vn -0.7788 0.4692 -0.4163
vn -0.8775 0.0631 -0.4755
vn -0.8775 -0.0631 -0.4755
vn 0.0866 -0.4692 -0.8788
vn 0.8179 0.3529 0.4544
vn 0.6826 0.4692 -0.5602
vn 0.0866 0.4692 -0.8788
vn 0.6826 -0.4692 -0.5602
vn 0.4755 -0.0631 -0.8775
vn 0.4755 0.0631 -0.8775
vn 0.6861 -0.4607 -0.5630
vn 0.8451 0.4692 -0.2564
vn -0.2350 -0.9527 0.1929
vn 0.8451 -0.4692 -0.2564
vn 0.7419 0.2808 -0.6089
vn -0.0840 0.9941 0.0690
vn 0.0467 -0.8793 -0.4739
vn 0.5630 -0.4607 -0.6861
vn -0.1929 -0.9527 0.2350
vn 0.0467 0.8793 -0.4739
vn -0.9748 -0.2015 -0.0960
vn 0.9523 0.2905 -0.0938
vn 0.2887 -0.9570 -0.0284
vn -0.0690 0.9941 0.0840
vn 0.2887 0.9570 -0.0284
vn 0.9523 -0.2905 -0.0938
vn 0.8451 0.5222 -0.1149
vn 0.8775 -0.4717 -0.0864
vn 0.8596 -0.4636 0.2148
vn 0.7691 -0.6347 -0.0757
vn 0.7691 0.6347 -0.0757
vn 0.8596 -0.4636 -0.2148
vn 0.8775 0.4717 -0.0864
vn 0.8438 -0.4717 -0.2560
vn 0.6068 0.7732 -0.1841
vn 0.7395 -0.6347 -0.2243
vn 0.7395 0.6347 -0.2243
vn 0.6068 -0.7732 -0.1841
vn 0.8438 0.4717 -0.2560
vn 0.4508 -0.8821 -0.1368
vn 0.9157 0.2905 -0.2778
vn 0.2776 -0.9570 -0.0842
vn 0.9523 0.0981 -0.2889
vn 0.6089 0.2808 -0.7419
vn 0.2564 -0.4692 -0.8451
vn 0.9523 -0.0981 -0.2889
vn 0.2776 0.9570 -0.0842
vn 0.9157 -0.2905 -0.2778
vn 0.4508 0.8821 -0.1368
vn 0.2558 -0.9570 -0.1367
vn 0.8777 0.0981 -0.4691
vn 0.8777 -0.0981 -0.4691
vn 0.2558 0.9570 -0.1367
vn 0.8439 -0.2905 -0.4511
vn 0.4155 0.8821 -0.2221
vn 0.7777 -0.4717 -0.4157
vn 0.5592 0.7732 -0.2989
vn 0.6815 -0.6347 -0.3643
vn 0.6815 0.6347 -0.3643
vn 0.5592 -0.7732 -0.2989
vn 0.7777 0.4717 -0.4157
vn 0.4155 -0.8821 -0.2221
vn 0.8439 0.2905 -0.4511
vn 0.4902 0.7732 -0.4023
vn 0.2564 0.4692 -0.8451
vn 0.3642 -0.8821 -0.2989
vn 0.7397 0.2905 -0.6070
vn 0.2242 -0.9570 -0.1840
vn -0.9748 0.2015 -0.0960
vn -0.9964 0.0829 0.0156
vn 0.2242 0.9570 -0.1840
vn 0.7397 -0.2905 -0.6070
vn 0.3642 0.8821 -0.2989
vn 0.6816 -0.4717 -0.5594
vn -0.2148 -0.4636 -0.8596
vn -0.4554 0.6962 0.5549
vn 0.1840 0.9570 -0.2242
vn 0.6070 -0.2905 -0.7397
vn 0.2989 0.8821 -0.3642
vn 0.5594 -0.4717 -0.6816
vn 0.4023 0.7732 -0.4902
vn 0.2989 -0.8821 -0.3642
vn 0.6070 0.2905 -0.7397
vn 0.1840 -0.9570 -0.2242
vn 0.3643 -0.6347 -0.6815
vn 0.3643 0.6347 -0.6815
vn 0.2989 -0.7732 -0.5592
vn 0.4157 0.4717 -0.7777
vn 0.2221 -0.8821 -0.4155
vn 0.4511 0.2905 -0.8439
vn 0.1367 -0.9570 -0.2558
vn 0.4691 0.0981 -0.8777
vn 0.5602 -0.4692 -0.6826
vn 0.4691 -0.0981 -0.8777
vn 0.1367 0.9570 -0.2558
vn 0.4511 -0.2905 -0.8439
vn 0.2221 0.8821 -0.4155
vn 0.4157 -0.4717 -0.7777
vn 0.2989 0.7732 -0.5592
vn 0.2889 -0.0981 -0.9523
vn 0.0842 0.9570 -0.2776
vn 0.2778 -0.2905 -0.9157
vn 0.1368 0.8821 -0.4508
vn 0.2560 -0.4717 -0.8438
vn 0.1841 0.7732 -0.6068
vn 0.2243 -0.6347 -0.7395
vn 0.2243 0.6347 -0.7395
vn 0.1841 -0.7732 -0.6068
vn 0.2560 0.4717 -0.8438
vn 0.1368 -0.8821 -0.4508
vn 0.2778 0.2905 -0.9157
vn 0.0842 -0.9570 -0.2776
vn 0.2889 0.0981 -0.9523
vn 0.0757 0.6347 -0.7691
vn 0.5549 -0.6962 0.4554
vn 0.0864 0.4717 -0.8775
vn 0.9964 -0.0829 0.0156
vn 0.0938 0.2905 -0.9523
vn 0.0284 -0.9570 -0.2887
vn 0.5602 0.4692 -0.6826
vn -0.0866 0.4692 -0.8789
vn 0.0284 0.9570 -0.2887
vn 0.0938 -0.2905 -0.9523
vn 0.2148 -0.4636 0.8596
vn 0.0864 -0.4717 -0.8775
vn 0.2202 -0.9752 0.0217
vn 0.0757 -0.6347 -0.7691
vn 0.8697 0.2642 0.4169
vn 0.4163 -0.4692 -0.7788
vn 0.4163 0.4692 -0.7788
vn 0.4739 0.8793 -0.0467
vn -0.4544 0.3529 -0.8179
vn 0.7981 -0.3110 0.5162
vn -0.4169 0.2642 -0.8697
vn 0.7408 -0.3756 0.5569
vn 0.8788 -0.4692 -0.0866
vn 0.8788 0.4692 -0.0866
vn 0.7788 -0.4692 -0.4163
vn 0.4739 -0.8793 -0.0467
vn -0.5162 -0.3110 -0.7981
vn -0.5569 -0.3756 -0.7408
vn 0.7788 0.4692 -0.4163
vn 0.8775 0.0631 -0.4755
vn 0.8775 -0.0631 -0.4755
vn -0.8179 0.3529 -0.4544
vn -0.6826 0.4692 0.5602
vn -0.0866 0.4692 0.8788
vn -0.6826 -0.4692 0.5602
vn -0.4755 -0.0631 0.8775
vn -0.0866 -0.4692 0.8788
vn -0.4755 0.0631 0.8775
vn -0.6861 -0.4607 0.5630
vn -0.8451 0.4692 0.2564
vn 0.2350 -0.9527 -0.1929
vn -0.8451 -0.4692 0.2564
vn -0.7419 0.2808 0.6089
vn 0.0840 0.9941 -0.0690
vn -0.0467 -0.8793 0.4739
vn -0.5630 -0.4607 0.6861
vn 0.1929 -0.9527 -0.2350
vn -0.0467 0.8793 0.4739
vn 0.0217 0.9752 0.2202
vn -0.9523 0.2905 0.0938
vn -0.2887 -0.9570 0.0284
vn 0.0690 0.9941 -0.0840
vn -0.2887 0.9570 0.0284
vn -0.9523 -0.2905 0.0938
vn 0.4554 0.6962 -0.5549
vn -0.8775 -0.4717 0.0864
vn 0.5549 0.6962 -0.4554
vn -0.7691 -0.6347 0.0757
vn -0.7691 0.6347 0.0757
vn -0.4554 -0.6962 -0.5549
vn -0.8775 0.4717 0.0864
vn -0.8438 -0.4717 0.2560
vn -0.6068 0.7732 0.1841
vn -0.7395 -0.6347 0.2243
vn -0.7395 0.6347 0.2243
vn -0.6068 -0.7732 0.1841
vn -0.8438 0.4717 0.2560
vn -0.4508 -0.8821 0.1368
vn -0.9157 0.2905 0.2778
vn -0.2776 -0.9570 0.0842
vn -0.9523 0.0981 0.2889
vn -0.6089 0.2808 0.7419
vn -0.2564 -0.4692 0.8451
vn -0.9523 -0.0981 0.2889
vn -0.2776 0.9570 0.0842
vn -0.9157 -0.2905 0.2778
vn -0.4508 0.8821 0.1368
vn -0.2558 -0.9570 0.1367
vn -0.8777 0.0981 0.4691
vn -0.8777 -0.0981 0.4691
vn -0.2558 0.9570 0.1367
vn -0.8439 -0.2905 0.4511
vn -0.4155 0.8821 0.2221
vn -0.7777 -0.4717 0.4157
vn -0.5592 0.7732 0.2989
vn -0.6815 -0.6347 0.3643
vn -0.6815 0.6347 0.3643
vn -0.5592 -0.7732 0.2989
vn -0.7777 0.4717 0.4157
vn -0.4155 -0.8821 0.2221
vn -0.8439 0.2905 0.4511
vn -0.4902 0.7732 0.4023
vn -0.2564 0.4692 0.8451
vn -0.3642 -0.8821 0.2989
vn -0.7397 0.2905 0.6070
vn -0.2242 -0.9570 0.1840
vn -0.9964 -0.0829 -0.0156
vn -0.8596 0.4636 0.2148
vn -0.2242 0.9570 0.1840
vn -0.7397 -0.2905 0.6070
vn -0.3642 0.8821 0.2989
vn -0.6816 -0.4717 0.5594
vn 0.0217 -0.9752 -0.2202
vn -0.2202 -0.9752 -0.0217
vn -0.1840 0.9570 0.2242
vn -0.6070 -0.2905 0.7397
vn -0.2989 0.8821 0.3642
vn -0.5594 -0.4717 0.6816
vn -0.4023 0.7732 0.4902
vn -0.2989 -0.8821 0.3642
vn -0.6070 0.2905 0.7397
vn -0.1840 -0.9570 0.2242
vn -0.3643 -0.6347 0.6815
vn -0.3643 0.6347 0.6815
vn -0.2989 -0.7732 0.5592
vn -0.4157 0.4717 0.7777
vn -0.2221 -0.8821 0.4155
vn -0.4511 0.2905 0.8439
vn -0.1367 -0.9570 0.2558
vn -0.4691 0.0981 0.8777
vn -0.5602 -0.4692 0.6826
vn -0.4691 -0.0981 0.8777
vn -0.1367 0.9570 0.2558
vn -0.4511 -0.2905 0.8439
vn -0.2221 0.8821 0.4155
vn -0.4157 -0.4717 0.7777
vn -0.2989 0.7732 0.5592
vn -0.2889 -0.0981 0.9523
vn -0.0842 0.9570 0.2776
vn -0.2778 -0.2905 0.9157
vn -0.1368 0.8821 0.4508
vn -0.2560 -0.4717 0.8438
vn -0.1841 0.7732 0.6068
vn -0.2243 -0.6347 0.7395
vn -0.2243 0.6347 0.7395
vn -0.1841 -0.7732 0.6068
vn -0.2560 0.4717 0.8438
vn -0.1368 -0.8821 0.4508
vn -0.2778 0.2905 0.9157
vn -0.0842 -0.9570 0.2776
vn -0.2889 0.0981 0.9523
vn -0.0757 0.6347 0.7691
vn -0.8451 0.5222 -0.1149
vn -0.0864 0.4717 0.8775
vn -0.0156 -0.0829 0.9964
vn -0.0938 0.2905 0.9523
vn -0.0284 -0.9570 0.2887
vn -0.5602 0.4692 0.6826
vn 0.0866 0.4692 0.8789
vn -0.0284 0.9570 0.2887
vn -0.0938 -0.2905 0.9523
vn -0.0217 0.9752 -0.2202
vn -0.0864 -0.4717 0.8775
vn 0.5549 0.6962 0.4554
vn -0.0757 -0.6347 0.7691
vn -0.8697 0.2642 -0.4169
vn -0.4163 -0.4692 0.7788
vn -0.4163 0.4692 0.7788
vn -0.4739 0.8793 0.0467
vn 0.4544 0.3529 0.8179
vn -0.7981 -0.3110 -0.5162
vn 0.4169 0.2642 0.8697
vn -0.7408 -0.3756 -0.5569
vn -0.8788 -0.4692 0.0866
vn -0.8788 0.4692 0.0866
vn -0.7788 -0.4692 0.4163
vn -0.4739 -0.8793 0.0467
vn 0.5162 -0.3110 0.7981
vn 0.5569 -0.3756 0.7408
vn -0.7788 0.4692 0.4163
vn -0.8775 0.0631 0.4755
vn -0.8775 -0.0631 0.4755
vn 0.0866 -0.4692 0.8788
vn 0.8179 0.3529 -0.4544
vn 0.6826 0.4692 0.5602
vn 0.0866 0.4692 0.8788
vn 0.6826 -0.4692 0.5602
vn 0.4755 -0.0631 0.8775
vn 0.4755 0.0631 0.8775
vn 0.6861 -0.4607 0.5630
vn 0.8451 0.4692 0.2564
vn -0.2350 -0.9527 -0.1929
vn 0.8451 -0.4692 0.2564
vn 0.7419 0.2808 0.6089
vn -0.0840 0.9941 -0.0690
vn 0.0467 -0.8793 0.4739
vn 0.5630 -0.4607 0.6861
vn -0.1929 -0.9527 -0.2350
vn 0.0467 0.8793 0.4739
vn -0.0156 0.0829 -0.9964
vn 0.9523 0.2905 0.0938
vn 0.2887 -0.9570 0.0284
vn -0.0690 0.9941 -0.0840
vn 0.2887 0.9570 0.0284
vn 0.9523 -0.2905 0.0938
vn 0.8451 0.5222 0.1149
vn 0.8775 -0.4717 0.0864
vn 0.8596 0.4636 -0.2148
vn 0.7691 -0.6347 0.0757
vn 0.7691 0.6347 0.0757
vn 0.9964 0.0829 -0.0156
vn 0.8775 0.4717 0.0864
vn 0.8438 -0.4717 0.2560
vn 0.6068 0.7732 0.1841
vn 0.7395 -0.6347 0.2243
vn 0.7395 0.6347 0.2243
vn 0.6068 -0.7732 0.1841
vn 0.8438 0.4717 0.2560
vn 0.4508 -0.8821 0.1368
vn 0.9157 0.2905 0.2778
vn 0.2776 -0.9570 0.0842
vn 0.9523 0.0981 0.2889
vn 0.6089 0.2808 0.7419
vn 0.2564 -0.4692 0.8451
vn 0.9523 -0.0981 0.2889
vn 0.2776 0.9570 0.0842
vn 0.9157 -0.2905 0.2778
vn 0.4508 0.8821 0.1368
vn 0.2558 -0.9570 0.1367
vn 0.8777 0.0981 0.4691
vn 0.8777 -0.0981 0.4691
vn 0.2558 0.9570 0.1367
vn 0.8439 -0.2905 0.4511
vn 0.4155 0.8821 0.2221
vn 0.7777 -0.4717 0.4157
vn 0.5592 0.7732 0.2989
vn 0.6815 -0.6347 0.3643
vn 0.6815 0.6347 0.3643
vn 0.5592 -0.7732 0.2989
vn 0.7777 0.4717 0.4157
vn 0.4155 -0.8821 0.2221
vn 0.8439 0.2905 0.4511
vn 0.4902 0.7732 0.4023
vn 0.2564 0.4692 0.8451
vn 0.3642 -0.8821 0.2989
vn 0.7397 0.2905 0.6070
vn 0.2242 -0.9570 0.1840
vn -0.2148 0.4636 -0.8596
vn 0.9964 0.0829 0.0156
vn 0.2242 0.9570 0.1840
vn 0.7397 -0.2905 0.6070
vn 0.3642 0.8821 0.2989
vn 0.6816 -0.4717 0.5594
vn -0.8596 0.4636 -0.2148
vn -0.4554 0.6962 -0.5549
vn 0.1840 0.9570 0.2242
vn 0.6070 -0.2905 0.7397
vn 0.2989 0.8821 0.3642
vn 0.5594 -0.4717 0.6816
vn 0.4023 0.7732 0.4902
vn 0.2989 -0.8821 0.3642
vn 0.6070 0.2905 0.7397
vn 0.1840 -0.9570 0.2242
vn 0.3643 -0.6347 0.6815
vn 0.3643 0.6347 0.6815
vn 0.2989 -0.7732 0.5592
vn 0.4157 0.4717 0.7777
vn 0.2221 -0.8821 0.4155
vn 0.4511 0.2905 0.8439
vn 0.1367 -0.9570 0.2558
vn 0.4691 0.0981 0.8777
vn 0.5602 -0.4692 0.6826
vn 0.4691 -0.0981 0.8777
vn 0.1367 0.9570 0.2558
vn 0.4511 -0.2905 0.8439
vn 0.2221 0.8821 0.4155
vn 0.4157 -0.4717 0.7777
vn 0.2989 0.7732 0.5592
vn 0.2889 -0.0981 0.9523
vn 0.0842 0.9570 0.2776
vn 0.2778 -0.2905 0.9157
vn 0.1368 0.8821 0.4508
vn 0.2560 -0.4717 0.8438
vn 0.1841 0.7732 0.6068
vn 0.2243 -0.6347 0.7395
vn 0.2243 0.6347 0.7395
vn 0.1841 -0.7732 0.6068
vn 0.2560 0.4717 0.8438
vn 0.1368 -0.8821 0.4508
vn 0.2778 0.2905 0.9157
vn 0.0842 -0.9570 0.2776
vn 0.2889 0.0981 0.9523
vn 0.0757 0.6347 0.7691
vn -0.1149 0.5222 -0.8451
vn 0.0864 0.4717 0.8775
vn -0.8451 -0.5222 0.1149
vn 0.0938 0.2905 0.9523
vn 0.0284 -0.9570 0.2887
vn 0.5602 0.4692 0.6826
vn -0.0866 0.4692 0.8789
vn 0.0284 0.9570 0.2887
vn 0.0938 -0.2905 0.9523
vn 0.0156 -0.0829 -0.9964
vn 0.0864 -0.4717 0.8775
vn -0.0960 -0.2015 -0.9748
vn 0.0757 -0.6347 0.7691
vn 0.8697 0.2642 -0.4169
vn 0.4163 -0.4692 0.7788
vn 0.4163 0.4692 0.7788
vn 0.4739 0.8793 0.0467
vn -0.4544 0.3529 0.8179
vn 0.7981 -0.3110 -0.5162
vn -0.4169 0.2642 0.8697
vn 0.7408 -0.3756 -0.5569
vn 0.8788 -0.4692 0.0866
vn 0.8788 0.4692 0.0866
vn 0.7788 -0.4692 0.4163
vn 0.4739 -0.8793 0.0467
vn -0.5162 -0.3110 0.7981
vn -0.5569 -0.3756 0.7408
vn 0.7788 0.4692 0.4163
vn 0.8775 0.0631 0.4755
vn 0.8775 -0.0631 0.4755
vn -0.2202 0.9752 -0.0217
vn -0.8451 -0.5222 -0.1149
vn 0.0156 0.0829 -0.9964
vn 0.2148 0.4636 -0.8596
vn 0.2148 -0.4636 -0.8596
vn 0.1149 0.5222 0.8451
vn 0.4554 -0.6962 -0.5549
vn 0.1149 -0.5222 0.8451
vn 0.2148 0.4636 0.8596
vn -0.8451 0.5222 0.1149
vn -0.8596 -0.4636 0.2148
vn 0.0217 0.9752 -0.2202
vn -0.0960 0.2015 0.9748
vn 0.2202 -0.9752 -0.0217
vn 0.9748 0.2015 0.0960
vn -0.0960 -0.2015 0.9748
vn -0.9964 -0.0829 0.0156
vn 0.2202 0.9752 -0.0217
vn 0.8596 0.4636 0.2148
vn -0.5549 -0.6962 -0.4554
vn 0.9748 -0.2015 0.0960
vn -0.1149 -0.5222 -0.8451
vn 0.9748 0.2015 -0.0960
vn -0.2148 -0.4636 0.8596
vn -0.1149 0.5222 0.8451
vn 0.8451 -0.5222 0.1149
vn -0.0156 0.0829 0.9964
vn 0.9748 -0.2015 -0.0960
vn -0.2148 0.4636 0.8596
vn 0.0217 -0.9752 0.2202
vn -0.4554 -0.6962 0.5549
vn 0.5549 -0.6962 -0.4554
vn -0.9964 0.0829 -0.0156
vn 0.0156 -0.0829 0.9964
vn 0.8451 -0.5222 -0.1149
vn -0.0156 -0.0829 -0.9964
vn -0.0217 -0.9752 -0.2202
vn -0.5549 -0.6962 0.4554
vn 0.4554 0.6962 0.5549
vn 0.1149 -0.5222 -0.8451
vn -0.5549 0.6962 -0.4554
vn -0.9748 0.2015 0.0960
vn -0.8596 -0.4636 -0.2148
vn -0.1149 -0.5222 0.8451
vn -0.9748 -0.2015 0.0960
vn -0.0960 0.2015 -0.9748
vn -0.0217 -0.9752 0.2202
vn 0.2202 0.9752 0.0217
vt 0.118295 0.840224
vt 0.095555 0.889445
vt 0.062365 0.830193
vt 0.633337 0.977189
vt 0.626318 0.974092
vt 0.663344 0.899690
vt 0.663345 0.982796
vt 0.655680 0.982442
vt 0.051298 0.909309
vt 0.058318 0.906211
vt 0.088325 0.983710
vt 0.838637 0.005580
vt 0.888676 0.023589
vt 0.828505 0.065917
vt 0.080661 0.900959
vt 0.088325 0.900605
vt 0.785459 0.006258
vt 0.068866 0.769506
vt 0.117962 0.785911
vt 0.619614 0.970360
vt 0.613283 0.966026
vt 0.538658 0.769506
vt 0.570979 0.769506
vt 0.543382 0.828290
vt 0.038264 0.917375
vt 0.044595 0.913041
vt 0.594402 0.873888
vt 0.548224 0.888531
vt 0.056018 0.889445
vt 0.888676 0.339689
vt 0.871551 0.389245
vt 0.828505 0.329586
vt 0.017409 0.775139
vt 0.506752 0.774668
vt 0.768335 0.371914
vt 0.768335 0.319483
vt 0.487116 0.988539
vt 0.452293 0.994420
vt 0.452293 0.946060
vt 0.379760 0.377414
vt 0.380253 0.372421
vt 0.382549 0.375238
vt 0.396641 0.399470
vt 0.400723 0.402957
vt 0.399779 0.403549
vt 0.017377 0.881070
vt 0.364049 0.356623
vt 0.368843 0.359832
vt 0.367136 0.360854
vt 0.384045 0.383023
vt 0.388983 0.383863
vt 0.386227 0.385876
vt 0.969670 0.846336
vt 0.963256 0.889875
vt 0.922126 0.842852
vt 0.388520 0.388875
vt 0.391140 0.386977
vt 0.857008 0.795830
vt 0.863423 0.839369
vt 0.815879 0.842852
vt 0.393337 0.390325
vt 0.390930 0.392026
vt 0.372866 0.368370
vt 0.377814 0.369508
vt 0.375288 0.371552
vt 0.936255 0.735026
vt 0.892209 0.727814
vt 0.939753 0.687289
vt 0.377580 0.374558
vt 0.391874 0.381917
vt 0.393923 0.385219
vt 0.372219 0.363263
vt 0.377315 0.364394
vt 0.375168 0.366506
vt 0.395934 0.388814
vt 0.380260 0.367289
vt 0.395653 0.394023
vt 0.397921 0.392806
vt 0.382897 0.370143
vt 0.399904 0.397300
vt 0.398100 0.398142
vt 0.385346 0.372972
vt 0.401780 0.402549
vt 0.384749 0.378044
vt 0.387638 0.375839
vt 0.500300 0.881451
vt 0.073062 0.902018
vt 0.389796 0.378808
vt 0.386875 0.380907
vt 0.364933 0.355908
vt 0.370176 0.358337
vt 0.373995 0.361407
vt 0.402942 0.402332
vt 0.388206 0.370558
vt 0.390633 0.373553
vt 0.392879 0.376686
vt 0.365685 0.355035
vt 0.371286 0.356617
vt 0.394958 0.380019
vt 0.375601 0.359295
vt 0.396912 0.383583
vt 0.379339 0.362033
vt 0.398747 0.387480
vt 0.382652 0.364839
vt 0.400381 0.391824
vt 0.385545 0.367669
vt 0.401850 0.396687
vt 0.381235 0.359358
vt 0.648081 0.981382
vt 0.403933 0.396330
vt 0.388223 0.364924
vt 0.391207 0.367918
vt 0.404176 0.402327
vt 0.970494 0.163514
vt 0.954072 0.206199
vt 0.935165 0.159830
vt 0.370475 0.994185
vt 0.351568 0.994420
vt 0.370475 0.948051
vt 0.366268 0.354027
vt 0.372182 0.354692
vt 0.398321 0.378146
vt 0.377018 0.356902
vt 0.400202 0.382081
vt 0.935165 0.312088
vt 0.900341 0.306207
vt 0.935165 0.263728
vt 0.935165 0.323483
vt 0.954072 0.323248
vt 0.935165 0.369617
vt 0.366844 0.351716
vt 0.372818 0.352564
vt 0.396220 0.374483
vt 0.402037 0.376295
vt 0.378210 0.354211
vt 0.403844 0.380679
vt 0.382986 0.356369
vt 0.403027 0.391008
vt 0.406155 0.396266
vt 0.390988 0.361841
vt 0.394343 0.365005
vt 0.405454 0.402515
vt 0.408915 0.384836
vt 0.405207 0.385453
vt 0.387226 0.358883
vt 0.384557 0.352914
vt 0.389492 0.355287
vt 0.405962 0.390584
vt 0.409123 0.390497
vt 0.393888 0.358247
vt 0.408489 0.396543
vt 0.397785 0.361661
vt 0.406737 0.402890
vt 0.397328 0.368441
vt 0.401167 0.365510
vt 0.065593 0.903774
vt 0.403987 0.369787
vt 0.399859 0.372225
vt 0.373136 0.350256
vt 0.406250 0.374444
vt 0.379124 0.351179
vt 0.407925 0.379451
vt 0.408755 0.367134
vt 0.366783 0.350437
vt 0.373067 0.347756
vt 0.411173 0.372603
vt 0.379665 0.347792
vt 0.412585 0.378471
vt 0.385872 0.348921
vt 0.413093 0.384617
vt 0.391674 0.351050
vt 0.412503 0.390849
vt 0.396966 0.353978
vt 0.410908 0.397222
vt 0.401604 0.357760
vt 0.407987 0.403489
vt 0.405523 0.362186
vt 0.386811 0.344219
vt 0.393758 0.345908
vt 0.935165 0.005580
vt 0.969988 0.011461
vt 0.935165 0.053940
vt 0.400241 0.348852
vt 0.768335 0.802327
vt 0.812381 0.795115
vt 0.405977 0.353052
vt 0.409136 0.404310
vt 0.640612 0.979626
vt 0.725644 0.864125
vt 0.733308 0.863771
vt 0.733308 0.946876
vt 0.366458 0.349129
vt 0.372032 0.345306
vt 0.416982 0.370799
vt 0.935165 0.205964
vt 0.418096 0.377825
vt 0.969988 0.412096
vt 0.935165 0.417978
vt 0.417882 0.384958
vt 0.768334 0.055814
vt 0.005580 0.828149
vt 0.596405 0.818557
vt 0.032359 0.922274
vt 0.607379 0.961126
vt 0.888676 0.076021
vt 0.489486 0.827150
vt 0.818374 0.389923
vt 0.752132 0.946876
vt 0.744467 0.946522
vt 0.752132 0.863771
vt 0.881049 0.594213
vt 0.824264 0.592169
vt 0.869252 0.541292
vt 0.952574 0.434744
vt 0.982581 0.512243
vt 0.945554 0.437841
vt 0.982581 0.429137
vt 0.974917 0.429491
vt 0.145203 0.975006
vt 0.182230 0.900605
vt 0.152223 0.978104
vt 0.838637 0.137414
vt 0.828505 0.197752
vt 0.785459 0.138092
vt 0.174566 0.983356
vt 0.182230 0.983710
vt 0.888676 0.155424
vt 0.817763 0.652857
vt 0.869220 0.647224
vt 0.938850 0.441573
vt 0.932519 0.445907
vt 0.302500 0.888531
vt 0.307225 0.829747
vt 0.334821 0.888531
vt 0.132168 0.966940
vt 0.138499 0.971274
vt 0.358245 0.784149
vt 0.312066 0.769506
vt 0.830611 0.532917
vt 0.888676 0.287258
vt 0.768667 0.636452
vt 0.270594 0.883369
vt 0.785459 0.269927
vt 0.534110 0.899690
vt 0.568934 0.905572
vt 0.534110 0.948051
vt 0.112008 0.023569
vt 0.341931 0.209358
vt 0.268387 0.230518
vt 0.409930 0.413753
vt 0.414326 0.422271
vt 0.408633 0.414877
vt 0.791074 0.532917
vt 0.352266 0.335155
vt 0.354828 0.345370
vt 0.349269 0.337984
vt 0.537182 0.463747
vt 0.655651 0.736272
vt 0.496751 0.529837
vt 0.970494 0.365933
vt 0.458258 0.479775
vt 0.487622 0.942375
vt 0.446609 0.437667
vt 0.435927 0.450687
vt 0.339892 0.270739
vt 0.327476 0.309449
vt 0.306574 0.280850
vt 0.899835 0.260043
vt 0.477081 0.449543
vt 0.516734 0.404151
vt 0.358679 0.303253
vt 0.347929 0.321894
vt 0.343108 0.302745
vt 0.450338 0.422492
vt 0.429391 0.428023
vt 0.393648 0.244217
vt 0.419826 0.416338
vt 0.417724 0.420086
vt 0.427125 0.005580
vt 0.410918 0.412453
vt 0.754269 0.094374
vt 0.459271 0.218869
vt 0.264142 0.776586
vt 0.166967 0.982297
vt 0.558066 0.347339
vt 0.757175 0.434280
vt 0.356503 0.334173
vt 0.356303 0.344584
vt 0.411498 0.410960
vt 0.537499 0.260933
vt 0.446540 0.281555
vt 0.494108 0.343490
vt 0.360660 0.334401
vt 0.357950 0.344150
vt 0.485501 0.378695
vt 0.364089 0.322893
vt 0.356469 0.321090
vt 0.476698 0.419593
vt 0.371003 0.308946
vt 0.448133 0.409096
vt 0.368269 0.278870
vt 0.432482 0.419853
vt 0.410200 0.280795
vt 0.420708 0.412323
vt 0.379081 0.316656
vt 0.967318 0.430551
vt 0.420446 0.408508
vt 0.432772 0.411885
vt 0.412823 0.305657
vt 0.323481 0.988539
vt 0.288657 0.994420
vt 0.288657 0.946060
vt 0.918628 0.890590
vt 0.361269 0.344357
vt 0.359640 0.344082
vt 0.462183 0.370059
vt 0.364381 0.335632
vt 0.465974 0.399002
vt 0.569440 0.951735
vt 0.969670 0.802327
vt 0.367458 0.337581
vt 0.445383 0.367805
vt 0.462920 0.347398
vt 0.370149 0.326399
vt 0.453623 0.387471
vt 0.384164 0.324874
vt 0.419337 0.405084
vt 0.430330 0.405322
vt 0.434753 0.310759
vt 0.410574 0.322527
vt 0.411471 0.407905
vt 0.411652 0.409410
vt 0.429265 0.388493
vt 0.442140 0.381615
vt 0.435934 0.392719
vt 0.396605 0.321453
vt 0.386421 0.332310
vt 0.427467 0.400164
vt 0.407215 0.333880
vt 0.423835 0.396302
vt 0.424463 0.328282
vt 0.410930 0.406518
vt 0.436351 0.338632
vt 0.417078 0.339200
vt 0.159498 0.980541
vt 0.430774 0.357093
vt 0.443324 0.352802
vt 0.369801 0.340036
vt 0.362755 0.344932
vt 0.433318 0.368032
vt 0.377305 0.335418
vt 0.374537 0.330829
vt 0.421566 0.360876
vt 0.425180 0.347179
vt 0.371458 0.342624
vt 0.364036 0.345747
vt 0.424237 0.369212
vt 0.432507 0.378848
vt 0.387097 0.338765
vt 0.423227 0.386121
vt 0.396626 0.331705
vt 0.403687 0.342284
vt 0.415506 0.400008
vt 0.417634 0.402264
vt 0.410141 0.405305
vt 0.411017 0.347062
vt 0.395456 0.339654
vt 0.863423 0.883378
vt 0.819376 0.890590
vt 0.959849 0.432307
vt 0.752132 0.769860
vt 0.744467 0.852611
vt 0.744467 0.769506
vt 0.365065 0.346727
vt 0.405299 0.905572
vt 0.405804 0.951735
vt 0.424572 0.377850
vt 0.553018 0.994420
vt 0.534110 0.994186
vt 0.888676 0.207855
vt 0.768334 0.582138
vt 0.360248 0.839480
vt 0.126264 0.962040
vt 0.926615 0.450807
vt 0.768334 0.187648
vt 0.253328 0.830887
vt 0.838637 0.269248
vt 0.693327 0.982796
vt 0.693327 0.899690
vt 0.700992 0.982442
vt 0.768334 0.722660
vt 0.825120 0.724703
vt 0.780132 0.775581
vt 0.588971 0.936774
vt 0.592708 0.943475
vt 0.580599 0.907418
vt 0.581664 0.915016
vt 0.017689 0.939926
vt 0.013952 0.946627
vt 0.818374 0.126255
vt 0.871551 0.125576
vt 0.006645 0.968385
vt 0.005580 0.975983
vt 0.768334 0.108245
vt 0.831621 0.664016
vt 0.780164 0.669649
vt 0.597047 0.949802
vt 0.601951 0.955703
vt 0.656737 0.888531
vt 0.661461 0.829747
vt 0.689058 0.888531
vt 0.026932 0.927698
vt 0.022028 0.933598
vt 0.712481 0.784149
vt 0.666303 0.769506
vt 0.818772 0.783956
vt 0.768335 0.451317
vt 0.828505 0.461420
vt 0.768335 0.503748
vt 0.880717 0.680421
vt 0.624831 0.883369
vt 0.871551 0.521079
vt 0.888676 0.471524
vt 0.916257 0.323248
vt 0.374813 0.376575
vt 0.398947 0.404334
vt 0.858310 0.783956
vt 0.365648 0.362181
vt 0.383562 0.388010
vt 0.987297 0.646763
vt 0.987297 0.690772
vt 0.980882 0.734311
vt 0.388658 0.393904
vt 0.372651 0.373454
vt 0.987297 0.540129
vt 0.987297 0.584138
vt 0.939753 0.580654
vt 0.386003 0.390908
vt 0.380927 0.390292
vt 0.367827 0.371600
vt 0.368113 0.366352
vt 0.370443 0.370080
vt 0.386523 0.396015
vt 0.391616 0.397109
vt 0.371914 0.378529
vt 0.393691 0.402034
vt 0.394974 0.400492
vt 0.376926 0.379535
vt 0.398287 0.405261
vt 0.379056 0.382397
vt 0.374002 0.381640
vt 0.618379 0.776586
vt 0.008406 0.960917
vt 0.378468 0.387470
vt 0.381261 0.385200
vt 0.363818 0.363028
vt 0.363054 0.357200
vt 0.397763 0.406331
vt 0.376168 0.384608
vt 0.370916 0.383770
vt 0.375611 0.389893
vt 0.361844 0.363644
vt 0.361944 0.357626
vt 0.378286 0.392774
vt 0.363333 0.368579
vt 0.365820 0.367580
vt 0.383578 0.393134
vt 0.365002 0.372938
vt 0.384501 0.398382
vt 0.369853 0.375226
vt 0.389857 0.398971
vt 0.368823 0.380437
vt 0.392590 0.403762
vt 0.361908 0.374074
vt 0.583426 0.922483
vt 0.391692 0.405700
vt 0.388269 0.401088
vt 0.365463 0.382307
vt 0.980882 0.627677
vt 0.936255 0.628392
vt 0.899835 0.057625
vt 0.900341 0.011461
vt 0.359502 0.357942
vt 0.360753 0.357877
vt 0.375597 0.395534
vt 0.359729 0.364002
vt 0.381217 0.395593
vt 0.433385 0.899690
vt 0.452293 0.899925
vt 0.389382 0.994420
vt 0.357481 0.364063
vt 0.372837 0.398642
vt 0.372607 0.392545
vt 0.360633 0.369326
vt 0.378907 0.398380
vt 0.358552 0.374988
vt 0.391051 0.407818
vt 0.386791 0.403437
vt 0.367576 0.385980
vt 0.361754 0.384175
vt 0.397247 0.408787
vt 0.397414 0.407508
vt 0.379292 0.407523
vt 0.376601 0.401534
vt 0.380856 0.404099
vt 0.359877 0.379758
vt 0.354786 0.375612
vt 0.385617 0.406166
vt 0.357515 0.386043
vt 0.384712 0.409209
vt 0.363936 0.388250
vt 0.397278 0.410122
vt 0.366477 0.392036
vt 0.359800 0.390706
vt 0.010849 0.953644
vt 0.366038 0.398827
vt 0.369473 0.395473
vt 0.355141 0.363804
vt 0.358217 0.357807
vt 0.369948 0.402231
vt 0.354507 0.369891
vt 0.357716 0.369786
vt 0.362228 0.402744
vt 0.362639 0.394983
vt 0.352679 0.363113
vt 0.356933 0.357457
vt 0.366884 0.406508
vt 0.374349 0.405158
vt 0.350578 0.375851
vt 0.377990 0.411502
vt 0.355798 0.381014
vt 0.352577 0.387909
vt 0.390733 0.412633
vt 0.390708 0.410154
vt 0.397503 0.411475
vt 0.355027 0.393383
vt 0.351124 0.382024
vt 0.345763 0.375537
vt 0.899835 0.365933
vt 0.345594 0.382703
vt 0.880996 0.795830
vt 0.925623 0.795115
vt 0.346757 0.389744
vt 0.397967 0.412784
vt 0.585868 0.929757
vt 0.201062 0.900605
vt 0.197225 0.983622
vt 0.193389 0.900605
vt 0.350576 0.361551
vt 0.355706 0.356883
vt 0.363629 0.411650
vt 0.954072 0.100310
vt 0.935165 0.100075
vt 0.370130 0.414553
vt 0.372186 0.409403
vt 0.774749 0.889875
vt 0.768334 0.846336
vt 0.377070 0.416196
vt 0.881049 0.734734
vt 0.714484 0.839480
vt 0.607565 0.830887
vt 0.818374 0.521758
vt 0.212221 0.983621
vt 0.216057 0.900605
vt 0.219893 0.983621
vt 0.242169 0.840224
vt 0.219429 0.889445
vt 0.186239 0.830193
vt 0.908208 0.475159
vt 0.911945 0.468459
vt 0.899835 0.504515
vt 0.900901 0.496917
vt 0.111594 0.944389
vt 0.107857 0.937688
vt 0.818374 0.258089
vt 0.768334 0.240079
vt 0.100550 0.915930
vt 0.099484 0.908332
vt 0.871551 0.257411
vt 0.192740 0.769506
vt 0.241836 0.785911
vt 0.916284 0.462131
vt 0.921188 0.456230
vt 0.420579 0.769506
vt 0.452900 0.769506
vt 0.425304 0.828290
vt 0.120837 0.956617
vt 0.115933 0.950717
vt 0.476323 0.873888
vt 0.430145 0.888531
vt 0.179892 0.889445
vt 0.785459 0.401761
vt 0.141283 0.775139
vt 0.388673 0.774668
vt 0.888676 0.419092
vt 0.898623 0.533632
vt 0.943250 0.532917
vt 0.227167 0.295587
vt 0.005580 0.323553
vt 0.407164 0.415711
vt 0.141251 0.881070
vt 0.345849 0.340170
vt 0.422455 0.551980
vt 0.970494 0.057625
vt 0.424191 0.490148
vt 0.420570 0.457614
vt 0.287048 0.310080
vt 0.370068 0.516850
vt 0.395353 0.482036
vt 0.334400 0.332282
vt 0.313779 0.337714
vt 0.317631 0.323071
vt 0.404969 0.457274
vt 0.287413 0.340250
vt 0.415664 0.438478
vt 0.407054 0.439315
vt 0.247004 0.355581
vt 0.407069 0.426133
vt 0.411322 0.425124
vt 0.204949 0.412660
vt 0.405563 0.416240
vt 0.005580 0.667639
vt 0.225417 0.499901
vt 0.382221 0.881451
vt 0.102311 0.923398
vt 0.304170 0.542365
vt 0.337064 0.758346
vt 0.353606 0.346471
vt 0.343895 0.343947
vt 0.331365 0.340184
vt 0.403908 0.416422
vt 0.269356 0.416942
vt 0.284230 0.455019
vt 0.317099 0.479261
vt 0.352696 0.347822
vt 0.342952 0.347921
vt 0.353494 0.480019
vt 0.331053 0.348067
vt 0.378219 0.466339
vt 0.315861 0.351036
vt 0.392602 0.451672
vt 0.298168 0.360734
vt 0.399301 0.437521
vt 0.278180 0.381485
vt 0.402916 0.425920
vt 0.321117 0.360866
vt 0.902662 0.489450
vt 0.399227 0.424677
vt 0.301620 0.390618
vt 0.300815 0.413207
vt 0.402317 0.416248
vt 0.323986 0.942375
vt 0.352117 0.349312
vt 0.343140 0.351747
vt 0.351179 0.455194
vt 0.332815 0.354829
vt 0.370261 0.451405
vt 0.900341 0.412096
vt 0.892209 0.577171
vt 0.352189 0.352395
vt 0.344226 0.355182
vt 0.329024 0.450034
vt 0.353359 0.438344
vt 0.335920 0.360196
vt 0.367570 0.438774
vt 0.327704 0.367952
vt 0.393576 0.433457
vt 0.396206 0.422745
vt 0.318562 0.392876
vt 0.320513 0.407824
vt 0.400873 0.415750
vt 0.377554 0.428083
vt 0.379922 0.435629
vt 0.321166 0.379086
vt 0.334321 0.372084
vt 0.331089 0.381786
vt 0.389318 0.429351
vt 0.386503 0.424826
vt 0.330439 0.392594
vt 0.393887 0.420381
vt 0.333020 0.403523
vt 0.399639 0.414979
vt 0.327448 0.422035
vt 0.338638 0.413441
vt 0.104754 0.930671
vt 0.346782 0.421429
vt 0.339363 0.432463
vt 0.345969 0.358091
vt 0.356711 0.426727
vt 0.339679 0.364124
vt 0.367388 0.428737
vt 0.352839 0.413503
vt 0.352709 0.353802
vt 0.348126 0.360368
vt 0.360210 0.418250
vt 0.343605 0.366784
vt 0.368477 0.420809
vt 0.340389 0.374407
vt 0.376816 0.421635
vt 0.339091 0.382723
vt 0.384922 0.420386
vt 0.339497 0.391369
vt 0.392263 0.417789
vt 0.342214 0.399705
vt 0.398655 0.413998
vt 0.346803 0.407159
vt 0.307565 0.899690
vt 0.416964 0.942375
vt 0.349327 0.396389
vt 0.905105 0.482176
vt 0.674504 0.900045
vt 0.682168 0.899690
vt 0.682168 0.982796
vt 0.353512 0.355034
vt 0.898623 0.640266
vt 0.943250 0.639551
vt 0.969988 0.306207
vt 0.129454 0.828149
vt 0.478326 0.818557
vt 0.371407 0.827150
vt 0.838637 0.401083
vt 0.733308 0.852257
vt 0.725644 0.852611
vt 0.725644 0.769506
vt 0.916257 0.206199
vt 0.954072 0.217358
vt 0.970494 0.260043
vt 0.969988 0.117350
vt 0.335146 0.951735
vt 0.335651 0.905572
vt 0.899836 0.163514
vt 0.892209 0.683805
vt 0.900341 0.117350
vt 0.916257 0.100310
vt 0.417469 0.988539
vt 0.515203 0.994420
vt 0.935165 0.111469
vt 0.874582 0.883378
vt 0.269750 0.899690
vt 0.288657 0.899925
vt 0.370475 0.899690
vt 0.498781 0.951735
vt 0.499287 0.905572
vt 0.253328 0.942375
vt 0.471200 0.899690
vt 0.253834 0.988539
vt 0.935165 0.217593
vt 0.874582 0.839369
vt 0.892209 0.621180
vt 0.916257 0.217358
vt 0.366662 0.352918
vt 0.413014 0.398795
vt 0.365863 0.347862
vt 0.414450 0.364159
vt 0.479265 0.305675
vt 0.385023 0.294535
vt 0.417013 0.353416
vt 0.378904 0.339953
vt 0.419975 0.393657
vt 0.373173 0.386902
vt 0.366849 0.376892
vt 0.358286 0.398329
vt 0.351112 0.369562
vt 0.384174 0.412588
vt 0.391722 0.415075
vt 0.354543 0.356071
vt 0.357867 0.407475
vt 0.351968 0.350874
s 0
usemtl マテリアル.003
f 53/1/1 52/2/1 133/3/1
f 64/4/2 49/5/2 131/6/2
f 121/7/3 106/8/3 131/6/3
f 63/9/4 75/10/4 130/11/4
f 26/12/5 27/13/5 132/14/5
f 120/15/6 128/16/6 130/11/6
f 25/17/7 26/12/7 132/14/7
f 68/18/8 54/19/8 133/3/8
f 34/20/9 19/21/9 131/6/9
f 73/22/10 61/23/10 134/24/10
f 33/25/11 48/26/11 130/11/11
f 59/27/12 72/28/12 134/24/12
f 52/2/13 67/29/13 133/3/13
f 3/30/14 114/31/14 129/32/14
f 81/33/15 68/18/15 133/3/15
f 88/34/16 73/22/16 134/24/16
f 112/35/17 2/36/17 129/32/17
f 473/37/18 367/38/18 489/39/18
f 12/40/19 24/41/19 25/42/19
f 17/43/20 33/44/20 18/45/20
f 67/29/21 79/46/21 133/3/21
f 7/47/22 20/48/22 8/49/22
f 13/50/23 28/51/23 14/52/23
f 310/53/24 296/54/24 488/55/24
f 15/56/25 28/51/25 29/57/25
f 440/58/26 426/59/26 490/60/26
f 15/56/27 30/61/27 16/62/27
f 9/63/28 23/64/28 10/65/28
f 186/66/29 187/67/29 485/68/29
f 10/65/30 24/41/30 11/69/30
f 29/57/31 43/70/31 44/71/31
f 21/72/32 37/73/32 22/74/32
f 29/57/33 45/75/33 30/61/33
f 23/64/34 37/73/34 38/76/34
f 31/77/35 45/75/35 46/78/35
f 23/64/36 39/79/36 24/41/36
f 31/77/37 47/80/37 32/81/37
f 25/42/38 39/79/38 40/82/38
f 32/81/39 48/83/39 33/44/39
f 26/84/40 40/82/40 41/85/40
f 72/28/41 86/86/41 134/24/41
f 105/87/42 120/15/42 130/11/42
f 26/84/43 42/88/43 27/89/43
f 19/90/44 35/91/44 20/48/44
f 27/89/45 43/70/45 28/51/45
f 21/72/46 35/91/46 36/92/46
f 47/80/47 63/93/47 48/83/47
f 41/85/48 55/94/48 56/95/48
f 41/85/49 57/96/49 42/88/49
f 34/97/50 50/98/50 35/91/50
f 42/88/51 58/99/51 43/70/51
f 35/91/52 51/100/52 36/92/52
f 44/71/53 58/99/53 59/101/53
f 36/92/54 52/102/54 37/73/54
f 44/71/55 60/103/55 45/75/55
f 38/76/56 52/102/56 53/104/56
f 46/78/57 60/103/57 61/105/57
f 38/76/58 54/106/58 39/79/58
f 46/78/59 62/107/59 47/80/59
f 40/82/60 54/106/60 55/94/60
f 51/100/61 67/108/61 52/102/61
f 106/8/62 91/109/62 131/6/62
f 61/105/63 74/110/63 62/107/63
f 55/94/64 68/111/64 69/112/64
f 63/93/65 74/110/65 75/113/65
f 151/114/66 150/115/66 484/116/66
f 147/117/67 162/118/67 486/119/67
f 49/120/68 65/121/68 50/98/68
f 57/96/69 71/122/69 58/99/69
f 51/100/70 65/121/70 66/123/70
f 59/101/71 71/122/71 72/124/71
f 126/125/72 247/126/72 482/127/72
f 122/128/73 237/129/73 479/130/73
f 65/121/74 76/131/74 77/132/74
f 70/133/75 85/134/75 71/122/75
f 66/123/76 77/132/76 78/135/76
f 72/124/77 85/134/77 86/136/77
f 66/123/78 79/137/78 67/108/78
f 73/138/79 89/139/79 74/110/79
f 69/112/80 81/140/80 82/141/80
f 74/110/81 90/142/81 75/113/81
f 86/136/82 102/143/82 87/144/82
f 80/145/83 94/146/83 95/147/83
f 88/148/84 102/143/84 103/149/84
f 80/145/85 96/150/85 81/140/85
f 88/148/86 104/151/86 89/139/86
f 82/141/87 96/150/87 97/152/87
f 90/142/88 104/151/88 105/153/88
f 83/154/89 97/152/89 98/155/89
f 75/10/90 90/156/90 130/11/90
f 83/154/91 99/157/91 84/158/91
f 76/131/92 92/159/92 77/132/92
f 84/158/93 100/160/93 85/134/93
f 77/132/94 93/161/94 78/135/94
f 86/136/95 100/160/95 101/162/95
f 78/135/96 94/146/96 79/137/96
f 98/155/97 114/163/97 99/157/97
f 91/164/98 107/165/98 92/159/98
f 99/157/99 115/166/99 100/160/99
f 93/161/100 107/165/100 108/167/100
f 101/162/101 115/166/101 116/168/101
f 93/161/102 109/169/102 94/146/102
f 101/162/103 117/170/103 102/143/103
f 95/147/104 109/169/104 110/171/104
f 103/149/105 117/170/105 118/172/105
f 95/147/106 111/173/106 96/150/106
f 103/149/107 119/174/107 104/151/107
f 97/152/108 111/173/108 112/175/108
f 104/151/109 120/176/109 105/153/109
f 98/155/110 112/175/110 113/177/110
f 110/171/111 123/178/111 1/179/111
f 364/180/112 465/181/112 487/182/112
f 111/173/113 1/179/113 124/183/113
f 438/184/114 439/185/114 490/60/114
f 112/175/115 124/183/115 2/186/115
f 119/174/116 128/187/116 120/176/116
f 76/188/117 64/4/117 131/6/117
f 5/189/118 121/190/118 131/191/118
f 106/192/119 122/193/119 107/165/119
f 114/163/120 125/194/120 115/166/120
f 150/115/121 138/195/121 484/116/121
f 115/166/122 4/196/122 116/168/122
f 239/197/123 123/198/123 479/130/123
f 116/168/124 126/199/124 117/170/124
f 54/19/125 53/1/125 133/3/125
f 90/156/126 105/87/126 130/11/126
f 91/109/127 76/188/127 131/6/127
f 12/200/128 25/17/128 132/14/128
f 79/46/129 80/201/129 133/3/129
f 60/202/130 59/27/130 134/24/130
f 80/201/131 81/33/131 133/3/131
f 61/23/132 60/202/132 134/24/132
f 18/203/133 33/25/133 130/11/133
f 19/21/134 7/204/134 131/6/134
f 48/26/135 63/9/135 130/11/135
f 27/13/136 13/205/136 132/14/136
f 86/86/137 87/206/137 134/24/137
f 87/206/138 88/34/138 134/24/138
f 49/5/139 34/20/139 131/6/139
f 113/207/140 112/35/140 129/32/140
f 114/31/141 113/207/141 129/32/141
f 128/208/142 6/209/142 130/210/142
f 183/211/143 252/212/143 182/213/143
f 194/214/144 131/215/144 179/216/144
f 121/217/145 131/215/145 236/218/145
f 193/219/146 130/220/146 205/221/146
f 156/222/147 251/223/147 157/224/147
f 250/225/142 130/220/142 128/226/142
f 155/227/148 251/223/148 156/222/148
f 198/228/149 252/212/149 184/229/149
f 164/230/150 131/215/150 149/231/150
f 203/232/151 253/233/151 191/234/151
f 163/235/152 130/220/152 178/236/152
f 189/237/153 253/233/153 202/238/153
f 182/213/154 252/212/154 197/239/154
f 3/30/155 129/32/155 244/240/155
f 211/241/156 252/212/156 198/228/156
f 218/242/157 253/233/157 203/232/157
f 242/243/158 129/32/158 2/36/158
f 16/244/159 30/245/159 483/246/159
f 142/247/160 154/248/160 141/249/160
f 163/250/161 147/251/161 148/252/161
f 197/239/162 252/212/162 209/253/162
f 150/254/163 137/255/163 138/256/163
f 158/257/164 143/258/164 144/259/164
f 237/129/165 238/260/165 479/130/165
f 145/261/166 158/257/166 144/259/166
f 474/262/167 473/37/167 489/39/167
f 160/263/168 145/261/168 146/264/168
f 153/265/169 139/266/169 140/267/169
f 247/126/170 248/268/170 482/127/170
f 154/248/171 140/267/171 141/249/171
f 159/269/172 173/270/172 158/257/172
f 167/271/173 151/272/173 152/273/173
f 175/274/174 159/269/174 160/263/174
f 153/265/175 167/271/175 152/273/175
f 161/275/176 175/274/176 160/263/176
f 169/276/177 153/265/177 154/248/177
f 177/277/178 161/275/178 162/278/178
f 155/279/179 169/276/179 154/248/179
f 178/280/180 162/278/180 163/250/180
f 156/281/181 170/282/181 155/279/181
f 202/238/182 253/233/182 216/283/182
f 235/284/183 130/220/183 250/225/183
f 172/285/184 156/281/184 157/286/184
f 165/287/185 149/288/185 150/254/185
f 173/270/186 157/286/186 158/257/186
f 151/272/187 165/287/187 150/254/187
f 193/289/188 177/277/188 178/280/188
f 171/290/189 185/291/189 170/282/189
f 187/292/190 171/290/190 172/285/190
f 180/293/191 164/294/191 165/287/191
f 188/295/192 172/285/192 173/270/192
f 181/296/193 165/287/193 166/297/193
f 174/298/194 188/295/194 173/270/194
f 182/299/195 166/297/195 167/271/195
f 190/300/196 174/298/196 175/274/196
f 168/301/197 182/299/197 167/271/197
f 176/302/198 190/300/198 175/274/198
f 184/303/199 168/301/199 169/276/199
f 192/304/200 176/302/200 177/277/200
f 170/282/201 184/303/201 169/276/201
f 197/305/202 181/296/202 182/299/202
f 236/218/203 131/215/203 221/306/203
f 204/307/204 191/308/204 192/304/204
f 185/291/205 198/309/205 184/303/205
f 193/289/206 204/307/206 192/304/206
f 22/310/207 9/311/207 480/312/207
f 296/54/208 297/313/208 488/55/208
f 180/293/209 194/314/209 179/315/209
f 201/316/210 187/292/210 188/295/210
f 181/296/211 195/317/211 180/293/211
f 189/318/212 201/316/212 188/295/212
f 30/245/213 31/319/213 483/246/213
f 323/320/214 310/53/214 488/55/214
f 207/321/215 194/314/215 195/317/215
f 215/322/216 200/323/216 201/316/216
f 196/324/217 207/321/217 195/317/217
f 202/325/218 215/322/218 201/316/218
f 209/326/219 196/324/219 197/305/219
f 219/327/220 203/328/220 204/307/220
f 199/329/221 211/330/221 198/309/221
f 220/331/222 204/307/222 205/332/222
f 232/333/223 216/334/223 217/335/223
f 210/336/224 224/337/224 209/326/224
f 218/338/225 232/333/225 217/335/225
f 226/339/226 210/336/226 211/330/226
f 219/327/227 233/340/227 218/338/227
f 212/341/228 226/339/228 211/330/228
f 235/342/229 219/327/229 220/331/229
f 213/343/230 227/344/230 212/341/230
f 205/221/231 130/220/231 220/345/231
f 229/346/232 213/343/232 214/347/232
f 222/348/233 206/349/233 207/321/233
f 230/350/234 214/347/234 215/322/234
f 223/351/235 207/321/235 208/352/235
f 216/334/236 230/350/236 215/322/236
f 224/337/237 208/352/237 209/326/237
f 244/353/238 228/354/238 229/346/238
f 237/355/239 221/356/239 222/348/239
f 245/357/240 229/346/240 230/350/240
f 223/351/241 237/355/241 222/348/241
f 231/358/242 245/357/242 230/350/242
f 239/359/243 223/351/243 224/337/243
f 247/360/244 231/358/244 232/333/244
f 225/361/245 239/359/245 224/337/245
f 233/340/246 247/360/246 232/333/246
f 241/362/247 225/361/247 226/339/247
f 249/363/248 233/340/248 234/364/248
f 227/344/249 241/362/249 226/339/249
f 250/365/250 234/364/250 235/342/250
f 228/354/251 242/366/251 227/344/251
f 240/367/252 123/178/252 239/359/252
f 426/59/253 413/368/253 490/60/253
f 241/362/254 1/179/254 240/367/254
f 413/368/255 412/369/255 490/60/255
f 242/366/256 124/183/256 241/362/256
f 128/187/257 249/363/257 250/365/257
f 206/370/258 131/215/258 194/214/258
f 135/371/259 131/372/259 121/373/259
f 122/193/260 236/374/260 237/355/260
f 125/194/261 244/353/261 245/357/261
f 386/375/262 387/376/262 486/119/262
f 4/196/263 245/357/263 246/377/263
f 32/378/264 17/379/264 483/246/264
f 126/199/265 246/377/265 247/360/265
f 184/229/266 252/212/266 183/211/266
f 220/345/267 130/220/267 235/284/267
f 221/306/268 131/215/268 206/370/268
f 142/380/269 251/223/269 155/227/269
f 209/253/270 252/212/270 210/381/270
f 190/382/271 253/233/271 189/237/271
f 210/381/272 252/212/272 211/241/272
f 191/234/273 253/233/273 190/382/273
f 148/383/274 130/220/274 163/235/274
f 149/231/275 131/215/275 137/384/275
f 178/236/276 130/220/276 193/219/276
f 157/224/277 251/223/277 143/385/277
f 216/283/278 253/233/278 217/386/278
f 217/386/279 253/233/279 218/242/279
f 179/216/280 131/215/280 164/230/280
f 243/387/281 129/32/281 242/243/281
f 244/240/282 129/32/282 243/387/282
f 128/388/6 130/389/6 136/390/6
f 294/391/283 371/392/283 293/393/283
f 305/394/284 131/6/284 290/395/284
f 362/396/285 131/6/285 347/397/285
f 304/398/286 130/11/286 316/399/286
f 267/400/287 132/14/287 268/401/287
f 361/402/288 130/11/288 369/403/288
f 266/404/289 132/14/289 267/400/289
f 309/405/290 371/392/290 295/406/290
f 275/407/291 131/6/291 260/408/291
f 314/409/292 372/410/292 302/411/292
f 274/412/293 130/11/293 289/413/293
f 300/414/294 372/410/294 313/415/294
f 293/393/295 371/392/295 308/416/295
f 256/417/296 370/418/296 355/419/296
f 322/420/297 371/392/297 309/405/297
f 329/421/298 372/410/298 314/409/298
f 353/422/299 370/418/299 255/423/299
f 107/424/300 122/128/300 479/130/300
f 12/40/301 265/425/301 11/69/301
f 274/426/302 17/43/302 18/45/302
f 308/416/303 371/392/303 320/427/303
f 261/428/304 7/47/304 8/49/304
f 269/429/305 13/50/305 14/52/305
f 212/430/306 199/431/306 485/68/306
f 15/56/307 269/429/307 14/52/307
f 199/431/308 185/432/308 485/68/308
f 271/433/309 15/56/309 16/62/309
f 264/434/310 9/63/310 10/65/310
f 84/435/311 70/436/311 481/437/311
f 265/425/312 10/65/312 11/69/312
f 270/438/313 284/439/313 269/429/313
f 278/440/314 262/441/314 263/442/314
f 286/443/315 270/438/315 271/433/315
f 264/434/316 278/440/316 263/442/316
f 272/444/317 286/443/317 271/433/317
f 280/445/318 264/434/318 265/425/318
f 288/446/319 272/444/319 273/447/319
f 266/448/320 280/445/320 265/425/320
f 289/449/321 273/447/321 274/426/321
f 267/450/322 281/451/322 266/448/322
f 313/415/323 372/410/323 327/452/323
f 346/453/324 130/11/324 361/402/324
f 283/454/325 267/450/325 268/455/325
f 276/456/326 260/457/326 261/428/326
f 284/439/327 268/455/327 269/429/327
f 262/441/328 276/456/328 261/428/328
f 304/458/329 288/446/329 289/449/329
f 282/459/330 296/460/330 281/451/330
f 298/461/331 282/459/331 283/454/331
f 291/462/332 275/463/332 276/456/332
f 299/464/333 283/454/333 284/439/333
f 292/465/334 276/456/334 277/466/334
f 285/467/335 299/464/335 284/439/335
f 293/468/336 277/466/336 278/440/336
f 301/469/337 285/467/337 286/443/337
f 279/470/338 293/468/338 278/440/338
f 287/471/339 301/469/339 286/443/339
f 295/472/340 279/470/340 280/445/340
f 303/473/341 287/471/341 288/446/341
f 281/451/342 295/472/342 280/445/342
f 308/474/343 292/465/343 293/468/343
f 347/397/344 131/6/344 332/475/344
f 315/476/345 302/477/345 303/473/345
f 296/460/346 309/478/346 295/472/346
f 304/458/347 315/476/347 303/473/347
f 57/479/348 56/480/348 481/437/348
f 349/481/349 350/482/349 487/182/349
f 291/462/350 305/483/350 290/484/350
f 312/485/351 298/461/351 299/464/351
f 292/465/352 306/486/352 291/462/352
f 300/487/353 312/485/353 299/464/353
f 360/488/354 368/489/354 489/39/354
f 388/490/355 147/117/355 486/119/355
f 318/491/356 305/483/356 306/486/356
f 326/492/357 311/493/357 312/485/357
f 307/494/358 318/491/358 306/486/358
f 313/495/359 326/492/359 312/485/359
f 320/496/360 307/494/360 308/474/360
f 330/497/361 314/498/361 315/476/361
f 310/499/362 322/500/362 309/478/362
f 331/501/363 315/476/363 316/502/363
f 343/503/364 327/504/364 328/505/364
f 321/506/365 335/507/365 320/496/365
f 329/508/366 343/503/366 328/505/366
f 337/509/367 321/506/367 322/500/367
f 330/497/368 344/510/368 329/508/368
f 323/511/369 337/509/369 322/500/369
f 346/512/370 330/497/370 331/501/370
f 324/513/371 338/514/371 323/511/371
f 316/399/372 130/11/372 331/515/372
f 340/516/373 324/513/373 325/517/373
f 333/518/374 317/519/374 318/491/374
f 341/520/375 325/517/375 326/492/375
f 334/521/376 318/491/376 319/522/376
f 327/504/377 341/520/377 326/492/377
f 335/507/378 319/522/378 320/496/378
f 355/523/379 339/524/379 340/516/379
f 348/525/380 332/526/380 333/518/380
f 356/527/381 340/516/381 341/520/381
f 334/521/382 348/525/382 333/518/382
f 342/528/383 356/527/383 341/520/383
f 350/529/384 334/521/384 335/507/384
f 358/530/385 342/528/385 343/503/385
f 336/531/386 350/529/386 335/507/386
f 344/510/387 358/530/387 343/503/387
f 352/532/388 336/531/388 337/509/388
f 360/533/389 344/510/389 345/534/389
f 338/514/390 352/532/390 337/509/390
f 361/535/391 345/534/391 346/512/391
f 339/524/392 353/536/392 338/514/392
f 351/537/393 364/538/393 350/529/393
f 108/539/394 107/424/394 479/130/394
f 352/532/395 254/540/395 351/537/395
f 325/541/396 324/542/396 488/55/396
f 353/536/397 365/543/397 352/532/397
f 369/544/398 360/533/398 361/535/398
f 317/545/399 131/6/399 305/394/399
f 258/546/400 131/547/400 362/548/400
f 363/549/401 347/550/401 348/525/401
f 366/551/402 355/523/402 356/527/402
f 463/552/403 363/553/403 487/182/403
f 257/554/404 356/527/404 357/555/404
f 411/556/405 425/557/405 490/60/405
f 367/558/406 357/555/406 358/530/406
f 295/406/407 371/392/407 294/391/407
f 331/515/408 130/11/408 346/453/408
f 332/475/409 131/6/409 317/545/409
f 12/200/410 132/14/410 266/404/410
f 320/427/411 371/392/411 321/559/411
f 301/560/412 372/410/412 300/414/412
f 321/559/413 371/392/413 322/420/413
f 302/411/414 372/410/414 301/560/414
f 18/203/415 130/11/415 274/412/415
f 260/408/416 131/6/416 7/204/416
f 289/413/417 130/11/417 304/398/417
f 268/401/418 132/14/418 13/205/418
f 327/452/419 372/410/419 328/561/419
f 328/561/420 372/410/420 329/421/420
f 290/395/421 131/6/421 275/407/421
f 354/562/422 370/418/422 353/422/422
f 355/419/423 370/418/423 354/562/423
f 369/563/424 130/564/424 259/565/424
f 409/566/425 408/567/425 477/568/425
f 420/569/426 405/570/426 131/215/426
f 362/571/427 462/572/427 131/215/427
f 419/573/428 431/574/428 130/220/428
f 382/575/429 383/576/429 251/223/429
f 476/577/424 369/578/424 130/220/424
f 381/579/430 382/575/430 251/223/430
f 424/580/431 410/581/431 477/568/431
f 390/582/432 375/583/432 131/215/432
f 429/584/433 417/585/433 478/586/433
f 389/587/434 404/588/434 130/220/434
f 415/589/435 428/590/435 478/586/435
f 408/567/436 423/591/436 477/568/436
f 256/417/437 470/592/437 370/418/437
f 437/593/438 424/580/438 477/568/438
f 444/594/439 429/584/439 478/586/439
f 468/595/440 255/423/440 370/418/440
f 82/596/441 83/597/441 481/437/441
f 142/247/442 380/598/442 381/599/442
f 147/251/443 389/600/443 148/252/443
f 423/591/444 435/601/444 477/568/444
f 137/255/445 376/602/445 138/256/445
f 143/258/446 384/603/446 144/259/446
f 464/604/447 463/552/447 487/182/447
f 145/261/448 384/603/448 385/605/448
f 238/260/449 239/197/449 479/130/449
f 145/261/450 386/606/450 146/264/450
f 139/266/451 379/607/451 140/267/451
f 185/432/452 186/66/452 485/68/452
f 140/267/453 380/598/453 141/249/453
f 385/605/454 399/608/454 400/609/454
f 377/610/455 393/611/455 378/612/455
f 385/605/456 401/613/456 386/606/456
f 379/607/457 393/611/457 394/614/457
f 387/615/458 401/613/458 402/616/458
f 379/607/459 395/617/459 380/598/459
f 387/615/460 403/618/460 388/619/460
f 381/599/461 395/617/461 396/620/461
f 388/619/462 404/621/462 389/600/462
f 382/622/463 396/620/463 397/623/463
f 428/590/464 442/624/464 478/586/464
f 461/625/465 476/577/465 130/220/465
f 382/622/466 398/626/466 383/627/466
f 375/628/467 391/629/467 376/602/467
f 383/627/468 399/608/468 384/603/468
f 377/610/469 391/629/469 392/630/469
f 403/618/470 419/631/470 404/621/470
f 397/623/471 411/632/471 412/633/471
f 397/623/472 413/634/472 398/626/472
f 390/635/473 406/636/473 391/629/473
f 398/626/474 414/637/474 399/608/474
f 391/629/475 407/638/475 392/630/475
f 400/609/476 414/637/476 415/639/476
f 392/630/477 408/640/477 393/611/477
f 400/609/478 416/641/478 401/613/478
f 394/614/479 408/640/479 409/642/479
f 402/616/480 416/641/480 417/643/480
f 394/614/481 410/644/481 395/617/481
f 402/616/482 418/645/482 403/618/482
f 396/620/483 410/644/483 411/632/483
f 407/638/484 423/646/484 408/640/484
f 462/572/485 447/647/485 131/215/485
f 417/643/486 430/648/486 418/645/486
f 411/632/487 424/649/487 425/650/487
f 419/631/488 430/648/488 431/651/488
f 21/652/489 22/310/489 480/312/489
f 412/369/490 411/556/490 490/60/490
f 405/653/491 421/654/491 406/636/491
f 413/634/492 427/655/492 414/637/492
f 407/638/493 421/654/493 422/656/493
f 415/639/494 427/655/494 428/657/494
f 109/658/495 108/539/495 479/130/495
f 69/659/496 82/596/496 481/437/496
f 421/654/497 432/660/497 433/661/497
f 426/662/498 441/663/498 427/655/498
f 422/656/499 433/661/499 434/664/499
f 428/657/500 441/663/500 442/665/500
f 422/656/501 435/666/501 423/646/501
f 429/667/502 445/668/502 430/648/502
f 425/650/503 437/669/503 438/670/503
f 430/648/504 446/671/504 431/651/504
f 442/665/505 458/672/505 443/673/505
f 436/674/506 450/675/506 451/676/506
f 444/677/507 458/672/507 459/678/507
f 436/674/508 452/679/508 437/669/508
f 444/677/509 460/680/509 445/668/509
f 438/670/510 452/679/510 453/681/510
f 446/671/511 460/680/511 461/682/511
f 439/683/512 453/681/512 454/684/512
f 431/574/513 446/685/513 130/220/513
f 439/683/514 455/686/514 440/687/514
f 432/660/515 448/688/515 433/661/515
f 440/687/516 456/689/516 441/663/516
f 433/661/517 449/690/517 434/664/517
f 442/665/518 456/689/518 457/691/518
f 434/664/519 450/675/519 435/666/519
f 454/684/520 470/692/520 455/686/520
f 447/693/521 463/694/521 448/688/521
f 455/686/522 471/695/522 456/689/522
f 449/690/523 463/694/523 464/696/523
f 457/691/524 471/695/524 472/697/524
f 449/690/525 465/698/525 450/675/525
f 457/691/526 473/699/526 458/672/526
f 451/676/527 465/698/527 466/700/527
f 459/678/528 473/699/528 474/701/528
f 451/676/529 467/702/529 452/679/529
f 459/678/530 475/703/530 460/680/530
f 453/681/531 467/702/531 468/704/531
f 460/680/532 476/705/532 461/682/532
f 454/684/533 468/704/533 469/706/533
f 466/700/534 364/538/534 254/540/534
f 20/707/535 21/652/535 480/312/535
f 467/702/536 254/540/536 365/543/536
f 359/708/537 360/488/537 489/39/537
f 468/704/538 365/543/538 255/709/538
f 475/703/539 369/544/539 476/705/539
f 432/710/540 420/569/540 131/215/540
f 373/711/541 362/712/541 131/713/541
f 462/714/542 363/549/542 463/694/542
f 470/692/543 366/551/543 471/695/543
f 214/715/544 213/716/544 485/68/544
f 471/695/545 257/554/545 472/697/545
f 117/717/546 126/125/546 482/127/546
f 472/697/547 367/558/547 473/699/547
f 410/581/548 409/566/548 477/568/548
f 446/685/549 461/625/549 130/220/549
f 447/647/550 432/710/550 131/215/550
f 142/380/551 381/579/551 251/223/551
f 435/601/552 436/718/552 477/568/552
f 416/719/553 415/589/553 478/586/553
f 436/718/554 437/593/554 477/568/554
f 417/585/555 416/719/555 478/586/555
f 148/383/556 389/587/556 130/220/556
f 375/583/557 137/384/557 131/215/557
f 404/588/558 419/573/558 130/220/558
f 383/576/559 143/385/559 251/223/559
f 442/624/560 443/720/560 478/586/560
f 443/720/561 444/594/561 478/586/561
f 405/570/562 390/582/562 131/215/562
f 469/721/563 468/595/563 370/418/563
f 470/592/564 469/721/564 370/418/564
f 369/722/288 374/723/288 130/724/288
f 138/195/565 376/725/565 484/116/565
f 119/726/566 118/727/566 482/127/566
f 213/716/567 212/430/567 485/68/567
f 152/728/568 151/114/568 484/116/568
f 161/729/569 160/730/569 486/119/569
f 376/725/570 377/731/570 484/116/570
f 200/732/571 214/715/571 485/68/571
f 387/376/572 388/490/572 486/119/572
f 377/731/573 378/733/573 484/116/573
f 348/734/574 349/481/574 487/182/574
f 358/735/575 359/708/575 489/39/575
f 363/553/576 348/734/576 487/182/576
f 350/482/577 364/180/577 487/182/577
f 17/379/578 273/736/578 483/246/578
f 378/733/579 139/737/579 484/116/579
f 367/38/580 358/735/580 489/39/580
f 297/313/581 298/738/581 488/55/581
f 261/739/582 8/740/582 480/312/582
f 465/181/583 464/604/583 487/182/583
f 70/436/584 57/479/584 481/437/584
f 146/741/585 386/375/585 486/119/585
f 31/319/586 32/378/586 483/246/586
f 139/737/587 152/728/587 484/116/587
f 272/742/588 271/743/588 483/246/588
f 262/744/589 261/739/589 480/312/589
f 475/745/590 474/262/590 489/39/590
f 324/542/591 323/320/591 488/55/591
f 160/730/592 146/741/592 486/119/592
f 263/746/593 262/744/593 480/312/593
f 127/747/594 119/726/594 482/127/594
f 311/748/595 325/541/595 488/55/595
f 187/67/596 200/732/596 485/68/596
f 56/480/597 55/749/597 481/437/597
f 439/185/598 440/58/598 490/60/598
f 248/268/599 249/750/599 482/127/599
f 83/597/600 84/435/600 481/437/600
f 368/489/601 475/745/601 489/39/601
f 298/738/602 311/748/602 488/55/602
f 425/557/603 438/184/603 490/60/603
f 162/118/604 161/729/604 486/119/604
f 55/749/605 69/659/605 481/437/605
f 9/311/606 263/746/606 480/312/606
f 118/727/607 117/717/607 482/127/607
f 273/736/608 272/742/608 483/246/608
f 271/743/609 16/244/609 483/246/609
f 123/198/610 109/658/610 479/130/610
f 249/750/611 127/747/611 482/127/611
f 8/740/612 20/707/612 480/312/612
f 12/40/19 11/69/19 24/41/19
f 17/43/20 32/81/20 33/44/20
f 7/47/22 19/90/22 20/48/22
f 13/50/23 27/89/23 28/51/23
f 15/56/25 14/52/25 28/51/25
f 15/56/27 29/57/27 30/61/27
f 9/63/28 22/74/28 23/64/28
f 10/65/30 23/64/30 24/41/30
f 29/57/31 28/51/31 43/70/31
f 21/72/32 36/92/32 37/73/32
f 29/57/33 44/71/33 45/75/33
f 23/64/34 22/74/34 37/73/34
f 31/77/35 30/61/35 45/75/35
f 23/64/36 38/76/36 39/79/36
f 31/77/37 46/78/37 47/80/37
f 25/42/38 24/41/38 39/79/38
f 32/81/39 47/80/39 48/83/39
f 26/84/40 25/42/40 40/82/40
f 26/84/43 41/85/43 42/88/43
f 19/90/44 34/97/44 35/91/44
f 27/89/45 42/88/45 43/70/45
f 21/72/46 20/48/46 35/91/46
f 47/80/47 62/107/47 63/93/47
f 41/85/48 40/82/48 55/94/48
f 41/85/49 56/95/49 57/96/49
f 34/97/50 49/120/50 50/98/50
f 42/88/51 57/96/51 58/99/51
f 35/91/52 50/98/52 51/100/52
f 44/71/53 43/70/53 58/99/53
f 36/92/54 51/100/54 52/102/54
f 44/71/55 59/101/55 60/103/55
f 38/76/56 37/73/56 52/102/56
f 46/78/57 45/75/57 60/103/57
f 38/76/58 53/104/58 54/106/58
f 46/78/59 61/105/59 62/107/59
f 40/82/60 39/79/60 54/106/60
f 51/100/61 66/123/61 67/108/61
f 61/105/63 73/138/63 74/110/63
f 55/94/64 54/106/64 68/111/64
f 63/93/65 62/107/65 74/110/65
f 49/120/68 64/751/68 65/121/68
f 57/96/69 70/133/69 71/122/69
f 51/100/70 50/98/70 65/121/70
f 59/101/71 58/99/71 71/122/71
f 65/121/74 64/751/74 76/131/74
f 70/133/75 84/158/75 85/134/75
f 66/123/76 65/121/76 77/132/76
f 72/124/77 71/122/77 85/134/77
f 66/123/78 78/135/78 79/137/78
f 73/138/79 88/148/79 89/139/79
f 69/112/80 68/111/80 81/140/80
f 74/110/81 89/139/81 90/142/81
f 86/136/82 101/162/82 102/143/82
f 80/145/83 79/137/83 94/146/83
f 88/148/84 87/144/84 102/143/84
f 80/145/85 95/147/85 96/150/85
f 88/148/86 103/149/86 104/151/86
f 82/141/87 81/140/87 96/150/87
f 90/142/88 89/139/88 104/151/88
f 83/154/89 82/141/89 97/152/89
f 83/154/91 98/155/91 99/157/91
f 76/131/92 91/164/92 92/159/92
f 84/158/93 99/157/93 100/160/93
f 77/132/94 92/159/94 93/161/94
f 86/136/95 85/134/95 100/160/95
f 78/135/96 93/161/96 94/146/96
f 98/155/97 113/177/97 114/163/97
f 91/164/98 106/192/98 107/165/98
f 99/157/99 114/163/99 115/166/99
f 93/161/100 92/159/100 107/165/100
f 101/162/101 100/160/101 115/166/101
f 93/161/102 108/167/102 109/169/102
f 101/162/103 116/168/103 117/170/103
f 95/147/104 94/146/104 109/169/104
f 103/149/105 102/143/105 117/170/105
f 95/147/106 110/171/106 111/173/106
f 103/149/107 118/172/107 119/174/107
f 97/152/108 96/150/108 111/173/108
f 104/151/109 119/174/109 120/176/109
f 98/155/110 97/152/110 112/175/110
f 110/171/111 109/169/111 123/178/111
f 111/173/113 110/171/113 1/179/113
f 112/175/115 111/173/115 124/183/115
f 119/174/116 127/752/116 128/187/116
f 106/192/119 121/753/119 122/193/119
f 114/163/120 3/754/120 125/194/120
f 115/166/122 125/194/122 4/196/122
f 116/168/124 4/196/124 126/199/124
f 142/247/160 155/279/160 154/248/160
f 163/250/161 162/278/161 147/251/161
f 150/254/163 149/288/163 137/255/163
f 158/257/164 157/286/164 143/258/164
f 145/261/166 159/269/166 158/257/166
f 160/263/168 159/269/168 145/261/168
f 153/265/169 152/273/169 139/266/169
f 154/248/171 153/265/171 140/267/171
f 159/269/172 174/298/172 173/270/172
f 167/271/173 166/297/173 151/272/173
f 175/274/174 174/298/174 159/269/174
f 153/265/175 168/301/175 167/271/175
f 161/275/176 176/302/176 175/274/176
f 169/276/177 168/301/177 153/265/177
f 177/277/178 176/302/178 161/275/178
f 155/279/179 170/282/179 169/276/179
f 178/280/180 177/277/180 162/278/180
f 156/281/181 171/290/181 170/282/181
f 172/285/184 171/290/184 156/281/184
f 165/287/185 164/294/185 149/288/185
f 173/270/186 172/285/186 157/286/186
f 151/272/187 166/297/187 165/287/187
f 193/289/188 192/304/188 177/277/188
f 171/290/189 186/755/189 185/291/189
f 187/292/190 186/755/190 171/290/190
f 180/293/191 179/315/191 164/294/191
f 188/295/192 187/292/192 172/285/192
f 181/296/193 180/293/193 165/287/193
f 174/298/194 189/318/194 188/295/194
f 182/299/195 181/296/195 166/297/195
f 190/300/196 189/318/196 174/298/196
f 168/301/197 183/756/197 182/299/197
f 176/302/198 191/308/198 190/300/198
f 184/303/199 183/756/199 168/301/199
f 192/304/200 191/308/200 176/302/200
f 170/282/201 185/291/201 184/303/201
f 197/305/202 196/324/202 181/296/202
f 204/307/204 203/328/204 191/308/204
f 185/291/205 199/329/205 198/309/205
f 193/289/206 205/332/206 204/307/206
f 180/293/209 195/317/209 194/314/209
f 201/316/210 200/323/210 187/292/210
f 181/296/211 196/324/211 195/317/211
f 189/318/212 202/325/212 201/316/212
f 207/321/215 206/349/215 194/314/215
f 215/322/216 214/347/216 200/323/216
f 196/324/217 208/352/217 207/321/217
f 202/325/218 216/334/218 215/322/218
f 209/326/219 208/352/219 196/324/219
f 219/327/220 218/338/220 203/328/220
f 199/329/221 212/341/221 211/330/221
f 220/331/222 219/327/222 204/307/222
f 232/333/223 231/358/223 216/334/223
f 210/336/224 225/361/224 224/337/224
f 218/338/225 233/340/225 232/333/225
f 226/339/226 225/361/226 210/336/226
f 219/327/227 234/364/227 233/340/227
f 212/341/228 227/344/228 226/339/228
f 235/342/229 234/364/229 219/327/229
f 213/343/230 228/354/230 227/344/230
f 229/346/232 228/354/232 213/343/232
f 222/348/233 221/356/233 206/349/233
f 230/350/234 229/346/234 214/347/234
f 223/351/235 222/348/235 207/321/235
f 216/334/236 231/358/236 230/350/236
f 224/337/237 223/351/237 208/352/237
f 244/353/238 243/757/238 228/354/238
f 237/355/239 236/374/239 221/356/239
f 245/357/240 244/353/240 229/346/240
f 223/351/241 238/758/241 237/355/241
f 231/358/242 246/377/242 245/357/242
f 239/359/243 238/758/243 223/351/243
f 247/360/244 246/377/244 231/358/244
f 225/361/245 240/367/245 239/359/245
f 233/340/246 248/759/246 247/360/246
f 241/362/247 240/367/247 225/361/247
f 249/363/248 248/759/248 233/340/248
f 227/344/249 242/366/249 241/362/249
f 250/365/250 249/363/250 234/364/250
f 228/354/251 243/757/251 242/366/251
f 240/367/252 1/179/252 123/178/252
f 241/362/254 124/183/254 1/179/254
f 242/366/256 2/186/256 124/183/256
f 128/187/257 127/752/257 249/363/257
f 122/193/260 121/753/260 236/374/260
f 125/194/261 3/754/261 244/353/261
f 4/196/263 125/194/263 245/357/263
f 126/199/265 4/196/265 246/377/265
f 12/40/301 266/448/301 265/425/301
f 274/426/302 273/447/302 17/43/302
f 261/428/304 260/457/304 7/47/304
f 269/429/305 268/455/305 13/50/305
f 15/56/307 270/438/307 269/429/307
f 271/433/309 270/438/309 15/56/309
f 264/434/310 263/442/310 9/63/310
f 265/425/312 264/434/312 10/65/312
f 270/438/313 285/467/313 284/439/313
f 278/440/314 277/466/314 262/441/314
f 286/443/315 285/467/315 270/438/315
f 264/434/316 279/470/316 278/440/316
f 272/444/317 287/471/317 286/443/317
f 280/445/318 279/470/318 264/434/318
f 288/446/319 287/471/319 272/444/319
f 266/448/320 281/451/320 280/445/320
f 289/449/321 288/446/321 273/447/321
f 267/450/322 282/459/322 281/451/322
f 283/454/325 282/459/325 267/450/325
f 276/456/326 275/463/326 260/457/326
f 284/439/327 283/454/327 268/455/327
f 262/441/328 277/466/328 276/456/328
f 304/458/329 303/473/329 288/446/329
f 282/459/330 297/760/330 296/460/330
f 298/461/331 297/760/331 282/459/331
f 291/462/332 290/484/332 275/463/332
f 299/464/333 298/461/333 283/454/333
f 292/465/334 291/462/334 276/456/334
f 285/467/335 300/487/335 299/464/335
f 293/468/336 292/465/336 277/466/336
f 301/469/337 300/487/337 285/467/337
f 279/470/338 294/761/338 293/468/338
f 287/471/339 302/477/339 301/469/339
f 295/472/340 294/761/340 279/470/340
f 303/473/341 302/477/341 287/471/341
f 281/451/342 296/460/342 295/472/342
f 308/474/343 307/494/343 292/465/343
f 315/476/345 314/498/345 302/477/345
f 296/460/346 310/499/346 309/478/346
f 304/458/347 316/502/347 315/476/347
f 291/462/350 306/486/350 305/483/350
f 312/485/351 311/493/351 298/461/351
f 292/465/352 307/494/352 306/486/352
f 300/487/353 313/495/353 312/485/353
f 318/491/356 317/519/356 305/483/356
f 326/492/357 325/517/357 311/493/357
f 307/494/358 319/522/358 318/491/358
f 313/495/359 327/504/359 326/492/359
f 320/496/360 319/522/360 307/494/360
f 330/497/361 329/508/361 314/498/361
f 310/499/362 323/511/362 322/500/362
f 331/501/363 330/497/363 315/476/363
f 343/503/364 342/528/364 327/504/364
f 321/506/365 336/531/365 335/507/365
f 329/508/366 344/510/366 343/503/366
f 337/509/367 336/531/367 321/506/367
f 330/497/368 345/534/368 344/510/368
f 323/511/369 338/514/369 337/509/369
f 346/512/370 345/534/370 330/497/370
f 324/513/371 339/524/371 338/514/371
f 340/516/373 339/524/373 324/513/373
f 333/518/374 332/526/374 317/519/374
f 341/520/375 340/516/375 325/517/375
f 334/521/376 333/518/376 318/491/376
f 327/504/377 342/528/377 341/520/377
f 335/507/378 334/521/378 319/522/378
f 355/523/379 354/762/379 339/524/379
f 348/525/380 347/550/380 332/526/380
f 356/527/381 355/523/381 340/516/381
f 334/521/382 349/763/382 348/525/382
f 342/528/383 357/555/383 356/527/383
f 350/529/384 349/763/384 334/521/384
f 358/530/385 357/555/385 342/528/385
f 336/531/386 351/537/386 350/529/386
f 344/510/387 359/764/387 358/530/387
f 352/532/388 351/537/388 336/531/388
f 360/533/389 359/764/389 344/510/389
f 338/514/390 353/536/390 352/532/390
f 361/535/391 360/533/391 345/534/391
f 339/524/392 354/762/392 353/536/392
f 351/537/393 254/540/393 364/538/393
f 352/532/395 365/543/395 254/540/395
f 353/536/397 255/709/397 365/543/397
f 369/544/398 368/765/398 360/533/398
f 363/549/401 362/766/401 347/550/401
f 366/551/402 256/767/402 355/523/402
f 257/554/404 366/551/404 356/527/404
f 367/558/406 257/554/406 357/555/406
f 142/247/442 141/249/442 380/598/442
f 147/251/443 388/619/443 389/600/443
f 137/255/445 375/628/445 376/602/445
f 143/258/446 383/627/446 384/603/446
f 145/261/448 144/259/448 384/603/448
f 145/261/450 385/605/450 386/606/450
f 139/266/451 378/612/451 379/607/451
f 140/267/453 379/607/453 380/598/453
f 385/605/454 384/603/454 399/608/454
f 377/610/455 392/630/455 393/611/455
f 385/605/456 400/609/456 401/613/456
f 379/607/457 378/612/457 393/611/457
f 387/615/458 386/606/458 401/613/458
f 379/607/459 394/614/459 395/617/459
f 387/615/460 402/616/460 403/618/460
f 381/599/461 380/598/461 395/617/461
f 388/619/462 403/618/462 404/621/462
f 382/622/463 381/599/463 396/620/463
f 382/622/466 397/623/466 398/626/466
f 375/628/467 390/635/467 391/629/467
f 383/627/468 398/626/468 399/608/468
f 377/610/469 376/602/469 391/629/469
f 403/618/470 418/645/470 419/631/470
f 397/623/471 396/620/471 411/632/471
f 397/623/472 412/633/472 413/634/472
f 390/635/473 405/653/473 406/636/473
f 398/626/474 413/634/474 414/637/474
f 391/629/475 406/636/475 407/638/475
f 400/609/476 399/608/476 414/637/476
f 392/630/477 407/638/477 408/640/477
f 400/609/478 415/639/478 416/641/478
f 394/614/479 393/611/479 408/640/479
f 402/616/480 401/613/480 416/641/480
f 394/614/481 409/642/481 410/644/481
f 402/616/482 417/643/482 418/645/482
f 396/620/483 395/617/483 410/644/483
f 407/638/484 422/656/484 423/646/484
f 417/643/486 429/667/486 430/648/486
f 411/632/487 410/644/487 424/649/487
f 419/631/488 418/645/488 430/648/488
f 405/653/491 420/768/491 421/654/491
f 413/634/492 426/662/492 427/655/492
f 407/638/493 406/636/493 421/654/493
f 415/639/494 414/637/494 427/655/494
f 421/654/497 420/768/497 432/660/497
f 426/662/498 440/687/498 441/663/498
f 422/656/499 421/654/499 433/661/499
f 428/657/500 427/655/500 441/663/500
f 422/656/501 434/664/501 435/666/501
f 429/667/502 444/677/502 445/668/502
f 425/650/503 424/649/503 437/669/503
f 430/648/504 445/668/504 446/671/504
f 442/665/505 457/691/505 458/672/505
f 436/674/506 435/666/506 450/675/506
f 444/677/507 443/673/507 458/672/507
f 436/674/508 451/676/508 452/679/508
f 444/677/509 459/678/509 460/680/509
f 438/670/510 437/669/510 452/679/510
f 446/671/511 445/668/511 460/680/511
f 439/683/512 438/670/512 453/681/512
f 439/683/514 454/684/514 455/686/514
f 432/660/515 447/693/515 448/688/515
f 440/687/516 455/686/516 456/689/516
f 433/661/517 448/688/517 449/690/517
f 442/665/518 441/663/518 456/689/518
f 434/664/519 449/690/519 450/675/519
f 454/684/520 469/706/520 470/692/520
f 447/693/521 462/714/521 463/694/521
f 455/686/522 470/692/522 471/695/522
f 449/690/523 448/688/523 463/694/523
f 457/691/524 456/689/524 471/695/524
f 449/690/525 464/696/525 465/698/525
f 457/691/526 472/697/526 473/699/526
f 451/676/527 450/675/527 465/698/527
f 459/678/528 458/672/528 473/699/528
f 451/676/529 466/700/529 467/702/529
f 459/678/530 474/701/530 475/703/530
f 453/681/531 452/679/531 467/702/531
f 460/680/532 475/703/532 476/705/532
f 454/684/533 453/681/533 468/704/533
f 466/700/534 465/698/534 364/538/534
f 467/702/536 466/700/536 254/540/536
f 468/704/538 467/702/538 365/543/538
f 475/703/539 368/765/539 369/544/539
f 462/714/542 362/766/542 363/549/542
f 470/692/543 256/767/543 366/551/543
f 471/695/545 366/551/545 257/554/545
f 472/697/547 257/554/547 367/558/547
