# Blender 4.4.3
# www.blender.org
mtllib enemy.mtl
o 球
v 0.000000 0.415735 -0.277785
v 0.000000 0.277785 -0.415735
v 0.000000 0.097545 -0.490393
v 0.000000 0.000000 -0.500000
v 0.000000 -0.097545 -0.490393
v 0.000000 -0.277785 -0.415735
v 0.019030 0.490393 -0.095671
v 0.037329 0.461940 -0.187665
v 0.054193 0.415735 -0.272448
v 0.068975 0.353553 -0.346760
v 0.081106 0.277785 -0.407747
v 0.090120 0.191342 -0.453064
v 0.095671 0.097545 -0.480970
v 0.097545 0.000000 -0.490393
v 0.095671 -0.097545 -0.480970
v 0.090120 -0.191342 -0.453064
v 0.081106 -0.277785 -0.407747
v 0.068975 -0.353553 -0.346760
v 0.054193 -0.415735 -0.272448
v 0.037329 -0.461940 -0.187665
v 0.019030 -0.490393 -0.095671
v 0.037329 0.490393 -0.090120
v 0.073223 0.461940 -0.176777
v 0.106304 0.415735 -0.256640
v 0.135299 0.353553 -0.326641
v 0.159095 0.277785 -0.384089
v 0.176777 0.191342 -0.426777
v 0.187665 0.097545 -0.453064
v 0.191342 0.000000 -0.461940
v 0.187665 -0.097545 -0.453064
v 0.176777 -0.191342 -0.426777
v 0.159095 -0.277785 -0.384089
v 0.506066 0.506066 0.000000
v 0.135299 -0.353553 -0.326641
v 0.106304 -0.415735 -0.256640
v 0.073223 -0.461940 -0.176777
v 0.037329 -0.490393 -0.090120
v 0.054193 0.490393 -0.081106
v 0.106304 0.461940 -0.159095
v 0.154329 0.415735 -0.230970
v 0.196424 0.353553 -0.293969
v 0.230970 0.277785 -0.345671
v 0.256640 0.191342 -0.384089
v 0.272448 0.097545 -0.407747
v 0.277785 0.000000 -0.415735
v 0.272448 -0.097545 -0.407747
v 0.256640 -0.191342 -0.384089
v 0.230970 -0.277785 -0.345671
v 0.196424 -0.353553 -0.293969
v 0.154329 -0.415735 -0.230970
v 0.106304 -0.461940 -0.159095
v 0.054193 -0.490393 -0.081106
v 0.068975 0.490393 -0.068975
v 0.135299 0.461940 -0.135299
v 0.196424 0.415735 -0.196424
v 0.250000 0.353553 -0.250000
v 0.293969 0.277785 -0.293969
v 0.326641 0.191342 -0.326641
v 0.346760 0.097545 -0.346760
v 0.353554 0.000000 -0.353553
v 0.346760 -0.097545 -0.346760
v 0.326641 -0.191342 -0.326641
v 0.293969 -0.277785 -0.293969
v 0.250000 -0.353553 -0.250000
v 0.196424 -0.415735 -0.196424
v 0.135299 -0.461940 -0.135299
v 0.068975 -0.490393 -0.068975
v -0.506066 0.506066 0.000000
v 0.081106 0.490393 -0.054193
v 0.159095 0.461940 -0.106304
v 0.230970 0.415735 -0.154329
v 0.293969 0.353553 -0.196424
v 0.345671 0.277785 -0.230970
v 0.384089 0.191342 -0.256640
v 0.407747 0.097545 -0.272448
v 0.415735 0.000000 -0.277785
v 0.407747 -0.097545 -0.272448
v 0.384089 -0.191342 -0.256640
v 0.345671 -0.277785 -0.230970
v 0.293969 -0.353553 -0.196424
v 0.230970 -0.415735 -0.154329
v 0.159095 -0.461940 -0.106304
v 0.081106 -0.490393 -0.054193
v 0.000000 0.500000 0.000000
v 0.090120 0.490393 -0.037329
v 0.176777 0.461940 -0.073223
v 0.256640 0.415735 -0.106304
v 0.326641 0.353553 -0.135299
v 0.384089 0.277785 -0.159095
v 0.426777 0.191342 -0.176777
v 0.453064 0.097545 -0.187665
v 0.461940 0.000000 -0.191342
v 0.453064 -0.097545 -0.187665
v 0.426777 -0.191342 -0.176777
v 0.384089 -0.277785 -0.159095
v 0.326641 -0.353553 -0.135299
v 0.256640 -0.415735 -0.106304
v 0.176777 -0.461940 -0.073223
v 0.090120 -0.490393 -0.037329
v 0.095671 0.490393 -0.019030
v 0.187665 0.461940 -0.037329
v 0.272448 0.415735 -0.054193
v 0.407747 0.277785 -0.081106
v 0.453064 0.191342 -0.090120
v 0.480970 0.097545 -0.095671
v 0.490393 0.000000 -0.097545
v 0.480970 -0.097545 -0.095671
v 0.453064 -0.191342 -0.090120
v 0.407747 -0.277785 -0.081106
v 0.346760 -0.353553 -0.068975
v 0.272448 -0.415735 -0.054193
v 0.187665 -0.461940 -0.037329
v 0.095671 -0.490393 -0.019030
v 0.097545 0.490393 0.000000
v 0.191342 0.461940 0.000000
v 0.461940 0.191342 -0.000000
v 0.490393 0.097545 0.000000
v 0.500000 0.000000 0.000000
v 0.490393 -0.097545 0.000000
v 0.461940 -0.191342 -0.000000
v 0.415735 -0.277785 0.000000
v 0.353554 -0.353553 -0.000000
v 0.277785 -0.415735 0.000000
v 0.191342 -0.461940 0.000000
v 0.097545 -0.490393 0.000000
v 0.095671 0.490393 0.019030
v 0.187665 0.461940 0.037329
v 0.272448 0.415735 0.054193
v 0.407747 0.277785 0.081106
v 0.453064 0.191342 0.090120
v 0.480970 0.097545 0.095671
v 0.490393 0.000000 0.097545
v 0.480970 -0.097545 0.095671
v 0.453064 -0.191342 0.090120
v 0.407747 -0.277785 0.081106
v 0.346760 -0.353553 0.068975
v 0.272448 -0.415735 0.054193
v 0.187665 -0.461940 0.037329
v 0.095671 -0.490393 0.019030
v 0.090120 0.490393 0.037329
v 0.176777 0.461940 0.073223
v 0.256640 0.415735 0.106304
v 0.326641 0.353553 0.135299
v 0.384089 0.277785 0.159095
v 0.426777 0.191342 0.176777
v 0.453064 0.097545 0.187665
v 0.461940 0.000000 0.191342
v 0.453064 -0.097545 0.187665
v 0.426777 -0.191342 0.176777
v 0.384089 -0.277785 0.159095
v 0.326641 -0.353553 0.135299
v 0.256640 -0.415735 0.106304
v 0.176777 -0.461940 0.073223
v 0.090120 -0.490393 0.037329
v 0.081106 0.490393 0.054193
v 0.159095 0.461940 0.106304
v 0.230970 0.415735 0.154329
v 0.293969 0.353553 0.196424
v 0.345671 0.277785 0.230970
v 0.384089 0.191342 0.256640
v 0.407747 0.097545 0.272448
v 0.415735 0.000000 0.277785
v 0.407747 -0.097545 0.272448
v 0.384089 -0.191342 0.256640
v 0.345671 -0.277785 0.230970
v 0.293969 -0.353553 0.196424
v 0.230970 -0.415735 0.154329
v 0.159095 -0.461940 0.106304
v 0.081106 -0.490393 0.054193
v 0.068975 0.490393 0.068975
v 0.135299 0.461940 0.135299
v 0.196424 0.415735 0.196424
v 0.250000 0.353553 0.250000
v 0.293969 0.277785 0.293969
v 0.326641 0.191342 0.326641
v 0.346760 0.097545 0.346760
v 0.353553 0.000000 0.353553
v 0.346760 -0.097545 0.346760
v 0.326641 -0.191342 0.326641
v 0.293969 -0.277785 0.293969
v 0.250000 -0.353553 0.250000
v 0.196424 -0.415735 0.196424
v 0.135299 -0.461940 0.135299
v 0.068975 -0.490393 0.068975
v 0.054193 0.490393 0.081106
v 0.106304 0.461940 0.159095
v 0.154329 0.415735 0.230970
v 0.196424 0.353553 0.293969
v 0.230970 0.277785 0.345671
v 0.256640 0.191342 0.384089
v 0.272448 0.097545 0.407747
v 0.277785 0.000000 0.415735
v 0.272448 -0.097545 0.407747
v 0.256640 -0.191342 0.384089
v 0.230970 -0.277785 0.345671
v 0.196424 -0.353553 0.293969
v 0.154329 -0.415735 0.230970
v 0.106304 -0.461940 0.159095
v 0.054193 -0.490393 0.081106
v 0.037329 0.490393 0.090120
v 0.073223 0.461940 0.176777
v 0.106304 0.415735 0.256640
v 0.135299 0.353553 0.326641
v 0.159095 0.277785 0.384089
v 0.176777 0.191342 0.426777
v 0.187665 0.097545 0.453064
v 0.191342 0.000000 0.461940
v 0.187665 -0.097545 0.453064
v 0.176777 -0.191342 0.426777
v 0.159095 -0.277785 0.384089
v 0.135299 -0.353553 0.326641
v 0.106304 -0.415735 0.256640
v 0.073223 -0.461940 0.176777
v 0.037329 -0.490393 0.090120
v 0.019030 0.490393 0.095671
v 0.037329 0.461940 0.187665
v 0.054193 0.415735 0.272448
v 0.068975 0.353553 0.346760
v 0.081106 0.277785 0.407747
v 0.090120 0.191342 0.453064
v 0.095671 0.097545 0.480970
v 0.097545 0.000000 0.490393
v 0.095671 -0.097545 0.480970
v 0.090120 -0.191342 0.453064
v 0.081106 -0.277785 0.407747
v 0.068975 -0.353553 0.346760
v 0.054193 -0.415735 0.272448
v 0.037329 -0.461940 0.187665
v 0.019030 -0.490393 0.095671
v -0.000000 0.490393 0.097545
v -0.000000 0.461940 0.191342
v -0.000000 0.415735 0.277785
v -0.000000 0.353553 0.353553
v -0.000000 0.277785 0.415735
v 0.000000 0.191342 0.461940
v -0.000000 0.097545 0.490393
v -0.000000 0.000000 0.500000
v -0.000000 -0.097545 0.490393
v 0.000000 -0.191342 0.461940
v -0.000000 -0.277785 0.415735
v -0.000000 -0.353553 0.353553
v -0.000000 -0.415735 0.277785
v -0.000000 -0.461940 0.191342
v -0.000000 -0.490393 0.097545
v -0.019030 0.490393 0.095671
v -0.037329 0.461940 0.187665
v -0.054193 0.415735 0.272447
v -0.068975 0.353553 0.346760
v -0.081106 0.277785 0.407747
v -0.090120 0.191342 0.453064
v -0.095671 0.097545 0.480970
v -0.097545 0.000000 0.490392
v -0.095671 -0.097545 0.480970
v -0.090120 -0.191342 0.453064
v -0.081106 -0.277785 0.407747
v -0.068975 -0.353553 0.346760
v -0.054193 -0.415735 0.272447
v -0.037329 -0.461940 0.187665
v -0.019030 -0.490393 0.095671
v -0.037329 0.490393 0.090120
v -0.073223 0.461940 0.176777
v -0.106304 0.415735 0.256640
v -0.135299 0.353553 0.326641
v -0.159095 0.277785 0.384089
v -0.176777 0.191342 0.426777
v -0.187665 0.097545 0.453064
v -0.191342 0.000000 0.461940
v -0.187665 -0.097545 0.453064
v -0.176777 -0.191342 0.426777
v -0.159095 -0.277785 0.384089
v -0.135299 -0.353553 0.326641
v -0.106304 -0.415735 0.256640
v -0.073223 -0.461940 0.176777
v -0.037329 -0.490393 0.090120
v -0.054193 0.490393 0.081106
v -0.106304 0.461940 0.159095
v -0.154329 0.415735 0.230970
v -0.196424 0.353553 0.293969
v -0.230970 0.277785 0.345671
v -0.256640 0.191342 0.384089
v -0.272448 0.097545 0.407747
v -0.277785 0.000000 0.415735
v -0.272448 -0.097545 0.407747
v -0.256640 -0.191342 0.384089
v -0.230970 -0.277785 0.345671
v -0.196424 -0.353553 0.293969
v -0.154329 -0.415735 0.230970
v -0.106304 -0.461940 0.159095
v -0.054193 -0.490393 0.081106
v -0.068975 0.490393 0.068975
v -0.135299 0.461940 0.135299
v -0.196424 0.415735 0.196424
v -0.250000 0.353553 0.250000
v -0.293969 0.277785 0.293969
v -0.326641 0.191342 0.326641
v -0.346760 0.097545 0.346760
v -0.353553 0.000000 0.353553
v -0.346760 -0.097545 0.346760
v -0.326641 -0.191342 0.326641
v -0.293969 -0.277785 0.293969
v -0.250000 -0.353553 0.250000
v -0.196424 -0.415735 0.196424
v -0.135299 -0.461940 0.135299
v -0.068975 -0.490393 0.068975
v 0.000000 -0.500000 0.000000
v -0.081106 0.490393 0.054193
v -0.159095 0.461940 0.106304
v -0.230970 0.415735 0.154329
v -0.293969 0.353553 0.196424
v -0.345671 0.277785 0.230970
v -0.384089 0.191342 0.256640
v -0.407747 0.097545 0.272447
v -0.415735 0.000000 0.277785
v -0.407747 -0.097545 0.272447
v -0.384089 -0.191342 0.256640
v -0.345671 -0.277785 0.230970
v -0.293969 -0.353553 0.196424
v -0.230970 -0.415735 0.154329
v -0.159095 -0.461940 0.106304
v -0.081106 -0.490393 0.054193
v -0.090120 0.490393 0.037329
v -0.176777 0.461940 0.073223
v -0.256640 0.415735 0.106304
v -0.326641 0.353553 0.135299
v -0.384089 0.277785 0.159095
v -0.426777 0.191342 0.176777
v -0.453064 0.097545 0.187665
v -0.461940 0.000000 0.191341
v -0.453064 -0.097545 0.187665
v -0.426777 -0.191342 0.176777
v -0.384089 -0.277785 0.159095
v -0.326641 -0.353553 0.135299
v -0.256640 -0.415735 0.106304
v -0.176777 -0.461940 0.073223
v -0.090120 -0.490393 0.037329
v -0.095671 0.490393 0.019030
v -0.187665 0.461940 0.037329
v -0.272447 0.415735 0.054193
v -0.407747 0.277785 0.081106
v -0.453064 0.191342 0.090120
v -0.480970 0.097545 0.095671
v -0.490393 0.000000 0.097545
v -0.480970 -0.097545 0.095671
v -0.453064 -0.191342 0.090120
v -0.407747 -0.277785 0.081106
v -0.346760 -0.353553 0.068975
v -0.272447 -0.415735 0.054193
v -0.187665 -0.461940 0.037329
v -0.095671 -0.490393 0.019030
v -0.097545 0.490393 -0.000000
v -0.191342 0.461940 -0.000000
v -0.461940 0.191342 -0.000000
v -0.490393 0.097545 -0.000000
v -0.500000 0.000000 -0.000000
v -0.490393 -0.097545 -0.000000
v -0.461940 -0.191342 -0.000000
v -0.415735 -0.277785 -0.000000
v -0.353554 -0.353553 -0.000000
v -0.277785 -0.415735 -0.000000
v -0.191342 -0.461940 -0.000000
v -0.097545 -0.490393 -0.000000
v -0.095671 0.490393 -0.019030
v -0.187665 0.461940 -0.037329
v -0.272447 0.415735 -0.054193
v -0.407747 0.277785 -0.081106
v -0.453064 0.191342 -0.090120
v -0.480970 0.097545 -0.095671
v -0.490392 0.000000 -0.097545
v -0.480970 -0.097545 -0.095671
v -0.453064 -0.191342 -0.090120
v -0.407747 -0.277785 -0.081106
v -0.346760 -0.353553 -0.068975
v -0.272447 -0.415735 -0.054193
v -0.187665 -0.461940 -0.037329
v -0.095671 -0.490393 -0.019030
v -0.090120 0.490393 -0.037329
v -0.176777 0.461940 -0.073223
v -0.256640 0.415735 -0.106304
v -0.326641 0.353553 -0.135299
v -0.384089 0.277785 -0.159095
v -0.426777 0.191342 -0.176777
v -0.453064 0.097545 -0.187665
v -0.461939 0.000000 -0.191342
v -0.453064 -0.097545 -0.187665
v -0.426777 -0.191342 -0.176777
v -0.384089 -0.277785 -0.159095
v -0.326641 -0.353553 -0.135299
v -0.256640 -0.415735 -0.106304
v -0.176777 -0.461940 -0.073223
v -0.090120 -0.490393 -0.037329
v -0.081106 0.490393 -0.054193
v -0.159095 0.461940 -0.106304
v -0.230970 0.415735 -0.154329
v -0.293969 0.353553 -0.196424
v -0.345671 0.277785 -0.230970
v -0.384089 0.191342 -0.256640
v -0.407747 0.097545 -0.272448
v -0.415734 0.000000 -0.277785
v -0.407747 -0.097545 -0.272448
v -0.384089 -0.191342 -0.256640
v -0.345671 -0.277785 -0.230970
v -0.293969 -0.353553 -0.196424
v -0.230970 -0.415735 -0.154329
v -0.159095 -0.461940 -0.106304
v -0.081106 -0.490393 -0.054193
v -0.068975 0.490393 -0.068975
v -0.135299 0.461940 -0.135299
v -0.196424 0.415735 -0.196424
v -0.250000 0.353553 -0.250000
v -0.293969 0.277785 -0.293969
v -0.326641 0.191342 -0.326641
v -0.346760 0.097545 -0.346760
v -0.353553 0.000000 -0.353553
v -0.346760 -0.097545 -0.346760
v -0.326641 -0.191342 -0.326641
v -0.293969 -0.277785 -0.293969
v -0.250000 -0.353553 -0.250000
v -0.196424 -0.415735 -0.196424
v -0.135299 -0.461940 -0.135299
v -0.068975 -0.490393 -0.068975
v -0.054193 0.490393 -0.081106
v -0.106304 0.461940 -0.159095
v -0.154329 0.415735 -0.230970
v -0.196424 0.353553 -0.293969
v -0.230970 0.277785 -0.345671
v -0.256640 0.191342 -0.384089
v -0.272447 0.097545 -0.407747
v -0.277785 0.000000 -0.415735
v -0.272447 -0.097545 -0.407747
v -0.256640 -0.191342 -0.384089
v -0.230970 -0.277785 -0.345671
v -0.196424 -0.353553 -0.293969
v -0.154329 -0.415735 -0.230970
v -0.106304 -0.461940 -0.159095
v -0.054193 -0.490393 -0.081106
v -0.037329 0.490393 -0.090120
v -0.073223 0.461940 -0.176777
v -0.106304 0.415735 -0.256640
v -0.135299 0.353553 -0.326641
v -0.159095 0.277785 -0.384089
v -0.176777 0.191342 -0.426777
v -0.187665 0.097545 -0.453064
v -0.191341 0.000000 -0.461939
v -0.187665 -0.097545 -0.453064
v -0.176777 -0.191342 -0.426777
v -0.159095 -0.277785 -0.384089
v -0.135299 -0.353553 -0.326641
v -0.106304 -0.415735 -0.256640
v -0.073223 -0.461940 -0.176777
v -0.037329 -0.490393 -0.090120
v -0.019030 0.490393 -0.095671
v -0.037329 0.461940 -0.187665
v -0.054193 0.415735 -0.272447
v -0.068975 0.353553 -0.346760
v -0.081106 0.277785 -0.407746
v -0.090120 0.191342 -0.453064
v -0.095671 0.097545 -0.480970
v -0.097545 0.000000 -0.490392
v -0.095671 -0.097545 -0.480970
v -0.090120 -0.191342 -0.453064
v -0.081106 -0.277785 -0.407746
v -0.068975 -0.353553 -0.346760
v -0.054193 -0.415735 -0.272447
v -0.037329 -0.461940 -0.187665
v -0.019030 -0.490393 -0.095671
v 0.000000 0.490393 -0.097545
v 0.000000 0.461940 -0.191342
v 0.000000 0.353553 -0.353553
v 0.000000 0.191342 -0.461940
v 0.000000 -0.191342 -0.461940
v 0.000000 -0.353553 -0.353553
v 0.000000 -0.415735 -0.277785
v 0.000000 -0.461940 -0.191342
v 0.000000 -0.490393 -0.097545
v 0.275562 0.410939 -0.063962
v 0.295718 0.387175 -0.096786
v 0.283954 0.399987 -0.082048
v 0.273373 0.414960 -0.054377
v 0.333218 0.353553 -0.113616
v 0.326824 0.358685 -0.113260
v 0.310266 0.373161 -0.107368
v 0.357274 0.325109 -0.114344
v 0.342215 0.342215 -0.115860
v 0.400853 0.285766 -0.081378
v 0.401766 0.285216 -0.079916
v 0.372613 0.309459 -0.107811
v 0.387401 0.296116 -0.096603
v 0.261380 0.424504 0.000000
v 0.261380 0.424504 0.000000
v 0.262424 0.422758 -0.022551
v 0.272630 0.415735 -0.052346
v 0.268222 0.418529 -0.044024
v 0.409113 0.277785 -0.067229
v 0.422351 0.261233 -0.022662
v 0.417689 0.265940 -0.044446
v 0.410797 0.275220 -0.064057
v 0.424504 0.261380 0.000000
v 0.424504 0.261380 0.000000
v 0.417689 0.265940 0.044446
v 0.410797 0.275220 0.064057
v 0.409113 0.277785 0.067229
v 0.422351 0.261233 0.022662
v 0.262424 0.422758 0.022551
v 0.268222 0.418529 0.044024
v 0.272630 0.415735 0.052346
v 0.273373 0.414960 0.054377
v 0.401766 0.285216 0.079916
v 0.283954 0.399987 0.082048
v 0.275562 0.410939 0.063962
v 0.310266 0.373161 0.107368
v 0.295718 0.387175 0.096786
v 0.326824 0.358685 0.113260
v 0.333218 0.353553 0.113616
v 0.357274 0.325109 0.114344
v 0.342215 0.342215 0.115860
v 0.400852 0.285766 0.081378
v 0.387401 0.296116 0.096603
v 0.372613 0.309459 0.107811
v -0.295718 0.387175 0.096786
v -0.283954 0.399987 0.082048
v -0.275562 0.410938 0.063962
v -0.326824 0.358685 0.113260
v -0.333218 0.353553 0.113616
v -0.273373 0.414960 0.054377
v -0.310266 0.373161 0.107368
v -0.357274 0.325109 0.114344
v -0.342215 0.342215 0.115860
v -0.387401 0.296116 0.096603
v -0.372613 0.309459 0.107811
v -0.400852 0.285766 0.081378
v -0.401766 0.285216 0.079916
v -0.268222 0.418529 0.044024
v -0.272629 0.415735 0.052346
v -0.261379 0.424504 0.000000
v -0.262424 0.422758 0.022551
v -0.261379 0.424504 -0.000000
v -0.409113 0.277785 0.067229
v -0.410797 0.275220 0.064057
v -0.422350 0.261232 0.022662
v -0.417689 0.265940 0.044446
v -0.424504 0.261379 0.000000
v -0.424504 0.261379 -0.000000
v -0.272629 0.415735 -0.052346
v -0.273373 0.414960 -0.054377
v -0.401766 0.285216 -0.079916
v -0.409113 0.277785 -0.067229
v -0.422350 0.261232 -0.022662
v -0.410797 0.275220 -0.064057
v -0.417689 0.265940 -0.044446
v -0.262424 0.422758 -0.022551
v -0.268222 0.418529 -0.044024
v -0.283954 0.399987 -0.082048
v -0.275562 0.410938 -0.063962
v -0.333218 0.353553 -0.113616
v -0.326824 0.358685 -0.113260
v -0.295718 0.387175 -0.096786
v -0.310266 0.373161 -0.107368
v -0.400852 0.285766 -0.081378
v -0.342215 0.342215 -0.115860
v -0.357274 0.325109 -0.114344
v -0.387401 0.296116 -0.096603
v -0.372613 0.309459 -0.107811
vn 0.0097 -0.9951 -0.0980
vn 0.0975 -0.0975 -0.9904
vn 0.0286 0.9565 -0.2902
vn 0.0938 -0.2890 -0.9527
vn 0.0464 0.8810 -0.4709
vn 0.0865 -0.4696 -0.8786
vn 0.0624 0.7715 -0.6332
vn 0.0759 -0.6326 -0.7708
vn 0.0759 0.6326 -0.7708
vn 0.0624 -0.7715 -0.6332
vn 0.0865 0.4696 -0.8786
vn 0.0464 -0.8810 -0.4709
vn 0.0938 0.2890 -0.9527
vn 0.0286 -0.9565 -0.2902
vn 0.0975 0.0976 -0.9904
vn 0.0097 0.9951 -0.0980
vn 0.0846 -0.9565 -0.2790
vn 0.2889 0.0976 -0.9524
vn 0.0286 0.9951 -0.0942
vn 0.0286 -0.9951 -0.0942
vn 0.2889 -0.0976 -0.9524
vn 0.0846 0.9565 -0.2790
vn 0.2779 -0.2890 -0.9161
vn 0.1374 0.8810 -0.4528
vn 0.2563 -0.4696 -0.8448
vn 0.1847 0.7715 -0.6088
vn 0.2248 -0.6326 -0.7412
vn 0.2248 0.6326 -0.7412
vn 0.1847 -0.7715 -0.6088
vn 0.2563 0.4696 -0.8448
vn 0.1374 -0.8810 -0.4528
vn 0.2779 0.2890 -0.9161
vn 0.2999 0.7715 -0.5611
vn 0.3651 -0.6326 -0.6831
vn 0.3651 0.6326 -0.6831
vn 0.2999 -0.7715 -0.5611
vn 0.4162 0.4696 -0.7786
vn 0.2231 -0.8810 -0.4173
vn 0.4513 0.2890 -0.8443
vn 0.1374 -0.9565 -0.2571
vn 0.4691 0.0976 -0.8777
vn 0.0464 0.9951 -0.0869
vn 0.0464 -0.9951 -0.0869
vn 0.4691 -0.0975 -0.8777
vn 0.1374 0.9565 -0.2571
vn 0.4513 -0.2890 -0.8443
vn 0.2231 0.8810 -0.4173
vn 0.4162 -0.4696 -0.7786
vn 0.6314 0.0975 -0.7693
vn 0.0625 0.9951 -0.0761
vn 0.0625 -0.9951 -0.0761
vn 0.6314 -0.0975 -0.7693
vn 0.1850 0.9565 -0.2254
vn 0.6073 -0.2890 -0.7400
vn 0.3002 0.8810 -0.3658
vn 0.5601 -0.4696 -0.6825
vn 0.4036 0.7715 -0.4918
vn 0.4913 -0.6326 -0.5987
vn 0.4913 0.6326 -0.5987
vn 0.4036 -0.7715 -0.4918
vn 0.5601 0.4696 -0.6825
vn 0.3002 -0.8810 -0.3658
vn 0.6073 0.2890 -0.7400
vn 0.1850 -0.9565 -0.2254
vn 0.5987 -0.6326 -0.4913
vn 0.5987 0.6326 -0.4913
vn 0.4918 -0.7715 -0.4036
vn 0.6825 0.4696 -0.5601
vn 0.3658 -0.8810 -0.3002
vn 0.7400 0.2890 -0.6073
vn 0.2254 -0.9565 -0.1850
vn 0.7693 0.0975 -0.6314
vn 0.0761 0.9951 -0.0625
vn 0.0761 -0.9951 -0.0625
vn 0.7693 -0.0975 -0.6314
vn 0.2254 0.9565 -0.1850
vn 0.7400 -0.2890 -0.6073
vn 0.3658 0.8810 -0.3002
vn 0.6825 -0.4696 -0.5601
vn 0.4918 0.7715 -0.4036
vn 0.0869 -0.9951 -0.0464
vn 0.8777 -0.0975 -0.4691
vn 0.2571 0.9565 -0.1374
vn 0.8443 -0.2890 -0.4513
vn 0.4173 0.8810 -0.2230
vn 0.7786 -0.4696 -0.4162
vn 0.5611 0.7715 -0.2999
vn 0.6831 -0.6326 -0.3651
vn 0.6831 0.6326 -0.3651
vn 0.5611 -0.7715 -0.2999
vn 0.7786 0.4696 -0.4162
vn 0.4173 -0.8810 -0.2230
vn 0.8443 0.2890 -0.4513
vn 0.2571 -0.9565 -0.1374
vn 0.8777 0.0975 -0.4691
vn 0.0869 0.9951 -0.0464
vn 0.6088 -0.7715 -0.1847
vn 0.8448 0.4696 -0.2563
vn 0.4528 -0.8810 -0.1374
vn 0.9161 0.2890 -0.2779
vn 0.2790 -0.9565 -0.0846
vn 0.9524 0.0975 -0.2889
vn 0.0942 0.9951 -0.0286
vn 0.0942 -0.9951 -0.0286
vn 0.9524 -0.0975 -0.2889
vn 0.2790 0.9565 -0.0846
vn 0.9161 -0.2890 -0.2779
vn 0.4528 0.8810 -0.1374
vn 0.8448 -0.4696 -0.2563
vn 0.6088 0.7715 -0.1847
vn 0.7412 -0.6326 -0.2248
vn 0.7412 0.6326 -0.2248
vn 0.2902 0.9565 -0.0286
vn 0.9527 -0.2890 -0.0938
vn 0.4709 0.8810 -0.0464
vn 0.8786 -0.4696 -0.0865
vn 0.6332 0.7715 -0.0623
vn 0.7708 -0.6326 -0.0759
vn 0.7708 0.6326 -0.0759
vn 0.6332 -0.7715 -0.0624
vn 0.8786 0.4696 -0.0865
vn 0.4709 -0.8810 -0.0464
vn 0.9527 0.2890 -0.0938
vn 0.2902 -0.9565 -0.0286
vn 0.9904 0.0975 -0.0975
vn 0.0980 0.9951 -0.0097
vn 0.0980 -0.9951 -0.0097
vn 0.9904 -0.0975 -0.0976
vn 0.8786 0.4696 0.0865
vn 0.4709 -0.8810 0.0464
vn 0.9527 0.2890 0.0938
vn 0.2902 -0.9565 0.0286
vn 0.9904 0.0975 0.0975
vn 0.0980 0.9951 0.0097
vn 0.0980 -0.9951 0.0097
vn 0.9904 -0.0975 0.0976
vn 0.2902 0.9565 0.0286
vn 0.9527 -0.2890 0.0938
vn 0.4709 0.8810 0.0464
vn 0.8786 -0.4696 0.0865
vn 0.6331 0.7715 0.0624
vn 0.7708 -0.6326 0.0759
vn 0.7708 0.6326 0.0759
vn 0.6332 -0.7715 0.0624
vn 0.9161 -0.2890 0.2779
vn 0.4528 0.8810 0.1374
vn 0.8448 -0.4696 0.2563
vn 0.6088 0.7715 0.1847
vn 0.7412 -0.6326 0.2248
vn 0.7412 0.6326 0.2248
vn 0.6088 -0.7715 0.1847
vn 0.8448 0.4696 0.2563
vn 0.4528 -0.8810 0.1374
vn 0.9161 0.2890 0.2779
vn 0.2790 -0.9565 0.0846
vn 0.9524 0.0975 0.2889
vn 0.0942 0.9951 0.0286
vn 0.0942 -0.9951 0.0286
vn 0.9524 -0.0975 0.2889
vn 0.2790 0.9565 0.0846
vn 0.4173 -0.8810 0.2231
vn 0.8443 0.2890 0.4513
vn 0.2571 -0.9565 0.1374
vn 0.8777 0.0975 0.4691
vn 0.0869 0.9951 0.0464
vn 0.0869 -0.9951 0.0464
vn 0.8777 -0.0975 0.4691
vn 0.2571 0.9565 0.1374
vn 0.8443 -0.2890 0.4513
vn 0.4173 0.8810 0.2231
vn 0.7786 -0.4696 0.4162
vn 0.5611 0.7715 0.2999
vn 0.6831 -0.6326 0.3651
vn 0.6831 0.6326 0.3651
vn 0.5611 -0.7715 0.2999
vn 0.7786 0.4696 0.4162
vn 0.3658 0.8810 0.3002
vn 0.6825 -0.4696 0.5601
vn 0.4918 0.7715 0.4036
vn 0.5987 -0.6326 0.4913
vn 0.5987 0.6326 0.4913
vn 0.4918 -0.7715 0.4036
vn 0.6825 0.4696 0.5601
vn 0.3658 -0.8810 0.3002
vn 0.7400 0.2890 0.6073
vn 0.2254 -0.9566 0.1850
vn 0.7693 0.0975 0.6314
vn 0.0761 0.9951 0.0625
vn 0.0761 -0.9951 0.0625
vn 0.7693 -0.0975 0.6314
vn 0.2254 0.9565 0.1850
vn 0.7400 -0.2890 0.6073
vn 0.6073 0.2890 0.7400
vn 0.1850 -0.9565 0.2254
vn 0.6314 0.0975 0.7693
vn 0.0625 0.9951 0.0761
vn 0.0625 -0.9951 0.0761
vn 0.6314 -0.0975 0.7693
vn 0.1850 0.9565 0.2254
vn 0.6073 -0.2890 0.7400
vn 0.3002 0.8810 0.3658
vn 0.5601 -0.4696 0.6825
vn 0.4036 0.7715 0.4918
vn 0.4913 -0.6326 0.5987
vn 0.4913 0.6326 0.5987
vn 0.4036 -0.7715 0.4918
vn 0.5601 0.4696 0.6825
vn 0.3002 -0.8810 0.3658
vn 0.4162 -0.4696 0.7786
vn 0.2999 0.7715 0.5611
vn 0.3651 -0.6326 0.6831
vn 0.3651 0.6326 0.6831
vn 0.2999 -0.7715 0.5611
vn 0.4162 0.4696 0.7786
vn 0.2230 -0.8810 0.4173
vn 0.4513 0.2890 0.8443
vn 0.1374 -0.9565 0.2571
vn 0.4691 0.0975 0.8777
vn 0.0464 0.9951 0.0869
vn 0.0464 -0.9951 0.0869
vn 0.4691 -0.0975 0.8777
vn 0.1374 0.9565 0.2571
vn 0.4513 -0.2890 0.8443
vn 0.2231 0.8810 0.4173
vn 0.0846 -0.9565 0.2790
vn 0.2889 0.0975 0.9524
vn 0.0286 0.9951 0.0942
vn 0.0286 -0.9951 0.0942
vn 0.2889 -0.0975 0.9524
vn 0.0846 0.9565 0.2790
vn 0.2779 -0.2890 0.9161
vn 0.1374 0.8810 0.4528
vn 0.2563 -0.4696 0.8448
vn 0.1847 0.7715 0.6088
vn 0.2248 -0.6326 0.7412
vn 0.2248 0.6326 0.7412
vn 0.1847 -0.7715 0.6088
vn 0.2563 0.4696 0.8448
vn 0.1374 -0.8810 0.4528
vn 0.2779 0.2890 0.9161
vn 0.0759 -0.6326 0.7708
vn 0.0759 0.6326 0.7708
vn 0.0624 -0.7715 0.6332
vn 0.0865 0.4696 0.8786
vn 0.0464 -0.8810 0.4709
vn 0.0938 0.2890 0.9527
vn 0.0286 -0.9565 0.2902
vn 0.0975 0.0975 0.9904
vn 0.0097 0.9951 0.0980
vn 0.0097 -0.9951 0.0980
vn 0.0975 -0.0975 0.9904
vn 0.0286 0.9565 0.2902
vn 0.0938 -0.2890 0.9527
vn 0.0464 0.8810 0.4709
vn 0.0865 -0.4696 0.8786
vn 0.0624 0.7715 0.6332
vn -0.0097 0.9951 0.0980
vn -0.0097 -0.9951 0.0980
vn -0.0975 -0.0975 0.9904
vn -0.0286 0.9565 0.2902
vn -0.0938 -0.2890 0.9527
vn -0.0464 0.8810 0.4709
vn -0.0865 -0.4696 0.8786
vn -0.0624 0.7715 0.6332
vn -0.0759 -0.6326 0.7708
vn -0.0759 0.6326 0.7708
vn -0.0624 -0.7715 0.6332
vn -0.0865 0.4696 0.8786
vn -0.0464 -0.8810 0.4709
vn -0.0938 0.2890 0.9527
vn -0.0286 -0.9565 0.2902
vn -0.0976 0.0975 0.9904
vn -0.2248 0.6326 0.7412
vn -0.1847 -0.7715 0.6088
vn -0.2563 0.4696 0.8448
vn -0.1374 -0.8810 0.4528
vn -0.2779 0.2890 0.9161
vn -0.0846 -0.9565 0.2790
vn -0.2889 0.0975 0.9524
vn -0.0286 0.9951 0.0942
vn -0.0286 -0.9951 0.0942
vn -0.2889 -0.0975 0.9524
vn -0.0846 0.9565 0.2790
vn -0.2779 -0.2890 0.9161
vn -0.1374 0.8810 0.4528
vn -0.2563 -0.4696 0.8448
vn -0.1847 0.7715 0.6088
vn -0.2248 -0.6326 0.7412
vn -0.4691 -0.0975 0.8777
vn -0.1374 0.9565 0.2571
vn -0.4513 -0.2890 0.8443
vn -0.2231 0.8810 0.4173
vn -0.4162 -0.4696 0.7786
vn -0.2999 0.7715 0.5611
vn -0.3651 -0.6326 0.6831
vn -0.3651 0.6326 0.6831
vn -0.2999 -0.7715 0.5611
vn -0.4162 0.4696 0.7786
vn -0.2230 -0.8810 0.4173
vn -0.4513 0.2890 0.8443
vn -0.1374 -0.9565 0.2571
vn -0.4691 0.0975 0.8777
vn -0.0464 0.9951 0.0869
vn -0.0464 -0.9951 0.0869
vn -0.4036 -0.7715 0.4918
vn -0.5601 0.4696 0.6825
vn -0.3002 -0.8810 0.3658
vn -0.6073 0.2890 0.7400
vn -0.1850 -0.9565 0.2254
vn -0.6314 0.0975 0.7693
vn -0.0625 0.9951 0.0761
vn -0.0625 -0.9951 0.0761
vn -0.6314 -0.0975 0.7693
vn -0.1850 0.9565 0.2254
vn -0.6073 -0.2890 0.7400
vn -0.3002 0.8810 0.3658
vn -0.5601 -0.4696 0.6825
vn -0.4036 0.7715 0.4918
vn -0.4913 -0.6326 0.5987
vn -0.4913 0.6326 0.5987
vn -0.2254 0.9565 0.1850
vn -0.7400 -0.2890 0.6073
vn -0.3658 0.8810 0.3002
vn -0.6825 -0.4696 0.5601
vn -0.4918 0.7715 0.4036
vn -0.5987 -0.6326 0.4913
vn -0.5987 0.6326 0.4913
vn -0.4918 -0.7715 0.4036
vn -0.6825 0.4696 0.5601
vn -0.3658 -0.8810 0.3002
vn -0.7400 0.2890 0.6073
vn -0.2254 -0.9566 0.1850
vn -0.7693 0.0975 0.6314
vn -0.0761 0.9951 0.0625
vn -0.0761 -0.9951 0.0625
vn -0.7693 -0.0975 0.6314
vn -0.7786 0.4696 0.4162
vn -0.4173 -0.8810 0.2230
vn -0.8443 0.2890 0.4513
vn -0.2571 -0.9565 0.1374
vn -0.8777 0.0975 0.4691
vn -0.0869 0.9951 0.0464
vn -0.0869 -0.9951 0.0464
vn -0.8777 -0.0975 0.4691
vn -0.2571 0.9565 0.1374
vn -0.8443 -0.2890 0.4513
vn -0.4173 0.8810 0.2230
vn -0.7786 -0.4696 0.4162
vn -0.5611 0.7715 0.2999
vn -0.6831 -0.6326 0.3651
vn -0.6831 0.6326 0.3651
vn -0.5611 -0.7715 0.2999
vn -0.9161 -0.2890 0.2779
vn -0.4528 0.8810 0.1374
vn -0.8448 -0.4696 0.2563
vn -0.6088 0.7715 0.1847
vn -0.7412 -0.6326 0.2248
vn -0.7412 0.6326 0.2248
vn -0.6088 -0.7715 0.1847
vn -0.8448 0.4696 0.2563
vn -0.4528 -0.8810 0.1374
vn -0.9161 0.2890 0.2779
vn -0.2790 -0.9565 0.0846
vn -0.9524 0.0975 0.2889
vn -0.0942 0.9951 0.0286
vn -0.0942 -0.9951 0.0286
vn -0.9524 -0.0975 0.2889
vn -0.2790 0.9565 0.0846
vn -0.4709 -0.8810 0.0464
vn -0.9527 0.2890 0.0938
vn -0.2902 -0.9565 0.0286
vn -0.9904 0.0975 0.0975
vn -0.0980 0.9951 0.0097
vn -0.0980 -0.9951 0.0097
vn -0.9904 -0.0975 0.0976
vn -0.2902 0.9565 0.0286
vn -0.9527 -0.2890 0.0938
vn -0.4709 0.8810 0.0464
vn -0.8786 -0.4696 0.0865
vn -0.6331 0.7715 0.0624
vn -0.7708 -0.6326 0.0759
vn -0.7708 0.6326 0.0759
vn -0.6332 -0.7715 0.0624
vn -0.8786 0.4696 0.0865
vn -0.8786 -0.4696 -0.0865
vn -0.6332 0.7715 -0.0624
vn -0.7708 -0.6326 -0.0759
vn -0.7708 0.6326 -0.0759
vn -0.6332 -0.7715 -0.0624
vn -0.8786 0.4696 -0.0865
vn -0.4709 -0.8810 -0.0464
vn -0.9527 0.2890 -0.0938
vn -0.2902 -0.9565 -0.0286
vn -0.9904 0.0975 -0.0975
vn -0.0980 0.9951 -0.0097
vn -0.0980 -0.9951 -0.0097
vn -0.9904 -0.0975 -0.0976
vn -0.2902 0.9565 -0.0286
vn -0.9527 -0.2890 -0.0938
vn -0.4709 0.8810 -0.0464
vn -0.2790 -0.9565 -0.0846
vn -0.9524 0.0975 -0.2889
vn -0.0942 0.9951 -0.0286
vn -0.0942 -0.9951 -0.0286
vn -0.9524 -0.0975 -0.2889
vn -0.2790 0.9565 -0.0846
vn -0.9161 -0.2890 -0.2779
vn -0.4528 0.8810 -0.1374
vn -0.8448 -0.4696 -0.2563
vn -0.6088 0.7715 -0.1847
vn -0.7412 -0.6326 -0.2248
vn -0.7412 0.6326 -0.2248
vn -0.6088 -0.7715 -0.1847
vn -0.8448 0.4696 -0.2563
vn -0.4528 -0.8810 -0.1374
vn -0.9161 0.2890 -0.2779
vn -0.5611 0.7715 -0.2999
vn -0.6831 -0.6326 -0.3651
vn -0.6831 0.6326 -0.3651
vn -0.5611 -0.7715 -0.2999
vn -0.7786 0.4696 -0.4162
vn -0.4173 -0.8810 -0.2231
vn -0.8443 0.2890 -0.4513
vn -0.2571 -0.9566 -0.1374
vn -0.8777 0.0975 -0.4691
vn -0.0869 0.9951 -0.0464
vn -0.0869 -0.9951 -0.0464
vn -0.8777 -0.0975 -0.4691
vn -0.2571 0.9565 -0.1374
vn -0.8443 -0.2890 -0.4513
vn -0.4173 0.8810 -0.2231
vn -0.7786 -0.4696 -0.4162
vn -0.7693 0.0975 -0.6314
vn -0.0761 0.9951 -0.0625
vn -0.0761 -0.9951 -0.0625
vn -0.7693 -0.0975 -0.6314
vn -0.2254 0.9565 -0.1850
vn -0.7400 -0.2890 -0.6073
vn -0.3658 0.8810 -0.3002
vn -0.6825 -0.4696 -0.5601
vn -0.4918 0.7715 -0.4036
vn -0.5987 -0.6326 -0.4913
vn -0.5987 0.6326 -0.4913
vn -0.4918 -0.7715 -0.4036
vn -0.6825 0.4696 -0.5601
vn -0.3658 -0.8810 -0.3002
vn -0.7400 0.2890 -0.6073
vn -0.2254 -0.9565 -0.1850
vn -0.4913 -0.6326 -0.5987
vn -0.4913 0.6326 -0.5987
vn -0.4036 -0.7715 -0.4918
vn -0.5601 0.4696 -0.6825
vn -0.3002 -0.8810 -0.3658
vn -0.6073 0.2890 -0.7400
vn -0.1850 -0.9565 -0.2254
vn -0.6314 0.0975 -0.7693
vn -0.0625 0.9951 -0.0761
vn -0.0625 -0.9951 -0.0761
vn -0.6314 -0.0975 -0.7693
vn -0.1850 0.9565 -0.2254
vn -0.6073 -0.2890 -0.7400
vn -0.3002 0.8810 -0.3658
vn -0.5601 -0.4696 -0.6825
vn -0.4036 0.7715 -0.4918
vn -0.0464 0.9951 -0.0869
vn -0.0464 -0.9951 -0.0869
vn -0.4691 -0.0975 -0.8777
vn -0.1374 0.9565 -0.2571
vn -0.4513 -0.2890 -0.8443
vn -0.2230 0.8810 -0.4173
vn -0.4162 -0.4696 -0.7786
vn -0.2999 0.7715 -0.5611
vn -0.3651 -0.6326 -0.6831
vn -0.3651 0.6326 -0.6831
vn -0.2999 -0.7715 -0.5611
vn -0.4162 0.4696 -0.7786
vn -0.2231 -0.8810 -0.4173
vn -0.4513 0.2890 -0.8443
vn -0.1374 -0.9565 -0.2571
vn -0.4691 0.0975 -0.8777
vn -0.2248 0.6326 -0.7412
vn -0.1847 -0.7715 -0.6088
vn -0.2563 0.4696 -0.8448
vn -0.1374 -0.8810 -0.4528
vn -0.2779 0.2890 -0.9161
vn -0.0846 -0.9565 -0.2790
vn -0.2889 0.0975 -0.9524
vn -0.0286 0.9951 -0.0942
vn -0.0286 -0.9951 -0.0942
vn -0.2889 -0.0975 -0.9524
vn -0.0846 0.9565 -0.2790
vn -0.2779 -0.2890 -0.9161
vn -0.1374 0.8810 -0.4528
vn -0.2563 -0.4696 -0.8448
vn -0.1847 0.7715 -0.6088
vn -0.2248 -0.6326 -0.7412
vn -0.0976 -0.0975 -0.9904
vn -0.0286 0.9565 -0.2902
vn -0.0938 -0.2890 -0.9527
vn -0.0464 0.8810 -0.4709
vn -0.0865 -0.4696 -0.8786
vn -0.0624 0.7715 -0.6332
vn -0.0759 -0.6326 -0.7708
vn -0.0759 0.6326 -0.7708
vn -0.0624 -0.7715 -0.6332
vn -0.0865 0.4696 -0.8786
vn -0.0464 -0.8810 -0.4709
vn -0.0938 0.2890 -0.9527
vn -0.0286 -0.9565 -0.2902
vn -0.0976 0.0975 -0.9904
vn -0.0097 0.9951 -0.0980
vn -0.0097 -0.9951 -0.0980
vn 0.3771 0.2530 -0.8910
vn 0.4988 0.1312 -0.8567
vn 0.6134 0.0166 -0.7896
vn 0.7166 -0.0866 -0.6921
vn 0.8044 -0.1744 -0.5680
vn 0.8733 -0.2433 -0.4220
vn 0.9208 -0.2908 -0.2599
vn 0.9450 -0.3150 -0.0878
vn 0.9487 -0.3162 -0.0000
vn 0.9208 -0.2908 0.2599
vn 0.8733 -0.2433 0.4220
vn 0.8044 -0.1744 0.5680
vn 0.7166 -0.0866 0.6921
vn 0.6134 0.0166 0.7896
vn 0.4988 0.1312 0.8567
vn 0.3771 0.2530 0.8910
vn 0.2530 0.3771 0.8910
vn 0.1312 0.4988 0.8567
vn 0.0166 0.6134 0.7896
vn -0.0866 0.7166 0.6921
vn -0.1744 0.8044 0.5680
vn -0.2433 0.8733 0.4220
vn -0.2908 0.9208 0.2599
vn -0.3150 0.9450 0.0878
vn -0.3150 0.9450 -0.0878
vn -0.2908 0.9208 -0.2599
vn -0.2433 0.8733 -0.4220
vn -0.1744 0.8044 -0.5680
vn -0.0866 0.7166 -0.6921
vn 0.0166 0.6134 -0.7896
vn 0.1312 0.4988 -0.8567
vn 0.2530 0.3771 -0.8910
vn -0.3771 0.2530 -0.8910
vn -0.4988 0.1312 -0.8567
vn -0.6134 0.0166 -0.7896
vn -0.7166 -0.0866 -0.6921
vn -0.8044 -0.1744 -0.5680
vn -0.8733 -0.2433 -0.4220
vn -0.9208 -0.2908 -0.2599
vn -0.9487 -0.3162 -0.0000
vn -0.9450 -0.3150 0.0878
vn -0.9208 -0.2908 0.2599
vn -0.8733 -0.2433 0.4220
vn -0.8044 -0.1744 0.5680
vn -0.7166 -0.0866 0.6921
vn -0.6134 0.0166 0.7896
vn -0.4988 0.1312 0.8567
vn -0.3771 0.2530 0.8910
vn -0.2530 0.3771 0.8910
vn -0.1312 0.4988 0.8567
vn -0.0166 0.6134 0.7896
vn 0.0866 0.7166 0.6921
vn 0.1744 0.8044 0.5680
vn 0.2433 0.8733 0.4220
vn 0.2908 0.9208 0.2599
vn 0.3150 0.9450 0.0878
vn 0.3150 0.9450 -0.0878
vn 0.2908 0.9208 -0.2599
vn 0.2433 0.8733 -0.4220
vn 0.1744 0.8044 -0.5680
vn 0.0866 0.7166 -0.6921
vn -0.0166 0.6134 -0.7896
vn -0.1312 0.4988 -0.8567
vn -0.2530 0.3771 -0.8910
vn 0.0975 -0.0976 -0.9904
vn 0.0975 0.0975 -0.9904
vn 0.4691 0.0975 -0.8777
vn 0.4691 -0.0976 -0.8777
vn 0.4173 0.8810 -0.2231
vn -0.5636 0.8260 -0.0000
vn -0.5643 -0.8256 -0.0000
vn 0.9904 0.0975 -0.0976
vn 0.9904 -0.0975 -0.0975
vn 0.9904 0.0975 0.0976
vn 0.9904 -0.0975 0.0975
vn 0.2254 -0.9565 0.1850
vn 0.2254 0.9566 0.1850
vn 0.2231 -0.8810 0.4173
vn 0.2230 0.8810 0.4173
vn -0.0976 -0.0975 0.9904
vn -0.0975 0.0975 0.9904
vn -0.2230 0.8810 0.4173
vn -0.2231 -0.8810 0.4173
vn -0.2254 -0.9565 0.1850
vn -0.9904 0.0975 0.0976
vn -0.9904 -0.0975 0.0975
vn -0.7238 0.6900 -0.0000
vn -0.9627 0.2707 -0.0000
vn -0.9904 0.0975 -0.0976
vn -0.9904 -0.0975 -0.0975
vn -0.2571 -0.9565 -0.1374
vn -0.2231 0.8810 -0.4173
vn -0.2230 -0.8810 -0.4173
vn 0.9450 -0.3150 0.0878
vn -0.3162 0.9487 -0.0000
vn -0.8044 -0.1744 -0.5679
vn -0.9450 -0.3150 -0.0878
vn 0.3162 0.9487 -0.0000
vt 0.734375 0.000000
vt 0.750000 0.062500
vt 0.718750 0.062500
vt 0.750000 0.437500
vt 0.718750 0.500000
vt 0.718750 0.437500
vt 0.750000 0.875000
vt 0.718750 0.937500
vt 0.718750 0.875000
vt 0.718750 0.375000
vt 0.750000 0.375000
vt 0.750000 0.812500
vt 0.718750 0.812500
vt 0.718750 0.312500
vt 0.750000 0.312500
vt 0.750000 0.750000
vt 0.718750 0.750000
vt 0.750000 0.250000
vt 0.718750 0.250000
vt 0.718750 0.687500
vt 0.750000 0.687500
vt 0.718750 0.187500
vt 0.750000 0.187500
vt 0.750000 0.625000
vt 0.718750 0.625000
vt 0.718750 0.125000
vt 0.750000 0.125000
vt 0.718750 0.562500
vt 0.750000 0.562500
vt 0.750000 0.500000
vt 0.750000 0.937500
vt 0.734375 1.000000
vt 0.687500 0.062500
vt 0.687500 0.500000
vt 0.703125 1.000000
vt 0.687500 0.937500
vt 0.703125 0.000000
vt 0.687500 0.437500
vt 0.687500 0.875000
vt 0.687500 0.375000
vt 0.687500 0.812500
vt 0.687500 0.312500
vt 0.687500 0.750000
vt 0.687500 0.250000
vt 0.687500 0.687500
vt 0.687500 0.187500
vt 0.687500 0.625000
vt 0.687500 0.125000
vt 0.687500 0.562500
vt 0.656250 0.750000
vt 0.656250 0.250000
vt 0.656250 0.687500
vt 0.656250 0.187500
vt 0.656250 0.625000
vt 0.656250 0.125000
vt 0.656250 0.562500
vt 0.656250 0.062500
vt 0.656250 0.500000
vt 0.671875 1.000000
vt 0.656250 0.937500
vt 0.671875 0.000000
vt 0.656250 0.437500
vt 0.656250 0.875000
vt 0.656250 0.375000
vt 0.656250 0.812500
vt 0.656250 0.312500
vt 0.625000 0.562500
vt 0.625000 0.500000
vt 0.640625 1.000000
vt 0.625000 0.937500
vt 0.640625 0.000000
vt 0.625000 0.062500
vt 0.625000 0.437500
vt 0.625000 0.875000
vt 0.625000 0.375000
vt 0.625000 0.812500
vt 0.625000 0.312500
vt 0.625000 0.750000
vt 0.625000 0.250000
vt 0.625000 0.687500
vt 0.625000 0.187500
vt 0.625000 0.625000
vt 0.625000 0.125000
vt 0.593750 0.250000
vt 0.593750 0.750000
vt 0.593750 0.687500
vt 0.593750 0.187500
vt 0.593750 0.625000
vt 0.593750 0.125000
vt 0.593750 0.562500
vt 0.593750 0.062500
vt 0.593750 0.500000
vt 0.609375 1.000000
vt 0.593750 0.937500
vt 0.609375 0.000000
vt 0.593750 0.437500
vt 0.593750 0.875000
vt 0.593750 0.375000
vt 0.593750 0.812500
vt 0.593750 0.312500
vt 0.578125 0.000000
vt 0.562500 0.062500
vt 0.562500 0.437500
vt 0.562500 0.875000
vt 0.562500 0.375000
vt 0.562500 0.812500
vt 0.562500 0.312500
vt 0.562500 0.750000
vt 0.562500 0.250000
vt 0.562500 0.687500
vt 0.562500 0.187500
vt 0.562500 0.625000
vt 0.562500 0.125000
vt 0.562500 0.562500
vt 0.562500 0.500000
vt 0.578125 1.000000
vt 0.562500 0.937500
vt 0.531250 0.250000
vt 0.531250 0.187500
vt 0.531250 0.625000
vt 0.531250 0.125000
vt 0.531250 0.562500
vt 0.531250 0.062500
vt 0.531250 0.500000
vt 0.546875 1.000000
vt 0.531250 0.937500
vt 0.546875 0.000000
vt 0.531250 0.437500
vt 0.531250 0.875000
vt 0.531250 0.375000
vt 0.531250 0.812500
vt 0.531250 0.312500
vt 0.544749 0.796671
vt 0.550341 0.783794
vt 0.549303 0.726537
vt 0.544836 0.713627
vt 0.500000 0.875000
vt 0.500000 0.375000
vt 0.513678 0.822000
vt 0.525787 0.816279
vt 0.500000 0.312500
vt 0.530185 0.812500
vt 0.531250 0.811722
vt 0.500000 0.250000
vt 0.525903 0.687500
vt 0.531250 0.687500
vt 0.531250 0.693630
vt 0.500000 0.187500
vt 0.516875 0.678936
vt 0.508511 0.675532
vt 0.500000 0.125000
vt 0.500000 0.625000
vt 0.500000 0.562500
vt 0.500000 0.062500
vt 0.500000 0.500000
vt 0.515625 1.000000
vt 0.500000 0.937500
vt 0.515625 0.000000
vt 0.500000 0.437500
vt 0.468750 0.687500
vt 0.483125 0.678936
vt 0.468750 0.187500
vt 0.468750 0.125000
vt 0.468750 0.625000
vt 0.468750 0.562500
vt 0.468750 0.062500
vt 0.468750 0.500000
vt 0.484375 1.000000
vt 0.468750 0.937500
vt 0.484375 0.000000
vt 0.468750 0.437500
vt 0.468750 0.875000
vt 0.468750 0.375000
vt 0.468750 0.812500
vt 0.474213 0.816279
vt 0.468750 0.312500
vt 0.469815 0.812500
vt 0.468750 0.811722
vt 0.468750 0.250000
vt 0.468750 0.693630
vt 0.474097 0.687500
vt 0.437500 0.375000
vt 0.437500 0.812500
vt 0.437500 0.312500
vt 0.447033 0.769708
vt 0.449659 0.783794
vt 0.437500 0.250000
vt 0.437500 0.687500
vt 0.461041 0.702621
vt 0.455164 0.713627
vt 0.437500 0.187500
vt 0.437500 0.625000
vt 0.437500 0.125000
vt 0.437500 0.562500
vt 0.437500 0.062500
vt 0.437500 0.500000
vt 0.453125 1.000000
vt 0.437500 0.937500
vt 0.453125 0.000000
vt 0.437500 0.437500
vt 0.437500 0.875000
vt 0.406250 0.187500
vt 0.406250 0.125000
vt 0.406250 0.625000
vt 0.406250 0.562500
vt 0.406250 0.062500
vt 0.406250 0.500000
vt 0.421875 1.000000
vt 0.406250 0.937500
vt 0.421875 0.000000
vt 0.406250 0.437500
vt 0.406250 0.875000
vt 0.406250 0.375000
vt 0.406250 0.812500
vt 0.406250 0.312500
vt 0.406250 0.750000
vt 0.437500 0.750000
vt 0.406250 0.250000
vt 0.406250 0.687500
vt 0.375000 0.812500
vt 0.375000 0.375000
vt 0.375000 0.312500
vt 0.375000 0.750000
vt 0.375000 0.250000
vt 0.375000 0.687500
vt 0.375000 0.187500
vt 0.375000 0.625000
vt 0.375000 0.125000
vt 0.375000 0.562500
vt 0.375000 0.062500
vt 0.375000 0.500000
vt 0.390625 1.000000
vt 0.375000 0.937500
vt 0.390625 0.000000
vt 0.375000 0.437500
vt 0.375000 0.875000
vt 0.343750 0.625000
vt 0.343750 0.562500
vt 0.343750 0.062500
vt 0.343750 0.500000
vt 0.359375 1.000000
vt 0.343750 0.937500
vt 0.359375 0.000000
vt 0.343750 0.437500
vt 0.343750 0.875000
vt 0.343750 0.375000
vt 0.343750 0.812500
vt 0.343750 0.312500
vt 0.343750 0.750000
vt 0.343750 0.250000
vt 0.343750 0.687500
vt 0.343750 0.187500
vt 0.343750 0.125000
vt 0.312500 0.375000
vt 0.312500 0.312500
vt 0.312500 0.750000
vt 0.312500 0.250000
vt 0.312500 0.687500
vt 0.312500 0.187500
vt 0.312500 0.625000
vt 0.312500 0.125000
vt 0.312500 0.562500
vt 0.312500 0.062500
vt 0.312500 0.500000
vt 0.328125 1.000000
vt 0.312500 0.937500
vt 0.328125 0.000000
vt 0.312500 0.437500
vt 0.312500 0.875000
vt 0.312500 0.812500
vt 0.281250 0.062500
vt 0.281250 0.562500
vt 0.281250 0.500000
vt 0.296875 1.000000
vt 0.281250 0.937500
vt 0.296875 0.000000
vt 0.281250 0.437500
vt 0.281250 0.875000
vt 0.281250 0.375000
vt 0.281250 0.812500
vt 0.281250 0.312500
vt 0.281250 0.750000
vt 0.281250 0.250000
vt 0.281250 0.687500
vt 0.281250 0.187500
vt 0.281250 0.625000
vt 0.281250 0.125000
vt 0.250000 0.250000
vt 0.250000 0.750000
vt 0.250000 0.687500
vt 0.250000 0.187500
vt 0.250000 0.625000
vt 0.250000 0.125000
vt 0.250000 0.562500
vt 0.250000 0.062500
vt 0.250000 0.500000
vt 0.265625 1.000000
vt 0.250000 0.937500
vt 0.265625 0.000000
vt 0.250000 0.437500
vt 0.250000 0.875000
vt 0.250000 0.375000
vt 0.250000 0.812500
vt 0.250000 0.312500
vt 0.234375 1.000000
vt 0.218750 0.937500
vt 0.234375 0.000000
vt 0.218750 0.062500
vt 0.218750 0.437500
vt 0.218750 0.875000
vt 0.218750 0.375000
vt 0.218750 0.812500
vt 0.218750 0.312500
vt 0.218750 0.750000
vt 0.218750 0.250000
vt 0.218750 0.687500
vt 0.218750 0.187500
vt 0.218750 0.625000
vt 0.218750 0.125000
vt 0.218750 0.562500
vt 0.218750 0.500000
vt 0.187500 0.750000
vt 0.187500 0.687500
vt 0.187500 0.250000
vt 0.187500 0.187500
vt 0.187500 0.625000
vt 0.187500 0.125000
vt 0.187500 0.562500
vt 0.187500 0.062500
vt 0.187500 0.500000
vt 0.203125 1.000000
vt 0.187500 0.937500
vt 0.203125 0.000000
vt 0.187500 0.437500
vt 0.187500 0.875000
vt 0.187500 0.375000
vt 0.187500 0.812500
vt 0.187500 0.312500
vt 0.156250 0.437500
vt 0.156250 0.937500
vt 0.156250 0.875000
vt 0.156250 0.375000
vt 0.156250 0.812500
vt 0.156250 0.312500
vt 0.156250 0.750000
vt 0.156250 0.250000
vt 0.156250 0.687500
vt 0.156250 0.187500
vt 0.156250 0.625000
vt 0.156250 0.125000
vt 0.156250 0.562500
vt 0.156250 0.062500
vt 0.156250 0.500000
vt 0.171875 1.000000
vt 0.171875 0.000000
vt 0.125000 0.250000
vt 0.125000 0.187500
vt 0.125000 0.625000
vt 0.125000 0.125000
vt 0.125000 0.562500
vt 0.125000 0.062500
vt 0.125000 0.500000
vt 0.140625 1.000000
vt 0.125000 0.937500
vt 0.140625 0.000000
vt 0.125000 0.437500
vt 0.125000 0.875000
vt 0.125000 0.375000
vt 0.125000 0.812500
vt 0.125000 0.312500
vt 0.125000 0.750000
vt 0.125000 0.687500
vt 0.093750 0.875000
vt 0.093750 0.375000
vt 0.093750 0.812500
vt 0.093750 0.312500
vt 0.093750 0.750000
vt 0.093750 0.250000
vt 0.093750 0.687500
vt 0.093750 0.187500
vt 0.093750 0.625000
vt 0.093750 0.125000
vt 0.093750 0.562500
vt 0.093750 0.062500
vt 0.093750 0.500000
vt 0.109375 1.000000
vt 0.093750 0.937500
vt 0.109375 0.000000
vt 0.093750 0.437500
vt 0.062500 0.625000
vt 0.062500 0.187500
vt 0.062500 0.125000
vt 0.062500 0.562500
vt 0.062500 0.062500
vt 0.062500 0.500000
vt 0.078125 1.000000
vt 0.062500 0.937500
vt 0.078125 0.000000
vt 0.062500 0.437500
vt 0.062500 0.875000
vt 0.062500 0.375000
vt 0.062500 0.812500
vt 0.062500 0.312500
vt 0.062500 0.750000
vt 0.062500 0.250000
vt 0.062500 0.687500
vt 0.031250 0.375000
vt 0.031250 0.812500
vt 0.031250 0.312500
vt 0.050341 0.783794
vt 0.031250 0.250000
vt 0.049303 0.726537
vt 0.044836 0.713627
vt 0.031250 0.187500
vt 0.031250 0.625000
vt 0.031250 0.125000
vt 0.031250 0.562500
vt 0.031250 0.062500
vt 0.031250 0.500000
vt 0.046875 1.000000
vt 0.031250 0.937500
vt 0.046875 0.000000
vt 0.031250 0.437500
vt 0.031250 0.875000
vt 0.000000 0.125000
vt 0.000000 0.625000
vt 0.000000 0.562500
vt 0.000000 0.062500
vt 0.000000 0.500000
vt 0.015625 1.000000
vt 0.000000 0.937500
vt 0.015625 0.000000
vt 0.000000 0.437500
vt 0.000000 0.875000
vt 0.000000 0.375000
vt 0.013679 0.822000
vt 0.025787 0.816279
vt 0.000000 0.312500
vt 0.030185 0.812500
vt 0.031250 0.811722
vt 0.000000 0.250000
vt 0.025903 0.687500
vt 0.031250 0.687500
vt 0.031250 0.693629
vt 0.000000 0.187500
vt 0.016875 0.678936
vt 0.008511 0.675532
vt 1.000000 0.312500
vt 0.968750 0.375000
vt 0.968750 0.312500
vt 0.969815 0.812500
vt 0.968750 0.812500
vt 0.968750 0.811722
vt 0.968750 0.250000
vt 1.000000 0.250000
vt 0.968750 0.687500
vt 0.974097 0.687500
vt 0.968750 0.693629
vt 1.000000 0.187500
vt 0.968750 0.187500
vt 0.968750 0.625000
vt 0.983125 0.678936
vt 0.975384 0.685645
vt 0.968750 0.125000
vt 1.000000 0.125000
vt 1.000000 0.562500
vt 0.968750 0.562500
vt 1.000000 0.062500
vt 0.968750 0.062500
vt 1.000000 0.500000
vt 0.968750 0.500000
vt 1.000000 0.937500
vt 0.984375 1.000000
vt 0.968750 0.937500
vt 0.984375 0.000000
vt 0.968750 0.437500
vt 1.000000 0.437500
vt 0.968750 0.875000
vt 1.000000 0.875000
vt 1.000000 0.375000
vt 0.974213 0.816279
vt 0.937500 0.125000
vt 0.937500 0.062500
vt 0.937500 0.562500
vt 0.937500 0.500000
vt 0.953125 1.000000
vt 0.937500 0.937500
vt 0.953125 0.000000
vt 0.937500 0.437500
vt 0.937500 0.875000
vt 0.937500 0.375000
vt 0.937500 0.812500
vt 0.937500 0.312500
vt 0.947032 0.769708
vt 0.949659 0.783794
vt 0.937500 0.250000
vt 0.937500 0.687500
vt 0.961041 0.702621
vt 0.955164 0.713627
vt 0.937500 0.187500
vt 0.937500 0.625000
vt 0.906250 0.750000
vt 0.937500 0.750000
vt 0.906250 0.250000
vt 0.906250 0.687500
vt 0.906250 0.187500
vt 0.906250 0.625000
vt 0.906250 0.125000
vt 0.906250 0.562500
vt 0.906250 0.062500
vt 0.906250 0.500000
vt 0.921875 1.000000
vt 0.906250 0.937500
vt 0.921875 0.000000
vt 0.906250 0.437500
vt 0.906250 0.875000
vt 0.906250 0.375000
vt 0.906250 0.812500
vt 0.906250 0.312500
vt 0.875000 0.562500
vt 0.875000 0.500000
vt 0.890625 1.000000
vt 0.875000 0.937500
vt 0.890625 0.000000
vt 0.875000 0.062500
vt 0.875000 0.437500
vt 0.875000 0.875000
vt 0.875000 0.375000
vt 0.875000 0.812500
vt 0.875000 0.312500
vt 0.875000 0.750000
vt 0.875000 0.250000
vt 0.875000 0.687500
vt 0.875000 0.187500
vt 0.875000 0.625000
vt 0.875000 0.125000
vt 0.843750 0.250000
vt 0.843750 0.750000
vt 0.843750 0.687500
vt 0.843750 0.187500
vt 0.843750 0.625000
vt 0.843750 0.125000
vt 0.843750 0.562500
vt 0.843750 0.062500
vt 0.843750 0.500000
vt 0.859375 1.000000
vt 0.843750 0.937500
vt 0.859375 0.000000
vt 0.843750 0.437500
vt 0.843750 0.875000
vt 0.843750 0.375000
vt 0.843750 0.812500
vt 0.843750 0.312500
vt 0.828125 1.000000
vt 0.812500 0.937500
vt 0.828125 0.000000
vt 0.812500 0.062500
vt 0.812500 0.437500
vt 0.812500 0.875000
vt 0.812500 0.375000
vt 0.812500 0.812500
vt 0.812500 0.312500
vt 0.812500 0.750000
vt 0.812500 0.250000
vt 0.812500 0.687500
vt 0.812500 0.187500
vt 0.812500 0.625000
vt 0.812500 0.125000
vt 0.812500 0.562500
vt 0.812500 0.500000
vt 0.781250 0.750000
vt 0.781250 0.687500
vt 0.781250 0.250000
vt 0.781250 0.187500
vt 0.781250 0.625000
vt 0.781250 0.125000
vt 0.781250 0.562500
vt 0.781250 0.062500
vt 0.781250 0.500000
vt 0.796875 1.000000
vt 0.781250 0.937500
vt 0.796875 0.000000
vt 0.781250 0.437500
vt 0.781250 0.875000
vt 0.781250 0.375000
vt 0.781250 0.812500
vt 0.781250 0.312500
vt 0.765625 1.000000
vt 0.765625 0.000000
vt 0.250000 0.435376
vt 0.286391 0.432950
vt 0.321451 0.422498
vt 0.353276 0.404564
vt 0.380205 0.380205
vt 0.381861 0.377866
vt 0.398581 0.357566
vt 0.421684 0.321114
vt 0.403388 0.352491
vt 0.432284 0.286259
vt 0.434554 0.250000
vt 0.432284 0.213741
vt 0.421684 0.178886
vt 0.403388 0.147509
vt 0.381861 0.122134
vt 0.398581 0.142434
vt 0.380205 0.119795
vt 0.353277 0.095436
vt 0.321451 0.077502
vt 0.286391 0.067050
vt 0.250000 0.064624
vt 0.226994 0.068214
vt 0.213954 0.068784
vt 0.178843 0.078211
vt 0.146527 0.095142
vt 0.118723 0.118723
vt 0.096839 0.147661
vt 0.088095 0.166246
vt 0.089812 0.162996
vt 0.068603 0.213918
vt 0.079948 0.179562
vt 0.065446 0.250000
vt 0.068603 0.286082
vt 0.065446 0.250000
vt 0.079948 0.320438
vt 0.088095 0.333754
vt 0.089812 0.337004
vt 0.118723 0.381277
vt 0.096839 0.352339
vt 0.146527 0.404858
vt 0.178843 0.421789
vt 0.213954 0.431216
vt 0.226994 0.431786
vt 0.250000 0.435377
vt 0.286391 0.432950
vt 0.321451 0.422498
vt 0.353277 0.404564
vt 0.380205 0.380205
vt 0.381861 0.377866
vt 0.398581 0.357566
vt 0.403388 0.352491
vt 0.421684 0.321114
vt 0.432284 0.286259
vt 0.434554 0.250000
vt 0.434554 0.250000
vt 0.432284 0.213741
vt 0.421684 0.178886
vt 0.403388 0.147509
vt 0.398581 0.142434
vt 0.381861 0.122134
vt 0.353277 0.095436
vt 0.380205 0.119795
vt 0.321451 0.077502
vt 0.286391 0.067050
vt 0.250000 0.064623
vt 0.226994 0.068214
vt 0.213954 0.068784
vt 0.178843 0.078211
vt 0.146527 0.095142
vt 0.118723 0.118723
vt 0.096839 0.147661
vt 0.088095 0.166247
vt 0.089812 0.162997
vt 0.079948 0.179562
vt 0.068603 0.213918
vt 0.065446 0.250000
vt 0.065446 0.250000
vt 0.068603 0.286082
vt 0.079948 0.320438
vt 0.088095 0.333753
vt 0.089812 0.337004
vt 0.118723 0.381277
vt 0.096839 0.352339
vt 0.146527 0.404858
vt 0.178843 0.421789
vt 0.213954 0.431216
vt 0.226994 0.431786
vt 0.553028 0.755158
vt 0.552284 0.750000
vt 0.536228 0.807679
vt 0.552967 0.769708
vt 0.551987 0.740647
vt 0.531898 0.694083
vt 0.538959 0.702621
vt 0.500000 0.824362
vt 0.500000 0.675639
vt 0.524616 0.685645
vt 0.475384 0.685645
vt 0.491489 0.675532
vt 0.486321 0.822000
vt 0.463772 0.807679
vt 0.447716 0.750000
vt 0.446972 0.755158
vt 0.455251 0.796671
vt 0.468102 0.694083
vt 0.448013 0.740647
vt 0.450697 0.726537
vt 0.036228 0.807679
vt 0.053028 0.755158
vt 0.052284 0.750000
vt 0.052968 0.769708
vt 0.044749 0.796672
vt 0.031898 0.694083
vt 0.051987 0.740647
vt 0.038959 0.702621
vt 0.000000 0.824362
vt 0.000000 0.675639
vt 0.024616 0.685645
vt 1.000000 0.625000
vt 1.000000 0.675639
vt 0.991489 0.675532
vt 0.986321 0.822000
vt 1.000000 0.824362
vt 0.963772 0.807679
vt 0.947716 0.750000
vt 0.946972 0.755158
vt 0.955251 0.796672
vt 0.948013 0.740647
vt 0.968102 0.694083
vt 0.950697 0.726537
s 0
usemtl マテリアル
f 305/1/1 474/2/1 21/3/1
f 5/4/2 14/5/2 15/6/2
f 467/7/3 7/8/3 8/9/3
f 5/4/4 16/10/4 470/11/4
f 1/12/5 8/9/5 9/13/5
f 470/11/6 17/14/6 6/15/6
f 468/16/7 9/13/7 10/17/7
f 471/18/8 17/14/8 18/19/8
f 468/16/9 11/20/9 2/21/9
f 471/18/10 19/22/10 472/23/10
f 469/24/11 11/20/11 12/25/11
f 472/23/12 20/26/12 473/27/12
f 469/24/13 13/28/13 3/29/13
f 473/27/14 21/3/14 474/2/14
f 3/29/15 14/5/15 4/30/15
f 466/31/16 84/32/16 7/8/16
f 20/26/17 37/33/17 21/3/17
f 13/28/18 29/34/18 14/5/18
f 7/8/19 84/35/19 22/36/19
f 305/37/20 21/3/20 37/33/20
f 14/5/21 30/38/21 15/6/21
f 8/9/22 22/36/22 23/39/22
f 15/6/23 31/40/23 16/10/23
f 8/9/24 24/41/24 9/13/24
f 16/10/25 32/42/25 17/14/25
f 9/13/26 25/43/26 10/17/26
f 18/19/27 32/42/27 34/44/27
f 10/17/28 26/45/28 11/20/28
f 18/19/29 35/46/29 19/22/29
f 11/20/30 27/47/30 12/25/30
f 19/22/31 36/48/31 20/26/31
f 13/28/32 27/47/32 28/49/32
f 24/41/33 41/50/33 25/43/33
f 32/42/34 49/51/34 34/44/34
f 25/43/35 42/52/35 26/45/35
f 34/44/36 50/53/36 35/46/36
f 26/45/37 43/54/37 27/47/37
f 35/46/38 51/55/38 36/48/38
f 28/49/39 43/54/39 44/56/39
f 36/48/40 52/57/40 37/33/40
f 28/49/41 45/58/41 29/34/41
f 22/36/42 84/59/42 38/60/42
f 305/61/43 37/33/43 52/57/43
f 30/38/44 45/58/44 46/62/44
f 22/36/45 39/63/45 23/39/45
f 30/38/46 47/64/46 31/40/46
f 24/41/47 39/63/47 40/65/47
f 32/42/48 47/64/48 48/66/48
f 45/58/49 59/67/49 60/68/49
f 38/60/50 84/69/50 53/70/50
f 305/71/51 52/57/51 67/72/51
f 45/58/52 61/73/52 46/62/52
f 38/60/53 54/74/53 39/63/53
f 46/62/54 62/75/54 47/64/54
f 39/63/55 55/76/55 40/65/55
f 47/64/56 63/77/56 48/66/56
f 40/65/57 56/78/57 41/50/57
f 48/66/58 64/79/58 49/51/58
f 42/52/59 56/78/59 57/80/59
f 49/51/60 65/81/60 50/53/60
f 42/52/61 58/82/61 43/54/61
f 50/53/62 66/83/62 51/55/62
f 44/56/63 58/82/63 59/67/63
f 52/57/64 66/83/64 67/72/64
f 63/77/65 80/84/65 64/79/65
f 57/80/66 72/85/66 73/86/66
f 65/81/67 80/84/67 81/87/67
f 57/80/68 74/88/68 58/82/68
f 65/81/69 82/89/69 66/83/69
f 59/67/70 74/88/70 75/90/70
f 66/83/71 83/91/71 67/72/71
f 60/68/72 75/90/72 76/92/72
f 53/70/73 84/93/73 69/94/73
f 305/95/74 67/72/74 83/91/74
f 60/68/75 77/96/75 61/73/75
f 54/74/76 69/94/76 70/97/76
f 61/73/77 78/98/77 62/75/77
f 55/76/78 70/97/78 71/99/78
f 63/77/79 78/98/79 79/100/79
f 55/76/80 72/85/80 56/78/80
f 305/101/81 83/91/81 99/102/81
f 76/92/82 93/103/82 77/96/82
f 69/94/83 86/104/83 70/97/83
f 77/96/84 94/105/84 78/98/84
f 71/99/85 86/104/85 87/106/85
f 79/100/86 94/105/86 95/107/86
f 71/99/87 88/108/87 72/85/87
f 79/100/88 96/109/88 80/84/88
f 73/86/89 88/108/89 89/110/89
f 80/84/90 97/111/90 81/87/90
f 73/86/91 90/112/91 74/88/91
f 82/89/92 97/111/92 98/113/92
f 75/90/93 90/112/93 91/114/93
f 82/89/94 99/102/94 83/91/94
f 76/92/95 91/114/95 92/115/95
f 69/94/96 84/116/96 85/117/96
f 97/111/97 110/118/97 111/119/97
f 89/110/98 104/120/98 90/112/98
f 97/111/99 112/121/99 98/113/99
f 91/114/100 104/120/100 105/122/100
f 98/113/101 113/123/101 99/102/101
f 92/115/102 105/122/102 106/124/102
f 85/117/103 84/125/103 100/126/103
f 305/127/104 99/102/104 113/123/104
f 92/115/105 107/128/105 93/103/105
f 85/117/106 101/129/106 86/104/106
f 93/103/107 108/130/107 94/105/107
f 87/106/108 101/129/108 102/131/108
f 95/107/109 108/130/109 109/132/109
f 87/106/110 477/133/110 476/134/110
f 95/107/111 110/118/111 96/109/111
f 89/110/112 482/135/112 486/136/112
f 100/126/113 115/137/113 101/129/113
f 107/128/114 120/138/114 108/130/114
f 101/129/115 490/139/115 492/140/115
f 109/132/116 120/138/116 121/141/116
f 102/131/117 491/142/117 478/143/117
f 109/132/118 122/144/118 110/118/118
f 493/145/119 103/146/119 485/147/119
f 111/119/120 122/144/120 123/148/120
f 104/120/121 495/149/121 494/150/121
f 111/119/122 124/151/122 112/121/122
f 105/122/123 116/152/123 117/153/123
f 113/123/124 124/151/124 125/154/124
f 106/124/125 117/153/125 118/155/125
f 100/126/126 84/156/126 114/157/126
f 305/158/127 113/123/127 125/154/127
f 106/124/128 119/159/128 107/128/128
f 129/160/129 116/152/129 499/161/129
f 124/151/130 137/162/130 138/163/130
f 117/153/131 130/164/131 131/165/131
f 125/154/132 138/163/132 139/166/132
f 118/155/133 131/165/133 132/167/133
f 114/157/134 84/168/134 126/169/134
f 305/170/135 125/154/135 139/166/135
f 118/155/136 133/171/136 119/159/136
f 114/157/137 127/172/137 115/137/137
f 119/159/138 134/173/138 120/138/138
f 115/137/139 128/174/139 504/175/139
f 121/141/140 134/173/140 135/176/140
f 505/177/141 128/174/141 506/178/141
f 121/141/142 136/179/142 122/144/142
f 507/180/143 129/160/143 501/181/143
f 123/148/144 136/179/144 137/162/144
f 133/171/145 149/182/145 134/173/145
f 127/172/146 142/183/146 128/174/146
f 135/176/147 149/182/147 150/184/147
f 142/183/148 510/185/148 511/186/148
f 135/176/149 151/187/149 136/179/149
f 144/188/150 517/189/150 518/190/150
f 137/162/151 151/187/151 152/191/151
f 129/160/152 145/192/152 130/164/152
f 138/163/153 152/191/153 153/193/153
f 131/165/154 145/192/154 146/194/154
f 139/166/155 153/193/155 154/195/155
f 132/167/156 146/194/156 147/196/156
f 126/169/157 84/197/157 140/198/157
f 305/199/158 139/166/158 154/195/158
f 132/167/159 148/200/159 133/171/159
f 126/169/160 141/201/160 127/172/160
f 153/193/161 167/202/161 168/203/161
f 146/194/162 160/204/162 161/205/162
f 154/195/163 168/203/163 169/206/163
f 147/196/164 161/205/164 162/207/164
f 140/198/165 84/208/165 155/209/165
f 305/210/166 154/195/166 169/206/166
f 147/196/167 163/211/167 148/200/167
f 140/198/168 156/212/168 141/201/168
f 148/200/169 164/213/169 149/182/169
f 141/201/170 157/214/170 142/183/170
f 150/184/171 164/213/171 165/215/171
f 142/183/172 158/216/172 143/217/172
f 150/184/173 166/218/173 151/187/173
f 143/217/174 159/219/174 144/188/174
f 152/191/175 166/218/175 167/202/175
f 144/188/176 160/204/176 145/192/176
f 156/212/177 172/220/177 157/214/177
f 165/215/178 179/221/178 180/222/178
f 157/214/179 173/223/179 158/216/179
f 165/215/180 181/224/180 166/218/180
f 159/219/181 173/223/181 174/225/181
f 167/202/182 181/224/182 182/226/182
f 159/219/183 175/227/183 160/204/183
f 168/203/184 182/226/184 183/228/184
f 161/205/185 175/227/185 176/229/185
f 169/206/186 183/228/186 184/230/186
f 162/207/187 176/229/187 177/231/187
f 155/209/188 84/232/188 170/233/188
f 305/234/189 169/206/189 184/230/189
f 162/207/190 178/235/190 163/211/190
f 155/209/191 171/236/191 156/212/191
f 163/211/192 179/221/192 164/213/192
f 176/229/193 190/237/193 191/238/193
f 183/228/194 199/239/194 184/230/194
f 177/231/195 191/238/195 192/240/195
f 170/233/196 84/241/196 185/242/196
f 305/243/197 184/230/197 199/239/197
f 177/231/198 193/244/198 178/235/198
f 170/233/199 186/245/199 171/236/199
f 178/235/200 194/246/200 179/221/200
f 172/220/201 186/245/201 187/247/201
f 180/222/202 194/246/202 195/248/202
f 172/220/203 188/249/203 173/223/203
f 180/222/204 196/250/204 181/224/204
f 174/225/205 188/249/205 189/251/205
f 182/226/206 196/250/206 197/252/206
f 174/225/207 190/237/207 175/227/207
f 182/226/208 198/253/208 183/228/208
f 195/248/209 209/254/209 210/255/209
f 187/247/210 203/256/210 188/249/210
f 195/248/211 211/257/211 196/250/211
f 189/251/212 203/256/212 204/258/212
f 197/252/213 211/257/213 212/259/213
f 189/251/214 205/260/214 190/237/214
f 198/253/215 212/259/215 213/261/215
f 191/238/216 205/260/216 206/262/216
f 199/239/217 213/261/217 214/263/217
f 192/240/218 206/262/218 207/264/218
f 185/242/219 84/265/219 200/266/219
f 305/267/220 199/239/220 214/263/220
f 192/240/221 208/268/221 193/244/221
f 185/242/222 201/269/222 186/245/222
f 193/244/223 209/254/223 194/246/223
f 186/245/224 202/270/224 187/247/224
f 213/261/225 229/271/225 214/263/225
f 207/264/226 221/272/226 222/273/226
f 200/266/227 84/274/227 215/275/227
f 305/276/228 214/263/228 229/271/228
f 207/264/229 223/277/229 208/268/229
f 200/266/230 216/278/230 201/269/230
f 208/268/231 224/279/231 209/254/231
f 201/269/232 217/280/232 202/270/232
f 210/255/233 224/279/233 225/281/233
f 202/270/234 218/282/234 203/256/234
f 210/255/235 226/283/235 211/257/235
f 204/258/236 218/282/236 219/284/236
f 212/259/237 226/283/237 227/285/237
f 204/258/238 220/286/238 205/260/238
f 213/261/239 227/285/239 228/287/239
f 206/262/240 220/286/240 221/272/240
f 225/281/241 241/288/241 226/283/241
f 219/284/242 233/289/242 234/290/242
f 227/285/243 241/288/243 242/291/243
f 219/284/244 235/292/244 220/286/244
f 227/285/245 243/293/245 228/287/245
f 221/272/246 235/292/246 236/294/246
f 228/287/247 244/295/247 229/271/247
f 222/273/248 236/294/248 237/296/248
f 215/275/249 84/297/249 230/298/249
f 305/299/250 229/271/250 244/295/250
f 222/273/251 238/300/251 223/277/251
f 215/275/252 231/301/252 216/278/252
f 223/277/253 239/302/253 224/279/253
f 216/278/254 232/303/254 217/280/254
f 225/281/255 239/302/255 240/304/255
f 217/280/256 233/289/256 218/282/256
f 230/298/257 84/305/257 245/306/257
f 305/307/258 244/295/258 259/308/258
f 237/296/259 253/309/259 238/300/259
f 230/298/260 246/310/260 231/301/260
f 238/300/261 254/311/261 239/302/261
f 232/303/262 246/310/262 247/312/262
f 240/304/263 254/311/263 255/313/263
f 232/303/264 248/314/264 233/289/264
f 240/304/265 256/315/265 241/288/265
f 234/290/266 248/314/266 249/316/266
f 242/291/267 256/315/267 257/317/267
f 234/290/268 250/318/268 235/292/268
f 242/291/269 258/319/269 243/293/269
f 236/294/270 250/318/270 251/320/270
f 243/293/271 259/308/271 244/295/271
f 237/296/272 251/320/272 252/321/272
f 249/316/273 263/322/273 264/323/273
f 257/317/274 271/324/274 272/325/274
f 249/316/275 265/326/275 250/318/275
f 257/317/276 273/327/276 258/319/276
f 251/320/277 265/326/277 266/328/277
f 258/319/278 274/329/278 259/308/278
f 252/321/279 266/328/279 267/330/279
f 245/306/280 84/331/280 260/332/280
f 305/333/281 259/308/281 274/329/281
f 252/321/282 268/334/282 253/309/282
f 245/306/283 261/335/283 246/310/283
f 253/309/284 269/336/284 254/311/284
f 247/312/285 261/335/285 262/337/285
f 255/313/286 269/336/286 270/338/286
f 247/312/287 263/322/287 248/314/287
f 255/313/288 271/324/288 256/315/288
f 267/330/289 283/339/289 268/334/289
f 261/335/290 275/340/290 276/341/290
f 268/334/291 284/342/291 269/336/291
f 262/337/292 276/341/292 277/343/292
f 270/338/293 284/342/293 285/344/293
f 262/337/294 278/345/294 263/322/294
f 270/338/295 286/346/295 271/324/295
f 264/323/296 278/345/296 279/347/296
f 272/325/297 286/346/297 287/348/297
f 264/323/298 280/349/298 265/326/298
f 272/325/299 288/350/299 273/327/299
f 266/328/300 280/349/300 281/351/300
f 273/327/301 289/352/301 274/329/301
f 267/330/302 281/351/302 282/353/302
f 260/332/303 84/354/303 275/340/303
f 305/355/304 274/329/304 289/352/304
f 287/348/305 301/356/305 302/357/305
f 279/347/306 295/358/306 280/349/306
f 287/348/307 303/359/307 288/350/307
f 281/351/308 295/358/308 296/360/308
f 288/350/309 304/361/309 289/352/309
f 282/353/310 296/360/310 297/362/310
f 275/340/311 84/363/311 290/364/311
f 305/365/312 289/352/312 304/361/312
f 282/353/313 298/366/313 283/339/313
f 275/340/314 291/367/314 276/341/314
f 283/339/315 299/368/315 284/342/315
f 277/343/316 291/367/316 292/369/316
f 285/344/317 299/368/317 300/370/317
f 277/343/318 293/371/318 278/345/318
f 285/344/319 301/356/319 286/346/319
f 279/347/320 293/371/320 294/372/320
f 290/364/321 307/373/321 291/367/321
f 298/366/322 315/374/322 299/368/322
f 292/369/323 307/373/323 308/375/323
f 300/370/324 315/374/324 316/376/324
f 292/369/325 309/377/325 293/371/325
f 300/370/326 317/378/326 301/356/326
f 294/372/327 309/377/327 310/379/327
f 302/357/328 317/378/328 318/380/328
f 294/372/329 311/381/329 295/358/329
f 302/357/330 319/382/330 303/359/330
f 296/360/331 311/381/331 312/383/331
f 303/359/332 320/384/332 304/361/332
f 297/362/333 312/383/333 313/385/333
f 290/364/334 84/386/334 306/387/334
f 305/388/335 304/361/335 320/384/335
f 297/362/336 314/389/336 298/366/336
f 310/379/337 326/390/337 311/381/337
f 319/382/338 333/391/338 334/392/338
f 312/383/339 326/390/339 327/393/339
f 319/382/340 335/394/340 320/384/340
f 313/385/341 327/393/341 328/395/341
f 306/387/342 84/396/342 321/397/342
f 305/398/343 320/384/343 335/394/343
f 313/385/344 329/399/344 314/389/344
f 307/373/345 321/397/345 322/400/345
f 314/389/346 330/401/346 315/374/346
f 307/373/347 323/402/347 308/375/347
f 316/376/348 330/401/348 331/403/348
f 308/375/349 324/404/349 309/377/349
f 316/376/350 332/405/350 317/378/350
f 310/379/351 324/404/351 325/406/351
f 318/380/352 332/405/352 333/391/352
f 329/399/353 344/407/353 330/401/353
f 322/400/354 338/408/354 323/402/354
f 331/403/355 344/407/355 345/409/355
f 324/404/356 323/402/356 519/410/356
f 331/403/357 346/411/357 332/405/357
f 325/406/358 526/412/358 529/413/358
f 333/391/359 346/411/359 347/414/359
f 325/406/360 340/415/360 326/390/360
f 334/392/361 347/414/361 348/416/361
f 327/393/362 340/415/362 341/417/362
f 334/392/363 349/418/363 335/394/363
f 328/395/364 341/417/364 342/419/364
f 321/397/365 84/420/365 336/421/365
f 305/422/366 335/394/366 349/418/366
f 328/395/367 343/423/367 329/399/367
f 321/397/368 337/424/368 322/400/368
f 347/414/369 360/425/369 348/416/369
f 341/417/370 352/426/370 353/427/370
f 348/416/371 361/428/371 349/418/371
f 342/419/372 353/427/372 354/429/372
f 336/421/373 84/430/373 350/431/373
f 305/432/374 349/418/374 361/428/374
f 342/419/375 355/433/375 343/423/375
f 337/424/376 350/431/376 351/434/376
f 343/423/377 356/435/377 344/407/377
f 337/424/378 535/436/378 532/437/378
f 345/409/379 356/435/379 357/438/379
f 533/439/380 524/440/380 338/408/380
f 345/409/381 358/441/381 346/411/381
f 537/442/382 339/443/382 531/444/382
f 347/414/383 358/441/383 359/445/383
f 340/415/384 540/446/384 539/447/384
f 357/448/385 370/449/385 371/450/385
f 543/451/386 364/452/386 544/453/386
f 357/448/387 372/454/387 358/455/387
f 365/456/388 546/457/388 545/458/388
f 359/459/389 372/454/389 373/460/389
f 366/461/390 549/462/390 548/463/390
f 359/459/391 374/464/391 360/465/391
f 353/466/392 366/461/392 367/467/392
f 361/468/393 374/464/393 375/469/393
f 354/470/394 367/467/394 368/471/394
f 350/472/395 84/473/395 362/474/395
f 305/475/396 361/468/396 375/469/396
f 354/470/397 369/476/397 355/477/397
f 350/472/398 363/478/398 351/479/398
f 355/477/399 370/449/399 356/480/399
f 351/479/400 364/452/400 551/481/400
f 375/469/401 389/482/401 390/483/401
f 368/471/402 382/484/402 383/485/402
f 362/474/403 84/486/403 376/487/403
f 305/488/404 375/469/404 390/483/404
f 368/471/405 384/489/405 369/476/405
f 362/474/406 377/490/406 363/478/406
f 369/476/407 385/491/407 370/449/407
f 364/452/408 377/490/408 378/492/408
f 371/450/409 385/491/409 386/493/409
f 378/492/410 557/494/410 556/495/410
f 371/450/411 387/496/411 372/454/411
f 380/497/412 561/498/412 562/499/412
f 373/460/413 387/496/413 388/500/413
f 365/456/414 381/501/414 366/461/414
f 373/460/415 389/482/415 374/464/415
f 367/467/416 381/501/416 382/484/416
f 378/492/417 394/502/417 379/503/417
f 386/493/418 402/504/418 387/496/418
f 380/497/419 394/502/419 395/505/419
f 388/500/420 402/504/420 403/506/420
f 380/497/421 396/507/421 381/501/421
f 388/500/422 404/508/422 389/482/422
f 382/484/423 396/507/423 397/509/423
f 390/483/424 404/508/424 405/510/424
f 383/485/425 397/509/425 398/511/425
f 376/487/426 84/512/426 391/513/426
f 305/514/427 390/483/427 405/510/427
f 383/485/428 399/515/428 384/489/428
f 376/487/429 392/516/429 377/490/429
f 384/489/430 400/517/430 385/491/430
f 377/490/431 393/518/431 378/492/431
f 386/493/432 400/517/432 401/519/432
f 398/511/433 412/520/433 413/521/433
f 391/513/434 84/522/434 406/523/434
f 305/524/435 405/510/435 420/525/435
f 398/511/436 414/526/436 399/515/436
f 391/513/437 407/527/437 392/516/437
f 399/515/438 415/528/438 400/517/438
f 392/516/439 408/529/439 393/518/439
f 401/519/440 415/528/440 416/530/440
f 393/518/441 409/531/441 394/502/441
f 401/519/442 417/532/442 402/504/442
f 395/505/443 409/531/443 410/533/443
f 403/506/444 417/532/444 418/534/444
f 395/505/445 411/535/445 396/507/445
f 403/506/446 419/536/446 404/508/446
f 397/509/447 411/535/447 412/520/447
f 404/508/448 420/525/448 405/510/448
f 416/530/449 432/537/449 417/532/449
f 410/533/450 424/538/450 425/539/450
f 418/534/451 432/537/451 433/540/451
f 410/533/452 426/541/452 411/535/452
f 418/534/453 434/542/453 419/536/453
f 412/520/454 426/541/454 427/543/454
f 419/536/455 435/544/455 420/525/455
f 413/521/456 427/543/456 428/545/456
f 406/523/457 84/546/457 421/547/457
f 305/548/458 420/525/458 435/544/458
f 413/521/459 429/549/459 414/526/459
f 406/523/460 422/550/460 407/527/460
f 414/526/461 430/551/461 415/528/461
f 408/529/462 422/550/462 423/552/462
f 416/530/463 430/551/463 431/553/463
f 408/529/464 424/538/464 409/531/464
f 421/547/465 84/554/465 436/555/465
f 305/556/466 435/544/466 450/557/466
f 428/545/467 444/558/467 429/549/467
f 421/547/468 437/559/468 422/550/468
f 429/549/469 445/560/469 430/551/469
f 423/552/470 437/559/470 438/561/470
f 431/553/471 445/560/471 446/562/471
f 423/552/472 439/563/472 424/538/472
f 431/553/473 447/564/473 432/537/473
f 425/539/474 439/563/474 440/565/474
f 433/540/475 447/564/475 448/566/475
f 425/539/476 441/567/476 426/541/476
f 433/540/477 449/568/477 434/542/477
f 427/543/478 441/567/478 442/569/478
f 435/544/479 449/568/479 450/557/479
f 428/545/480 442/569/480 443/570/480
f 440/565/481 454/571/481 455/572/481
f 448/566/482 462/573/482 463/574/482
f 440/565/483 456/575/483 441/567/483
f 449/568/484 463/574/484 464/576/484
f 442/569/485 456/575/485 457/577/485
f 450/557/486 464/576/486 465/578/486
f 443/570/487 457/577/487 458/579/487
f 436/555/488 84/580/488 451/581/488
f 305/582/489 450/557/489 465/578/489
f 443/570/490 459/583/490 444/558/490
f 436/555/491 452/584/491 437/559/491
f 444/558/492 460/585/492 445/560/492
f 437/559/493 453/586/493 438/561/493
f 446/562/494 460/585/494 461/587/494
f 438/561/495 454/571/495 439/563/495
f 446/562/496 462/573/496 447/564/496
f 458/579/497 5/4/497 459/583/497
f 452/584/498 466/31/498 467/7/498
f 459/583/499 470/11/499 460/585/499
f 453/586/500 467/7/500 1/12/500
f 460/585/501 6/15/501 461/587/501
f 454/571/502 1/12/502 468/16/502
f 461/587/503 471/18/503 462/573/503
f 455/572/504 468/16/504 2/21/504
f 463/574/505 471/18/505 472/23/505
f 456/575/506 2/21/506 469/24/506
f 463/574/507 473/27/507 464/576/507
f 457/577/508 469/24/508 3/29/508
f 464/576/509 474/2/509 465/578/509
f 458/579/510 3/29/510 4/30/510
f 451/581/511 84/588/511 466/31/511
f 305/589/512 465/578/512 474/2/512
f 483/590/513 33/288/513 482/591/513
f 482/591/514 33/288/514 486/592/514
f 486/592/515 33/288/515 487/593/515
f 33/288/516 484/594/516 487/593/516
f 485/595/517 33/288/517 493/596/517
f 33/288/518 495/597/518 496/598/518
f 33/288/519 494/599/519 495/597/519
f 494/599/520 33/288/520 498/600/520
f 33/288/521 497/600/521 498/600/521
f 502/601/522 33/288/522 499/602/522
f 499/602/523 33/288/523 500/603/523
f 33/288/524 507/604/524 501/605/524
f 516/606/525 33/288/525 517/607/525
f 518/608/526 517/607/526 33/288/526
f 518/608/527 33/288/527 514/609/527
f 515/610/528 514/609/528 33/288/528
f 513/611/529 33/288/529 512/612/529
f 510/613/530 512/612/530 33/288/530
f 511/614/531 510/613/531 33/288/531
f 511/614/532 33/288/532 508/615/532
f 509/616/533 508/615/533 33/288/533
f 33/288/534 505/617/534 506/618/534
f 503/619/535 504/620/535 33/288/535
f 33/288/536 489/621/536 503/619/536
f 490/622/537 488/623/537 33/288/537
f 492/624/538 490/622/538 33/288/538
f 491/625/539 33/288/539 478/626/539
f 477/627/540 475/628/540 33/288/540
f 476/629/541 477/627/541 33/288/541
f 476/629/542 33/288/542 481/630/542
f 481/630/543 33/288/543 480/631/543
f 479/632/544 33/288/544 483/590/544
f 68/288/545 559/633/545 560/634/545
f 68/288/546 560/634/546 562/635/546
f 68/288/547 562/635/547 561/636/547
f 68/288/548 561/636/548 558/637/548
f 68/288/549 545/638/549 546/639/549
f 68/288/550 548/640/550 549/641/550
f 68/288/551 549/641/551 547/642/551
f 68/288/552 542/643/552 541/644/552
f 539/645/553 68/288/553 541/644/553
f 539/645/554 540/646/554 68/288/554
f 540/646/555 538/647/555 68/288/555
f 68/288/556 537/648/556 531/649/556
f 528/650/557 68/288/557 530/651/557
f 68/288/558 528/650/558 529/652/558
f 68/288/559 529/652/559 526/653/559
f 68/288/560 526/653/560 527/654/560
f 68/288/561 523/655/561 522/656/561
f 68/288/562 522/656/562 525/657/562
f 68/288/563 525/657/563 519/658/563
f 68/288/564 519/658/564 520/659/564
f 68/288/565 520/659/565 521/660/565
f 533/661/566 68/288/566 524/662/566
f 68/288/567 532/663/567 535/664/567
f 68/288/568 535/664/568 534/665/568
f 68/288/569 536/666/569 550/667/569
f 551/668/570 68/288/570 550/667/570
f 68/288/571 543/669/571 544/670/571
f 552/671/572 68/288/572 553/672/572
f 556/673/573 68/288/573 552/671/573
f 68/288/574 556/673/574 557/674/574
f 68/288/575 557/674/575 555/675/575
f 68/288/576 554/676/576 559/633/576
f 5/4/577 4/30/577 14/5/577
f 467/7/3 466/31/3 7/8/3
f 5/4/4 15/6/4 16/10/4
f 1/12/5 467/7/5 8/9/5
f 470/11/6 16/10/6 17/14/6
f 468/16/7 1/12/7 9/13/7
f 471/18/8 6/15/8 17/14/8
f 468/16/9 10/17/9 11/20/9
f 471/18/10 18/19/10 19/22/10
f 469/24/11 2/21/11 11/20/11
f 472/23/12 19/22/12 20/26/12
f 469/24/13 12/25/13 13/28/13
f 473/27/14 20/26/14 21/3/14
f 3/29/578 13/28/578 14/5/578
f 20/26/17 36/48/17 37/33/17
f 13/28/18 28/49/18 29/34/18
f 14/5/21 29/34/21 30/38/21
f 8/9/22 7/8/22 22/36/22
f 15/6/23 30/38/23 31/40/23
f 8/9/24 23/39/24 24/41/24
f 16/10/25 31/40/25 32/42/25
f 9/13/26 24/41/26 25/43/26
f 18/19/27 17/14/27 32/42/27
f 10/17/28 25/43/28 26/45/28
f 18/19/29 34/44/29 35/46/29
f 11/20/30 26/45/30 27/47/30
f 19/22/31 35/46/31 36/48/31
f 13/28/32 12/25/32 27/47/32
f 24/41/33 40/65/33 41/50/33
f 32/42/34 48/66/34 49/51/34
f 25/43/35 41/50/35 42/52/35
f 34/44/36 49/51/36 50/53/36
f 26/45/37 42/52/37 43/54/37
f 35/46/38 50/53/38 51/55/38
f 28/49/39 27/47/39 43/54/39
f 36/48/40 51/55/40 52/57/40
f 28/49/579 44/56/579 45/58/579
f 30/38/580 29/34/580 45/58/580
f 22/36/45 38/60/45 39/63/45
f 30/38/46 46/62/46 47/64/46
f 24/41/47 23/39/47 39/63/47
f 32/42/48 31/40/48 47/64/48
f 45/58/49 44/56/49 59/67/49
f 45/58/52 60/68/52 61/73/52
f 38/60/53 53/70/53 54/74/53
f 46/62/54 61/73/54 62/75/54
f 39/63/55 54/74/55 55/76/55
f 47/64/56 62/75/56 63/77/56
f 40/65/57 55/76/57 56/78/57
f 48/66/58 63/77/58 64/79/58
f 42/52/59 41/50/59 56/78/59
f 49/51/60 64/79/60 65/81/60
f 42/52/61 57/80/61 58/82/61
f 50/53/62 65/81/62 66/83/62
f 44/56/63 43/54/63 58/82/63
f 52/57/64 51/55/64 66/83/64
f 63/77/65 79/100/65 80/84/65
f 57/80/66 56/78/66 72/85/66
f 65/81/67 64/79/67 80/84/67
f 57/80/68 73/86/68 74/88/68
f 65/81/69 81/87/69 82/89/69
f 59/67/70 58/82/70 74/88/70
f 66/83/71 82/89/71 83/91/71
f 60/68/72 59/67/72 75/90/72
f 60/68/75 76/92/75 77/96/75
f 54/74/76 53/70/76 69/94/76
f 61/73/77 77/96/77 78/98/77
f 55/76/78 54/74/78 70/97/78
f 63/77/79 62/75/79 78/98/79
f 55/76/80 71/99/80 72/85/80
f 76/92/82 92/115/82 93/103/82
f 69/94/83 85/117/83 86/104/83
f 77/96/84 93/103/84 94/105/84
f 71/99/581 70/97/581 86/104/581
f 79/100/86 78/98/86 94/105/86
f 71/99/87 87/106/87 88/108/87
f 79/100/88 95/107/88 96/109/88
f 73/86/89 72/85/89 88/108/89
f 80/84/90 96/109/90 97/111/90
f 73/86/91 89/110/91 90/112/91
f 82/89/92 81/87/92 97/111/92
f 75/90/93 74/88/93 90/112/93
f 82/89/94 98/113/94 99/102/94
f 76/92/95 75/90/95 91/114/95
f 97/111/97 96/109/97 110/118/97
f 89/110/98 103/146/98 104/120/98
f 97/111/99 111/119/99 112/121/99
f 91/114/100 90/112/100 104/120/100
f 98/113/101 112/121/101 113/123/101
f 92/115/102 91/114/102 105/122/102
f 92/115/105 106/124/105 107/128/105
f 85/117/106 100/126/106 101/129/106
f 93/103/107 107/128/107 108/130/107
f 87/106/108 86/104/108 101/129/108
f 95/107/109 94/105/109 108/130/109
f 480/677/110 479/678/110 88/108/110
f 87/106/110 102/131/110 478/143/110
f 87/106/110 478/143/110 475/679/110
f 480/677/110 88/108/110 87/106/110
f 481/680/110 480/677/110 87/106/110
f 87/106/110 475/679/110 477/133/110
f 476/134/110 481/680/110 87/106/110
f 95/107/111 109/132/111 110/118/111
f 485/147/112 103/146/112 89/110/112
f 89/110/112 88/108/112 479/678/112
f 89/110/112 479/678/112 483/681/112
f 484/682/112 485/147/112 89/110/112
f 487/683/112 484/682/112 89/110/112
f 89/110/112 483/681/112 482/135/112
f 486/136/112 487/683/112 89/110/112
f 100/126/113 114/157/113 115/137/113
f 107/128/114 119/159/114 120/138/114
f 491/142/115 102/131/115 101/129/115
f 101/129/115 115/137/115 489/684/115
f 101/129/582 489/684/582 488/684/582
f 492/140/115 491/142/115 101/129/115
f 101/129/115 488/684/115 490/139/115
f 109/132/116 108/130/116 120/138/116
f 109/132/118 121/141/118 122/144/118
f 111/119/120 110/118/120 122/144/120
f 494/150/583 498/685/583 497/685/583
f 497/685/121 116/152/121 104/120/121
f 104/120/121 103/146/121 493/145/121
f 104/120/121 493/145/121 496/686/121
f 494/150/121 497/685/121 104/120/121
f 104/120/121 496/686/121 495/149/121
f 111/119/122 123/148/122 124/151/122
f 105/122/123 104/120/123 116/152/123
f 113/123/124 112/121/124 124/151/124
f 106/124/584 105/122/584 117/153/584
f 106/124/585 118/155/585 119/159/585
f 500/687/129 501/181/129 129/160/129
f 129/160/129 130/164/129 116/152/129
f 116/152/129 497/685/129 502/688/129
f 499/161/129 500/687/129 129/160/129
f 116/152/129 502/688/129 499/161/129
f 124/151/130 123/148/130 137/162/130
f 117/153/131 116/152/131 130/164/131
f 125/154/132 124/151/132 138/163/132
f 118/155/586 117/153/586 131/165/586
f 118/155/587 132/167/587 133/171/587
f 114/157/137 126/169/137 127/172/137
f 119/159/138 133/171/138 134/173/138
f 503/689/139 489/684/139 115/137/139
f 115/137/139 127/172/139 128/174/139
f 128/174/139 505/177/139 504/175/139
f 504/175/139 503/689/139 115/137/139
f 121/141/140 120/138/140 134/173/140
f 121/141/142 135/176/142 136/179/142
f 123/148/144 122/144/144 136/179/144
f 133/171/145 148/200/145 149/182/145
f 127/172/146 141/201/146 142/183/146
f 135/176/147 134/173/147 149/182/147
f 509/690/148 506/178/148 128/174/148
f 143/217/148 513/691/148 512/692/148
f 143/217/148 512/692/148 510/185/148
f 509/690/148 128/174/148 142/183/148
f 508/693/148 509/690/148 142/183/148
f 142/183/148 143/217/148 510/185/148
f 511/186/148 508/693/148 142/183/148
f 135/176/149 150/184/149 151/187/149
f 513/691/150 143/217/150 144/188/150
f 144/188/150 129/160/150 507/180/150
f 144/188/150 507/180/150 516/694/150
f 515/695/150 513/691/150 144/188/150
f 514/696/150 515/695/150 144/188/150
f 144/188/150 516/694/150 517/189/150
f 518/190/150 514/696/150 144/188/150
f 137/162/151 136/179/151 151/187/151
f 129/160/152 144/188/152 145/192/152
f 138/163/153 137/162/153 152/191/153
f 131/165/154 130/164/154 145/192/154
f 139/166/155 138/163/155 153/193/155
f 132/167/156 131/165/156 146/194/156
f 132/167/159 147/196/159 148/200/159
f 126/169/160 140/198/160 141/201/160
f 153/193/161 152/191/161 167/202/161
f 146/194/162 145/192/162 160/204/162
f 154/195/163 153/193/163 168/203/163
f 147/196/164 146/194/164 161/205/164
f 147/196/167 162/207/167 163/211/167
f 140/198/168 155/209/168 156/212/168
f 148/200/169 163/211/169 164/213/169
f 141/201/170 156/212/170 157/214/170
f 150/184/171 149/182/171 164/213/171
f 142/183/172 157/214/172 158/216/172
f 150/184/173 165/215/173 166/218/173
f 143/217/174 158/216/174 159/219/174
f 152/191/175 151/187/175 166/218/175
f 144/188/176 159/219/176 160/204/176
f 156/212/177 171/236/177 172/220/177
f 165/215/178 164/213/178 179/221/178
f 157/214/179 172/220/179 173/223/179
f 165/215/180 180/222/180 181/224/180
f 159/219/181 158/216/181 173/223/181
f 167/202/182 166/218/182 181/224/182
f 159/219/183 174/225/183 175/227/183
f 168/203/184 167/202/184 182/226/184
f 161/205/185 160/204/185 175/227/185
f 169/206/588 168/203/588 183/228/588
f 162/207/187 161/205/187 176/229/187
f 162/207/190 177/231/190 178/235/190
f 155/209/589 170/233/589 171/236/589
f 163/211/192 178/235/192 179/221/192
f 176/229/193 175/227/193 190/237/193
f 183/228/194 198/253/194 199/239/194
f 177/231/195 176/229/195 191/238/195
f 177/231/198 192/240/198 193/244/198
f 170/233/199 185/242/199 186/245/199
f 178/235/200 193/244/200 194/246/200
f 172/220/201 171/236/201 186/245/201
f 180/222/202 179/221/202 194/246/202
f 172/220/203 187/247/203 188/249/203
f 180/222/204 195/248/204 196/250/204
f 174/225/205 173/223/205 188/249/205
f 182/226/206 181/224/206 196/250/206
f 174/225/207 189/251/207 190/237/207
f 182/226/208 197/252/208 198/253/208
f 195/248/209 194/246/209 209/254/209
f 187/247/210 202/270/210 203/256/210
f 195/248/211 210/255/211 211/257/211
f 189/251/212 188/249/212 203/256/212
f 197/252/213 196/250/213 211/257/213
f 189/251/214 204/258/214 205/260/214
f 198/253/590 197/252/590 212/259/590
f 191/238/216 190/237/216 205/260/216
f 199/239/217 198/253/217 213/261/217
f 192/240/218 191/238/218 206/262/218
f 192/240/221 207/264/221 208/268/221
f 185/242/222 200/266/222 201/269/222
f 193/244/223 208/268/223 209/254/223
f 186/245/591 201/269/591 202/270/591
f 213/261/225 228/287/225 229/271/225
f 207/264/226 206/262/226 221/272/226
f 207/264/229 222/273/229 223/277/229
f 200/266/230 215/275/230 216/278/230
f 208/268/231 223/277/231 224/279/231
f 201/269/232 216/278/232 217/280/232
f 210/255/233 209/254/233 224/279/233
f 202/270/234 217/280/234 218/282/234
f 210/255/235 225/281/235 226/283/235
f 204/258/236 203/256/236 218/282/236
f 212/259/237 211/257/237 226/283/237
f 204/258/238 219/284/238 220/286/238
f 213/261/239 212/259/239 227/285/239
f 206/262/240 205/260/240 220/286/240
f 225/281/241 240/304/241 241/288/241
f 219/284/242 218/282/242 233/289/242
f 227/285/243 226/283/243 241/288/243
f 219/284/244 234/290/244 235/292/244
f 227/285/245 242/291/245 243/293/245
f 221/272/246 220/286/246 235/292/246
f 228/287/247 243/293/247 244/295/247
f 222/273/248 221/272/248 236/294/248
f 222/273/251 237/296/251 238/300/251
f 215/275/252 230/298/252 231/301/252
f 223/277/253 238/300/253 239/302/253
f 216/278/254 231/301/254 232/303/254
f 225/281/255 224/279/255 239/302/255
f 217/280/256 232/303/256 233/289/256
f 237/296/592 252/321/592 253/309/592
f 230/298/260 245/306/260 246/310/260
f 238/300/261 253/309/261 254/311/261
f 232/303/262 231/301/262 246/310/262
f 240/304/263 239/302/263 254/311/263
f 232/303/264 247/312/264 248/314/264
f 240/304/265 255/313/265 256/315/265
f 234/290/266 233/289/266 248/314/266
f 242/291/267 241/288/267 256/315/267
f 234/290/268 249/316/268 250/318/268
f 242/291/269 257/317/269 258/319/269
f 236/294/270 235/292/270 250/318/270
f 243/293/271 258/319/271 259/308/271
f 237/296/593 236/294/593 251/320/593
f 249/316/273 248/314/273 263/322/273
f 257/317/274 256/315/274 271/324/274
f 249/316/275 264/323/275 265/326/275
f 257/317/276 272/325/276 273/327/276
f 251/320/277 250/318/277 265/326/277
f 258/319/278 273/327/278 274/329/278
f 252/321/279 251/320/279 266/328/279
f 252/321/282 267/330/282 268/334/282
f 245/306/283 260/332/283 261/335/283
f 253/309/284 268/334/284 269/336/284
f 247/312/285 246/310/285 261/335/285
f 255/313/286 254/311/286 269/336/286
f 247/312/287 262/337/287 263/322/287
f 255/313/288 270/338/288 271/324/288
f 267/330/289 282/353/289 283/339/289
f 261/335/290 260/332/290 275/340/290
f 268/334/291 283/339/291 284/342/291
f 262/337/594 261/335/594 276/341/594
f 270/338/293 269/336/293 284/342/293
f 262/337/294 277/343/294 278/345/294
f 270/338/295 285/344/295 286/346/295
f 264/323/296 263/322/296 278/345/296
f 272/325/297 271/324/297 286/346/297
f 264/323/298 279/347/298 280/349/298
f 272/325/595 287/348/595 288/350/595
f 266/328/300 265/326/300 280/349/300
f 273/327/301 288/350/301 289/352/301
f 267/330/302 266/328/302 281/351/302
f 287/348/305 286/346/305 301/356/305
f 279/347/306 294/372/306 295/358/306
f 287/348/307 302/357/307 303/359/307
f 281/351/308 280/349/308 295/358/308
f 288/350/309 303/359/309 304/361/309
f 282/353/310 281/351/310 296/360/310
f 282/353/313 297/362/313 298/366/313
f 275/340/314 290/364/314 291/367/314
f 283/339/315 298/366/315 299/368/315
f 277/343/316 276/341/316 291/367/316
f 285/344/317 284/342/317 299/368/317
f 277/343/318 292/369/318 293/371/318
f 285/344/319 300/370/319 301/356/319
f 279/347/320 278/345/320 293/371/320
f 290/364/321 306/387/321 307/373/321
f 298/366/322 314/389/322 315/374/322
f 292/369/323 291/367/323 307/373/323
f 300/370/324 299/368/324 315/374/324
f 292/369/325 308/375/325 309/377/325
f 300/370/326 316/376/326 317/378/326
f 294/372/327 293/371/327 309/377/327
f 302/357/328 301/356/328 317/378/328
f 294/372/329 310/379/329 311/381/329
f 302/357/330 318/380/330 319/382/330
f 296/360/331 295/358/331 311/381/331
f 303/359/596 319/382/596 320/384/596
f 297/362/333 296/360/333 312/383/333
f 297/362/336 313/385/336 314/389/336
f 310/379/337 325/406/337 326/390/337
f 319/382/338 318/380/338 333/391/338
f 312/383/339 311/381/339 326/390/339
f 319/382/340 334/392/340 335/394/340
f 313/385/341 312/383/341 327/393/341
f 313/385/344 328/395/344 329/399/344
f 307/373/345 306/387/345 321/397/345
f 314/389/346 329/399/346 330/401/346
f 307/373/347 322/400/347 323/402/347
f 316/376/348 315/374/348 330/401/348
f 308/375/349 323/402/349 324/404/349
f 316/376/350 331/403/350 332/405/350
f 310/379/351 309/377/351 324/404/351
f 318/380/352 317/378/352 332/405/352
f 329/399/353 343/423/353 344/407/353
f 322/400/354 337/424/354 338/408/354
f 331/403/355 330/401/355 344/407/355
f 323/402/356 338/408/356 524/440/356
f 323/402/356 524/440/356 521/697/356
f 522/698/356 523/699/356 324/404/356
f 525/700/356 522/698/356 324/404/356
f 323/402/356 521/697/356 520/701/356
f 519/410/356 525/700/356 324/404/356
f 323/402/356 520/701/356 519/410/356
f 331/403/357 345/409/357 346/411/357
f 530/702/358 531/444/358 339/443/358
f 325/406/358 324/404/358 523/699/358
f 325/406/358 523/699/358 527/703/358
f 530/702/358 339/443/358 325/406/358
f 528/704/358 530/702/358 325/406/358
f 325/406/358 527/703/358 526/412/358
f 529/413/358 528/704/358 325/406/358
f 333/391/359 332/405/359 346/411/359
f 325/406/360 339/443/360 340/415/360
f 334/392/361 333/391/361 347/414/361
f 327/393/362 326/390/362 340/415/362
f 334/392/363 348/416/363 349/418/363
f 328/395/364 327/393/364 341/417/364
f 328/395/367 342/419/367 343/423/367
f 321/397/368 336/421/368 337/424/368
f 347/414/369 359/445/369 360/425/369
f 341/417/370 340/415/370 352/426/370
f 348/416/371 360/425/371 361/428/371
f 342/419/597 341/417/597 353/427/597
f 342/419/598 354/429/598 355/433/598
f 337/424/376 336/421/376 350/431/376
f 343/423/377 355/433/377 356/435/377
f 533/439/378 338/408/378 337/424/378
f 337/424/378 351/434/378 536/705/378
f 337/424/599 536/705/599 534/705/599
f 532/437/378 533/439/378 337/424/378
f 337/424/378 534/705/378 535/436/378
f 345/409/379 344/407/379 356/435/379
f 345/409/381 357/438/381 358/441/381
f 347/414/383 346/411/383 358/441/383
f 542/706/384 352/426/384 340/415/384
f 340/415/384 339/443/384 537/442/384
f 340/415/384 537/442/384 538/707/384
f 541/706/600 542/706/600 340/415/600
f 539/447/384 541/706/384 340/415/384
f 340/415/384 538/707/384 540/446/384
f 357/448/385 356/480/385 370/449/385
f 357/448/387 371/450/387 372/454/387
f 359/459/389 358/455/389 372/454/389
f 546/457/390 365/456/390 366/461/390
f 366/461/390 352/708/390 542/709/390
f 366/461/390 542/709/390 547/710/390
f 548/463/390 546/457/390 366/461/390
f 366/461/390 547/710/390 549/462/390
f 359/459/391 373/460/391 374/464/391
f 353/466/392 352/708/392 366/461/392
f 361/468/393 360/465/393 374/464/393
f 354/470/601 353/466/601 367/467/601
f 354/470/602 368/471/602 369/476/602
f 350/472/398 362/474/398 363/478/398
f 355/477/399 369/476/399 370/449/399
f 550/711/400 536/712/400 351/479/400
f 351/479/400 363/478/400 364/452/400
f 364/452/400 543/451/400 551/481/400
f 551/481/400 550/711/400 351/479/400
f 375/469/401 374/464/401 389/482/401
f 368/471/402 367/467/402 382/484/402
f 368/471/405 383/485/405 384/489/405
f 362/474/406 376/487/406 377/490/406
f 369/476/407 384/489/407 385/491/407
f 364/452/408 363/478/408 377/490/408
f 371/450/409 370/449/409 385/491/409
f 553/713/410 544/453/410 364/452/410
f 379/503/410 554/714/410 555/715/410
f 379/503/410 555/715/410 557/494/410
f 553/713/410 364/452/410 378/492/410
f 552/716/410 553/713/410 378/492/410
f 378/492/410 379/503/410 557/494/410
f 556/495/410 552/716/410 378/492/410
f 371/450/411 386/493/411 387/496/411
f 559/717/412 554/714/412 379/503/412
f 380/497/412 365/456/412 545/458/412
f 380/497/412 545/458/412 558/718/412
f 559/717/412 379/503/412 380/497/412
f 560/719/412 559/717/412 380/497/412
f 380/497/412 558/718/412 561/498/412
f 562/499/412 560/719/412 380/497/412
f 373/460/413 372/454/413 387/496/413
f 365/456/414 380/497/414 381/501/414
f 373/460/415 388/500/415 389/482/415
f 367/467/416 366/461/416 381/501/416
f 378/492/417 393/518/417 394/502/417
f 386/493/418 401/519/418 402/504/418
f 380/497/419 379/503/419 394/502/419
f 388/500/420 387/496/420 402/504/420
f 380/497/421 395/505/421 396/507/421
f 388/500/422 403/506/422 404/508/422
f 382/484/423 381/501/423 396/507/423
f 390/483/603 389/482/603 404/508/603
f 383/485/425 382/484/425 397/509/425
f 383/485/428 398/511/428 399/515/428
f 376/487/429 391/513/429 392/516/429
f 384/489/430 399/515/430 400/517/430
f 377/490/431 392/516/431 393/518/431
f 386/493/432 385/491/432 400/517/432
f 398/511/433 397/509/433 412/520/433
f 398/511/436 413/521/436 414/526/436
f 391/513/437 406/523/437 407/527/437
f 399/515/438 414/526/438 415/528/438
f 392/516/439 407/527/439 408/529/439
f 401/519/440 400/517/440 415/528/440
f 393/518/441 408/529/441 409/531/441
f 401/519/442 416/530/442 417/532/442
f 395/505/443 394/502/443 409/531/443
f 403/506/444 402/504/444 417/532/444
f 395/505/445 410/533/445 411/535/445
f 403/506/446 418/534/446 419/536/446
f 397/509/447 396/507/447 411/535/447
f 404/508/448 419/536/448 420/525/448
f 416/530/449 431/553/449 432/537/449
f 410/533/450 409/531/450 424/538/450
f 418/534/451 417/532/451 432/537/451
f 410/533/452 425/539/452 426/541/452
f 418/534/453 433/540/453 434/542/453
f 412/520/454 411/535/454 426/541/454
f 419/536/455 434/542/455 435/544/455
f 413/521/456 412/520/456 427/543/456
f 413/521/459 428/545/459 429/549/459
f 406/523/460 421/547/460 422/550/460
f 414/526/461 429/549/461 430/551/461
f 408/529/462 407/527/462 422/550/462
f 416/530/463 415/528/463 430/551/463
f 408/529/464 423/552/464 424/538/464
f 428/545/467 443/570/467 444/558/467
f 421/547/468 436/555/468 437/559/468
f 429/549/469 444/558/469 445/560/469
f 423/552/604 422/550/604 437/559/604
f 431/553/471 430/551/471 445/560/471
f 423/552/472 438/561/472 439/563/472
f 431/553/473 446/562/473 447/564/473
f 425/539/474 424/538/474 439/563/474
f 433/540/475 432/537/475 447/564/475
f 425/539/476 440/565/476 441/567/476
f 433/540/605 448/566/605 449/568/605
f 427/543/478 426/541/478 441/567/478
f 435/544/479 434/542/479 449/568/479
f 428/545/480 427/543/480 442/569/480
f 440/565/481 439/563/481 454/571/481
f 448/566/482 447/564/482 462/573/482
f 440/565/483 455/572/483 456/575/483
f 449/568/484 448/566/484 463/574/484
f 442/569/485 441/567/485 456/575/485
f 450/557/486 449/568/486 464/576/486
f 443/570/487 442/569/487 457/577/487
f 443/570/490 458/579/490 459/583/490
f 436/555/491 451/581/491 452/584/491
f 444/558/492 459/583/492 460/585/492
f 437/559/493 452/584/493 453/586/493
f 446/562/494 445/560/494 460/585/494
f 438/561/495 453/586/495 454/571/495
f 446/562/496 461/587/496 462/573/496
f 458/579/497 4/30/497 5/4/497
f 452/584/498 451/581/498 466/31/498
f 459/583/499 5/4/499 470/11/499
f 453/586/500 452/584/500 467/7/500
f 460/585/501 470/11/501 6/15/501
f 454/571/502 453/586/502 1/12/502
f 461/587/503 6/15/503 471/18/503
f 455/572/504 454/571/504 468/16/504
f 463/574/505 462/573/505 471/18/505
f 456/575/506 455/572/506 2/21/506
f 463/574/507 472/23/507 473/27/507
f 457/577/508 456/575/508 469/24/508
f 464/576/509 473/27/509 474/2/509
f 458/579/510 457/577/510 3/29/510
f 485/595/517 484/594/517 33/288/517
f 33/288/517 496/598/517 493/596/517
f 33/288/606 502/601/606 497/600/606
f 501/605/524 500/603/524 33/288/524
f 33/288/524 516/606/524 507/604/524
f 513/611/529 515/610/529 33/288/529
f 506/618/534 509/616/534 33/288/534
f 33/288/534 504/620/534 505/617/534
f 33/288/607 488/623/607 489/621/607
f 491/625/539 492/624/539 33/288/539
f 33/288/539 475/628/539 478/626/539
f 479/632/544 480/631/544 33/288/544
f 68/288/608 558/637/608 545/638/608
f 546/639/549 548/640/549 68/288/549
f 68/288/609 547/642/609 542/643/609
f 531/649/556 530/651/556 68/288/556
f 68/288/556 538/647/556 537/648/556
f 68/288/561 527/654/561 523/655/561
f 533/661/566 532/663/566 68/288/566
f 68/288/566 521/660/566 524/662/566
f 68/288/610 534/665/610 536/666/610
f 544/670/571 553/672/571 68/288/571
f 68/288/571 551/668/571 543/669/571
f 68/288/576 555/675/576 554/676/576
