# Blender 4.4.3
# www.blender.org
mtllib player_attackEffect.mtl
o 球
v 0.000000 0.750000 0.018636
v -0.009755 0.735589 -0.268376
v -0.019134 0.692910 -0.544359
v -0.027778 0.623602 -0.798707
v -0.035355 0.530330 -1.021644
v -0.041573 0.416678 -1.204604
v -0.046194 0.287013 -1.340555
v -0.049039 0.146318 -1.424274
v -0.050000 0.000000 -1.452542
v -0.049039 -0.146318 -1.424274
v -0.046194 -0.287013 -1.340555
v -0.041573 -0.416678 -1.204604
v -0.035355 -0.530330 -1.021644
v -0.027778 -0.623602 -0.798707
v -0.019134 -0.692910 -0.544359
v -0.009755 -0.735589 -0.268376
v -0.000000 0.735589 -0.273999
v -0.000000 0.692910 -0.555389
v -0.000000 0.623602 -0.814719
v -0.000000 0.530330 -1.042024
v -0.000000 0.416678 -1.228568
v -0.000000 0.287013 -1.367183
v -0.000000 0.146318 -1.452542
v -0.000000 0.000000 -1.481364
v -0.000000 -0.146318 -1.452542
v -0.000000 -0.287013 -1.367183
v -0.000000 -0.416678 -1.228568
v -0.000000 -0.530330 -1.042024
v -0.000000 -0.623602 -0.814719
v -0.000000 -0.692910 -0.555389
v -0.000000 -0.735589 -0.273999
v 0.009755 0.735589 -0.268376
v 0.019134 0.692910 -0.544359
v 0.027779 0.623602 -0.798706
v 0.035355 0.530330 -1.021644
v 0.041574 0.416678 -1.204604
v 0.046194 0.287013 -1.340555
v 0.049039 0.146318 -1.424274
v 0.050000 0.000000 -1.452541
v 0.049039 -0.146318 -1.424274
v 0.046194 -0.287013 -1.340555
v 0.041574 -0.416678 -1.204604
v 0.035355 -0.530330 -1.021644
v 0.027779 -0.623602 -0.798706
v 0.019134 -0.692910 -0.544359
v 0.009755 -0.735589 -0.268376
v 0.000000 -0.750000 0.018636
v -0.009755 0.735589 -0.210973
v -0.019134 0.692910 -0.431760
v -0.027778 0.623602 -0.635238
v -0.035355 0.530330 -0.813588
v -0.041573 0.416678 -0.959955
v -0.046194 0.287013 -1.068717
v -0.049039 0.146318 -1.135692
v -0.050000 0.000000 -1.158306
v -0.049039 -0.146318 -1.135692
v -0.046194 -0.287013 -1.068717
v -0.041573 -0.416678 -0.959955
v -0.035355 -0.530330 -0.813588
v -0.027778 -0.623602 -0.635238
v -0.019134 -0.692910 -0.431760
v -0.009755 -0.735589 -0.210973
v -0.000000 0.735589 -0.215472
v -0.000000 0.692910 -0.440584
v -0.000000 0.623602 -0.648048
v -0.000000 0.530330 -0.829892
v -0.000000 0.416678 -0.979127
v -0.000000 0.287013 -1.090019
v -0.000000 0.146318 -1.158306
v -0.000000 0.000000 -1.181363
v -0.000000 -0.146318 -1.158306
v -0.000000 -0.287013 -1.090019
v -0.000000 -0.416678 -0.979127
v -0.000000 -0.530330 -0.829892
v -0.000000 -0.623602 -0.648048
v -0.000000 -0.692910 -0.440584
v -0.000000 -0.735589 -0.215472
v 0.009755 0.735589 -0.210973
v 0.019134 0.692910 -0.431760
v 0.027779 0.623602 -0.635238
v 0.035355 0.530330 -0.813588
v 0.041574 0.416678 -0.959955
v 0.046194 0.287013 -1.068717
v 0.049039 0.146318 -1.135692
v 0.050000 0.000000 -1.158306
v 0.049039 -0.146318 -1.135692
v 0.046194 -0.287013 -1.068717
v 0.041574 -0.416678 -0.959955
v 0.035355 -0.530330 -0.813588
v 0.027779 -0.623602 -0.635238
v 0.019134 -0.692910 -0.431760
v 0.009755 -0.735589 -0.210973
vn -0.1472 0.9556 -0.2554
vn -0.3664 -0.6795 -0.6356
vn -0.2138 0.9038 -0.3708
vn -0.2873 -0.8180 -0.4984
vn -0.2873 0.8180 -0.4984
vn -0.2138 -0.9038 -0.3708
vn -0.3664 0.6795 -0.6356
vn -0.1472 -0.9556 -0.2554
vn -0.4421 0.4653 -0.7669
vn -0.0861 -0.9850 -0.1494
vn -0.4923 0.1682 -0.8540
vn -0.0283 0.9984 -0.0492
vn -0.0284 -0.9984 -0.0492
vn -0.4923 -0.1682 -0.8540
vn -0.0861 0.9850 -0.1494
vn -0.4421 -0.4653 -0.7669
vn 0.4421 0.4653 -0.7669
vn 0.0861 -0.9850 -0.1494
vn 0.4923 0.1682 -0.8540
vn 0.0283 0.9984 -0.0492
vn 0.0284 -0.9984 -0.0492
vn 0.4923 -0.1682 -0.8540
vn 0.0861 0.9850 -0.1494
vn 0.4421 -0.4653 -0.7669
vn 0.1472 0.9556 -0.2554
vn 0.3664 -0.6795 -0.6356
vn 0.2138 0.9038 -0.3708
vn 0.2873 -0.8180 -0.4984
vn 0.2873 0.8180 -0.4984
vn 0.2138 -0.9038 -0.3708
vn 0.3664 0.6795 -0.6356
vn 0.1472 -0.9556 -0.2554
vn -0.1446 0.9385 -0.3135
vn -0.3307 -0.6134 -0.7172
vn -0.2060 0.8707 -0.4466
vn -0.2691 -0.7662 -0.5835
vn -0.2691 0.7662 -0.5835
vn -0.2060 -0.8707 -0.4466
vn -0.3307 0.6134 -0.7172
vn -0.1446 -0.9385 -0.3135
vn -0.3832 0.4033 -0.8310
vn -0.0856 -0.9789 -0.1856
vn -0.4145 0.1417 -0.8989
vn -0.0283 0.9977 -0.0614
vn -0.0283 -0.9977 -0.0614
vn -0.4145 -0.1417 -0.8989
vn -0.0856 0.9789 -0.1856
vn -0.3832 -0.4033 -0.8310
vn 0.3832 0.4033 -0.8310
vn 0.0856 -0.9789 -0.1856
vn 0.4145 0.1417 -0.8989
vn 0.0283 0.9977 -0.0614
vn 0.0283 -0.9977 -0.0614
vn 0.4145 -0.1417 -0.8989
vn 0.0856 0.9789 -0.1856
vn 0.3832 -0.4033 -0.8310
vn 0.1446 0.9385 -0.3135
vn 0.3307 -0.6134 -0.7172
vn 0.2059 0.8707 -0.4466
vn 0.2691 -0.7662 -0.5835
vn 0.2691 0.7662 -0.5835
vn 0.2059 -0.8707 -0.4466
vn 0.3307 0.6134 -0.7172
vn 0.1446 -0.9385 -0.3135
vn 0.8281 0.5606 -0.0000
vn 0.9767 0.2146 -0.0000
vn 0.9923 0.1238 -0.0000
vn 0.9967 0.0810 -0.0000
vn 0.9985 0.0546 -0.0000
vn 0.9994 0.0356 -0.0000
vn 0.9998 0.0202 -0.0000
vn 1.0000 0.0077 -0.0000
vn 0.9998 0.0186 -0.0000
vn 1.0000 -0.0000 -0.0000
vn 1.0000 -0.0077 -0.0000
vn 0.9998 -0.0186 -0.0000
vn 0.9998 -0.0202 -0.0000
vn 0.9994 -0.0356 -0.0000
vn 0.9985 -0.0546 -0.0000
vn 0.9967 -0.0810 -0.0000
vn 0.9923 -0.1238 -0.0000
vn 0.8281 -0.5606 -0.0000
vn 0.9767 -0.2146 -0.0000
vn -0.8281 -0.5606 -0.0000
vn -0.9767 -0.2146 -0.0000
vn -0.9923 -0.1238 -0.0000
vn -0.9967 -0.0810 -0.0000
vn -0.9985 -0.0546 -0.0000
vn -0.9994 -0.0356 -0.0000
vn -0.9998 -0.0202 -0.0000
vn -1.0000 -0.0077 -0.0000
vn -0.9998 -0.0186 -0.0000
vn -1.0000 -0.0000 -0.0000
vn -1.0000 0.0077 -0.0000
vn -0.9998 0.0186 -0.0000
vn -0.9998 0.0202 -0.0000
vn -0.9994 0.0356 -0.0000
vn -0.9985 0.0546 -0.0000
vn -0.9967 0.0810 -0.0000
vn -0.9923 0.1238 -0.0000
vn -0.8281 0.5606 -0.0000
vn -0.9767 0.2146 -0.0000
vt 0.286308 0.087578
vt 0.196815 0.052601
vt 0.206046 0.015646
vt 0.303435 0.035919
vt 0.822582 0.539237
vt 0.772488 0.465530
vt 0.844687 0.416773
vt 0.890428 0.502001
vt 0.370833 0.127042
vt 0.397949 0.063909
vt 0.866242 0.619028
vt 0.928944 0.591386
vt 0.450947 0.170020
vt 0.487732 0.101864
vt 0.907030 0.703403
vt 0.957979 0.685321
vt 0.524992 0.219608
vt 0.573293 0.147068
vt 0.943335 0.793947
vt 0.981111 0.783546
vt 0.595019 0.272624
vt 0.652648 0.203056
vt 0.974897 0.891383
vt 0.995283 0.887734
vt 0.660586 0.330648
vt 0.723992 0.266844
vt 0.102510 0.023012
vt 0.004626 0.002018
vt 0.105664 0.003789
vt 0.997982 0.994089
vt 0.719022 0.395847
vt 0.788217 0.337788
vt 0.206560 0.658701
vt 0.152877 0.579233
vt 0.223350 0.532494
vt 0.277734 0.602003
vt 0.892234 0.996046
vt 0.791109 0.983992
vt 0.800476 0.946717
vt 0.895436 0.976681
vt 0.270669 0.733495
vt 0.337292 0.666661
vt 0.004424 0.111836
vt 0.002018 0.007235
vt 0.024467 0.108292
vt 0.994041 0.997975
vt 0.345664 0.797369
vt 0.402139 0.726015
vt 0.018282 0.214104
vt 0.055217 0.204314
vt 0.425303 0.850803
vt 0.471821 0.780179
vt 0.039408 0.312229
vt 0.091551 0.294076
vt 0.509640 0.896992
vt 0.546870 0.827724
vt 0.069719 0.405745
vt 0.130749 0.378794
vt 0.599074 0.933413
vt 0.625825 0.872274
vt 0.106425 0.495048
vt 0.175563 0.457599
vt 0.692748 0.963431
vt 0.710698 0.911124
vt 0.233012 0.097338
vt 0.159173 0.055144
vt 0.138219 0.086017
vt 0.199196 0.139283
vt 0.789636 0.610998
vt 0.728012 0.538819
vt 0.663291 0.601600
vt 0.730422 0.666768
vt 0.306345 0.147473
vt 0.260705 0.198971
vt 0.846400 0.683838
vt 0.794749 0.730031
vt 0.379458 0.203474
vt 0.324139 0.262904
vt 0.897548 0.757472
vt 0.854932 0.791968
vt 0.452004 0.264557
vt 0.389656 0.329626
vt 0.941033 0.832792
vt 0.909240 0.854469
vt 0.523723 0.329562
vt 0.457022 0.397907
vt 0.974808 0.911695
vt 0.956911 0.921291
vt 0.593704 0.397950
vt 0.525496 0.466583
vt 0.083107 0.023277
vt 0.074033 0.040427
vt 0.662535 0.467503
vt 0.594593 0.534637
vt 0.402634 0.463015
vt 0.333822 0.396113
vt 0.269031 0.458850
vt 0.334463 0.530270
vt 0.924154 0.959170
vt 0.859515 0.913137
vt 0.838386 0.944218
vt 0.914986 0.976442
vt 0.472174 0.531354
vt 0.403747 0.599997
vt 0.042213 0.078894
vt 0.024604 0.088302
vt 0.540730 0.600679
vt 0.473692 0.669060
vt 0.089008 0.144578
vt 0.057591 0.165990
vt 0.607846 0.669279
vt 0.545318 0.734263
vt 0.143011 0.206355
vt 0.100828 0.240556
vt 0.673096 0.736014
vt 0.617749 0.795271
vt 0.202822 0.267978
vt 0.151320 0.313892
vt 0.736363 0.799869
vt 0.690645 0.851468
vt 0.266881 0.331067
vt 0.207785 0.386612
vt 0.798089 0.859480
vt 0.764152 0.901550
s 1
usemtl マテリアル
f 4/1/1 3/2/1 18/3/1 19/4/1
f 12/5/2 11/6/2 26/7/2 27/8/2
f 5/9/3 4/1/3 19/4/3 20/10/3
f 13/11/4 12/5/4 27/8/4 28/12/4
f 6/13/5 5/9/5 20/10/5 21/14/5
f 14/15/6 13/11/6 28/12/6 29/16/6
f 7/17/7 6/13/7 21/14/7 22/18/7
f 15/19/8 14/15/8 29/16/8 30/20/8
f 8/21/9 7/17/9 22/18/9 23/22/9
f 16/23/10 15/19/10 30/20/10 31/24/10
f 9/25/11 8/21/11 23/22/11 24/26/11
f 2/27/12 1/28/12 17/29/12
f 47/30/13 16/23/13 31/24/13
f 10/31/14 9/25/14 24/26/14 25/32/14
f 3/2/15 2/27/15 17/29/15 18/3/15
f 11/6/16 10/31/16 25/32/16 26/7/16
f 23/33/17 22/34/17 37/35/17 38/36/17
f 31/37/18 30/38/18 45/39/18 46/40/18
f 24/41/19 23/33/19 38/36/19 39/42/19
f 17/43/20 1/44/20 32/45/20
f 47/46/21 31/37/21 46/40/21
f 25/47/22 24/41/22 39/42/22 40/48/22
f 18/49/23 17/43/23 32/45/23 33/50/23
f 26/51/24 25/47/24 40/48/24 41/52/24
f 19/53/25 18/49/25 33/50/25 34/54/25
f 27/55/26 26/51/26 41/52/26 42/56/26
f 20/57/27 19/53/27 34/54/27 35/58/27
f 28/59/28 27/55/28 42/56/28 43/60/28
f 21/61/29 20/57/29 35/58/29 36/62/29
f 29/63/30 28/59/30 43/60/30 44/64/30
f 22/34/31 21/61/31 36/62/31 37/35/31
f 30/38/32 29/63/32 44/64/32 45/39/32
f 50/65/33 49/66/33 64/67/33 65/68/33
f 58/69/34 57/70/34 72/71/34 73/72/34
f 51/73/35 50/65/35 65/68/35 66/74/35
f 59/75/36 58/69/36 73/72/36 74/76/36
f 52/77/37 51/73/37 66/74/37 67/78/37
f 60/79/38 59/75/38 74/76/38 75/80/38
f 53/81/39 52/77/39 67/78/39 68/82/39
f 61/83/40 60/79/40 75/80/40 76/84/40
f 54/85/41 53/81/41 68/82/41 69/86/41
f 62/87/42 61/83/42 76/84/42 77/88/42
f 55/89/43 54/85/43 69/86/43 70/90/43
f 48/91/44 1/28/44 63/92/44
f 62/87/45 77/88/45 47/30/45
f 56/93/46 55/89/46 70/90/46 71/94/46
f 49/66/47 48/91/47 63/92/47 64/67/47
f 57/70/48 56/93/48 71/94/48 72/71/48
f 69/95/49 68/96/49 83/97/49 84/98/49
f 77/99/50 76/100/50 91/101/50 92/102/50
f 70/103/51 69/95/51 84/98/51 85/104/51
f 63/105/52 1/44/52 78/106/52
f 47/46/53 77/99/53 92/102/53
f 71/107/54 70/103/54 85/104/54 86/108/54
f 64/109/55 63/105/55 78/106/55 79/110/55
f 72/111/56 71/107/56 86/108/56 87/112/56
f 65/113/57 64/109/57 79/110/57 80/114/57
f 73/115/58 72/111/58 87/112/58 88/116/58
f 66/117/59 65/113/59 80/114/59 81/118/59
f 74/119/60 73/115/60 88/116/60 89/120/60
f 67/121/61 66/117/61 81/118/61 82/122/61
f 75/123/62 74/119/62 89/120/62 90/124/62
f 68/96/63 67/121/63 82/122/63 83/97/63
f 76/100/64 75/123/64 90/124/64 91/101/64
f 32/45/65 1/44/65 78/106/65
f 32/45/66 78/106/66 79/110/66 33/50/66
f 33/50/67 79/110/67 80/114/67 34/54/67
f 34/54/68 80/114/68 81/118/68 35/58/68
f 35/58/69 81/118/69 82/122/69 36/62/69
f 36/62/70 82/122/70 83/97/70 37/35/70
f 37/35/71 83/97/71 84/98/72 38/36/73
f 38/36/73 84/98/72 85/104/74 39/42/74
f 39/42/74 85/104/74 86/108/75 40/48/76
f 40/48/76 86/108/75 87/112/77 41/52/77
f 41/52/78 87/112/78 88/116/78 42/56/78
f 42/56/79 88/116/79 89/120/79 43/60/79
f 43/60/80 89/120/80 90/124/80 44/64/80
f 44/64/81 90/124/81 91/101/81 45/39/81
f 47/46/82 46/40/82 92/102/82
f 45/39/83 91/101/83 92/102/83 46/40/83
f 47/30/84 62/87/84 16/23/84
f 16/23/85 62/87/85 61/83/85 15/19/85
f 15/19/86 61/83/86 60/79/86 14/15/86
f 14/15/87 60/79/87 59/75/87 13/11/87
f 13/11/88 59/75/88 58/69/88 12/5/88
f 12/5/89 58/69/89 57/70/89 11/6/89
f 11/6/90 57/70/90 56/93/91 10/31/92
f 10/31/92 56/93/91 55/89/93 9/25/93
f 9/25/93 55/89/93 54/85/94 8/21/95
f 8/21/95 54/85/94 53/81/96 7/17/96
f 7/17/97 53/81/97 52/77/97 6/13/97
f 6/13/98 52/77/98 51/73/98 5/9/98
f 5/9/99 51/73/99 50/65/99 4/1/99
f 4/1/100 50/65/100 49/66/100 3/2/100
f 1/28/101 2/27/101 48/91/101
f 3/2/102 49/66/102 48/91/102 2/27/102
