# Blender 4.4.3
# www.blender.org
mtllib shieldEnemy.mtl
o shieldEnemy
v -0.500000 -0.108808 -0.293859
v -0.490393 -0.220034 -0.285068
v -0.461940 -0.326985 -0.259032
v -0.415735 -0.425552 -0.216753
v -0.353554 -0.511946 -0.159854
v -0.425215 -0.108808 -0.418652
v -0.417045 -0.220034 -0.407463
v -0.392848 -0.326985 -0.374326
v -0.353553 -0.425552 -0.320514
v -0.300673 -0.511946 -0.248096
v -0.334089 -0.108808 -0.521067
v -0.327670 -0.220034 -0.507910
v -0.308658 -0.326985 -0.468945
v -0.277785 -0.425552 -0.405669
v -0.236237 -0.511946 -0.320515
v -0.230125 -0.108808 -0.597168
v -0.225703 -0.220034 -0.582549
v -0.212608 -0.326985 -0.539253
v -0.191342 -0.425552 -0.468945
v -0.162723 -0.511946 -0.374326
v -0.117316 -0.108808 -0.644031
v -0.115062 -0.220034 -0.628511
v -0.108386 -0.326985 -0.582549
v -0.097545 -0.425552 -0.507910
v -0.082955 -0.511946 -0.407463
v 0.000000 -0.108808 -0.659854
v 0.000000 -0.220034 -0.644031
v -0.000000 -0.326985 -0.597168
v 0.000000 -0.425552 -0.521067
v -0.000000 -0.511946 -0.418652
v 0.117317 -0.108808 -0.644031
v 0.115062 -0.220034 -0.628511
v 0.108386 -0.326985 -0.582549
v 0.097545 -0.425552 -0.507910
v 0.082955 -0.511946 -0.407463
v 0.230125 -0.108808 -0.597168
v 0.225703 -0.220034 -0.582549
v 0.212608 -0.326985 -0.539253
v 0.191342 -0.425552 -0.468945
v 0.162723 -0.511946 -0.374326
v 0.334089 -0.108808 -0.521066
v 0.327670 -0.220034 -0.507910
v 0.308658 -0.326985 -0.468945
v 0.277785 -0.425552 -0.405669
v 0.236237 -0.511946 -0.320514
v 0.425215 -0.108808 -0.418652
v 0.417045 -0.220034 -0.407463
v 0.392848 -0.326985 -0.374326
v 0.353553 -0.425552 -0.320514
v 0.300673 -0.511946 -0.248096
v 0.500000 -0.108808 -0.293859
v 0.490393 -0.220034 -0.285068
v 0.461940 -0.326985 -0.259032
v 0.415735 -0.425552 -0.216753
v 0.353553 -0.511946 -0.159854
v 0.500000 0.488054 -0.293859
v 0.425215 0.488054 -0.418652
v 0.334089 0.488054 -0.521066
v 0.230125 0.488054 -0.597168
v 0.117317 0.488054 -0.644031
v 0.000000 0.488054 -0.659854
v -0.117316 0.488054 -0.644031
v -0.230125 0.488054 -0.597168
v -0.334089 0.488054 -0.521067
v -0.425215 0.488054 -0.418652
v -0.500000 0.488054 -0.293859
v -0.450000 -0.108808 -0.253812
v -0.441354 -0.220034 -0.245900
v -0.415746 -0.326985 -0.222468
v -0.374161 -0.425552 -0.184416
v -0.318198 -0.511946 -0.133208
v -0.382693 -0.108808 -0.366126
v -0.375340 -0.220034 -0.356056
v -0.353563 -0.326985 -0.326232
v -0.318198 -0.425552 -0.277802
v -0.270605 -0.511946 -0.212625
v -0.300680 -0.108808 -0.458299
v -0.294903 -0.220034 -0.446458
v -0.277793 -0.326985 -0.411389
v -0.250007 -0.425552 -0.354441
v -0.212613 -0.511946 -0.277802
v -0.207112 -0.108808 -0.526790
v -0.203133 -0.220034 -0.513633
v -0.191347 -0.326985 -0.474667
v -0.172208 -0.425552 -0.411389
v -0.146451 -0.511946 -0.326232
v -0.105585 -0.108808 -0.568966
v -0.103556 -0.220034 -0.554999
v -0.097548 -0.326985 -0.513633
v -0.087791 -0.425552 -0.446458
v -0.074660 -0.511946 -0.356056
v 0.000000 -0.108808 -0.583208
v 0.000000 -0.220034 -0.568967
v -0.000000 -0.326985 -0.526790
v 0.000000 -0.425552 -0.458299
v -0.000000 -0.511946 -0.366126
v 0.105585 -0.108808 -0.568966
v 0.103556 -0.220034 -0.554999
v 0.097548 -0.326985 -0.513633
v 0.087791 -0.425552 -0.446458
v 0.074660 -0.511946 -0.356056
v 0.207112 -0.108808 -0.526790
v 0.203133 -0.220034 -0.513633
v 0.191347 -0.326985 -0.474667
v 0.172208 -0.425552 -0.411389
v 0.146450 -0.511946 -0.326232
v 0.300680 -0.108808 -0.458299
v 0.294903 -0.220034 -0.446458
v 0.277792 -0.326985 -0.411389
v 0.250007 -0.425552 -0.354441
v 0.212613 -0.511946 -0.277802
v 0.382694 -0.108808 -0.366125
v 0.375340 -0.220034 -0.356055
v 0.353563 -0.326985 -0.326232
v 0.318198 -0.425552 -0.277802
v 0.270605 -0.511946 -0.212625
v 0.450000 -0.108808 -0.253812
v 0.441353 -0.220034 -0.245900
v 0.415746 -0.326985 -0.222468
v 0.374161 -0.425552 -0.184416
v 0.318198 -0.511946 -0.133208
v 0.450000 0.488054 -0.253812
v 0.382694 0.488054 -0.366125
v 0.300680 0.488054 -0.458299
v 0.207112 0.488054 -0.526790
v 0.105585 0.488054 -0.568966
v 0.000000 0.488054 -0.583208
v -0.105585 0.488054 -0.568966
v -0.207112 0.488054 -0.526790
v -0.300680 0.488054 -0.458299
v -0.382693 0.488054 -0.366126
v -0.450000 0.488054 -0.253812
v 0.000000 0.412839 0.352564
v 0.000000 0.274890 0.490513
v 0.000000 0.094650 0.565171
v 0.000000 -0.002896 0.574778
v 0.000000 -0.100441 0.565171
v 0.000000 -0.280681 0.490513
v -0.019030 0.487497 0.170449
v -0.037329 0.459044 0.262444
v -0.054193 0.412839 0.347226
v -0.068975 0.350658 0.421538
v -0.081106 0.274890 0.482525
v -0.090120 0.188446 0.527842
v -0.095671 0.094650 0.555748
v -0.097545 -0.002896 0.565171
v -0.095671 -0.100441 0.555748
v -0.090120 -0.194237 0.527842
v -0.081106 -0.280681 0.482525
v -0.068975 -0.356449 0.421538
v -0.054193 -0.418630 0.347226
v -0.037329 -0.464835 0.262444
v -0.019030 -0.493288 0.170449
v -0.037329 0.487497 0.164898
v -0.073223 0.459044 0.251555
v -0.106304 0.412839 0.331418
v -0.135299 0.350658 0.401419
v -0.159095 0.274890 0.458867
v -0.176777 0.188446 0.501555
v -0.187665 0.094650 0.527842
v -0.191342 -0.002896 0.536718
v -0.187665 -0.100441 0.527842
v -0.176777 -0.194237 0.501555
v -0.159095 -0.280681 0.458867
v -0.135299 -0.356449 0.401419
v -0.106304 -0.418630 0.331418
v -0.073223 -0.464835 0.251555
v -0.037329 -0.493288 0.164898
v -0.054193 0.487497 0.155884
v -0.106304 0.459044 0.233873
v -0.154329 0.412839 0.305748
v -0.196424 0.350658 0.368747
v -0.230970 0.274890 0.420449
v -0.256640 0.188446 0.458867
v -0.272448 0.094650 0.482525
v -0.277785 -0.002896 0.490513
v -0.272448 -0.100441 0.482525
v -0.256640 -0.194237 0.458867
v -0.230970 -0.280681 0.420449
v -0.196424 -0.356449 0.368747
v -0.154329 -0.418630 0.305748
v -0.106304 -0.464835 0.233873
v -0.054193 -0.493288 0.155884
v -0.068975 0.487497 0.143753
v -0.135299 0.459044 0.210077
v -0.196424 0.412839 0.271202
v -0.250000 0.350658 0.324778
v -0.293969 0.274890 0.368747
v -0.326641 0.188446 0.401419
v -0.346760 0.094650 0.421538
v -0.353554 -0.002896 0.428332
v -0.346760 -0.100441 0.421538
v -0.326641 -0.194237 0.401419
v -0.293969 -0.280681 0.368747
v -0.250000 -0.356449 0.324778
v -0.196424 -0.418630 0.271202
v -0.135299 -0.464835 0.210077
v -0.068975 -0.493288 0.143753
v -0.081106 0.487497 0.128972
v -0.159095 0.459044 0.181082
v -0.230970 0.412839 0.229107
v -0.293969 0.350658 0.271202
v -0.345671 0.274890 0.305748
v -0.384089 0.188446 0.331418
v -0.407747 0.094650 0.347226
v -0.415735 -0.002896 0.352563
v -0.407747 -0.100441 0.347226
v -0.384089 -0.194237 0.331418
v -0.345671 -0.280681 0.305748
v -0.293969 -0.356449 0.271202
v -0.230970 -0.418630 0.229107
v -0.159095 -0.464835 0.181082
v -0.081106 -0.493288 0.128972
v 0.000000 0.497104 0.074778
v -0.090120 0.487497 0.112107
v -0.176777 0.459044 0.148002
v -0.256640 0.412839 0.181082
v -0.326641 0.350658 0.210077
v -0.384089 0.274890 0.233873
v -0.426777 0.188446 0.251555
v -0.453064 0.094650 0.262443
v -0.461940 -0.002896 0.266120
v -0.453064 -0.100441 0.262443
v -0.426777 -0.194237 0.251555
v -0.384089 -0.280681 0.233873
v -0.326641 -0.356449 0.210077
v -0.256640 -0.418630 0.181082
v -0.176777 -0.464835 0.148002
v -0.090120 -0.493288 0.112107
v -0.095671 0.487497 0.093808
v -0.187665 0.459044 0.112107
v -0.272448 0.412839 0.128972
v -0.346760 0.350658 0.143753
v -0.407747 0.274890 0.155884
v -0.453064 0.188446 0.164898
v -0.480970 0.094650 0.170449
v -0.490393 -0.002896 0.172323
v -0.480970 -0.100441 0.170449
v -0.453064 -0.194237 0.164898
v -0.407747 -0.280681 0.155884
v -0.346760 -0.356449 0.143753
v -0.272448 -0.418630 0.128972
v -0.187665 -0.464835 0.112107
v -0.095671 -0.493288 0.093808
v -0.097545 0.487497 0.074778
v -0.191342 0.459044 0.074778
v -0.277785 0.412839 0.074778
v -0.353554 0.350658 0.074778
v -0.415735 0.274890 0.074778
v -0.461940 0.188446 0.074778
v -0.490393 0.094650 0.074778
v -0.500000 -0.002896 0.074778
v -0.490393 -0.100441 0.074778
v -0.461940 -0.194237 0.074778
v -0.415735 -0.280681 0.074778
v -0.353554 -0.356449 0.074778
v -0.277785 -0.418630 0.074778
v -0.191342 -0.464835 0.074778
v -0.097545 -0.493288 0.074778
v -0.095671 0.487497 0.055748
v -0.187665 0.459044 0.037449
v -0.272448 0.412839 0.020585
v -0.346760 0.350658 0.005803
v -0.407747 0.274890 -0.006328
v -0.453064 0.188446 -0.015342
v -0.480970 0.094650 -0.020893
v -0.490393 -0.002896 -0.022767
v -0.480970 -0.100441 -0.020893
v -0.453064 -0.194237 -0.015342
v -0.407747 -0.280681 -0.006328
v -0.346760 -0.356449 0.005803
v -0.272448 -0.418630 0.020585
v -0.187665 -0.464835 0.037449
v -0.095671 -0.493288 0.055748
v -0.090120 0.487497 0.037449
v -0.176777 0.459044 0.001555
v -0.256640 0.412839 -0.031525
v -0.326641 0.350658 -0.060521
v -0.384089 0.274890 -0.084317
v -0.426777 0.188446 -0.101998
v -0.453064 0.094650 -0.112887
v -0.461940 -0.002896 -0.116563
v -0.453064 -0.100441 -0.112887
v -0.426777 -0.194237 -0.101998
v -0.384089 -0.280681 -0.084317
v -0.326641 -0.356449 -0.060521
v -0.256640 -0.418630 -0.031525
v -0.176777 -0.464835 0.001555
v -0.090120 -0.493288 0.037449
v -0.081106 0.487497 0.020585
v -0.159095 0.459044 -0.031525
v -0.230970 0.412839 -0.079551
v -0.293969 0.350658 -0.121645
v -0.345671 0.274890 -0.156192
v -0.384089 0.188446 -0.181862
v -0.407747 0.094650 -0.197669
v -0.415735 -0.002896 -0.203007
v -0.407747 -0.100441 -0.197669
v -0.384089 -0.194237 -0.181862
v -0.345671 -0.280681 -0.156192
v -0.293969 -0.356449 -0.121645
v -0.230970 -0.418630 -0.079551
v -0.159095 -0.464835 -0.031525
v -0.081106 -0.493288 0.020585
v -0.068975 0.487497 0.005803
v -0.135299 0.459044 -0.060521
v -0.196424 0.412839 -0.121645
v -0.250000 0.350658 -0.175222
v -0.293969 0.274890 -0.219191
v -0.326641 0.188446 -0.251862
v -0.346760 0.094650 -0.271982
v -0.353553 -0.002896 -0.278775
v -0.346760 -0.100441 -0.271982
v -0.326641 -0.194237 -0.251862
v -0.293969 -0.280681 -0.219191
v -0.250000 -0.356449 -0.175222
v -0.196424 -0.418630 -0.121645
v -0.135299 -0.464835 -0.060521
v -0.068975 -0.493288 0.005803
v -0.054193 0.487497 -0.006327
v -0.106304 0.459044 -0.084317
v -0.154329 0.412839 -0.156192
v -0.196424 0.350658 -0.219191
v -0.230970 0.274890 -0.270893
v -0.256640 0.188446 -0.309311
v -0.272448 0.094650 -0.332968
v -0.277785 -0.002896 -0.340956
v -0.272448 -0.100441 -0.332968
v -0.256640 -0.194237 -0.309311
v -0.230970 -0.280681 -0.270893
v -0.196424 -0.356449 -0.219191
v -0.154329 -0.418630 -0.156192
v -0.106304 -0.464835 -0.084317
v -0.054193 -0.493288 -0.006327
v -0.037329 0.487497 -0.015342
v -0.073223 0.459044 -0.101998
v -0.106304 0.412839 -0.181862
v -0.135299 0.350658 -0.251862
v -0.159095 0.274890 -0.309311
v -0.176777 0.188446 -0.351998
v -0.187665 0.094650 -0.378285
v -0.191342 -0.002896 -0.387161
v -0.187665 -0.100441 -0.378285
v -0.176777 -0.194237 -0.351998
v -0.159095 -0.280681 -0.309311
v -0.135299 -0.356449 -0.251862
v -0.106304 -0.418630 -0.181862
v -0.073223 -0.464835 -0.101998
v -0.037329 -0.493288 -0.015342
v -0.019030 0.487497 -0.020893
v -0.037329 0.459044 -0.112887
v -0.054193 0.412839 -0.197669
v -0.068975 0.350658 -0.271982
v -0.081106 0.274890 -0.332968
v -0.090120 0.188446 -0.378285
v -0.095671 0.094650 -0.406192
v -0.097545 -0.002896 -0.415614
v -0.095671 -0.100441 -0.406192
v -0.090120 -0.194237 -0.378285
v -0.081106 -0.280681 -0.332968
v -0.068975 -0.356449 -0.271982
v -0.054193 -0.418630 -0.197669
v -0.037329 -0.464835 -0.112887
v -0.019030 -0.493288 -0.020893
v 0.000000 0.487497 -0.022767
v 0.000000 0.459044 -0.116563
v 0.000000 0.412839 -0.203007
v 0.000000 0.350658 -0.278775
v 0.000000 0.274890 -0.340956
v -0.000000 0.188446 -0.387161
v 0.000000 0.094650 -0.415614
v 0.000000 -0.002896 -0.425221
v 0.000000 -0.100441 -0.415614
v -0.000000 -0.194237 -0.387161
v 0.000000 -0.280681 -0.340956
v 0.000000 -0.356449 -0.278775
v 0.000000 -0.418630 -0.203007
v 0.000000 -0.464835 -0.116563
v 0.000000 -0.493288 -0.022767
v 0.019030 0.487497 -0.020892
v 0.037329 0.459044 -0.112887
v 0.054193 0.412839 -0.197669
v 0.068975 0.350658 -0.271982
v 0.081106 0.274890 -0.332968
v 0.090120 0.188446 -0.378285
v 0.095671 0.094650 -0.406191
v 0.097545 -0.002896 -0.415614
v 0.095671 -0.100441 -0.406191
v 0.090120 -0.194237 -0.378285
v 0.081106 -0.280681 -0.332968
v 0.068975 -0.356449 -0.271982
v 0.054193 -0.418630 -0.197669
v 0.037329 -0.464835 -0.112887
v 0.019030 -0.493288 -0.020892
v 0.037329 0.487497 -0.015342
v 0.073223 0.459044 -0.101998
v 0.106304 0.412839 -0.181862
v 0.135299 0.350658 -0.251862
v 0.159095 0.274890 -0.309310
v 0.176777 0.188446 -0.351998
v 0.187665 0.094650 -0.378285
v 0.191342 -0.002896 -0.387161
v 0.187665 -0.100441 -0.378285
v 0.176777 -0.194237 -0.351998
v 0.159095 -0.280681 -0.309310
v 0.135299 -0.356449 -0.251862
v 0.106304 -0.418630 -0.181862
v 0.073223 -0.464835 -0.101998
v 0.037329 -0.493288 -0.015342
v 0.054193 0.487497 -0.006327
v 0.106304 0.459044 -0.084316
v 0.154329 0.412839 -0.156191
v 0.196424 0.350658 -0.219191
v 0.230970 0.274890 -0.270892
v 0.256640 0.188446 -0.309311
v 0.272448 0.094650 -0.332968
v 0.277785 -0.002896 -0.340956
v 0.272448 -0.100441 -0.332968
v 0.256640 -0.194237 -0.309311
v 0.230970 -0.280681 -0.270892
v 0.196424 -0.356449 -0.219191
v 0.154329 -0.418630 -0.156191
v 0.106304 -0.464835 -0.084316
v 0.054193 -0.493288 -0.006327
v 0.068975 0.487497 0.005804
v 0.135299 0.459044 -0.060521
v 0.196424 0.412839 -0.121645
v 0.250000 0.350658 -0.175222
v 0.293969 0.274890 -0.219190
v 0.326641 0.188446 -0.251862
v 0.346760 0.094650 -0.271982
v 0.353553 -0.002896 -0.278775
v 0.346760 -0.100441 -0.271982
v 0.326641 -0.194237 -0.251862
v 0.293969 -0.280681 -0.219190
v 0.250000 -0.356449 -0.175222
v 0.196424 -0.418630 -0.121645
v 0.135299 -0.464835 -0.060521
v 0.068975 -0.493288 0.005804
v 0.000000 -0.502896 0.074778
v 0.081106 0.487497 0.020585
v 0.159095 0.459044 -0.031525
v 0.230970 0.412839 -0.079551
v 0.293969 0.350658 -0.121645
v 0.345671 0.274890 -0.156191
v 0.384089 0.188446 -0.181862
v 0.407747 0.094650 -0.197669
v 0.415735 -0.002896 -0.203006
v 0.407747 -0.100441 -0.197669
v 0.384089 -0.194237 -0.181862
v 0.345671 -0.280681 -0.156191
v 0.293969 -0.356449 -0.121645
v 0.230970 -0.418630 -0.079551
v 0.159095 -0.464835 -0.031525
v 0.081106 -0.493288 0.020585
v 0.090120 0.487497 0.037449
v 0.176777 0.459044 0.001555
v 0.256640 0.412839 -0.031525
v 0.326641 0.350658 -0.060521
v 0.384089 0.274890 -0.084316
v 0.426777 0.188446 -0.101998
v 0.453064 0.094650 -0.112887
v 0.461940 -0.002896 -0.116563
v 0.453064 -0.100441 -0.112887
v 0.426777 -0.194237 -0.101998
v 0.384089 -0.280681 -0.084316
v 0.326641 -0.356449 -0.060521
v 0.256640 -0.418630 -0.031525
v 0.176777 -0.464835 0.001555
v 0.090120 -0.493288 0.037449
v 0.095671 0.487497 0.055748
v 0.187665 0.459044 0.037449
v 0.272447 0.412839 0.020585
v 0.346760 0.350658 0.005803
v 0.407747 0.274890 -0.006327
v 0.453064 0.188446 -0.015342
v 0.480970 0.094650 -0.020892
v 0.490393 -0.002896 -0.022767
v 0.480970 -0.100441 -0.020892
v 0.453064 -0.194237 -0.015342
v 0.407747 -0.280681 -0.006327
v 0.346760 -0.356449 0.005803
v 0.272447 -0.418630 0.020585
v 0.187665 -0.464835 0.037449
v 0.095671 -0.493288 0.055748
v 0.097545 0.487497 0.074778
v 0.191342 0.459044 0.074778
v 0.277785 0.412839 0.074778
v 0.353554 0.350658 0.074778
v 0.415735 0.274890 0.074778
v 0.461940 0.188446 0.074778
v 0.490393 0.094650 0.074779
v 0.500000 -0.002896 0.074779
v 0.490393 -0.100441 0.074779
v 0.461940 -0.194237 0.074778
v 0.415735 -0.280681 0.074778
v 0.353554 -0.356449 0.074778
v 0.277785 -0.418630 0.074778
v 0.191342 -0.464835 0.074778
v 0.097545 -0.493288 0.074778
v 0.095671 0.487497 0.093808
v 0.187665 0.459044 0.112107
v 0.272447 0.412839 0.128972
v 0.346760 0.350658 0.143753
v 0.407747 0.274890 0.155884
v 0.453064 0.188446 0.164898
v 0.480970 0.094650 0.170449
v 0.490392 -0.002896 0.172324
v 0.480970 -0.100441 0.170449
v 0.453064 -0.194237 0.164898
v 0.407747 -0.280681 0.155884
v 0.346760 -0.356449 0.143753
v 0.272447 -0.418630 0.128972
v 0.187665 -0.464835 0.112107
v 0.095671 -0.493288 0.093808
v 0.090120 0.487497 0.112107
v 0.176777 0.459044 0.148002
v 0.256640 0.412839 0.181082
v 0.326641 0.350658 0.210077
v 0.384089 0.274890 0.233873
v 0.426777 0.188446 0.251555
v 0.453064 0.094650 0.262444
v 0.461940 -0.002896 0.266120
v 0.453064 -0.100441 0.262444
v 0.426777 -0.194237 0.251555
v 0.384089 -0.280681 0.233873
v 0.326641 -0.356449 0.210077
v 0.256640 -0.418630 0.181082
v 0.176777 -0.464835 0.148002
v 0.090120 -0.493288 0.112107
v 0.081106 0.487497 0.128972
v 0.159095 0.459044 0.181082
v 0.230970 0.412839 0.229107
v 0.293969 0.350658 0.271202
v 0.345671 0.274890 0.305748
v 0.384089 0.188446 0.331418
v 0.407746 0.094650 0.347226
v 0.415734 -0.002896 0.352563
v 0.407746 -0.100441 0.347226
v 0.384089 -0.194237 0.331418
v 0.345671 -0.280681 0.305748
v 0.293969 -0.356449 0.271202
v 0.230970 -0.418630 0.229107
v 0.159095 -0.464835 0.181082
v 0.081106 -0.493288 0.128972
v 0.068975 0.487497 0.143753
v 0.135299 0.459044 0.210077
v 0.196424 0.412839 0.271202
v 0.250000 0.350658 0.324778
v 0.293969 0.274890 0.368747
v 0.326641 0.188446 0.401419
v 0.346760 0.094650 0.421538
v 0.353553 -0.002896 0.428332
v 0.346760 -0.100441 0.421538
v 0.326641 -0.194237 0.401419
v 0.293969 -0.280681 0.368747
v 0.250000 -0.356449 0.324778
v 0.196424 -0.418630 0.271202
v 0.135299 -0.464835 0.210077
v 0.068975 -0.493288 0.143753
v 0.054193 0.487497 0.155884
v 0.106304 0.459044 0.233873
v 0.154329 0.412839 0.305748
v 0.196424 0.350658 0.368747
v 0.230970 0.274890 0.420449
v 0.256640 0.188446 0.458867
v 0.272447 0.094650 0.482525
v 0.277785 -0.002896 0.490513
v 0.272447 -0.100441 0.482525
v 0.256640 -0.194237 0.458867
v 0.230970 -0.280681 0.420449
v 0.196424 -0.356449 0.368747
v 0.154329 -0.418630 0.305748
v 0.106304 -0.464835 0.233873
v 0.054193 -0.493288 0.155884
v 0.037329 0.487497 0.164898
v 0.073223 0.459044 0.251555
v 0.106304 0.412839 0.331418
v 0.135299 0.350658 0.401419
v 0.159095 0.274890 0.458867
v 0.176777 0.188446 0.501555
v 0.187665 0.094650 0.527842
v 0.191341 -0.002896 0.536718
v 0.187665 -0.100441 0.527842
v 0.176777 -0.194237 0.501555
v 0.159095 -0.280681 0.458867
v 0.135299 -0.356449 0.401419
v 0.106304 -0.418630 0.331418
v 0.073223 -0.464835 0.251555
v 0.037329 -0.493288 0.164898
v 0.019030 0.487497 0.170449
v 0.037329 0.459044 0.262443
v 0.054193 0.412839 0.347226
v 0.068975 0.350658 0.421538
v 0.081106 0.274890 0.482525
v 0.090120 0.188446 0.527842
v 0.095671 0.094650 0.555748
v 0.097545 -0.002896 0.565171
v 0.095671 -0.100441 0.555748
v 0.090120 -0.194237 0.527842
v 0.081106 -0.280681 0.482525
v 0.068975 -0.356449 0.421538
v 0.054193 -0.418630 0.347226
v 0.037329 -0.464835 0.262443
v 0.019030 -0.493288 0.170449
v -0.000000 0.487497 0.172323
v -0.000000 0.459044 0.266120
v -0.000000 0.350658 0.428332
v -0.000000 0.188446 0.536718
v -0.000000 -0.194237 0.536718
v -0.000000 -0.356449 0.428332
v -0.000000 -0.418630 0.352563
v -0.000000 -0.464835 0.266120
v -0.000000 -0.493288 0.172323
vn -0.8522 -0.1140 -0.5107
vn -0.8088 -0.3331 -0.4847
vn -0.7282 -0.5285 -0.4364
vn -0.6200 -0.6910 -0.3716
vn -0.6233 -0.5513 -0.5546
vn -0.5245 -0.7122 -0.4666
vn -0.7416 -0.1209 -0.6599
vn -0.6995 -0.3511 -0.6224
vn -0.5858 -0.1285 -0.8002
vn -0.5486 -0.3706 -0.7495
vn -0.4832 -0.5751 -0.6601
vn -0.4014 -0.7336 -0.5484
vn -0.3082 -0.5956 -0.7418
vn -0.2532 -0.7513 -0.6094
vn -0.3801 -0.1354 -0.9150
vn -0.3536 -0.3879 -0.8512
vn -0.1324 -0.1396 -0.9813
vn -0.1226 -0.3983 -0.9090
vn -0.1062 -0.6077 -0.7871
vn -0.0866 -0.7615 -0.6424
vn 0.0866 -0.7615 -0.6424
vn 0.1324 -0.1396 -0.9813
vn 0.1226 -0.3983 -0.9090
vn 0.1062 -0.6077 -0.7871
vn 0.3801 -0.1354 -0.9150
vn 0.3536 -0.3879 -0.8512
vn 0.3082 -0.5956 -0.7418
vn 0.2532 -0.7513 -0.6094
vn 0.5858 -0.1285 -0.8002
vn 0.5486 -0.3706 -0.7495
vn 0.4832 -0.5751 -0.6601
vn 0.4014 -0.7336 -0.5484
vn 0.7416 -0.1209 -0.6599
vn 0.6995 -0.3511 -0.6224
vn 0.6233 -0.5513 -0.5546
vn 0.5245 -0.7122 -0.4666
vn 0.8522 -0.1140 -0.5107
vn 0.8088 -0.3331 -0.4847
vn 0.7282 -0.5285 -0.4364
vn 0.6200 -0.6910 -0.3716
vn 0.8578 -0.0000 -0.5140
vn 0.5907 -0.0000 -0.8069
vn -0.3836 -0.0000 -0.9235
vn -0.5907 -0.0000 -0.8069
vn -0.7471 -0.0000 -0.6647
vn 0.3836 -0.0000 -0.9235
vn -0.1337 -0.0000 -0.9910
vn -0.8578 -0.0000 -0.5140
vn 0.1337 -0.0000 -0.9910
vn 0.7471 -0.0000 -0.6647
vn 0.8532 0.1027 0.5113
vn 0.8174 0.3030 0.4899
vn 0.7483 0.4888 0.4484
vn 0.6502 0.6522 0.3897
vn 0.6421 0.5111 0.5713
vn 0.5517 0.6743 0.4909
vn 0.7426 0.1089 0.6608
vn 0.7079 0.3198 0.6298
vn 0.5867 0.1158 0.8015
vn 0.5559 0.3380 0.7594
vn 0.4991 0.5347 0.6819
vn 0.4237 0.6968 0.5788
vn 0.3191 0.5551 0.7681
vn 0.2680 0.7157 0.6450
vn 0.3808 0.1220 0.9166
vn 0.3588 0.3542 0.8636
vn 0.1326 0.1259 0.9831
vn 0.1245 0.3640 0.9230
vn 0.1101 0.5672 0.8162
vn 0.0918 0.7265 0.6810
vn -0.0918 0.7265 0.6810
vn -0.1326 0.1259 0.9831
vn -0.1245 0.3640 0.9230
vn -0.1101 0.5672 0.8162
vn -0.3808 0.1220 0.9166
vn -0.3588 0.3542 0.8636
vn -0.3191 0.5551 0.7681
vn -0.2680 0.7157 0.6450
vn -0.5867 0.1158 0.8015
vn -0.5559 0.3380 0.7594
vn -0.4991 0.5347 0.6819
vn -0.4237 0.6968 0.5788
vn -0.7426 0.1089 0.6608
vn -0.7079 0.3198 0.6298
vn -0.6421 0.5111 0.5713
vn -0.5517 0.6743 0.4909
vn -0.8532 0.1027 0.5113
vn -0.8174 0.3030 0.4899
vn -0.7483 0.4888 0.4484
vn -0.6502 0.6522 0.3897
vn -0.8578 -0.0000 0.5140
vn -0.5907 -0.0000 0.8069
vn 0.3836 -0.0000 0.9235
vn 0.5907 -0.0000 0.8069
vn 0.7471 -0.0000 0.6647
vn -0.3836 -0.0000 0.9235
vn 0.1337 -0.0000 0.9910
vn 0.8578 -0.0000 0.5140
vn -0.1337 -0.0000 0.9910
vn -0.7471 -0.0000 0.6647
vn -0.0000 1.0000 -0.0000
vn 0.6251 -0.0000 0.7805
vn 0.6241 0.0071 0.7813
vn 0.6205 0.0232 0.7839
vn 0.6133 0.0457 0.7885
vn 0.5998 0.0832 0.7958
vn -0.0000 -1.0000 -0.0000
vn -0.6121 0.0777 0.7869
vn -0.6200 0.0453 0.7833
vn -0.6239 0.0242 0.7811
vn -0.6251 0.0077 0.7805
vn -0.6251 -0.0000 0.7805
vn -0.0759 0.6326 0.7708
vn -0.0624 -0.7715 0.6332
vn -0.0865 0.4696 0.8786
vn -0.0464 -0.8810 0.4709
vn -0.0938 0.2890 0.9527
vn -0.0286 -0.9565 0.2902
vn -0.0975 0.0975 0.9904
vn -0.0097 0.9951 0.0980
vn -0.0097 -0.9951 0.0980
vn -0.0975 -0.0975 0.9904
vn -0.0286 0.9565 0.2902
vn -0.0938 -0.2890 0.9527
vn -0.0464 0.8810 0.4709
vn -0.0865 -0.4696 0.8786
vn -0.0624 0.7715 0.6332
vn -0.0759 -0.6326 0.7708
vn -0.1847 0.7715 0.6088
vn -0.2248 -0.6326 0.7412
vn -0.2248 0.6326 0.7412
vn -0.1847 -0.7715 0.6088
vn -0.2563 0.4696 0.8448
vn -0.1374 -0.8810 0.4528
vn -0.2779 0.2890 0.9161
vn -0.0846 -0.9565 0.2790
vn -0.2889 0.0975 0.9524
vn -0.0286 0.9951 0.0942
vn -0.0286 -0.9951 0.0942
vn -0.2889 -0.0975 0.9524
vn -0.0846 0.9565 0.2790
vn -0.2779 -0.2890 0.9161
vn -0.1374 0.8810 0.4528
vn -0.2563 -0.4696 0.8448
vn -0.4691 0.0975 0.8777
vn -0.0464 0.9951 0.0869
vn -0.0464 -0.9951 0.0869
vn -0.4691 -0.0975 0.8777
vn -0.1374 0.9565 0.2571
vn -0.4513 -0.2890 0.8443
vn -0.2231 0.8810 0.4173
vn -0.4162 -0.4696 0.7786
vn -0.2999 0.7715 0.5611
vn -0.3651 -0.6326 0.6831
vn -0.3651 0.6326 0.6831
vn -0.2999 -0.7715 0.5611
vn -0.4162 0.4696 0.7786
vn -0.2231 -0.8810 0.4173
vn -0.4513 0.2890 0.8443
vn -0.1374 -0.9565 0.2571
vn -0.4913 -0.6326 0.5987
vn -0.4913 0.6326 0.5987
vn -0.4036 -0.7715 0.4918
vn -0.5601 0.4696 0.6825
vn -0.3002 -0.8810 0.3658
vn -0.6073 0.2890 0.7400
vn -0.1850 -0.9565 0.2254
vn -0.6314 0.0975 0.7693
vn -0.0625 0.9951 0.0761
vn -0.0625 -0.9951 0.0761
vn -0.6314 -0.0975 0.7693
vn -0.1850 0.9565 0.2254
vn -0.6073 -0.2890 0.7400
vn -0.3002 0.8810 0.3658
vn -0.5601 -0.4696 0.6825
vn -0.4036 0.7715 0.4918
vn -0.0761 0.9951 0.0625
vn -0.0761 -0.9951 0.0625
vn -0.7693 -0.0975 0.6314
vn -0.2254 0.9565 0.1850
vn -0.7400 -0.2890 0.6073
vn -0.3658 0.8810 0.3002
vn -0.6825 -0.4696 0.5601
vn -0.4918 0.7715 0.4036
vn -0.5987 -0.6326 0.4913
vn -0.5987 0.6326 0.4913
vn -0.4918 -0.7715 0.4036
vn -0.6825 0.4696 0.5601
vn -0.3658 -0.8810 0.3002
vn -0.7400 0.2890 0.6073
vn -0.2254 -0.9565 0.1850
vn -0.7693 0.0975 0.6314
vn -0.6831 0.6326 0.3651
vn -0.5611 -0.7715 0.2999
vn -0.7786 0.4696 0.4162
vn -0.4173 -0.8810 0.2230
vn -0.8443 0.2890 0.4513
vn -0.2571 -0.9565 0.1374
vn -0.8777 0.0975 0.4691
vn -0.0869 0.9951 0.0464
vn -0.0869 -0.9951 0.0464
vn -0.8777 -0.0975 0.4691
vn -0.2571 0.9565 0.1374
vn -0.8443 -0.2890 0.4513
vn -0.4173 0.8810 0.2231
vn -0.7786 -0.4696 0.4162
vn -0.5611 0.7715 0.2999
vn -0.6831 -0.6326 0.3651
vn -0.9524 -0.0975 0.2889
vn -0.2790 0.9565 0.0846
vn -0.9161 -0.2890 0.2779
vn -0.4528 0.8810 0.1374
vn -0.8448 -0.4696 0.2563
vn -0.6088 0.7715 0.1847
vn -0.7412 -0.6326 0.2248
vn -0.7412 0.6326 0.2248
vn -0.6088 -0.7715 0.1847
vn -0.8448 0.4696 0.2563
vn -0.4528 -0.8810 0.1374
vn -0.9161 0.2890 0.2779
vn -0.2790 -0.9565 0.0846
vn -0.9524 0.0975 0.2889
vn -0.0942 0.9951 0.0286
vn -0.0942 -0.9951 0.0286
vn -0.6332 -0.7715 0.0624
vn -0.8786 0.4696 0.0865
vn -0.4709 -0.8810 0.0464
vn -0.9527 0.2890 0.0938
vn -0.2902 -0.9565 0.0286
vn -0.9904 0.0975 0.0975
vn -0.0980 0.9951 0.0097
vn -0.0980 -0.9951 0.0097
vn -0.9904 -0.0975 0.0975
vn -0.2902 0.9565 0.0286
vn -0.9527 -0.2890 0.0938
vn -0.4709 0.8810 0.0464
vn -0.8786 -0.4696 0.0865
vn -0.6332 0.7715 0.0624
vn -0.7708 -0.6326 0.0759
vn -0.7708 0.6326 0.0759
vn -0.9527 -0.2890 -0.0938
vn -0.4709 0.8810 -0.0464
vn -0.8786 -0.4696 -0.0865
vn -0.6332 0.7715 -0.0624
vn -0.7708 -0.6326 -0.0759
vn -0.7708 0.6326 -0.0759
vn -0.6332 -0.7715 -0.0624
vn -0.8786 0.4696 -0.0865
vn -0.4709 -0.8810 -0.0464
vn -0.9527 0.2890 -0.0938
vn -0.2902 -0.9565 -0.0286
vn -0.9904 0.0975 -0.0976
vn -0.0980 0.9951 -0.0097
vn -0.0980 -0.9951 -0.0097
vn -0.9904 -0.0975 -0.0976
vn -0.2902 0.9565 -0.0286
vn -0.4528 -0.8810 -0.1374
vn -0.9161 0.2890 -0.2779
vn -0.2790 -0.9565 -0.0846
vn -0.9524 0.0975 -0.2889
vn -0.0942 0.9951 -0.0286
vn -0.0942 -0.9951 -0.0286
vn -0.9524 -0.0975 -0.2889
vn -0.2790 0.9565 -0.0846
vn -0.9161 -0.2890 -0.2779
vn -0.4528 0.8810 -0.1374
vn -0.8448 -0.4696 -0.2563
vn -0.6088 0.7715 -0.1847
vn -0.7412 -0.6326 -0.2248
vn -0.7412 0.6326 -0.2248
vn -0.6088 -0.7715 -0.1847
vn -0.8448 0.4696 -0.2563
vn -0.4173 0.8810 -0.2231
vn -0.7786 -0.4696 -0.4162
vn -0.5611 0.7715 -0.2999
vn -0.6831 -0.6326 -0.3651
vn -0.6831 0.6326 -0.3651
vn -0.5611 -0.7715 -0.2999
vn -0.7786 0.4696 -0.4162
vn -0.4173 -0.8810 -0.2231
vn -0.8443 0.2890 -0.4513
vn -0.2571 -0.9565 -0.1374
vn -0.8777 0.0975 -0.4691
vn -0.0869 0.9951 -0.0464
vn -0.0869 -0.9951 -0.0464
vn -0.8777 -0.0975 -0.4691
vn -0.2571 0.9565 -0.1374
vn -0.8443 -0.2890 -0.4513
vn -0.7400 0.2890 -0.6073
vn -0.2254 -0.9565 -0.1850
vn -0.7693 0.0975 -0.6314
vn -0.0761 0.9951 -0.0625
vn -0.0761 -0.9951 -0.0625
vn -0.7693 -0.0975 -0.6314
vn -0.2254 0.9565 -0.1850
vn -0.7400 -0.2890 -0.6073
vn -0.3658 0.8810 -0.3002
vn -0.6825 -0.4696 -0.5601
vn -0.4918 0.7715 -0.4036
vn -0.5987 -0.6326 -0.4913
vn -0.5987 0.6326 -0.4913
vn -0.4918 -0.7715 -0.4036
vn -0.6825 0.4696 -0.5601
vn -0.3658 -0.8810 -0.3002
vn -0.5601 -0.4696 -0.6825
vn -0.4036 0.7715 -0.4918
vn -0.4913 -0.6326 -0.5987
vn -0.4913 0.6326 -0.5987
vn -0.4036 -0.7715 -0.4918
vn -0.5601 0.4696 -0.6825
vn -0.3002 -0.8810 -0.3658
vn -0.6073 0.2890 -0.7400
vn -0.1850 -0.9565 -0.2254
vn -0.6314 0.0975 -0.7693
vn -0.0625 0.9951 -0.0761
vn -0.0625 -0.9951 -0.0761
vn -0.6314 -0.0975 -0.7693
vn -0.1850 0.9565 -0.2254
vn -0.6073 -0.2890 -0.7400
vn -0.3002 0.8810 -0.3658
vn -0.1374 -0.9565 -0.2571
vn -0.4691 0.0975 -0.8777
vn -0.0464 0.9951 -0.0869
vn -0.0464 -0.9951 -0.0869
vn -0.4691 -0.0975 -0.8777
vn -0.1374 0.9565 -0.2571
vn -0.4513 -0.2890 -0.8443
vn -0.2230 0.8810 -0.4173
vn -0.4162 -0.4696 -0.7786
vn -0.2999 0.7715 -0.5611
vn -0.3651 -0.6326 -0.6831
vn -0.3651 0.6326 -0.6831
vn -0.2999 -0.7715 -0.5611
vn -0.4162 0.4696 -0.7786
vn -0.2230 -0.8810 -0.4173
vn -0.4513 0.2890 -0.8443
vn -0.1847 0.7715 -0.6088
vn -0.2248 -0.6326 -0.7412
vn -0.2248 0.6326 -0.7412
vn -0.1847 -0.7715 -0.6088
vn -0.2563 0.4696 -0.8448
vn -0.1374 -0.8810 -0.4528
vn -0.2779 0.2890 -0.9161
vn -0.0846 -0.9565 -0.2790
vn -0.2889 0.0975 -0.9524
vn -0.0286 0.9951 -0.0942
vn -0.0286 -0.9951 -0.0942
vn -0.2889 -0.0975 -0.9524
vn -0.0846 0.9565 -0.2790
vn -0.2779 -0.2890 -0.9161
vn -0.1374 0.8810 -0.4528
vn -0.2563 -0.4696 -0.8448
vn -0.0975 0.0975 -0.9904
vn -0.0097 0.9951 -0.0980
vn -0.0097 -0.9951 -0.0980
vn -0.0975 -0.0975 -0.9904
vn -0.0286 0.9565 -0.2902
vn -0.0938 -0.2890 -0.9527
vn -0.0464 0.8810 -0.4709
vn -0.0865 -0.4696 -0.8786
vn -0.0624 0.7715 -0.6332
vn -0.0759 -0.6326 -0.7708
vn -0.0759 0.6326 -0.7708
vn -0.0624 -0.7715 -0.6332
vn -0.0865 0.4696 -0.8786
vn -0.0464 -0.8810 -0.4709
vn -0.0938 0.2890 -0.9527
vn -0.0286 -0.9565 -0.2902
vn 0.0759 -0.6326 -0.7708
vn 0.0759 0.6326 -0.7708
vn 0.0624 -0.7715 -0.6332
vn 0.0865 0.4696 -0.8786
vn 0.0464 -0.8810 -0.4709
vn 0.0938 0.2890 -0.9527
vn 0.0286 -0.9565 -0.2902
vn 0.0976 0.0975 -0.9904
vn 0.0097 0.9951 -0.0980
vn 0.0097 -0.9951 -0.0980
vn 0.0975 -0.0975 -0.9904
vn 0.0286 0.9565 -0.2902
vn 0.0938 -0.2890 -0.9527
vn 0.0464 0.8810 -0.4709
vn 0.0865 -0.4696 -0.8786
vn 0.0624 0.7715 -0.6332
vn 0.0286 -0.9951 -0.0942
vn 0.2889 -0.0975 -0.9524
vn 0.0846 0.9565 -0.2790
vn 0.2779 -0.2890 -0.9161
vn 0.1374 0.8810 -0.4528
vn 0.2563 -0.4696 -0.8448
vn 0.1847 0.7715 -0.6088
vn 0.2248 -0.6326 -0.7412
vn 0.2248 0.6326 -0.7412
vn 0.1847 -0.7715 -0.6088
vn 0.2563 0.4696 -0.8448
vn 0.1374 -0.8810 -0.4528
vn 0.2779 0.2890 -0.9161
vn 0.0846 -0.9565 -0.2790
vn 0.2889 0.0975 -0.9524
vn 0.0286 0.9951 -0.0942
vn 0.2999 -0.7715 -0.5611
vn 0.4162 0.4696 -0.7786
vn 0.2231 -0.8810 -0.4173
vn 0.4513 0.2890 -0.8443
vn 0.1374 -0.9565 -0.2571
vn 0.4691 0.0975 -0.8777
vn 0.0464 0.9951 -0.0869
vn 0.0464 -0.9951 -0.0869
vn 0.4691 -0.0975 -0.8777
vn 0.1374 0.9565 -0.2571
vn 0.4513 -0.2890 -0.8443
vn 0.2230 0.8810 -0.4173
vn 0.4162 -0.4696 -0.7786
vn 0.2999 0.7715 -0.5611
vn 0.3651 -0.6326 -0.6831
vn 0.3651 0.6326 -0.6831
vn 0.1850 0.9565 -0.2254
vn 0.6073 -0.2890 -0.7400
vn 0.3002 0.8810 -0.3658
vn 0.5601 -0.4696 -0.6825
vn 0.4036 0.7715 -0.4918
vn 0.4913 -0.6326 -0.5987
vn 0.4913 0.6326 -0.5987
vn 0.4036 -0.7715 -0.4918
vn 0.5601 0.4696 -0.6825
vn 0.3002 -0.8810 -0.3658
vn 0.6073 0.2890 -0.7400
vn 0.1850 -0.9565 -0.2254
vn 0.6314 0.0975 -0.7693
vn 0.0625 0.9951 -0.0761
vn 0.0625 -0.9951 -0.0761
vn 0.6314 -0.0975 -0.7693
vn 0.6825 0.4696 -0.5601
vn 0.3658 -0.8810 -0.3002
vn 0.7400 0.2890 -0.6073
vn 0.2254 -0.9565 -0.1850
vn 0.7693 0.0975 -0.6314
vn 0.0761 0.9951 -0.0625
vn 0.0761 -0.9951 -0.0625
vn 0.7693 -0.0975 -0.6314
vn 0.2254 0.9565 -0.1850
vn 0.7400 -0.2890 -0.6073
vn 0.3658 0.8810 -0.3002
vn 0.6825 -0.4696 -0.5601
vn 0.4918 0.7715 -0.4036
vn 0.5987 -0.6326 -0.4913
vn 0.5987 0.6326 -0.4913
vn 0.4918 -0.7715 -0.4036
vn 0.8443 -0.2890 -0.4513
vn 0.4173 0.8810 -0.2230
vn 0.7786 -0.4696 -0.4162
vn 0.5611 0.7715 -0.2999
vn 0.6831 -0.6326 -0.3651
vn 0.6831 0.6326 -0.3651
vn 0.5611 -0.7715 -0.2999
vn 0.7786 0.4696 -0.4162
vn 0.4173 -0.8810 -0.2230
vn 0.8443 0.2890 -0.4513
vn 0.2571 -0.9565 -0.1374
vn 0.8777 0.0975 -0.4691
vn 0.0869 0.9951 -0.0464
vn 0.0869 -0.9951 -0.0464
vn 0.8777 -0.0975 -0.4691
vn 0.2571 0.9565 -0.1374
vn 0.4528 -0.8810 -0.1374
vn 0.9161 0.2890 -0.2779
vn 0.2790 -0.9565 -0.0846
vn 0.9524 0.0975 -0.2889
vn 0.0942 0.9951 -0.0286
vn 0.0942 -0.9951 -0.0286
vn 0.9524 -0.0975 -0.2889
vn 0.2790 0.9565 -0.0846
vn 0.9161 -0.2890 -0.2779
vn 0.4528 0.8810 -0.1374
vn 0.8448 -0.4696 -0.2563
vn 0.6088 0.7715 -0.1847
vn 0.7412 -0.6326 -0.2248
vn 0.7412 0.6326 -0.2248
vn 0.6088 -0.7715 -0.1847
vn 0.8448 0.4696 -0.2563
vn 0.4709 0.8810 -0.0464
vn 0.8786 -0.4696 -0.0865
vn 0.6332 0.7715 -0.0624
vn 0.7708 -0.6326 -0.0759
vn 0.7708 0.6326 -0.0759
vn 0.6332 -0.7715 -0.0624
vn 0.8786 0.4696 -0.0865
vn 0.4709 -0.8810 -0.0464
vn 0.9527 0.2890 -0.0938
vn 0.2902 -0.9565 -0.0286
vn 0.9904 0.0975 -0.0975
vn 0.0980 0.9951 -0.0097
vn 0.0980 -0.9951 -0.0097
vn 0.9904 -0.0975 -0.0975
vn 0.2902 0.9565 -0.0286
vn 0.9527 -0.2890 -0.0938
vn 0.9527 0.2890 0.0938
vn 0.2902 -0.9565 0.0286
vn 0.9904 0.0975 0.0976
vn 0.0980 0.9951 0.0097
vn 0.0980 -0.9951 0.0097
vn 0.9904 -0.0975 0.0975
vn 0.2902 0.9565 0.0286
vn 0.9527 -0.2890 0.0938
vn 0.4709 0.8810 0.0464
vn 0.8786 -0.4696 0.0865
vn 0.6332 0.7715 0.0624
vn 0.7708 -0.6326 0.0759
vn 0.7708 0.6326 0.0759
vn 0.6332 -0.7715 0.0624
vn 0.8786 0.4696 0.0865
vn 0.4709 -0.8810 0.0464
vn 0.8448 -0.4696 0.2563
vn 0.6088 0.7715 0.1847
vn 0.7412 -0.6326 0.2248
vn 0.7412 0.6326 0.2248
vn 0.6088 -0.7715 0.1847
vn 0.8448 0.4696 0.2563
vn 0.4528 -0.8810 0.1374
vn 0.9161 0.2890 0.2779
vn 0.2790 -0.9565 0.0846
vn 0.9524 0.0975 0.2889
vn 0.0942 0.9951 0.0286
vn 0.0942 -0.9951 0.0286
vn 0.9524 -0.0975 0.2889
vn 0.2790 0.9565 0.0846
vn 0.9161 -0.2890 0.2779
vn 0.4528 0.8810 0.1374
vn 0.2571 -0.9565 0.1374
vn 0.8777 0.0975 0.4691
vn 0.0869 0.9951 0.0464
vn 0.0869 -0.9951 0.0464
vn 0.8777 -0.0975 0.4691
vn 0.2571 0.9565 0.1374
vn 0.8443 -0.2890 0.4513
vn 0.4173 0.8810 0.2230
vn 0.7786 -0.4696 0.4162
vn 0.5611 0.7715 0.2999
vn 0.6831 -0.6326 0.3651
vn 0.6831 0.6326 0.3651
vn 0.5611 -0.7715 0.2999
vn 0.7786 0.4696 0.4162
vn 0.4173 -0.8810 0.2231
vn 0.8443 0.2890 0.4513
vn 0.5987 -0.6326 0.4913
vn 0.5987 0.6326 0.4913
vn 0.4918 -0.7715 0.4036
vn 0.6825 0.4696 0.5601
vn 0.3658 -0.8810 0.3002
vn 0.7400 0.2890 0.6073
vn 0.2254 -0.9565 0.1850
vn 0.7693 0.0975 0.6314
vn 0.0761 0.9951 0.0625
vn 0.0761 -0.9951 0.0625
vn 0.7693 -0.0975 0.6314
vn 0.2254 0.9565 0.1850
vn 0.7400 -0.2890 0.6073
vn 0.3658 0.8810 0.3002
vn 0.6825 -0.4696 0.5601
vn 0.4918 0.7715 0.4036
vn 0.0625 0.9951 0.0761
vn 0.0625 -0.9951 0.0761
vn 0.6314 -0.0975 0.7693
vn 0.1850 0.9565 0.2254
vn 0.6073 -0.2890 0.7400
vn 0.3002 0.8810 0.3658
vn 0.5601 -0.4696 0.6825
vn 0.4036 0.7715 0.4918
vn 0.4913 -0.6326 0.5987
vn 0.4913 0.6326 0.5987
vn 0.4036 -0.7715 0.4918
vn 0.5601 0.4696 0.6825
vn 0.3002 -0.8810 0.3658
vn 0.6073 0.2890 0.7400
vn 0.1850 -0.9566 0.2254
vn 0.6314 0.0975 0.7693
vn 0.3651 0.6326 0.6831
vn 0.2999 -0.7715 0.5611
vn 0.4162 0.4696 0.7786
vn 0.2231 -0.8810 0.4173
vn 0.4513 0.2890 0.8443
vn 0.1374 -0.9565 0.2571
vn 0.4691 0.0975 0.8777
vn 0.0464 0.9951 0.0869
vn 0.0464 -0.9951 0.0869
vn 0.4691 -0.0975 0.8777
vn 0.1374 0.9565 0.2571
vn 0.4513 -0.2890 0.8443
vn 0.2230 0.8810 0.4173
vn 0.4162 -0.4696 0.7786
vn 0.2999 0.7715 0.5611
vn 0.3651 -0.6326 0.6831
vn 0.2889 -0.0975 0.9524
vn 0.0846 0.9565 0.2790
vn 0.2779 -0.2890 0.9161
vn 0.1374 0.8810 0.4528
vn 0.2563 -0.4696 0.8448
vn 0.1847 0.7715 0.6088
vn 0.2248 -0.6326 0.7412
vn 0.2248 0.6326 0.7412
vn 0.1847 -0.7715 0.6088
vn 0.2563 0.4696 0.8448
vn 0.1374 -0.8810 0.4528
vn 0.2779 0.2890 0.9161
vn 0.0846 -0.9565 0.2790
vn 0.2889 0.0975 0.9524
vn 0.0286 0.9951 0.0942
vn 0.0286 -0.9951 0.0942
vn 0.0624 -0.7715 0.6332
vn 0.0865 0.4696 0.8786
vn 0.0464 -0.8810 0.4709
vn 0.0938 0.2890 0.9527
vn 0.0286 -0.9565 0.2902
vn 0.0976 0.0975 0.9904
vn 0.0097 0.9951 0.0980
vn 0.0097 -0.9951 0.0980
vn 0.0976 -0.0976 0.9904
vn 0.0286 0.9565 0.2902
vn 0.0938 -0.2890 0.9527
vn 0.0464 0.8810 0.4709
vn 0.0865 -0.4696 0.8786
vn 0.0624 0.7715 0.6332
vn 0.0759 -0.6326 0.7708
vn 0.0759 0.6326 0.7708
vn -0.0919 0.7265 0.6810
vn 0.6251 0.0077 0.7805
vn 0.6239 0.0242 0.7811
vn 0.6200 0.0453 0.7833
vn 0.6121 0.0777 0.7869
vn -0.5998 0.0832 0.7958
vn -0.6133 0.0457 0.7885
vn -0.6205 0.0232 0.7839
vn -0.6241 0.0071 0.7813
vn -0.2230 0.8810 0.4173
vn -0.1850 -0.9566 0.2254
vn -0.4173 0.8810 0.2230
vn -0.2790 0.9566 -0.0846
vn -0.2231 0.8810 -0.4173
vn -0.2231 -0.8810 -0.4173
vn 0.0975 0.0975 -0.9904
vn 0.0976 -0.0975 -0.9904
vn 0.2230 -0.8810 -0.4173
vn 0.2231 0.8810 -0.4173
vn 0.1850 -0.9566 -0.2254
vn 0.9904 0.0975 0.0975
vn 0.9904 -0.0975 0.0976
vn 0.4173 0.8810 0.2231
vn 0.4173 -0.8810 0.2230
vn 0.1850 -0.9565 0.2254
vn 0.2231 0.8810 0.4173
vn 0.0976 0.0976 0.9904
vn 0.0976 -0.0975 0.9904
vt 0.406250 0.500000
vt 0.375000 0.437500
vt 0.406250 0.437500
vt 0.375000 0.375000
vt 0.406250 0.375000
vt 0.406250 0.312500
vt 0.375000 0.312500
vt 0.375000 0.250000
vt 0.406250 0.250000
vt 0.343750 0.375000
vt 0.343750 0.312500
vt 0.343750 0.250000
vt 0.375000 0.500000
vt 0.343750 0.437500
vt 0.343750 0.500000
vt 0.312500 0.437500
vt 0.312500 0.375000
vt 0.312500 0.312500
vt 0.312500 0.250000
vt 0.281250 0.375000
vt 0.281250 0.312500
vt 0.281250 0.250000
vt 0.312500 0.500000
vt 0.281250 0.437500
vt 0.281250 0.500000
vt 0.250000 0.437500
vt 0.250000 0.375000
vt 0.250000 0.312500
vt 0.250000 0.250000
vt 0.218750 0.250000
vt 0.250000 0.500000
vt 0.218750 0.437500
vt 0.218750 0.375000
vt 0.218750 0.312500
vt 0.218750 0.500000
vt 0.187500 0.437500
vt 0.187500 0.375000
vt 0.187500 0.312500
vt 0.187500 0.250000
vt 0.187500 0.500000
vt 0.156250 0.437500
vt 0.156250 0.375000
vt 0.156250 0.312500
vt 0.156250 0.250000
vt 0.156250 0.500000
vt 0.125000 0.437500
vt 0.125000 0.375000
vt 0.125000 0.312500
vt 0.125000 0.250000
vt 0.125000 0.500000
vt 0.093750 0.437500
vt 0.093750 0.375000
vt 0.093750 0.312500
vt 0.093750 0.250000
vt 0.093750 0.500000
vt 0.750000 0.687500
vt 0.718750 0.750000
vt 0.718750 0.687500
vt 0.750000 0.250000
vt 0.718750 0.187500
vt 0.750000 0.187500
vt 0.750000 0.625000
vt 0.718750 0.625000
vt 0.718750 0.125000
vt 0.750000 0.125000
vt 0.750000 0.562500
vt 0.718750 0.562500
vt 0.718750 0.062500
vt 0.750000 0.062500
vt 0.750000 0.500000
vt 0.718750 0.500000
vt 0.750000 0.937500
vt 0.734375 1.000000
vt 0.718750 0.937500
vt 0.734375 0.000000
vt 0.718750 0.437500
vt 0.750000 0.437500
vt 0.750000 0.875000
vt 0.718750 0.875000
vt 0.718750 0.375000
vt 0.750000 0.375000
vt 0.750000 0.812500
vt 0.718750 0.812500
vt 0.718750 0.312500
vt 0.750000 0.312500
vt 0.750000 0.750000
vt 0.718750 0.250000
vt 0.687500 0.812500
vt 0.687500 0.750000
vt 0.687500 0.250000
vt 0.687500 0.687500
vt 0.687500 0.187500
vt 0.687500 0.625000
vt 0.687500 0.125000
vt 0.687500 0.562500
vt 0.687500 0.062500
vt 0.687500 0.500000
vt 0.703125 1.000000
vt 0.687500 0.937500
vt 0.703125 0.000000
vt 0.687500 0.437500
vt 0.687500 0.875000
vt 0.687500 0.375000
vt 0.687500 0.312500
vt 0.656250 0.562500
vt 0.656250 0.500000
vt 0.671875 1.000000
vt 0.656250 0.937500
vt 0.671875 0.000000
vt 0.656250 0.062500
vt 0.656250 0.437500
vt 0.656250 0.875000
vt 0.656250 0.375000
vt 0.656250 0.812500
vt 0.656250 0.312500
vt 0.656250 0.750000
vt 0.656250 0.250000
vt 0.656250 0.687500
vt 0.656250 0.187500
vt 0.656250 0.625000
vt 0.656250 0.125000
vt 0.625000 0.250000
vt 0.625000 0.750000
vt 0.625000 0.687500
vt 0.625000 0.187500
vt 0.625000 0.625000
vt 0.625000 0.125000
vt 0.625000 0.562500
vt 0.625000 0.062500
vt 0.625000 0.500000
vt 0.640625 1.000000
vt 0.625000 0.937500
vt 0.640625 0.000000
vt 0.625000 0.437500
vt 0.625000 0.875000
vt 0.625000 0.375000
vt 0.625000 0.812500
vt 0.625000 0.312500
vt 0.609375 1.000000
vt 0.593750 0.937500
vt 0.609375 0.000000
vt 0.593750 0.062500
vt 0.593750 0.437500
vt 0.593750 0.875000
vt 0.593750 0.375000
vt 0.593750 0.812500
vt 0.593750 0.312500
vt 0.593750 0.750000
vt 0.593750 0.250000
vt 0.593750 0.687500
vt 0.593750 0.187500
vt 0.593750 0.625000
vt 0.593750 0.125000
vt 0.593750 0.562500
vt 0.593750 0.500000
vt 0.562500 0.750000
vt 0.562500 0.687500
vt 0.562500 0.187500
vt 0.562500 0.625000
vt 0.562500 0.125000
vt 0.562500 0.562500
vt 0.562500 0.062500
vt 0.562500 0.500000
vt 0.578125 1.000000
vt 0.562500 0.937500
vt 0.578125 0.000000
vt 0.562500 0.437500
vt 0.562500 0.875000
vt 0.562500 0.375000
vt 0.562500 0.812500
vt 0.562500 0.312500
vt 0.562500 0.250000
vt 0.531250 0.437500
vt 0.531250 0.937500
vt 0.531250 0.875000
vt 0.531250 0.375000
vt 0.531250 0.812500
vt 0.531250 0.312500
vt 0.531250 0.750000
vt 0.531250 0.250000
vt 0.531250 0.687500
vt 0.531250 0.187500
vt 0.531250 0.625000
vt 0.531250 0.125000
vt 0.531250 0.562500
vt 0.531250 0.062500
vt 0.531250 0.500000
vt 0.546875 1.000000
vt 0.546875 0.000000
vt 0.500000 0.187500
vt 0.500000 0.687500
vt 0.500000 0.625000
vt 0.500000 0.125000
vt 0.500000 0.562500
vt 0.500000 0.062500
vt 0.500000 0.500000
vt 0.515625 1.000000
vt 0.500000 0.937500
vt 0.515625 0.000000
vt 0.500000 0.437500
vt 0.500000 0.875000
vt 0.500000 0.375000
vt 0.500000 0.812500
vt 0.500000 0.312500
vt 0.500000 0.750000
vt 0.500000 0.250000
vt 0.468750 0.437500
vt 0.468750 0.375000
vt 0.468750 0.812500
vt 0.468750 0.312500
vt 0.468750 0.750000
vt 0.468750 0.250000
vt 0.468750 0.687500
vt 0.468750 0.187500
vt 0.468750 0.625000
vt 0.468750 0.125000
vt 0.468750 0.562500
vt 0.468750 0.062500
vt 0.468750 0.500000
vt 0.484375 1.000000
vt 0.468750 0.937500
vt 0.484375 0.000000
vt 0.468750 0.875000
vt 0.437500 0.187500
vt 0.437500 0.125000
vt 0.437500 0.562500
vt 0.437500 0.062500
vt 0.437500 0.500000
vt 0.453125 1.000000
vt 0.437500 0.937500
vt 0.453125 0.000000
vt 0.437500 0.437500
vt 0.437500 0.875000
vt 0.437500 0.375000
vt 0.437500 0.812500
vt 0.437500 0.312500
vt 0.437500 0.750000
vt 0.437500 0.250000
vt 0.437500 0.687500
vt 0.437500 0.625000
vt 0.406250 0.812500
vt 0.406250 0.750000
vt 0.406250 0.687500
vt 0.406250 0.187500
vt 0.406250 0.625000
vt 0.406250 0.125000
vt 0.406250 0.562500
vt 0.406250 0.062500
vt 0.421875 1.000000
vt 0.406250 0.937500
vt 0.421875 0.000000
vt 0.406250 0.875000
vt 0.375000 0.562500
vt 0.375000 0.125000
vt 0.375000 0.062500
vt 0.390625 1.000000
vt 0.375000 0.937500
vt 0.390625 0.000000
vt 0.375000 0.875000
vt 0.375000 0.812500
vt 0.375000 0.750000
vt 0.375000 0.687500
vt 0.375000 0.187500
vt 0.375000 0.625000
vt 0.343750 0.750000
vt 0.343750 0.687500
vt 0.343750 0.187500
vt 0.343750 0.625000
vt 0.343750 0.125000
vt 0.343750 0.562500
vt 0.343750 0.062500
vt 0.359375 1.000000
vt 0.343750 0.937500
vt 0.359375 0.000000
vt 0.343750 0.875000
vt 0.343750 0.812500
vt 0.312500 0.125000
vt 0.312500 0.062500
vt 0.328125 1.000000
vt 0.312500 0.937500
vt 0.328125 0.000000
vt 0.312500 0.875000
vt 0.312500 0.812500
vt 0.312500 0.750000
vt 0.312500 0.687500
vt 0.312500 0.187500
vt 0.312500 0.625000
vt 0.312500 0.562500
vt 0.281250 0.750000
vt 0.281250 0.687500
vt 0.281250 0.187500
vt 0.281250 0.625000
vt 0.281250 0.125000
vt 0.281250 0.562500
vt 0.281250 0.062500
vt 0.296875 1.000000
vt 0.281250 0.937500
vt 0.296875 0.000000
vt 0.281250 0.875000
vt 0.281250 0.812500
vt 0.265625 1.000000
vt 0.250000 0.937500
vt 0.265625 0.000000
vt 0.250000 0.062500
vt 0.250000 0.875000
vt 0.250000 0.812500
vt 0.250000 0.750000
vt 0.250000 0.687500
vt 0.250000 0.187500
vt 0.250000 0.625000
vt 0.250000 0.125000
vt 0.250000 0.562500
vt 0.218750 0.750000
vt 0.218750 0.687500
vt 0.218750 0.187500
vt 0.218750 0.625000
vt 0.218750 0.125000
vt 0.218750 0.562500
vt 0.218750 0.062500
vt 0.234375 1.000000
vt 0.218750 0.937500
vt 0.234375 0.000000
vt 0.218750 0.875000
vt 0.218750 0.812500
vt 0.203125 0.000000
vt 0.187500 0.062500
vt 0.187500 0.937500
vt 0.187500 0.875000
vt 0.187500 0.812500
vt 0.187500 0.750000
vt 0.187500 0.687500
vt 0.187500 0.187500
vt 0.187500 0.625000
vt 0.187500 0.125000
vt 0.187500 0.562500
vt 0.203125 1.000000
vt 0.156250 0.187500
vt 0.156250 0.687500
vt 0.156250 0.625000
vt 0.156250 0.125000
vt 0.156250 0.562500
vt 0.156250 0.062500
vt 0.171875 1.000000
vt 0.156250 0.937500
vt 0.171875 0.000000
vt 0.156250 0.875000
vt 0.156250 0.812500
vt 0.156250 0.750000
vt 0.125000 0.937500
vt 0.125000 0.875000
vt 0.125000 0.812500
vt 0.125000 0.750000
vt 0.125000 0.687500
vt 0.125000 0.187500
vt 0.125000 0.625000
vt 0.125000 0.125000
vt 0.125000 0.562500
vt 0.125000 0.062500
vt 0.140625 1.000000
vt 0.140625 0.000000
vt 0.093750 0.687500
vt 0.093750 0.625000
vt 0.093750 0.125000
vt 0.093750 0.562500
vt 0.093750 0.062500
vt 0.109375 1.000000
vt 0.093750 0.937500
vt 0.109375 0.000000
vt 0.093750 0.875000
vt 0.093750 0.812500
vt 0.093750 0.750000
vt 0.093750 0.187500
vt 0.062500 0.375000
vt 0.062500 0.875000
vt 0.062500 0.812500
vt 0.062500 0.312500
vt 0.062500 0.750000
vt 0.062500 0.250000
vt 0.062500 0.687500
vt 0.062500 0.187500
vt 0.062500 0.625000
vt 0.062500 0.125000
vt 0.062500 0.562500
vt 0.062500 0.062500
vt 0.062500 0.500000
vt 0.078125 1.000000
vt 0.062500 0.937500
vt 0.078125 0.000000
vt 0.062500 0.437500
vt 0.031250 0.125000
vt 0.031250 0.625000
vt 0.031250 0.562500
vt 0.031250 0.062500
vt 0.031250 0.500000
vt 0.046875 1.000000
vt 0.031250 0.937500
vt 0.046875 0.000000
vt 0.031250 0.437500
vt 0.031250 0.875000
vt 0.031250 0.375000
vt 0.031250 0.812500
vt 0.031250 0.312500
vt 0.031250 0.750000
vt 0.031250 0.250000
vt 0.031250 0.687500
vt 0.031250 0.187500
vt 0.000000 0.875000
vt 0.000000 0.812500
vt 0.000000 0.312500
vt 0.000000 0.750000
vt 0.000000 0.250000
vt 0.000000 0.687500
vt 0.000000 0.187500
vt 0.000000 0.625000
vt 0.000000 0.125000
vt 0.000000 0.562500
vt 0.000000 0.062500
vt 0.000000 0.500000
vt 0.015625 1.000000
vt 0.000000 0.937500
vt 0.015625 0.000000
vt 0.000000 0.437500
vt 0.000000 0.375000
vt 1.000000 0.625000
vt 0.968750 0.562500
vt 1.000000 0.562500
vt 1.000000 0.062500
vt 0.968750 0.125000
vt 0.968750 0.062500
vt 0.968750 0.500000
vt 1.000000 0.500000
vt 1.000000 0.937500
vt 0.984375 1.000000
vt 0.968750 0.937500
vt 0.984375 0.000000
vt 1.000000 0.437500
vt 0.968750 0.437500
vt 0.968750 0.875000
vt 1.000000 0.875000
vt 1.000000 0.375000
vt 0.968750 0.375000
vt 0.968750 0.812500
vt 1.000000 0.812500
vt 1.000000 0.312500
vt 0.968750 0.312500
vt 0.968750 0.750000
vt 1.000000 0.750000
vt 1.000000 0.250000
vt 0.968750 0.250000
vt 0.968750 0.687500
vt 1.000000 0.687500
vt 1.000000 0.187500
vt 0.968750 0.187500
vt 0.968750 0.625000
vt 1.000000 0.125000
vt 0.937500 0.375000
vt 0.937500 0.312500
vt 0.937500 0.750000
vt 0.937500 0.250000
vt 0.937500 0.687500
vt 0.937500 0.187500
vt 0.937500 0.625000
vt 0.937500 0.125000
vt 0.937500 0.562500
vt 0.937500 0.062500
vt 0.937500 0.500000
vt 0.953125 1.000000
vt 0.937500 0.937500
vt 0.953125 0.000000
vt 0.937500 0.437500
vt 0.937500 0.875000
vt 0.937500 0.812500
vt 0.906250 0.125000
vt 0.906250 0.062500
vt 0.906250 0.500000
vt 0.921875 1.000000
vt 0.906250 0.937500
vt 0.921875 0.000000
vt 0.906250 0.437500
vt 0.906250 0.875000
vt 0.906250 0.375000
vt 0.906250 0.812500
vt 0.906250 0.312500
vt 0.906250 0.750000
vt 0.906250 0.250000
vt 0.906250 0.687500
vt 0.906250 0.187500
vt 0.906250 0.625000
vt 0.906250 0.562500
vt 0.875000 0.312500
vt 0.875000 0.250000
vt 0.875000 0.687500
vt 0.875000 0.187500
vt 0.875000 0.625000
vt 0.875000 0.125000
vt 0.875000 0.562500
vt 0.875000 0.062500
vt 0.875000 0.500000
vt 0.890625 1.000000
vt 0.875000 0.937500
vt 0.890625 0.000000
vt 0.875000 0.437500
vt 0.875000 0.875000
vt 0.875000 0.375000
vt 0.875000 0.812500
vt 0.875000 0.750000
vt 0.859375 1.000000
vt 0.843750 0.937500
vt 0.859375 0.000000
vt 0.843750 0.062500
vt 0.843750 0.500000
vt 0.843750 0.437500
vt 0.843750 0.875000
vt 0.843750 0.375000
vt 0.843750 0.812500
vt 0.843750 0.312500
vt 0.843750 0.750000
vt 0.843750 0.250000
vt 0.843750 0.687500
vt 0.843750 0.187500
vt 0.843750 0.625000
vt 0.843750 0.125000
vt 0.843750 0.562500
vt 0.812500 0.687500
vt 0.812500 0.250000
vt 0.812500 0.187500
vt 0.812500 0.625000
vt 0.812500 0.125000
vt 0.812500 0.562500
vt 0.812500 0.062500
vt 0.812500 0.500000
vt 0.828125 1.000000
vt 0.812500 0.937500
vt 0.828125 0.000000
vt 0.812500 0.437500
vt 0.812500 0.875000
vt 0.812500 0.375000
vt 0.812500 0.812500
vt 0.812500 0.312500
vt 0.812500 0.750000
vt 0.781250 0.500000
vt 0.781250 0.437500
vt 0.781250 0.875000
vt 0.781250 0.375000
vt 0.781250 0.812500
vt 0.781250 0.312500
vt 0.781250 0.750000
vt 0.781250 0.250000
vt 0.781250 0.687500
vt 0.781250 0.187500
vt 0.781250 0.625000
vt 0.781250 0.125000
vt 0.781250 0.562500
vt 0.781250 0.062500
vt 0.796875 1.000000
vt 0.781250 0.937500
vt 0.796875 0.000000
vt 0.765625 1.000000
vt 0.765625 0.000000
s 0
usemtl マテリアル
f 1/1/1 7/2/1 2/3/1
f 2/3/2 8/4/2 3/5/2
f 4/6/3 8/4/3 9/7/3
f 4/6/4 10/8/4 5/9/4
f 9/7/5 13/10/5 14/11/5
f 9/7/6 15/12/6 10/8/6
f 6/13/7 12/14/7 7/2/7
f 7/2/8 13/10/8 8/4/8
f 11/15/9 17/16/9 12/14/9
f 12/14/10 18/17/10 13/10/10
f 14/11/11 18/17/11 19/18/11
f 14/11/12 20/19/12 15/12/12
f 19/18/13 23/20/13 24/21/13
f 19/18/14 25/22/14 20/19/14
f 16/23/15 22/24/15 17/16/15
f 17/16/16 23/20/16 18/17/16
f 21/25/17 27/26/17 22/24/17
f 22/24/18 28/27/18 23/20/18
f 24/21/19 28/27/19 29/28/19
f 24/21/20 30/29/20 25/22/20
f 29/28/21 35/30/21 30/29/21
f 26/31/22 32/32/22 27/26/22
f 27/26/23 33/33/23 28/27/23
f 29/28/24 33/33/24 34/34/24
f 31/35/25 37/36/25 32/32/25
f 32/32/26 38/37/26 33/33/26
f 34/34/27 38/37/27 39/38/27
f 34/34/28 40/39/28 35/30/28
f 36/40/29 42/41/29 37/36/29
f 37/36/30 43/42/30 38/37/30
f 39/38/31 43/42/31 44/43/31
f 39/38/32 45/44/32 40/39/32
f 41/45/33 47/46/33 42/41/33
f 42/41/34 48/47/34 43/42/34
f 44/43/35 48/47/35 49/48/35
f 44/43/36 50/49/36 45/44/36
f 46/50/37 52/51/37 47/46/37
f 47/46/38 53/52/38 48/47/38
f 49/48/39 53/52/39 54/53/39
f 49/48/40 55/54/40 50/49/40
f 46/50/41 56/55/41 51/55/41
f 36/40/42 58/45/42 41/45/42
f 16/23/43 62/25/43 21/25/43
f 11/15/44 63/23/44 16/23/44
f 6/13/45 64/15/45 11/15/45
f 31/35/46 59/40/46 36/40/46
f 21/25/47 61/31/47 26/31/47
f 1/1/48 65/13/48 6/13/48
f 26/31/49 60/35/49 31/35/49
f 41/45/50 57/50/50 46/50/50
f 73/13/51 67/3/51 68/2/51
f 74/2/52 68/5/52 69/4/52
f 70/7/53 74/5/53 69/6/53
f 76/7/54 70/9/54 71/8/54
f 75/11/55 79/4/55 74/7/55
f 81/11/56 75/8/56 76/12/56
f 78/15/57 72/2/57 73/14/57
f 79/14/58 73/4/58 74/10/58
f 83/23/59 77/14/59 78/16/59
f 84/16/60 78/10/60 79/17/60
f 80/18/61 84/10/61 79/11/61
f 86/18/62 80/12/62 81/19/62
f 85/21/63 89/17/63 84/18/63
f 91/21/64 85/19/64 86/22/64
f 88/25/65 82/16/65 83/24/65
f 89/24/66 83/17/66 84/20/66
f 93/31/67 87/24/67 88/26/67
f 94/26/68 88/20/68 89/27/68
f 90/28/69 94/20/69 89/21/69
f 96/28/70 90/22/70 91/29/70
f 101/34/71 95/29/71 96/30/71
f 98/35/72 92/26/72 93/32/72
f 99/32/73 93/27/73 94/33/73
f 95/34/74 99/27/74 94/28/74
f 103/40/75 97/32/75 98/36/75
f 104/36/76 98/33/76 99/37/76
f 100/38/77 104/33/77 99/34/77
f 106/38/78 100/30/78 101/39/78
f 108/45/79 102/36/79 103/41/79
f 109/41/80 103/37/80 104/42/80
f 105/43/81 109/37/81 104/38/81
f 111/43/82 105/39/82 106/44/82
f 113/50/83 107/41/83 108/46/83
f 114/46/84 108/42/84 109/47/84
f 110/48/85 114/42/85 109/43/85
f 116/48/86 110/44/86 111/49/86
f 118/55/87 112/46/87 113/51/87
f 119/51/88 113/47/88 114/52/88
f 115/53/89 119/47/89 114/48/89
f 121/53/90 115/49/90 116/54/90
f 122/50/91 112/55/91 117/55/91
f 124/40/92 102/45/92 107/45/92
f 128/23/93 82/25/93 87/25/93
f 129/15/94 77/23/94 82/23/94
f 130/13/95 72/15/95 77/15/95
f 125/35/96 97/40/96 102/40/96
f 127/25/97 87/31/97 92/31/97
f 131/1/98 67/13/98 72/13/98
f 126/31/99 92/35/99 97/35/99
f 123/45/100 107/50/100 112/50/100
f 132/1/101 65/13/101 66/1/101
f 131/1/101 64/15/101 65/13/101
f 130/13/101 63/23/101 64/15/101
f 129/15/101 62/25/101 63/23/101
f 128/23/101 61/31/101 62/25/101
f 61/31/101 126/31/101 60/35/101
f 60/35/101 125/35/101 59/40/101
f 59/40/101 124/40/101 58/45/101
f 58/45/101 123/45/101 57/50/101
f 57/50/101 122/50/101 56/55/101
f 56/55/102 117/55/102 51/55/102
f 52/51/103 117/50/103 118/55/103
f 53/52/104 118/46/104 119/51/104
f 54/53/105 119/47/105 120/52/105
f 55/54/106 120/48/106 121/53/106
f 121/53/107 50/49/107 55/54/107
f 45/44/107 116/48/107 111/49/107
f 111/49/107 40/39/107 45/44/107
f 35/30/107 106/38/107 101/39/107
f 30/29/107 101/34/107 96/30/107
f 30/29/107 91/29/107 25/22/107
f 25/22/107 86/22/107 20/19/107
f 20/19/107 81/19/107 15/12/107
f 15/12/107 76/12/107 10/8/107
f 10/8/107 71/8/107 5/9/107
f 5/9/108 70/9/108 4/6/108
f 4/6/109 69/6/109 3/5/109
f 3/5/110 68/5/110 2/3/110
f 2/3/111 67/3/111 1/1/111
f 1/1/112 132/1/112 66/1/112
f 134/56/113 142/57/113 143/58/113
f 611/59/114 151/60/114 612/61/114
f 609/62/115 143/58/115 144/63/115
f 612/61/116 152/64/116 613/65/116
f 135/66/117 144/63/117 145/67/117
f 613/65/118 153/68/118 614/69/118
f 136/70/119 145/67/119 146/71/119
f 606/72/120 214/73/120 139/74/120
f 440/75/121 614/69/121 153/68/121
f 136/70/122 147/76/122 137/77/122
f 607/78/123 139/74/123 140/79/123
f 137/77/124 148/80/124 610/81/124
f 133/82/125 140/79/125 141/83/125
f 610/81/126 149/84/126 138/85/126
f 608/86/127 141/83/127 142/57/127
f 138/85/128 150/87/128 611/59/128
f 142/57/129 156/88/129 157/89/129
f 149/84/130 165/90/130 150/87/130
f 143/58/131 157/89/131 158/91/131
f 150/87/132 166/92/132 151/60/132
f 144/63/133 158/91/133 159/93/133
f 151/60/134 167/94/134 152/64/134
f 145/67/135 159/93/135 160/95/135
f 152/64/136 168/96/136 153/68/136
f 146/71/137 160/95/137 161/97/137
f 139/74/138 214/98/138 154/99/138
f 440/100/139 153/68/139 168/96/139
f 146/71/140 162/101/140 147/76/140
f 140/79/141 154/99/141 155/102/141
f 147/76/142 163/103/142 148/80/142
f 141/83/143 155/102/143 156/88/143
f 148/80/144 164/104/144 149/84/144
f 161/97/145 175/105/145 176/106/145
f 154/99/146 214/107/146 169/108/146
f 440/109/147 168/96/147 183/110/147
f 161/97/148 177/111/148 162/101/148
f 155/102/149 169/108/149 170/112/149
f 162/101/150 178/113/150 163/103/150
f 156/88/151 170/112/151 171/114/151
f 163/103/152 179/115/152 164/104/152
f 157/89/153 171/114/153 172/116/153
f 164/104/154 180/117/154 165/90/154
f 158/91/155 172/116/155 173/118/155
f 165/90/156 181/119/156 166/92/156
f 159/93/157 173/118/157 174/120/157
f 166/92/158 182/121/158 167/94/158
f 160/95/159 174/120/159 175/105/159
f 167/94/160 183/110/160 168/96/160
f 179/115/161 195/122/161 180/117/161
f 173/118/162 187/123/162 188/124/162
f 180/117/163 196/125/163 181/119/163
f 174/120/164 188/124/164 189/126/164
f 181/119/165 197/127/165 182/121/165
f 175/105/166 189/126/166 190/128/166
f 182/121/167 198/129/167 183/110/167
f 176/106/168 190/128/168 191/130/168
f 169/108/169 214/131/169 184/132/169
f 440/133/170 183/110/170 198/129/170
f 176/106/171 192/134/171 177/111/171
f 170/112/172 184/132/172 185/135/172
f 177/111/173 193/136/173 178/113/173
f 171/114/174 185/135/174 186/137/174
f 178/113/175 194/138/175 179/115/175
f 172/116/176 186/137/176 187/123/176
f 184/132/177 214/139/177 199/140/177
f 440/141/178 198/129/178 213/142/178
f 191/130/179 207/143/179 192/134/179
f 185/135/180 199/140/180 200/144/180
f 192/134/181 208/145/181 193/136/181
f 186/137/182 200/144/182 201/146/182
f 193/136/183 209/147/183 194/138/183
f 187/123/184 201/146/184 202/148/184
f 194/138/185 210/149/185 195/122/185
f 188/124/186 202/148/186 203/150/186
f 195/122/187 211/151/187 196/125/187
f 189/126/188 203/150/188 204/152/188
f 196/125/189 212/153/189 197/127/189
f 190/128/190 204/152/190 205/154/190
f 197/127/191 213/142/191 198/129/191
f 191/130/192 205/154/192 206/155/192
f 203/150/193 218/156/193 219/157/193
f 210/149/194 227/158/194 211/151/194
f 204/152/195 219/157/195 220/159/195
f 211/151/196 228/160/196 212/153/196
f 205/154/197 220/159/197 221/161/197
f 212/153/198 229/162/198 213/142/198
f 206/155/199 221/161/199 222/163/199
f 199/140/200 214/164/200 215/165/200
f 440/166/201 213/142/201 229/162/201
f 206/155/202 223/167/202 207/143/202
f 200/144/203 215/165/203 216/168/203
f 207/143/204 224/169/204 208/145/204
f 201/146/205 216/168/205 217/170/205
f 208/145/206 225/171/206 209/147/206
f 202/148/207 217/170/207 218/156/207
f 209/147/208 226/172/208 210/149/208
f 222/163/209 238/173/209 223/167/209
f 216/168/210 230/174/210 231/175/210
f 223/167/211 239/176/211 224/169/211
f 217/170/212 231/175/212 232/177/212
f 224/169/213 240/178/213 225/171/213
f 218/156/214 232/177/214 233/179/214
f 225/171/215 241/180/215 226/172/215
f 219/157/216 233/179/216 234/181/216
f 226/172/217 242/182/217 227/158/217
f 220/159/218 234/181/218 235/183/218
f 227/158/219 243/184/219 228/160/219
f 221/161/220 235/183/220 236/185/220
f 228/160/221 244/186/221 229/162/221
f 222/163/222 236/185/222 237/187/222
f 215/165/223 214/188/223 230/174/223
f 440/189/224 229/162/224 244/186/224
f 241/180/225 257/190/225 242/182/225
f 235/183/226 249/191/226 250/192/226
f 242/182/227 258/193/227 243/184/227
f 236/185/228 250/192/228 251/194/228
f 243/184/229 259/195/229 244/186/229
f 237/187/230 251/194/230 252/196/230
f 230/174/231 214/197/231 245/198/231
f 440/199/232 244/186/232 259/195/232
f 237/187/233 253/200/233 238/173/233
f 231/175/234 245/198/234 246/201/234
f 238/173/235 254/202/235 239/176/235
f 232/177/236 246/201/236 247/203/236
f 239/176/237 255/204/237 240/178/237
f 233/179/238 247/203/238 248/205/238
f 240/178/239 256/206/239 241/180/239
f 234/181/240 248/205/240 249/191/240
f 254/202/241 268/207/241 269/208/241
f 246/201/242 262/209/242 247/203/242
f 255/204/243 269/208/243 270/210/243
f 247/203/244 263/211/244 248/205/244
f 256/206/245 270/210/245 271/212/245
f 248/205/246 264/213/246 249/191/246
f 257/190/247 271/212/247 272/214/247
f 249/191/248 265/215/248 250/192/248
f 258/193/249 272/214/249 273/216/249
f 250/192/250 266/217/250 251/194/250
f 259/195/251 273/216/251 274/218/251
f 251/194/252 267/219/252 252/196/252
f 245/198/253 214/220/253 260/221/253
f 440/222/254 259/195/254 274/218/254
f 253/200/255 267/219/255 268/207/255
f 245/198/256 261/223/256 246/201/256
f 273/216/257 287/224/257 288/225/257
f 265/215/258 281/226/258 266/217/258
f 274/218/259 288/225/259 289/227/259
f 266/217/260 282/228/260 267/219/260
f 260/221/261 214/229/261 275/230/261
f 440/231/262 274/218/262 289/227/262
f 268/207/263 282/228/263 283/232/263
f 260/221/264 276/233/264 261/223/264
f 269/208/265 283/232/265 284/234/265
f 261/223/266 277/235/266 262/209/266
f 270/210/267 284/234/267 285/236/267
f 262/209/268 278/237/268 263/211/268
f 271/212/269 285/236/269 286/238/269
f 263/211/270 279/239/270 264/213/270
f 272/214/271 286/238/271 287/224/271
f 264/213/272 280/240/272 265/215/272
f 276/233/273 292/241/273 277/235/273
f 285/236/274 299/5/274 300/6/274
f 277/235/275 293/242/275 278/237/275
f 286/238/276 300/6/276 301/9/276
f 278/237/277 294/243/277 279/239/277
f 287/224/278 301/9/278 302/244/278
f 279/239/279 295/245/279 280/240/279
f 288/225/280 302/244/280 303/246/280
f 280/240/281 296/247/281 281/226/281
f 289/227/282 303/246/282 304/248/282
f 281/226/283 297/1/283 282/228/283
f 275/230/284 214/249/284 290/250/284
f 440/251/285 289/227/285 304/248/285
f 283/232/286 297/1/286 298/3/286
f 275/230/287 291/252/287 276/233/287
f 284/234/288 298/3/288 299/5/288
f 295/245/289 311/253/289 296/247/289
f 304/248/290 318/254/290 319/255/290
f 296/247/291 312/13/291 297/1/291
f 290/250/292 214/256/292 305/257/292
f 440/258/293 304/248/293 319/255/293
f 298/3/294 312/13/294 313/2/294
f 290/250/295 306/259/295 291/252/295
f 299/5/296 313/2/296 314/4/296
f 291/252/297 307/260/297 292/241/297
f 300/6/298 314/4/298 315/7/298
f 292/241/299 308/261/299 293/242/299
f 301/9/300 315/7/300 316/8/300
f 293/242/301 309/262/301 294/243/301
f 302/244/302 316/8/302 317/263/302
f 294/243/303 310/264/303 295/245/303
f 303/246/304 317/263/304 318/254/304
f 315/7/305 329/10/305 330/11/305
f 307/260/306 323/265/306 308/261/306
f 316/8/307 330/11/307 331/12/307
f 308/261/308 324/266/308 309/262/308
f 317/263/309 331/12/309 332/267/309
f 309/262/310 325/268/310 310/264/310
f 318/254/311 332/267/311 333/269/311
f 310/264/312 326/270/312 311/253/312
f 319/255/313 333/269/313 334/271/313
f 311/253/314 327/15/314 312/13/314
f 305/257/315 214/272/315 320/273/315
f 440/274/316 319/255/316 334/271/316
f 313/2/317 327/15/317 328/14/317
f 305/257/318 321/275/318 306/259/318
f 314/4/319 328/14/319 329/10/319
f 306/259/320 322/276/320 307/260/320
f 334/271/321 348/277/321 349/278/321
f 326/270/322 342/23/322 327/15/322
f 320/273/323 214/279/323 335/280/323
f 440/281/324 334/271/324 349/278/324
f 328/14/325 342/23/325 343/16/325
f 320/273/326 336/282/326 321/275/326
f 329/10/327 343/16/327 344/17/327
f 321/275/328 337/283/328 322/276/328
f 330/11/329 344/17/329 345/18/329
f 322/276/330 338/284/330 323/265/330
f 331/12/331 345/18/331 346/19/331
f 323/265/332 339/285/332 324/266/332
f 332/267/333 346/19/333 347/286/333
f 324/266/334 340/287/334 325/268/334
f 333/269/335 347/286/335 348/277/335
f 325/268/336 341/288/336 326/270/336
f 337/283/337 353/289/337 338/284/337
f 346/19/338 360/21/338 361/22/338
f 338/284/339 354/290/339 339/285/339
f 347/286/340 361/22/340 362/291/340
f 339/285/341 355/292/341 340/287/341
f 348/277/342 362/291/342 363/293/342
f 340/287/343 356/294/343 341/288/343
f 349/278/344 363/293/344 364/295/344
f 341/288/345 357/25/345 342/23/345
f 335/280/346 214/296/346 350/297/346
f 440/298/347 349/278/347 364/295/347
f 343/16/348 357/25/348 358/24/348
f 335/280/349 351/299/349 336/282/349
f 344/17/350 358/24/350 359/20/350
f 336/282/351 352/300/351 337/283/351
f 345/18/352 359/20/352 360/21/352
f 356/294/353 372/31/353 357/25/353
f 350/297/354 214/301/354 365/302/354
f 440/303/355 364/295/355 379/304/355
f 358/24/356 372/31/356 373/26/356
f 350/297/357 366/305/357 351/299/357
f 359/20/358 373/26/358 374/27/358
f 351/299/359 367/306/359 352/300/359
f 360/21/360 374/27/360 375/28/360
f 352/300/361 368/307/361 353/289/361
f 361/22/362 375/28/362 376/29/362
f 353/289/363 369/308/363 354/290/363
f 362/291/364 376/29/364 377/309/364
f 354/290/365 370/310/365 355/292/365
f 363/293/366 377/309/366 378/311/366
f 355/292/367 371/312/367 356/294/367
f 364/295/368 378/311/368 379/304/368
f 375/28/369 391/30/369 376/29/369
f 369/308/370 383/313/370 384/314/370
f 376/29/371 392/315/371 377/309/371
f 370/310/372 384/314/372 385/316/372
f 377/309/373 393/317/373 378/311/373
f 371/312/374 385/316/374 386/318/374
f 378/311/375 394/319/375 379/304/375
f 372/31/376 386/318/376 387/35/376
f 365/302/377 214/320/377 380/321/377
f 440/322/378 379/304/378 394/319/378
f 372/31/379 388/32/379 373/26/379
f 366/305/380 380/321/380 381/323/380
f 373/26/381 389/33/381 374/27/381
f 367/306/382 381/323/382 382/324/382
f 374/27/383 390/34/383 375/28/383
f 368/307/384 382/324/384 383/313/384
f 440/325/385 394/319/385 409/326/385
f 387/35/386 403/36/386 388/32/386
f 381/323/387 395/327/387 396/328/387
f 388/32/388 404/37/388 389/33/388
f 382/324/389 396/328/389 397/329/389
f 389/33/390 405/38/390 390/34/390
f 383/313/391 397/329/391 398/330/391
f 390/34/392 406/39/392 391/30/392
f 384/314/393 398/330/393 399/331/393
f 391/30/394 407/332/394 392/315/394
f 385/316/395 399/331/395 400/333/395
f 392/315/396 408/334/396 393/317/396
f 386/318/397 400/333/397 401/335/397
f 393/317/398 409/326/398 394/319/398
f 387/35/399 401/335/399 402/40/399
f 380/321/400 214/336/400 395/327/400
f 406/39/401 422/337/401 407/332/401
f 400/333/402 414/338/402 415/339/402
f 407/332/403 423/340/403 408/334/403
f 401/335/404 415/339/404 416/341/404
f 408/334/405 424/342/405 409/326/405
f 402/40/406 416/341/406 417/45/406
f 395/327/407 214/343/407 410/344/407
f 440/345/408 409/326/408 424/342/408
f 402/40/409 418/41/409 403/36/409
f 396/328/410 410/344/410 411/346/410
f 403/36/411 419/42/411 404/37/411
f 397/329/412 411/346/412 412/347/412
f 404/37/413 420/43/413 405/38/413
f 398/330/414 412/347/414 413/348/414
f 405/38/415 421/44/415 406/39/415
f 399/331/416 413/348/416 414/338/416
f 411/346/417 425/349/417 426/350/417
f 418/41/418 434/47/418 419/42/418
f 412/347/419 426/350/419 427/351/419
f 419/42/420 435/48/420 420/43/420
f 413/348/421 427/351/421 428/352/421
f 420/43/422 436/49/422 421/44/422
f 414/338/423 428/352/423 429/353/423
f 421/44/424 437/354/424 422/337/424
f 415/339/425 429/353/425 430/355/425
f 422/337/426 438/356/426 423/340/426
f 416/341/427 430/355/427 431/357/427
f 423/340/428 439/358/428 424/342/428
f 417/45/429 431/357/429 432/50/429
f 410/344/430 214/359/430 425/349/430
f 440/360/431 424/342/431 439/358/431
f 417/45/432 433/46/432 418/41/432
f 430/355/433 445/361/433 446/362/433
f 437/354/434 454/363/434 438/356/434
f 431/357/435 446/362/435 447/364/435
f 438/356/436 455/365/436 439/358/436
f 432/50/437 447/364/437 448/55/437
f 425/349/438 214/366/438 441/367/438
f 440/368/439 439/358/439 455/365/439
f 432/50/440 449/51/440 433/46/440
f 426/350/441 441/367/441 442/369/441
f 433/46/442 450/52/442 434/47/442
f 427/351/443 442/369/443 443/370/443
f 434/47/444 451/53/444 435/48/444
f 428/352/445 443/370/445 444/371/445
f 435/48/446 452/54/446 436/49/446
f 429/353/447 444/371/447 445/361/447
f 436/49/448 453/372/448 437/354/448
f 449/51/449 465/373/449 450/52/449
f 443/370/450 457/374/450 458/375/450
f 450/52/451 466/376/451 451/53/451
f 444/371/452 458/375/452 459/377/452
f 451/53/453 467/378/453 452/54/453
f 445/361/454 459/377/454 460/379/454
f 452/54/455 468/380/455 453/372/455
f 446/362/456 460/379/456 461/381/456
f 453/372/457 469/382/457 454/363/457
f 447/364/458 461/381/458 462/383/458
f 454/363/459 470/384/459 455/365/459
f 448/55/460 462/383/460 463/385/460
f 441/367/461 214/386/461 456/387/461
f 440/388/462 455/365/462 470/384/462
f 448/55/463 464/389/463 449/51/463
f 442/369/464 456/387/464 457/374/464
f 468/380/465 484/390/465 469/382/465
f 462/383/466 476/391/466 477/392/466
f 469/382/467 485/393/467 470/384/467
f 463/385/468 477/392/468 478/394/468
f 456/387/469 214/395/469 471/396/469
f 440/397/470 470/384/470 485/393/470
f 463/385/471 479/398/471 464/389/471
f 457/374/472 471/396/472 472/399/472
f 464/389/473 480/400/473 465/373/473
f 458/375/474 472/399/474 473/401/474
f 465/373/475 481/402/475 466/376/475
f 459/377/476 473/401/476 474/403/476
f 466/376/477 482/404/477 467/378/477
f 460/379/478 474/403/478 475/405/478
f 467/378/479 483/406/479 468/380/479
f 461/381/480 475/405/480 476/391/480
f 473/401/481 487/407/481 488/408/481
f 480/400/482 496/409/482 481/402/482
f 474/403/483 488/408/483 489/410/483
f 481/402/484 497/411/484 482/404/484
f 475/405/485 489/410/485 490/412/485
f 482/404/486 498/413/486 483/406/486
f 476/391/487 490/412/487 491/414/487
f 483/406/488 499/415/488 484/390/488
f 477/392/489 491/414/489 492/416/489
f 484/390/490 500/417/490 485/393/490
f 478/394/491 492/416/491 493/418/491
f 471/396/492 214/419/492 486/420/492
f 440/421/493 485/393/493 500/417/493
f 478/394/494 494/422/494 479/398/494
f 472/399/495 486/420/495 487/407/495
f 479/398/496 495/423/496 480/400/496
f 491/424/497 507/425/497 492/426/497
f 500/427/498 514/428/498 515/429/498
f 492/426/499 508/430/499 493/431/499
f 486/432/500 214/433/500 501/434/500
f 440/435/501 500/427/501 515/429/501
f 494/436/502 508/430/502 509/437/502
f 486/432/503 502/438/503 487/439/503
f 495/440/504 509/437/504 510/441/504
f 487/439/505 503/442/505 488/443/505
f 496/444/506 510/441/506 511/445/506
f 488/443/507 504/446/507 489/447/507
f 497/448/508 511/445/508 512/449/508
f 489/447/509 505/450/509 490/451/509
f 498/452/510 512/449/510 513/453/510
f 490/451/511 506/454/511 491/424/511
f 499/455/512 513/453/512 514/428/512
f 511/445/513 525/456/513 526/457/513
f 503/442/514 519/458/514 504/446/514
f 512/449/515 526/457/515 527/459/515
f 504/446/516 520/460/516 505/450/516
f 513/453/517 527/459/517 528/461/517
f 505/450/518 521/462/518 506/454/518
f 514/428/519 528/461/519 529/463/519
f 506/454/520 522/464/520 507/425/520
f 515/429/521 529/463/521 530/465/521
f 507/425/522 523/466/522 508/430/522
f 501/434/523 214/467/523 516/468/523
f 440/469/524 515/429/524 530/465/524
f 509/437/525 523/466/525 524/470/525
f 501/434/526 517/471/526 502/438/526
f 510/441/527 524/470/527 525/456/527
f 502/438/528 518/472/528 503/442/528
f 530/465/529 544/473/529 545/474/529
f 522/464/530 538/475/530 523/466/530
f 516/468/531 214/476/531 531/477/531
f 440/478/532 530/465/532 545/474/532
f 524/470/533 538/475/533 539/479/533
f 516/468/534 532/480/534 517/471/534
f 525/456/535 539/479/535 540/481/535
f 517/471/536 533/482/536 518/472/536
f 526/457/537 540/481/537 541/483/537
f 518/472/538 534/484/538 519/458/538
f 527/459/539 541/483/539 542/485/539
f 519/458/540 535/486/540 520/460/540
f 528/461/541 542/485/541 543/487/541
f 520/460/542 536/488/542 521/462/542
f 529/463/543 543/487/543 544/473/543
f 521/462/544 537/489/544 522/464/544
f 542/485/545 556/490/545 557/491/545
f 534/484/546 550/492/546 535/486/546
f 543/487/547 557/491/547 558/493/547
f 535/486/548 551/494/548 536/488/548
f 544/473/549 558/493/549 559/495/549
f 536/488/550 552/496/550 537/489/550
f 545/474/551 559/495/551 560/497/551
f 537/489/552 553/498/552 538/475/552
f 531/477/553 214/499/553 546/500/553
f 440/501/554 545/474/554 560/497/554
f 539/479/555 553/498/555 554/502/555
f 531/477/556 547/503/556 532/480/556
f 540/481/557 554/502/557 555/504/557
f 532/480/558 548/505/558 533/482/558
f 541/483/559 555/504/559 556/490/559
f 533/482/560 549/506/560 534/484/560
f 546/500/561 214/507/561 561/508/561
f 440/509/562 560/497/562 575/510/562
f 554/502/563 568/511/563 569/512/563
f 546/500/564 562/513/564 547/503/564
f 555/504/565 569/512/565 570/514/565
f 547/503/566 563/515/566 548/505/566
f 556/490/567 570/514/567 571/516/567
f 548/505/568 564/517/568 549/506/568
f 557/491/569 571/516/569 572/518/569
f 549/506/570 565/519/570 550/492/570
f 558/493/571 572/518/571 573/520/571
f 550/492/572 566/521/572 551/494/572
f 559/495/573 573/520/573 574/522/573
f 551/494/574 567/523/574 552/496/574
f 560/497/575 574/522/575 575/510/575
f 552/496/576 568/511/576 553/498/576
f 564/517/577 580/524/577 565/519/577
f 573/520/578 587/525/578 588/526/578
f 565/519/579 581/527/579 566/521/579
f 574/522/580 588/526/580 589/528/580
f 566/521/581 582/529/581 567/523/581
f 575/510/582 589/528/582 590/530/582
f 567/523/583 583/531/583 568/511/583
f 561/508/584 214/532/584 576/533/584
f 440/534/585 575/510/585 590/530/585
f 569/512/586 583/531/586 584/535/586
f 561/508/587 577/536/587 562/513/587
f 570/514/588 584/535/588 585/537/588
f 562/513/589 578/538/589 563/515/589
f 571/516/590 585/537/590 586/539/590
f 563/515/591 579/540/591 564/517/591
f 572/518/592 586/539/592 587/525/592
f 584/535/593 598/541/593 599/542/593
f 576/533/594 592/543/594 577/536/594
f 585/537/595 599/542/595 600/544/595
f 577/536/596 593/545/596 578/538/596
f 586/539/597 600/544/597 601/546/597
f 578/538/598 594/547/598 579/540/598
f 587/525/599 601/546/599 602/548/599
f 579/540/600 595/549/600 580/524/600
f 588/526/601 602/548/601 603/550/601
f 580/524/602 596/551/602 581/527/602
f 589/528/603 603/550/603 604/552/603
f 581/527/604 597/553/604 582/529/604
f 590/530/605 604/552/605 605/554/605
f 582/529/606 598/541/606 583/531/606
f 576/533/607 214/555/607 591/556/607
f 440/557/608 590/530/608 605/554/608
f 603/550/609 611/59/609 612/61/609
f 595/549/610 609/62/610 596/551/610
f 604/552/611 612/61/611 613/65/611
f 596/551/612 135/66/612 597/553/612
f 605/554/613 613/65/613 614/69/613
f 597/553/614 136/70/614 598/541/614
f 591/556/615 214/558/615 606/72/615
f 440/559/616 605/554/616 614/69/616
f 599/542/617 136/70/617 137/77/617
f 591/556/618 607/78/618 592/543/618
f 600/544/619 137/77/619 610/81/619
f 592/543/620 133/82/620 593/545/620
f 601/546/621 610/81/621 138/85/621
f 593/545/622 608/86/622 594/547/622
f 602/548/623 138/85/623 611/59/623
f 594/547/624 134/56/624 595/549/624
f 1/1/1 6/13/1 7/2/1
f 2/3/2 7/2/2 8/4/2
f 4/6/3 3/5/3 8/4/3
f 4/6/4 9/7/4 10/8/4
f 9/7/5 8/4/5 13/10/5
f 9/7/6 14/11/6 15/12/6
f 6/13/7 11/15/7 12/14/7
f 7/2/8 12/14/8 13/10/8
f 11/15/9 16/23/9 17/16/9
f 12/14/10 17/16/10 18/17/10
f 14/11/11 13/10/11 18/17/11
f 14/11/12 19/18/12 20/19/12
f 19/18/13 18/17/13 23/20/13
f 19/18/14 24/21/14 25/22/14
f 16/23/15 21/25/15 22/24/15
f 17/16/16 22/24/16 23/20/16
f 21/25/17 26/31/17 27/26/17
f 22/24/18 27/26/18 28/27/18
f 24/21/19 23/20/19 28/27/19
f 24/21/20 29/28/20 30/29/20
f 29/28/21 34/34/21 35/30/21
f 26/31/22 31/35/22 32/32/22
f 27/26/23 32/32/23 33/33/23
f 29/28/24 28/27/24 33/33/24
f 31/35/25 36/40/25 37/36/25
f 32/32/26 37/36/26 38/37/26
f 34/34/27 33/33/27 38/37/27
f 34/34/28 39/38/28 40/39/28
f 36/40/29 41/45/29 42/41/29
f 37/36/30 42/41/30 43/42/30
f 39/38/31 38/37/31 43/42/31
f 39/38/32 44/43/32 45/44/32
f 41/45/33 46/50/33 47/46/33
f 42/41/34 47/46/34 48/47/34
f 44/43/35 43/42/35 48/47/35
f 44/43/36 49/48/36 50/49/36
f 46/50/37 51/55/37 52/51/37
f 47/46/38 52/51/38 53/52/38
f 49/48/39 48/47/39 53/52/39
f 49/48/40 54/53/40 55/54/40
f 46/50/41 57/50/41 56/55/41
f 36/40/42 59/40/42 58/45/42
f 16/23/43 63/23/43 62/25/43
f 11/15/44 64/15/44 63/23/44
f 6/13/45 65/13/45 64/15/45
f 31/35/46 60/35/46 59/40/46
f 21/25/47 62/25/47 61/31/47
f 1/1/48 66/1/48 65/13/48
f 26/31/49 61/31/49 60/35/49
f 41/45/50 58/45/50 57/50/50
f 73/13/51 72/1/51 67/3/51
f 74/2/52 73/3/52 68/5/52
f 70/7/53 75/4/53 74/5/53
f 76/7/54 75/6/54 70/9/54
f 75/11/55 80/10/55 79/4/55
f 81/11/56 80/7/56 75/8/56
f 78/15/57 77/13/57 72/2/57
f 79/14/58 78/2/58 73/4/58
f 83/23/59 82/15/59 77/14/59
f 84/16/60 83/14/60 78/10/60
f 80/18/61 85/17/61 84/10/61
f 86/18/62 85/11/62 80/12/62
f 85/21/63 90/20/63 89/17/63
f 91/21/64 90/18/64 85/19/64
f 88/25/65 87/23/65 82/16/65
f 89/24/66 88/16/66 83/17/66
f 93/31/67 92/25/67 87/24/67
f 94/26/68 93/24/68 88/20/68
f 90/28/69 95/27/69 94/20/69
f 96/28/70 95/21/70 90/22/70
f 101/34/625 100/28/625 95/29/625
f 98/35/72 97/31/72 92/26/72
f 99/32/73 98/26/73 93/27/73
f 95/34/74 100/33/74 99/27/74
f 103/40/75 102/35/75 97/32/75
f 104/36/76 103/32/76 98/33/76
f 100/38/77 105/37/77 104/33/77
f 106/38/78 105/34/78 100/30/78
f 108/45/79 107/40/79 102/36/79
f 109/41/80 108/36/80 103/37/80
f 105/43/81 110/42/81 109/37/81
f 111/43/82 110/38/82 105/39/82
f 113/50/83 112/45/83 107/41/83
f 114/46/84 113/41/84 108/42/84
f 110/48/85 115/47/85 114/42/85
f 116/48/86 115/43/86 110/44/86
f 118/55/87 117/50/87 112/46/87
f 119/51/88 118/46/88 113/47/88
f 115/53/89 120/52/89 119/47/89
f 121/53/90 120/48/90 115/49/90
f 122/50/91 123/50/91 112/55/91
f 124/40/92 125/40/92 102/45/92
f 128/23/93 129/23/93 82/25/93
f 129/15/94 130/15/94 77/23/94
f 130/13/95 131/13/95 72/15/95
f 125/35/96 126/35/96 97/40/96
f 127/25/97 128/25/97 87/31/97
f 131/1/98 132/1/98 67/13/98
f 126/31/99 127/31/99 92/35/99
f 123/45/100 124/45/100 107/50/100
f 132/1/101 131/1/101 65/13/101
f 131/1/101 130/13/101 64/15/101
f 130/13/101 129/15/101 63/23/101
f 129/15/101 128/23/101 62/25/101
f 128/23/101 127/25/101 61/31/101
f 61/31/101 127/25/101 126/31/101
f 60/35/101 126/35/101 125/35/101
f 59/40/101 125/35/101 124/40/101
f 58/45/101 124/45/101 123/45/101
f 57/50/101 123/45/101 122/50/101
f 56/55/102 122/50/102 117/55/102
f 52/51/626 51/55/626 117/50/626
f 53/52/627 52/51/627 118/46/627
f 54/53/628 53/52/628 119/47/628
f 55/54/629 54/53/629 120/48/629
f 121/53/107 116/54/107 50/49/107
f 45/44/107 50/49/107 116/48/107
f 111/49/107 106/44/107 40/39/107
f 35/30/107 40/39/107 106/38/107
f 30/29/107 35/30/107 101/34/107
f 30/29/107 96/28/107 91/29/107
f 25/22/107 91/21/107 86/22/107
f 20/19/107 86/18/107 81/19/107
f 15/12/107 81/11/107 76/12/107
f 10/8/107 76/7/107 71/8/107
f 5/9/630 71/8/630 70/9/630
f 4/6/631 70/9/631 69/6/631
f 3/5/632 69/6/632 68/5/632
f 2/3/633 68/5/633 67/3/633
f 1/1/112 67/13/112 132/1/112
f 134/56/113 608/86/113 142/57/113
f 611/59/114 150/87/114 151/60/114
f 609/62/115 134/56/115 143/58/115
f 612/61/116 151/60/116 152/64/116
f 135/66/117 609/62/117 144/63/117
f 613/65/118 152/64/118 153/68/118
f 136/70/119 135/66/119 145/67/119
f 136/70/122 146/71/122 147/76/122
f 607/78/123 606/72/123 139/74/123
f 137/77/124 147/76/124 148/80/124
f 133/82/125 607/78/125 140/79/125
f 610/81/126 148/80/126 149/84/126
f 608/86/127 133/82/127 141/83/127
f 138/85/128 149/84/128 150/87/128
f 142/57/129 141/83/129 156/88/129
f 149/84/130 164/104/130 165/90/130
f 143/58/131 142/57/131 157/89/131
f 150/87/132 165/90/132 166/92/132
f 144/63/133 143/58/133 158/91/133
f 151/60/134 166/92/134 167/94/134
f 145/67/135 144/63/135 159/93/135
f 152/64/136 167/94/136 168/96/136
f 146/71/137 145/67/137 160/95/137
f 146/71/140 161/97/140 162/101/140
f 140/79/141 139/74/141 154/99/141
f 147/76/142 162/101/142 163/103/142
f 141/83/143 140/79/143 155/102/143
f 148/80/144 163/103/144 164/104/144
f 161/97/145 160/95/145 175/105/145
f 161/97/148 176/106/148 177/111/148
f 155/102/149 154/99/149 169/108/149
f 162/101/150 177/111/150 178/113/150
f 156/88/634 155/102/634 170/112/634
f 163/103/152 178/113/152 179/115/152
f 157/89/153 156/88/153 171/114/153
f 164/104/154 179/115/154 180/117/154
f 158/91/155 157/89/155 172/116/155
f 165/90/156 180/117/156 181/119/156
f 159/93/157 158/91/157 173/118/157
f 166/92/158 181/119/158 182/121/158
f 160/95/159 159/93/159 174/120/159
f 167/94/160 182/121/160 183/110/160
f 179/115/161 194/138/161 195/122/161
f 173/118/162 172/116/162 187/123/162
f 180/117/163 195/122/163 196/125/163
f 174/120/164 173/118/164 188/124/164
f 181/119/165 196/125/165 197/127/165
f 175/105/166 174/120/166 189/126/166
f 182/121/635 197/127/635 198/129/635
f 176/106/168 175/105/168 190/128/168
f 176/106/171 191/130/171 192/134/171
f 170/112/172 169/108/172 184/132/172
f 177/111/173 192/134/173 193/136/173
f 171/114/174 170/112/174 185/135/174
f 178/113/175 193/136/175 194/138/175
f 172/116/176 171/114/176 186/137/176
f 191/130/179 206/155/179 207/143/179
f 185/135/180 184/132/180 199/140/180
f 192/134/181 207/143/181 208/145/181
f 186/137/182 185/135/182 200/144/182
f 193/136/183 208/145/183 209/147/183
f 187/123/184 186/137/184 201/146/184
f 194/138/185 209/147/185 210/149/185
f 188/124/186 187/123/186 202/148/186
f 195/122/187 210/149/187 211/151/187
f 189/126/188 188/124/188 203/150/188
f 196/125/189 211/151/189 212/153/189
f 190/128/190 189/126/190 204/152/190
f 197/127/191 212/153/191 213/142/191
f 191/130/192 190/128/192 205/154/192
f 203/150/193 202/148/193 218/156/193
f 210/149/194 226/172/194 227/158/194
f 204/152/195 203/150/195 219/157/195
f 211/151/196 227/158/196 228/160/196
f 205/154/197 204/152/197 220/159/197
f 212/153/198 228/160/198 229/162/198
f 206/155/199 205/154/199 221/161/199
f 206/155/202 222/163/202 223/167/202
f 200/144/203 199/140/203 215/165/203
f 207/143/204 223/167/204 224/169/204
f 201/146/636 200/144/636 216/168/636
f 208/145/206 224/169/206 225/171/206
f 202/148/207 201/146/207 217/170/207
f 209/147/208 225/171/208 226/172/208
f 222/163/209 237/187/209 238/173/209
f 216/168/210 215/165/210 230/174/210
f 223/167/211 238/173/211 239/176/211
f 217/170/212 216/168/212 231/175/212
f 224/169/213 239/176/213 240/178/213
f 218/156/214 217/170/214 232/177/214
f 225/171/215 240/178/215 241/180/215
f 219/157/216 218/156/216 233/179/216
f 226/172/217 241/180/217 242/182/217
f 220/159/218 219/157/218 234/181/218
f 227/158/219 242/182/219 243/184/219
f 221/161/220 220/159/220 235/183/220
f 228/160/221 243/184/221 244/186/221
f 222/163/222 221/161/222 236/185/222
f 241/180/225 256/206/225 257/190/225
f 235/183/226 234/181/226 249/191/226
f 242/182/227 257/190/227 258/193/227
f 236/185/228 235/183/228 250/192/228
f 243/184/229 258/193/229 259/195/229
f 237/187/230 236/185/230 251/194/230
f 237/187/233 252/196/233 253/200/233
f 231/175/234 230/174/234 245/198/234
f 238/173/235 253/200/235 254/202/235
f 232/177/236 231/175/236 246/201/236
f 239/176/237 254/202/237 255/204/237
f 233/179/238 232/177/238 247/203/238
f 240/178/239 255/204/239 256/206/239
f 234/181/240 233/179/240 248/205/240
f 254/202/241 253/200/241 268/207/241
f 246/201/242 261/223/242 262/209/242
f 255/204/243 254/202/243 269/208/243
f 247/203/244 262/209/244 263/211/244
f 256/206/245 255/204/245 270/210/245
f 248/205/246 263/211/246 264/213/246
f 257/190/247 256/206/247 271/212/247
f 249/191/248 264/213/248 265/215/248
f 258/193/249 257/190/249 272/214/249
f 250/192/250 265/215/250 266/217/250
f 259/195/251 258/193/251 273/216/251
f 251/194/252 266/217/252 267/219/252
f 253/200/255 252/196/255 267/219/255
f 245/198/256 260/221/256 261/223/256
f 273/216/257 272/214/257 287/224/257
f 265/215/258 280/240/258 281/226/258
f 274/218/259 273/216/259 288/225/259
f 266/217/260 281/226/260 282/228/260
f 268/207/263 267/219/263 282/228/263
f 260/221/637 275/230/637 276/233/637
f 269/208/265 268/207/265 283/232/265
f 261/223/266 276/233/266 277/235/266
f 270/210/267 269/208/267 284/234/267
f 262/209/268 277/235/268 278/237/268
f 271/212/269 270/210/269 285/236/269
f 263/211/270 278/237/270 279/239/270
f 272/214/271 271/212/271 286/238/271
f 264/213/272 279/239/272 280/240/272
f 276/233/273 291/252/273 292/241/273
f 285/236/274 284/234/274 299/5/274
f 277/235/275 292/241/275 293/242/275
f 286/238/276 285/236/276 300/6/276
f 278/237/277 293/242/277 294/243/277
f 287/224/278 286/238/278 301/9/278
f 279/239/279 294/243/279 295/245/279
f 288/225/280 287/224/280 302/244/280
f 280/240/281 295/245/281 296/247/281
f 289/227/282 288/225/282 303/246/282
f 281/226/283 296/247/283 297/1/283
f 283/232/286 282/228/286 297/1/286
f 275/230/287 290/250/287 291/252/287
f 284/234/288 283/232/288 298/3/288
f 295/245/289 310/264/289 311/253/289
f 304/248/290 303/246/290 318/254/290
f 296/247/291 311/253/291 312/13/291
f 298/3/294 297/1/294 312/13/294
f 290/250/295 305/257/295 306/259/295
f 299/5/296 298/3/296 313/2/296
f 291/252/297 306/259/297 307/260/297
f 300/6/298 299/5/298 314/4/298
f 292/241/299 307/260/299 308/261/299
f 301/9/300 300/6/300 315/7/300
f 293/242/301 308/261/301 309/262/301
f 302/244/302 301/9/302 316/8/302
f 294/243/303 309/262/303 310/264/303
f 303/246/304 302/244/304 317/263/304
f 315/7/305 314/4/305 329/10/305
f 307/260/306 322/276/306 323/265/306
f 316/8/307 315/7/307 330/11/307
f 308/261/308 323/265/308 324/266/308
f 317/263/309 316/8/309 331/12/309
f 309/262/310 324/266/310 325/268/310
f 318/254/311 317/263/311 332/267/311
f 310/264/312 325/268/312 326/270/312
f 319/255/313 318/254/313 333/269/313
f 311/253/314 326/270/314 327/15/314
f 313/2/317 312/13/317 327/15/317
f 305/257/318 320/273/318 321/275/318
f 314/4/319 313/2/319 328/14/319
f 306/259/320 321/275/320 322/276/320
f 334/271/321 333/269/321 348/277/321
f 326/270/322 341/288/322 342/23/322
f 328/14/325 327/15/325 342/23/325
f 320/273/326 335/280/326 336/282/326
f 329/10/327 328/14/327 343/16/327
f 321/275/638 336/282/638 337/283/638
f 330/11/329 329/10/329 344/17/329
f 322/276/330 337/283/330 338/284/330
f 331/12/331 330/11/331 345/18/331
f 323/265/332 338/284/332 339/285/332
f 332/267/333 331/12/333 346/19/333
f 324/266/334 339/285/334 340/287/334
f 333/269/639 332/267/639 347/286/639
f 325/268/336 340/287/336 341/288/336
f 337/283/337 352/300/337 353/289/337
f 346/19/338 345/18/338 360/21/338
f 338/284/339 353/289/339 354/290/339
f 347/286/340 346/19/340 361/22/340
f 339/285/341 354/290/341 355/292/341
f 348/277/342 347/286/342 362/291/342
f 340/287/343 355/292/343 356/294/343
f 349/278/344 348/277/344 363/293/344
f 341/288/345 356/294/345 357/25/345
f 343/16/348 342/23/348 357/25/348
f 335/280/349 350/297/349 351/299/349
f 344/17/350 343/16/350 358/24/350
f 336/282/351 351/299/351 352/300/351
f 345/18/352 344/17/352 359/20/352
f 356/294/353 371/312/353 372/31/353
f 358/24/356 357/25/356 372/31/356
f 350/297/357 365/302/357 366/305/357
f 359/20/358 358/24/358 373/26/358
f 351/299/359 366/305/359 367/306/359
f 360/21/360 359/20/360 374/27/360
f 352/300/361 367/306/361 368/307/361
f 361/22/362 360/21/362 375/28/362
f 353/289/363 368/307/363 369/308/363
f 362/291/364 361/22/364 376/29/364
f 354/290/365 369/308/365 370/310/365
f 363/293/366 362/291/366 377/309/366
f 355/292/367 370/310/367 371/312/367
f 364/295/368 363/293/368 378/311/368
f 375/28/369 390/34/369 391/30/369
f 369/308/370 368/307/370 383/313/370
f 376/29/371 391/30/371 392/315/371
f 370/310/372 369/308/372 384/314/372
f 377/309/373 392/315/373 393/317/373
f 371/312/374 370/310/374 385/316/374
f 378/311/375 393/317/375 394/319/375
f 372/31/640 371/312/640 386/318/640
f 372/31/641 387/35/641 388/32/641
f 366/305/380 365/302/380 380/321/380
f 373/26/381 388/32/381 389/33/381
f 367/306/382 366/305/382 381/323/382
f 374/27/383 389/33/383 390/34/383
f 368/307/384 367/306/384 382/324/384
f 387/35/386 402/40/386 403/36/386
f 381/323/387 380/321/387 395/327/387
f 388/32/388 403/36/388 404/37/388
f 382/324/389 381/323/389 396/328/389
f 389/33/390 404/37/390 405/38/390
f 383/313/391 382/324/391 397/329/391
f 390/34/392 405/38/392 406/39/392
f 384/314/393 383/313/393 398/330/393
f 391/30/394 406/39/394 407/332/394
f 385/316/395 384/314/395 399/331/395
f 392/315/396 407/332/396 408/334/396
f 386/318/397 385/316/397 400/333/397
f 393/317/398 408/334/398 409/326/398
f 387/35/399 386/318/399 401/335/399
f 406/39/401 421/44/401 422/337/401
f 400/333/402 399/331/402 414/338/402
f 407/332/642 422/337/642 423/340/642
f 401/335/404 400/333/404 415/339/404
f 408/334/405 423/340/405 424/342/405
f 402/40/406 401/335/406 416/341/406
f 402/40/409 417/45/409 418/41/409
f 396/328/410 395/327/410 410/344/410
f 403/36/411 418/41/411 419/42/411
f 397/329/643 396/328/643 411/346/643
f 404/37/413 419/42/413 420/43/413
f 398/330/414 397/329/414 412/347/414
f 405/38/415 420/43/415 421/44/415
f 399/331/416 398/330/416 413/348/416
f 411/346/417 410/344/417 425/349/417
f 418/41/418 433/46/418 434/47/418
f 412/347/419 411/346/419 426/350/419
f 419/42/420 434/47/420 435/48/420
f 413/348/421 412/347/421 427/351/421
f 420/43/422 435/48/422 436/49/422
f 414/338/423 413/348/423 428/352/423
f 421/44/424 436/49/424 437/354/424
f 415/339/425 414/338/425 429/353/425
f 422/337/426 437/354/426 438/356/426
f 416/341/427 415/339/427 430/355/427
f 423/340/644 438/356/644 439/358/644
f 417/45/429 416/341/429 431/357/429
f 417/45/432 432/50/432 433/46/432
f 430/355/433 429/353/433 445/361/433
f 437/354/434 453/372/434 454/363/434
f 431/357/435 430/355/435 446/362/435
f 438/356/436 454/363/436 455/365/436
f 432/50/437 431/357/437 447/364/437
f 432/50/440 448/55/440 449/51/440
f 426/350/441 425/349/441 441/367/441
f 433/46/442 449/51/442 450/52/442
f 427/351/443 426/350/443 442/369/443
f 434/47/444 450/52/444 451/53/444
f 428/352/445 427/351/445 443/370/445
f 435/48/446 451/53/446 452/54/446
f 429/353/447 428/352/447 444/371/447
f 436/49/448 452/54/448 453/372/448
f 449/51/449 464/389/449 465/373/449
f 443/370/450 442/369/450 457/374/450
f 450/52/451 465/373/451 466/376/451
f 444/371/452 443/370/452 458/375/452
f 451/53/453 466/376/453 467/378/453
f 445/361/454 444/371/454 459/377/454
f 452/54/455 467/378/455 468/380/455
f 446/362/456 445/361/456 460/379/456
f 453/372/457 468/380/457 469/382/457
f 447/364/458 446/362/458 461/381/458
f 454/363/459 469/382/459 470/384/459
f 448/55/460 447/364/460 462/383/460
f 448/55/463 463/385/463 464/389/463
f 442/369/464 441/367/464 456/387/464
f 468/380/465 483/406/465 484/390/465
f 462/383/466 461/381/466 476/391/466
f 469/382/467 484/390/467 485/393/467
f 463/385/468 462/383/468 477/392/468
f 463/385/471 478/394/471 479/398/471
f 457/374/472 456/387/472 471/396/472
f 464/389/473 479/398/473 480/400/473
f 458/375/474 457/374/474 472/399/474
f 465/373/475 480/400/475 481/402/475
f 459/377/476 458/375/476 473/401/476
f 466/376/477 481/402/477 482/404/477
f 460/379/478 459/377/478 474/403/478
f 467/378/479 482/404/479 483/406/479
f 461/381/480 460/379/480 475/405/480
f 473/401/481 472/399/481 487/407/481
f 480/400/482 495/423/482 496/409/482
f 474/403/483 473/401/483 488/408/483
f 481/402/484 496/409/484 497/411/484
f 475/405/485 474/403/485 489/410/485
f 482/404/486 497/411/486 498/413/486
f 476/391/487 475/405/487 490/412/487
f 483/406/488 498/413/488 499/415/488
f 477/392/489 476/391/489 491/414/489
f 484/390/490 499/415/490 500/417/490
f 478/394/491 477/392/491 492/416/491
f 478/394/494 493/418/494 494/422/494
f 472/399/495 471/396/495 486/420/495
f 479/398/496 494/422/496 495/423/496
f 491/424/497 506/454/497 507/425/497
f 500/427/498 499/455/498 514/428/498
f 492/426/645 507/425/645 508/430/645
f 494/436/646 493/431/646 508/430/646
f 486/432/503 501/434/503 502/438/503
f 495/440/504 494/436/504 509/437/504
f 487/439/505 502/438/505 503/442/505
f 496/444/506 495/440/506 510/441/506
f 488/443/507 503/442/507 504/446/507
f 497/448/508 496/444/508 511/445/508
f 489/447/509 504/446/509 505/450/509
f 498/452/510 497/448/510 512/449/510
f 490/451/511 505/450/511 506/454/511
f 499/455/512 498/452/512 513/453/512
f 511/445/513 510/441/513 525/456/513
f 503/442/514 518/472/514 519/458/514
f 512/449/515 511/445/515 526/457/515
f 504/446/516 519/458/516 520/460/516
f 513/453/517 512/449/517 527/459/517
f 505/450/518 520/460/518 521/462/518
f 514/428/519 513/453/519 528/461/519
f 506/454/520 521/462/520 522/464/520
f 515/429/521 514/428/521 529/463/521
f 507/425/522 522/464/522 523/466/522
f 509/437/525 508/430/525 523/466/525
f 501/434/526 516/468/526 517/471/526
f 510/441/527 509/437/527 524/470/527
f 502/438/528 517/471/528 518/472/528
f 530/465/529 529/463/529 544/473/529
f 522/464/530 537/489/530 538/475/530
f 524/470/533 523/466/533 538/475/533
f 516/468/534 531/477/534 532/480/534
f 525/456/535 524/470/535 539/479/535
f 517/471/647 532/480/647 533/482/647
f 526/457/537 525/456/537 540/481/537
f 518/472/538 533/482/538 534/484/538
f 527/459/539 526/457/539 541/483/539
f 519/458/540 534/484/540 535/486/540
f 528/461/541 527/459/541 542/485/541
f 520/460/542 535/486/542 536/488/542
f 529/463/648 528/461/648 543/487/648
f 521/462/544 536/488/544 537/489/544
f 542/485/545 541/483/545 556/490/545
f 534/484/546 549/506/546 550/492/546
f 543/487/547 542/485/547 557/491/547
f 535/486/548 550/492/548 551/494/548
f 544/473/549 543/487/549 558/493/549
f 536/488/550 551/494/550 552/496/550
f 545/474/551 544/473/551 559/495/551
f 537/489/552 552/496/552 553/498/552
f 539/479/555 538/475/555 553/498/555
f 531/477/556 546/500/556 547/503/556
f 540/481/557 539/479/557 554/502/557
f 532/480/558 547/503/558 548/505/558
f 541/483/559 540/481/559 555/504/559
f 533/482/560 548/505/560 549/506/560
f 554/502/563 553/498/563 568/511/563
f 546/500/564 561/508/564 562/513/564
f 555/504/565 554/502/565 569/512/565
f 547/503/566 562/513/566 563/515/566
f 556/490/567 555/504/567 570/514/567
f 548/505/568 563/515/568 564/517/568
f 557/491/569 556/490/569 571/516/569
f 549/506/570 564/517/570 565/519/570
f 558/493/571 557/491/571 572/518/571
f 550/492/572 565/519/572 566/521/572
f 559/495/573 558/493/573 573/520/573
f 551/494/574 566/521/574 567/523/574
f 560/497/649 559/495/649 574/522/649
f 552/496/576 567/523/576 568/511/576
f 564/517/577 579/540/577 580/524/577
f 573/520/578 572/518/578 587/525/578
f 565/519/579 580/524/579 581/527/579
f 574/522/580 573/520/580 588/526/580
f 566/521/581 581/527/581 582/529/581
f 575/510/582 574/522/582 589/528/582
f 567/523/583 582/529/583 583/531/583
f 569/512/586 568/511/586 583/531/586
f 561/508/587 576/533/587 577/536/587
f 570/514/588 569/512/588 584/535/588
f 562/513/650 577/536/650 578/538/650
f 571/516/590 570/514/590 585/537/590
f 563/515/591 578/538/591 579/540/591
f 572/518/592 571/516/592 586/539/592
f 584/535/593 583/531/593 598/541/593
f 576/533/594 591/556/594 592/543/594
f 585/537/595 584/535/595 599/542/595
f 577/536/596 592/543/596 593/545/596
f 586/539/597 585/537/597 600/544/597
f 578/538/598 593/545/598 594/547/598
f 587/525/599 586/539/599 601/546/599
f 579/540/600 594/547/600 595/549/600
f 588/526/601 587/525/601 602/548/601
f 580/524/602 595/549/602 596/551/602
f 589/528/603 588/526/603 603/550/603
f 581/527/604 596/551/604 597/553/604
f 590/530/605 589/528/605 604/552/605
f 582/529/606 597/553/606 598/541/606
f 603/550/609 602/548/609 611/59/609
f 595/549/610 134/56/610 609/62/610
f 604/552/611 603/550/611 612/61/611
f 596/551/612 609/62/612 135/66/612
f 605/554/613 604/552/613 613/65/613
f 597/553/651 135/66/651 136/70/651
f 599/542/652 598/541/652 136/70/652
f 591/556/618 606/72/618 607/78/618
f 600/544/619 599/542/619 137/77/619
f 592/543/620 607/78/620 133/82/620
f 601/546/621 600/544/621 610/81/621
f 593/545/622 133/82/622 608/86/622
f 602/548/623 601/546/623 138/85/623
f 594/547/624 608/86/624 134/56/624
