# Blender 4.4.3
# www.blender.org
mtllib skydome.mtl
o 球
v 0.000000 207.867416 138.892593
v 0.000000 138.892578 207.867462
v 0.000000 48.772598 245.196396
v 0.000000 0.000019 250.000092
v 0.000000 -48.772560 245.196396
v 0.000000 -138.892548 207.867493
v 9.515064 245.196320 47.835426
v 18.664473 230.969879 93.832596
v 27.096613 207.867416 136.223816
v 34.487442 176.776703 173.380020
v 40.552944 138.892578 203.873337
v 45.060013 95.670876 226.531937
v 47.835457 48.772598 240.485016
v 48.772610 0.000019 245.196396
v 47.835457 -48.772560 240.485016
v 45.060013 -95.670845 226.531937
v 40.552944 -138.892548 203.873367
v 34.487442 -176.776672 173.380051
v 27.096613 -207.867386 136.223846
v 18.664473 -230.969879 93.832626
v 9.515064 -245.196320 47.835464
v 18.664469 245.196320 45.059982
v 36.611675 230.969879 88.388374
v 53.151917 207.867416 128.320007
v 67.649551 176.776703 163.320404
v 79.547455 138.892578 192.044464
v 88.388390 95.670876 213.388412
v 93.832626 48.772594 226.531937
v 95.670914 0.000017 230.969940
v 93.832626 -48.772564 226.531937
v 88.388390 -95.670845 213.388412
v 79.547455 -138.892548 192.044495
v 67.649551 -176.776672 163.320435
v 53.151917 -207.867386 128.320038
v 36.611675 -230.969879 88.388405
v 18.664469 -245.196320 45.060020
v 27.096609 245.196320 40.552910
v 53.151917 230.969879 79.547424
v 77.164612 207.867416 115.484947
v 98.211929 176.776703 146.984482
v 115.484993 138.892578 172.835449
v 128.320053 95.670876 192.044495
v 136.223862 48.772594 203.873352
v 138.892639 0.000016 207.867447
v 136.223862 -48.772564 203.873352
v 128.320053 -95.670845 192.044495
v 115.484993 -138.892548 172.835480
v 98.211929 -176.776672 146.984512
v 77.164612 -207.867386 115.484978
v 53.151917 -230.969879 79.547455
v 27.096609 -245.196320 40.552948
v 34.487438 245.196320 34.487408
v 67.649551 230.969879 67.649513
v 98.211922 207.867401 98.211868
v 125.000076 176.776703 125.000031
v 146.984512 138.892578 146.984451
v 163.320450 95.670876 163.320419
v 173.380081 48.772591 173.380020
v 176.776794 0.000013 176.776718
v 173.380081 -48.772568 173.380020
v 163.320450 -95.670845 163.320419
v 146.984512 -138.892548 146.984482
v 125.000076 -176.776672 125.000061
v 98.211922 -207.867401 98.211899
v 67.649551 -230.969879 67.649544
v 34.487438 -245.196320 34.487446
v 40.552940 245.196320 27.096579
v 79.547462 230.969879 53.151875
v 115.485001 207.867401 77.164566
v 146.984528 176.776688 98.211891
v 172.835510 138.892578 115.484940
v 192.044525 95.670868 128.320038
v 203.873398 48.772591 136.223801
v 207.867508 0.000010 138.892548
v 203.873398 -48.772568 136.223801
v 192.044525 -95.670853 128.320038
v 172.835510 -138.892548 115.484955
v 146.984528 -176.776688 98.211922
v 115.485001 -207.867401 77.164597
v 79.547462 -230.969879 53.151913
v 40.552940 -245.196320 27.096617
v 0.000000 250.000000 -0.000019
v 45.060005 245.196320 18.664440
v 88.388390 230.969879 36.611641
v 128.320053 207.867401 53.151867
v 163.320465 176.776688 67.649521
v 192.044525 138.892563 79.547394
v 213.388458 95.670868 88.388382
v 226.531967 48.772587 93.832573
v 230.969986 0.000007 95.670837
v 226.531967 -48.772572 93.832573
v 213.388458 -95.670853 88.388397
v 192.044525 -138.892563 79.547409
v 163.320465 -176.776688 67.649551
v 128.320053 -207.867401 53.151897
v 88.388390 -230.969879 36.611679
v 45.060005 -245.196320 18.664478
v 47.835445 245.196320 9.515038
v 93.832619 230.969879 18.664442
v 136.223846 207.867401 27.096573
v 173.380081 176.776688 34.487427
v 203.873367 138.892563 40.552895
v 226.531967 95.670860 45.060005
v 240.485062 48.772583 47.835415
v 245.196411 0.000004 48.772549
v 240.485062 -48.772575 47.835423
v 226.531967 -95.670860 45.060020
v 203.873367 -138.892563 40.552917
v 173.380081 -176.776688 34.487450
v 136.223846 -207.867401 27.096603
v 93.832619 -230.969879 18.664476
v 47.835445 -245.196320 9.515075
v 48.772594 245.196320 -0.000022
v 95.670906 230.969879 -0.000023
v 138.892609 207.867401 -0.000029
v 176.776779 176.776688 -0.000009
v 207.867477 138.892563 -0.000032
v 230.970001 95.670860 0.000004
v 245.196426 48.772579 -0.000026
v 250.000076 -0.000000 -0.000041
v 245.196426 -48.772579 -0.000018
v 230.970001 -95.670860 0.000018
v 207.867477 -138.892563 -0.000012
v 176.776779 -176.776688 0.000017
v 138.892609 -207.867401 0.000003
v 95.670906 -230.969879 0.000011
v 48.772594 -245.196320 0.000016
v 47.835442 245.196320 -9.515079
v 93.832619 230.969879 -18.664486
v 136.223831 207.867401 -27.096626
v 173.380066 176.776688 -34.487438
v 203.873352 138.892563 -40.552959
v 226.531967 95.670860 -45.059998
v 240.485046 48.772575 -47.835464
v 245.196365 -0.000004 -48.772625
v 240.485046 -48.772583 -47.835457
v 226.531967 -95.670860 -45.059982
v 203.873352 -138.892563 -40.552937
v 173.380066 -176.776688 -34.487415
v 136.223831 -207.867401 -27.096596
v 93.832619 -230.969879 -18.664452
v 47.835442 -245.196320 -9.515043
v 45.059998 245.196320 -18.664480
v 88.388390 230.969879 -36.611687
v 128.320023 207.867401 -53.151917
v 163.320450 176.776688 -67.649536
v 192.044495 138.892563 -79.547447
v 213.388458 95.670853 -88.388367
v 226.531937 48.772572 -93.832611
v 230.969910 -0.000007 -95.670898
v 226.531937 -48.772587 -93.832611
v 213.388458 -95.670868 -88.388351
v 192.044495 -138.892563 -79.547432
v 163.320450 -176.776688 -67.649506
v 128.320023 -207.867401 -53.151886
v 88.388390 -230.969879 -36.611649
v 45.059998 -245.196320 -18.664442
v 40.552925 245.196320 -27.096613
v 79.547447 230.969879 -53.151917
v 115.484962 207.867401 -77.164604
v 146.984512 176.776688 -98.211906
v 172.835464 138.892548 -115.484970
v 192.044525 95.670853 -128.320007
v 203.873352 48.772568 -136.223816
v 207.867401 -0.000010 -138.892593
v 203.873352 -48.772591 -136.223816
v 192.044525 -95.670868 -128.320007
v 172.835464 -138.892578 -115.484955
v 146.984512 -176.776688 -98.211876
v 115.484962 -207.867401 -77.164574
v 79.547447 -230.969879 -53.151878
v 40.552925 -245.196320 -27.096575
v 34.487427 245.196320 -34.487438
v 67.649536 230.969879 -67.649544
v 98.211876 207.867401 -98.211906
v 125.000061 176.776672 -125.000046
v 146.984467 138.892548 -146.984482
v 163.320450 95.670845 -163.320389
v 173.380035 48.772568 -173.380020
v 176.776672 -0.000013 -176.776733
v 173.380035 -48.772591 -173.380020
v 163.320450 -95.670876 -163.320389
v 146.984467 -138.892578 -146.984451
v 125.000061 -176.776703 -125.000015
v 98.211876 -207.867401 -98.211876
v 67.649536 -230.969879 -67.649513
v 34.487427 -245.196320 -34.487400
v 27.096596 245.196320 -40.552933
v 53.151894 230.969879 -79.547447
v 77.164574 207.867386 -115.484970
v 98.211914 176.776672 -146.984497
v 115.484955 138.892548 -172.835464
v 128.320053 95.670845 -192.044464
v 136.223801 48.772564 -203.873322
v 138.892517 -0.000016 -207.867416
v 136.223801 -48.772594 -203.873322
v 128.320053 -95.670876 -192.044464
v 115.484955 -138.892578 -172.835434
v 98.211914 -176.776703 -146.984467
v 77.164574 -207.867416 -115.484940
v 53.151894 -230.969879 -79.547417
v 27.096596 -245.196320 -40.552895
v 18.664457 245.196320 -45.060001
v 36.611652 230.969879 -88.388382
v 53.151871 207.867386 -128.320007
v 67.649536 176.776672 -163.320419
v 79.547409 138.892548 -192.044464
v 88.388390 95.670845 -213.388367
v 93.832565 48.772564 -226.531891
v 95.670799 -0.000017 -230.969864
v 93.832565 -48.772594 -226.531891
v 88.388390 -95.670876 -213.388367
v 79.547409 -138.892578 -192.044434
v 67.649536 -176.776703 -163.320389
v 53.151871 -207.867416 -128.319977
v 36.611652 -230.969879 -88.388351
v 18.664457 -245.196320 -45.059963
v 9.515057 245.196320 -47.835434
v 18.664452 230.969879 -93.832596
v 27.096575 207.867386 -136.223785
v 34.487434 176.776672 -173.380035
v 40.552906 138.892548 -203.873306
v 45.060013 95.670845 -226.531891
v 47.835407 48.772560 -240.484955
v 48.772507 -0.000019 -245.196289
v 47.835407 -48.772598 -240.484955
v 45.060013 -95.670876 -226.531891
v 40.552906 -138.892578 -203.873276
v 34.487434 -176.776703 -173.380005
v 27.096575 -207.867416 -136.223755
v 18.664452 -230.969879 -93.832565
v 9.515057 -245.196320 -47.835396
v -0.000002 245.196320 -48.772583
v -0.000013 230.969879 -95.670883
v -0.000024 207.867386 -138.892548
v -0.000004 176.776672 -176.776749
v -0.000026 138.892548 -207.867416
v 0.000007 95.670845 -230.969894
v -0.000034 48.772560 -245.196335
v -0.000082 -0.000019 -249.999924
v -0.000034 -48.772598 -245.196335
v 0.000007 -95.670876 -230.969894
v -0.000026 -138.892578 -207.867386
v -0.000004 -176.776703 -176.776718
v -0.000024 -207.867416 -138.892517
v -0.000013 -230.969879 -95.670853
v -0.000002 -245.196320 -48.772545
v -9.515059 245.196320 -47.835430
v -18.664478 230.969879 -93.832596
v -27.096621 207.867386 -136.223770
v -34.487438 176.776672 -173.380020
v -40.552956 138.892548 -203.873291
v -45.059994 95.670845 -226.531876
v -47.835476 48.772560 -240.484940
v -48.772659 -0.000019 -245.196228
v -47.835476 -48.772598 -240.484940
v -45.059994 -95.670876 -226.531876
v -40.552956 -138.892578 -203.873260
v -34.487438 -176.776703 -173.379990
v -27.096621 -207.867416 -136.223740
v -18.664478 -230.969879 -93.832565
v -9.515059 -245.196320 -47.835392
v -18.664457 245.196320 -45.059994
v -36.611675 230.969879 -88.388374
v -53.151909 207.867386 -128.319962
v -67.649536 176.776672 -163.320404
v -79.547455 138.892548 -192.044434
v -88.388359 95.670845 -213.388351
v -93.832626 48.772564 -226.531845
v -95.670929 -0.000017 -230.969772
v -93.832626 -48.772594 -226.531845
v -88.388359 -95.670876 -213.388351
v -79.547455 -138.892578 -192.044403
v -67.649536 -176.776703 -163.320374
v -53.151909 -207.867416 -128.319931
v -36.611675 -230.969879 -88.388344
v -18.664457 -245.196320 -45.059956
v -27.096592 245.196320 -40.552921
v -53.151909 230.969879 -79.547424
v -77.164597 207.867386 -115.484909
v -98.211914 176.776672 -146.984482
v -115.484978 138.892548 -172.835419
v -128.320007 95.670845 -192.044449
v -136.223846 48.772564 -203.873260
v -138.892609 -0.000016 -207.867264
v -136.223846 -48.772594 -203.873260
v -128.320007 -95.670876 -192.044449
v -115.484978 -138.892578 -172.835388
v -98.211914 -176.776703 -146.984451
v -77.164597 -207.867416 -115.484879
v -53.151909 -230.969879 -79.547394
v -27.096592 -245.196320 -40.552883
v -34.487419 245.196320 -34.487423
v -67.649536 230.969879 -67.649521
v -98.211884 207.867401 -98.211830
v -125.000053 176.776672 -125.000031
v -146.984482 138.892548 -146.984421
v -163.320404 95.670845 -163.320374
v -173.380051 48.772568 -173.379944
v -176.776718 -0.000013 -176.776550
v -173.380051 -48.772591 -173.379944
v -163.320404 -95.670876 -163.320374
v -146.984482 -138.892578 -146.984390
v -125.000053 -176.776703 -125.000000
v -98.211884 -207.867401 -98.211800
v -67.649536 -230.969879 -67.649490
v -34.487419 -245.196320 -34.487385
v 0.000000 -250.000000 0.000019
v -40.552914 245.196320 -27.096598
v -79.547440 230.969879 -53.151894
v -115.484947 207.867401 -77.164528
v -146.984497 176.776688 -98.211891
v -172.835464 138.892548 -115.484909
v -192.044479 95.670853 -128.319992
v -203.873352 48.772568 -136.223724
v -207.867401 -0.000010 -138.892410
v -203.873352 -48.772591 -136.223724
v -192.044479 -95.670868 -128.319992
v -172.835464 -138.892578 -115.484894
v -146.984497 -176.776688 -98.211861
v -115.484947 -207.867401 -77.164497
v -79.547440 -230.969879 -53.151855
v -40.552914 -245.196320 -27.096560
v -45.059978 245.196320 -18.664465
v -88.388367 230.969879 -36.611660
v -128.319977 207.867401 -53.151844
v -163.320435 176.776688 -67.649529
v -192.044464 138.892563 -79.547371
v -213.388397 95.670853 -88.388359
v -226.531921 48.772572 -93.832504
v -230.969849 -0.000007 -95.670708
v -226.531921 -48.772587 -93.832504
v -213.388397 -95.670868 -88.388344
v -192.044464 -138.892563 -79.547356
v -163.320435 -176.776688 -67.649498
v -128.319977 -207.867401 -53.151814
v -88.388367 -230.969879 -36.611622
v -45.059978 -245.196320 -18.664427
v -47.835415 245.196320 -9.515067
v -93.832588 230.969879 -18.664463
v -136.223755 207.867401 -27.096563
v -173.380051 176.776688 -34.487431
v -203.873306 138.892563 -40.552883
v -226.531906 95.670860 -45.059994
v -240.485001 48.772575 -47.835369
v -245.196259 -0.000004 -48.772442
v -240.485001 -48.772583 -47.835361
v -226.531906 -95.670860 -45.059978
v -203.873306 -138.892563 -40.552860
v -173.380051 -176.776688 -34.487408
v -136.223755 -207.867401 -27.096533
v -93.832588 -230.969879 -18.664429
v -47.835415 -245.196320 -9.515031
v -48.772568 245.196320 -0.000014
v -95.670868 230.969879 -0.000004
v -138.892532 207.867401 0.000021
v -176.776749 176.776688 -0.000006
v -207.867416 138.892563 0.000031
v -230.969925 95.670860 -0.000003
v -245.196365 48.772579 0.000063
v -249.999908 0.000000 0.000112
v -245.196365 -48.772579 0.000071
v -230.969925 -95.670860 0.000011
v -207.867416 -138.892563 0.000051
v -176.776749 -176.776688 0.000020
v -138.892532 -207.867401 0.000053
v -95.670868 -230.969879 0.000030
v -48.772568 -245.196320 0.000024
v -47.835411 245.196320 9.515039
v -93.832581 230.969879 18.664452
v -136.223740 207.867401 27.096603
v -173.380035 176.776688 34.487423
v -203.873276 138.892563 40.552944
v -226.531891 95.670860 45.059982
v -240.484955 48.772583 47.835487
v -245.196213 0.000004 48.772663
v -240.484955 -48.772575 47.835495
v -226.531891 -95.670860 45.059998
v -203.873276 -138.892563 40.552967
v -173.380035 -176.776688 34.487446
v -136.223740 -207.867401 27.096634
v -93.832581 -230.969879 18.664486
v -47.835411 -245.196320 9.515076
v -45.059975 245.196320 18.664434
v -88.388359 230.969879 36.611641
v -128.319931 207.867401 53.151875
v -163.320419 176.776688 67.649506
v -192.044418 138.892563 79.547424
v -213.388382 95.670868 88.388336
v -226.531845 48.772587 93.832619
v -230.969742 0.000007 95.670906
v -226.531845 -48.772572 93.832619
v -213.388382 -95.670853 88.388351
v -192.044418 -138.892563 79.547440
v -163.320419 -176.776688 67.649536
v -128.319931 -207.867401 53.151905
v -88.388359 -230.969879 36.611679
v -45.059975 -245.196320 18.664473
v -40.552902 245.196320 27.096563
v -79.547409 230.969879 53.151863
v -115.484871 207.867401 77.164551
v -146.984482 176.776688 98.211868
v -172.835403 138.892578 115.484940
v -192.044464 95.670868 128.319977
v -203.873260 48.772591 136.223816
v -207.867249 0.000010 138.892563
v -203.873260 -48.772568 136.223816
v -192.044464 -95.670853 128.319977
v -172.835403 -138.892548 115.484955
v -146.984482 -176.776688 98.211899
v -115.484871 -207.867401 77.164581
v -79.547409 -230.969879 53.151901
v -40.552902 -245.196320 27.096601
v -34.487408 245.196320 34.487385
v -67.649513 230.969879 67.649490
v -98.211792 207.867401 98.211830
v -125.000031 176.776703 125.000000
v -146.984406 138.892578 146.984421
v -163.320389 95.670876 163.320343
v -173.379944 48.772591 173.379990
v -176.776535 0.000013 176.776657
v -173.379944 -48.772568 173.379990
v -163.320389 -95.670845 163.320343
v -146.984406 -138.892548 146.984451
v -125.000031 -176.776672 125.000031
v -98.211792 -207.867401 98.211861
v -67.649513 -230.969879 67.649521
v -34.487408 -245.196320 34.487423
v -27.096579 245.196320 40.552876
v -53.151875 230.969879 79.547386
v -77.164497 207.867416 115.484886
v -98.211884 176.776703 146.984451
v -115.484886 138.892578 172.835388
v -128.319992 95.670876 192.044418
v -136.223724 48.772594 203.873276
v -138.892395 0.000016 207.867310
v -136.223724 -48.772564 203.873276
v -128.319992 -95.670845 192.044418
v -115.484886 -138.892548 172.835419
v -98.211884 -176.776672 146.984482
v -77.164497 -207.867386 115.484917
v -53.151875 -230.969879 79.547417
v -27.096579 -245.196320 40.552914
v -18.664446 245.196320 45.059940
v -36.611641 230.969879 88.388329
v -53.151806 207.867416 128.319901
v -67.649521 176.776703 163.320374
v -79.547348 138.892578 192.044373
v -88.388351 95.670876 213.388321
v -93.832504 48.772594 226.531830
v -95.670700 0.000017 230.969742
v -93.832504 -48.772564 226.531830
v -88.388351 -95.670845 213.388321
v -79.547348 -138.892548 192.044403
v -67.649521 -176.776672 163.320404
v -53.151806 -207.867386 128.319931
v -36.611641 -230.969879 88.388359
v -18.664446 -245.196320 45.059978
v -9.515050 245.196320 47.835373
v -18.664444 230.969879 93.832542
v -27.096527 207.867416 136.223663
v -34.487415 176.776703 173.379990
v -40.552856 138.892578 203.873199
v -45.059978 95.670876 226.531830
v -47.835361 48.772598 240.484894
v -48.772434 0.000019 245.196136
v -47.835361 -48.772560 240.484894
v -45.059978 -95.670845 226.531830
v -40.552856 -138.892548 203.873230
v -34.487415 -176.776672 173.380020
v -27.096527 -207.867386 136.223694
v -18.664444 -230.969879 93.832573
v -9.515050 -245.196320 47.835411
v 0.000004 245.196320 48.772522
v 0.000017 230.969879 95.670822
v 0.000022 176.776703 176.776703
v 0.000015 95.670876 230.969849
v 0.000015 -95.670845 230.969849
v 0.000022 -176.776672 176.776733
v 0.000054 -207.867386 138.892456
v 0.000017 -230.969879 95.670853
v 0.000004 -245.196320 48.772560
vn -0.0000 -0.3805 -0.9248
vn -0.0000 -0.5528 -0.8333
vn -0.1626 -0.5528 -0.8173
vn -0.0757 0.9217 -0.3804
vn -0.0000 0.9217 -0.3879
vn -0.0000 0.8286 -0.5598
vn -0.1914 -0.1939 -0.9622
vn -0.0000 -0.1939 -0.9810
vn -0.0392 0.9796 -0.1971
vn -0.0000 0.9796 -0.2010
vn -0.1951 -0.0000 -0.9808
vn -0.0000 -0.0000 -1.0000
vn -0.0000 -0.9796 -0.2010
vn -0.0000 -1.0000 -0.0000
vn -0.0392 -0.9796 -0.1971
vn -0.0000 1.0000 -0.0000
vn -0.1914 0.1939 -0.9622
vn -0.0000 0.1939 -0.9810
vn -0.0000 -0.9217 -0.3879
vn -0.1804 0.3805 -0.9070
vn -0.0000 0.3805 -0.9248
vn -0.0000 -0.8286 -0.5598
vn -0.0757 -0.9217 -0.3804
vn -0.1626 0.5528 -0.8173
vn -0.0000 0.5528 -0.8333
vn -0.0000 -0.7041 -0.7101
vn -0.1092 -0.8286 -0.5490
vn -0.0000 0.7041 -0.7101
vn -0.1092 0.8286 -0.5490
vn -0.3189 -0.5528 -0.7699
vn -0.1385 -0.7041 -0.6965
vn -0.1385 0.7041 -0.6965
vn -0.2718 0.7041 -0.6561
vn -0.3539 -0.3805 -0.8544
vn -0.1804 -0.3805 -0.9070
vn -0.1484 0.9217 -0.3584
vn -0.3754 -0.1939 -0.9063
vn -0.0769 0.9796 -0.1857
vn -0.3827 -0.0000 -0.9239
vn -0.0769 -0.9796 -0.1857
vn -0.3754 0.1939 -0.9063
vn -0.1484 -0.9217 -0.3584
vn -0.3539 0.3805 -0.8544
vn -0.2142 -0.8286 -0.5172
vn -0.2718 -0.7041 -0.6561
vn -0.5450 0.1939 -0.8157
vn -0.2155 -0.9217 -0.3225
vn -0.5138 0.3805 -0.7689
vn -0.3110 -0.8286 -0.4654
vn -0.4630 0.5528 -0.6929
vn -0.3189 0.5528 -0.7699
vn -0.3945 0.7041 -0.5905
vn -0.4630 -0.5528 -0.6929
vn -0.2142 0.8286 -0.5172
vn -0.2155 0.9217 -0.3225
vn -0.5138 -0.3805 -0.7689
vn -0.1117 0.9796 -0.1671
vn -0.5556 -0.0000 -0.8315
vn -0.1117 -0.9796 -0.1671
vn -0.3958 0.8286 -0.3958
vn -0.3110 0.8286 -0.4654
vn -0.6539 -0.3805 -0.6539
vn -0.2743 0.9217 -0.2743
vn -0.5450 -0.1939 -0.8157
vn -0.7071 -0.0000 -0.7071
vn -0.1421 -0.9796 -0.1421
vn -0.1421 0.9796 -0.1421
vn -0.6937 0.1939 -0.6937
vn -0.2743 -0.9217 -0.2743
vn -0.6539 0.3805 -0.6539
vn -0.3945 -0.7041 -0.5905
vn -0.3958 -0.8286 -0.3958
vn -0.5893 0.5528 -0.5893
vn -0.5893 -0.5528 -0.5893
vn -0.1671 -0.9796 -0.1116
vn -0.7689 0.3805 -0.5138
vn -0.4654 -0.8286 -0.3110
vn -0.5905 -0.7041 -0.3945
vn -0.5021 -0.7041 -0.5021
vn -0.5905 0.7041 -0.3945
vn -0.5021 0.7041 -0.5021
vn -0.6929 -0.5528 -0.4630
vn -0.7689 -0.3805 -0.5138
vn -0.3225 0.9217 -0.2155
vn -0.6937 -0.1939 -0.6937
vn -0.1671 0.9796 -0.1117
vn -0.8157 -0.1939 -0.5450
vn -0.8157 0.1939 -0.5450
vn -0.8544 -0.3805 -0.3539
vn -0.4654 0.8286 -0.3110
vn -0.5172 0.8286 -0.2142
vn -0.3584 0.9217 -0.1484
vn -0.8315 -0.0000 -0.5556
vn -0.9063 -0.1939 -0.3754
vn -0.1857 -0.9796 -0.0769
vn -0.1857 0.9796 -0.0769
vn -0.9063 0.1939 -0.3754
vn -0.3584 -0.9217 -0.1484
vn -0.3225 -0.9217 -0.2155
vn -0.8544 0.3805 -0.3539
vn -0.5172 -0.8286 -0.2142
vn -0.6929 0.5528 -0.4630
vn -0.6561 -0.7041 -0.2718
vn -0.6561 0.7041 -0.2718
vn -0.9070 0.3805 -0.1804
vn -0.3804 -0.9217 -0.0757
vn -0.7699 0.5528 -0.3189
vn -0.6965 -0.7041 -0.1385
vn -0.6965 0.7041 -0.1385
vn -0.7699 -0.5528 -0.3189
vn -0.9070 -0.3805 -0.1804
vn -0.3804 0.9217 -0.0757
vn -0.1971 0.9796 -0.0392
vn -0.9239 -0.0000 -0.3827
vn -0.9622 -0.1939 -0.1914
vn -0.1971 -0.9796 -0.0392
vn -0.9622 0.1939 -0.1914
vn -0.5490 0.8286 -0.1092
vn -0.5598 0.8286 -0.0000
vn -0.9248 -0.3805 -0.0000
vn -0.2010 0.9796 -0.0000
vn -0.9808 -0.0000 -0.1951
vn -0.9810 -0.1939 -0.0000
vn -0.2010 -0.9796 -0.0000
vn -0.9810 0.1939 -0.0000
vn -0.3879 -0.9217 -0.0000
vn -0.9248 0.3805 -0.0000
vn -0.5598 -0.8286 -0.0000
vn -0.5490 -0.8286 -0.1092
vn -0.8173 0.5528 -0.1626
vn -0.7101 -0.7041 -0.0000
vn -0.7101 0.7041 -0.0000
vn -0.8173 -0.5528 -0.1626
vn -0.8333 0.5528 -0.0000
vn -0.9070 0.3805 0.1804
vn -0.6965 -0.7041 0.1385
vn -0.6965 0.7041 0.1385
vn -0.8333 -0.5528 -0.0000
vn -0.5490 0.8286 0.1092
vn -0.9070 -0.3805 0.1804
vn -0.3804 0.9217 0.0757
vn -0.3879 0.9217 -0.0000
vn -0.1971 0.9796 0.0392
vn -1.0000 -0.0000 -0.0000
vn -0.9622 -0.1939 0.1914
vn -0.1971 -0.9796 0.0392
vn -0.9622 0.1939 0.1914
vn -0.3804 -0.9217 0.0757
vn -0.1857 0.9796 0.0769
vn -0.9808 -0.0000 0.1951
vn -0.9063 -0.1939 0.3754
vn -0.1857 -0.9796 0.0769
vn -0.9063 0.1939 0.3754
vn -0.3584 -0.9217 0.1484
vn -0.8544 0.3805 0.3539
vn -0.5490 -0.8286 0.1092
vn -0.8173 0.5528 0.1626
vn -0.6561 -0.7041 0.2718
vn -0.6561 0.7041 0.2718
vn -0.8173 -0.5528 0.1626
vn -0.8544 -0.3805 0.3539
vn -0.5172 0.8286 0.2142
vn -0.5905 -0.7041 0.3945
vn -0.5172 -0.8286 0.2142
vn -0.5905 0.7041 0.3945
vn -0.7699 0.5528 0.3189
vn -0.7699 -0.5528 0.3189
vn -0.7689 -0.3805 0.5138
vn -0.3225 0.9217 0.2155
vn -0.3584 0.9217 0.1484
vn -0.9239 -0.0000 0.3827
vn -0.8157 -0.1939 0.5450
vn -0.1671 -0.9796 0.1117
vn -0.1671 0.9796 0.1116
vn -0.8157 0.1939 0.5450
vn -0.3225 -0.9217 0.2155
vn -0.7689 0.3805 0.5138
vn -0.4654 -0.8286 0.3110
vn -0.8315 -0.0000 0.5556
vn -0.6937 -0.1939 0.6937
vn -0.1421 -0.9796 0.1421
vn -0.1421 0.9796 0.1421
vn -0.6937 0.1939 0.6937
vn -0.2743 -0.9217 0.2743
vn -0.6539 0.3805 0.6539
vn -0.3958 -0.8286 0.3958
vn -0.6929 0.5528 0.4630
vn -0.5021 -0.7041 0.5021
vn -0.5021 0.7041 0.5021
vn -0.5893 -0.5528 0.5893
vn -0.6929 -0.5528 0.4630
vn -0.4654 0.8286 0.3110
vn -0.6539 -0.3805 0.6539
vn -0.3958 0.8286 0.3958
vn -0.2743 0.9217 0.2743
vn -0.3945 0.7041 0.5905
vn -0.5893 0.5528 0.5893
vn -0.3945 -0.7041 0.5905
vn -0.5138 -0.3805 0.7689
vn -0.2155 0.9217 0.3225
vn -0.1117 0.9796 0.1671
vn -0.7071 -0.0000 0.7071
vn -0.5450 -0.1939 0.8157
vn -0.1117 -0.9796 0.1671
vn -0.5450 0.1939 0.8157
vn -0.2155 -0.9217 0.3225
vn -0.5138 0.3805 0.7689
vn -0.3110 -0.8286 0.4654
vn -0.0769 -0.9796 0.1857
vn -0.0769 0.9796 0.1857
vn -0.3754 0.1939 0.9063
vn -0.5556 -0.0000 0.8315
vn -0.1484 -0.9217 0.3584
vn -0.3539 0.3805 0.8544
vn -0.2142 -0.8286 0.5172
vn -0.4630 0.5528 0.6929
vn -0.2718 -0.7041 0.6561
vn -0.2718 0.7041 0.6561
vn -0.3189 -0.5528 0.7699
vn -0.4630 -0.5528 0.6929
vn -0.3110 0.8286 0.4654
vn -0.3539 -0.3805 0.8544
vn -0.2142 0.8286 0.5172
vn -0.1484 0.9217 0.3584
vn -0.3754 -0.1939 0.9063
vn -0.1385 -0.7041 0.6965
vn -0.1385 0.7041 0.6965
vn -0.1804 -0.3805 0.9070
vn -0.0757 0.9217 0.3804
vn -0.3827 -0.0000 0.9239
vn -0.1914 -0.1939 0.9622
vn -0.0392 -0.9796 0.1971
vn -0.0392 0.9796 0.1971
vn -0.1914 0.1939 0.9622
vn -0.0757 -0.9217 0.3804
vn -0.1804 0.3805 0.9070
vn -0.1092 -0.8286 0.5490
vn -0.3189 0.5528 0.7699
vn -0.0000 0.1939 0.9810
vn -0.1951 -0.0000 0.9808
vn -0.0000 -0.9217 0.3879
vn -0.0000 0.3805 0.9248
vn -0.0000 -0.8286 0.5598
vn -0.1626 0.5528 0.8173
vn -0.0000 -0.7041 0.7101
vn -0.0000 0.7041 0.7101
vn -0.1626 -0.5528 0.8173
vn -0.1092 0.8286 0.5490
vn -0.0000 -0.3805 0.9248
vn -0.0000 0.9217 0.3879
vn -0.0000 0.9796 0.2010
vn -0.0000 -0.1939 0.9810
vn -0.0000 -0.9796 0.2010
vn -0.0000 0.8286 0.5598
vn 0.1385 0.7041 0.6965
vn 0.1804 -0.3805 0.9070
vn -0.0000 -0.5528 0.8333
vn 0.0757 0.9217 0.3804
vn 0.0392 0.9796 0.1971
vn -0.0000 -0.0000 1.0000
vn 0.1914 -0.1939 0.9622
vn 0.0392 -0.9796 0.1971
vn 0.1914 0.1939 0.9622
vn 0.1804 0.3805 0.9070
vn 0.0757 -0.9217 0.3804
vn -0.0000 0.5528 0.8333
vn 0.1385 -0.7041 0.6965
vn 0.3539 0.3805 0.8544
vn 0.1092 -0.8286 0.5490
vn 0.1484 -0.9217 0.3584
vn 0.1626 0.5528 0.8173
vn 0.2718 -0.7041 0.6561
vn 0.2718 0.7041 0.6561
vn 0.1626 -0.5528 0.8173
vn 0.1092 0.8286 0.5490
vn 0.3539 -0.3805 0.8544
vn 0.1484 0.9217 0.3584
vn 0.0769 0.9796 0.1857
vn 0.1951 -0.0000 0.9808
vn 0.3754 -0.1939 0.9063
vn 0.0769 -0.9796 0.1857
vn 0.3754 0.1939 0.9063
vn 0.2155 0.9217 0.3225
vn 0.2142 0.8286 0.5172
vn 0.5138 -0.3805 0.7689
vn 0.1117 0.9796 0.1671
vn 0.3827 -0.0000 0.9239
vn 0.5450 -0.1939 0.8157
vn 0.1117 -0.9796 0.1671
vn 0.5450 0.1939 0.8157
vn 0.2155 -0.9217 0.3225
vn 0.5138 0.3805 0.7689
vn 0.2142 -0.8286 0.5172
vn 0.3189 0.5528 0.7699
vn 0.3945 -0.7041 0.5905
vn 0.3945 0.7041 0.5905
vn 0.3189 -0.5528 0.7699
vn 0.3110 0.8286 0.4654
vn 0.3110 -0.8286 0.4654
vn 0.2743 -0.9217 0.2743
vn 0.4630 0.5528 0.6929
vn 0.6539 0.3805 0.6539
vn 0.5021 -0.7041 0.5021
vn 0.5021 0.7041 0.5021
vn 0.4630 -0.5528 0.6929
vn 0.6539 -0.3805 0.6539
vn 0.2743 0.9217 0.2743
vn 0.1421 0.9796 0.1421
vn 0.5556 -0.0000 0.8315
vn 0.6937 -0.1939 0.6937
vn 0.1421 -0.9796 0.1421
vn 0.6937 0.1939 0.6937
vn 0.7689 -0.3805 0.5138
vn 0.1671 0.9796 0.1117
vn 0.7071 -0.0000 0.7071
vn 0.8157 -0.1939 0.5450
vn 0.1671 -0.9796 0.1116
vn 0.8157 0.1939 0.5450
vn 0.3225 -0.9217 0.2155
vn 0.7689 0.3805 0.5138
vn 0.3958 -0.8286 0.3958
vn 0.5893 0.5528 0.5893
vn 0.5905 -0.7041 0.3945
vn 0.5905 0.7041 0.3945
vn 0.5893 -0.5528 0.5893
vn 0.3958 0.8286 0.3958
vn 0.3225 0.9217 0.2155
vn 0.6929 0.5528 0.4630
vn 0.8544 0.3805 0.3539
vn 0.6561 -0.7041 0.2718
vn 0.4654 -0.8286 0.3110
vn 0.6561 0.7041 0.2718
vn 0.6929 -0.5528 0.4630
vn 0.4654 0.8286 0.3110
vn 0.8544 -0.3805 0.3539
vn 0.3584 0.9217 0.1484
vn 0.8315 -0.0000 0.5556
vn 0.9063 -0.1939 0.3754
vn 0.1857 -0.9796 0.0769
vn 0.1857 0.9796 0.0769
vn 0.9063 0.1939 0.3754
vn 0.3584 -0.9217 0.1484
vn 0.1971 0.9796 0.0392
vn 0.9239 -0.0000 0.3827
vn 0.9622 -0.1939 0.1914
vn 0.1971 -0.9796 0.0392
vn 0.9622 0.1939 0.1914
vn 0.3804 -0.9217 0.0757
vn 0.9070 0.3805 0.1804
vn 0.5172 -0.8286 0.2142
vn 0.7699 0.5528 0.3189
vn 0.6965 -0.7041 0.1385
vn 0.6965 0.7041 0.1385
vn 0.7699 -0.5528 0.3189
vn 0.5172 0.8286 0.2142
vn 0.9070 -0.3805 0.1804
vn 0.3804 0.9217 0.0757
vn 0.7101 -0.7041 -0.0000
vn 0.5490 -0.8286 0.1092
vn 0.7101 0.7041 -0.0000
vn 0.8173 0.5528 0.1626
vn 0.8173 -0.5528 0.1626
vn 0.5490 0.8286 0.1092
vn 0.9248 -0.3805 -0.0000
vn 0.3879 0.9217 -0.0000
vn 0.2010 0.9796 -0.0000
vn 0.9808 -0.0000 0.1951
vn 0.9810 -0.1939 -0.0000
vn 0.2010 -0.9796 -0.0000
vn 0.9810 0.1939 -0.0000
vn 0.3879 -0.9217 -0.0000
vn 0.9248 0.3805 -0.0000
vn 0.5598 -0.8286 -0.0000
vn 1.0000 -0.0000 -0.0000
vn 0.9622 -0.1939 -0.1914
vn 0.1971 -0.9796 -0.0392
vn 0.1971 0.9796 -0.0392
vn 0.9622 0.1939 -0.1914
vn 0.3804 -0.9217 -0.0757
vn 0.9070 0.3805 -0.1804
vn 0.8333 0.5528 -0.0000
vn 0.6965 -0.7041 -0.1385
vn 0.6965 0.7041 -0.1385
vn 0.8333 -0.5528 -0.0000
vn 0.5598 0.8286 -0.0000
vn 0.9070 -0.3805 -0.1804
vn 0.3804 0.9217 -0.0757
vn 0.6561 0.7041 -0.2718
vn 0.8173 0.5528 -0.1626
vn 0.8173 -0.5528 -0.1626
vn 0.6561 -0.7041 -0.2718
vn 0.5490 0.8286 -0.1092
vn 0.8544 -0.3805 -0.3539
vn 0.3584 0.9217 -0.1484
vn 0.1857 0.9796 -0.0769
vn 0.9808 -0.0000 -0.1951
vn 0.9063 -0.1939 -0.3754
vn 0.1857 -0.9796 -0.0769
vn 0.9063 0.1939 -0.3754
vn 0.8544 0.3805 -0.3539
vn 0.5172 -0.8286 -0.2142
vn 0.5490 -0.8286 -0.1092
vn 0.1671 0.9796 -0.1117
vn 0.8157 0.1939 -0.5450
vn 0.9239 -0.0000 -0.3827
vn 0.3225 -0.9217 -0.2155
vn 0.3584 -0.9217 -0.1484
vn 0.7689 0.3805 -0.5138
vn 0.4654 -0.8286 -0.3110
vn 0.7699 0.5528 -0.3189
vn 0.5905 -0.7041 -0.3945
vn 0.5905 0.7041 -0.3945
vn 0.7699 -0.5528 -0.3189
vn 0.5172 0.8286 -0.2142
vn 0.7689 -0.3805 -0.5138
vn 0.4654 0.8286 -0.3110
vn 0.8157 -0.1939 -0.5450
vn 0.1671 -0.9796 -0.1117
vn 0.5021 0.7041 -0.5021
vn 0.6539 -0.3805 -0.6539
vn 0.6929 -0.5528 -0.4630
vn 0.2743 0.9217 -0.2743
vn 0.3225 0.9217 -0.2155
vn 0.1421 0.9796 -0.1421
vn 0.8315 -0.0000 -0.5556
vn 0.6937 -0.1939 -0.6937
vn 0.1421 -0.9796 -0.1421
vn 0.6937 0.1939 -0.6937
vn 0.2743 -0.9217 -0.2743
vn 0.6539 0.3805 -0.6539
vn 0.6929 0.5528 -0.4630
vn 0.5021 -0.7041 -0.5021
vn 0.2155 -0.9217 -0.3225
vn 0.5138 0.3805 -0.7689
vn 0.3958 -0.8286 -0.3958
vn 0.5893 0.5528 -0.5893
vn 0.3945 -0.7041 -0.5905
vn 0.3945 0.7041 -0.5905
vn 0.5893 -0.5528 -0.5893
vn 0.3958 0.8286 -0.3958
vn 0.5138 -0.3805 -0.7689
vn 0.2155 0.9217 -0.3225
vn 0.7071 -0.0000 -0.7071
vn 0.5450 -0.1939 -0.8157
vn 0.1117 -0.9796 -0.1671
vn 0.1117 0.9796 -0.1671
vn 0.5450 0.1939 -0.8157
vn 0.3539 -0.3805 -0.8544
vn 0.4630 -0.5528 -0.6929
vn 0.1484 0.9217 -0.3584
vn 0.3110 0.8286 -0.4654
vn 0.0769 0.9796 -0.1857
vn 0.5556 -0.0000 -0.8315
vn 0.3754 -0.1939 -0.9063
vn 0.0769 -0.9796 -0.1857
vn 0.3754 0.1939 -0.9063
vn 0.1484 -0.9217 -0.3584
vn 0.3539 0.3805 -0.8544
vn 0.3110 -0.8286 -0.4654
vn 0.4630 0.5528 -0.6929
vn 0.2718 -0.7041 -0.6561
vn 0.2718 0.7041 -0.6561
vn 0.1804 0.3805 -0.9070
vn 0.1092 -0.8286 -0.5490
vn 0.2142 -0.8286 -0.5172
vn 0.3189 0.5528 -0.7699
vn 0.1385 -0.7041 -0.6965
vn 0.1385 0.7041 -0.6965
vn 0.3189 -0.5528 -0.7699
vn 0.2142 0.8286 -0.5172
vn 0.1804 -0.3805 -0.9070
vn 0.0757 0.9217 -0.3804
vn 0.0392 0.9796 -0.1971
vn 0.3827 -0.0000 -0.9239
vn 0.1914 -0.1939 -0.9622
vn 0.0392 -0.9796 -0.1971
vn 0.1914 0.1939 -0.9622
vn 0.0757 -0.9217 -0.3804
vn 0.1092 0.8286 -0.5490
vn 0.1951 -0.0000 -0.9808
vn 0.1626 0.5528 -0.8173
vn 0.1626 -0.5528 -0.8173
vt 0.750000 0.625000
vt 0.750000 0.687500
vt 0.718750 0.687500
vt 0.718750 0.125000
vt 0.750000 0.125000
vt 0.750000 0.187500
vt 0.718750 0.562500
vt 0.750000 0.562500
vt 0.718750 0.062500
vt 0.750000 0.062500
vt 0.718750 0.500000
vt 0.750000 0.500000
vt 0.750000 0.937500
vt 0.734375 1.000000
vt 0.718750 0.937500
vt 0.734375 0.000000
vt 0.718750 0.437500
vt 0.750000 0.437500
vt 0.750000 0.875000
vt 0.718750 0.375000
vt 0.750000 0.375000
vt 0.750000 0.812500
vt 0.718750 0.875000
vt 0.718750 0.312500
vt 0.750000 0.312500
vt 0.750000 0.750000
vt 0.718750 0.812500
vt 0.750000 0.250000
vt 0.718750 0.187500
vt 0.687500 0.687500
vt 0.718750 0.750000
vt 0.718750 0.250000
vt 0.687500 0.250000
vt 0.687500 0.625000
vt 0.718750 0.625000
vt 0.687500 0.125000
vt 0.687500 0.562500
vt 0.687500 0.062500
vt 0.687500 0.500000
vt 0.703125 1.000000
vt 0.687500 0.937500
vt 0.703125 0.000000
vt 0.687500 0.437500
vt 0.687500 0.875000
vt 0.687500 0.375000
vt 0.687500 0.812500
vt 0.687500 0.750000
vt 0.656250 0.437500
vt 0.656250 0.875000
vt 0.656250 0.375000
vt 0.656250 0.812500
vt 0.656250 0.312500
vt 0.687500 0.312500
vt 0.656250 0.250000
vt 0.656250 0.687500
vt 0.687500 0.187500
vt 0.656250 0.125000
vt 0.656250 0.625000
vt 0.656250 0.062500
vt 0.656250 0.500000
vt 0.671875 1.000000
vt 0.656250 0.937500
vt 0.671875 0.000000
vt 0.625000 0.187500
vt 0.656250 0.187500
vt 0.625000 0.625000
vt 0.625000 0.125000
vt 0.656250 0.562500
vt 0.625000 0.500000
vt 0.640625 1.000000
vt 0.625000 0.937500
vt 0.640625 0.000000
vt 0.625000 0.062500
vt 0.625000 0.437500
vt 0.625000 0.875000
vt 0.625000 0.375000
vt 0.656250 0.750000
vt 0.625000 0.812500
vt 0.625000 0.312500
vt 0.625000 0.687500
vt 0.593750 0.937500
vt 0.593750 0.375000
vt 0.593750 0.812500
vt 0.593750 0.750000
vt 0.625000 0.750000
vt 0.593750 0.250000
vt 0.625000 0.250000
vt 0.593750 0.687500
vt 0.593750 0.625000
vt 0.593750 0.125000
vt 0.625000 0.562500
vt 0.593750 0.062500
vt 0.593750 0.562500
vt 0.609375 1.000000
vt 0.609375 0.000000
vt 0.593750 0.437500
vt 0.562500 0.625000
vt 0.593750 0.187500
vt 0.562500 0.187500
vt 0.562500 0.125000
vt 0.593750 0.500000
vt 0.562500 0.562500
vt 0.578125 1.000000
vt 0.562500 0.937500
vt 0.578125 0.000000
vt 0.562500 0.062500
vt 0.562500 0.437500
vt 0.562500 0.875000
vt 0.593750 0.875000
vt 0.562500 0.375000
vt 0.562500 0.812500
vt 0.593750 0.312500
vt 0.562500 0.750000
vt 0.562500 0.250000
vt 0.531250 0.375000
vt 0.531250 0.875000
vt 0.562500 0.312500
vt 0.531250 0.750000
vt 0.531250 0.250000
vt 0.562500 0.687500
vt 0.531250 0.625000
vt 0.531250 0.125000
vt 0.531250 0.062500
vt 0.562500 0.500000
vt 0.531250 0.562500
vt 0.546875 1.000000
vt 0.531250 0.937500
vt 0.546875 0.000000
vt 0.531250 0.437500
vt 0.531250 0.187500
vt 0.500000 0.187500
vt 0.500000 0.625000
vt 0.500000 0.062500
vt 0.531250 0.500000
vt 0.500000 0.562500
vt 0.515625 1.000000
vt 0.500000 0.937500
vt 0.515625 0.000000
vt 0.500000 0.437500
vt 0.500000 0.875000
vt 0.500000 0.375000
vt 0.500000 0.812500
vt 0.531250 0.812500
vt 0.531250 0.312500
vt 0.500000 0.750000
vt 0.500000 0.250000
vt 0.531250 0.687500
vt 0.500000 0.312500
vt 0.468750 0.375000
vt 0.468750 0.750000
vt 0.468750 0.250000
vt 0.500000 0.687500
vt 0.468750 0.187500
vt 0.468750 0.625000
vt 0.468750 0.125000
vt 0.500000 0.125000
vt 0.468750 0.062500
vt 0.500000 0.500000
vt 0.468750 0.562500
vt 0.484375 1.000000
vt 0.468750 0.937500
vt 0.484375 0.000000
vt 0.468750 0.437500
vt 0.468750 0.875000
vt 0.437500 0.062500
vt 0.468750 0.500000
vt 0.437500 0.562500
vt 0.453125 1.000000
vt 0.437500 0.937500
vt 0.453125 0.000000
vt 0.437500 0.437500
vt 0.437500 0.875000
vt 0.437500 0.375000
vt 0.468750 0.812500
vt 0.468750 0.312500
vt 0.437500 0.750000
vt 0.437500 0.250000
vt 0.468750 0.687500
vt 0.437500 0.625000
vt 0.437500 0.187500
vt 0.406250 0.750000
vt 0.437500 0.812500
vt 0.406250 0.250000
vt 0.437500 0.312500
vt 0.437500 0.687500
vt 0.406250 0.625000
vt 0.406250 0.125000
vt 0.437500 0.125000
vt 0.437500 0.500000
vt 0.406250 0.562500
vt 0.421875 1.000000
vt 0.406250 0.937500
vt 0.421875 0.000000
vt 0.406250 0.062500
vt 0.406250 0.437500
vt 0.406250 0.875000
vt 0.406250 0.375000
vt 0.406250 0.812500
vt 0.406250 0.500000
vt 0.375000 0.562500
vt 0.390625 1.000000
vt 0.375000 0.937500
vt 0.390625 0.000000
vt 0.375000 0.062500
vt 0.375000 0.437500
vt 0.375000 0.875000
vt 0.375000 0.375000
vt 0.375000 0.812500
vt 0.406250 0.312500
vt 0.375000 0.750000
vt 0.375000 0.250000
vt 0.375000 0.687500
vt 0.406250 0.687500
vt 0.406250 0.187500
vt 0.375000 0.625000
vt 0.375000 0.187500
vt 0.375000 0.125000
vt 0.343750 0.250000
vt 0.375000 0.312500
vt 0.343750 0.750000
vt 0.343750 0.625000
vt 0.343750 0.125000
vt 0.343750 0.062500
vt 0.375000 0.500000
vt 0.343750 0.562500
vt 0.359375 1.000000
vt 0.343750 0.937500
vt 0.359375 0.000000
vt 0.343750 0.437500
vt 0.343750 0.875000
vt 0.343750 0.375000
vt 0.343750 0.812500
vt 0.328125 1.000000
vt 0.312500 0.937500
vt 0.328125 0.000000
vt 0.312500 0.062500
vt 0.312500 0.437500
vt 0.343750 0.500000
vt 0.312500 0.875000
vt 0.312500 0.375000
vt 0.312500 0.812500
vt 0.343750 0.312500
vt 0.312500 0.750000
vt 0.312500 0.250000
vt 0.312500 0.687500
vt 0.343750 0.687500
vt 0.343750 0.187500
vt 0.312500 0.625000
vt 0.312500 0.187500
vt 0.312500 0.125000
vt 0.312500 0.562500
vt 0.281250 0.750000
vt 0.281250 0.250000
vt 0.281250 0.625000
vt 0.281250 0.125000
vt 0.312500 0.500000
vt 0.281250 0.562500
vt 0.296875 1.000000
vt 0.281250 0.937500
vt 0.296875 0.000000
vt 0.281250 0.062500
vt 0.281250 0.437500
vt 0.281250 0.875000
vt 0.281250 0.375000
vt 0.281250 0.812500
vt 0.312500 0.312500
vt 0.250000 0.437500
vt 0.281250 0.500000
vt 0.250000 0.875000
vt 0.250000 0.375000
vt 0.250000 0.812500
vt 0.281250 0.312500
vt 0.250000 0.750000
vt 0.250000 0.250000
vt 0.281250 0.687500
vt 0.281250 0.187500
vt 0.250000 0.625000
vt 0.250000 0.125000
vt 0.250000 0.062500
vt 0.250000 0.562500
vt 0.265625 1.000000
vt 0.250000 0.937500
vt 0.265625 0.000000
vt 0.250000 0.187500
vt 0.218750 0.250000
vt 0.218750 0.625000
vt 0.250000 0.687500
vt 0.218750 0.125000
vt 0.218750 0.062500
vt 0.250000 0.500000
vt 0.218750 0.562500
vt 0.234375 1.000000
vt 0.218750 0.937500
vt 0.234375 0.000000
vt 0.218750 0.437500
vt 0.218750 0.375000
vt 0.218750 0.875000
vt 0.250000 0.312500
vt 0.218750 0.750000
vt 0.187500 0.375000
vt 0.218750 0.812500
vt 0.187500 0.875000
vt 0.218750 0.312500
vt 0.187500 0.750000
vt 0.187500 0.250000
vt 0.218750 0.687500
vt 0.218750 0.187500
vt 0.187500 0.625000
vt 0.187500 0.125000
vt 0.187500 0.062500
vt 0.218750 0.500000
vt 0.187500 0.562500
vt 0.203125 1.000000
vt 0.187500 0.937500
vt 0.203125 0.000000
vt 0.187500 0.437500
vt 0.156250 0.125000
vt 0.187500 0.187500
vt 0.156250 0.625000
vt 0.156250 0.062500
vt 0.187500 0.500000
vt 0.156250 0.562500
vt 0.171875 1.000000
vt 0.156250 0.937500
vt 0.171875 0.000000
vt 0.156250 0.437500
vt 0.156250 0.875000
vt 0.156250 0.375000
vt 0.187500 0.812500
vt 0.187500 0.312500
vt 0.156250 0.750000
vt 0.156250 0.250000
vt 0.187500 0.687500
vt 0.156250 0.187500
vt 0.156250 0.812500
vt 0.125000 0.875000
vt 0.156250 0.312500
vt 0.125000 0.375000
vt 0.125000 0.750000
vt 0.125000 0.250000
vt 0.156250 0.687500
vt 0.125000 0.625000
vt 0.125000 0.125000
vt 0.125000 0.062500
vt 0.156250 0.500000
vt 0.125000 0.562500
vt 0.140625 1.000000
vt 0.125000 0.937500
vt 0.140625 0.000000
vt 0.125000 0.437500
vt 0.093750 0.625000
vt 0.093750 0.062500
vt 0.125000 0.500000
vt 0.093750 0.562500
vt 0.109375 1.000000
vt 0.093750 0.937500
vt 0.109375 0.000000
vt 0.093750 0.437500
vt 0.093750 0.875000
vt 0.093750 0.375000
vt 0.125000 0.812500
vt 0.125000 0.312500
vt 0.093750 0.750000
vt 0.093750 0.250000
vt 0.125000 0.687500
vt 0.125000 0.187500
vt 0.093750 0.125000
vt 0.093750 0.312500
vt 0.062500 0.375000
vt 0.062500 0.750000
vt 0.093750 0.812500
vt 0.062500 0.250000
vt 0.093750 0.687500
vt 0.093750 0.187500
vt 0.062500 0.625000
vt 0.062500 0.125000
vt 0.093750 0.500000
vt 0.062500 0.562500
vt 0.078125 1.000000
vt 0.062500 0.937500
vt 0.078125 0.000000
vt 0.062500 0.062500
vt 0.062500 0.437500
vt 0.062500 0.875000
vt 0.031250 0.062500
vt 0.062500 0.500000
vt 0.031250 0.562500
vt 0.046875 1.000000
vt 0.031250 0.937500
vt 0.046875 0.000000
vt 0.031250 0.437500
vt 0.031250 0.875000
vt 0.031250 0.375000
vt 0.062500 0.812500
vt 0.062500 0.312500
vt 0.031250 0.750000
vt 0.031250 0.250000
vt 0.062500 0.687500
vt 0.062500 0.187500
vt 0.031250 0.625000
vt 0.031250 0.125000
vt 0.000000 0.750000
vt 0.031250 0.812500
vt 0.000000 0.250000
vt 0.031250 0.312500
vt 0.031250 0.687500
vt 0.031250 0.187500
vt 0.000000 0.625000
vt 0.000000 0.125000
vt 0.000000 0.062500
vt 0.031250 0.500000
vt 0.000000 0.562500
vt 0.015625 1.000000
vt 0.000000 0.937500
vt 0.015625 0.000000
vt 0.000000 0.437500
vt 0.000000 0.875000
vt 0.000000 0.375000
vt 0.000000 0.812500
vt 1.000000 0.500000
vt 1.000000 0.562500
vt 0.968750 0.562500
vt 1.000000 0.937500
vt 0.984375 1.000000
vt 0.968750 0.937500
vt 0.984375 0.000000
vt 1.000000 0.062500
vt 0.968750 0.062500
vt 0.968750 0.437500
vt 1.000000 0.437500
vt 0.968750 0.875000
vt 1.000000 0.875000
vt 0.968750 0.375000
vt 1.000000 0.375000
vt 1.000000 0.812500
vt 1.000000 0.312500
vt 0.968750 0.750000
vt 1.000000 0.750000
vt 0.968750 0.250000
vt 1.000000 0.250000
vt 1.000000 0.687500
vt 1.000000 0.187500
vt 0.968750 0.625000
vt 1.000000 0.625000
vt 0.968750 0.125000
vt 1.000000 0.125000
vt 0.937500 0.250000
vt 0.968750 0.312500
vt 0.968750 0.687500
vt 0.937500 0.750000
vt 0.968750 0.187500
vt 0.937500 0.625000
vt 0.937500 0.125000
vt 0.937500 0.062500
vt 0.968750 0.500000
vt 0.937500 0.562500
vt 0.953125 1.000000
vt 0.937500 0.937500
vt 0.953125 0.000000
vt 0.937500 0.437500
vt 0.937500 0.375000
vt 0.937500 0.812500
vt 0.968750 0.812500
vt 0.921875 0.000000
vt 0.906250 0.062500
vt 0.906250 0.437500
vt 0.937500 0.500000
vt 0.906250 0.875000
vt 0.937500 0.875000
vt 0.906250 0.375000
vt 0.906250 0.812500
vt 0.937500 0.312500
vt 0.906250 0.750000
vt 0.906250 0.250000
vt 0.937500 0.687500
vt 0.937500 0.187500
vt 0.906250 0.625000
vt 0.906250 0.187500
vt 0.906250 0.562500
vt 0.921875 1.000000
vt 0.906250 0.937500
vt 0.875000 0.250000
vt 0.875000 0.625000
vt 0.906250 0.687500
vt 0.875000 0.125000
vt 0.906250 0.125000
vt 0.875000 0.062500
vt 0.906250 0.500000
vt 0.875000 0.562500
vt 0.890625 1.000000
vt 0.875000 0.937500
vt 0.890625 0.000000
vt 0.875000 0.437500
vt 0.875000 0.875000
vt 0.875000 0.375000
vt 0.906250 0.312500
vt 0.875000 0.750000
vt 0.843750 0.875000
vt 0.843750 0.375000
vt 0.875000 0.812500
vt 0.875000 0.312500
vt 0.843750 0.750000
vt 0.843750 0.250000
vt 0.875000 0.687500
vt 0.875000 0.187500
vt 0.843750 0.625000
vt 0.843750 0.125000
vt 0.875000 0.500000
vt 0.843750 0.562500
vt 0.859375 1.000000
vt 0.843750 0.937500
vt 0.859375 0.000000
vt 0.843750 0.062500
vt 0.843750 0.437500
vt 0.812500 0.625000
vt 0.843750 0.687500
vt 0.812500 0.125000
vt 0.843750 0.187500
vt 0.812500 0.062500
vt 0.843750 0.500000
vt 0.812500 0.562500
vt 0.828125 1.000000
vt 0.812500 0.937500
vt 0.828125 0.000000
vt 0.812500 0.437500
vt 0.812500 0.875000
vt 0.812500 0.375000
vt 0.843750 0.812500
vt 0.843750 0.312500
vt 0.812500 0.750000
vt 0.812500 0.250000
vt 0.781250 0.375000
vt 0.781250 0.812500
vt 0.812500 0.812500
vt 0.812500 0.312500
vt 0.781250 0.750000
vt 0.781250 0.250000
vt 0.812500 0.687500
vt 0.812500 0.187500
vt 0.781250 0.625000
vt 0.781250 0.125000
vt 0.781250 0.062500
vt 0.812500 0.500000
vt 0.781250 0.562500
vt 0.796875 1.000000
vt 0.781250 0.937500
vt 0.796875 0.000000
vt 0.781250 0.437500
vt 0.781250 0.875000
vt 0.781250 0.187500
vt 0.781250 0.500000
vt 0.765625 1.000000
vt 0.765625 0.000000
vt 0.781250 0.312500
vt 0.781250 0.687500
vt 0.000000 0.312500
vt 0.000000 0.687500
vt 0.000000 0.187500
vt 0.000000 0.500000
s 1
usemtl マテリアル
f 477/1/1 2/2/2 11/3/3
f 20/4/4 481/5/5 480/6/6
f 13/7/7 3/8/8 477/1/1
f 21/9/9 482/10/10 481/5/5
f 14/11/11 4/12/12 3/8/8
f 474/13/13 82/14/14 7/15/15
f 308/16/16 482/10/10 21/9/9
f 15/17/17 5/18/18 4/12/12
f 475/19/19 474/13/13 7/15/15
f 16/20/20 478/21/21 5/18/18
f 1/22/22 475/19/19 8/23/23
f 17/24/24 6/25/25 478/21/21
f 476/26/26 1/22/22 9/27/27
f 479/28/28 6/25/25 17/24/24
f 11/3/3 2/2/2 476/26/26
f 19/29/29 480/6/6 479/28/28
f 26/30/30 11/3/3 10/31/31
f 19/29/29 18/32/32 33/33/33
f 27/34/34 12/35/35 11/3/3
f 35/36/36 20/4/4 19/29/29
f 28/37/37 13/7/7 12/35/35
f 36/38/38 21/9/9 20/4/4
f 29/39/39 14/11/11 13/7/7
f 7/15/15 82/40/14 22/41/40
f 308/42/16 21/9/9 36/38/38
f 30/43/41 15/17/17 14/11/11
f 23/44/42 8/23/23 7/15/15
f 31/45/43 16/20/20 15/17/17
f 24/46/44 9/27/27 8/23/23
f 17/24/24 16/20/20 31/45/43
f 25/47/45 10/31/31 9/27/27
f 33/33/33 18/32/32 17/24/24
f 45/48/46 30/43/41 29/39/39
f 38/49/47 23/44/42 22/41/40
f 46/50/48 31/45/43 30/43/41
f 39/51/49 24/46/44 23/44/42
f 47/52/50 32/53/51 31/45/43
f 25/47/45 24/46/44 39/51/49
f 48/54/52 33/33/33 32/53/51
f 41/55/53 26/30/30 25/47/45
f 34/56/54 33/33/33 48/54/52
f 27/34/34 26/30/30 41/55/53
f 50/57/55 35/36/36 34/56/54
f 28/37/37 27/34/34 42/58/56
f 51/59/57 36/38/38 35/36/36
f 44/60/58 29/39/39 28/37/37
f 22/41/40 82/61/14 37/62/59
f 308/63/16 36/38/38 51/59/57
f 64/64/60 49/65/61 48/54/52
f 57/66/62 42/58/56 41/55/53
f 65/67/63 50/57/55 49/65/61
f 43/68/64 42/58/56 57/66/62
f 51/59/57 50/57/55 65/67/63
f 59/69/65 44/60/58 43/68/64
f 37/62/59 82/70/14 52/71/66
f 308/72/16 51/59/57 66/73/67
f 60/74/68 45/48/46 44/60/58
f 53/75/69 38/49/47 37/62/59
f 61/76/70 46/50/48 45/48/46
f 39/51/49 38/49/47 53/75/69
f 47/52/50 46/50/48 61/76/70
f 40/77/71 39/51/49 54/78/72
f 48/54/52 47/52/50 62/79/73
f 56/80/74 41/55/53 40/77/71
f 53/75/69 52/71/66 67/81/75
f 76/82/76 61/76/70 60/74/68
f 69/83/77 54/78/72 53/75/69
f 62/79/73 61/76/70 76/82/76
f 70/84/78 55/85/79 54/78/72
f 78/86/80 63/87/81 62/79/73
f 71/88/82 56/80/74 55/85/79
f 64/64/60 63/87/81 78/86/80
f 72/89/83 57/66/62 56/80/74
f 80/90/84 65/67/63 64/64/60
f 58/91/85 57/66/62 72/89/83
f 81/92/86 66/73/67 65/67/63
f 59/69/65 58/91/85 73/93/87
f 52/71/66 82/94/14 67/81/75
f 308/95/16 66/73/67 81/92/86
f 75/96/88 60/74/68 59/69/65
f 88/97/89 72/89/83 71/88/82
f 80/90/84 79/98/90 95/99/91
f 73/93/87 72/89/83 88/97/89
f 81/92/86 80/90/84 96/100/92
f 74/101/93 73/93/87 89/102/94
f 67/81/75 82/103/14 83/104/95
f 308/105/16 81/92/86 97/106/96
f 91/107/97 75/96/88 74/101/93
f 84/108/98 68/109/99 67/81/75
f 92/110/100 76/82/76 75/96/88
f 85/111/101 69/83/77 68/109/99
f 77/112/102 76/82/76 92/110/100
f 86/113/103 70/84/78 69/83/77
f 94/114/104 78/86/80 77/112/102
f 71/88/82 70/84/78 86/113/103
f 79/98/90 78/86/80 94/114/104
f 107/115/105 92/110/100 91/107/97
f 85/111/101 84/108/98 99/116/106
f 93/117/107 92/110/100 107/115/105
f 101/118/108 86/113/103 85/111/101
f 109/119/109 94/114/104 93/117/107
f 87/120/110 86/113/103 101/118/108
f 95/99/91 94/114/104 109/119/109
f 103/121/111 88/97/89 87/120/110
f 111/122/112 96/100/92 95/99/91
f 89/102/94 88/97/89 103/121/111
f 112/123/113 97/106/96 96/100/92
f 90/124/114 89/102/94 104/125/115
f 83/104/95 82/126/14 98/127/116
f 308/128/16 97/106/96 112/123/113
f 106/129/117 91/107/97 90/124/114
f 99/116/106 84/108/98 83/104/95
f 111/122/112 110/130/118 125/131/119
f 104/125/115 103/121/111 118/132/120
f 127/133/121 112/123/113 111/122/112
f 105/134/122 104/125/115 119/135/123
f 98/127/116 82/136/14 113/137/124
f 308/138/16 112/123/113 127/133/121
f 121/139/125 106/129/117 105/134/122
f 114/140/126 99/116/106 98/127/116
f 122/141/127 107/115/105 106/129/117
f 115/142/128 100/143/129 99/116/106
f 108/144/130 107/115/105 122/141/127
f 116/145/131 101/118/108 100/143/129
f 124/146/132 109/119/109 108/144/130
f 102/147/133 101/118/108 116/145/131
f 110/130/118 109/119/109 124/146/132
f 118/132/120 103/121/111 102/147/133
f 123/148/134 122/141/127 137/149/135
f 131/150/136 116/145/131 115/142/128
f 139/151/137 124/146/132 123/148/134
f 117/152/138 116/145/131 131/150/136
f 140/153/139 125/131/119 124/146/132
f 133/154/140 118/132/120 117/152/138
f 141/155/141 126/156/142 125/131/119
f 119/135/123 118/132/120 133/154/140
f 142/157/143 127/133/121 126/156/142
f 120/158/144 119/135/123 134/159/145
f 113/137/124 82/160/14 128/161/146
f 308/162/16 127/133/121 142/157/143
f 136/163/147 121/139/125 120/158/144
f 114/140/126 113/137/124 128/161/146
f 137/149/135 122/141/127 121/139/125
f 115/142/128 114/140/126 129/164/148
f 157/165/149 142/157/143 141/155/141
f 135/166/150 134/159/145 149/167/151
f 128/161/146 82/168/14 143/169/152
f 308/170/16 142/157/143 157/165/149
f 151/171/153 136/163/147 135/166/150
f 144/172/154 129/164/148 128/161/146
f 152/173/155 137/149/135 136/163/147
f 130/174/156 129/164/148 144/172/154
f 138/175/157 137/149/135 152/173/155
f 146/176/158 131/150/136 130/174/156
f 154/177/159 139/151/137 138/175/157
f 132/178/160 131/150/136 146/176/158
f 140/153/139 139/151/137 154/177/159
f 148/179/161 133/154/140 132/178/160
f 141/155/141 140/153/139 155/180/162
f 134/159/145 133/154/140 148/179/161
f 161/181/163 146/176/158 145/182/164
f 169/183/165 154/177/159 153/184/166
f 147/185/167 146/176/158 161/181/163
f 155/180/162 154/177/159 169/183/165
f 163/186/168 148/179/161 147/185/167
f 171/187/169 156/188/170 155/180/162
f 149/167/151 148/179/161 163/186/168
f 157/165/149 156/188/170 171/187/169
f 150/189/171 149/167/151 164/190/172
f 143/169/152 82/191/14 158/192/173
f 308/193/16 157/165/149 172/194/174
f 166/195/175 151/171/153 150/189/171
f 159/196/176 144/172/154 143/169/152
f 167/197/177 152/173/155 151/171/153
f 160/198/178 145/182/164 144/172/154
f 153/184/166 152/173/155 167/197/177
f 165/199/179 164/190/172 179/200/180
f 158/192/173 82/201/14 173/202/181
f 308/203/16 172/194/174 187/204/182
f 181/205/183 166/195/175 165/199/179
f 174/206/184 159/196/176 158/192/173
f 182/207/185 167/197/177 166/195/175
f 175/208/186 160/198/178 159/196/176
f 168/209/187 167/197/177 182/207/185
f 176/210/188 161/181/163 160/198/178
f 184/211/189 169/183/165 168/209/187
f 177/212/190 162/213/191 161/181/163
f 170/214/192 169/183/165 184/211/189
f 178/215/193 163/186/168 162/213/191
f 171/187/169 170/214/192 185/216/194
f 164/190/172 163/186/168 178/215/193
f 172/194/174 171/187/169 186/217/195
f 199/218/196 184/211/189 183/219/197
f 177/212/190 176/210/188 191/220/198
f 185/216/194 184/211/189 199/218/196
f 193/221/199 178/215/193 177/212/190
f 201/222/200 186/217/195 185/216/194
f 179/200/180 178/215/193 193/221/199
f 202/223/201 187/204/182 186/217/195
f 180/224/202 179/200/180 194/225/203
f 173/202/181 82/226/14 188/227/204
f 308/228/16 187/204/182 202/223/201
f 196/229/205 181/205/183 180/224/202
f 189/230/206 174/206/184 173/202/181
f 197/231/207 182/207/185 181/205/183
f 190/232/208 175/208/186 174/206/184
f 183/219/197 182/207/185 197/231/207
f 191/220/198 176/210/188 175/208/186
f 188/227/204 82/233/14 203/234/209
f 308/235/16 202/223/201 217/236/210
f 211/237/211 196/229/205 195/238/212
f 204/239/213 189/230/206 188/227/204
f 212/240/214 197/231/207 196/229/205
f 205/241/215 190/232/208 189/230/206
f 198/242/216 197/231/207 212/240/214
f 206/243/217 191/220/198 190/232/208
f 214/244/218 199/218/196 198/242/216
f 207/245/219 192/246/220 191/220/198
f 200/247/221 199/218/196 214/244/218
f 208/248/222 193/221/199 192/246/220
f 201/222/200 200/247/221 215/249/223
f 194/225/203 193/221/199 208/248/222
f 202/223/201 201/222/200 216/250/224
f 195/238/212 194/225/203 209/251/225
f 207/245/219 206/243/217 221/252/226
f 215/249/223 214/244/218 229/253/227
f 223/254/228 208/248/222 207/245/219
f 231/255/229 216/250/224 215/249/223
f 209/251/225 208/248/222 223/254/228
f 217/236/210 216/250/224 231/255/229
f 210/256/230 209/251/225 224/257/231
f 203/234/209 82/258/14 218/259/232
f 308/260/16 217/236/210 232/261/233
f 226/262/234 211/237/211 210/256/230
f 219/263/235 204/239/213 203/234/209
f 227/264/236 212/240/214 211/237/211
f 220/265/237 205/241/215 204/239/213
f 213/266/238 212/240/214 227/264/236
f 221/252/226 206/243/217 205/241/215
f 229/253/227 214/244/218 213/266/238
f 241/267/239 226/262/234 225/268/240
f 234/269/241 219/263/235 218/259/232
f 242/270/242 227/264/236 226/262/234
f 235/271/243 220/265/237 219/263/235
f 228/272/244 227/264/236 242/270/242
f 236/273/245 221/252/226 220/265/237
f 244/274/246 229/253/227 228/272/244
f 222/275/247 221/252/226 236/273/245
f 230/276/248 229/253/227 244/274/246
f 238/277/249 223/254/228 222/275/247
f 246/278/250 231/255/229 230/276/248
f 224/257/231 223/254/228 238/277/249
f 247/279/251 232/261/233 231/255/229
f 225/268/240 224/257/231 239/280/252
f 218/259/232 82/281/14 233/282/253
f 308/283/16 232/261/233 247/279/251
f 245/284/254 244/274/246 259/285/255
f 253/286/256 238/277/249 237/287/257
f 261/288/258 246/278/250 245/284/254
f 239/280/252 238/277/249 253/286/256
f 262/289/259 247/279/251 246/278/250
f 240/290/260 239/280/252 254/291/261
f 233/282/253 82/292/14 248/293/262
f 308/294/16 247/279/251 262/289/259
f 256/295/263 241/267/239 240/290/260
f 234/269/241 233/282/253 248/293/262
f 257/296/264 242/270/242 241/267/239
f 235/271/243 234/269/241 249/297/265
f 243/298/266 242/270/242 257/296/264
f 251/299/267 236/273/245 235/271/243
f 259/285/255 244/274/246 243/298/266
f 237/287/257 236/273/245 251/299/267
f 272/300/268 257/296/264 256/295/263
f 250/301/269 249/297/265 264/302/270
f 258/303/271 257/296/264 272/300/268
f 266/304/272 251/299/267 250/301/269
f 274/305/273 259/285/255 258/303/271
f 252/306/274 251/299/267 266/304/272
f 260/307/275 259/285/255 274/305/273
f 268/308/276 253/286/256 252/306/274
f 276/309/277 261/288/258 260/307/275
f 254/291/261 253/286/256 268/308/276
f 277/310/278 262/289/259 261/288/258
f 255/311/279 254/291/261 269/312/280
f 248/293/262 82/313/14 263/314/281
f 308/315/16 262/289/259 277/310/278
f 271/316/282 256/295/263 255/311/279
f 264/302/270 249/297/265 248/293/262
f 291/317/283 276/309/277 275/318/284
f 269/312/280 268/308/276 283/319/285
f 292/320/286 277/310/278 276/309/277
f 270/321/287 269/312/280 284/322/288
f 263/314/281 82/323/14 278/324/289
f 308/325/16 277/310/278 292/320/286
f 286/326/290 271/316/282 270/321/287
f 279/327/291 264/302/270 263/314/281
f 287/328/292 272/300/268 271/316/282
f 265/329/293 264/302/270 279/327/291
f 273/330/294 272/300/268 287/328/292
f 281/331/295 266/304/272 265/329/293
f 289/332/296 274/305/273 273/330/294
f 267/333/297 266/304/272 281/331/295
f 290/334/298 275/318/284 274/305/273
f 283/319/285 268/308/276 267/333/297
f 280/335/299 279/327/291 294/336/300
f 288/337/301 287/328/292 302/338/302
f 296/339/303 281/331/295 280/335/299
f 304/340/304 289/332/296 288/337/301
f 282/341/305 281/331/295 296/339/303
f 290/334/298 289/332/296 304/340/304
f 298/342/306 283/319/285 282/341/305
f 306/343/307 291/317/283 290/334/298
f 284/322/288 283/319/285 298/342/306
f 307/344/308 292/320/286 291/317/283
f 285/345/309 284/322/288 299/346/310
f 278/324/289 82/347/14 293/348/311
f 308/349/16 292/320/286 307/344/308
f 301/350/312 286/326/290 285/345/309
f 294/336/300 279/327/291 278/324/289
f 302/338/302 287/328/292 286/326/290
f 299/346/310 298/342/306 314/351/313
f 323/352/314 307/344/308 306/343/307
f 300/353/315 299/346/310 315/354/316
f 293/348/311 82/355/14 309/356/317
f 308/357/16 307/344/308 323/352/314
f 317/358/318 301/350/312 300/353/315
f 310/359/319 294/336/300 293/348/311
f 318/360/320 302/338/302 301/350/312
f 295/361/321 294/336/300 310/359/319
f 303/362/322 302/338/302 318/360/320
f 312/363/323 296/339/303 295/361/321
f 320/364/324 304/340/304 303/362/322
f 297/365/325 296/339/303 312/363/323
f 305/366/326 304/340/304 320/364/324
f 314/351/313 298/342/306 297/365/325
f 322/367/327 306/343/307 305/366/326
f 319/368/328 318/360/320 333/369/329
f 327/370/330 312/363/323 311/371/331
f 335/372/332 320/364/324 319/368/328
f 313/373/333 312/363/323 327/370/330
f 321/374/334 320/364/324 335/372/332
f 329/375/335 314/351/313 313/373/333
f 337/376/336 322/367/327 321/374/334
f 315/354/316 314/351/313 329/375/335
f 323/352/314 322/367/327 337/376/336
f 316/377/337 315/354/316 330/378/338
f 309/356/317 82/379/14 324/380/339
f 308/381/16 323/352/314 338/382/340
f 332/383/341 317/358/318 316/377/337
f 325/384/342 310/359/319 309/356/317
f 333/369/329 318/360/320 317/358/318
f 311/371/331 310/359/319 325/384/342
f 353/385/343 338/382/340 337/376/336
f 331/386/344 330/378/338 345/387/345
f 324/380/339 82/388/14 339/389/346
f 308/390/16 338/382/340 353/385/343
f 347/391/347 332/383/341 331/386/344
f 340/392/348 325/384/342 324/380/339
f 348/393/349 333/369/329 332/383/341
f 326/394/350 325/384/342 340/392/348
f 334/395/351 333/369/329 348/393/349
f 342/396/352 327/370/330 326/394/350
f 350/397/353 335/372/332 334/395/351
f 328/398/354 327/370/330 342/396/352
f 336/399/355 335/372/332 350/397/353
f 344/400/356 329/375/335 328/398/354
f 352/401/357 337/376/336 336/399/355
f 330/378/338 329/375/335 344/400/356
f 357/402/358 342/396/352 341/403/359
f 365/404/360 350/397/353 349/405/361
f 343/406/362 342/396/352 357/402/358
f 351/407/363 350/397/353 365/404/360
f 359/408/364 344/400/356 343/406/362
f 367/409/365 352/401/357 351/407/363
f 345/387/345 344/400/356 359/408/364
f 368/410/366 353/385/343 352/401/357
f 346/411/367 345/387/345 360/412/368
f 339/389/346 82/413/14 354/414/369
f 308/415/16 353/385/343 368/410/366
f 362/416/370 347/391/347 346/411/367
f 355/417/371 340/392/348 339/389/346
f 363/418/372 348/393/349 347/391/347
f 356/419/373 341/403/359 340/392/348
f 349/405/361 348/393/349 363/418/372
f 361/420/374 360/421/368 375/422/375
f 354/423/369 82/424/14 369/425/376
f 308/426/16 368/427/366 383/428/377
f 377/429/378 362/430/370 361/420/374
f 370/431/379 355/432/371 354/423/369
f 378/433/380 363/434/372 362/430/370
f 356/435/373 355/432/371 370/431/379
f 364/436/381 363/434/372 378/433/380
f 372/437/382 357/438/358 356/435/373
f 380/439/383 365/440/360 364/436/381
f 358/441/384 357/438/358 372/437/382
f 366/442/385 365/440/360 380/439/383
f 374/443/386 359/444/364 358/441/384
f 382/445/387 367/446/365 366/442/385
f 360/421/368 359/444/364 374/443/386
f 368/427/366 367/446/365 382/445/387
f 395/447/388 380/439/383 379/448/389
f 373/449/390 372/437/382 387/450/391
f 381/451/392 380/439/383 395/447/388
f 389/452/393 374/443/386 373/449/390
f 397/453/394 382/445/387 381/451/392
f 375/422/375 374/443/386 389/452/393
f 398/454/395 383/428/377 382/445/387
f 376/455/396 375/422/375 390/456/397
f 369/425/376 82/457/14 384/458/398
f 308/459/16 383/428/377 398/454/395
f 392/460/399 377/429/378 376/455/396
f 370/431/379 369/425/376 384/458/398
f 393/461/400 378/433/380 377/429/378
f 386/462/401 371/463/402 370/431/379
f 379/448/389 378/433/380 393/461/400
f 387/450/391 372/437/382 371/463/402
f 308/464/16 398/454/395 413/465/403
f 407/466/404 392/460/399 391/467/405
f 400/468/406 385/469/407 384/458/398
f 408/470/408 393/461/400 392/460/399
f 401/471/409 386/462/401 385/469/407
f 394/472/410 393/461/400 408/470/408
f 402/473/411 387/450/391 386/462/401
f 410/474/412 395/447/388 394/472/410
f 388/475/413 387/450/391 402/473/411
f 396/476/414 395/447/388 410/474/412
f 404/477/415 389/452/393 388/475/413
f 397/453/394 396/476/414 411/478/416
f 390/456/397 389/452/393 404/477/415
f 413/465/403 398/454/395 397/453/394
f 391/467/405 390/456/397 405/479/417
f 384/458/398 82/480/14 399/481/418
f 411/478/416 410/474/412 425/482/419
f 419/483/420 404/477/415 403/484/421
f 427/485/422 412/486/423 411/478/416
f 405/479/417 404/477/415 419/483/420
f 428/487/424 413/465/403 412/486/423
f 406/488/425 405/479/417 420/489/426
f 399/481/418 82/490/14 414/491/427
f 308/492/16 413/465/403 428/487/424
f 422/493/428 407/466/404 406/488/425
f 415/494/429 400/468/406 399/481/418
f 423/495/430 408/470/408 407/466/404
f 401/471/409 400/468/406 415/494/429
f 409/496/431 408/470/408 423/495/430
f 417/497/432 402/473/411 401/471/409
f 425/482/419 410/474/412 409/496/431
f 403/484/421 402/473/411 417/497/432
f 430/498/433 415/494/429 414/491/427
f 438/499/434 423/495/430 422/493/428
f 416/500/435 415/494/429 430/498/433
f 424/501/436 423/495/430 438/499/434
f 432/502/437 417/497/432 416/500/435
f 440/503/438 425/482/419 424/501/436
f 418/504/439 417/497/432 432/502/437
f 426/505/440 425/482/419 440/503/438
f 434/506/441 419/483/420 418/504/439
f 442/507/442 427/485/422 426/505/440
f 420/489/426 419/483/420 434/506/441
f 428/487/424 427/485/422 442/507/442
f 421/508/443 420/489/426 435/509/444
f 414/491/427 82/510/14 429/511/445
f 308/512/16 428/487/424 443/513/446
f 437/514/447 422/493/428 421/508/443
f 449/515/448 434/506/441 433/516/449
f 457/517/450 442/507/442 441/518/451
f 435/509/444 434/506/441 449/515/448
f 458/519/452 443/513/446 442/507/442
f 436/520/453 435/509/444 450/521/454
f 429/511/445 82/522/14 444/523/455
f 308/524/16 443/513/446 458/519/452
f 452/525/456 437/514/447 436/520/453
f 445/526/457 430/498/433 429/511/445
f 453/527/458 438/499/434 437/514/447
f 431/528/459 430/498/433 445/526/457
f 439/529/460 438/499/434 453/527/458
f 447/530/461 432/502/437 431/528/459
f 455/531/462 440/503/438 439/529/460
f 433/516/449 432/502/437 447/530/461
f 441/518/451 440/503/438 455/531/462
f 468/532/463 453/527/458 452/525/456
f 461/533/464 446/534/465 445/526/457
f 454/535/466 453/527/458 468/532/463
f 462/536/467 447/530/461 446/534/465
f 470/537/468 455/531/462 454/535/466
f 448/538/469 447/530/461 462/536/467
f 456/539/470 455/531/462 470/537/468
f 464/540/471 449/515/448 448/538/469
f 472/541/472 457/517/450 456/539/470
f 450/521/454 449/515/448 464/540/471
f 473/542/473 458/519/452 457/517/450
f 451/543/474 450/521/454 465/544/475
f 444/523/455 82/545/14 459/546/476
f 308/547/16 458/519/452 473/542/473
f 467/548/477 452/525/456 451/543/474
f 460/549/478 445/526/457 444/523/455
f 481/5/5 472/541/472 471/550/479
f 465/544/475 464/540/471 477/1/1
f 482/10/10 473/542/473 472/541/472
f 466/551/480 465/544/475 3/8/8
f 459/546/476 82/552/14 474/13/13
f 308/553/16 473/542/473 482/10/10
f 5/18/18 467/548/477 466/551/480
f 475/19/19 460/549/478 459/546/476
f 478/21/21 468/532/463 467/548/477
f 461/533/464 460/549/478 475/19/19
f 6/25/25 469/554/481 468/532/463
f 462/536/467 461/533/464 1/22/22
f 479/28/28 470/537/468 469/554/481
f 463/555/482 462/536/467 476/26/26
f 471/550/479 470/537/468 479/28/28
f 464/540/471 463/555/482 2/2/2
f 477/1/1 11/3/3 12/35/35
f 20/4/4 480/6/6 19/29/29
f 13/7/7 477/1/1 12/35/35
f 21/9/9 481/5/5 20/4/4
f 14/11/11 3/8/8 13/7/7
f 15/17/17 4/12/12 14/11/11
f 475/19/19 7/15/15 8/23/23
f 16/20/20 5/18/18 15/17/17
f 1/22/22 8/23/23 9/27/27
f 17/24/24 478/21/21 16/20/20
f 476/26/26 9/27/27 10/31/31
f 479/28/28 17/24/24 18/32/32
f 11/3/3 476/26/26 10/31/31
f 19/29/29 479/28/28 18/32/32
f 26/30/30 10/31/31 25/47/45
f 19/29/29 33/33/33 34/56/54
f 27/34/34 11/3/3 26/30/30
f 35/36/36 19/29/29 34/56/54
f 28/37/37 12/35/35 27/34/34
f 36/38/38 20/4/4 35/36/36
f 29/39/39 13/7/7 28/37/37
f 30/43/41 14/11/11 29/39/39
f 23/44/42 7/15/15 22/41/40
f 31/45/43 15/17/17 30/43/41
f 24/46/44 8/23/23 23/44/42
f 17/24/24 31/45/43 32/53/51
f 25/47/45 9/27/27 24/46/44
f 33/33/33 17/24/24 32/53/51
f 45/48/46 29/39/39 44/60/58
f 38/49/47 22/41/40 37/62/59
f 46/50/48 30/43/41 45/48/46
f 39/51/49 23/44/42 38/49/47
f 47/52/50 31/45/43 46/50/48
f 25/47/45 39/51/49 40/77/71
f 48/54/52 32/53/51 47/52/50
f 41/55/53 25/47/45 40/77/71
f 34/56/54 48/54/52 49/65/61
f 27/34/34 41/55/53 42/58/56
f 50/57/55 34/56/54 49/65/61
f 28/37/37 42/58/56 43/68/64
f 51/59/57 35/36/36 50/57/55
f 44/60/58 28/37/37 43/68/64
f 64/64/60 48/54/52 63/87/81
f 57/66/62 41/55/53 56/80/74
f 65/67/63 49/65/61 64/64/60
f 43/68/64 57/66/62 58/91/85
f 51/59/57 65/67/63 66/73/67
f 59/69/65 43/68/64 58/91/85
f 60/74/68 44/60/58 59/69/65
f 53/75/69 37/62/59 52/71/66
f 61/76/70 45/48/46 60/74/68
f 39/51/49 53/75/69 54/78/72
f 47/52/50 61/76/70 62/79/73
f 40/77/71 54/78/72 55/85/79
f 48/54/52 62/79/73 63/87/81
f 56/80/74 40/77/71 55/85/79
f 53/75/69 67/81/75 68/109/99
f 76/82/76 60/74/68 75/96/88
f 69/83/77 53/75/69 68/109/99
f 62/79/73 76/82/76 77/112/102
f 70/84/78 54/78/72 69/83/77
f 78/86/80 62/79/73 77/112/102
f 71/88/82 55/85/79 70/84/78
f 64/64/60 78/86/80 79/98/90
f 72/89/83 56/80/74 71/88/82
f 80/90/84 64/64/60 79/98/90
f 58/91/85 72/89/83 73/93/87
f 81/92/86 65/67/63 80/90/84
f 59/69/65 73/93/87 74/101/93
f 75/96/88 59/69/65 74/101/93
f 88/97/89 71/88/82 87/120/110
f 80/90/84 95/99/91 96/100/92
f 73/93/87 88/97/89 89/102/94
f 81/92/86 96/100/92 97/106/96
f 74/101/93 89/102/94 90/124/114
f 91/107/97 74/101/93 90/124/114
f 84/108/98 67/81/75 83/104/95
f 92/110/100 75/96/88 91/107/97
f 85/111/101 68/109/99 84/108/98
f 77/112/102 92/110/100 93/117/107
f 86/113/103 69/83/77 85/111/101
f 94/114/104 77/112/102 93/117/107
f 71/88/82 86/113/103 87/120/110
f 79/98/90 94/114/104 95/99/91
f 107/115/105 91/107/97 106/129/117
f 85/111/101 99/116/106 100/143/129
f 93/117/107 107/115/105 108/144/130
f 101/118/108 85/111/101 100/143/129
f 109/119/109 93/117/107 108/144/130
f 87/120/110 101/118/108 102/147/133
f 95/99/91 109/119/109 110/130/118
f 103/121/111 87/120/110 102/147/133
f 111/122/112 95/99/91 110/130/118
f 89/102/94 103/121/111 104/125/115
f 112/123/113 96/100/92 111/122/112
f 90/124/114 104/125/115 105/134/122
f 106/129/117 90/124/114 105/134/122
f 99/116/106 83/104/95 98/127/116
f 111/122/112 125/131/119 126/156/142
f 104/125/115 118/132/120 119/135/123
f 127/133/121 111/122/112 126/156/142
f 105/134/122 119/135/123 120/158/144
f 121/139/125 105/134/122 120/158/144
f 114/140/126 98/127/116 113/137/124
f 122/141/127 106/129/117 121/139/125
f 115/142/128 99/116/106 114/140/126
f 108/144/130 122/141/127 123/148/134
f 116/145/131 100/143/129 115/142/128
f 124/146/132 108/144/130 123/148/134
f 102/147/133 116/145/131 117/152/138
f 110/130/118 124/146/132 125/131/119
f 118/132/120 102/147/133 117/152/138
f 123/148/134 137/149/135 138/175/157
f 131/150/136 115/142/128 130/174/156
f 139/151/137 123/148/134 138/175/157
f 117/152/138 131/150/136 132/178/160
f 140/153/139 124/146/132 139/151/137
f 133/154/140 117/152/138 132/178/160
f 141/155/141 125/131/119 140/153/139
f 119/135/123 133/154/140 134/159/145
f 142/157/143 126/156/142 141/155/141
f 120/158/144 134/159/145 135/166/150
f 136/163/147 120/158/144 135/166/150
f 114/140/126 128/161/146 129/164/148
f 137/149/135 121/139/125 136/163/147
f 115/142/128 129/164/148 130/174/156
f 157/165/149 141/155/141 156/188/170
f 135/166/150 149/167/151 150/189/171
f 151/171/153 135/166/150 150/189/171
f 144/172/154 128/161/146 143/169/152
f 152/173/155 136/163/147 151/171/153
f 130/174/156 144/172/154 145/182/164
f 138/175/157 152/173/155 153/184/166
f 146/176/158 130/174/156 145/182/164
f 154/177/159 138/175/157 153/184/166
f 132/178/160 146/176/158 147/185/167
f 140/153/139 154/177/159 155/180/162
f 148/179/161 132/178/160 147/185/167
f 141/155/141 155/180/162 156/188/170
f 134/159/145 148/179/161 149/167/151
f 161/181/163 145/182/164 160/198/178
f 169/183/165 153/184/166 168/209/187
f 147/185/167 161/181/163 162/213/191
f 155/180/162 169/183/165 170/214/192
f 163/186/168 147/185/167 162/213/191
f 171/187/169 155/180/162 170/214/192
f 149/167/151 163/186/168 164/190/172
f 157/165/149 171/187/169 172/194/174
f 150/189/171 164/190/172 165/199/179
f 166/195/175 150/189/171 165/199/179
f 159/196/176 143/169/152 158/192/173
f 167/197/177 151/171/153 166/195/175
f 160/198/178 144/172/154 159/196/176
f 153/184/166 167/197/177 168/209/187
f 165/199/179 179/200/180 180/224/202
f 181/205/183 165/199/179 180/224/202
f 174/206/184 158/192/173 173/202/181
f 182/207/185 166/195/175 181/205/183
f 175/208/186 159/196/176 174/206/184
f 168/209/187 182/207/185 183/219/197
f 176/210/188 160/198/178 175/208/186
f 184/211/189 168/209/187 183/219/197
f 177/212/190 161/181/163 176/210/188
f 170/214/192 184/211/189 185/216/194
f 178/215/193 162/213/191 177/212/190
f 171/187/169 185/216/194 186/217/195
f 164/190/172 178/215/193 179/200/180
f 172/194/174 186/217/195 187/204/182
f 199/218/196 183/219/197 198/242/216
f 177/212/190 191/220/198 192/246/220
f 185/216/194 199/218/196 200/247/221
f 193/221/199 177/212/190 192/246/220
f 201/222/200 185/216/194 200/247/221
f 179/200/180 193/221/199 194/225/203
f 202/223/201 186/217/195 201/222/200
f 180/224/202 194/225/203 195/238/212
f 196/229/205 180/224/202 195/238/212
f 189/230/206 173/202/181 188/227/204
f 197/231/207 181/205/183 196/229/205
f 190/232/208 174/206/184 189/230/206
f 183/219/197 197/231/207 198/242/216
f 191/220/198 175/208/186 190/232/208
f 211/237/211 195/238/212 210/256/230
f 204/239/213 188/227/204 203/234/209
f 212/240/214 196/229/205 211/237/211
f 205/241/215 189/230/206 204/239/213
f 198/242/216 212/240/214 213/266/238
f 206/243/217 190/232/208 205/241/215
f 214/244/218 198/242/216 213/266/238
f 207/245/219 191/220/198 206/243/217
f 200/247/221 214/244/218 215/249/223
f 208/248/222 192/246/220 207/245/219
f 201/222/200 215/249/223 216/250/224
f 194/225/203 208/248/222 209/251/225
f 202/223/201 216/250/224 217/236/210
f 195/238/212 209/251/225 210/256/230
f 207/245/219 221/252/226 222/275/247
f 215/249/223 229/253/227 230/276/248
f 223/254/228 207/245/219 222/275/247
f 231/255/229 215/249/223 230/276/248
f 209/251/225 223/254/228 224/257/231
f 217/236/210 231/255/229 232/261/233
f 210/256/230 224/257/231 225/268/240
f 226/262/234 210/256/230 225/268/240
f 219/263/235 203/234/209 218/259/232
f 227/264/236 211/237/211 226/262/234
f 220/265/237 204/239/213 219/263/235
f 213/266/238 227/264/236 228/272/244
f 221/252/226 205/241/215 220/265/237
f 229/253/227 213/266/238 228/272/244
f 241/267/239 225/268/240 240/290/260
f 234/269/241 218/259/232 233/282/253
f 242/270/242 226/262/234 241/267/239
f 235/271/243 219/263/235 234/269/241
f 228/272/244 242/270/242 243/298/266
f 236/273/245 220/265/237 235/271/243
f 244/274/246 228/272/244 243/298/266
f 222/275/247 236/273/245 237/287/257
f 230/276/248 244/274/246 245/284/254
f 238/277/249 222/275/247 237/287/257
f 246/278/250 230/276/248 245/284/254
f 224/257/231 238/277/249 239/280/252
f 247/279/251 231/255/229 246/278/250
f 225/268/240 239/280/252 240/290/260
f 245/284/254 259/285/255 260/307/275
f 253/286/256 237/287/257 252/306/274
f 261/288/258 245/284/254 260/307/275
f 239/280/252 253/286/256 254/291/261
f 262/289/259 246/278/250 261/288/258
f 240/290/260 254/291/261 255/311/279
f 256/295/263 240/290/260 255/311/279
f 234/269/241 248/293/262 249/297/265
f 257/296/264 241/267/239 256/295/263
f 235/271/243 249/297/265 250/301/269
f 243/298/266 257/296/264 258/303/271
f 251/299/267 235/271/243 250/301/269
f 259/285/255 243/298/266 258/303/271
f 237/287/257 251/299/267 252/306/274
f 272/300/268 256/295/263 271/316/282
f 250/301/269 264/302/270 265/329/293
f 258/303/271 272/300/268 273/330/294
f 266/304/272 250/301/269 265/329/293
f 274/305/273 258/303/271 273/330/294
f 252/306/274 266/304/272 267/333/297
f 260/307/275 274/305/273 275/318/284
f 268/308/276 252/306/274 267/333/297
f 276/309/277 260/307/275 275/318/284
f 254/291/261 268/308/276 269/312/280
f 277/310/278 261/288/258 276/309/277
f 255/311/279 269/312/280 270/321/287
f 271/316/282 255/311/279 270/321/287
f 264/302/270 248/293/262 263/314/281
f 291/317/283 275/318/284 290/334/298
f 269/312/280 283/319/285 284/322/288
f 292/320/286 276/309/277 291/317/283
f 270/321/287 284/322/288 285/345/309
f 286/326/290 270/321/287 285/345/309
f 279/327/291 263/314/281 278/324/289
f 287/328/292 271/316/282 286/326/290
f 265/329/293 279/327/291 280/335/299
f 273/330/294 287/328/292 288/337/301
f 281/331/295 265/329/293 280/335/299
f 289/332/296 273/330/294 288/337/301
f 267/333/297 281/331/295 282/341/305
f 290/334/298 274/305/273 289/332/296
f 283/319/285 267/333/297 282/341/305
f 280/335/299 294/336/300 295/361/321
f 288/337/301 302/338/302 303/362/322
f 296/339/303 280/335/299 295/361/321
f 304/340/304 288/337/301 303/362/322
f 282/341/305 296/339/303 297/365/325
f 290/334/298 304/340/304 305/366/326
f 298/342/306 282/341/305 297/365/325
f 306/343/307 290/334/298 305/366/326
f 284/322/288 298/342/306 299/346/310
f 307/344/308 291/317/283 306/343/307
f 285/345/309 299/346/310 300/353/315
f 301/350/312 285/345/309 300/353/315
f 294/336/300 278/324/289 293/348/311
f 302/338/302 286/326/290 301/350/312
f 299/346/310 314/351/313 315/354/316
f 323/352/314 306/343/307 322/367/327
f 300/353/315 315/354/316 316/377/337
f 317/358/318 300/353/315 316/377/337
f 310/359/319 293/348/311 309/356/317
f 318/360/320 301/350/312 317/358/318
f 295/361/321 310/359/319 311/371/331
f 303/362/322 318/360/320 319/368/328
f 312/363/323 295/361/321 311/371/331
f 320/364/324 303/362/322 319/368/328
f 297/365/325 312/363/323 313/373/333
f 305/366/326 320/364/324 321/374/334
f 314/351/313 297/365/325 313/373/333
f 322/367/327 305/366/326 321/374/334
f 319/368/328 333/369/329 334/395/351
f 327/370/330 311/371/331 326/394/350
f 335/372/332 319/368/328 334/395/351
f 313/373/333 327/370/330 328/398/354
f 321/374/334 335/372/332 336/399/355
f 329/375/335 313/373/333 328/398/354
f 337/376/336 321/374/334 336/399/355
f 315/354/316 329/375/335 330/378/338
f 323/352/314 337/376/336 338/382/340
f 316/377/337 330/378/338 331/386/344
f 332/383/341 316/377/337 331/386/344
f 325/384/342 309/356/317 324/380/339
f 333/369/329 317/358/318 332/383/341
f 311/371/331 325/384/342 326/394/350
f 353/385/343 337/376/336 352/401/357
f 331/386/344 345/387/345 346/411/367
f 347/391/347 331/386/344 346/411/367
f 340/392/348 324/380/339 339/389/346
f 348/393/349 332/383/341 347/391/347
f 326/394/350 340/392/348 341/403/359
f 334/395/351 348/393/349 349/405/361
f 342/396/352 326/394/350 341/403/359
f 350/397/353 334/395/351 349/405/361
f 328/398/354 342/396/352 343/406/362
f 336/399/355 350/397/353 351/407/363
f 344/400/356 328/398/354 343/406/362
f 352/401/357 336/399/355 351/407/363
f 330/378/338 344/400/356 345/387/345
f 357/402/358 341/403/359 356/419/373
f 365/404/360 349/405/361 364/556/381
f 343/406/362 357/402/358 358/557/384
f 351/407/363 365/404/360 366/558/385
f 359/408/364 343/406/362 358/557/384
f 367/409/365 351/407/363 366/558/385
f 345/387/345 359/408/364 360/412/368
f 368/410/366 352/401/357 367/409/365
f 346/411/367 360/412/368 361/559/374
f 362/416/370 346/411/367 361/559/374
f 355/417/371 339/389/346 354/414/369
f 363/418/372 347/391/347 362/416/370
f 356/419/373 340/392/348 355/417/371
f 349/405/361 363/418/372 364/556/381
f 361/420/374 375/422/375 376/455/396
f 377/429/378 361/420/374 376/455/396
f 370/431/379 354/423/369 369/425/376
f 378/433/380 362/430/370 377/429/378
f 356/435/373 370/431/379 371/463/402
f 364/436/381 378/433/380 379/448/389
f 372/437/382 356/435/373 371/463/402
f 380/439/383 364/436/381 379/448/389
f 358/441/384 372/437/382 373/449/390
f 366/442/385 380/439/383 381/451/392
f 374/443/386 358/441/384 373/449/390
f 382/445/387 366/442/385 381/451/392
f 360/421/368 374/443/386 375/422/375
f 368/427/366 382/445/387 383/428/377
f 395/447/388 379/448/389 394/472/410
f 373/449/390 387/450/391 388/475/413
f 381/451/392 395/447/388 396/476/414
f 389/452/393 373/449/390 388/475/413
f 397/453/394 381/451/392 396/476/414
f 375/422/375 389/452/393 390/456/397
f 398/454/395 382/445/387 397/453/394
f 376/455/396 390/456/397 391/467/405
f 392/460/399 376/455/396 391/467/405
f 370/431/379 384/458/398 385/469/407
f 393/461/400 377/429/378 392/460/399
f 386/462/401 370/431/379 385/469/407
f 379/448/389 393/461/400 394/472/410
f 387/450/391 371/463/402 386/462/401
f 407/466/404 391/467/405 406/488/425
f 400/468/406 384/458/398 399/481/418
f 408/470/408 392/460/399 407/466/404
f 401/471/409 385/469/407 400/468/406
f 394/472/410 408/470/408 409/496/431
f 402/473/411 386/462/401 401/471/409
f 410/474/412 394/472/410 409/496/431
f 388/475/413 402/473/411 403/484/421
f 396/476/414 410/474/412 411/478/416
f 404/477/415 388/475/413 403/484/421
f 397/453/394 411/478/416 412/486/423
f 390/456/397 404/477/415 405/479/417
f 413/465/403 397/453/394 412/486/423
f 391/467/405 405/479/417 406/488/425
f 411/478/416 425/482/419 426/505/440
f 419/483/420 403/484/421 418/504/439
f 427/485/422 411/478/416 426/505/440
f 405/479/417 419/483/420 420/489/426
f 428/487/424 412/486/423 427/485/422
f 406/488/425 420/489/426 421/508/443
f 422/493/428 406/488/425 421/508/443
f 415/494/429 399/481/418 414/491/427
f 423/495/430 407/466/404 422/493/428
f 401/471/409 415/494/429 416/500/435
f 409/496/431 423/495/430 424/501/436
f 417/497/432 401/471/409 416/500/435
f 425/482/419 409/496/431 424/501/436
f 403/484/421 417/497/432 418/504/439
f 430/498/433 414/491/427 429/511/445
f 438/499/434 422/493/428 437/514/447
f 416/500/435 430/498/433 431/528/459
f 424/501/436 438/499/434 439/529/460
f 432/502/437 416/500/435 431/528/459
f 440/503/438 424/501/436 439/529/460
f 418/504/439 432/502/437 433/516/449
f 426/505/440 440/503/438 441/518/451
f 434/506/441 418/504/439 433/516/449
f 442/507/442 426/505/440 441/518/451
f 420/489/426 434/506/441 435/509/444
f 428/487/424 442/507/442 443/513/446
f 421/508/443 435/509/444 436/520/453
f 437/514/447 421/508/443 436/520/453
f 449/515/448 433/516/449 448/538/469
f 457/517/450 441/518/451 456/539/470
f 435/509/444 449/515/448 450/521/454
f 458/519/452 442/507/442 457/517/450
f 436/520/453 450/521/454 451/543/474
f 452/525/456 436/520/453 451/543/474
f 445/526/457 429/511/445 444/523/455
f 453/527/458 437/514/447 452/525/456
f 431/528/459 445/526/457 446/534/465
f 439/529/460 453/527/458 454/535/466
f 447/530/461 431/528/459 446/534/465
f 455/531/462 439/529/460 454/535/466
f 433/516/449 447/530/461 448/538/469
f 441/518/451 455/531/462 456/539/470
f 468/532/463 452/525/456 467/548/477
f 461/533/464 445/526/457 460/549/478
f 454/535/466 468/532/463 469/554/481
f 462/536/467 446/534/465 461/533/464
f 470/537/468 454/535/466 469/554/481
f 448/538/469 462/536/467 463/555/482
f 456/539/470 470/537/468 471/550/479
f 464/540/471 448/538/469 463/555/482
f 472/541/472 456/539/470 471/550/479
f 450/521/454 464/540/471 465/544/475
f 473/542/473 457/517/450 472/541/472
f 451/543/474 465/544/475 466/551/480
f 467/548/477 451/543/474 466/551/480
f 460/549/478 444/523/455 459/546/476
f 481/5/5 471/550/479 480/6/6
f 465/544/475 477/1/1 3/8/8
f 482/10/10 472/541/472 481/5/5
f 466/551/480 3/8/8 4/12/12
f 5/18/18 466/551/480 4/12/12
f 475/19/19 459/546/476 474/13/13
f 478/21/21 467/548/477 5/18/18
f 461/533/464 475/19/19 1/22/22
f 6/25/25 468/532/463 478/21/21
f 462/536/467 1/22/22 476/26/26
f 479/28/28 469/554/481 6/25/25
f 463/555/482 476/26/26 2/2/2
f 471/550/479 479/28/28 480/6/6
f 464/540/471 2/2/2 477/1/1
