# Blender 4.4.3
# www.blender.org
mtllib skydome.mtl
o 球
v 0.000000 207.867401 138.892609
v 0.000000 138.892563 207.867477
v 0.000000 48.772579 245.196396
v 0.000000 0.000000 250.000092
v 0.000000 -48.772579 245.196396
v 0.000000 -138.892563 207.867477
v 9.515064 245.196320 47.835445
v 18.664473 230.969879 93.832611
v 27.096613 207.867401 136.223831
v 34.487442 176.776688 173.380035
v 40.552944 138.892563 203.873352
v 45.060013 95.670860 226.531937
v 47.835457 48.772579 240.485016
v 48.772610 0.000000 245.196396
v 47.835457 -48.772579 240.485016
v 45.060013 -95.670860 226.531937
v 40.552944 -138.892563 203.873352
v 34.487442 -176.776688 173.380035
v 27.096613 -207.867401 136.223831
v 18.664473 -230.969879 93.832611
v 9.515064 -245.196320 47.835445
v 18.664469 245.196320 45.060001
v 36.611675 230.969879 88.388390
v 53.151917 207.867401 128.320023
v 67.649551 176.776688 163.320419
v 79.547455 138.892563 192.044479
v 88.388390 95.670860 213.388412
v 93.832626 48.772579 226.531937
v 95.670914 0.000000 230.969940
v 93.832626 -48.772579 226.531937
v 88.388390 -95.670860 213.388412
v 79.547455 -138.892563 192.044479
v 67.649551 -176.776688 163.320419
v 53.151917 -207.867401 128.320023
v 36.611675 -230.969879 88.388390
v 18.664469 -245.196320 45.060001
v 27.096609 245.196320 40.552929
v 53.151917 230.969879 79.547440
v 77.164612 207.867401 115.484962
v 98.211929 176.776688 146.984497
v 115.484993 138.892563 172.835464
v 128.320053 95.670860 192.044495
v 136.223862 48.772579 203.873352
v 138.892639 0.000000 207.867447
v 136.223862 -48.772579 203.873352
v 128.320053 -95.670860 192.044495
v 115.484993 -138.892563 172.835464
v 98.211929 -176.776688 146.984497
v 77.164612 -207.867401 115.484962
v 53.151917 -230.969879 79.547440
v 27.096609 -245.196320 40.552929
v 34.487438 245.196320 34.487427
v 67.649551 230.969879 67.649529
v 98.211922 207.867401 98.211884
v 125.000076 176.776688 125.000046
v 146.984512 138.892563 146.984467
v 163.320450 95.670860 163.320419
v 173.380081 48.772579 173.380020
v 176.776794 0.000000 176.776718
v 173.380081 -48.772579 173.380020
v 163.320450 -95.670860 163.320419
v 146.984512 -138.892563 146.984467
v 125.000076 -176.776688 125.000046
v 98.211922 -207.867401 98.211884
v 67.649551 -230.969879 67.649529
v 34.487438 -245.196320 34.487427
v 40.552940 245.196320 27.096598
v 79.547462 230.969879 53.151894
v 115.485001 207.867401 77.164581
v 146.984528 176.776688 98.211906
v 172.835510 138.892563 115.484947
v 192.044525 95.670860 128.320038
v 203.873398 48.772579 136.223801
v 207.867508 0.000000 138.892548
v 203.873398 -48.772579 136.223801
v 192.044525 -95.670860 128.320038
v 172.835510 -138.892563 115.484947
v 146.984528 -176.776688 98.211906
v 115.485001 -207.867401 77.164581
v 79.547462 -230.969879 53.151894
v 40.552940 -245.196320 27.096598
v 0.000000 250.000000 0.000000
v 45.060005 245.196320 18.664459
v 88.388390 230.969879 36.611660
v 128.320053 207.867401 53.151882
v 163.320465 176.776688 67.649536
v 192.044525 138.892563 79.547401
v 213.388458 95.670860 88.388390
v 226.531967 48.772579 93.832573
v 230.969986 0.000000 95.670837
v 226.531967 -48.772579 93.832573
v 213.388458 -95.670860 88.388390
v 192.044525 -138.892563 79.547401
v 163.320465 -176.776688 67.649536
v 128.320053 -207.867401 53.151882
v 88.388390 -230.969879 36.611660
v 45.060005 -245.196320 18.664459
v 47.835445 245.196320 9.515057
v 93.832619 230.969879 18.664459
v 136.223846 207.867401 27.096588
v 173.380081 176.776688 34.487438
v 203.873367 138.892563 40.552906
v 226.531967 95.670860 45.060013
v 240.485062 48.772579 47.835419
v 245.196411 0.000000 48.772549
v 240.485062 -48.772579 47.835419
v 226.531967 -95.670860 45.060013
v 203.873367 -138.892563 40.552906
v 173.380081 -176.776688 34.487438
v 136.223846 -207.867401 27.096588
v 93.832619 -230.969879 18.664459
v 47.835445 -245.196320 9.515057
v 48.772594 245.196320 -0.000003
v 95.670906 230.969879 -0.000006
v 138.892609 207.867401 -0.000013
v 176.776779 176.776688 0.000004
v 207.867477 138.892563 -0.000022
v 230.970001 95.670860 0.000011
v 245.196426 48.772579 -0.000022
v 250.000076 0.000000 -0.000041
v 245.196426 -48.772579 -0.000022
v 230.970001 -95.670860 0.000011
v 207.867477 -138.892563 -0.000022
v 176.776779 -176.776688 0.000004
v 138.892609 -207.867401 -0.000013
v 95.670906 -230.969879 -0.000006
v 48.772594 -245.196320 -0.000003
v 47.835442 245.196320 -9.515061
v 93.832619 230.969879 -18.664469
v 136.223831 207.867401 -27.096611
v 173.380066 176.776688 -34.487427
v 203.873352 138.892563 -40.552948
v 226.531967 95.670860 -45.059990
v 240.485046 48.772579 -47.835461
v 245.196365 0.000000 -48.772625
v 240.485046 -48.772579 -47.835461
v 226.531967 -95.670860 -45.059990
v 203.873352 -138.892563 -40.552948
v 173.380066 -176.776688 -34.487427
v 136.223831 -207.867401 -27.096611
v 93.832619 -230.969879 -18.664469
v 47.835442 -245.196320 -9.515061
v 45.059998 245.196320 -18.664461
v 88.388390 230.969879 -36.611668
v 128.320023 207.867401 -53.151901
v 163.320450 176.776688 -67.649521
v 192.044495 138.892563 -79.547440
v 213.388458 95.670860 -88.388359
v 226.531937 48.772579 -93.832611
v 230.969910 0.000000 -95.670898
v 226.531937 -48.772579 -93.832611
v 213.388458 -95.670860 -88.388359
v 192.044495 -138.892563 -79.547440
v 163.320450 -176.776688 -67.649521
v 128.320023 -207.867401 -53.151901
v 88.388390 -230.969879 -36.611668
v 45.059998 -245.196320 -18.664461
v 40.552925 245.196320 -27.096594
v 79.547447 230.969879 -53.151897
v 115.484962 207.867401 -77.164589
v 146.984512 176.776688 -98.211891
v 172.835464 138.892563 -115.484962
v 192.044525 95.670860 -128.320007
v 203.873352 48.772579 -136.223816
v 207.867401 0.000000 -138.892593
v 203.873352 -48.772579 -136.223816
v 192.044525 -95.670860 -128.320007
v 172.835464 -138.892563 -115.484962
v 146.984512 -176.776688 -98.211891
v 115.484962 -207.867401 -77.164589
v 79.547447 -230.969879 -53.151897
v 40.552925 -245.196320 -27.096594
v 34.487427 245.196320 -34.487419
v 67.649536 230.969879 -67.649529
v 98.211876 207.867401 -98.211891
v 125.000061 176.776688 -125.000031
v 146.984467 138.892563 -146.984467
v 163.320450 95.670860 -163.320389
v 173.380035 48.772579 -173.380020
v 176.776672 0.000000 -176.776733
v 173.380035 -48.772579 -173.380020
v 163.320450 -95.670860 -163.320389
v 146.984467 -138.892563 -146.984467
v 125.000061 -176.776688 -125.000031
v 98.211876 -207.867401 -98.211891
v 67.649536 -230.969879 -67.649529
v 34.487427 -245.196320 -34.487419
v 27.096596 245.196320 -40.552914
v 53.151894 230.969879 -79.547432
v 77.164574 207.867401 -115.484955
v 98.211914 176.776688 -146.984482
v 115.484955 138.892563 -172.835449
v 128.320053 95.670860 -192.044464
v 136.223801 48.772579 -203.873322
v 138.892517 0.000000 -207.867416
v 136.223801 -48.772579 -203.873322
v 128.320053 -95.670860 -192.044464
v 115.484955 -138.892563 -172.835449
v 98.211914 -176.776688 -146.984482
v 77.164574 -207.867401 -115.484955
v 53.151894 -230.969879 -79.547432
v 27.096596 -245.196320 -40.552914
v 18.664457 245.196320 -45.059982
v 36.611652 230.969879 -88.388367
v 53.151871 207.867401 -128.319992
v 67.649536 176.776688 -163.320404
v 79.547409 138.892563 -192.044449
v 88.388390 95.670860 -213.388367
v 93.832565 48.772579 -226.531891
v 95.670799 0.000000 -230.969864
v 93.832565 -48.772579 -226.531891
v 88.388390 -95.670860 -213.388367
v 79.547409 -138.892563 -192.044449
v 67.649536 -176.776688 -163.320404
v 53.151871 -207.867401 -128.319992
v 36.611652 -230.969879 -88.388367
v 18.664457 -245.196320 -45.059982
v 9.515057 245.196320 -47.835415
v 18.664452 230.969879 -93.832581
v 27.096575 207.867401 -136.223770
v 34.487434 176.776688 -173.380020
v 40.552906 138.892563 -203.873291
v 45.060013 95.670860 -226.531891
v 47.835407 48.772579 -240.484955
v 48.772507 0.000000 -245.196289
v 47.835407 -48.772579 -240.484955
v 45.060013 -95.670860 -226.531891
v 40.552906 -138.892563 -203.873291
v 34.487434 -176.776688 -173.380020
v 27.096575 -207.867401 -136.223770
v 18.664452 -230.969879 -93.832581
v 9.515057 -245.196320 -47.835415
v -0.000002 245.196320 -48.772564
v -0.000013 230.969879 -95.670868
v -0.000024 207.867401 -138.892532
v -0.000004 176.776688 -176.776733
v -0.000026 138.892563 -207.867401
v 0.000007 95.670860 -230.969894
v -0.000034 48.772579 -245.196335
v -0.000082 0.000000 -249.999924
v -0.000034 -48.772579 -245.196335
v 0.000007 -95.670860 -230.969894
v -0.000026 -138.892563 -207.867401
v -0.000004 -176.776688 -176.776733
v -0.000024 -207.867401 -138.892532
v -0.000013 -230.969879 -95.670868
v -0.000002 -245.196320 -48.772564
v -9.515059 245.196320 -47.835411
v -18.664478 230.969879 -93.832581
v -27.096621 207.867401 -136.223755
v -34.487438 176.776688 -173.380005
v -40.552956 138.892563 -203.873276
v -45.059994 95.670860 -226.531876
v -47.835476 48.772579 -240.484940
v -48.772659 0.000000 -245.196228
v -47.835476 -48.772579 -240.484940
v -45.059994 -95.670860 -226.531876
v -40.552956 -138.892563 -203.873276
v -34.487438 -176.776688 -173.380005
v -27.096621 -207.867401 -136.223755
v -18.664478 -230.969879 -93.832581
v -9.515059 -245.196320 -47.835411
v -18.664457 245.196320 -45.059975
v -36.611675 230.969879 -88.388359
v -53.151909 207.867401 -128.319946
v -67.649536 176.776688 -163.320389
v -79.547455 138.892563 -192.044418
v -88.388359 95.670860 -213.388351
v -93.832626 48.772579 -226.531845
v -95.670929 0.000000 -230.969772
v -93.832626 -48.772579 -226.531845
v -88.388359 -95.670860 -213.388351
v -79.547455 -138.892563 -192.044418
v -67.649536 -176.776688 -163.320389
v -53.151909 -207.867401 -128.319946
v -36.611675 -230.969879 -88.388359
v -18.664457 -245.196320 -45.059975
v -27.096592 245.196320 -40.552902
v -53.151909 230.969879 -79.547409
v -77.164597 207.867401 -115.484894
v -98.211914 176.776688 -146.984467
v -115.484978 138.892563 -172.835403
v -128.320007 95.670860 -192.044449
v -136.223846 48.772579 -203.873260
v -138.892609 0.000000 -207.867264
v -136.223846 -48.772579 -203.873260
v -128.320007 -95.670860 -192.044449
v -115.484978 -138.892563 -172.835403
v -98.211914 -176.776688 -146.984467
v -77.164597 -207.867401 -115.484894
v -53.151909 -230.969879 -79.547409
v -27.096592 -245.196320 -40.552902
v -34.487419 245.196320 -34.487404
v -67.649536 230.969879 -67.649506
v -98.211884 207.867401 -98.211815
v -125.000053 176.776688 -125.000015
v -146.984482 138.892563 -146.984406
v -163.320404 95.670860 -163.320374
v -173.380051 48.772579 -173.379944
v -176.776718 0.000000 -176.776550
v -173.380051 -48.772579 -173.379944
v -163.320404 -95.670860 -163.320374
v -146.984482 -138.892563 -146.984406
v -125.000053 -176.776688 -125.000015
v -98.211884 -207.867401 -98.211815
v -67.649536 -230.969879 -67.649506
v -34.487419 -245.196320 -34.487404
v 0.000000 -250.000000 0.000000
v -40.552914 245.196320 -27.096579
v -79.547440 230.969879 -53.151875
v -115.484947 207.867401 -77.164513
v -146.984497 176.776688 -98.211876
v -172.835464 138.892563 -115.484901
v -192.044479 95.670860 -128.319992
v -203.873352 48.772579 -136.223724
v -207.867401 0.000000 -138.892410
v -203.873352 -48.772579 -136.223724
v -192.044479 -95.670860 -128.319992
v -172.835464 -138.892563 -115.484901
v -146.984497 -176.776688 -98.211876
v -115.484947 -207.867401 -77.164513
v -79.547440 -230.969879 -53.151875
v -40.552914 -245.196320 -27.096579
v -45.059978 245.196320 -18.664446
v -88.388367 230.969879 -36.611641
v -128.319977 207.867401 -53.151829
v -163.320435 176.776688 -67.649513
v -192.044464 138.892563 -79.547363
v -213.388397 95.670860 -88.388351
v -226.531921 48.772579 -93.832504
v -230.969849 0.000000 -95.670708
v -226.531921 -48.772579 -93.832504
v -213.388397 -95.670860 -88.388351
v -192.044464 -138.892563 -79.547363
v -163.320435 -176.776688 -67.649513
v -128.319977 -207.867401 -53.151829
v -88.388367 -230.969879 -36.611641
v -45.059978 -245.196320 -18.664446
v -47.835415 245.196320 -9.515049
v -93.832588 230.969879 -18.664446
v -136.223755 207.867401 -27.096548
v -173.380051 176.776688 -34.487419
v -203.873306 138.892563 -40.552872
v -226.531906 95.670860 -45.059986
v -240.485001 48.772579 -47.835365
v -245.196259 0.000000 -48.772442
v -240.485001 -48.772579 -47.835365
v -226.531906 -95.670860 -45.059986
v -203.873306 -138.892563 -40.552872
v -173.380051 -176.776688 -34.487419
v -136.223755 -207.867401 -27.096548
v -93.832588 -230.969879 -18.664446
v -47.835415 -245.196320 -9.515049
v -48.772568 245.196320 0.000005
v -95.670868 230.969879 0.000013
v -138.892532 207.867401 0.000037
v -176.776749 176.776688 0.000007
v -207.867416 138.892563 0.000041
v -230.969925 95.670860 0.000004
v -245.196365 48.772579 0.000067
v -249.999908 0.000000 0.000112
v -245.196365 -48.772579 0.000067
v -230.969925 -95.670860 0.000004
v -207.867416 -138.892563 0.000041
v -176.776749 -176.776688 0.000007
v -138.892532 -207.867401 0.000037
v -95.670868 -230.969879 0.000013
v -48.772568 -245.196320 0.000005
v -47.835411 245.196320 9.515058
v -93.832581 230.969879 18.664469
v -136.223740 207.867401 27.096619
v -173.380035 176.776688 34.487434
v -203.873276 138.892563 40.552956
v -226.531891 95.670860 45.059990
v -240.484955 48.772579 47.835491
v -245.196213 0.000000 48.772663
v -240.484955 -48.772579 47.835491
v -226.531891 -95.670860 45.059990
v -203.873276 -138.892563 40.552956
v -173.380035 -176.776688 34.487434
v -136.223740 -207.867401 27.096619
v -93.832581 -230.969879 18.664469
v -47.835411 -245.196320 9.515058
v -45.059975 245.196320 18.664454
v -88.388359 230.969879 36.611660
v -128.319931 207.867401 53.151890
v -163.320419 176.776688 67.649521
v -192.044418 138.892563 79.547432
v -213.388382 95.670860 88.388344
v -226.531845 48.772579 93.832619
v -230.969742 0.000000 95.670906
v -226.531845 -48.772579 93.832619
v -213.388382 -95.670860 88.388344
v -192.044418 -138.892563 79.547432
v -163.320419 -176.776688 67.649521
v -128.319931 -207.867401 53.151890
v -88.388359 -230.969879 36.611660
v -45.059975 -245.196320 18.664454
v -40.552902 245.196320 27.096582
v -79.547409 230.969879 53.151882
v -115.484871 207.867401 77.164566
v -146.984482 176.776688 98.211884
v -172.835403 138.892563 115.484947
v -192.044464 95.670860 128.319977
v -203.873260 48.772579 136.223816
v -207.867249 0.000000 138.892563
v -203.873260 -48.772579 136.223816
v -192.044464 -95.670860 128.319977
v -172.835403 -138.892563 115.484947
v -146.984482 -176.776688 98.211884
v -115.484871 -207.867401 77.164566
v -79.547409 -230.969879 53.151882
v -40.552902 -245.196320 27.096582
v -34.487408 245.196320 34.487404
v -67.649513 230.969879 67.649506
v -98.211792 207.867401 98.211845
v -125.000031 176.776688 125.000015
v -146.984406 138.892563 146.984436
v -163.320389 95.670860 163.320343
v -173.379944 48.772579 173.379990
v -176.776535 0.000000 176.776657
v -173.379944 -48.772579 173.379990
v -163.320389 -95.670860 163.320343
v -146.984406 -138.892563 146.984436
v -125.000031 -176.776688 125.000015
v -98.211792 -207.867401 98.211845
v -67.649513 -230.969879 67.649506
v -34.487408 -245.196320 34.487404
v -27.096579 245.196320 40.552895
v -53.151875 230.969879 79.547401
v -77.164497 207.867401 115.484901
v -98.211884 176.776688 146.984467
v -115.484886 138.892563 172.835403
v -128.319992 95.670860 192.044418
v -136.223724 48.772579 203.873276
v -138.892395 0.000000 207.867310
v -136.223724 -48.772579 203.873276
v -128.319992 -95.670860 192.044418
v -115.484886 -138.892563 172.835403
v -98.211884 -176.776688 146.984467
v -77.164497 -207.867401 115.484901
v -53.151875 -230.969879 79.547401
v -27.096579 -245.196320 40.552895
v -18.664446 245.196320 45.059959
v -36.611641 230.969879 88.388344
v -53.151806 207.867401 128.319916
v -67.649521 176.776688 163.320389
v -79.547348 138.892563 192.044388
v -88.388351 95.670860 213.388321
v -93.832504 48.772579 226.531830
v -95.670700 0.000000 230.969742
v -93.832504 -48.772579 226.531830
v -88.388351 -95.670860 213.388321
v -79.547348 -138.892563 192.044388
v -67.649521 -176.776688 163.320389
v -53.151806 -207.867401 128.319916
v -36.611641 -230.969879 88.388344
v -18.664446 -245.196320 45.059959
v -9.515050 245.196320 47.835392
v -18.664444 230.969879 93.832558
v -27.096527 207.867401 136.223679
v -34.487415 176.776688 173.380005
v -40.552856 138.892563 203.873215
v -45.059978 95.670860 226.531830
v -47.835361 48.772579 240.484894
v -48.772434 0.000000 245.196136
v -47.835361 -48.772579 240.484894
v -45.059978 -95.670860 226.531830
v -40.552856 -138.892563 203.873215
v -34.487415 -176.776688 173.380005
v -27.096527 -207.867401 136.223679
v -18.664444 -230.969879 93.832558
v -9.515050 -245.196320 47.835392
v 0.000004 245.196320 48.772541
v 0.000017 230.969879 95.670837
v 0.000022 176.776688 176.776718
v 0.000015 95.670860 230.969849
v 0.000015 -95.670860 230.969849
v 0.000022 -176.776688 176.776718
v 0.000054 -207.867401 138.892441
v 0.000017 -230.969879 95.670837
v 0.000004 -245.196320 48.772541
vn -0.0000 -0.8286 -0.5598
vn -0.0000 -0.5528 -0.8333
vn -0.0000 -0.1939 -0.9810
vn -0.0000 -0.0000 -1.0000
vn -0.0000 0.1939 -0.9810
vn -0.0000 0.5528 -0.8333
vn -0.0392 -0.9796 -0.1971
vn -0.0757 -0.9217 -0.3804
vn -0.1092 -0.8286 -0.5490
vn -0.1385 -0.7041 -0.6965
vn -0.1626 -0.5528 -0.8173
vn -0.1804 -0.3805 -0.9070
vn -0.1914 -0.1939 -0.9622
vn -0.1951 -0.0000 -0.9808
vn -0.1914 0.1939 -0.9622
vn -0.1804 0.3805 -0.9070
vn -0.1626 0.5528 -0.8173
vn -0.1385 0.7041 -0.6965
vn -0.1092 0.8286 -0.5490
vn -0.0757 0.9217 -0.3804
vn -0.0392 0.9796 -0.1971
vn -0.0769 -0.9796 -0.1857
vn -0.1484 -0.9217 -0.3584
vn -0.2142 -0.8286 -0.5172
vn -0.2718 -0.7041 -0.6561
vn -0.3189 -0.5528 -0.7699
vn -0.3539 -0.3805 -0.8544
vn -0.3754 -0.1939 -0.9063
vn -0.3827 -0.0000 -0.9239
vn -0.3754 0.1939 -0.9063
vn -0.3539 0.3805 -0.8544
vn -0.3189 0.5528 -0.7699
vn -0.2718 0.7041 -0.6561
vn -0.2142 0.8286 -0.5172
vn -0.1484 0.9217 -0.3584
vn -0.0769 0.9796 -0.1857
vn -0.1117 -0.9796 -0.1671
vn -0.2155 -0.9217 -0.3225
vn -0.3110 -0.8286 -0.4654
vn -0.3945 -0.7041 -0.5905
vn -0.4630 -0.5528 -0.6929
vn -0.5138 -0.3805 -0.7689
vn -0.5450 -0.1939 -0.8157
vn -0.5556 -0.0000 -0.8315
vn -0.5450 0.1939 -0.8157
vn -0.5138 0.3805 -0.7689
vn -0.4630 0.5528 -0.6929
vn -0.3945 0.7041 -0.5905
vn -0.3110 0.8286 -0.4654
vn -0.2155 0.9217 -0.3225
vn -0.1117 0.9796 -0.1671
vn -0.1421 -0.9796 -0.1421
vn -0.2743 -0.9217 -0.2743
vn -0.3958 -0.8286 -0.3958
vn -0.5021 -0.7041 -0.5021
vn -0.5893 -0.5528 -0.5893
vn -0.6539 -0.3805 -0.6539
vn -0.6937 -0.1939 -0.6937
vn -0.7071 -0.0000 -0.7071
vn -0.6937 0.1939 -0.6937
vn -0.6539 0.3805 -0.6539
vn -0.5893 0.5528 -0.5893
vn -0.5021 0.7041 -0.5021
vn -0.3958 0.8286 -0.3958
vn -0.2743 0.9217 -0.2743
vn -0.1421 0.9796 -0.1421
vn -0.1671 -0.9796 -0.1117
vn -0.3225 -0.9217 -0.2155
vn -0.4654 -0.8286 -0.3110
vn -0.5905 -0.7041 -0.3945
vn -0.6929 -0.5528 -0.4630
vn -0.7689 -0.3805 -0.5138
vn -0.8157 -0.1939 -0.5450
vn -0.8315 -0.0000 -0.5556
vn -0.8157 0.1939 -0.5450
vn -0.7689 0.3805 -0.5138
vn -0.6929 0.5528 -0.4630
vn -0.5905 0.7041 -0.3945
vn -0.4654 0.8286 -0.3110
vn -0.3225 0.9217 -0.2155
vn -0.1671 0.9796 -0.1117
vn -0.0000 -1.0000 -0.0000
vn -0.1857 -0.9796 -0.0769
vn -0.3584 -0.9217 -0.1484
vn -0.5172 -0.8286 -0.2142
vn -0.6561 -0.7041 -0.2718
vn -0.7699 -0.5528 -0.3189
vn -0.8544 -0.3805 -0.3539
vn -0.9063 -0.1939 -0.3754
vn -0.9239 -0.0000 -0.3827
vn -0.9063 0.1939 -0.3754
vn -0.8544 0.3805 -0.3539
vn -0.7699 0.5528 -0.3189
vn -0.6561 0.7041 -0.2718
vn -0.5172 0.8286 -0.2142
vn -0.3584 0.9217 -0.1484
vn -0.1857 0.9796 -0.0769
vn -0.1971 -0.9796 -0.0392
vn -0.3804 -0.9217 -0.0757
vn -0.5490 -0.8286 -0.1092
vn -0.6965 -0.7041 -0.1385
vn -0.8173 -0.5528 -0.1626
vn -0.9070 -0.3805 -0.1804
vn -0.9622 -0.1939 -0.1914
vn -0.9808 -0.0000 -0.1951
vn -0.9622 0.1939 -0.1914
vn -0.9070 0.3805 -0.1804
vn -0.8173 0.5528 -0.1626
vn -0.6965 0.7041 -0.1385
vn -0.5490 0.8286 -0.1092
vn -0.3804 0.9217 -0.0757
vn -0.1971 0.9796 -0.0392
vn -0.2010 -0.9796 -0.0000
vn -0.3879 -0.9217 -0.0000
vn -0.5598 -0.8286 -0.0000
vn -0.7101 -0.7041 -0.0000
vn -0.8333 -0.5528 -0.0000
vn -0.9248 -0.3805 -0.0000
vn -0.9810 -0.1939 -0.0000
vn -1.0000 -0.0000 -0.0000
vn -0.9810 0.1939 -0.0000
vn -0.9248 0.3805 -0.0000
vn -0.8333 0.5528 -0.0000
vn -0.7101 0.7041 -0.0000
vn -0.5598 0.8286 -0.0000
vn -0.3879 0.9217 -0.0000
vn -0.2010 0.9796 -0.0000
vn -0.1971 -0.9796 0.0392
vn -0.3804 -0.9217 0.0757
vn -0.5490 -0.8286 0.1092
vn -0.6965 -0.7041 0.1385
vn -0.8173 -0.5528 0.1626
vn -0.9070 -0.3805 0.1804
vn -0.9622 -0.1939 0.1914
vn -0.9808 -0.0000 0.1951
vn -0.9622 0.1939 0.1914
vn -0.9070 0.3805 0.1804
vn -0.8173 0.5528 0.1626
vn -0.6965 0.7041 0.1385
vn -0.5490 0.8286 0.1092
vn -0.3804 0.9217 0.0757
vn -0.1971 0.9796 0.0392
vn -0.1857 -0.9796 0.0769
vn -0.3584 -0.9217 0.1484
vn -0.5172 -0.8286 0.2142
vn -0.6561 -0.7041 0.2718
vn -0.7699 -0.5528 0.3189
vn -0.8544 -0.3805 0.3539
vn -0.9063 -0.1939 0.3754
vn -0.9239 -0.0000 0.3827
vn -0.9063 0.1939 0.3754
vn -0.8544 0.3805 0.3539
vn -0.7699 0.5528 0.3189
vn -0.6561 0.7041 0.2718
vn -0.5172 0.8286 0.2142
vn -0.3584 0.9217 0.1484
vn -0.1857 0.9796 0.0769
vn -0.1671 -0.9796 0.1117
vn -0.3225 -0.9217 0.2155
vn -0.4654 -0.8286 0.3110
vn -0.5905 -0.7041 0.3945
vn -0.6929 -0.5528 0.4630
vn -0.7689 -0.3805 0.5138
vn -0.8157 -0.1939 0.5450
vn -0.8315 -0.0000 0.5556
vn -0.8157 0.1939 0.5450
vn -0.7689 0.3805 0.5138
vn -0.6929 0.5528 0.4630
vn -0.5905 0.7041 0.3945
vn -0.4654 0.8286 0.3110
vn -0.3225 0.9217 0.2155
vn -0.1671 0.9796 0.1117
vn -0.1421 -0.9796 0.1421
vn -0.2743 -0.9217 0.2743
vn -0.3958 -0.8286 0.3958
vn -0.5021 -0.7041 0.5021
vn -0.5893 -0.5528 0.5893
vn -0.6539 -0.3805 0.6539
vn -0.6937 -0.1939 0.6937
vn -0.7071 -0.0000 0.7071
vn -0.6937 0.1939 0.6937
vn -0.6539 0.3805 0.6539
vn -0.5893 0.5528 0.5893
vn -0.5021 0.7041 0.5021
vn -0.3958 0.8286 0.3958
vn -0.2743 0.9217 0.2743
vn -0.1421 0.9796 0.1421
vn -0.1117 -0.9796 0.1671
vn -0.2155 -0.9217 0.3225
vn -0.3110 -0.8286 0.4654
vn -0.3945 -0.7041 0.5905
vn -0.4630 -0.5528 0.6929
vn -0.5138 -0.3805 0.7689
vn -0.5450 -0.1939 0.8157
vn -0.5556 -0.0000 0.8315
vn -0.5450 0.1939 0.8157
vn -0.5138 0.3805 0.7689
vn -0.4630 0.5528 0.6929
vn -0.3945 0.7041 0.5905
vn -0.3110 0.8286 0.4654
vn -0.2155 0.9217 0.3225
vn -0.1117 0.9796 0.1671
vn -0.0769 -0.9796 0.1857
vn -0.1484 -0.9217 0.3584
vn -0.2142 -0.8286 0.5172
vn -0.2718 -0.7041 0.6561
vn -0.3189 -0.5528 0.7699
vn -0.3539 -0.3805 0.8544
vn -0.3754 -0.1939 0.9063
vn -0.3827 -0.0000 0.9239
vn -0.3754 0.1939 0.9063
vn -0.3539 0.3805 0.8544
vn -0.3189 0.5528 0.7699
vn -0.2718 0.7041 0.6561
vn -0.2142 0.8286 0.5172
vn -0.1484 0.9217 0.3584
vn -0.0769 0.9796 0.1857
vn -0.0392 -0.9796 0.1971
vn -0.0757 -0.9217 0.3804
vn -0.1092 -0.8286 0.5490
vn -0.1385 -0.7041 0.6965
vn -0.1626 -0.5528 0.8173
vn -0.1804 -0.3805 0.9070
vn -0.1914 -0.1939 0.9622
vn -0.1951 -0.0000 0.9808
vn -0.1914 0.1939 0.9622
vn -0.1804 0.3805 0.9070
vn -0.1626 0.5528 0.8173
vn -0.1385 0.7041 0.6965
vn -0.1092 0.8286 0.5490
vn -0.0757 0.9217 0.3804
vn -0.0392 0.9796 0.1971
vn -0.0000 -0.9796 0.2010
vn -0.0000 -0.9217 0.3879
vn -0.0000 -0.8286 0.5598
vn -0.0000 -0.7041 0.7101
vn -0.0000 -0.5528 0.8333
vn -0.0000 -0.3805 0.9248
vn -0.0000 -0.1939 0.9810
vn -0.0000 -0.0000 1.0000
vn -0.0000 0.1939 0.9810
vn -0.0000 0.3805 0.9248
vn -0.0000 0.5528 0.8333
vn -0.0000 0.7041 0.7101
vn -0.0000 0.8286 0.5598
vn -0.0000 0.9217 0.3879
vn -0.0000 0.9796 0.2010
vn 0.0392 -0.9796 0.1971
vn 0.0757 -0.9217 0.3804
vn 0.1092 -0.8286 0.5490
vn 0.1385 -0.7041 0.6965
vn 0.1626 -0.5528 0.8173
vn 0.1804 -0.3805 0.9070
vn 0.1914 -0.1939 0.9622
vn 0.1951 -0.0000 0.9808
vn 0.1914 0.1939 0.9622
vn 0.1804 0.3805 0.9070
vn 0.1626 0.5528 0.8173
vn 0.1385 0.7041 0.6965
vn 0.1092 0.8286 0.5490
vn 0.0757 0.9217 0.3804
vn 0.0392 0.9796 0.1971
vn 0.0769 -0.9796 0.1857
vn 0.1484 -0.9217 0.3584
vn 0.2142 -0.8286 0.5172
vn 0.2718 -0.7041 0.6561
vn 0.3189 -0.5528 0.7699
vn 0.3539 -0.3805 0.8544
vn 0.3754 -0.1939 0.9063
vn 0.3827 -0.0000 0.9239
vn 0.3754 0.1939 0.9063
vn 0.3539 0.3805 0.8544
vn 0.3189 0.5528 0.7699
vn 0.2718 0.7041 0.6561
vn 0.2142 0.8286 0.5172
vn 0.1484 0.9217 0.3584
vn 0.0769 0.9796 0.1857
vn 0.1117 -0.9796 0.1671
vn 0.2155 -0.9217 0.3225
vn 0.3110 -0.8286 0.4654
vn 0.3945 -0.7041 0.5905
vn 0.4630 -0.5528 0.6929
vn 0.5138 -0.3805 0.7689
vn 0.5450 -0.1939 0.8157
vn 0.5556 -0.0000 0.8315
vn 0.5450 0.1939 0.8157
vn 0.5138 0.3805 0.7689
vn 0.4630 0.5528 0.6929
vn 0.3945 0.7041 0.5905
vn 0.3110 0.8286 0.4654
vn 0.2155 0.9217 0.3225
vn 0.1117 0.9796 0.1671
vn 0.1421 -0.9796 0.1421
vn 0.2743 -0.9217 0.2743
vn 0.3958 -0.8286 0.3958
vn 0.5021 -0.7041 0.5021
vn 0.5893 -0.5528 0.5893
vn 0.6539 -0.3805 0.6539
vn 0.6937 -0.1939 0.6937
vn 0.7071 -0.0000 0.7071
vn 0.6937 0.1939 0.6937
vn 0.6539 0.3805 0.6539
vn 0.5893 0.5528 0.5893
vn 0.5021 0.7041 0.5021
vn 0.3958 0.8286 0.3958
vn 0.2743 0.9217 0.2743
vn 0.1421 0.9796 0.1421
vn -0.0000 1.0000 -0.0000
vn 0.1671 -0.9796 0.1117
vn 0.3225 -0.9217 0.2155
vn 0.4654 -0.8286 0.3110
vn 0.5905 -0.7041 0.3945
vn 0.6929 -0.5528 0.4630
vn 0.7689 -0.3805 0.5138
vn 0.8157 -0.1939 0.5450
vn 0.8315 -0.0000 0.5556
vn 0.8157 0.1939 0.5450
vn 0.7689 0.3805 0.5138
vn 0.6929 0.5528 0.4630
vn 0.5905 0.7041 0.3945
vn 0.4654 0.8286 0.3110
vn 0.3225 0.9217 0.2155
vn 0.1671 0.9796 0.1117
vn 0.1857 -0.9796 0.0769
vn 0.3584 -0.9217 0.1484
vn 0.5172 -0.8286 0.2142
vn 0.6561 -0.7041 0.2718
vn 0.7699 -0.5528 0.3189
vn 0.8544 -0.3805 0.3539
vn 0.9063 -0.1939 0.3754
vn 0.9239 -0.0000 0.3827
vn 0.9063 0.1939 0.3754
vn 0.8544 0.3805 0.3539
vn 0.7699 0.5528 0.3189
vn 0.6561 0.7041 0.2718
vn 0.5172 0.8286 0.2142
vn 0.3584 0.9217 0.1484
vn 0.1857 0.9796 0.0769
vn 0.1971 -0.9796 0.0392
vn 0.3804 -0.9217 0.0757
vn 0.5490 -0.8286 0.1092
vn 0.6965 -0.7041 0.1385
vn 0.8173 -0.5528 0.1626
vn 0.9070 -0.3805 0.1804
vn 0.9622 -0.1939 0.1914
vn 0.9808 -0.0000 0.1951
vn 0.9622 0.1939 0.1914
vn 0.9070 0.3805 0.1804
vn 0.8173 0.5528 0.1626
vn 0.6965 0.7041 0.1385
vn 0.5490 0.8286 0.1092
vn 0.3804 0.9217 0.0757
vn 0.1971 0.9796 0.0392
vn 0.2010 -0.9796 -0.0000
vn 0.3879 -0.9217 -0.0000
vn 0.5598 -0.8286 -0.0000
vn 0.7101 -0.7041 -0.0000
vn 0.8333 -0.5528 -0.0000
vn 0.9248 -0.3805 -0.0000
vn 0.9810 -0.1939 -0.0000
vn 1.0000 -0.0000 -0.0000
vn 0.9810 0.1939 -0.0000
vn 0.9248 0.3805 -0.0000
vn 0.8333 0.5528 -0.0000
vn 0.7101 0.7041 -0.0000
vn 0.5598 0.8286 -0.0000
vn 0.3879 0.9217 -0.0000
vn 0.2010 0.9796 -0.0000
vn 0.1971 -0.9796 -0.0392
vn 0.3804 -0.9217 -0.0757
vn 0.5490 -0.8286 -0.1092
vn 0.6965 -0.7041 -0.1385
vn 0.8173 -0.5528 -0.1626
vn 0.9070 -0.3805 -0.1804
vn 0.9622 -0.1939 -0.1914
vn 0.9808 -0.0000 -0.1951
vn 0.9622 0.1939 -0.1914
vn 0.9070 0.3805 -0.1804
vn 0.8173 0.5528 -0.1626
vn 0.6965 0.7041 -0.1385
vn 0.5490 0.8286 -0.1092
vn 0.3804 0.9217 -0.0757
vn 0.1971 0.9796 -0.0392
vn 0.1857 -0.9796 -0.0769
vn 0.3584 -0.9217 -0.1484
vn 0.5172 -0.8286 -0.2142
vn 0.6561 -0.7041 -0.2718
vn 0.7699 -0.5528 -0.3189
vn 0.8544 -0.3805 -0.3539
vn 0.9063 -0.1939 -0.3754
vn 0.9239 -0.0000 -0.3827
vn 0.9063 0.1939 -0.3754
vn 0.8544 0.3805 -0.3539
vn 0.7699 0.5528 -0.3189
vn 0.6561 0.7041 -0.2718
vn 0.5172 0.8286 -0.2142
vn 0.3584 0.9217 -0.1484
vn 0.1857 0.9796 -0.0769
vn 0.1671 -0.9796 -0.1117
vn 0.3225 -0.9217 -0.2155
vn 0.4654 -0.8286 -0.3110
vn 0.5905 -0.7041 -0.3945
vn 0.6929 -0.5528 -0.4630
vn 0.7689 -0.3805 -0.5138
vn 0.8157 -0.1939 -0.5450
vn 0.8315 -0.0000 -0.5556
vn 0.8157 0.1939 -0.5450
vn 0.7689 0.3805 -0.5138
vn 0.6929 0.5528 -0.4630
vn 0.5905 0.7041 -0.3945
vn 0.4654 0.8286 -0.3110
vn 0.3225 0.9217 -0.2155
vn 0.1671 0.9796 -0.1117
vn 0.1421 -0.9796 -0.1421
vn 0.2743 -0.9217 -0.2743
vn 0.3958 -0.8286 -0.3958
vn 0.5021 -0.7041 -0.5021
vn 0.5893 -0.5528 -0.5893
vn 0.6539 -0.3805 -0.6539
vn 0.6937 -0.1939 -0.6937
vn 0.7071 -0.0000 -0.7071
vn 0.6937 0.1939 -0.6937
vn 0.6539 0.3805 -0.6539
vn 0.5893 0.5528 -0.5893
vn 0.5021 0.7041 -0.5021
vn 0.3958 0.8286 -0.3958
vn 0.2743 0.9217 -0.2743
vn 0.1421 0.9796 -0.1421
vn 0.1117 -0.9796 -0.1671
vn 0.2155 -0.9217 -0.3225
vn 0.3110 -0.8286 -0.4654
vn 0.3945 -0.7041 -0.5905
vn 0.4630 -0.5528 -0.6929
vn 0.5138 -0.3805 -0.7689
vn 0.5450 -0.1939 -0.8157
vn 0.5556 -0.0000 -0.8315
vn 0.5450 0.1939 -0.8157
vn 0.5138 0.3805 -0.7689
vn 0.4630 0.5528 -0.6929
vn 0.3945 0.7041 -0.5905
vn 0.3110 0.8286 -0.4654
vn 0.2155 0.9217 -0.3225
vn 0.1117 0.9796 -0.1671
vn 0.0769 -0.9796 -0.1857
vn 0.1484 -0.9217 -0.3584
vn 0.2142 -0.8286 -0.5172
vn 0.2718 -0.7041 -0.6561
vn 0.3189 -0.5528 -0.7699
vn 0.3539 -0.3805 -0.8544
vn 0.3754 -0.1939 -0.9063
vn 0.3827 -0.0000 -0.9239
vn 0.3754 0.1939 -0.9063
vn 0.3539 0.3805 -0.8544
vn 0.3189 0.5528 -0.7699
vn 0.2718 0.7041 -0.6561
vn 0.2142 0.8286 -0.5172
vn 0.1484 0.9217 -0.3584
vn 0.0769 0.9796 -0.1857
vn 0.0392 -0.9796 -0.1971
vn 0.0757 -0.9217 -0.3804
vn 0.1092 -0.8286 -0.5490
vn 0.1385 -0.7041 -0.6965
vn 0.1626 -0.5528 -0.8173
vn 0.1804 -0.3805 -0.9070
vn 0.1914 -0.1939 -0.9622
vn 0.1951 -0.0000 -0.9808
vn 0.1914 0.1939 -0.9622
vn 0.1804 0.3805 -0.9070
vn 0.1626 0.5528 -0.8173
vn 0.1385 0.7041 -0.6965
vn 0.1092 0.8286 -0.5490
vn 0.0757 0.9217 -0.3804
vn 0.0392 0.9796 -0.1971
vn -0.0000 -0.9796 -0.2010
vn -0.0000 -0.9217 -0.3879
vn -0.0000 -0.7041 -0.7101
vn -0.0000 -0.3805 -0.9248
vn -0.0000 0.3805 -0.9248
vn -0.0000 0.7041 -0.7101
vn -0.0000 0.8286 -0.5598
vn -0.0000 0.9217 -0.3879
vn -0.0000 0.9796 -0.2010
vt 0.750000 0.625000
vt 0.718750 0.687500
vt 0.750000 0.687500
vt 0.718750 0.125000
vt 0.750000 0.187500
vt 0.750000 0.125000
vt 0.718750 0.562500
vt 0.750000 0.562500
vt 0.718750 0.062500
vt 0.750000 0.062500
vt 0.718750 0.500000
vt 0.750000 0.500000
vt 0.750000 0.937500
vt 0.718750 0.937500
vt 0.734375 1.000000
vt 0.734375 0.000000
vt 0.718750 0.437500
vt 0.750000 0.437500
vt 0.750000 0.875000
vt 0.718750 0.375000
vt 0.750000 0.375000
vt 0.750000 0.812500
vt 0.718750 0.875000
vt 0.718750 0.312500
vt 0.750000 0.312500
vt 0.750000 0.750000
vt 0.718750 0.812500
vt 0.750000 0.250000
vt 0.718750 0.187500
vt 0.687500 0.687500
vt 0.718750 0.750000
vt 0.687500 0.250000
vt 0.718750 0.250000
vt 0.687500 0.625000
vt 0.718750 0.625000
vt 0.687500 0.125000
vt 0.687500 0.562500
vt 0.687500 0.062500
vt 0.687500 0.500000
vt 0.687500 0.937500
vt 0.703125 1.000000
vt 0.703125 0.000000
vt 0.687500 0.437500
vt 0.687500 0.875000
vt 0.687500 0.375000
vt 0.687500 0.812500
vt 0.687500 0.750000
vt 0.656250 0.437500
vt 0.656250 0.875000
vt 0.656250 0.375000
vt 0.656250 0.812500
vt 0.656250 0.312500
vt 0.687500 0.312500
vt 0.656250 0.250000
vt 0.656250 0.687500
vt 0.687500 0.187500
vt 0.656250 0.125000
vt 0.656250 0.625000
vt 0.656250 0.062500
vt 0.656250 0.500000
vt 0.656250 0.937500
vt 0.671875 1.000000
vt 0.671875 0.000000
vt 0.625000 0.187500
vt 0.656250 0.187500
vt 0.625000 0.625000
vt 0.625000 0.125000
vt 0.656250 0.562500
vt 0.625000 0.500000
vt 0.625000 0.937500
vt 0.640625 1.000000
vt 0.640625 0.000000
vt 0.625000 0.062500
vt 0.625000 0.437500
vt 0.625000 0.875000
vt 0.625000 0.375000
vt 0.656250 0.750000
vt 0.625000 0.812500
vt 0.625000 0.312500
vt 0.625000 0.687500
vt 0.593750 0.937500
vt 0.593750 0.375000
vt 0.593750 0.812500
vt 0.593750 0.750000
vt 0.625000 0.750000
vt 0.593750 0.250000
vt 0.625000 0.250000
vt 0.593750 0.687500
vt 0.593750 0.625000
vt 0.593750 0.125000
vt 0.625000 0.562500
vt 0.593750 0.062500
vt 0.593750 0.562500
vt 0.609375 1.000000
vt 0.609375 0.000000
vt 0.593750 0.437500
vt 0.562500 0.625000
vt 0.562500 0.187500
vt 0.593750 0.187500
vt 0.562500 0.125000
vt 0.593750 0.500000
vt 0.562500 0.562500
vt 0.562500 0.937500
vt 0.578125 1.000000
vt 0.578125 0.000000
vt 0.562500 0.062500
vt 0.562500 0.437500
vt 0.562500 0.875000
vt 0.593750 0.875000
vt 0.562500 0.375000
vt 0.562500 0.812500
vt 0.593750 0.312500
vt 0.562500 0.750000
vt 0.562500 0.250000
vt 0.531250 0.375000
vt 0.531250 0.875000
vt 0.562500 0.312500
vt 0.531250 0.750000
vt 0.531250 0.250000
vt 0.562500 0.687500
vt 0.531250 0.625000
vt 0.531250 0.125000
vt 0.531250 0.062500
vt 0.562500 0.500000
vt 0.531250 0.562500
vt 0.531250 0.937500
vt 0.546875 1.000000
vt 0.546875 0.000000
vt 0.531250 0.437500
vt 0.500000 0.187500
vt 0.531250 0.187500
vt 0.500000 0.625000
vt 0.500000 0.062500
vt 0.531250 0.500000
vt 0.500000 0.562500
vt 0.500000 0.937500
vt 0.515625 1.000000
vt 0.515625 0.000000
vt 0.500000 0.437500
vt 0.500000 0.875000
vt 0.500000 0.375000
vt 0.500000 0.812500
vt 0.531250 0.812500
vt 0.531250 0.312500
vt 0.500000 0.750000
vt 0.500000 0.250000
vt 0.531250 0.687500
vt 0.500000 0.312500
vt 0.468750 0.375000
vt 0.468750 0.750000
vt 0.468750 0.250000
vt 0.500000 0.687500
vt 0.468750 0.187500
vt 0.468750 0.625000
vt 0.468750 0.125000
vt 0.500000 0.125000
vt 0.468750 0.062500
vt 0.500000 0.500000
vt 0.468750 0.562500
vt 0.468750 0.937500
vt 0.484375 1.000000
vt 0.484375 0.000000
vt 0.468750 0.437500
vt 0.468750 0.875000
vt 0.437500 0.062500
vt 0.468750 0.500000
vt 0.437500 0.562500
vt 0.437500 0.937500
vt 0.453125 1.000000
vt 0.453125 0.000000
vt 0.437500 0.437500
vt 0.437500 0.875000
vt 0.437500 0.375000
vt 0.468750 0.812500
vt 0.468750 0.312500
vt 0.437500 0.750000
vt 0.437500 0.250000
vt 0.468750 0.687500
vt 0.437500 0.625000
vt 0.437500 0.187500
vt 0.406250 0.750000
vt 0.437500 0.812500
vt 0.406250 0.250000
vt 0.437500 0.312500
vt 0.437500 0.687500
vt 0.406250 0.625000
vt 0.406250 0.125000
vt 0.437500 0.125000
vt 0.437500 0.500000
vt 0.406250 0.562500
vt 0.406250 0.937500
vt 0.421875 1.000000
vt 0.421875 0.000000
vt 0.406250 0.062500
vt 0.406250 0.437500
vt 0.406250 0.875000
vt 0.406250 0.375000
vt 0.406250 0.812500
vt 0.406250 0.500000
vt 0.375000 0.562500
vt 0.375000 0.937500
vt 0.390625 1.000000
vt 0.390625 0.000000
vt 0.375000 0.062500
vt 0.375000 0.437500
vt 0.375000 0.875000
vt 0.375000 0.375000
vt 0.375000 0.812500
vt 0.406250 0.312500
vt 0.375000 0.750000
vt 0.375000 0.250000
vt 0.375000 0.687500
vt 0.406250 0.687500
vt 0.406250 0.187500
vt 0.375000 0.625000
vt 0.375000 0.187500
vt 0.375000 0.125000
vt 0.343750 0.250000
vt 0.375000 0.312500
vt 0.343750 0.750000
vt 0.343750 0.625000
vt 0.343750 0.125000
vt 0.343750 0.062500
vt 0.375000 0.500000
vt 0.343750 0.562500
vt 0.343750 0.937500
vt 0.359375 1.000000
vt 0.359375 0.000000
vt 0.343750 0.437500
vt 0.343750 0.875000
vt 0.343750 0.375000
vt 0.343750 0.812500
vt 0.312500 0.937500
vt 0.328125 1.000000
vt 0.328125 0.000000
vt 0.312500 0.062500
vt 0.312500 0.437500
vt 0.343750 0.500000
vt 0.312500 0.875000
vt 0.312500 0.375000
vt 0.312500 0.812500
vt 0.343750 0.312500
vt 0.312500 0.750000
vt 0.312500 0.250000
vt 0.312500 0.687500
vt 0.343750 0.687500
vt 0.343750 0.187500
vt 0.312500 0.625000
vt 0.312500 0.187500
vt 0.312500 0.125000
vt 0.312500 0.562500
vt 0.281250 0.750000
vt 0.281250 0.250000
vt 0.281250 0.625000
vt 0.281250 0.125000
vt 0.312500 0.500000
vt 0.281250 0.562500
vt 0.281250 0.937500
vt 0.296875 1.000000
vt 0.296875 0.000000
vt 0.281250 0.062500
vt 0.281250 0.437500
vt 0.281250 0.875000
vt 0.281250 0.375000
vt 0.281250 0.812500
vt 0.312500 0.312500
vt 0.250000 0.437500
vt 0.281250 0.500000
vt 0.250000 0.875000
vt 0.250000 0.375000
vt 0.250000 0.812500
vt 0.281250 0.312500
vt 0.250000 0.750000
vt 0.250000 0.250000
vt 0.281250 0.687500
vt 0.281250 0.187500
vt 0.250000 0.625000
vt 0.250000 0.125000
vt 0.250000 0.062500
vt 0.250000 0.562500
vt 0.250000 0.937500
vt 0.265625 1.000000
vt 0.265625 0.000000
vt 0.250000 0.187500
vt 0.218750 0.250000
vt 0.218750 0.625000
vt 0.250000 0.687500
vt 0.218750 0.125000
vt 0.218750 0.062500
vt 0.250000 0.500000
vt 0.218750 0.562500
vt 0.218750 0.937500
vt 0.234375 1.000000
vt 0.234375 0.000000
vt 0.218750 0.437500
vt 0.218750 0.375000
vt 0.218750 0.875000
vt 0.250000 0.312500
vt 0.218750 0.750000
vt 0.187500 0.375000
vt 0.218750 0.812500
vt 0.187500 0.875000
vt 0.218750 0.312500
vt 0.187500 0.750000
vt 0.187500 0.250000
vt 0.218750 0.687500
vt 0.218750 0.187500
vt 0.187500 0.625000
vt 0.187500 0.125000
vt 0.187500 0.062500
vt 0.218750 0.500000
vt 0.187500 0.562500
vt 0.187500 0.937500
vt 0.203125 1.000000
vt 0.203125 0.000000
vt 0.187500 0.437500
vt 0.156250 0.125000
vt 0.187500 0.187500
vt 0.156250 0.625000
vt 0.156250 0.062500
vt 0.187500 0.500000
vt 0.156250 0.562500
vt 0.156250 0.937500
vt 0.171875 1.000000
vt 0.171875 0.000000
vt 0.156250 0.437500
vt 0.156250 0.875000
vt 0.156250 0.375000
vt 0.187500 0.812500
vt 0.187500 0.312500
vt 0.156250 0.750000
vt 0.156250 0.250000
vt 0.187500 0.687500
vt 0.156250 0.187500
vt 0.156250 0.812500
vt 0.125000 0.875000
vt 0.156250 0.312500
vt 0.125000 0.375000
vt 0.125000 0.750000
vt 0.125000 0.250000
vt 0.156250 0.687500
vt 0.125000 0.625000
vt 0.125000 0.125000
vt 0.125000 0.062500
vt 0.156250 0.500000
vt 0.125000 0.562500
vt 0.125000 0.937500
vt 0.140625 1.000000
vt 0.140625 0.000000
vt 0.125000 0.437500
vt 0.093750 0.625000
vt 0.093750 0.062500
vt 0.125000 0.500000
vt 0.093750 0.562500
vt 0.093750 0.937500
vt 0.109375 1.000000
vt 0.109375 0.000000
vt 0.093750 0.437500
vt 0.093750 0.875000
vt 0.093750 0.375000
vt 0.125000 0.812500
vt 0.125000 0.312500
vt 0.093750 0.750000
vt 0.093750 0.250000
vt 0.125000 0.687500
vt 0.125000 0.187500
vt 0.093750 0.125000
vt 0.093750 0.312500
vt 0.062500 0.375000
vt 0.062500 0.750000
vt 0.093750 0.812500
vt 0.062500 0.250000
vt 0.093750 0.687500
vt 0.093750 0.187500
vt 0.062500 0.625000
vt 0.062500 0.125000
vt 0.093750 0.500000
vt 0.062500 0.562500
vt 0.062500 0.937500
vt 0.078125 1.000000
vt 0.078125 0.000000
vt 0.062500 0.062500
vt 0.062500 0.437500
vt 0.062500 0.875000
vt 0.031250 0.062500
vt 0.062500 0.500000
vt 0.031250 0.562500
vt 0.031250 0.937500
vt 0.046875 1.000000
vt 0.046875 0.000000
vt 0.031250 0.437500
vt 0.031250 0.875000
vt 0.031250 0.375000
vt 0.062500 0.812500
vt 0.062500 0.312500
vt 0.031250 0.750000
vt 0.031250 0.250000
vt 0.062500 0.687500
vt 0.062500 0.187500
vt 0.031250 0.625000
vt 0.031250 0.125000
vt 0.000000 0.750000
vt 0.031250 0.812500
vt 0.000000 0.250000
vt 0.031250 0.312500
vt 0.031250 0.687500
vt 0.031250 0.187500
vt 0.000000 0.625000
vt 0.000000 0.125000
vt 0.000000 0.062500
vt 0.031250 0.500000
vt 0.000000 0.562500
vt 0.000000 0.937500
vt 0.015625 1.000000
vt 0.015625 0.000000
vt 0.000000 0.437500
vt 0.000000 0.875000
vt 0.000000 0.375000
vt 0.000000 0.812500
vt 1.000000 0.500000
vt 0.968750 0.562500
vt 1.000000 0.562500
vt 1.000000 0.937500
vt 0.968750 0.937500
vt 0.984375 1.000000
vt 0.984375 0.000000
vt 0.968750 0.062500
vt 1.000000 0.062500
vt 0.968750 0.437500
vt 1.000000 0.437500
vt 0.968750 0.875000
vt 1.000000 0.875000
vt 0.968750 0.375000
vt 1.000000 0.375000
vt 1.000000 0.812500
vt 1.000000 0.312500
vt 0.968750 0.750000
vt 1.000000 0.750000
vt 0.968750 0.250000
vt 1.000000 0.250000
vt 1.000000 0.687500
vt 1.000000 0.187500
vt 0.968750 0.625000
vt 1.000000 0.625000
vt 0.968750 0.125000
vt 1.000000 0.125000
vt 0.937500 0.250000
vt 0.968750 0.312500
vt 0.968750 0.687500
vt 0.937500 0.750000
vt 0.968750 0.187500
vt 0.937500 0.625000
vt 0.937500 0.125000
vt 0.937500 0.062500
vt 0.968750 0.500000
vt 0.937500 0.562500
vt 0.937500 0.937500
vt 0.953125 1.000000
vt 0.953125 0.000000
vt 0.937500 0.437500
vt 0.937500 0.375000
vt 0.937500 0.812500
vt 0.968750 0.812500
vt 0.921875 0.000000
vt 0.906250 0.062500
vt 0.906250 0.437500
vt 0.937500 0.500000
vt 0.906250 0.875000
vt 0.937500 0.875000
vt 0.906250 0.375000
vt 0.906250 0.812500
vt 0.937500 0.312500
vt 0.906250 0.750000
vt 0.906250 0.250000
vt 0.937500 0.687500
vt 0.937500 0.187500
vt 0.906250 0.625000
vt 0.906250 0.187500
vt 0.906250 0.562500
vt 0.906250 0.937500
vt 0.921875 1.000000
vt 0.875000 0.250000
vt 0.875000 0.625000
vt 0.906250 0.687500
vt 0.875000 0.125000
vt 0.906250 0.125000
vt 0.875000 0.062500
vt 0.906250 0.500000
vt 0.875000 0.562500
vt 0.875000 0.937500
vt 0.890625 1.000000
vt 0.890625 0.000000
vt 0.875000 0.437500
vt 0.875000 0.875000
vt 0.875000 0.375000
vt 0.906250 0.312500
vt 0.875000 0.750000
vt 0.843750 0.875000
vt 0.843750 0.375000
vt 0.875000 0.812500
vt 0.875000 0.312500
vt 0.843750 0.750000
vt 0.843750 0.250000
vt 0.875000 0.687500
vt 0.875000 0.187500
vt 0.843750 0.625000
vt 0.843750 0.125000
vt 0.875000 0.500000
vt 0.843750 0.562500
vt 0.843750 0.937500
vt 0.859375 1.000000
vt 0.859375 0.000000
vt 0.843750 0.062500
vt 0.843750 0.437500
vt 0.812500 0.625000
vt 0.843750 0.687500
vt 0.812500 0.125000
vt 0.843750 0.187500
vt 0.812500 0.062500
vt 0.843750 0.500000
vt 0.812500 0.562500
vt 0.812500 0.937500
vt 0.828125 1.000000
vt 0.828125 0.000000
vt 0.812500 0.437500
vt 0.812500 0.875000
vt 0.812500 0.375000
vt 0.843750 0.812500
vt 0.843750 0.312500
vt 0.812500 0.750000
vt 0.812500 0.250000
vt 0.781250 0.375000
vt 0.781250 0.812500
vt 0.812500 0.812500
vt 0.812500 0.312500
vt 0.781250 0.750000
vt 0.781250 0.250000
vt 0.812500 0.687500
vt 0.812500 0.187500
vt 0.781250 0.625000
vt 0.781250 0.125000
vt 0.781250 0.062500
vt 0.812500 0.500000
vt 0.781250 0.562500
vt 0.781250 0.937500
vt 0.796875 1.000000
vt 0.796875 0.000000
vt 0.781250 0.437500
vt 0.781250 0.875000
vt 0.781250 0.187500
vt 0.781250 0.500000
vt 0.765625 1.000000
vt 0.765625 0.000000
vt 0.781250 0.312500
vt 0.781250 0.687500
vt 0.000000 0.312500
vt 0.000000 0.687500
vt 0.000000 0.187500
vt 0.000000 0.500000
s 1
usemtl マテリアル
f 477/1/477 2/3/2 11/2/11
f 20/4/20 481/6/481 480/5/480
f 13/7/13 3/8/3 477/1/477
f 21/9/21 482/10/482 481/6/481
f 14/11/14 4/12/4 3/8/3
f 474/13/474 82/15/82 7/14/7
f 308/16/308 482/10/482 21/9/21
f 15/17/15 5/18/5 4/12/4
f 475/19/475 474/13/474 7/14/7
f 16/20/16 478/21/478 5/18/5
f 1/22/1 475/19/475 8/23/8
f 17/24/17 6/25/6 478/21/478
f 476/26/476 1/22/1 9/27/9
f 479/28/479 6/25/6 17/24/17
f 11/2/11 2/3/2 476/26/476
f 19/29/19 480/5/480 479/28/479
f 26/30/26 11/2/11 10/31/10
f 19/29/19 18/33/18 33/32/33
f 27/34/27 12/35/12 11/2/11
f 35/36/35 20/4/20 19/29/19
f 28/37/28 13/7/13 12/35/12
f 36/38/36 21/9/21 20/4/20
f 29/39/29 14/11/14 13/7/13
f 7/14/7 82/41/82 22/40/22
f 308/42/308 21/9/21 36/38/36
f 30/43/30 15/17/15 14/11/14
f 23/44/23 8/23/8 7/14/7
f 31/45/31 16/20/16 15/17/15
f 24/46/24 9/27/9 8/23/8
f 17/24/17 16/20/16 31/45/31
f 25/47/25 10/31/10 9/27/9
f 33/32/33 18/33/18 17/24/17
f 45/48/45 30/43/30 29/39/29
f 38/49/38 23/44/23 22/40/22
f 46/50/46 31/45/31 30/43/30
f 39/51/39 24/46/24 23/44/23
f 47/52/47 32/53/32 31/45/31
f 25/47/25 24/46/24 39/51/39
f 48/54/48 33/32/33 32/53/32
f 41/55/41 26/30/26 25/47/25
f 34/56/34 33/32/33 48/54/48
f 27/34/27 26/30/26 41/55/41
f 50/57/50 35/36/35 34/56/34
f 28/37/28 27/34/27 42/58/42
f 51/59/51 36/38/36 35/36/35
f 44/60/44 29/39/29 28/37/28
f 22/40/22 82/62/82 37/61/37
f 308/63/308 36/38/36 51/59/51
f 64/64/64 49/65/49 48/54/48
f 57/66/57 42/58/42 41/55/41
f 65/67/65 50/57/50 49/65/49
f 43/68/43 42/58/42 57/66/57
f 51/59/51 50/57/50 65/67/65
f 59/69/59 44/60/44 43/68/43
f 37/61/37 82/71/82 52/70/52
f 308/72/308 51/59/51 66/73/66
f 60/74/60 45/48/45 44/60/44
f 53/75/53 38/49/38 37/61/37
f 61/76/61 46/50/46 45/48/45
f 39/51/39 38/49/38 53/75/53
f 47/52/47 46/50/46 61/76/61
f 40/77/40 39/51/39 54/78/54
f 48/54/48 47/52/47 62/79/62
f 56/80/56 41/55/41 40/77/40
f 53/75/53 52/70/52 67/81/67
f 76/82/76 61/76/61 60/74/60
f 69/83/69 54/78/54 53/75/53
f 62/79/62 61/76/61 76/82/76
f 70/84/70 55/85/55 54/78/54
f 78/86/78 63/87/63 62/79/62
f 71/88/71 56/80/56 55/85/55
f 64/64/64 63/87/63 78/86/78
f 72/89/72 57/66/57 56/80/56
f 80/90/80 65/67/65 64/64/64
f 58/91/58 57/66/57 72/89/72
f 81/92/81 66/73/66 65/67/65
f 59/69/59 58/91/58 73/93/73
f 52/70/52 82/94/82 67/81/67
f 308/95/308 66/73/66 81/92/81
f 75/96/75 60/74/60 59/69/59
f 88/97/88 72/89/72 71/88/71
f 80/90/80 79/99/79 95/98/95
f 73/93/73 72/89/72 88/97/88
f 81/92/81 80/90/80 96/100/96
f 74/101/74 73/93/73 89/102/89
f 67/81/67 82/104/82 83/103/83
f 308/105/308 81/92/81 97/106/97
f 91/107/91 75/96/75 74/101/74
f 84/108/84 68/109/68 67/81/67
f 92/110/92 76/82/76 75/96/75
f 85/111/85 69/83/69 68/109/68
f 77/112/77 76/82/76 92/110/92
f 86/113/86 70/84/70 69/83/69
f 94/114/94 78/86/78 77/112/77
f 71/88/71 70/84/70 86/113/86
f 79/99/79 78/86/78 94/114/94
f 107/115/107 92/110/92 91/107/91
f 85/111/85 84/108/84 99/116/99
f 93/117/93 92/110/92 107/115/107
f 101/118/101 86/113/86 85/111/85
f 109/119/109 94/114/94 93/117/93
f 87/120/87 86/113/86 101/118/101
f 95/98/95 94/114/94 109/119/109
f 103/121/103 88/97/88 87/120/87
f 111/122/111 96/100/96 95/98/95
f 89/102/89 88/97/88 103/121/103
f 112/123/112 97/106/97 96/100/96
f 90/124/90 89/102/89 104/125/104
f 83/103/83 82/127/82 98/126/98
f 308/128/308 97/106/97 112/123/112
f 106/129/106 91/107/91 90/124/90
f 99/116/99 84/108/84 83/103/83
f 111/122/111 110/131/110 125/130/125
f 104/125/104 103/121/103 118/132/118
f 127/133/127 112/123/112 111/122/111
f 105/134/105 104/125/104 119/135/119
f 98/126/98 82/137/82 113/136/113
f 308/138/308 112/123/112 127/133/127
f 121/139/121 106/129/106 105/134/105
f 114/140/114 99/116/99 98/126/98
f 122/141/122 107/115/107 106/129/106
f 115/142/115 100/143/100 99/116/99
f 108/144/108 107/115/107 122/141/122
f 116/145/116 101/118/101 100/143/100
f 124/146/124 109/119/109 108/144/108
f 102/147/102 101/118/101 116/145/116
f 110/131/110 109/119/109 124/146/124
f 118/132/118 103/121/103 102/147/102
f 123/148/123 122/141/122 137/149/137
f 131/150/131 116/145/116 115/142/115
f 139/151/139 124/146/124 123/148/123
f 117/152/117 116/145/116 131/150/131
f 140/153/140 125/130/125 124/146/124
f 133/154/133 118/132/118 117/152/117
f 141/155/141 126/156/126 125/130/125
f 119/135/119 118/132/118 133/154/133
f 142/157/142 127/133/127 126/156/126
f 120/158/120 119/135/119 134/159/134
f 113/136/113 82/161/82 128/160/128
f 308/162/308 127/133/127 142/157/142
f 136/163/136 121/139/121 120/158/120
f 114/140/114 113/136/113 128/160/128
f 137/149/137 122/141/122 121/139/121
f 115/142/115 114/140/114 129/164/129
f 157/165/157 142/157/142 141/155/141
f 135/166/135 134/159/134 149/167/149
f 128/160/128 82/169/82 143/168/143
f 308/170/308 142/157/142 157/165/157
f 151/171/151 136/163/136 135/166/135
f 144/172/144 129/164/129 128/160/128
f 152/173/152 137/149/137 136/163/136
f 130/174/130 129/164/129 144/172/144
f 138/175/138 137/149/137 152/173/152
f 146/176/146 131/150/131 130/174/130
f 154/177/154 139/151/139 138/175/138
f 132/178/132 131/150/131 146/176/146
f 140/153/140 139/151/139 154/177/154
f 148/179/148 133/154/133 132/178/132
f 141/155/141 140/153/140 155/180/155
f 134/159/134 133/154/133 148/179/148
f 161/181/161 146/176/146 145/182/145
f 169/183/169 154/177/154 153/184/153
f 147/185/147 146/176/146 161/181/161
f 155/180/155 154/177/154 169/183/169
f 163/186/163 148/179/148 147/185/147
f 171/187/171 156/188/156 155/180/155
f 149/167/149 148/179/148 163/186/163
f 157/165/157 156/188/156 171/187/171
f 150/189/150 149/167/149 164/190/164
f 143/168/143 82/192/82 158/191/158
f 308/193/308 157/165/157 172/194/172
f 166/195/166 151/171/151 150/189/150
f 159/196/159 144/172/144 143/168/143
f 167/197/167 152/173/152 151/171/151
f 160/198/160 145/182/145 144/172/144
f 153/184/153 152/173/152 167/197/167
f 165/199/165 164/190/164 179/200/179
f 158/191/158 82/202/82 173/201/173
f 308/203/308 172/194/172 187/204/187
f 181/205/181 166/195/166 165/199/165
f 174/206/174 159/196/159 158/191/158
f 182/207/182 167/197/167 166/195/166
f 175/208/175 160/198/160 159/196/159
f 168/209/168 167/197/167 182/207/182
f 176/210/176 161/181/161 160/198/160
f 184/211/184 169/183/169 168/209/168
f 177/212/177 162/213/162 161/181/161
f 170/214/170 169/183/169 184/211/184
f 178/215/178 163/186/163 162/213/162
f 171/187/171 170/214/170 185/216/185
f 164/190/164 163/186/163 178/215/178
f 172/194/172 171/187/171 186/217/186
f 199/218/199 184/211/184 183/219/183
f 177/212/177 176/210/176 191/220/191
f 185/216/185 184/211/184 199/218/199
f 193/221/193 178/215/178 177/212/177
f 201/222/201 186/217/186 185/216/185
f 179/200/179 178/215/178 193/221/193
f 202/223/202 187/204/187 186/217/186
f 180/224/180 179/200/179 194/225/194
f 173/201/173 82/227/82 188/226/188
f 308/228/308 187/204/187 202/223/202
f 196/229/196 181/205/181 180/224/180
f 189/230/189 174/206/174 173/201/173
f 197/231/197 182/207/182 181/205/181
f 190/232/190 175/208/175 174/206/174
f 183/219/183 182/207/182 197/231/197
f 191/220/191 176/210/176 175/208/175
f 188/226/188 82/234/82 203/233/203
f 308/235/308 202/223/202 217/236/217
f 211/237/211 196/229/196 195/238/195
f 204/239/204 189/230/189 188/226/188
f 212/240/212 197/231/197 196/229/196
f 205/241/205 190/232/190 189/230/189
f 198/242/198 197/231/197 212/240/212
f 206/243/206 191/220/191 190/232/190
f 214/244/214 199/218/199 198/242/198
f 207/245/207 192/246/192 191/220/191
f 200/247/200 199/218/199 214/244/214
f 208/248/208 193/221/193 192/246/192
f 201/222/201 200/247/200 215/249/215
f 194/225/194 193/221/193 208/248/208
f 202/223/202 201/222/201 216/250/216
f 195/238/195 194/225/194 209/251/209
f 207/245/207 206/243/206 221/252/221
f 215/249/215 214/244/214 229/253/229
f 223/254/223 208/248/208 207/245/207
f 231/255/231 216/250/216 215/249/215
f 209/251/209 208/248/208 223/254/223
f 217/236/217 216/250/216 231/255/231
f 210/256/210 209/251/209 224/257/224
f 203/233/203 82/259/82 218/258/218
f 308/260/308 217/236/217 232/261/232
f 226/262/226 211/237/211 210/256/210
f 219/263/219 204/239/204 203/233/203
f 227/264/227 212/240/212 211/237/211
f 220/265/220 205/241/205 204/239/204
f 213/266/213 212/240/212 227/264/227
f 221/252/221 206/243/206 205/241/205
f 229/253/229 214/244/214 213/266/213
f 241/267/241 226/262/226 225/268/225
f 234/269/234 219/263/219 218/258/218
f 242/270/242 227/264/227 226/262/226
f 235/271/235 220/265/220 219/263/219
f 228/272/228 227/264/227 242/270/242
f 236/273/236 221/252/221 220/265/220
f 244/274/244 229/253/229 228/272/228
f 222/275/222 221/252/221 236/273/236
f 230/276/230 229/253/229 244/274/244
f 238/277/238 223/254/223 222/275/222
f 246/278/246 231/255/231 230/276/230
f 224/257/224 223/254/223 238/277/238
f 247/279/247 232/261/232 231/255/231
f 225/268/225 224/257/224 239/280/239
f 218/258/218 82/282/82 233/281/233
f 308/283/308 232/261/232 247/279/247
f 245/284/245 244/274/244 259/285/259
f 253/286/253 238/277/238 237/287/237
f 261/288/261 246/278/246 245/284/245
f 239/280/239 238/277/238 253/286/253
f 262/289/262 247/279/247 246/278/246
f 240/290/240 239/280/239 254/291/254
f 233/281/233 82/293/82 248/292/248
f 308/294/308 247/279/247 262/289/262
f 256/295/256 241/267/241 240/290/240
f 234/269/234 233/281/233 248/292/248
f 257/296/257 242/270/242 241/267/241
f 235/271/235 234/269/234 249/297/249
f 243/298/243 242/270/242 257/296/257
f 251/299/251 236/273/236 235/271/235
f 259/285/259 244/274/244 243/298/243
f 237/287/237 236/273/236 251/299/251
f 272/300/272 257/296/257 256/295/256
f 250/301/250 249/297/249 264/302/264
f 258/303/258 257/296/257 272/300/272
f 266/304/266 251/299/251 250/301/250
f 274/305/274 259/285/259 258/303/258
f 252/306/252 251/299/251 266/304/266
f 260/307/260 259/285/259 274/305/274
f 268/308/268 253/286/253 252/306/252
f 276/309/276 261/288/261 260/307/260
f 254/291/254 253/286/253 268/308/268
f 277/310/277 262/289/262 261/288/261
f 255/311/255 254/291/254 269/312/269
f 248/292/248 82/314/82 263/313/263
f 308/315/308 262/289/262 277/310/277
f 271/316/271 256/295/256 255/311/255
f 264/302/264 249/297/249 248/292/248
f 291/317/291 276/309/276 275/318/275
f 269/312/269 268/308/268 283/319/283
f 292/320/292 277/310/277 276/309/276
f 270/321/270 269/312/269 284/322/284
f 263/313/263 82/324/82 278/323/278
f 308/325/308 277/310/277 292/320/292
f 286/326/286 271/316/271 270/321/270
f 279/327/279 264/302/264 263/313/263
f 287/328/287 272/300/272 271/316/271
f 265/329/265 264/302/264 279/327/279
f 273/330/273 272/300/272 287/328/287
f 281/331/281 266/304/266 265/329/265
f 289/332/289 274/305/274 273/330/273
f 267/333/267 266/304/266 281/331/281
f 290/334/290 275/318/275 274/305/274
f 283/319/283 268/308/268 267/333/267
f 280/335/280 279/327/279 294/336/294
f 288/337/288 287/328/287 302/338/302
f 296/339/296 281/331/281 280/335/280
f 304/340/304 289/332/289 288/337/288
f 282/341/282 281/331/281 296/339/296
f 290/334/290 289/332/289 304/340/304
f 298/342/298 283/319/283 282/341/282
f 306/343/306 291/317/291 290/334/290
f 284/322/284 283/319/283 298/342/298
f 307/344/307 292/320/292 291/317/291
f 285/345/285 284/322/284 299/346/299
f 278/323/278 82/348/82 293/347/293
f 308/349/308 292/320/292 307/344/307
f 301/350/301 286/326/286 285/345/285
f 294/336/294 279/327/279 278/323/278
f 302/338/302 287/328/287 286/326/286
f 299/346/299 298/342/298 314/351/314
f 323/352/323 307/344/307 306/343/306
f 300/353/300 299/346/299 315/354/315
f 293/347/293 82/356/82 309/355/309
f 308/357/308 307/344/307 323/352/323
f 317/358/317 301/350/301 300/353/300
f 310/359/310 294/336/294 293/347/293
f 318/360/318 302/338/302 301/350/301
f 295/361/295 294/336/294 310/359/310
f 303/362/303 302/338/302 318/360/318
f 312/363/312 296/339/296 295/361/295
f 320/364/320 304/340/304 303/362/303
f 297/365/297 296/339/296 312/363/312
f 305/366/305 304/340/304 320/364/320
f 314/351/314 298/342/298 297/365/297
f 322/367/322 306/343/306 305/366/305
f 319/368/319 318/360/318 333/369/333
f 327/370/327 312/363/312 311/371/311
f 335/372/335 320/364/320 319/368/319
f 313/373/313 312/363/312 327/370/327
f 321/374/321 320/364/320 335/372/335
f 329/375/329 314/351/314 313/373/313
f 337/376/337 322/367/322 321/374/321
f 315/354/315 314/351/314 329/375/329
f 323/352/323 322/367/322 337/376/337
f 316/377/316 315/354/315 330/378/330
f 309/355/309 82/380/82 324/379/324
f 308/381/308 323/352/323 338/382/338
f 332/383/332 317/358/317 316/377/316
f 325/384/325 310/359/310 309/355/309
f 333/369/333 318/360/318 317/358/317
f 311/371/311 310/359/310 325/384/325
f 353/385/353 338/382/338 337/376/337
f 331/386/331 330/378/330 345/387/345
f 324/379/324 82/389/82 339/388/339
f 308/390/308 338/382/338 353/385/353
f 347/391/347 332/383/332 331/386/331
f 340/392/340 325/384/325 324/379/324
f 348/393/348 333/369/333 332/383/332
f 326/394/326 325/384/325 340/392/340
f 334/395/334 333/369/333 348/393/348
f 342/396/342 327/370/327 326/394/326
f 350/397/350 335/372/335 334/395/334
f 328/398/328 327/370/327 342/396/342
f 336/399/336 335/372/335 350/397/350
f 344/400/344 329/375/329 328/398/328
f 352/401/352 337/376/337 336/399/336
f 330/378/330 329/375/329 344/400/344
f 357/402/357 342/396/342 341/403/341
f 365/404/365 350/397/350 349/405/349
f 343/406/343 342/396/342 357/402/357
f 351/407/351 350/397/350 365/404/365
f 359/408/359 344/400/344 343/406/343
f 367/409/367 352/401/352 351/407/351
f 345/387/345 344/400/344 359/408/359
f 368/410/368 353/385/353 352/401/352
f 346/411/346 345/387/345 360/412/360
f 339/388/339 82/414/82 354/413/354
f 308/415/308 353/385/353 368/410/368
f 362/416/362 347/391/347 346/411/346
f 355/417/355 340/392/340 339/388/339
f 363/418/363 348/393/348 347/391/347
f 356/419/356 341/403/341 340/392/340
f 349/405/349 348/393/348 363/418/363
f 361/420/361 360/422/360 375/421/375
f 354/423/354 82/425/82 369/424/369
f 308/426/308 368/428/368 383/427/383
f 377/429/377 362/430/362 361/420/361
f 370/431/370 355/432/355 354/423/354
f 378/433/378 363/434/363 362/430/362
f 356/435/356 355/432/355 370/431/370
f 364/436/364 363/434/363 378/433/378
f 372/437/372 357/438/357 356/435/356
f 380/439/380 365/440/365 364/436/364
f 358/441/358 357/438/357 372/437/372
f 366/442/366 365/440/365 380/439/380
f 374/443/374 359/444/359 358/441/358
f 382/445/382 367/446/367 366/442/366
f 360/422/360 359/444/359 374/443/374
f 368/428/368 367/446/367 382/445/382
f 395/447/395 380/439/380 379/448/379
f 373/449/373 372/437/372 387/450/387
f 381/451/381 380/439/380 395/447/395
f 389/452/389 374/443/374 373/449/373
f 397/453/397 382/445/382 381/451/381
f 375/421/375 374/443/374 389/452/389
f 398/454/398 383/427/383 382/445/382
f 376/455/376 375/421/375 390/456/390
f 369/424/369 82/458/82 384/457/384
f 308/459/308 383/427/383 398/454/398
f 392/460/392 377/429/377 376/455/376
f 370/431/370 369/424/369 384/457/384
f 393/461/393 378/433/378 377/429/377
f 386/462/386 371/463/371 370/431/370
f 379/448/379 378/433/378 393/461/393
f 387/450/387 372/437/372 371/463/371
f 308/464/308 398/454/398 413/465/413
f 407/466/407 392/460/392 391/467/391
f 400/468/400 385/469/385 384/457/384
f 408/470/408 393/461/393 392/460/392
f 401/471/401 386/462/386 385/469/385
f 394/472/394 393/461/393 408/470/408
f 402/473/402 387/450/387 386/462/386
f 410/474/410 395/447/395 394/472/394
f 388/475/388 387/450/387 402/473/402
f 396/476/396 395/447/395 410/474/410
f 404/477/404 389/452/389 388/475/388
f 397/453/397 396/476/396 411/478/411
f 390/456/390 389/452/389 404/477/404
f 413/465/413 398/454/398 397/453/397
f 391/467/391 390/456/390 405/479/405
f 384/457/384 82/481/82 399/480/399
f 411/478/411 410/474/410 425/482/425
f 419/483/419 404/477/404 403/484/403
f 427/485/427 412/486/412 411/478/411
f 405/479/405 404/477/404 419/483/419
f 428/487/428 413/465/413 412/486/412
f 406/488/406 405/479/405 420/489/420
f 399/480/399 82/491/82 414/490/414
f 308/492/308 413/465/413 428/487/428
f 422/493/422 407/466/407 406/488/406
f 415/494/415 400/468/400 399/480/399
f 423/495/423 408/470/408 407/466/407
f 401/471/401 400/468/400 415/494/415
f 409/496/409 408/470/408 423/495/423
f 417/497/417 402/473/402 401/471/401
f 425/482/425 410/474/410 409/496/409
f 403/484/403 402/473/402 417/497/417
f 430/498/430 415/494/415 414/490/414
f 438/499/438 423/495/423 422/493/422
f 416/500/416 415/494/415 430/498/430
f 424/501/424 423/495/423 438/499/438
f 432/502/432 417/497/417 416/500/416
f 440/503/440 425/482/425 424/501/424
f 418/504/418 417/497/417 432/502/432
f 426/505/426 425/482/425 440/503/440
f 434/506/434 419/483/419 418/504/418
f 442/507/442 427/485/427 426/505/426
f 420/489/420 419/483/419 434/506/434
f 428/487/428 427/485/427 442/507/442
f 421/508/421 420/489/420 435/509/435
f 414/490/414 82/511/82 429/510/429
f 308/512/308 428/487/428 443/513/443
f 437/514/437 422/493/422 421/508/421
f 449/515/449 434/506/434 433/516/433
f 457/517/457 442/507/442 441/518/441
f 435/509/435 434/506/434 449/515/449
f 458/519/458 443/513/443 442/507/442
f 436/520/436 435/509/435 450/521/450
f 429/510/429 82/523/82 444/522/444
f 308/524/308 443/513/443 458/519/458
f 452/525/452 437/514/437 436/520/436
f 445/526/445 430/498/430 429/510/429
f 453/527/453 438/499/438 437/514/437
f 431/528/431 430/498/430 445/526/445
f 439/529/439 438/499/438 453/527/453
f 447/530/447 432/502/432 431/528/431
f 455/531/455 440/503/440 439/529/439
f 433/516/433 432/502/432 447/530/447
f 441/518/441 440/503/440 455/531/455
f 468/532/468 453/527/453 452/525/452
f 461/533/461 446/534/446 445/526/445
f 454/535/454 453/527/453 468/532/468
f 462/536/462 447/530/447 446/534/446
f 470/537/470 455/531/455 454/535/454
f 448/538/448 447/530/447 462/536/462
f 456/539/456 455/531/455 470/537/470
f 464/540/464 449/515/449 448/538/448
f 472/541/472 457/517/457 456/539/456
f 450/521/450 449/515/449 464/540/464
f 473/542/473 458/519/458 457/517/457
f 451/543/451 450/521/450 465/544/465
f 444/522/444 82/546/82 459/545/459
f 308/547/308 458/519/458 473/542/473
f 467/548/467 452/525/452 451/543/451
f 460/549/460 445/526/445 444/522/444
f 481/6/481 472/541/472 471/550/471
f 465/544/465 464/540/464 477/1/477
f 482/10/482 473/542/473 472/541/472
f 466/551/466 465/544/465 3/8/3
f 459/545/459 82/552/82 474/13/474
f 308/553/308 473/542/473 482/10/482
f 5/18/5 467/548/467 466/551/466
f 475/19/475 460/549/460 459/545/459
f 478/21/478 468/532/468 467/548/467
f 461/533/461 460/549/460 475/19/475
f 6/25/6 469/554/469 468/532/468
f 462/536/462 461/533/461 1/22/1
f 479/28/479 470/537/470 469/554/469
f 463/555/463 462/536/462 476/26/476
f 471/550/471 470/537/470 479/28/479
f 464/540/464 463/555/463 2/3/2
f 477/1/477 11/2/11 12/35/12
f 20/4/20 480/5/480 19/29/19
f 13/7/13 477/1/477 12/35/12
f 21/9/21 481/6/481 20/4/20
f 14/11/14 3/8/3 13/7/13
f 15/17/15 4/12/4 14/11/14
f 475/19/475 7/14/7 8/23/8
f 16/20/16 5/18/5 15/17/15
f 1/22/1 8/23/8 9/27/9
f 17/24/17 478/21/478 16/20/16
f 476/26/476 9/27/9 10/31/10
f 479/28/479 17/24/17 18/33/18
f 11/2/11 476/26/476 10/31/10
f 19/29/19 479/28/479 18/33/18
f 26/30/26 10/31/10 25/47/25
f 19/29/19 33/32/33 34/56/34
f 27/34/27 11/2/11 26/30/26
f 35/36/35 19/29/19 34/56/34
f 28/37/28 12/35/12 27/34/27
f 36/38/36 20/4/20 35/36/35
f 29/39/29 13/7/13 28/37/28
f 30/43/30 14/11/14 29/39/29
f 23/44/23 7/14/7 22/40/22
f 31/45/31 15/17/15 30/43/30
f 24/46/24 8/23/8 23/44/23
f 17/24/17 31/45/31 32/53/32
f 25/47/25 9/27/9 24/46/24
f 33/32/33 17/24/17 32/53/32
f 45/48/45 29/39/29 44/60/44
f 38/49/38 22/40/22 37/61/37
f 46/50/46 30/43/30 45/48/45
f 39/51/39 23/44/23 38/49/38
f 47/52/47 31/45/31 46/50/46
f 25/47/25 39/51/39 40/77/40
f 48/54/48 32/53/32 47/52/47
f 41/55/41 25/47/25 40/77/40
f 34/56/34 48/54/48 49/65/49
f 27/34/27 41/55/41 42/58/42
f 50/57/50 34/56/34 49/65/49
f 28/37/28 42/58/42 43/68/43
f 51/59/51 35/36/35 50/57/50
f 44/60/44 28/37/28 43/68/43
f 64/64/64 48/54/48 63/87/63
f 57/66/57 41/55/41 56/80/56
f 65/67/65 49/65/49 64/64/64
f 43/68/43 57/66/57 58/91/58
f 51/59/51 65/67/65 66/73/66
f 59/69/59 43/68/43 58/91/58
f 60/74/60 44/60/44 59/69/59
f 53/75/53 37/61/37 52/70/52
f 61/76/61 45/48/45 60/74/60
f 39/51/39 53/75/53 54/78/54
f 47/52/47 61/76/61 62/79/62
f 40/77/40 54/78/54 55/85/55
f 48/54/48 62/79/62 63/87/63
f 56/80/56 40/77/40 55/85/55
f 53/75/53 67/81/67 68/109/68
f 76/82/76 60/74/60 75/96/75
f 69/83/69 53/75/53 68/109/68
f 62/79/62 76/82/76 77/112/77
f 70/84/70 54/78/54 69/83/69
f 78/86/78 62/79/62 77/112/77
f 71/88/71 55/85/55 70/84/70
f 64/64/64 78/86/78 79/99/79
f 72/89/72 56/80/56 71/88/71
f 80/90/80 64/64/64 79/99/79
f 58/91/58 72/89/72 73/93/73
f 81/92/81 65/67/65 80/90/80
f 59/69/59 73/93/73 74/101/74
f 75/96/75 59/69/59 74/101/74
f 88/97/88 71/88/71 87/120/87
f 80/90/80 95/98/95 96/100/96
f 73/93/73 88/97/88 89/102/89
f 81/92/81 96/100/96 97/106/97
f 74/101/74 89/102/89 90/124/90
f 91/107/91 74/101/74 90/124/90
f 84/108/84 67/81/67 83/103/83
f 92/110/92 75/96/75 91/107/91
f 85/111/85 68/109/68 84/108/84
f 77/112/77 92/110/92 93/117/93
f 86/113/86 69/83/69 85/111/85
f 94/114/94 77/112/77 93/117/93
f 71/88/71 86/113/86 87/120/87
f 79/99/79 94/114/94 95/98/95
f 107/115/107 91/107/91 106/129/106
f 85/111/85 99/116/99 100/143/100
f 93/117/93 107/115/107 108/144/108
f 101/118/101 85/111/85 100/143/100
f 109/119/109 93/117/93 108/144/108
f 87/120/87 101/118/101 102/147/102
f 95/98/95 109/119/109 110/131/110
f 103/121/103 87/120/87 102/147/102
f 111/122/111 95/98/95 110/131/110
f 89/102/89 103/121/103 104/125/104
f 112/123/112 96/100/96 111/122/111
f 90/124/90 104/125/104 105/134/105
f 106/129/106 90/124/90 105/134/105
f 99/116/99 83/103/83 98/126/98
f 111/122/111 125/130/125 126/156/126
f 104/125/104 118/132/118 119/135/119
f 127/133/127 111/122/111 126/156/126
f 105/134/105 119/135/119 120/158/120
f 121/139/121 105/134/105 120/158/120
f 114/140/114 98/126/98 113/136/113
f 122/141/122 106/129/106 121/139/121
f 115/142/115 99/116/99 114/140/114
f 108/144/108 122/141/122 123/148/123
f 116/145/116 100/143/100 115/142/115
f 124/146/124 108/144/108 123/148/123
f 102/147/102 116/145/116 117/152/117
f 110/131/110 124/146/124 125/130/125
f 118/132/118 102/147/102 117/152/117
f 123/148/123 137/149/137 138/175/138
f 131/150/131 115/142/115 130/174/130
f 139/151/139 123/148/123 138/175/138
f 117/152/117 131/150/131 132/178/132
f 140/153/140 124/146/124 139/151/139
f 133/154/133 117/152/117 132/178/132
f 141/155/141 125/130/125 140/153/140
f 119/135/119 133/154/133 134/159/134
f 142/157/142 126/156/126 141/155/141
f 120/158/120 134/159/134 135/166/135
f 136/163/136 120/158/120 135/166/135
f 114/140/114 128/160/128 129/164/129
f 137/149/137 121/139/121 136/163/136
f 115/142/115 129/164/129 130/174/130
f 157/165/157 141/155/141 156/188/156
f 135/166/135 149/167/149 150/189/150
f 151/171/151 135/166/135 150/189/150
f 144/172/144 128/160/128 143/168/143
f 152/173/152 136/163/136 151/171/151
f 130/174/130 144/172/144 145/182/145
f 138/175/138 152/173/152 153/184/153
f 146/176/146 130/174/130 145/182/145
f 154/177/154 138/175/138 153/184/153
f 132/178/132 146/176/146 147/185/147
f 140/153/140 154/177/154 155/180/155
f 148/179/148 132/178/132 147/185/147
f 141/155/141 155/180/155 156/188/156
f 134/159/134 148/179/148 149/167/149
f 161/181/161 145/182/145 160/198/160
f 169/183/169 153/184/153 168/209/168
f 147/185/147 161/181/161 162/213/162
f 155/180/155 169/183/169 170/214/170
f 163/186/163 147/185/147 162/213/162
f 171/187/171 155/180/155 170/214/170
f 149/167/149 163/186/163 164/190/164
f 157/165/157 171/187/171 172/194/172
f 150/189/150 164/190/164 165/199/165
f 166/195/166 150/189/150 165/199/165
f 159/196/159 143/168/143 158/191/158
f 167/197/167 151/171/151 166/195/166
f 160/198/160 144/172/144 159/196/159
f 153/184/153 167/197/167 168/209/168
f 165/199/165 179/200/179 180/224/180
f 181/205/181 165/199/165 180/224/180
f 174/206/174 158/191/158 173/201/173
f 182/207/182 166/195/166 181/205/181
f 175/208/175 159/196/159 174/206/174
f 168/209/168 182/207/182 183/219/183
f 176/210/176 160/198/160 175/208/175
f 184/211/184 168/209/168 183/219/183
f 177/212/177 161/181/161 176/210/176
f 170/214/170 184/211/184 185/216/185
f 178/215/178 162/213/162 177/212/177
f 171/187/171 185/216/185 186/217/186
f 164/190/164 178/215/178 179/200/179
f 172/194/172 186/217/186 187/204/187
f 199/218/199 183/219/183 198/242/198
f 177/212/177 191/220/191 192/246/192
f 185/216/185 199/218/199 200/247/200
f 193/221/193 177/212/177 192/246/192
f 201/222/201 185/216/185 200/247/200
f 179/200/179 193/221/193 194/225/194
f 202/223/202 186/217/186 201/222/201
f 180/224/180 194/225/194 195/238/195
f 196/229/196 180/224/180 195/238/195
f 189/230/189 173/201/173 188/226/188
f 197/231/197 181/205/181 196/229/196
f 190/232/190 174/206/174 189/230/189
f 183/219/183 197/231/197 198/242/198
f 191/220/191 175/208/175 190/232/190
f 211/237/211 195/238/195 210/256/210
f 204/239/204 188/226/188 203/233/203
f 212/240/212 196/229/196 211/237/211
f 205/241/205 189/230/189 204/239/204
f 198/242/198 212/240/212 213/266/213
f 206/243/206 190/232/190 205/241/205
f 214/244/214 198/242/198 213/266/213
f 207/245/207 191/220/191 206/243/206
f 200/247/200 214/244/214 215/249/215
f 208/248/208 192/246/192 207/245/207
f 201/222/201 215/249/215 216/250/216
f 194/225/194 208/248/208 209/251/209
f 202/223/202 216/250/216 217/236/217
f 195/238/195 209/251/209 210/256/210
f 207/245/207 221/252/221 222/275/222
f 215/249/215 229/253/229 230/276/230
f 223/254/223 207/245/207 222/275/222
f 231/255/231 215/249/215 230/276/230
f 209/251/209 223/254/223 224/257/224
f 217/236/217 231/255/231 232/261/232
f 210/256/210 224/257/224 225/268/225
f 226/262/226 210/256/210 225/268/225
f 219/263/219 203/233/203 218/258/218
f 227/264/227 211/237/211 226/262/226
f 220/265/220 204/239/204 219/263/219
f 213/266/213 227/264/227 228/272/228
f 221/252/221 205/241/205 220/265/220
f 229/253/229 213/266/213 228/272/228
f 241/267/241 225/268/225 240/290/240
f 234/269/234 218/258/218 233/281/233
f 242/270/242 226/262/226 241/267/241
f 235/271/235 219/263/219 234/269/234
f 228/272/228 242/270/242 243/298/243
f 236/273/236 220/265/220 235/271/235
f 244/274/244 228/272/228 243/298/243
f 222/275/222 236/273/236 237/287/237
f 230/276/230 244/274/244 245/284/245
f 238/277/238 222/275/222 237/287/237
f 246/278/246 230/276/230 245/284/245
f 224/257/224 238/277/238 239/280/239
f 247/279/247 231/255/231 246/278/246
f 225/268/225 239/280/239 240/290/240
f 245/284/245 259/285/259 260/307/260
f 253/286/253 237/287/237 252/306/252
f 261/288/261 245/284/245 260/307/260
f 239/280/239 253/286/253 254/291/254
f 262/289/262 246/278/246 261/288/261
f 240/290/240 254/291/254 255/311/255
f 256/295/256 240/290/240 255/311/255
f 234/269/234 248/292/248 249/297/249
f 257/296/257 241/267/241 256/295/256
f 235/271/235 249/297/249 250/301/250
f 243/298/243 257/296/257 258/303/258
f 251/299/251 235/271/235 250/301/250
f 259/285/259 243/298/243 258/303/258
f 237/287/237 251/299/251 252/306/252
f 272/300/272 256/295/256 271/316/271
f 250/301/250 264/302/264 265/329/265
f 258/303/258 272/300/272 273/330/273
f 266/304/266 250/301/250 265/329/265
f 274/305/274 258/303/258 273/330/273
f 252/306/252 266/304/266 267/333/267
f 260/307/260 274/305/274 275/318/275
f 268/308/268 252/306/252 267/333/267
f 276/309/276 260/307/260 275/318/275
f 254/291/254 268/308/268 269/312/269
f 277/310/277 261/288/261 276/309/276
f 255/311/255 269/312/269 270/321/270
f 271/316/271 255/311/255 270/321/270
f 264/302/264 248/292/248 263/313/263
f 291/317/291 275/318/275 290/334/290
f 269/312/269 283/319/283 284/322/284
f 292/320/292 276/309/276 291/317/291
f 270/321/270 284/322/284 285/345/285
f 286/326/286 270/321/270 285/345/285
f 279/327/279 263/313/263 278/323/278
f 287/328/287 271/316/271 286/326/286
f 265/329/265 279/327/279 280/335/280
f 273/330/273 287/328/287 288/337/288
f 281/331/281 265/329/265 280/335/280
f 289/332/289 273/330/273 288/337/288
f 267/333/267 281/331/281 282/341/282
f 290/334/290 274/305/274 289/332/289
f 283/319/283 267/333/267 282/341/282
f 280/335/280 294/336/294 295/361/295
f 288/337/288 302/338/302 303/362/303
f 296/339/296 280/335/280 295/361/295
f 304/340/304 288/337/288 303/362/303
f 282/341/282 296/339/296 297/365/297
f 290/334/290 304/340/304 305/366/305
f 298/342/298 282/341/282 297/365/297
f 306/343/306 290/334/290 305/366/305
f 284/322/284 298/342/298 299/346/299
f 307/344/307 291/317/291 306/343/306
f 285/345/285 299/346/299 300/353/300
f 301/350/301 285/345/285 300/353/300
f 294/336/294 278/323/278 293/347/293
f 302/338/302 286/326/286 301/350/301
f 299/346/299 314/351/314 315/354/315
f 323/352/323 306/343/306 322/367/322
f 300/353/300 315/354/315 316/377/316
f 317/358/317 300/353/300 316/377/316
f 310/359/310 293/347/293 309/355/309
f 318/360/318 301/350/301 317/358/317
f 295/361/295 310/359/310 311/371/311
f 303/362/303 318/360/318 319/368/319
f 312/363/312 295/361/295 311/371/311
f 320/364/320 303/362/303 319/368/319
f 297/365/297 312/363/312 313/373/313
f 305/366/305 320/364/320 321/374/321
f 314/351/314 297/365/297 313/373/313
f 322/367/322 305/366/305 321/374/321
f 319/368/319 333/369/333 334/395/334
f 327/370/327 311/371/311 326/394/326
f 335/372/335 319/368/319 334/395/334
f 313/373/313 327/370/327 328/398/328
f 321/374/321 335/372/335 336/399/336
f 329/375/329 313/373/313 328/398/328
f 337/376/337 321/374/321 336/399/336
f 315/354/315 329/375/329 330/378/330
f 323/352/323 337/376/337 338/382/338
f 316/377/316 330/378/330 331/386/331
f 332/383/332 316/377/316 331/386/331
f 325/384/325 309/355/309 324/379/324
f 333/369/333 317/358/317 332/383/332
f 311/371/311 325/384/325 326/394/326
f 353/385/353 337/376/337 352/401/352
f 331/386/331 345/387/345 346/411/346
f 347/391/347 331/386/331 346/411/346
f 340/392/340 324/379/324 339/388/339
f 348/393/348 332/383/332 347/391/347
f 326/394/326 340/392/340 341/403/341
f 334/395/334 348/393/348 349/405/349
f 342/396/342 326/394/326 341/403/341
f 350/397/350 334/395/334 349/405/349
f 328/398/328 342/396/342 343/406/343
f 336/399/336 350/397/350 351/407/351
f 344/400/344 328/398/328 343/406/343
f 352/401/352 336/399/336 351/407/351
f 330/378/330 344/400/344 345/387/345
f 357/402/357 341/403/341 356/419/356
f 365/404/365 349/405/349 364/556/364
f 343/406/343 357/402/357 358/557/358
f 351/407/351 365/404/365 366/558/366
f 359/408/359 343/406/343 358/557/358
f 367/409/367 351/407/351 366/558/366
f 345/387/345 359/408/359 360/412/360
f 368/410/368 352/401/352 367/409/367
f 346/411/346 360/412/360 361/559/361
f 362/416/362 346/411/346 361/559/361
f 355/417/355 339/388/339 354/413/354
f 363/418/363 347/391/347 362/416/362
f 356/419/356 340/392/340 355/417/355
f 349/405/349 363/418/363 364/556/364
f 361/420/361 375/421/375 376/455/376
f 377/429/377 361/420/361 376/455/376
f 370/431/370 354/423/354 369/424/369
f 378/433/378 362/430/362 377/429/377
f 356/435/356 370/431/370 371/463/371
f 364/436/364 378/433/378 379/448/379
f 372/437/372 356/435/356 371/463/371
f 380/439/380 364/436/364 379/448/379
f 358/441/358 372/437/372 373/449/373
f 366/442/366 380/439/380 381/451/381
f 374/443/374 358/441/358 373/449/373
f 382/445/382 366/442/366 381/451/381
f 360/422/360 374/443/374 375/421/375
f 368/428/368 382/445/382 383/427/383
f 395/447/395 379/448/379 394/472/394
f 373/449/373 387/450/387 388/475/388
f 381/451/381 395/447/395 396/476/396
f 389/452/389 373/449/373 388/475/388
f 397/453/397 381/451/381 396/476/396
f 375/421/375 389/452/389 390/456/390
f 398/454/398 382/445/382 397/453/397
f 376/455/376 390/456/390 391/467/391
f 392/460/392 376/455/376 391/467/391
f 370/431/370 384/457/384 385/469/385
f 393/461/393 377/429/377 392/460/392
f 386/462/386 370/431/370 385/469/385
f 379/448/379 393/461/393 394/472/394
f 387/450/387 371/463/371 386/462/386
f 407/466/407 391/467/391 406/488/406
f 400/468/400 384/457/384 399/480/399
f 408/470/408 392/460/392 407/466/407
f 401/471/401 385/469/385 400/468/400
f 394/472/394 408/470/408 409/496/409
f 402/473/402 386/462/386 401/471/401
f 410/474/410 394/472/394 409/496/409
f 388/475/388 402/473/402 403/484/403
f 396/476/396 410/474/410 411/478/411
f 404/477/404 388/475/388 403/484/403
f 397/453/397 411/478/411 412/486/412
f 390/456/390 404/477/404 405/479/405
f 413/465/413 397/453/397 412/486/412
f 391/467/391 405/479/405 406/488/406
f 411/478/411 425/482/425 426/505/426
f 419/483/419 403/484/403 418/504/418
f 427/485/427 411/478/411 426/505/426
f 405/479/405 419/483/419 420/489/420
f 428/487/428 412/486/412 427/485/427
f 406/488/406 420/489/420 421/508/421
f 422/493/422 406/488/406 421/508/421
f 415/494/415 399/480/399 414/490/414
f 423/495/423 407/466/407 422/493/422
f 401/471/401 415/494/415 416/500/416
f 409/496/409 423/495/423 424/501/424
f 417/497/417 401/471/401 416/500/416
f 425/482/425 409/496/409 424/501/424
f 403/484/403 417/497/417 418/504/418
f 430/498/430 414/490/414 429/510/429
f 438/499/438 422/493/422 437/514/437
f 416/500/416 430/498/430 431/528/431
f 424/501/424 438/499/438 439/529/439
f 432/502/432 416/500/416 431/528/431
f 440/503/440 424/501/424 439/529/439
f 418/504/418 432/502/432 433/516/433
f 426/505/426 440/503/440 441/518/441
f 434/506/434 418/504/418 433/516/433
f 442/507/442 426/505/426 441/518/441
f 420/489/420 434/506/434 435/509/435
f 428/487/428 442/507/442 443/513/443
f 421/508/421 435/509/435 436/520/436
f 437/514/437 421/508/421 436/520/436
f 449/515/449 433/516/433 448/538/448
f 457/517/457 441/518/441 456/539/456
f 435/509/435 449/515/449 450/521/450
f 458/519/458 442/507/442 457/517/457
f 436/520/436 450/521/450 451/543/451
f 452/525/452 436/520/436 451/543/451
f 445/526/445 429/510/429 444/522/444
f 453/527/453 437/514/437 452/525/452
f 431/528/431 445/526/445 446/534/446
f 439/529/439 453/527/453 454/535/454
f 447/530/447 431/528/431 446/534/446
f 455/531/455 439/529/439 454/535/454
f 433/516/433 447/530/447 448/538/448
f 441/518/441 455/531/455 456/539/456
f 468/532/468 452/525/452 467/548/467
f 461/533/461 445/526/445 460/549/460
f 454/535/454 468/532/468 469/554/469
f 462/536/462 446/534/446 461/533/461
f 470/537/470 454/535/454 469/554/469
f 448/538/448 462/536/462 463/555/463
f 456/539/456 470/537/470 471/550/471
f 464/540/464 448/538/448 463/555/463
f 472/541/472 456/539/456 471/550/471
f 450/521/450 464/540/464 465/544/465
f 473/542/473 457/517/457 472/541/472
f 451/543/451 465/544/465 466/551/466
f 467/548/467 451/543/451 466/551/466
f 460/549/460 444/522/444 459/545/459
f 481/6/481 471/550/471 480/5/480
f 465/544/465 477/1/477 3/8/3
f 482/10/482 472/541/472 481/6/481
f 466/551/466 3/8/3 4/12/4
f 5/18/5 466/551/466 4/12/4
f 475/19/475 459/545/459 474/13/474
f 478/21/478 467/548/467 5/18/5
f 461/533/461 475/19/475 1/22/1
f 6/25/6 468/532/468 478/21/478
f 462/536/462 1/22/1 476/26/476
f 479/28/479 469/554/469 6/25/6
f 463/555/463 476/26/476 2/3/2
f 471/550/471 479/28/479 480/5/480
f 464/540/464 2/3/2 477/1/477
