# Blender 4.4.3
# www.blender.org
mtllib tube.mtl
o 円柱.002
v 4.877259 24.519632 -1002.000000
v 3.706717 18.634922 -1002.000000
v 4.877258 24.519629 -2.000000
v 3.706716 18.634918 -2.000000
v 13.889256 20.786741 -1002.000000
v 10.555835 15.797924 -1002.000000
v 13.889256 20.786737 -2.000000
v 10.555835 15.797920 -2.000000
v 20.786739 13.889257 -1002.000000
v 15.797922 10.555836 -1002.000000
v 20.786739 13.889254 -2.000000
v 15.797922 10.555832 -2.000000
v 24.519630 4.877260 -1002.000000
v 18.634920 3.706719 -1002.000000
v 24.519630 4.877256 -2.000000
v 18.634920 3.706714 -2.000000
v 24.519630 -4.877256 -1002.000000
v 18.634920 -3.706714 -1002.000000
v 24.519630 -4.877260 -2.000000
v 18.634920 -3.706718 -2.000000
v 20.786739 -13.889254 -1002.000000
v 15.797922 -10.555833 -1002.000000
v 20.786739 -13.889257 -2.000000
v 15.797922 -10.555837 -2.000000
v 13.889256 -20.786737 -1002.000000
v 10.555834 -15.797920 -1002.000000
v 13.889256 -20.786741 -2.000000
v 10.555834 -15.797924 -2.000000
v 4.877259 -24.519629 -1002.000000
v 3.706717 -18.634918 -1002.000000
v 4.877258 -24.519632 -2.000000
v 3.706716 -18.634922 -2.000000
v -3.706716 -18.634918 -1002.000000
v -4.877258 -24.519629 -1002.000000
v -3.706717 -18.634922 -2.000000
v -4.877259 -24.519632 -2.000000
v -13.889256 -20.786737 -1002.000000
v -10.555835 -15.797920 -1002.000000
v -10.555835 -15.797924 -2.000000
v -13.889256 -20.786741 -2.000000
v -20.786739 -13.889254 -1002.000000
v -15.797922 -10.555832 -1002.000000
v -20.786739 -13.889257 -2.000000
v -15.797922 -10.555836 -2.000000
v -24.519630 -4.877256 -1002.000000
v -18.634920 -3.706714 -1002.000000
v -18.634920 -3.706719 -2.000000
v -24.519630 -4.877260 -2.000000
v -24.519630 4.877260 -1002.000000
v -18.634920 3.706718 -1002.000000
v -18.634920 3.706714 -2.000000
v -24.519630 4.877256 -2.000000
v -20.786739 13.889257 -1002.000000
v -15.797922 10.555837 -1002.000000
v -15.797922 10.555833 -2.000000
v -20.786739 13.889254 -2.000000
v -13.889256 20.786741 -1002.000000
v -10.555834 15.797924 -1002.000000
v -10.555834 15.797920 -2.000000
v -13.889256 20.786737 -2.000000
v -3.706716 18.634922 -1002.000000
v -4.877258 24.519632 -1002.000000
v -4.877259 24.519629 -2.000000
v -3.706717 18.634918 -2.000000
vn 0.3827 0.9239 -0.0000
vn 0.7071 0.7071 -0.0000
vn 0.9239 0.3827 -0.0000
vn 1.0000 -0.0000 -0.0000
vn 0.9239 -0.3827 -0.0000
vn 0.7071 -0.7071 -0.0000
vn 0.3827 -0.9239 -0.0000
vn -0.0000 -1.0000 -0.0000
vn -0.3827 -0.9239 -0.0000
vn -0.7071 -0.7071 -0.0000
vn -0.9239 -0.3827 -0.0000
vn -1.0000 -0.0000 -0.0000
vn -0.9239 0.3827 -0.0000
vn -0.7071 0.7071 -0.0000
vn -0.0000 -0.0000 -1.0000
vn -0.3827 0.9239 -0.0000
vn -0.0000 1.0000 -0.0000
vn -0.0000 -0.0000 1.0000
vt 1.000000 1.000000
vt 0.937500 0.500000
vt 1.000000 0.500000
vt 0.937500 1.000000
vt 0.875000 0.500000
vt 0.875000 1.000000
vt 0.812500 0.500000
vt 0.812500 1.000000
vt 0.750000 0.500000
vt 0.750000 1.000000
vt 0.687500 0.500000
vt 0.687500 1.000000
vt 0.625000 0.500000
vt 0.625000 1.000000
vt 0.562500 0.500000
vt 0.562500 1.000000
vt 0.500000 0.500000
vt 0.500000 1.000000
vt 0.437500 0.500000
vt 0.437500 1.000000
vt 0.375000 0.500000
vt 0.375000 1.000000
vt 0.312500 0.500000
vt 0.312500 1.000000
vt 0.250000 0.500000
vt 0.250000 1.000000
vt 0.187500 0.500000
vt 0.187500 1.000000
vt 0.125000 0.500000
vt 0.062500 0.500000
vt 0.000000 0.500000
vt 0.062500 1.000000
vt 0.125000 1.000000
vt 0.000000 1.000000
s 0
usemtl Material.003
f 3/1/1 5/2/1 1/3/1
f 7/4/2 9/5/2 5/2/2
f 11/6/3 13/7/3 9/5/3
f 15/8/4 17/9/4 13/7/4
f 19/10/5 21/11/5 17/9/5
f 23/12/6 25/13/6 21/11/6
f 27/14/7 29/15/7 25/13/7
f 31/16/8 34/17/8 29/15/8
f 36/18/9 37/19/9 34/17/9
f 40/20/10 41/21/10 37/19/10
f 43/22/11 45/23/11 41/21/11
f 48/24/12 49/25/12 45/23/12
f 52/26/13 53/27/13 49/25/13
f 56/28/14 57/29/14 53/27/14
f 62/30/15 2/31/15 61/30/15
f 58/29/15 62/30/15 61/30/15
f 57/29/16 63/32/16 62/30/16
f 63/32/17 1/31/17 62/30/17
f 6/2/15 1/3/15 5/2/15
f 10/5/15 5/2/15 9/5/15
f 2/3/9 8/4/9 4/1/9
f 12/6/10 6/2/10 10/5/10
f 16/8/11 10/5/11 14/7/11
f 18/9/12 16/8/12 14/7/12
f 22/11/13 20/10/13 18/9/13
f 28/14/14 22/11/14 26/13/14
f 28/14/16 30/15/16 32/16/16
f 33/17/17 32/16/17 30/15/17
f 38/19/1 35/18/1 33/17/1
f 39/20/2 42/21/2 44/22/2
f 42/21/3 47/24/3 44/22/3
f 46/23/4 51/26/4 47/24/4
f 51/26/5 54/27/5 55/28/5
f 59/33/6 54/27/6 58/29/6
f 64/32/7 58/29/7 61/30/7
f 61/30/8 4/34/8 64/32/8
f 57/29/15 54/27/15 53/27/15
f 53/27/15 50/25/15 49/25/15
f 50/25/15 45/23/15 49/25/15
f 46/23/15 41/21/15 45/23/15
f 42/21/15 37/19/15 41/21/15
f 38/19/15 34/17/15 37/19/15
f 33/17/15 29/15/15 34/17/15
f 30/15/15 25/13/15 29/15/15
f 25/13/15 22/11/15 21/11/15
f 22/11/15 17/9/15 21/11/15
f 18/9/15 13/7/15 17/9/15
f 14/7/15 9/5/15 13/7/15
f 7/4/18 12/6/18 11/6/18
f 15/8/18 12/6/18 16/8/18
f 19/10/18 16/8/18 20/10/18
f 23/12/18 20/10/18 24/12/18
f 27/14/18 24/12/18 28/14/18
f 27/14/18 32/16/18 31/16/18
f 31/16/18 35/18/18 36/18/18
f 36/18/18 39/20/18 40/20/18
f 40/20/18 44/22/18 43/22/18
f 43/22/18 47/24/18 48/24/18
f 48/24/18 51/26/18 52/26/18
f 52/26/18 55/28/18 56/28/18
f 60/33/18 55/28/18 59/33/18
f 63/32/18 59/33/18 64/32/18
f 64/32/18 3/34/18 63/32/18
f 3/34/18 8/4/18 7/4/18
f 3/1/1 7/4/1 5/2/1
f 7/4/2 11/6/2 9/5/2
f 11/6/3 15/8/3 13/7/3
f 15/8/4 19/10/4 17/9/4
f 19/10/5 23/12/5 21/11/5
f 23/12/6 27/14/6 25/13/6
f 27/14/7 31/16/7 29/15/7
f 31/16/8 36/18/8 34/17/8
f 36/18/9 40/20/9 37/19/9
f 40/20/10 43/22/10 41/21/10
f 43/22/11 48/24/11 45/23/11
f 48/24/12 52/26/12 49/25/12
f 52/26/13 56/28/13 53/27/13
f 56/28/14 60/33/14 57/29/14
f 62/30/15 1/3/15 2/31/15
f 58/29/15 57/29/15 62/30/15
f 57/29/16 60/33/16 63/32/16
f 63/32/17 3/34/17 1/31/17
f 6/2/15 2/3/15 1/3/15
f 10/5/15 6/2/15 5/2/15
f 2/3/9 6/2/9 8/4/9
f 12/6/10 8/4/10 6/2/10
f 16/8/11 12/6/11 10/5/11
f 18/9/12 20/10/12 16/8/12
f 22/11/13 24/12/13 20/10/13
f 28/14/14 24/12/14 22/11/14
f 28/14/16 26/13/16 30/15/16
f 33/17/17 35/18/17 32/16/17
f 38/19/1 39/20/1 35/18/1
f 39/20/2 38/19/2 42/21/2
f 42/21/3 46/23/3 47/24/3
f 46/23/4 50/25/4 51/26/4
f 51/26/5 50/25/5 54/27/5
f 59/33/6 55/28/6 54/27/6
f 64/32/7 59/33/7 58/29/7
f 61/30/8 2/31/8 4/34/8
f 57/29/15 58/29/15 54/27/15
f 53/27/15 54/27/15 50/25/15
f 50/25/15 46/23/15 45/23/15
f 46/23/15 42/21/15 41/21/15
f 42/21/15 38/19/15 37/19/15
f 38/19/15 33/17/15 34/17/15
f 33/17/15 30/15/15 29/15/15
f 30/15/15 26/13/15 25/13/15
f 25/13/15 26/13/15 22/11/15
f 22/11/15 18/9/15 17/9/15
f 18/9/15 14/7/15 13/7/15
f 14/7/15 10/5/15 9/5/15
f 7/4/18 8/4/18 12/6/18
f 15/8/18 11/6/18 12/6/18
f 19/10/18 15/8/18 16/8/18
f 23/12/18 19/10/18 20/10/18
f 27/14/18 23/12/18 24/12/18
f 27/14/18 28/14/18 32/16/18
f 31/16/18 32/16/18 35/18/18
f 36/18/18 35/18/18 39/20/18
f 40/20/18 39/20/18 44/22/18
f 43/22/18 44/22/18 47/24/18
f 48/24/18 47/24/18 51/26/18
f 52/26/18 51/26/18 55/28/18
f 60/33/18 56/28/18 55/28/18
f 63/32/18 60/33/18 59/33/18
f 64/32/18 4/34/18 3/34/18
f 3/34/18 4/1/18 8/4/18
o 円柱.003
v 5.072349 25.500416 -999.998779
v 4.877258 24.519630 -999.998840
v 5.072349 25.500416 50.000000
v 4.877258 24.519630 49.999939
v 14.444826 21.618208 -999.998840
v 13.889256 20.786739 -999.998840
v 14.444826 21.618208 49.999939
v 13.889256 20.786739 49.999878
v 21.618210 14.444825 -999.998962
v 20.786739 13.889256 -999.998962
v 21.618210 14.444825 49.999817
v 20.786739 13.889256 49.999756
v 25.500414 5.072349 -999.999207
v 24.519630 4.877258 -999.999207
v 25.500414 5.072349 49.999634
v 24.519630 4.877258 49.999634
v 25.500416 -5.072349 -999.999390
v 24.519630 -4.877258 -999.999390
v 25.500416 -5.072349 49.999390
v 24.519630 -4.877258 49.999390
v 21.618208 -14.444826 -999.999634
v 20.786739 -13.889256 -999.999634
v 21.618208 -14.444826 49.999207
v 20.786739 -13.889256 49.999207
v 14.444825 -21.618210 -999.999817
v 13.889256 -20.786739 -999.999756
v 13.889256 -20.786739 49.998962
v 14.444825 -21.618210 49.998962
v 5.072349 -25.500414 -999.999939
v 4.877258 -24.519630 -999.999878
v 4.877258 -24.519630 49.998840
v 5.072349 -25.500414 49.998840
v -4.877258 -24.519630 -999.999939
v -5.072349 -25.500416 -1000.000000
v -4.877258 -24.519630 49.998840
v -5.072349 -25.500416 49.998779
v -13.889256 -20.786739 -999.999878
v -14.444826 -21.618208 -999.999939
v -13.889256 -20.786739 49.998840
v -14.444826 -21.618208 49.998840
v -21.618210 -14.444825 -999.999817
v -20.786739 -13.889256 -999.999756
v -20.786739 -13.889256 49.998962
v -21.618210 -14.444825 49.998962
v -25.500414 -5.072349 -999.999634
v -24.519630 -4.877258 -999.999634
v -24.519630 -4.877258 49.999207
v -25.500414 -5.072349 49.999207
v -25.500416 5.072349 -999.999390
v -24.519630 4.877258 -999.999390
v -25.500416 5.072349 49.999390
v -24.519630 4.877258 49.999390
v -21.618208 14.444826 -999.999207
v -20.786739 13.889256 -999.999207
v -21.618208 14.444826 49.999634
v -20.786739 13.889256 49.999634
v -14.444825 21.618210 -999.998962
v -13.889256 20.786739 -999.998962
v -14.444825 21.618210 49.999817
v -13.889256 20.786739 49.999756
v -5.072349 25.500414 -999.998840
v -4.877258 24.519630 -999.998840
v -5.072349 25.500414 49.999939
v -4.877258 24.519630 49.999878
vn 0.3827 0.9239 -0.0000
vn 0.7071 0.7071 -0.0000
vn 0.9239 0.3827 -0.0000
vn 1.0000 -0.0000 -0.0000
vn 0.9239 -0.3827 -0.0000
vn 0.7071 -0.7071 -0.0000
vn 0.3827 -0.9239 -0.0000
vn -0.0000 -1.0000 -0.0000
vn -0.3827 -0.9239 -0.0000
vn -0.7071 -0.7071 -0.0000
vn -0.9239 -0.3827 -0.0000
vn -1.0000 -0.0000 -0.0000
vn -0.9239 0.3827 -0.0000
vn -0.7071 0.7071 -0.0000
vn -0.0000 -0.0000 1.0000
vn -0.3827 0.9239 -0.0000
vn -0.0000 1.0000 -0.0000
vn -0.0000 -0.0000 -1.0000
vn -0.0000 0.0001 -1.0000
vn -0.0001 -0.0001 1.0000
vn -0.0000 0.0001 1.0000
vn -0.0000 -0.0001 1.0000
vn -0.0001 -0.0000 1.0000
vn 0.0001 -0.0000 -1.0000
vn -0.0000 -0.0001 -1.0000
vt 1.000000 0.500000
vt 0.937500 1.000000
vt 0.937500 0.500000
vt 0.875000 1.000000
vt 0.875000 0.500000
vt 0.812500 1.000000
vt 0.812500 0.500000
vt 0.750000 1.000000
vt 0.750000 0.500000
vt 0.687500 1.000000
vt 0.687500 0.500000
vt 0.625000 1.000000
vt 0.625000 0.500000
vt 0.562500 1.000000
vt 0.562500 0.500000
vt 0.500000 1.000000
vt 0.500000 0.500000
vt 0.437500 0.500000
vt 0.437500 1.000000
vt 0.375000 0.500000
vt 0.375000 1.000000
vt 0.312500 0.500000
vt 0.312500 1.000000
vt 0.250000 0.500000
vt 0.250000 1.000000
vt 0.187500 0.500000
vt 0.187500 1.000000
vt 0.125000 0.500000
vt 0.028269 0.341844
vt 0.010000 0.250000
vt 0.019231 0.250000
vt 0.471731 0.158156
vt 0.490000 0.250000
vt 0.480769 0.250000
vt 0.125000 1.000000
vt 0.062500 0.500000
vt 0.062500 1.000000
vt 0.000000 0.500000
vt 0.841844 0.028269
vt 0.750000 0.010000
vt 0.750000 0.019231
vt 0.658156 0.471731
vt 0.750000 0.490000
vt 0.750000 0.480769
vt 0.000000 1.000000
vt 1.000000 1.000000
vt 0.338312 0.463203
vt 0.413178 0.413178
vt 0.419706 0.419706
vt 0.341844 0.028269
vt 0.419706 0.080294
vt 0.413179 0.086822
vt 0.338312 0.036797
vt 0.341844 0.471731
vt 0.250000 0.480769
vt 0.250000 0.010000
vt 0.250000 0.019231
vt 0.250000 0.490000
vt 0.161688 0.463203
vt 0.158156 0.028269
vt 0.161688 0.036797
vt 0.158156 0.471731
vt 0.086821 0.413178
vt 0.080294 0.080294
vt 0.086822 0.086822
vt 0.080294 0.419706
vt 0.036797 0.338312
vt 0.028269 0.158156
vt 0.036797 0.161688
vt 0.471731 0.341844
vt 0.463203 0.338312
vt 0.463203 0.161688
vt 0.913178 0.413178
vt 0.919706 0.419706
vt 0.971731 0.341844
vt 0.528269 0.341844
vt 0.580294 0.419706
vt 0.586821 0.413179
vt 0.536797 0.338312
vt 0.963203 0.338312
vt 0.980769 0.250000
vt 0.510000 0.250000
vt 0.519231 0.250000
vt 0.990000 0.250000
vt 0.963203 0.161688
vt 0.528269 0.158156
vt 0.536797 0.161688
vt 0.971731 0.158156
vt 0.913178 0.086822
vt 0.580294 0.080294
vt 0.586822 0.086822
vt 0.919706 0.080294
vt 0.838312 0.036797
vt 0.658156 0.028269
vt 0.661688 0.036797
vt 0.661688 0.463203
vt 0.841844 0.471731
vt 0.838312 0.463203
s 0
usemtl Material.003
f 65/35/19 71/36/19 69/37/19
f 69/37/20 75/38/20 73/39/20
f 73/39/21 79/40/21 77/41/21
f 77/41/22 83/42/22 81/43/22
f 81/43/23 87/44/23 85/45/23
f 85/45/24 92/46/24 89/47/24
f 89/47/25 96/48/25 93/49/25
f 93/49/26 100/50/26 98/51/26
f 100/50/27 102/52/27 98/51/27
f 104/53/28 105/54/28 102/52/28
f 108/55/29 109/56/29 105/54/29
f 112/57/30 113/58/30 109/56/30
f 115/59/31 117/60/31 113/58/31
f 119/61/32 121/62/32 117/60/32
f 119/63/33 115/64/33 116/65/33
f 87/66/33 83/67/33 84/68/33
f 123/69/34 125/70/34 121/62/34
f 127/71/35 65/72/35 125/70/35
f 93/73/36 98/74/36 97/75/36
f 125/76/37 65/77/37 66/78/37
f 72/36/27 66/35/27 70/37/27
f 76/38/28 70/37/28 74/39/28
f 74/39/29 80/40/29 76/38/29
f 78/41/30 84/42/30 80/40/30
f 88/44/31 82/43/31 86/45/31
f 91/46/32 86/45/32 90/47/32
f 91/46/34 94/49/34 95/48/34
f 97/51/35 95/48/35 94/49/35
f 99/50/19 101/52/19 103/53/19
f 103/53/20 106/54/20 107/55/20
f 107/55/21 110/56/21 111/57/21
f 111/57/22 114/58/22 116/59/22
f 118/60/23 116/59/23 114/58/23
f 122/62/24 120/61/24 118/60/24
f 126/70/25 124/69/25 122/62/25
f 128/71/26 66/72/26 68/79/26
f 65/35/19 67/80/19 71/36/19
f 69/37/20 71/36/20 75/38/20
f 73/39/21 75/38/21 79/40/21
f 77/41/22 79/40/22 83/42/22
f 81/43/23 83/42/23 87/44/23
f 85/45/24 87/44/24 92/46/24
f 89/47/25 92/46/25 96/48/25
f 93/49/26 96/48/26 100/50/26
f 100/50/27 104/53/27 102/52/27
f 104/53/28 108/55/28 105/54/28
f 108/55/29 112/57/29 109/56/29
f 112/57/30 115/59/30 113/58/30
f 115/59/31 119/61/31 117/60/31
f 119/61/32 123/69/32 121/62/32
f 72/81/38 76/82/38 75/83/38
f 96/84/39 92/85/39 91/86/39
f 96/84/40 91/86/40 95/87/40
f 72/81/40 75/83/40 71/88/40
f 68/89/40 72/81/40 71/88/40
f 100/90/40 96/84/40 95/87/40
f 100/90/33 95/87/33 99/91/33
f 68/89/40 71/88/40 67/92/40
f 128/93/33 68/89/33 67/92/33
f 104/94/33 100/90/33 99/91/33
f 104/94/33 99/91/33 103/95/33
f 128/93/40 67/92/40 127/96/40
f 124/97/40 128/93/40 127/96/40
f 108/98/33 104/94/33 103/95/33
f 108/98/33 103/95/33 107/99/33
f 124/97/40 127/96/40 123/100/40
f 120/101/40 124/97/40 123/100/40
f 112/102/33 108/98/33 107/99/33
f 112/102/33 107/99/33 111/103/33
f 120/101/39 123/100/39 119/63/39
f 112/102/33 111/103/33 116/65/33
f 116/65/33 120/101/33 119/63/33
f 115/64/33 112/102/33 116/65/33
f 91/86/33 92/85/33 87/66/33
f 79/104/41 75/83/41 76/82/41
f 79/104/33 76/82/33 80/105/33
f 88/106/40 91/86/40 87/66/40
f 79/104/33 80/105/33 84/68/33
f 84/68/33 88/106/33 87/66/33
f 83/67/33 79/104/33 84/68/33
f 123/69/34 127/71/34 125/70/34
f 127/71/35 67/79/35 65/72/35
f 74/107/36 73/108/36 77/109/36
f 117/110/36 121/111/36 122/112/36
f 117/110/37 122/112/37 118/113/37
f 78/114/36 74/107/36 77/109/36
f 82/115/36 78/114/36 77/109/36
f 113/116/36 117/110/36 118/113/36
f 113/116/36 118/113/36 114/117/36
f 82/115/36 77/109/36 81/118/36
f 86/119/37 82/115/37 81/118/37
f 109/120/36 113/116/36 114/117/36
f 109/120/36 114/117/36 110/121/36
f 86/119/36 81/118/36 85/122/36
f 90/123/36 86/119/36 85/122/36
f 105/124/36 109/120/36 110/121/36
f 105/124/42 110/121/42 106/125/42
f 90/123/36 85/122/36 89/126/36
f 94/127/37 90/123/37 89/126/37
f 102/128/42 105/124/42 106/125/42
f 102/128/37 106/125/37 101/129/37
f 94/127/37 89/126/37 93/73/37
f 102/128/37 101/129/37 97/75/37
f 97/75/37 94/127/37 93/73/37
f 98/74/37 102/128/37 97/75/37
f 126/130/36 122/112/36 121/111/36
f 69/131/36 73/108/36 74/107/36
f 69/131/36 74/107/36 70/132/36
f 126/130/43 121/111/43 125/76/43
f 69/131/36 70/132/36 66/78/36
f 66/78/36 126/130/36 125/76/36
f 65/77/43 69/131/43 66/78/43
f 72/36/27 68/80/27 66/35/27
f 76/38/28 72/36/28 70/37/28
f 74/39/29 78/41/29 80/40/29
f 78/41/30 82/43/30 84/42/30
f 88/44/31 84/42/31 82/43/31
f 91/46/32 88/44/32 86/45/32
f 91/46/34 90/47/34 94/49/34
f 97/51/35 99/50/35 95/48/35
f 99/50/19 97/51/19 101/52/19
f 103/53/20 101/52/20 106/54/20
f 107/55/21 106/54/21 110/56/21
f 111/57/22 110/56/22 114/58/22
f 118/60/23 120/61/23 116/59/23
f 122/62/24 124/69/24 120/61/24
f 126/70/25 128/71/25 124/69/25
f 128/71/26 126/70/26 66/72/26
