# Blender 4.4.3
# www.blender.org
mtllib text_C.mtl
o text_C
v 0.033923 0.385538 -0.050000
v 0.207308 0.385538 -0.050000
v 0.207308 0.255231 -0.050000
v 0.205154 0.269231 -0.050000
v 0.204428 0.272267 -0.050000
v 0.203688 0.275274 -0.050000
v 0.202933 0.278250 -0.050000
v 0.202162 0.281197 -0.050000
v 0.201377 0.284113 -0.050000
v 0.200577 0.287000 -0.050000
v 0.199762 0.289857 -0.050000
v 0.198932 0.292684 -0.050000
v 0.198087 0.295481 -0.050000
v 0.197226 0.298248 -0.050000
v 0.196351 0.300985 -0.050000
v 0.195462 0.303692 -0.050000
v 0.194123 0.306901 -0.050000
v 0.192620 0.310064 -0.050000
v 0.190952 0.313183 -0.050000
v 0.189120 0.316256 -0.050000
v 0.187123 0.319285 -0.050000
v 0.184962 0.322269 -0.050000
v 0.182636 0.325208 -0.050000
v 0.180145 0.328103 -0.050000
v 0.177490 0.330952 -0.050000
v 0.174671 0.333756 -0.050000
v 0.171687 0.336516 -0.050000
v 0.168538 0.339231 -0.050000
v 0.161725 0.343710 -0.050000
v 0.154209 0.347816 -0.050000
v 0.145990 0.351548 -0.050000
v 0.137068 0.354906 -0.050000
v 0.127443 0.357890 -0.050000
v 0.117115 0.360500 -0.050000
v 0.106084 0.362736 -0.050000
v 0.094350 0.364598 -0.050000
v 0.081913 0.366087 -0.050000
v 0.068773 0.367201 -0.050000
v 0.054931 0.367941 -0.050000
v 0.040385 0.368308 -0.050000
v 0.032061 0.367926 -0.050000
v 0.023962 0.366782 -0.050000
v 0.016087 0.364875 -0.050000
v 0.008436 0.362205 -0.050000
v 0.001010 0.358772 -0.050000
v -0.006192 0.354577 -0.050000
v -0.013170 0.349619 -0.050000
v -0.019923 0.343897 -0.050000
v -0.026452 0.337413 -0.050000
v -0.032756 0.330167 -0.050000
v -0.038837 0.322157 -0.050000
v -0.044692 0.313385 -0.050000
v -0.044692 -0.259538 -0.050000
v -0.039173 -0.266770 -0.050000
v -0.033385 -0.273389 -0.050000
v -0.027327 -0.279394 -0.050000
v -0.021000 -0.284786 -0.050000
v -0.014404 -0.289565 -0.050000
v -0.007538 -0.293731 -0.050000
v -0.000404 -0.297283 -0.050000
v 0.007000 -0.300222 -0.050000
v 0.014673 -0.302548 -0.050000
v 0.022615 -0.304261 -0.050000
v 0.030827 -0.305360 -0.050000
v 0.039308 -0.305846 -0.050000
v 0.053854 -0.305472 -0.050000
v 0.067697 -0.304709 -0.050000
v 0.080837 -0.303558 -0.050000
v 0.093274 -0.302017 -0.050000
v 0.105007 -0.300088 -0.050000
v 0.116038 -0.297769 -0.050000
v 0.126366 -0.295062 -0.050000
v 0.135991 -0.291966 -0.050000
v 0.144913 -0.288481 -0.050000
v 0.153132 -0.284607 -0.050000
v 0.160649 -0.280344 -0.050000
v 0.167462 -0.275692 -0.050000
v 0.170610 -0.273150 -0.050000
v 0.173594 -0.270547 -0.050000
v 0.176413 -0.267885 -0.050000
v 0.179068 -0.265162 -0.050000
v 0.181559 -0.262380 -0.050000
v 0.183885 -0.259538 -0.050000
v 0.186046 -0.256637 -0.050000
v 0.188043 -0.253675 -0.050000
v 0.189875 -0.250654 -0.050000
v 0.191543 -0.247573 -0.050000
v 0.193046 -0.244432 -0.050000
v 0.194385 -0.241231 -0.050000
v 0.195275 -0.238853 -0.050000
v 0.196150 -0.236385 -0.050000
v 0.197010 -0.233827 -0.050000
v 0.197855 -0.231179 -0.050000
v 0.198685 -0.228442 -0.050000
v 0.199500 -0.225615 -0.050000
v 0.200300 -0.222699 -0.050000
v 0.201085 -0.219692 -0.050000
v 0.201856 -0.216596 -0.050000
v 0.202611 -0.213410 -0.050000
v 0.203351 -0.210135 -0.050000
v 0.204077 -0.206769 -0.050000
v 0.206231 -0.192769 -0.050000
v 0.206231 -0.323077 -0.050000
v 0.005923 -0.323077 -0.050000
v -0.008937 -0.322441 -0.050000
v -0.023363 -0.320534 -0.050000
v -0.037356 -0.317356 -0.050000
v -0.050915 -0.312906 -0.050000
v -0.064040 -0.307185 -0.050000
v -0.076731 -0.300192 -0.050000
v -0.088988 -0.291928 -0.050000
v -0.100812 -0.282393 -0.050000
v -0.112202 -0.271587 -0.050000
v -0.123158 -0.259509 -0.050000
v -0.133681 -0.246159 -0.050000
v -0.143769 -0.231538 -0.050000
v -0.154090 -0.214614 -0.050000
v -0.163513 -0.196868 -0.050000
v -0.172038 -0.178298 -0.050000
v -0.179667 -0.158906 -0.050000
v -0.186397 -0.138691 -0.050000
v -0.192231 -0.117654 -0.050000
v -0.197167 -0.095794 -0.050000
v -0.201205 -0.073111 -0.050000
v -0.204346 -0.049606 -0.050000
v -0.206590 -0.025278 -0.050000
v -0.207936 -0.000127 -0.050000
v -0.208385 0.025846 -0.050000
v -0.207988 0.049583 -0.050000
v -0.206799 0.072692 -0.050000
v -0.204817 0.095173 -0.050000
v -0.202043 0.117026 -0.050000
v -0.198475 0.138250 -0.050000
v -0.194115 0.158846 -0.050000
v -0.188963 0.178814 -0.050000
v -0.183017 0.198154 -0.050000
v -0.176279 0.216865 -0.050000
v -0.168748 0.234949 -0.050000
v -0.160424 0.252404 -0.050000
v -0.151308 0.269231 -0.050000
v -0.139821 0.287808 -0.050000
v -0.127615 0.304769 -0.050000
v -0.114692 0.320115 -0.050000
v -0.101051 0.333846 -0.050000
v -0.086692 0.345962 -0.050000
v -0.071615 0.356462 -0.050000
v -0.055820 0.365346 -0.050000
v -0.039308 0.372615 -0.050000
v -0.022077 0.378269 -0.050000
v -0.004128 0.382308 -0.050000
v 0.014538 0.384731 -0.050000
v -0.067308 -0.215385 -0.050000
v -0.067308 0.266000 -0.050000
v -0.072819 0.250347 -0.050000
v -0.077868 0.233902 -0.050000
v -0.082452 0.216663 -0.050000
v -0.086573 0.198632 -0.050000
v -0.090230 0.179809 -0.050000
v -0.093423 0.160192 -0.050000
v -0.096153 0.139783 -0.050000
v -0.098419 0.118581 -0.050000
v -0.100221 0.096587 -0.050000
v -0.101560 0.073799 -0.050000
v -0.102435 0.050219 -0.050000
v -0.102846 0.025846 -0.050000
v -0.102644 0.003403 -0.050000
v -0.102038 -0.018338 -0.050000
v -0.101029 -0.039375 -0.050000
v -0.099615 -0.059709 -0.050000
v -0.097798 -0.079341 -0.050000
v -0.095577 -0.098269 -0.050000
v -0.092952 -0.116495 -0.050000
v -0.089923 -0.134017 -0.050000
v -0.086490 -0.150837 -0.050000
v -0.082654 -0.166953 -0.050000
v -0.078413 -0.182366 -0.050000
v -0.073769 -0.197077 -0.050000
v -0.073231 -0.198685 -0.050000
v -0.072692 -0.200278 -0.050000
v -0.072154 -0.201856 -0.050000
v -0.071615 -0.203419 -0.050000
v -0.071077 -0.204967 -0.050000
v -0.070538 -0.206500 -0.050000
v -0.070000 -0.208018 -0.050000
v -0.069462 -0.209521 -0.050000
v -0.068923 -0.211010 -0.050000
v -0.068385 -0.212483 -0.050000
v -0.067846 -0.213941 -0.050000
v 0.033923 0.385538 0.050000
v 0.207308 0.385538 0.050000
v 0.207308 0.255231 0.050000
v 0.205154 0.269231 0.050000
v 0.204428 0.272267 0.050000
v 0.203688 0.275274 0.050000
v 0.202933 0.278250 0.050000
v 0.202162 0.281197 0.050000
v 0.201377 0.284113 0.050000
v 0.200577 0.287000 0.050000
v 0.199762 0.289857 0.050000
v 0.198932 0.292684 0.050000
v 0.198087 0.295481 0.050000
v 0.197226 0.298248 0.050000
v 0.196351 0.300985 0.050000
v 0.195462 0.303692 0.050000
v 0.194123 0.306901 0.050000
v 0.192620 0.310064 0.050000
v 0.190952 0.313183 0.050000
v 0.189120 0.316256 0.050000
v 0.187123 0.319285 0.050000
v 0.184962 0.322269 0.050000
v 0.182636 0.325208 0.050000
v 0.180145 0.328103 0.050000
v 0.177490 0.330952 0.050000
v 0.174671 0.333756 0.050000
v 0.171687 0.336516 0.050000
v 0.168538 0.339231 0.050000
v 0.161725 0.343710 0.050000
v 0.154209 0.347816 0.050000
v 0.145990 0.351548 0.050000
v 0.137068 0.354906 0.050000
v 0.127443 0.357890 0.050000
v 0.117115 0.360500 0.050000
v 0.106084 0.362736 0.050000
v 0.094350 0.364598 0.050000
v 0.081913 0.366087 0.050000
v 0.068773 0.367201 0.050000
v 0.054931 0.367941 0.050000
v 0.040385 0.368308 0.050000
v 0.032061 0.367926 0.050000
v 0.023962 0.366782 0.050000
v 0.016087 0.364875 0.050000
v 0.008436 0.362205 0.050000
v 0.001010 0.358772 0.050000
v -0.006192 0.354577 0.050000
v -0.013170 0.349619 0.050000
v -0.019923 0.343897 0.050000
v -0.026452 0.337413 0.050000
v -0.032756 0.330167 0.050000
v -0.038837 0.322157 0.050000
v -0.044692 0.313385 0.050000
v -0.044692 -0.259538 0.050000
v -0.039173 -0.266770 0.050000
v -0.033385 -0.273389 0.050000
v -0.027327 -0.279394 0.050000
v -0.021000 -0.284786 0.050000
v -0.014404 -0.289565 0.050000
v -0.007538 -0.293731 0.050000
v -0.000404 -0.297283 0.050000
v 0.007000 -0.300222 0.050000
v 0.014673 -0.302548 0.050000
v 0.022615 -0.304261 0.050000
v 0.030827 -0.305360 0.050000
v 0.039308 -0.305846 0.050000
v 0.053854 -0.305472 0.050000
v 0.067697 -0.304709 0.050000
v 0.080837 -0.303558 0.050000
v 0.093274 -0.302017 0.050000
v 0.105007 -0.300088 0.050000
v 0.116038 -0.297769 0.050000
v 0.126366 -0.295062 0.050000
v 0.135991 -0.291966 0.050000
v 0.144913 -0.288481 0.050000
v 0.153132 -0.284607 0.050000
v 0.160649 -0.280344 0.050000
v 0.167462 -0.275692 0.050000
v 0.170610 -0.273150 0.050000
v 0.173594 -0.270547 0.050000
v 0.176413 -0.267885 0.050000
v 0.179068 -0.265162 0.050000
v 0.181559 -0.262380 0.050000
v 0.183885 -0.259538 0.050000
v 0.186046 -0.256637 0.050000
v 0.188043 -0.253675 0.050000
v 0.189875 -0.250654 0.050000
v 0.191543 -0.247573 0.050000
v 0.193046 -0.244432 0.050000
v 0.194385 -0.241231 0.050000
v 0.195275 -0.238853 0.050000
v 0.196150 -0.236385 0.050000
v 0.197010 -0.233827 0.050000
v 0.197855 -0.231179 0.050000
v 0.198685 -0.228442 0.050000
v 0.199500 -0.225615 0.050000
v 0.200300 -0.222699 0.050000
v 0.201085 -0.219692 0.050000
v 0.201856 -0.216596 0.050000
v 0.202611 -0.213410 0.050000
v 0.203351 -0.210135 0.050000
v 0.204077 -0.206769 0.050000
v 0.206231 -0.192769 0.050000
v 0.206231 -0.323077 0.050000
v 0.005923 -0.323077 0.050000
v -0.008937 -0.322441 0.050000
v -0.023363 -0.320534 0.050000
v -0.037356 -0.317356 0.050000
v -0.050915 -0.312906 0.050000
v -0.064040 -0.307185 0.050000
v -0.076731 -0.300192 0.050000
v -0.088988 -0.291928 0.050000
v -0.100812 -0.282393 0.050000
v -0.112202 -0.271587 0.050000
v -0.123158 -0.259509 0.050000
v -0.133681 -0.246159 0.050000
v -0.143769 -0.231538 0.050000
v -0.154090 -0.214614 0.050000
v -0.163513 -0.196868 0.050000
v -0.172038 -0.178298 0.050000
v -0.179667 -0.158906 0.050000
v -0.186397 -0.138691 0.050000
v -0.192231 -0.117654 0.050000
v -0.197167 -0.095794 0.050000
v -0.201205 -0.073111 0.050000
v -0.204346 -0.049606 0.050000
v -0.206590 -0.025278 0.050000
v -0.207936 -0.000127 0.050000
v -0.208385 0.025846 0.050000
v -0.207988 0.049583 0.050000
v -0.206799 0.072692 0.050000
v -0.204817 0.095173 0.050000
v -0.202043 0.117026 0.050000
v -0.198475 0.138250 0.050000
v -0.194115 0.158846 0.050000
v -0.188963 0.178814 0.050000
v -0.183017 0.198154 0.050000
v -0.176279 0.216865 0.050000
v -0.168748 0.234949 0.050000
v -0.160424 0.252404 0.050000
v -0.151308 0.269231 0.050000
v -0.139821 0.287808 0.050000
v -0.127615 0.304769 0.050000
v -0.114692 0.320115 0.050000
v -0.101051 0.333846 0.050000
v -0.086692 0.345962 0.050000
v -0.071615 0.356462 0.050000
v -0.055820 0.365346 0.050000
v -0.039308 0.372615 0.050000
v -0.022077 0.378269 0.050000
v -0.004128 0.382308 0.050000
v 0.014538 0.384731 0.050000
v -0.067308 -0.215385 0.050000
v -0.067308 0.266000 0.050000
v -0.072819 0.250347 0.050000
v -0.077868 0.233902 0.050000
v -0.082452 0.216663 0.050000
v -0.086573 0.198632 0.050000
v -0.090230 0.179809 0.050000
v -0.093423 0.160192 0.050000
v -0.096153 0.139783 0.050000
v -0.098419 0.118581 0.050000
v -0.100221 0.096587 0.050000
v -0.101560 0.073799 0.050000
v -0.102435 0.050219 0.050000
v -0.102846 0.025846 0.050000
v -0.102644 0.003403 0.050000
v -0.102038 -0.018338 0.050000
v -0.101029 -0.039375 0.050000
v -0.099615 -0.059709 0.050000
v -0.097798 -0.079341 0.050000
v -0.095577 -0.098269 0.050000
v -0.092952 -0.116495 0.050000
v -0.089923 -0.134017 0.050000
v -0.086490 -0.150837 0.050000
v -0.082654 -0.166953 0.050000
v -0.078413 -0.182366 0.050000
v -0.073769 -0.197077 0.050000
v -0.073231 -0.198685 0.050000
v -0.072692 -0.200278 0.050000
v -0.072154 -0.201856 0.050000
v -0.071615 -0.203419 0.050000
v -0.071077 -0.204967 0.050000
v -0.070538 -0.206500 0.050000
v -0.070000 -0.208018 0.050000
v -0.069462 -0.209521 0.050000
v -0.068923 -0.211010 0.050000
v -0.068385 -0.212483 0.050000
v -0.067846 -0.213941 0.050000
vn -0.0000 -0.0000 -1.0000
vn -0.0000 -0.0000 1.0000
vn -0.8099 -0.5866 -0.0000
vn 0.9432 -0.3321 -0.0000
vn 0.9455 0.3257 -0.0000
vn 0.4457 0.8952 -0.0000
vn 0.9996 0.0279 -0.0000
vn -0.8794 0.4760 -0.0000
vn -1.0000 -0.0000 -0.0000
vn -0.2536 0.9673 -0.0000
vn -0.0845 -0.9964 -0.0000
vn -0.9986 -0.0534 -0.0000
vn -0.8349 -0.5504 -0.0000
vn 0.9445 0.3285 -0.0000
vn -0.4029 0.9152 -0.0000
vn -0.8551 0.5185 -0.0000
vn -0.9026 0.4304 -0.0000
vn -0.8590 -0.5120 -0.0000
vn 0.9435 0.3314 -0.0000
vn 0.3690 0.9294 -0.0000
vn 0.9989 0.0479 -0.0000
vn -0.8291 0.5590 -0.0000
vn -0.2057 0.9786 -0.0000
vn -0.0252 -0.9997 -0.0000
vn -0.9958 -0.0918 -0.0000
vn -0.8818 -0.4716 -0.0000
vn 0.9560 -0.2934 -0.0000
vn 0.9425 0.3343 -0.0000
vn -0.8020 0.5974 -0.0000
vn -0.9231 0.3845 -0.0000
vn -0.9775 0.2107 -0.0000
vn -0.1623 0.9867 -0.0000
vn 0.0458 -0.9990 -0.0000
vn -0.9032 -0.4292 -0.0000
vn 0.9976 0.0693 -0.0000
vn -0.7407 -0.6719 -0.0000
vn -0.4826 -0.8759 -0.0000
vn 0.1399 -0.9902 -0.0000
vn -0.9912 -0.1325 -0.0000
vn -0.9229 -0.3851 -0.0000
vn 0.9664 -0.2570 -0.0000
vn 0.9414 0.3372 -0.0000
vn -0.9409 0.3388 -0.0000
vn 0.2354 -0.9719 -0.0000
vn 0.7949 0.6067 -0.0000
vn -0.9500 -0.3123 -0.0000
vn 0.9403 0.3402 -0.0000
vn 0.2901 0.9570 -0.0000
vn -0.4903 0.8716 -0.0000
vn 0.9957 0.0922 -0.0000
vn -0.7739 0.6333 -0.0000
vn -0.9754 0.2205 -0.0000
vn -0.1229 0.9924 -0.0000
vn -0.9845 -0.1753 -0.0000
vn -0.9525 -0.3045 -0.0000
vn 0.9749 -0.2228 -0.0000
vn -0.7451 0.6670 -0.0000
vn 0.3295 -0.9442 -0.0000
vn -0.9549 -0.2968 -0.0000
vn 0.9816 -0.1907 -0.0000
vn 0.9392 0.3433 -0.0000
vn 0.2108 0.9775 -0.0000
vn 0.9932 0.1165 -0.0000
vn -0.7159 0.6982 -0.0000
vn -0.9559 0.2939 -0.0000
vn -0.0873 0.9962 -0.0000
vn 0.4196 -0.9077 -0.0000
vn -0.9754 -0.2203 -0.0000
vn -0.9573 -0.2892 -0.0000
vn 0.9381 0.3464 -0.0000
vn -0.9730 0.2307 -0.0000
vn 0.5034 -0.8641 -0.0000
vn 0.7527 0.6583 -0.0000
vn -0.9595 -0.2818 -0.0000
vn 0.9870 -0.1607 -0.0000
vn 0.1327 0.9912 -0.0000
vn -0.5715 0.8206 -0.0000
vn 0.9898 0.1426 -0.0000
vn -0.6866 0.7271 -0.0000
vn -0.9683 0.2499 -0.0000
vn -0.0550 0.9985 -0.0000
vn -0.9616 -0.2744 -0.0000
vn 0.9369 0.3495 -0.0000
vn -0.0416 0.9991 -0.0000
vn 0.9854 0.1703 -0.0000
vn -0.6573 0.7536 -0.0000
vn -0.8538 -0.5206 -0.0000
vn 0.5793 -0.8151 -0.0000
vn -0.9636 -0.2672 -0.0000
vn -0.9637 -0.2671 -0.0000
vn 0.9912 -0.1326 -0.0000
vn -0.0000 1.0000 -0.0000
vn 0.0572 0.9984 -0.0000
vn -0.6883 -0.7254 -0.0000
vn -0.9783 0.2071 -0.0000
vn -0.0257 0.9997 -0.0000
vn 0.6464 -0.7630 -0.0000
vn -0.9656 -0.2600 -0.0000
vn -0.9704 0.2414 -0.0000
vn -0.6449 0.7643 -0.0000
vn 0.9798 0.2000 -0.0000
vn -0.6283 0.7780 -0.0000
vn -0.2450 -0.9695 -0.0000
vn -0.9488 -0.3159 -0.0000
vn -0.9675 -0.2529 -0.0000
vn 0.9943 -0.1063 -0.0000
vn -0.9675 0.2527 -0.0000
vn -0.3996 -0.9167 -0.0000
vn -0.9862 0.1658 -0.0000
vn -0.2961 -0.9552 -0.0000
vn 0.7047 -0.7095 -0.0000
vn 0.7040 0.7102 -0.0000
vn -0.9693 -0.2460 -0.0000
vn -0.9644 0.2646 -0.0000
vn -0.3118 -0.9501 -0.0000
vn 0.9728 0.2316 -0.0000
vn -0.5639 0.8259 -0.0000
vn -0.3522 -0.9359 -0.0000
vn 0.7545 -0.6564 -0.0000
vn -0.9306 -0.3661 -0.0000
vn -0.9710 -0.2391 -0.0000
vn 0.9967 -0.0817 -0.0000
vn -0.9608 0.2771 -0.0000
vn -0.2215 -0.9752 -0.0000
vn -0.7094 0.7048 -0.0000
vn -0.9920 0.1260 -0.0000
vn -0.4134 -0.9105 -0.0000
vn 0.6486 0.7611 -0.0000
vn -0.9726 -0.2324 -0.0000
vn -0.9570 0.2902 -0.0000
vn -0.1311 -0.9914 -0.0000
vn 0.9642 0.2653 -0.0000
vn -0.4933 0.8698 -0.0000
vn -0.4794 -0.8776 -0.0000
vn 0.7965 -0.6046 -0.0000
vn -0.9088 -0.4172 -0.0000
vn -0.9884 -0.1521 -0.0000
vn 0.9983 -0.0586 -0.0000
vn -0.9526 0.3041 -0.0000
vn -0.0427 -0.9991 -0.0000
vn -0.6278 -0.7784 -0.0000
vn 1.0000 -0.0000 -0.0000
vn -0.9961 0.0878 -0.0000
vn -0.5494 -0.8356 -0.0000
vn -0.0000 -1.0000 -0.0000
vn 0.8317 -0.5552 -0.0000
vn -0.1287 0.9917 -0.0000
vn -0.8231 -0.5679 -0.0000
vn -0.7649 0.6441 -0.0000
vn 0.9536 0.3011 -0.0000
vn -0.4263 0.9046 -0.0000
vn -0.6530 -0.7574 -0.0000
vn -0.9884 0.1521 -0.0000
vn 0.9993 -0.0371 -0.0000
vn -0.9479 0.3187 -0.0000
vn -0.1987 -0.9801 -0.0000
vn -0.9987 0.0514 -0.0000
vn -0.6790 -0.7342 -0.0000
vn 0.5867 0.8098 -0.0000
vn -0.2195 0.9756 -0.0000
vn -0.9425 0.3342 -0.0000
vn -0.8832 -0.4690 -0.0000
vn -0.3638 0.9315 -0.0000
vn -0.7052 -0.7090 -0.0000
vn 0.9999 -0.0169 -0.0000
vn -0.9366 0.3505 -0.0000
vn -0.8117 0.5841 -0.0000
vn -0.1188 -0.9929 -0.0000
vn -0.9999 0.0167 -0.0000
vn -0.7316 -0.6817 -0.0000
vn 0.9482 0.3175 -0.0000
vn 0.5187 0.8549 -0.0000
vn -0.9226 0.3858 -0.0000
vn -0.8505 0.5259 -0.0000
vn -0.5590 -0.8292 -0.0000
vn -0.1567 -0.9876 -0.0000
vn -0.9999 -0.0173 -0.0000
vn -0.7580 -0.6522 -0.0000
vn 0.9473 0.3202 -0.0000
vn -0.3118 0.9502 -0.0000
vn -0.9020 0.4317 -0.0000
vn -0.8793 0.4764 -0.0000
vn -0.3062 0.9520 -0.0000
vn -0.7842 -0.6205 -0.0000
vn 0.9464 0.3229 -0.0000
vn 1.0000 0.0090 -0.0000
vn -0.7854 -0.6190 -0.0000
vn -0.0534 -0.9986 -0.0000
vt 0.181818 0.000000
vt 0.005348 0.000000
vt 0.176471 0.000000
vt 0.807487 0.000000
vt 0.604278 0.000000
vt 0.609626 0.000000
vt 0.171123 0.000000
vt 0.165775 0.000000
vt 0.160428 0.000000
vt 0.155080 0.000000
vt 0.149733 0.000000
vt 0.144385 0.000000
vt 0.139037 0.000000
vt 0.133690 0.000000
vt 0.128342 0.000000
vt 0.122995 0.000000
vt 0.117647 0.000000
vt 0.112299 0.000000
vt 0.106952 0.000000
vt 0.101604 0.000000
vt 0.096257 0.000000
vt 0.090909 0.000000
vt 0.085561 0.000000
vt 0.080214 0.000000
vt 0.074866 0.000000
vt 0.069519 0.000000
vt 0.064171 0.000000
vt 0.058824 0.000000
vt 0.053476 0.000000
vt 0.048128 0.000000
vt 0.042781 0.000000
vt 0.037433 0.000000
vt 0.032086 0.000000
vt 0.026738 0.000000
vt 0.021390 0.000000
vt 0.016043 0.000000
vt 0.010695 0.000000
vt 0.796791 0.000000
vt 0.802139 0.000000
vt 0.229947 0.000000
vt 0.000000 0.000000
vt 0.219251 0.000000
vt 0.967914 0.000000
vt 0.973262 0.000000
vt 0.187166 0.000000
vt 0.192513 0.000000
vt 0.213904 0.000000
vt 0.208556 0.000000
vt 0.786096 0.000000
vt 0.791444 0.000000
vt 0.245989 0.000000
vt 0.197861 0.000000
vt 0.203209 0.000000
vt 0.828877 0.000000
vt 0.737968 0.000000
vt 0.823529 0.000000
vt 0.331551 0.000000
vt 0.550802 0.000000
vt 0.326203 0.000000
vt 0.818182 0.000000
vt 0.748663 0.000000
vt 0.812834 0.000000
vt 0.224599 0.000000
vt 0.235294 0.000000
vt 0.240642 0.000000
vt 0.620321 0.000000
vt 0.935829 0.000000
vt 0.941176 0.000000
vt 0.743316 0.000000
vt 0.844920 0.000000
vt 0.721925 0.000000
vt 0.839572 0.000000
vt 0.251337 0.000000
vt 0.593583 0.000000
vt 0.278075 0.000000
vt 0.588235 0.000000
vt 0.256684 0.000000
vt 0.262032 0.000000
vt 0.780749 0.000000
vt 0.582888 0.000000
vt 0.994652 0.000000
vt 1.000000 0.000000
vt 0.267380 0.000000
vt 0.272727 0.000000
vt 0.775401 0.000000
vt 0.754011 0.000000
vt 0.759358 0.000000
vt 0.283422 0.000000
vt 0.577540 0.000000
vt 0.732620 0.000000
vt 0.572192 0.000000
vt 0.288770 0.000000
vt 0.294118 0.000000
vt 0.727273 0.000000
vt 0.834225 0.000000
vt 0.716578 0.000000
vt 0.770053 0.000000
vt 0.711230 0.000000
vt 0.850267 0.000000
vt 0.705882 0.000000
vt 0.855615 0.000000
vt 0.700535 0.000000
vt 0.860963 0.000000
vt 0.695187 0.000000
vt 0.866310 0.000000
vt 0.689840 0.000000
vt 0.871658 0.000000
vt 0.684492 0.000000
vt 0.877005 0.000000
vt 0.679144 0.000000
vt 0.673797 0.000000
vt 0.882353 0.000000
vt 0.978610 0.000000
vt 0.887701 0.000000
vt 0.668449 0.000000
vt 0.893048 0.000000
vt 0.663102 0.000000
vt 0.898396 0.000000
vt 0.657754 0.000000
vt 0.903743 0.000000
vt 0.652406 0.000000
vt 0.909091 0.000000
vt 0.647059 0.000000
vt 0.914438 0.000000
vt 0.641711 0.000000
vt 0.636364 0.000000
vt 0.919786 0.000000
vt 0.925134 0.000000
vt 0.631016 0.000000
vt 0.304813 0.000000
vt 0.561497 0.000000
vt 0.566845 0.000000
vt 0.930481 0.000000
vt 0.625668 0.000000
vt 0.534759 0.000000
vt 0.540107 0.000000
vt 0.545455 0.000000
vt 0.614973 0.000000
vt 0.989305 0.000000
vt 0.946524 0.000000
vt 0.951872 0.000000
vt 0.299465 0.000000
vt 0.957219 0.000000
vt 0.962567 0.000000
vt 0.529412 0.000000
vt 0.524064 0.000000
vt 0.518717 0.000000
vt 0.983957 0.000000
vt 0.513369 0.000000
vt 0.508021 0.000000
vt 0.502674 0.000000
vt 0.497326 0.000000
vt 0.491979 0.000000
vt 0.486631 0.000000
vt 0.481283 0.000000
vt 0.475936 0.000000
vt 0.470588 0.000000
vt 0.465241 0.000000
vt 0.459893 0.000000
vt 0.454545 0.000000
vt 0.449198 0.000000
vt 0.443850 0.000000
vt 0.438503 0.000000
vt 0.598930 0.000000
vt 0.433155 0.000000
vt 0.427807 0.000000
vt 0.422460 0.000000
vt 0.417112 0.000000
vt 0.411765 0.000000
vt 0.764706 0.000000
vt 0.406417 0.000000
vt 0.401070 0.000000
vt 0.358289 0.000000
vt 0.395722 0.000000
vt 0.390374 0.000000
vt 0.385027 0.000000
vt 0.379679 0.000000
vt 0.320856 0.000000
vt 0.374332 0.000000
vt 0.368984 0.000000
vt 0.363636 0.000000
vt 0.556150 0.000000
vt 0.310160 0.000000
vt 0.352941 0.000000
vt 0.347594 0.000000
vt 0.342246 0.000000
vt 0.315508 0.000000
vt 0.336898 0.000000
s 0
f 35/1/1 2/2/1 34/3/1
f 152/4/1 114/5/1 115/6/1
f 34/3/1 2/2/1 33/7/1
f 33/7/1 2/2/1 32/8/1
f 32/8/1 2/2/1 31/9/1
f 31/9/1 2/2/1 30/10/1
f 30/10/1 2/2/1 29/11/1
f 29/11/1 2/2/1 28/12/1
f 28/12/1 2/2/1 27/13/1
f 27/13/1 2/2/1 26/14/1
f 26/14/1 2/2/1 25/15/1
f 25/15/1 2/2/1 24/16/1
f 24/16/1 2/2/1 23/17/1
f 23/17/1 2/2/1 22/18/1
f 22/18/1 2/2/1 21/19/1
f 21/19/1 2/2/1 20/20/1
f 20/20/1 2/2/1 19/21/1
f 19/21/1 2/2/1 18/22/1
f 18/22/1 2/2/1 17/23/1
f 17/23/1 2/2/1 16/24/1
f 16/24/1 2/2/1 15/25/1
f 15/25/1 2/2/1 14/26/1
f 14/26/1 2/2/1 13/27/1
f 13/27/1 2/2/1 12/28/1
f 12/28/1 2/2/1 11/29/1
f 11/29/1 2/2/1 10/30/1
f 10/30/1 2/2/1 9/31/1
f 9/31/1 2/2/1 8/32/1
f 8/32/1 2/2/1 7/33/1
f 7/33/1 2/2/1 6/34/1
f 6/34/1 2/2/1 5/35/1
f 5/35/1 2/2/1 4/36/1
f 4/36/1 2/2/1 3/37/1
f 150/38/1 151/39/1 44/40/1
f 151/39/1 1/41/1 42/42/1
f 115/6/1 182/43/1 183/44/1
f 36/45/1 37/46/1 1/41/1
f 41/47/1 1/41/1 40/48/1
f 148/49/1 149/50/1 47/51/1
f 38/52/1 39/53/1 1/41/1
f 156/54/1 139/55/1 155/56/1
f 63/57/1 104/58/1 62/59/1
f 154/60/1 141/61/1 153/62/1
f 43/63/1 151/39/1 42/42/1
f 45/64/1 46/65/1 150/38/1
f 44/40/1 151/39/1 43/63/1
f 117/66/1 176/67/1 177/68/1
f 155/56/1 140/69/1 154/60/1
f 45/64/1 150/38/1 44/40/1
f 47/51/1 149/50/1 46/65/1
f 42/42/1 1/41/1 41/47/1
f 159/70/1 136/71/1 158/72/1
f 47/51/1 48/73/1 148/49/1
f 112/74/1 53/75/1 111/76/1
f 37/46/1 38/52/1 1/41/1
f 49/77/1 50/78/1 147/79/1
f 111/76/1 53/75/1 110/80/1
f 115/6/1 187/81/1 188/82/1
f 51/83/1 52/84/1 146/85/1
f 142/86/1 143/87/1 153/62/1
f 110/80/1 54/88/1 109/89/1
f 153/62/1 52/84/1 53/75/1
f 141/61/1 142/86/1 153/62/1
f 140/69/1 141/61/1 154/60/1
f 139/55/1 140/69/1 155/56/1
f 48/73/1 49/77/1 148/49/1
f 152/4/1 153/62/1 53/75/1
f 138/90/1 139/55/1 156/54/1
f 108/91/1 55/92/1 56/93/1
f 137/94/1 138/90/1 157/95/1
f 157/95/1 138/90/1 156/54/1
f 109/89/1 54/88/1 55/92/1
f 137/94/1 158/72/1 136/71/1
f 157/95/1 158/72/1 137/94/1
f 135/96/1 136/71/1 159/70/1
f 146/85/1 52/84/1 145/97/1
f 134/98/1 135/96/1 160/99/1
f 223/1/2 222/3/2 190/2/2
f 133/100/1 134/98/1 160/99/1
f 133/100/1 160/99/1 161/101/1
f 132/102/1 133/100/1 161/101/1
f 132/102/1 161/101/1 162/103/1
f 131/104/1 132/102/1 162/103/1
f 131/104/1 162/103/1 163/105/1
f 130/106/1 131/104/1 163/105/1
f 130/106/1 163/105/1 164/107/1
f 129/108/1 130/106/1 164/107/1
f 129/108/1 164/107/1 165/109/1
f 128/110/1 129/108/1 165/109/1
f 127/111/1 128/110/1 166/112/1
f 115/6/1 183/44/1 184/113/1
f 127/111/1 166/112/1 167/114/1
f 126/115/1 127/111/1 167/114/1
f 126/115/1 167/114/1 168/116/1
f 125/117/1 126/115/1 168/116/1
f 125/117/1 168/116/1 169/118/1
f 124/119/1 125/117/1 169/118/1
f 124/119/1 169/118/1 170/120/1
f 123/121/1 124/119/1 170/120/1
f 123/121/1 170/120/1 171/122/1
f 122/123/1 123/121/1 171/122/1
f 122/123/1 171/122/1 172/124/1
f 122/123/1 172/124/1 121/125/1
f 120/126/1 173/127/1 174/128/1
f 121/125/1 173/127/1 120/126/1
f 110/80/1 53/75/1 54/88/1
f 120/126/1 174/128/1 119/129/1
f 58/130/1 106/131/1 107/132/1
f 119/129/1 175/133/1 118/134/1
f 119/129/1 174/128/1 175/133/1
f 118/134/1 176/67/1 117/66/1
f 101/135/1 102/136/1 103/137/1
f 118/134/1 175/133/1 176/67/1
f 117/66/1 177/68/1 116/138/1
f 115/6/1 186/139/1 187/81/1
f 116/138/1 177/68/1 178/140/1
f 116/138/1 178/140/1 179/141/1
f 107/132/1 56/93/1 57/142/1
f 116/138/1 180/143/1 181/144/1
f 116/138/1 181/144/1 182/43/1
f 100/145/1 101/135/1 103/137/1
f 116/138/1 182/43/1 115/6/1
f 112/74/1 152/4/1 53/75/1
f 99/146/1 100/145/1 103/137/1
f 150/38/1 46/65/1 149/50/1
f 166/112/1 128/110/1 165/109/1
f 98/147/1 99/146/1 103/137/1
f 115/6/1 184/113/1 185/148/1
f 115/6/1 185/148/1 186/139/1
f 152/4/1 115/6/1 188/82/1
f 97/149/1 98/147/1 103/137/1
f 96/150/1 97/149/1 103/137/1
f 95/151/1 96/150/1 103/137/1
f 94/152/1 95/151/1 103/137/1
f 93/153/1 94/152/1 103/137/1
f 92/154/1 93/153/1 103/137/1
f 1/41/1 2/2/1 36/45/1
f 91/155/1 92/154/1 103/137/1
f 90/156/1 91/155/1 103/137/1
f 89/157/1 90/156/1 103/137/1
f 88/158/1 89/157/1 103/137/1
f 87/159/1 88/158/1 103/137/1
f 50/78/1 51/83/1 146/85/1
f 86/160/1 87/159/1 103/137/1
f 85/161/1 86/160/1 103/137/1
f 84/162/1 85/161/1 103/137/1
f 83/163/1 84/162/1 103/137/1
f 113/164/1 152/4/1 112/74/1
f 160/99/1 135/96/1 159/70/1
f 82/165/1 83/163/1 103/137/1
f 81/166/1 82/165/1 103/137/1
f 80/167/1 81/166/1 103/137/1
f 39/53/1 40/48/1 1/41/1
f 79/168/1 80/167/1 103/137/1
f 78/169/1 79/168/1 103/137/1
f 145/97/1 52/84/1 144/170/1
f 77/171/1 78/169/1 103/137/1
f 144/170/1 153/62/1 143/87/1
f 76/172/1 77/171/1 103/137/1
f 104/58/1 68/173/1 103/137/1
f 75/174/1 76/172/1 103/137/1
f 121/125/1 172/124/1 173/127/1
f 74/175/1 75/174/1 103/137/1
f 36/45/1 2/2/1 35/1/1
f 73/176/1 74/175/1 103/137/1
f 147/79/1 50/78/1 146/85/1
f 109/89/1 55/92/1 108/91/1
f 72/177/1 73/176/1 103/137/1
f 62/59/1 104/58/1 61/178/1
f 71/179/1 72/177/1 103/137/1
f 108/91/1 56/93/1 107/132/1
f 70/180/1 71/179/1 103/137/1
f 69/181/1 70/180/1 103/137/1
f 116/138/1 179/141/1 180/143/1
f 61/178/1 104/58/1 105/182/1
f 68/173/1 69/181/1 103/137/1
f 59/183/1 106/131/1 58/130/1
f 67/184/1 68/173/1 104/58/1
f 148/49/1 49/77/1 147/79/1
f 66/185/1 67/184/1 104/58/1
f 59/183/1 105/182/1 106/131/1
f 65/186/1 66/185/1 104/58/1
f 60/187/1 105/182/1 59/183/1
f 107/132/1 57/142/1 58/130/1
f 61/178/1 105/182/1 60/187/1
f 65/186/1 104/58/1 64/188/1
f 52/84/1 153/62/1 144/170/1
f 152/4/1 113/164/1 114/5/1
f 64/188/1 104/58/1 63/57/1
f 340/4/2 303/6/2 302/5/2
f 222/3/2 221/7/2 190/2/2
f 221/7/2 220/8/2 190/2/2
f 220/8/2 219/9/2 190/2/2
f 219/9/2 218/10/2 190/2/2
f 218/10/2 217/11/2 190/2/2
f 217/11/2 216/12/2 190/2/2
f 216/12/2 215/13/2 190/2/2
f 215/13/2 214/14/2 190/2/2
f 214/14/2 213/15/2 190/2/2
f 213/15/2 212/16/2 190/2/2
f 212/16/2 211/17/2 190/2/2
f 211/17/2 210/18/2 190/2/2
f 210/18/2 209/19/2 190/2/2
f 209/19/2 208/20/2 190/2/2
f 208/20/2 207/21/2 190/2/2
f 207/21/2 206/22/2 190/2/2
f 206/22/2 205/23/2 190/2/2
f 205/23/2 204/24/2 190/2/2
f 204/24/2 203/25/2 190/2/2
f 203/25/2 202/26/2 190/2/2
f 202/26/2 201/27/2 190/2/2
f 201/27/2 200/28/2 190/2/2
f 200/28/2 199/29/2 190/2/2
f 199/29/2 198/30/2 190/2/2
f 198/30/2 197/31/2 190/2/2
f 197/31/2 196/32/2 190/2/2
f 196/32/2 195/33/2 190/2/2
f 195/33/2 194/34/2 190/2/2
f 194/34/2 193/35/2 190/2/2
f 193/35/2 192/36/2 190/2/2
f 192/36/2 191/37/2 190/2/2
f 338/38/2 232/40/2 339/39/2
f 339/39/2 230/42/2 189/41/2
f 303/6/2 371/44/2 370/43/2
f 224/45/2 189/41/2 225/46/2
f 229/47/2 228/48/2 189/41/2
f 336/49/2 235/51/2 337/50/2
f 226/52/2 189/41/2 227/53/2
f 344/54/2 343/56/2 327/55/2
f 251/57/2 250/59/2 292/58/2
f 342/60/2 341/62/2 329/61/2
f 231/63/2 230/42/2 339/39/2
f 233/64/2 338/38/2 234/65/2
f 232/40/2 231/63/2 339/39/2
f 305/66/2 365/68/2 364/67/2
f 343/56/2 342/60/2 328/69/2
f 233/64/2 232/40/2 338/38/2
f 235/51/2 234/65/2 337/50/2
f 230/42/2 229/47/2 189/41/2
f 347/70/2 346/72/2 324/71/2
f 235/51/2 336/49/2 236/73/2
f 300/74/2 299/76/2 241/75/2
f 225/46/2 189/41/2 226/52/2
f 237/77/2 335/79/2 238/78/2
f 299/76/2 298/80/2 241/75/2
f 303/6/2 376/82/2 375/81/2
f 239/83/2 334/85/2 240/84/2
f 330/86/2 341/62/2 331/87/2
f 298/80/2 297/89/2 242/88/2
f 341/62/2 241/75/2 240/84/2
f 329/61/2 341/62/2 330/86/2
f 328/69/2 342/60/2 329/61/2
f 327/55/2 343/56/2 328/69/2
f 236/73/2 336/49/2 237/77/2
f 340/4/2 241/75/2 341/62/2
f 326/90/2 344/54/2 327/55/2
f 296/91/2 244/93/2 243/92/2
f 325/94/2 345/95/2 326/90/2
f 345/95/2 344/54/2 326/90/2
f 297/89/2 243/92/2 242/88/2
f 325/94/2 324/71/2 346/72/2
f 345/95/2 325/94/2 346/72/2
f 323/96/2 347/70/2 324/71/2
f 334/85/2 333/97/2 240/84/2
f 322/98/2 348/99/2 323/96/2
f 321/100/2 348/99/2 322/98/2
f 321/100/2 349/101/2 348/99/2
f 320/102/2 349/101/2 321/100/2
f 320/102/2 350/103/2 349/101/2
f 319/104/2 350/103/2 320/102/2
f 319/104/2 351/105/2 350/103/2
f 318/106/2 351/105/2 319/104/2
f 318/106/2 352/107/2 351/105/2
f 317/108/2 352/107/2 318/106/2
f 317/108/2 353/109/2 352/107/2
f 316/110/2 353/109/2 317/108/2
f 315/111/2 354/112/2 316/110/2
f 303/6/2 372/113/2 371/44/2
f 315/111/2 355/114/2 354/112/2
f 314/115/2 355/114/2 315/111/2
f 314/115/2 356/116/2 355/114/2
f 313/117/2 356/116/2 314/115/2
f 313/117/2 357/118/2 356/116/2
f 312/119/2 357/118/2 313/117/2
f 312/119/2 358/120/2 357/118/2
f 311/121/2 358/120/2 312/119/2
f 311/121/2 359/122/2 358/120/2
f 310/123/2 359/122/2 311/121/2
f 310/123/2 360/124/2 359/122/2
f 310/123/2 309/125/2 360/124/2
f 308/126/2 362/128/2 361/127/2
f 309/125/2 308/126/2 361/127/2
f 298/80/2 242/88/2 241/75/2
f 308/126/2 307/129/2 362/128/2
f 246/130/2 295/132/2 294/131/2
f 307/129/2 306/134/2 363/133/2
f 307/129/2 363/133/2 362/128/2
f 306/134/2 305/66/2 364/67/2
f 289/135/2 291/137/2 290/136/2
f 306/134/2 364/67/2 363/133/2
f 305/66/2 304/138/2 365/68/2
f 303/6/2 375/81/2 374/139/2
f 304/138/2 366/140/2 365/68/2
f 304/138/2 367/141/2 366/140/2
f 295/132/2 245/142/2 244/93/2
f 304/138/2 369/144/2 368/143/2
f 304/138/2 370/43/2 369/144/2
f 288/145/2 291/137/2 289/135/2
f 304/138/2 303/6/2 370/43/2
f 300/74/2 241/75/2 340/4/2
f 287/146/2 291/137/2 288/145/2
f 338/38/2 337/50/2 234/65/2
f 354/112/2 353/109/2 316/110/2
f 286/147/2 291/137/2 287/146/2
f 303/6/2 373/148/2 372/113/2
f 303/6/2 374/139/2 373/148/2
f 340/4/2 376/82/2 303/6/2
f 285/149/2 291/137/2 286/147/2
f 284/150/2 291/137/2 285/149/2
f 283/151/2 291/137/2 284/150/2
f 282/152/2 291/137/2 283/151/2
f 281/153/2 291/137/2 282/152/2
f 280/154/2 291/137/2 281/153/2
f 189/41/2 224/45/2 190/2/2
f 279/155/2 291/137/2 280/154/2
f 278/156/2 291/137/2 279/155/2
f 277/157/2 291/137/2 278/156/2
f 276/158/2 291/137/2 277/157/2
f 275/159/2 291/137/2 276/158/2
f 238/78/2 334/85/2 239/83/2
f 274/160/2 291/137/2 275/159/2
f 273/161/2 291/137/2 274/160/2
f 272/162/2 291/137/2 273/161/2
f 271/163/2 291/137/2 272/162/2
f 301/164/2 300/74/2 340/4/2
f 348/99/2 347/70/2 323/96/2
f 270/165/2 291/137/2 271/163/2
f 269/166/2 291/137/2 270/165/2
f 268/167/2 291/137/2 269/166/2
f 227/53/2 189/41/2 228/48/2
f 267/168/2 291/137/2 268/167/2
f 266/169/2 291/137/2 267/168/2
f 333/97/2 332/170/2 240/84/2
f 265/171/2 291/137/2 266/169/2
f 332/170/2 331/87/2 341/62/2
f 264/172/2 291/137/2 265/171/2
f 292/58/2 291/137/2 256/173/2
f 263/174/2 291/137/2 264/172/2
f 309/125/2 361/127/2 360/124/2
f 262/175/2 291/137/2 263/174/2
f 224/45/2 223/1/2 190/2/2
f 261/176/2 291/137/2 262/175/2
f 335/79/2 334/85/2 238/78/2
f 297/89/2 296/91/2 243/92/2
f 260/177/2 291/137/2 261/176/2
f 250/59/2 249/178/2 292/58/2
f 259/179/2 291/137/2 260/177/2
f 296/91/2 295/132/2 244/93/2
f 258/180/2 291/137/2 259/179/2
f 257/181/2 291/137/2 258/180/2
f 304/138/2 368/143/2 367/141/2
f 249/178/2 293/182/2 292/58/2
f 256/173/2 291/137/2 257/181/2
f 247/183/2 246/130/2 294/131/2
f 255/184/2 292/58/2 256/173/2
f 336/49/2 335/79/2 237/77/2
f 254/185/2 292/58/2 255/184/2
f 247/183/2 294/131/2 293/182/2
f 253/186/2 292/58/2 254/185/2
f 248/187/2 247/183/2 293/182/2
f 295/132/2 246/130/2 245/142/2
f 249/178/2 248/187/2 293/182/2
f 253/186/2 252/188/2 292/58/2
f 240/84/2 332/170/2 341/62/2
f 340/4/2 302/5/2 301/164/2
f 252/188/2 251/57/2 292/58/2
f 22/18/3 21/19/3 209/19/3 210/18/3
f 154/60/4 153/62/4 341/62/4 342/60/4
f 181/144/5 180/143/5 368/143/5 369/144/5
f 60/187/6 59/183/6 247/183/6 248/187/6
f 167/114/7 166/112/7 354/112/7 355/114/7
f 87/159/8 86/160/8 274/160/8 275/159/8
f 153/62/9 152/4/9 340/4/9 341/62/9
f 72/177/10 71/179/10 259/179/10 260/177/10
f 38/52/11 37/46/11 225/46/11 226/52/11
f 127/111/12 126/115/12 314/115/12 315/111/12
f 21/19/13 20/20/13 208/20/13 209/19/13
f 182/43/14 181/144/14 369/144/14 370/43/14
f 148/49/15 147/79/15 335/79/15 336/49/15
f 86/160/16 85/161/16 273/161/16 274/160/16
f 139/55/17 138/90/17 326/90/17 327/55/17
f 20/20/18 19/21/18 207/21/18 208/20/18
f 183/44/19 182/43/19 370/43/19 371/44/19
f 61/178/20 60/187/20 248/187/20 249/178/20
f 168/116/21 167/114/21 355/114/21 356/116/21
f 85/161/22 84/162/22 272/162/22 273/161/22
f 71/179/23 70/180/23 258/180/23 259/179/23
f 40/48/24 39/53/24 227/53/24 228/48/24
f 126/115/25 125/117/25 313/117/25 314/115/25
f 19/21/26 18/22/26 206/22/26 207/21/26
f 155/56/27 154/60/27 342/60/27 343/56/27
f 184/113/28 183/44/28 371/44/28 372/113/28
f 84/162/29 83/163/29 271/163/29 272/162/29
f 138/90/30 137/94/30 325/94/30 326/90/30
f 101/135/31 100/145/31 288/145/31 289/135/31
f 70/180/32 69/181/32 257/181/32 258/180/32
f 41/47/33 40/48/33 228/48/33 229/47/33
f 18/22/34 17/23/34 205/23/34 206/22/34
f 169/118/35 168/116/35 356/116/35 357/118/35
f 114/5/36 113/164/36 301/164/36 302/5/36
f 110/80/37 109/89/37 297/89/37 298/80/37
f 42/42/38 41/47/38 229/47/38 230/42/38
f 125/117/39 124/119/39 312/119/39 313/117/39
f 17/23/40 16/24/40 204/24/40 205/23/40
f 156/54/41 155/56/41 343/56/41 344/54/41
f 185/148/42 184/113/42 372/113/42 373/148/42
f 137/94/43 136/71/43 324/71/43 325/94/43
f 43/63/44 42/42/44 230/42/44 231/63/44
f 54/88/45 53/75/45 241/75/45 242/88/45
f 16/24/46 15/25/46 203/25/46 204/24/46
f 186/139/47 185/148/47 373/148/47 374/139/47
f 62/59/48 61/178/48 249/178/48 250/59/48
f 147/79/49 146/85/49 334/85/49 335/79/49
f 170/120/50 169/118/50 357/118/50 358/120/50
f 83/163/51 82/165/51 270/165/51 271/163/51
f 100/145/52 99/146/52 287/146/52 288/145/52
f 69/181/53 68/173/53 256/173/53 257/181/53
f 124/119/54 123/121/54 311/121/54 312/119/54
f 15/25/55 14/26/55 202/26/55 203/25/55
f 157/95/56 156/54/56 344/54/56 345/95/56
f 82/165/57 81/166/57 269/166/57 270/165/57
f 44/40/58 43/63/58 231/63/58 232/40/58
f 14/26/59 13/27/59 201/27/59 202/26/59
f 158/72/60 157/95/60 345/95/60 346/72/60
f 187/81/61 186/139/61 374/139/61 375/81/61
f 63/57/62 62/59/62 250/59/62 251/57/62
f 171/122/63 170/120/63 358/120/63 359/122/63
f 81/166/64 80/167/64 268/167/64 269/166/64
f 136/71/65 135/96/65 323/96/65 324/71/65
f 68/173/66 67/184/66 255/184/66 256/173/66
f 45/64/67 44/40/67 232/40/67 233/64/67
f 123/121/68 122/123/68 310/123/68 311/121/68
f 13/27/69 12/28/69 200/28/69 201/27/69
f 188/82/70 187/81/70 375/81/70 376/82/70
f 99/146/71 98/147/71 286/147/71 287/146/71
f 46/65/72 45/64/72 233/64/72 234/65/72
f 55/92/73 54/88/73 242/88/73 243/92/73
f 12/28/74 11/29/74 199/29/74 200/28/74
f 159/70/75 158/72/75 346/72/75 347/70/75
f 64/188/76 63/57/76 251/57/76 252/188/76
f 146/85/77 145/97/77 333/97/77 334/85/77
f 172/124/78 171/122/78 359/122/78 360/124/78
f 80/167/79 79/168/79 267/168/79 268/167/79
f 135/96/80 134/98/80 322/98/80 323/96/80
f 67/184/81 66/185/81 254/185/81 255/184/81
f 11/29/82 10/30/82 198/30/82 199/29/82
f 152/4/83 188/82/83 376/82/83 340/4/83
f 1/41/84 151/39/84 339/39/84 189/41/84
f 173/127/85 172/124/85 360/124/85 361/127/85
f 79/168/86 78/169/86 266/169/86 267/168/86
f 117/66/87 116/138/87 304/138/87 305/66/87
f 47/51/88 46/65/88 234/65/88 235/51/88
f 122/123/89 121/125/89 309/125/89 310/123/89
f 10/30/90 9/31/90 197/31/90 198/30/90
f 160/99/91 159/70/91 347/70/91 348/99/91
f 2/2/92 1/41/92 189/41/92 190/2/92
f 65/186/93 64/188/93 252/188/93 253/186/93
f 113/164/94 112/74/94 300/74/94 301/164/94
f 134/98/95 133/100/95 321/100/95 322/98/95
f 66/185/96 65/186/96 253/186/96 254/185/96
f 48/73/97 47/51/97 235/51/97 236/73/97
f 9/31/98 8/32/98 196/32/98 197/31/98
f 98/147/99 97/149/99 285/149/99 286/147/99
f 145/97/100 144/170/100 332/170/100 333/97/100
f 174/128/101 173/127/101 361/127/101 362/128/101
f 78/169/102 77/171/102 265/171/102 266/169/102
f 34/3/103 33/7/103 221/7/103 222/3/103
f 121/125/104 120/126/104 308/126/104 309/125/104
f 8/32/105 7/33/105 195/33/105 196/32/105
f 161/101/106 160/99/106 348/99/106 349/101/106
f 97/149/107 96/150/107 284/150/107 285/149/107
f 109/89/108 108/91/108 296/91/108 297/89/108
f 133/100/109 132/102/109 320/102/109 321/100/109
f 33/7/110 32/8/110 220/8/110 221/7/110
f 49/77/111 48/73/111 236/73/111 237/77/111
f 56/93/112 55/92/112 243/92/112 244/93/112
f 7/33/113 6/34/113 194/34/113 195/33/113
f 96/150/114 95/151/114 283/151/114 284/150/114
f 108/91/115 107/132/115 295/132/115 296/91/115
f 175/133/116 174/128/116 362/128/116 363/133/116
f 77/171/117 76/172/117 264/172/117 265/171/117
f 32/8/118 31/9/118 219/9/118 220/8/118
f 50/78/119 49/77/119 237/77/119 238/78/119
f 120/126/120 119/129/120 307/129/120 308/126/120
f 6/34/121 5/35/121 193/35/121 194/34/121
f 162/103/122 161/101/122 349/101/122 350/103/122
f 95/151/123 94/152/123 282/152/123 283/151/123
f 107/132/124 106/131/124 294/131/124 295/132/124
f 144/170/125 143/87/125 331/87/125 332/170/125
f 132/102/126 131/104/126 319/104/126 320/102/126
f 31/9/127 30/10/127 218/10/127 219/9/127
f 57/142/128 56/93/128 244/93/128 245/142/128
f 5/35/129 4/36/129 192/36/129 193/35/129
f 94/152/130 93/153/130 281/153/130 282/152/130
f 106/131/131 105/182/131 293/182/131 294/131/131
f 176/67/132 175/133/132 363/133/132 364/67/132
f 76/172/133 75/174/133 263/174/133 264/172/133
f 30/10/134 29/11/134 217/11/134 218/10/134
f 51/83/135 50/78/135 238/78/135 239/83/135
f 119/129/136 118/134/136 306/134/136 307/129/136
f 4/36/137 3/37/137 191/37/137 192/36/137
f 163/105/138 162/103/138 350/103/138 351/105/138
f 93/153/139 92/154/139 280/154/139 281/153/139
f 105/182/140 104/58/140 292/58/140 293/182/140
f 112/74/141 111/76/141 299/76/141 300/74/141
f 3/37/142 2/2/142 190/2/142 191/37/142
f 131/104/143 130/106/143 318/106/143 319/104/143
f 29/11/144 28/12/144 216/12/144 217/11/144
f 104/58/145 103/137/145 291/137/145 292/58/145
f 52/84/146 51/83/146 239/83/146 240/84/146
f 151/39/147 150/38/147 338/38/147 339/39/147
f 116/138/148 115/6/148 303/6/148 304/138/148
f 143/87/149 142/86/149 330/86/149 331/87/149
f 177/68/150 176/67/150 364/67/150 365/68/150
f 75/174/151 74/175/151 262/175/151 263/174/151
f 28/12/152 27/13/152 215/13/152 216/12/152
f 102/136/153 101/135/153 289/135/153 290/136/153
f 164/107/154 163/105/154 351/105/154 352/107/154
f 92/154/155 91/155/155 279/155/155 280/154/155
f 35/1/156 34/3/156 222/3/156 223/1/156
f 130/106/157 129/108/157 317/108/157 318/106/157
f 27/13/158 26/14/158 214/14/158 215/13/158
f 103/137/142 102/136/142 290/136/142 291/137/142
f 58/130/159 57/142/159 245/142/159 246/130/159
f 150/38/160 149/50/160 337/50/160 338/38/160
f 91/155/161 90/156/161 278/156/161 279/155/161
f 118/134/162 117/66/162 305/66/162 306/134/162
f 74/175/163 73/176/163 261/176/163 262/175/163
f 26/14/164 25/15/164 213/15/164 214/14/164
f 53/75/142 52/84/142 240/84/142 241/75/142
f 165/109/165 164/107/165 352/107/165 353/109/165
f 90/156/166 89/157/166 277/157/166 278/156/166
f 142/86/167 141/61/167 329/61/167 330/86/167
f 37/46/168 36/45/168 224/45/168 225/46/168
f 129/108/169 128/110/169 316/110/169 317/108/169
f 25/15/170 24/16/170 212/16/170 213/15/170
f 178/140/171 177/68/171 365/68/171 366/140/171
f 59/183/172 58/130/172 246/130/172 247/183/172
f 89/157/173 88/158/173 276/158/173 277/157/173
f 141/61/174 140/69/174 328/69/174 329/61/174
f 111/76/175 110/80/175 298/80/175 299/76/175
f 36/45/176 35/1/176 223/1/176 224/45/176
f 128/110/177 127/111/177 315/111/177 316/110/177
f 24/16/178 23/17/178 211/17/178 212/16/178
f 179/141/179 178/140/179 366/140/179 367/141/179
f 149/50/180 148/49/180 336/49/180 337/50/180
f 88/158/181 87/159/181 275/159/181 276/158/181
f 140/69/182 139/55/182 327/55/182 328/69/182
f 73/176/183 72/177/183 260/177/183 261/176/183
f 23/17/184 22/18/184 210/18/184 211/17/184
f 180/143/185 179/141/185 367/141/185 368/143/185
f 166/112/186 165/109/186 353/109/186 354/112/186
f 115/6/187 114/5/187 302/5/187 303/6/187
f 39/53/188 38/52/188 226/52/188 227/53/188
