# Blender 4.5.8 LTS
# www.blender.org
mtllib text_r.mtl
o text_r.001
v -0.139130 0.129565 -0.025000
v -0.139130 -0.365217 -0.025000
v 0.015652 -0.365217 -0.025000
v 0.015652 -0.082609 -0.025000
v 0.022339 -0.067163 -0.025000
v 0.029730 -0.053394 -0.025000
v 0.037731 -0.041236 -0.025000
v 0.046248 -0.030628 -0.025000
v 0.055188 -0.021505 -0.025000
v 0.064457 -0.013804 -0.025000
v 0.073961 -0.007462 -0.025000
v 0.083607 -0.002416 -0.025000
v 0.093302 0.001399 -0.025000
v 0.102951 0.004046 -0.025000
v 0.112461 0.005587 -0.025000
v 0.121739 0.006087 -0.025000
v 0.127035 0.006016 -0.025000
v 0.132077 0.005809 -0.025000
v 0.136902 0.005476 -0.025000
v 0.141546 0.005024 -0.025000
v 0.146045 0.004464 -0.025000
v 0.150435 0.003804 -0.025000
v 0.154752 0.003054 -0.025000
v 0.159034 0.002222 -0.025000
v 0.163315 0.001318 -0.025000
v 0.167633 0.000350 -0.025000
v 0.172023 -0.000672 -0.025000
v 0.176522 -0.001739 -0.025000
v 0.201739 0.131304 -0.025000
v 0.198200 0.132788 -0.025000
v 0.194517 0.134191 -0.025000
v 0.190652 0.135503 -0.025000
v 0.186570 0.136715 -0.025000
v 0.182234 0.137819 -0.025000
v 0.177609 0.138804 -0.025000
v 0.172657 0.139663 -0.025000
v 0.167343 0.140386 -0.025000
v 0.161630 0.140965 -0.025000
v 0.155483 0.141389 -0.025000
v 0.148865 0.141650 -0.025000
v 0.141739 0.141739 -0.025000
v 0.129253 0.141068 -0.025000
v 0.116630 0.139050 -0.025000
v 0.103954 0.135679 -0.025000
v 0.091304 0.130950 -0.025000
v 0.078764 0.124856 -0.025000
v 0.066413 0.117391 -0.025000
v 0.054334 0.108550 -0.025000
v 0.042609 0.098325 -0.025000
v 0.031318 0.086712 -0.025000
v 0.020544 0.073704 -0.025000
v 0.010367 0.059294 -0.025000
v 0.000870 0.043478 -0.025000
v -0.001739 0.043478 -0.025000
v -0.013043 0.129565 -0.025000
v -0.139130 0.129565 0.025000
v -0.139130 -0.365217 0.025000
v 0.015652 -0.365217 0.025000
v 0.015652 -0.082609 0.025000
v 0.022339 -0.067163 0.025000
v 0.029730 -0.053394 0.025000
v 0.037731 -0.041236 0.025000
v 0.046248 -0.030628 0.025000
v 0.055188 -0.021505 0.025000
v 0.064457 -0.013804 0.025000
v 0.073961 -0.007462 0.025000
v 0.083607 -0.002416 0.025000
v 0.093302 0.001399 0.025000
v 0.102951 0.004046 0.025000
v 0.112461 0.005587 0.025000
v 0.121739 0.006087 0.025000
v 0.127035 0.006016 0.025000
v 0.132077 0.005809 0.025000
v 0.136902 0.005476 0.025000
v 0.141546 0.005024 0.025000
v 0.146045 0.004464 0.025000
v 0.150435 0.003804 0.025000
v 0.154752 0.003054 0.025000
v 0.159034 0.002222 0.025000
v 0.163315 0.001318 0.025000
v 0.167633 0.000350 0.025000
v 0.172023 -0.000672 0.025000
v 0.176522 -0.001739 0.025000
v 0.201739 0.131304 0.025000
v 0.198200 0.132788 0.025000
v 0.194517 0.134191 0.025000
v 0.190652 0.135503 0.025000
v 0.186570 0.136715 0.025000
v 0.182234 0.137819 0.025000
v 0.177609 0.138804 0.025000
v 0.172657 0.139663 0.025000
v 0.167343 0.140386 0.025000
v 0.161630 0.140965 0.025000
v 0.155483 0.141389 0.025000
v 0.148865 0.141650 0.025000
v 0.141739 0.141739 0.025000
v 0.129253 0.141068 0.025000
v 0.116630 0.139050 0.025000
v 0.103954 0.135679 0.025000
v 0.091304 0.130950 0.025000
v 0.078764 0.124856 0.025000
v 0.066413 0.117391 0.025000
v 0.054334 0.108550 0.025000
v 0.042609 0.098325 0.025000
v 0.031318 0.086712 0.025000
v 0.020544 0.073704 0.025000
v 0.010367 0.059294 0.025000
v 0.000870 0.043478 0.025000
v -0.001739 0.043478 0.025000
v -0.013043 0.129565 0.025000
vn -0.0000 -0.0000 -1.0000
vn -0.0000 -0.0000 1.0000
vn -0.1486 -0.9889 -0.0000
vn 0.7142 -0.6999 -0.0000
vn 0.1007 0.9949 -0.0000
vn -0.0000 1.0000 -0.0000
vn -0.1712 -0.9852 -0.0000
vn 0.6390 -0.7692 -0.0000
vn 0.1348 0.9909 -0.0000
vn 0.9915 0.1302 -0.0000
vn -0.1907 -0.9816 -0.0000
vn 0.5551 -0.8318 -0.0000
vn -0.5173 0.8558 -0.0000
vn 0.1709 0.9853 -0.0000
vn -0.2570 0.9664 -0.0000
vn -0.2067 -0.9784 -0.0000
vn 0.4636 -0.8861 -0.0000
vn -0.5907 0.8069 -0.0000
vn -0.2187 -0.9758 -0.0000
vn 0.3662 -0.9305 -0.0000
vn -0.6572 0.7537 -0.0000
vn 0.2084 0.9780 -0.0000
vn -0.2267 -0.9740 -0.0000
vn 0.2645 -0.9644 -0.0000
vn -0.7170 0.6971 -0.0000
vn 0.2467 0.9691 -0.0000
vn -0.2308 -0.9730 -0.0000
vn 0.1600 -0.9871 -0.0000
vn -0.7701 0.6379 -0.0000
vn 0.2847 0.9586 -0.0000
vn -0.3502 0.9367 -0.0000
vn 0.8811 -0.4729 -0.0000
vn 0.0538 -0.9986 -0.0000
vn -0.8168 0.5769 -0.0000
vn 0.9177 -0.3973 -0.0000
vn -0.0134 -0.9999 -0.0000
vn -0.8573 0.5148 -0.0000
vn 0.3214 0.9469 -0.0000
vn -0.0537 0.9986 -0.0000
vn -0.0000 -1.0000 -0.0000
vn 1.0000 -0.0000 -0.0000
vn -0.0410 -0.9992 -0.0000
vn 0.3558 0.9346 -0.0000
vn 0.0125 0.9999 -0.0000
vn -0.0690 -0.9976 -0.0000
vn 0.3867 0.9222 -0.0000
vn 0.0394 0.9992 -0.0000
vn -0.0967 -0.9953 -0.0000
vn 0.8353 -0.5497 -0.0000
vn 0.9825 -0.1862 -0.0000
vn 0.0688 0.9976 -0.0000
vn -0.4371 0.8994 -0.0000
vn -0.1579 0.9875 -0.0000
vn -0.1235 -0.9923 -0.0000
vn 0.7798 -0.6261 -0.0000
vn -1.0000 -0.0000 -0.0000
vt 0.759259 0.000000
vt 0.740741 0.000000
vt 0.722222 0.000000
vt 0.703704 0.000000
vt 0.685185 0.000000
vt 0.777778 0.000000
vt 0.666667 0.000000
vt 0.648148 0.000000
vt 0.629630 0.000000
vt 0.796296 0.000000
vt 0.611111 0.000000
vt 0.592593 0.000000
vt 0.574074 0.000000
vt 0.814815 0.000000
vt 0.555556 0.000000
vt 0.537037 0.000000
vt 0.518519 0.000000
vt 0.500000 0.000000
vt 0.833333 0.000000
vt 0.018519 0.000000
vt 0.000000 0.000000
vt 1.000000 0.000000
vt 0.981481 0.000000
vt 0.851852 0.000000
vt 0.870370 0.000000
vt 0.888889 0.000000
vt 0.907407 0.000000
vt 0.925926 0.000000
vt 0.944444 0.000000
vt 0.962963 0.000000
vt 0.092593 0.000000
vt 0.111111 0.000000
vt 0.129630 0.000000
vt 0.148148 0.000000
vt 0.166667 0.000000
vt 0.185185 0.000000
vt 0.203704 0.000000
vt 0.222222 0.000000
vt 0.240741 0.000000
vt 0.259259 0.000000
vt 0.277778 0.000000
vt 0.296296 0.000000
vt 0.314815 0.000000
vt 0.333333 0.000000
vt 0.351852 0.000000
vt 0.370370 0.000000
vt 0.388889 0.000000
vt 0.407407 0.000000
vt 0.425926 0.000000
vt 0.444444 0.000000
vt 0.462963 0.000000
vt 0.481481 0.000000
vt 0.074074 0.000000
vt 0.055556 0.000000
vt 0.037037 0.000000
s 0
f 42/1/1 41/2/1 40/3/1
f 42/1/1 40/3/1 39/4/1
f 42/1/1 39/4/1 38/5/1
f 43/6/1 42/1/1 38/5/1
f 43/6/1 38/5/1 37/7/1
f 43/6/1 37/7/1 36/8/1
f 43/6/1 36/8/1 35/9/1
f 44/10/1 43/6/1 35/9/1
f 44/10/1 35/9/1 34/11/1
f 44/10/1 34/11/1 33/12/1
f 44/10/1 33/12/1 32/13/1
f 45/14/1 44/10/1 32/13/1
f 45/14/1 32/13/1 31/15/1
f 45/14/1 31/15/1 30/16/1
f 45/14/1 30/16/1 29/17/1
f 45/14/1 29/17/1 28/18/1
f 46/19/1 45/14/1 28/18/1
f 2/20/1 1/21/1 55/22/1
f 2/20/1 55/22/1 54/23/1
f 47/24/1 46/19/1 28/18/1
f 48/25/1 47/24/1 28/18/1
f 49/26/1 48/25/1 28/18/1
f 50/27/1 49/26/1 28/18/1
f 51/28/1 50/27/1 28/18/1
f 52/29/1 51/28/1 28/18/1
f 53/30/1 52/29/1 28/18/1
f 2/20/1 54/23/1 53/30/1
f 2/20/1 53/30/1 6/31/1
f 6/31/1 53/30/1 7/32/1
f 7/32/1 53/30/1 8/33/1
f 8/33/1 53/30/1 9/34/1
f 9/34/1 53/30/1 10/35/1
f 10/35/1 53/30/1 11/36/1
f 11/36/1 53/30/1 12/37/1
f 12/37/1 53/30/1 13/38/1
f 13/38/1 53/30/1 14/39/1
f 14/39/1 53/30/1 15/40/1
f 15/40/1 53/30/1 16/41/1
f 16/41/1 53/30/1 17/42/1
f 17/42/1 53/30/1 18/43/1
f 18/43/1 53/30/1 19/44/1
f 19/44/1 53/30/1 20/45/1
f 20/45/1 53/30/1 21/46/1
f 21/46/1 53/30/1 22/47/1
f 22/47/1 53/30/1 23/48/1
f 23/48/1 53/30/1 24/49/1
f 24/49/1 53/30/1 25/50/1
f 25/50/1 53/30/1 26/51/1
f 26/51/1 53/30/1 27/52/1
f 27/52/1 53/30/1 28/18/1
f 2/20/1 6/31/1 5/53/1
f 2/20/1 5/53/1 4/54/1
f 2/20/1 4/54/1 3/55/1
f 97/1/2 95/3/2 96/2/2
f 97/1/2 94/4/2 95/3/2
f 97/1/2 93/5/2 94/4/2
f 98/6/2 93/5/2 97/1/2
f 98/6/2 92/7/2 93/5/2
f 98/6/2 91/8/2 92/7/2
f 98/6/2 90/9/2 91/8/2
f 99/10/2 90/9/2 98/6/2
f 99/10/2 89/11/2 90/9/2
f 99/10/2 88/12/2 89/11/2
f 99/10/2 87/13/2 88/12/2
f 100/14/2 87/13/2 99/10/2
f 100/14/2 86/15/2 87/13/2
f 100/14/2 85/16/2 86/15/2
f 100/14/2 84/17/2 85/16/2
f 100/14/2 83/18/2 84/17/2
f 101/19/2 83/18/2 100/14/2
f 57/20/2 110/22/2 56/21/2
f 57/20/2 109/23/2 110/22/2
f 102/24/2 83/18/2 101/19/2
f 103/25/2 83/18/2 102/24/2
f 104/26/2 83/18/2 103/25/2
f 105/27/2 83/18/2 104/26/2
f 106/28/2 83/18/2 105/27/2
f 107/29/2 83/18/2 106/28/2
f 108/30/2 83/18/2 107/29/2
f 57/20/2 108/30/2 109/23/2
f 57/20/2 61/31/2 108/30/2
f 61/31/2 62/32/2 108/30/2
f 62/32/2 63/33/2 108/30/2
f 63/33/2 64/34/2 108/30/2
f 64/34/2 65/35/2 108/30/2
f 65/35/2 66/36/2 108/30/2
f 66/36/2 67/37/2 108/30/2
f 67/37/2 68/38/2 108/30/2
f 68/38/2 69/39/2 108/30/2
f 69/39/2 70/40/2 108/30/2
f 70/40/2 71/41/2 108/30/2
f 71/41/2 72/42/2 108/30/2
f 72/42/2 73/43/2 108/30/2
f 73/43/2 74/44/2 108/30/2
f 74/44/2 75/45/2 108/30/2
f 75/45/2 76/46/2 108/30/2
f 76/46/2 77/47/2 108/30/2
f 77/47/2 78/48/2 108/30/2
f 78/48/2 79/49/2 108/30/2
f 79/49/2 80/50/2 108/30/2
f 80/50/2 81/51/2 108/30/2
f 81/51/2 82/52/2 108/30/2
f 82/52/2 83/18/2 108/30/2
f 57/20/2 60/53/2 61/31/2
f 57/20/2 59/54/2 60/53/2
f 57/20/2 58/55/2 59/54/2
f 22/47/3 76/46/3 21/46/3
f 8/33/4 64/34/4 63/33/4
f 38/5/5 92/7/5 37/7/5
f 1/21/6 110/22/6 55/22/6
f 23/48/7 77/47/7 22/47/7
f 9/34/8 65/35/8 64/34/8
f 37/7/9 91/8/9 36/8/9
f 55/22/10 109/23/10 54/23/10
f 24/49/11 78/48/11 23/48/11
f 11/36/12 65/35/12 10/35/12
f 47/24/13 101/19/13 46/19/13
f 36/8/14 90/9/14 35/9/14
f 44/10/15 98/6/15 43/6/15
f 25/50/16 79/49/16 24/49/16
f 12/37/17 66/36/17 11/36/17
f 48/25/18 102/24/18 47/24/18
f 25/50/19 81/51/19 80/50/19
f 13/38/20 67/37/20 12/37/20
f 49/26/21 103/25/21 48/25/21
f 35/9/22 89/11/22 34/11/22
f 26/51/23 82/52/23 81/51/23
f 13/38/24 69/39/24 68/38/24
f 50/27/25 104/26/25 49/26/25
f 34/11/26 88/12/26 33/12/26
f 27/52/27 83/18/27 82/52/27
f 15/40/28 69/39/28 14/39/28
f 51/28/29 105/27/29 50/27/29
f 33/12/30 87/13/30 32/13/30
f 45/14/31 99/10/31 44/10/31
f 5/53/32 61/31/32 60/53/32
f 16/41/33 70/40/33 15/40/33
f 52/29/34 106/28/34 51/28/34
f 5/53/35 59/54/35 4/54/35
f 17/42/36 71/41/36 16/41/36
f 53/30/37 107/29/37 52/29/37
f 32/13/38 86/15/38 31/15/38
f 42/1/39 96/2/39 41/2/39
f 3/55/40 57/20/40 2/20/40
f 4/54/41 58/55/41 3/55/41
f 18/43/42 72/42/42 17/42/42
f 31/15/43 85/16/43 30/16/43
f 41/2/44 95/3/44 40/3/44
f 54/23/6 108/30/6 53/30/6
f 19/44/45 73/43/45 18/43/45
f 30/16/46 84/17/46 29/17/46
f 40/3/47 94/4/47 39/4/47
f 20/45/48 74/44/48 19/44/48
f 7/32/49 61/31/49 6/31/49
f 29/17/50 83/18/50 28/18/50
f 39/4/51 93/5/51 38/5/51
f 46/19/52 100/14/52 45/14/52
f 43/6/53 97/1/53 42/1/53
f 21/46/54 75/45/54 20/45/54
f 8/33/55 62/32/55 7/32/55
f 2/20/56 56/21/56 1/21/56
f 22/47/3 77/47/3 76/46/3
f 8/33/4 9/34/4 64/34/4
f 38/5/5 93/5/5 92/7/5
f 1/21/6 56/21/6 110/22/6
f 23/48/7 78/48/7 77/47/7
f 9/34/8 10/35/8 65/35/8
f 37/7/9 92/7/9 91/8/9
f 55/22/10 110/22/10 109/23/10
f 24/49/11 79/49/11 78/48/11
f 11/36/12 66/36/12 65/35/12
f 47/24/13 102/24/13 101/19/13
f 36/8/14 91/8/14 90/9/14
f 44/10/15 99/10/15 98/6/15
f 25/50/16 80/50/16 79/49/16
f 12/37/17 67/37/17 66/36/17
f 48/25/18 103/25/18 102/24/18
f 25/50/19 26/51/19 81/51/19
f 13/38/20 68/38/20 67/37/20
f 49/26/21 104/26/21 103/25/21
f 35/9/22 90/9/22 89/11/22
f 26/51/23 27/52/23 82/52/23
f 13/38/24 14/39/24 69/39/24
f 50/27/25 105/27/25 104/26/25
f 34/11/26 89/11/26 88/12/26
f 27/52/27 28/18/27 83/18/27
f 15/40/28 70/40/28 69/39/28
f 51/28/29 106/28/29 105/27/29
f 33/12/30 88/12/30 87/13/30
f 45/14/31 100/14/31 99/10/31
f 5/53/32 6/31/32 61/31/32
f 16/41/33 71/41/33 70/40/33
f 52/29/34 107/29/34 106/28/34
f 5/53/35 60/53/35 59/54/35
f 17/42/36 72/42/36 71/41/36
f 53/30/37 108/30/37 107/29/37
f 32/13/38 87/13/38 86/15/38
f 42/1/39 97/1/39 96/2/39
f 3/55/40 58/55/40 57/20/40
f 4/54/41 59/54/41 58/55/41
f 18/43/42 73/43/42 72/42/42
f 31/15/43 86/15/43 85/16/43
f 41/2/44 96/2/44 95/3/44
f 54/23/6 109/23/6 108/30/6
f 19/44/45 74/44/45 73/43/45
f 30/16/46 85/16/46 84/17/46
f 40/3/47 95/3/47 94/4/47
f 20/45/48 75/45/48 74/44/48
f 7/32/49 62/32/49 61/31/49
f 29/17/50 84/17/50 83/18/50
f 39/4/51 94/4/51 93/5/51
f 46/19/52 101/19/52 100/14/52
f 43/6/53 98/6/53 97/1/53
f 21/46/54 76/46/54 75/45/54
f 8/33/55 63/33/55 62/32/55
f 2/20/56 57/20/56 56/21/56
