# Blender 4.5.8 LTS
# www.blender.org
mtllib text_!!.mtl
o text_!!.001
v 0.080870 -0.280870 0.025000
v 0.081653 -0.294094 0.025000
v 0.083949 -0.306739 0.025000
v 0.087677 -0.318696 0.025000
v 0.092754 -0.329855 0.025000
v 0.099099 -0.340109 0.025000
v 0.106630 -0.349348 0.025000
v 0.115267 -0.357464 0.025000
v 0.124928 -0.364348 0.025000
v 0.135530 -0.369891 0.025000
v 0.146993 -0.373986 0.025000
v 0.159235 -0.376522 0.025000
v 0.172174 -0.377391 0.025000
v 0.185313 -0.376522 0.025000
v 0.197721 -0.373986 0.025000
v 0.209321 -0.369891 0.025000
v 0.220032 -0.364348 0.025000
v 0.229778 -0.357464 0.025000
v 0.238478 -0.349348 0.025000
v 0.246056 -0.340109 0.025000
v 0.252432 -0.329855 0.025000
v 0.257527 -0.318696 0.025000
v 0.261264 -0.306739 0.025000
v 0.263564 -0.294094 0.025000
v 0.264348 -0.280870 0.025000
v 0.263564 -0.267662 0.025000
v 0.261264 -0.255064 0.025000
v 0.257527 -0.243179 0.025000
v 0.252432 -0.232110 0.025000
v 0.246056 -0.221958 0.025000
v 0.238478 -0.212826 0.025000
v 0.229778 -0.204818 0.025000
v 0.220032 -0.198035 0.025000
v 0.209321 -0.192582 0.025000
v 0.197721 -0.188559 0.025000
v 0.185313 -0.186070 0.025000
v 0.172174 -0.185217 0.025000
v 0.159235 -0.186070 0.025000
v 0.146993 -0.188559 0.025000
v 0.135530 -0.192582 0.025000
v 0.124928 -0.198035 0.025000
v 0.115267 -0.204818 0.025000
v 0.106630 -0.212826 0.025000
v 0.099099 -0.221958 0.025000
v 0.092754 -0.232110 0.025000
v 0.087677 -0.243179 0.025000
v 0.083949 -0.255064 0.025000
v 0.081653 -0.267662 0.025000
v 0.100000 0.163478 0.025000
v 0.122609 -0.130435 0.025000
v 0.222609 -0.130435 0.025000
v 0.245217 0.163478 0.025000
v 0.250435 0.301739 0.025000
v 0.094783 0.301739 0.025000
v -0.264348 -0.280870 0.025000
v -0.263564 -0.294094 0.025000
v -0.261268 -0.306739 0.025000
v -0.257541 -0.318696 0.025000
v -0.252464 -0.329855 0.025000
v -0.246119 -0.340109 0.025000
v -0.238587 -0.349348 0.025000
v -0.229950 -0.357464 0.025000
v -0.220290 -0.364348 0.025000
v -0.209688 -0.369891 0.025000
v -0.198225 -0.373986 0.025000
v -0.185983 -0.376522 0.025000
v -0.173043 -0.377391 0.025000
v -0.159904 -0.376522 0.025000
v -0.147496 -0.373986 0.025000
v -0.135897 -0.369891 0.025000
v -0.125185 -0.364348 0.025000
v -0.115440 -0.357464 0.025000
v -0.106739 -0.349348 0.025000
v -0.099162 -0.340109 0.025000
v -0.092786 -0.329855 0.025000
v -0.087690 -0.318696 0.025000
v -0.083953 -0.306739 0.025000
v -0.081654 -0.294094 0.025000
v -0.080870 -0.280870 0.025000
v -0.081654 -0.267662 0.025000
v -0.083953 -0.255064 0.025000
v -0.087690 -0.243179 0.025000
v -0.092786 -0.232110 0.025000
v -0.099162 -0.221958 0.025000
v -0.106739 -0.212826 0.025000
v -0.115440 -0.204818 0.025000
v -0.125185 -0.198035 0.025000
v -0.135897 -0.192582 0.025000
v -0.147496 -0.188559 0.025000
v -0.159904 -0.186070 0.025000
v -0.173043 -0.185217 0.025000
v -0.185983 -0.186070 0.025000
v -0.198225 -0.188559 0.025000
v -0.209688 -0.192582 0.025000
v -0.220290 -0.198035 0.025000
v -0.229950 -0.204818 0.025000
v -0.238587 -0.212826 0.025000
v -0.246119 -0.221958 0.025000
v -0.252464 -0.232110 0.025000
v -0.257541 -0.243179 0.025000
v -0.261268 -0.255064 0.025000
v -0.263564 -0.267662 0.025000
v -0.245217 0.163478 0.025000
v -0.222609 -0.130435 0.025000
v -0.122609 -0.130435 0.025000
v -0.100000 0.163478 0.025000
v -0.094783 0.301739 0.025000
v -0.250435 0.301739 0.025000
v 0.080870 -0.280870 -0.025000
v 0.081653 -0.294094 -0.025000
v 0.083949 -0.306739 -0.025000
v 0.087677 -0.318696 -0.025000
v 0.092754 -0.329855 -0.025000
v 0.099099 -0.340109 -0.025000
v 0.106630 -0.349348 -0.025000
v 0.115267 -0.357464 -0.025000
v 0.124928 -0.364348 -0.025000
v 0.135530 -0.369891 -0.025000
v 0.146993 -0.373986 -0.025000
v 0.159235 -0.376522 -0.025000
v 0.172174 -0.377391 -0.025000
v 0.185313 -0.376522 -0.025000
v 0.197721 -0.373986 -0.025000
v 0.209321 -0.369891 -0.025000
v 0.220032 -0.364348 -0.025000
v 0.229778 -0.357464 -0.025000
v 0.238478 -0.349348 -0.025000
v 0.246056 -0.340109 -0.025000
v 0.252432 -0.329855 -0.025000
v 0.257527 -0.318696 -0.025000
v 0.261264 -0.306739 -0.025000
v 0.263564 -0.294094 -0.025000
v 0.264348 -0.280870 -0.025000
v 0.263564 -0.267662 -0.025000
v 0.261264 -0.255064 -0.025000
v 0.257527 -0.243179 -0.025000
v 0.252432 -0.232110 -0.025000
v 0.246056 -0.221958 -0.025000
v 0.238478 -0.212826 -0.025000
v 0.229778 -0.204818 -0.025000
v 0.220032 -0.198035 -0.025000
v 0.209321 -0.192582 -0.025000
v 0.197721 -0.188559 -0.025000
v 0.185313 -0.186070 -0.025000
v 0.172174 -0.185217 -0.025000
v 0.159235 -0.186070 -0.025000
v 0.146993 -0.188559 -0.025000
v 0.135530 -0.192582 -0.025000
v 0.124928 -0.198035 -0.025000
v 0.115267 -0.204818 -0.025000
v 0.106630 -0.212826 -0.025000
v 0.099099 -0.221958 -0.025000
v 0.092754 -0.232110 -0.025000
v 0.087677 -0.243179 -0.025000
v 0.083949 -0.255064 -0.025000
v 0.081653 -0.267662 -0.025000
v 0.100000 0.163478 -0.025000
v 0.122609 -0.130435 -0.025000
v 0.222609 -0.130435 -0.025000
v 0.245217 0.163478 -0.025000
v 0.250435 0.301739 -0.025000
v 0.094783 0.301739 -0.025000
v -0.264348 -0.280870 -0.025000
v -0.263564 -0.294094 -0.025000
v -0.261268 -0.306739 -0.025000
v -0.257541 -0.318696 -0.025000
v -0.252464 -0.329855 -0.025000
v -0.246119 -0.340109 -0.025000
v -0.238587 -0.349348 -0.025000
v -0.229950 -0.357464 -0.025000
v -0.220290 -0.364348 -0.025000
v -0.209688 -0.369891 -0.025000
v -0.198225 -0.373986 -0.025000
v -0.185983 -0.376522 -0.025000
v -0.173043 -0.377391 -0.025000
v -0.159904 -0.376522 -0.025000
v -0.147496 -0.373986 -0.025000
v -0.135897 -0.369891 -0.025000
v -0.125185 -0.364348 -0.025000
v -0.115440 -0.357464 -0.025000
v -0.106739 -0.349348 -0.025000
v -0.099162 -0.340109 -0.025000
v -0.092786 -0.329855 -0.025000
v -0.087690 -0.318696 -0.025000
v -0.083953 -0.306739 -0.025000
v -0.081654 -0.294094 -0.025000
v -0.080870 -0.280870 -0.025000
v -0.081654 -0.267662 -0.025000
v -0.083953 -0.255064 -0.025000
v -0.087690 -0.243179 -0.025000
v -0.092786 -0.232110 -0.025000
v -0.099162 -0.221958 -0.025000
v -0.106739 -0.212826 -0.025000
v -0.115440 -0.204818 -0.025000
v -0.125185 -0.198035 -0.025000
v -0.135897 -0.192582 -0.025000
v -0.147496 -0.188559 -0.025000
v -0.159904 -0.186070 -0.025000
v -0.173043 -0.185217 -0.025000
v -0.185983 -0.186070 -0.025000
v -0.198225 -0.188559 -0.025000
v -0.209688 -0.192582 -0.025000
v -0.220290 -0.198035 -0.025000
v -0.229950 -0.204818 -0.025000
v -0.238587 -0.212826 -0.025000
v -0.246119 -0.221958 -0.025000
v -0.252464 -0.232110 -0.025000
v -0.257541 -0.243179 -0.025000
v -0.261268 -0.255064 -0.025000
v -0.263564 -0.267662 -0.025000
v -0.245217 0.163478 -0.025000
v -0.222609 -0.130435 -0.025000
v -0.122609 -0.130435 -0.025000
v -0.100000 0.163478 -0.025000
v -0.094783 0.301739 -0.025000
v -0.250435 0.301739 -0.025000
vn -0.0000 -0.0000 -1.0000
vn -0.0000 -0.0000 1.0000
vn -0.8468 -0.5318 -0.0000
vn -0.4596 0.8881 -0.0000
vn 0.9090 -0.4169 -0.0000
vn 0.3364 0.9417 -0.0000
vn -0.9084 -0.4181 -0.0000
vn -0.3328 0.9430 -0.0000
vn 0.9542 -0.2992 -0.0000
vn 0.2029 0.9792 -0.0000
vn -0.9540 -0.2999 -0.0000
vn -0.2003 0.9797 -0.0000
vn 0.9838 -0.1793 -0.0000
vn 0.0671 0.9977 -0.0000
vn -0.0660 0.9978 -0.0000
vn -0.9837 -0.1796 -0.0000
vn 0.9993 0.0377 -0.0000
vn 0.9982 -0.0592 -0.0000
vn -0.0000 -1.0000 -0.0000
vn -0.9982 -0.0593 -0.0000
vn -0.9993 0.0377 -0.0000
vn 0.9982 0.0591 -0.0000
vn 0.9971 0.0767 -0.0000
vn -0.0000 1.0000 -0.0000
vn -0.9982 0.0592 -0.0000
vn -0.9971 0.0767 -0.0000
vn 0.9839 0.1787 -0.0000
vn 0.0657 -0.9978 -0.0000
vn -0.0647 -0.9979 -0.0000
vn -0.9839 0.1789 -0.0000
vn 0.1992 -0.9800 -0.0000
vn 0.9547 0.2976 -0.0000
vn -0.1967 -0.9805 -0.0000
vn -0.9545 0.2983 -0.0000
vn 0.3311 -0.9436 -0.0000
vn 0.9102 0.4141 -0.0000
vn -0.3277 -0.9448 -0.0000
vn -0.9097 0.4154 -0.0000
vn 0.4574 -0.8892 -0.0000
vn 0.8504 0.5262 -0.0000
vn -0.4537 -0.8911 -0.0000
vn -0.8492 0.5281 -0.0000
vn 0.5746 -0.8184 -0.0000
vn 0.7751 0.6318 -0.0000
vn -0.5712 -0.8208 -0.0000
vn -0.7732 0.6341 -0.0000
vn 0.6799 -0.7333 -0.0000
vn 0.6848 0.7287 -0.0000
vn -0.6772 -0.7358 -0.0000
vn -0.6821 0.7313 -0.0000
vn 0.7714 -0.6363 -0.0000
vn 0.5803 0.8144 -0.0000
vn -0.7695 -0.6386 -0.0000
vn -0.5770 0.8168 -0.0000
vn 0.8480 -0.5300 -0.0000
vn 0.4633 0.8862 -0.0000
vn -0.8492 0.5280 -0.0000
vt 0.905660 0.000000
vt 0.943396 0.000000
vt 0.924528 0.000000
vt 0.377358 0.000000
vt 0.075472 0.000000
vt 0.094340 0.000000
vt 0.396226 0.000000
vt 0.056604 0.000000
vt 0.698113 0.000000
vt 0.679245 0.000000
vt 0.660377 0.000000
vt 0.716981 0.000000
vt 0.641509 0.000000
vt 0.735849 0.000000
vt 0.622642 0.000000
vt 0.754717 0.000000
vt 0.603774 0.000000
vt 0.773585 0.000000
vt 0.584906 0.000000
vt 0.792453 0.000000
vt 0.566038 0.000000
vt 0.811321 0.000000
vt 0.830189 0.000000
vt 0.547170 0.000000
vt 0.528302 0.000000
vt 0.849057 0.000000
vt 0.867925 0.000000
vt 0.490566 0.000000
vt 0.886792 0.000000
vt 0.037736 0.000000
vt 0.415094 0.000000
vt 0.000000 0.000000
vt 0.452830 0.000000
vt 0.018868 0.000000
vt 0.132075 0.000000
vt 0.339623 0.000000
vt 0.113208 0.000000
vt 0.433962 0.000000
vt 0.358491 0.000000
vt 0.320755 0.000000
vt 0.150943 0.000000
vt 0.301887 0.000000
vt 0.169811 0.000000
vt 0.283019 0.000000
vt 0.188679 0.000000
vt 0.264151 0.000000
vt 0.207547 0.000000
vt 0.245283 0.000000
vt 0.226415 0.000000
vt 1.000000 0.000000
vt 0.962264 0.000000
vt 0.509434 0.000000
vt 0.471698 0.000000
vt 0.981132 0.000000
s 0
f 49/1/1 51/2/1 50/3/1
f 183/4/2 167/5/2 168/6/2
f 103/1/1 105/2/1 104/3/1
f 184/7/2 166/8/2 167/5/2
f 38/9/1 37/10/1 36/11/1
f 39/12/1 38/9/1 36/11/1
f 39/12/1 36/11/1 35/13/1
f 40/14/1 39/12/1 35/13/1
f 40/14/1 35/13/1 34/15/1
f 41/16/1 40/14/1 34/15/1
f 41/16/1 34/15/1 33/17/1
f 42/18/1 41/16/1 33/17/1
f 42/18/1 33/17/1 32/19/1
f 43/20/1 42/18/1 32/19/1
f 43/20/1 32/19/1 31/21/1
f 44/22/1 43/20/1 31/21/1
f 99/23/1 85/21/1 84/24/1
f 146/9/2 144/11/2 145/10/2
f 99/23/1 83/25/1 100/26/1
f 148/14/2 142/15/2 143/13/2
f 5/5/1 21/4/1 6/6/1
f 150/18/2 141/17/2 149/16/2
f 101/27/1 81/28/1 102/29/1
f 207/23/2 193/21/2 206/22/2
f 57/30/1 77/31/1 58/8/1
f 189/28/2 209/27/2 210/29/2
f 55/32/1 79/33/1 56/34/1
f 116/35/2 127/36/2 115/37/2
f 56/34/1 78/38/1 57/30/1
f 186/38/2 164/34/2 165/30/2
f 47/27/1 27/28/1 48/29/1
f 191/25/2 207/23/2 208/26/2
f 58/8/1 76/7/1 59/5/1
f 151/20/2 139/21/2 140/19/2
f 59/5/1 75/4/1 60/6/1
f 149/16/2 141/17/2 142/15/2
f 60/6/1 74/39/1 61/37/1
f 147/12/2 143/13/2 144/11/2
f 7/37/1 20/39/1 19/36/1
f 8/35/1 7/37/1 19/36/1
f 8/35/1 19/36/1 18/40/1
f 9/41/1 8/35/1 18/40/1
f 9/41/1 18/40/1 17/42/1
f 10/43/1 9/41/1 17/42/1
f 10/43/1 17/42/1 16/44/1
f 11/45/1 10/43/1 16/44/1
f 11/45/1 16/44/1 15/46/1
f 12/47/1 11/45/1 15/46/1
f 12/47/1 15/46/1 14/48/1
f 13/49/1 12/47/1 14/48/1
f 54/50/1 52/51/1 49/1/1
f 182/39/2 168/6/2 169/37/2
f 2/34/1 24/38/1 3/30/1
f 135/28/2 155/27/2 156/29/2
f 92/9/1 91/10/1 90/11/1
f 93/12/1 92/9/1 90/11/1
f 93/12/1 90/11/1 89/13/1
f 94/14/1 93/12/1 89/13/1
f 94/14/1 89/13/1 88/15/1
f 95/16/1 94/14/1 88/15/1
f 95/16/1 88/15/1 87/17/1
f 96/18/1 95/16/1 87/17/1
f 96/18/1 87/17/1 86/19/1
f 97/20/1 96/18/1 86/19/1
f 97/20/1 86/19/1 85/21/1
f 98/22/1 97/20/1 85/21/1
f 159/2/2 157/1/2 158/3/2
f 213/2/2 211/1/2 212/3/2
f 6/6/1 20/39/1 7/37/1
f 148/14/2 143/13/2 147/12/2
f 46/26/1 28/52/1 47/27/1
f 150/18/2 140/19/2 141/17/2
f 4/8/1 22/7/1 5/5/1
f 152/22/2 139/21/2 151/20/2
f 48/29/1 26/53/1 1/32/1
f 185/31/2 165/30/2 166/8/2
f 108/50/1 106/51/1 103/1/1
f 115/37/2 127/36/2 128/39/2
f 102/29/1 80/53/1 55/32/1
f 187/33/2 163/32/2 164/34/2
f 3/30/1 23/31/1 4/8/1
f 129/4/2 113/5/2 114/6/2
f 100/26/1 82/52/1 101/27/1
f 151/20/2 140/19/2 150/18/2
f 45/23/1 29/25/1 46/26/1
f 149/16/2 142/15/2 148/14/2
f 45/23/1 31/21/1 30/24/1
f 147/12/2 144/11/2 146/9/2
f 61/37/1 74/39/1 73/36/1
f 62/35/1 61/37/1 73/36/1
f 62/35/1 73/36/1 72/40/1
f 63/41/1 62/35/1 72/40/1
f 63/41/1 72/40/1 71/42/1
f 64/43/1 63/41/1 71/42/1
f 64/43/1 71/42/1 70/44/1
f 65/45/1 64/43/1 70/44/1
f 65/45/1 70/44/1 69/46/1
f 66/47/1 65/45/1 69/46/1
f 66/47/1 69/46/1 68/48/1
f 67/49/1 66/47/1 68/48/1
f 1/32/1 25/33/1 2/34/1
f 116/35/2 126/40/2 127/36/2
f 117/41/2 126/40/2 116/35/2
f 117/41/2 125/42/2 126/40/2
f 118/43/2 125/42/2 117/41/2
f 118/43/2 124/44/2 125/42/2
f 119/45/2 124/44/2 118/43/2
f 119/45/2 123/46/2 124/44/2
f 120/47/2 123/46/2 119/45/2
f 120/47/2 122/48/2 123/46/2
f 121/49/2 122/48/2 120/47/2
f 160/51/2 162/50/2 157/1/2
f 132/38/2 110/34/2 111/30/2
f 200/9/2 198/11/2 199/10/2
f 201/12/2 198/11/2 200/9/2
f 201/12/2 197/13/2 198/11/2
f 202/14/2 197/13/2 201/12/2
f 202/14/2 196/15/2 197/13/2
f 203/16/2 196/15/2 202/14/2
f 203/16/2 195/17/2 196/15/2
f 204/18/2 195/17/2 203/16/2
f 204/18/2 194/19/2 195/17/2
f 205/20/2 194/19/2 204/18/2
f 205/20/2 193/21/2 194/19/2
f 206/22/2 193/21/2 205/20/2
f 128/39/2 114/6/2 115/37/2
f 136/52/2 154/26/2 155/27/2
f 130/7/2 112/8/2 113/5/2
f 134/53/2 156/29/2 109/32/2
f 214/51/2 216/50/2 211/1/2
f 188/53/2 210/29/2 163/32/2
f 131/31/2 111/30/2 112/8/2
f 190/52/2 208/26/2 209/27/2
f 137/25/2 153/23/2 154/26/2
f 153/23/2 139/21/2 152/22/2
f 169/37/2 181/36/2 182/39/2
f 170/35/2 181/36/2 169/37/2
f 170/35/2 180/40/2 181/36/2
f 171/41/2 180/40/2 170/35/2
f 171/41/2 179/42/2 180/40/2
f 172/43/2 179/42/2 171/41/2
f 172/43/2 178/44/2 179/42/2
f 173/45/2 178/44/2 172/43/2
f 173/45/2 177/46/2 178/44/2
f 174/47/2 177/46/2 173/45/2
f 174/47/2 176/48/2 177/46/2
f 175/49/2 176/48/2 174/47/2
f 133/33/2 109/32/2 110/34/2
f 84/24/3 191/25/3 83/25/3
f 71/42/4 178/44/4 70/44/4
f 30/24/3 137/25/3 29/25/3
f 100/26/5 207/23/5 99/23/5
f 17/42/4 124/44/4 16/44/4
f 65/45/6 172/43/6 64/43/6
f 45/23/5 154/26/5 153/23/5
f 11/45/6 118/43/6 10/43/6
f 83/25/7 190/52/7 82/52/7
f 70/44/8 177/46/8 69/46/8
f 29/25/7 136/52/7 28/52/7
f 101/27/9 208/26/9 100/26/9
f 16/44/8 123/46/8 15/46/8
f 66/47/10 173/45/10 65/45/10
f 47/27/9 154/26/9 46/26/9
f 12/47/10 119/45/10 11/45/10
f 82/52/11 189/28/11 81/28/11
f 69/46/12 176/48/12 68/48/12
f 28/52/11 135/28/11 27/28/11
f 102/29/13 209/27/13 101/27/13
f 15/46/12 122/48/12 14/48/12
f 67/49/14 174/47/14 66/47/14
f 48/29/13 155/27/13 47/27/13
f 13/49/14 120/47/14 12/47/14
f 68/48/15 175/49/15 67/49/15
f 14/48/15 121/49/15 13/49/15
f 81/28/16 188/53/16 80/53/16
f 103/1/17 216/50/17 108/50/17
f 27/28/16 134/53/16 26/53/16
f 55/32/18 210/29/18 102/29/18
f 49/1/17 162/50/17 54/50/17
f 1/32/18 156/29/18 48/29/18
f 108/50/19 215/54/19 107/54/19
f 54/50/19 161/54/19 53/54/19
f 80/53/20 187/33/20 79/33/20
f 106/51/21 215/54/21 214/51/21
f 26/53/20 133/33/20 25/33/20
f 56/34/22 163/32/22 55/32/22
f 52/51/21 161/54/21 160/51/21
f 104/3/23 211/1/23 103/1/23
f 2/34/22 109/32/22 1/32/22
f 50/3/23 157/1/23 49/1/23
f 105/2/24 212/3/24 104/3/24
f 79/33/25 186/38/25 78/38/25
f 51/2/24 158/3/24 50/3/24
f 105/2/26 214/51/26 213/2/26
f 25/33/25 132/38/25 24/38/25
f 57/30/27 164/34/27 56/34/27
f 51/2/26 160/51/26 159/2/26
f 92/9/28 199/10/28 91/10/28
f 3/30/27 110/34/27 2/34/27
f 38/9/28 145/10/28 37/10/28
f 91/10/29 198/11/29 90/11/29
f 78/38/30 185/31/30 77/31/30
f 37/10/29 144/11/29 36/11/29
f 93/12/31 200/9/31 92/9/31
f 24/38/30 131/31/30 23/31/30
f 58/8/32 165/30/32 57/30/32
f 39/12/31 146/9/31 38/9/31
f 4/8/32 111/30/32 3/30/32
f 90/11/33 197/13/33 89/13/33
f 77/31/34 184/7/34 76/7/34
f 36/11/33 143/13/33 35/13/33
f 94/14/35 201/12/35 93/12/35
f 23/31/34 130/7/34 22/7/34
f 59/5/36 166/8/36 58/8/36
f 40/14/35 147/12/35 39/12/35
f 5/5/36 112/8/36 4/8/36
f 88/15/37 197/13/37 196/15/37
f 76/7/38 183/4/38 75/4/38
f 35/13/37 142/15/37 34/15/37
f 95/16/39 202/14/39 94/14/39
f 22/7/38 129/4/38 21/4/38
f 60/6/40 167/5/40 59/5/40
f 41/16/39 148/14/39 40/14/39
f 6/6/40 113/5/40 5/5/40
f 88/15/41 195/17/41 87/17/41
f 75/4/42 182/39/42 74/39/42
f 34/15/41 141/17/41 33/17/41
f 96/18/43 203/16/43 95/16/43
f 21/4/42 128/39/42 20/39/42
f 61/37/44 168/6/44 60/6/44
f 42/18/43 149/16/43 41/16/43
f 7/37/44 114/6/44 6/6/44
f 87/17/45 194/19/45 86/19/45
f 74/39/46 181/36/46 73/36/46
f 33/17/45 140/19/45 32/19/45
f 97/20/47 204/18/47 96/18/47
f 20/39/46 127/36/46 19/36/46
f 62/35/48 169/37/48 61/37/48
f 43/20/47 150/18/47 42/18/47
f 8/35/48 115/37/48 7/37/48
f 86/19/49 193/21/49 85/21/49
f 73/36/50 180/40/50 72/40/50
f 32/19/49 139/21/49 31/21/49
f 98/22/51 205/20/51 97/20/51
f 19/36/50 126/40/50 18/40/50
f 63/41/52 170/35/52 62/35/52
f 44/22/51 151/20/51 43/20/51
f 9/41/52 116/35/52 8/35/52
f 84/24/53 193/21/53 192/24/53
f 72/40/54 179/42/54 71/42/54
f 30/24/53 139/21/53 138/24/53
f 99/23/55 206/22/55 98/22/55
f 17/42/54 126/40/54 125/42/54
f 64/43/56 171/41/56 63/41/56
f 45/23/55 152/22/55 44/22/55
f 10/43/56 117/41/56 9/41/56
f 49/1/1 52/51/1 51/2/1
f 183/4/2 184/7/2 167/5/2
f 103/1/1 106/51/1 105/2/1
f 184/7/2 185/31/2 166/8/2
f 99/23/1 98/22/1 85/21/1
f 99/23/1 84/24/1 83/25/1
f 5/5/1 22/7/1 21/4/1
f 101/27/1 82/52/1 81/28/1
f 207/23/2 192/24/2 193/21/2
f 57/30/1 78/38/1 77/31/1
f 189/28/2 190/52/2 209/27/2
f 55/32/1 80/53/1 79/33/1
f 56/34/1 79/33/1 78/38/1
f 186/38/2 187/33/2 164/34/2
f 47/27/1 28/52/1 27/28/1
f 191/25/2 192/24/2 207/23/2
f 58/8/1 77/31/1 76/7/1
f 59/5/1 76/7/1 75/4/1
f 60/6/1 75/4/1 74/39/1
f 54/50/1 53/54/1 52/51/1
f 182/39/2 183/4/2 168/6/2
f 2/34/1 25/33/1 24/38/1
f 135/28/2 136/52/2 155/27/2
f 159/2/2 160/51/2 157/1/2
f 213/2/2 214/51/2 211/1/2
f 6/6/1 21/4/1 20/39/1
f 46/26/1 29/25/1 28/52/1
f 4/8/1 23/31/1 22/7/1
f 48/29/1 27/28/1 26/53/1
f 185/31/2 186/38/2 165/30/2
f 108/50/1 107/54/1 106/51/1
f 102/29/1 81/28/1 80/53/1
f 187/33/2 188/53/2 163/32/2
f 3/30/1 24/38/1 23/31/1
f 129/4/2 130/7/2 113/5/2
f 100/26/1 83/25/1 82/52/1
f 45/23/1 30/24/1 29/25/1
f 45/23/1 44/22/1 31/21/1
f 1/32/1 26/53/1 25/33/1
f 160/51/2 161/54/2 162/50/2
f 132/38/2 133/33/2 110/34/2
f 128/39/2 129/4/2 114/6/2
f 136/52/2 137/25/2 154/26/2
f 130/7/2 131/31/2 112/8/2
f 134/53/2 135/28/2 156/29/2
f 214/51/2 215/54/2 216/50/2
f 188/53/2 189/28/2 210/29/2
f 131/31/2 132/38/2 111/30/2
f 190/52/2 191/25/2 208/26/2
f 137/25/2 138/24/2 153/23/2
f 153/23/2 138/24/2 139/21/2
f 133/33/2 134/53/2 109/32/2
f 84/24/3 192/24/3 191/25/3
f 71/42/4 179/42/4 178/44/4
f 30/24/3 138/24/3 137/25/3
f 100/26/5 208/26/5 207/23/5
f 17/42/4 125/42/4 124/44/4
f 65/45/6 173/45/6 172/43/6
f 45/23/5 46/26/5 154/26/5
f 11/45/6 119/45/6 118/43/6
f 83/25/7 191/25/7 190/52/7
f 70/44/8 178/44/8 177/46/8
f 29/25/7 137/25/7 136/52/7
f 101/27/9 209/27/9 208/26/9
f 16/44/8 124/44/8 123/46/8
f 66/47/10 174/47/10 173/45/10
f 47/27/9 155/27/9 154/26/9
f 12/47/10 120/47/10 119/45/10
f 82/52/11 190/52/11 189/28/11
f 69/46/12 177/46/12 176/48/12
f 28/52/11 136/52/11 135/28/11
f 102/29/13 210/29/13 209/27/13
f 15/46/12 123/46/12 122/48/12
f 67/49/14 175/49/14 174/47/14
f 48/29/13 156/29/13 155/27/13
f 13/49/14 121/49/14 120/47/14
f 68/48/15 176/48/15 175/49/15
f 14/48/15 122/48/15 121/49/15
f 81/28/16 189/28/16 188/53/16
f 103/1/17 211/1/17 216/50/17
f 27/28/16 135/28/16 134/53/16
f 55/32/18 163/32/18 210/29/18
f 49/1/17 157/1/17 162/50/17
f 1/32/18 109/32/18 156/29/18
f 108/50/19 216/50/19 215/54/19
f 54/50/19 162/50/19 161/54/19
f 80/53/20 188/53/20 187/33/20
f 106/51/21 107/54/21 215/54/21
f 26/53/20 134/53/20 133/33/20
f 56/34/22 164/34/22 163/32/22
f 52/51/21 53/54/21 161/54/21
f 104/3/23 212/3/23 211/1/23
f 2/34/22 110/34/22 109/32/22
f 50/3/23 158/3/23 157/1/23
f 105/2/24 213/2/24 212/3/24
f 79/33/25 187/33/25 186/38/25
f 51/2/24 159/2/24 158/3/24
f 105/2/26 106/51/26 214/51/26
f 25/33/25 133/33/25 132/38/25
f 57/30/27 165/30/27 164/34/27
f 51/2/26 52/51/26 160/51/26
f 92/9/28 200/9/28 199/10/28
f 3/30/27 111/30/27 110/34/27
f 38/9/28 146/9/28 145/10/28
f 91/10/29 199/10/29 198/11/29
f 78/38/30 186/38/30 185/31/30
f 37/10/29 145/10/29 144/11/29
f 93/12/31 201/12/31 200/9/31
f 24/38/30 132/38/30 131/31/30
f 58/8/32 166/8/32 165/30/32
f 39/12/31 147/12/31 146/9/31
f 4/8/32 112/8/32 111/30/32
f 90/11/33 198/11/33 197/13/33
f 77/31/34 185/31/34 184/7/34
f 36/11/33 144/11/33 143/13/33
f 94/14/35 202/14/35 201/12/35
f 23/31/34 131/31/34 130/7/34
f 59/5/36 167/5/36 166/8/36
f 40/14/35 148/14/35 147/12/35
f 5/5/36 113/5/36 112/8/36
f 88/15/37 89/13/37 197/13/37
f 76/7/38 184/7/38 183/4/38
f 35/13/37 143/13/37 142/15/37
f 95/16/39 203/16/39 202/14/39
f 22/7/38 130/7/38 129/4/38
f 60/6/40 168/6/40 167/5/40
f 41/16/39 149/16/39 148/14/39
f 6/6/40 114/6/40 113/5/40
f 88/15/41 196/15/41 195/17/41
f 75/4/57 183/4/57 182/39/57
f 34/15/41 142/15/41 141/17/41
f 96/18/43 204/18/43 203/16/43
f 21/4/57 129/4/57 128/39/57
f 61/37/44 169/37/44 168/6/44
f 42/18/43 150/18/43 149/16/43
f 7/37/44 115/37/44 114/6/44
f 87/17/45 195/17/45 194/19/45
f 74/39/46 182/39/46 181/36/46
f 33/17/45 141/17/45 140/19/45
f 97/20/47 205/20/47 204/18/47
f 20/39/46 128/39/46 127/36/46
f 62/35/48 170/35/48 169/37/48
f 43/20/47 151/20/47 150/18/47
f 8/35/48 116/35/48 115/37/48
f 86/19/49 194/19/49 193/21/49
f 73/36/50 181/36/50 180/40/50
f 32/19/49 140/19/49 139/21/49
f 98/22/51 206/22/51 205/20/51
f 19/36/50 127/36/50 126/40/50
f 63/41/52 171/41/52 170/35/52
f 44/22/51 152/22/51 151/20/51
f 9/41/52 117/41/52 116/35/52
f 84/24/53 85/21/53 193/21/53
f 72/40/54 180/40/54 179/42/54
f 30/24/53 31/21/53 139/21/53
f 99/23/55 207/23/55 206/22/55
f 17/42/54 18/40/54 126/40/54
f 64/43/56 172/43/56 171/41/56
f 45/23/55 153/23/55 152/22/55
f 10/43/56 118/43/56 117/41/56
