# Blender 4.5.8 LTS
# www.blender.org
mtllib text_l.mtl
o text_l.001
v 0.059130 -0.377391 -0.025000
v 0.067627 -0.377268 -0.025000
v 0.075729 -0.376908 -0.025000
v 0.083438 -0.376332 -0.025000
v 0.090757 -0.375556 -0.025000
v 0.097690 -0.374598 -0.025000
v 0.104239 -0.373478 -0.025000
v 0.110408 -0.372213 -0.025000
v 0.116200 -0.370821 -0.025000
v 0.121617 -0.369321 -0.025000
v 0.126663 -0.367729 -0.025000
v 0.131340 -0.366066 -0.025000
v 0.135652 -0.364348 -0.025000
v 0.117391 -0.250435 -0.025000
v 0.115322 -0.250834 -0.025000
v 0.113446 -0.251168 -0.025000
v 0.111739 -0.251440 -0.025000
v 0.110177 -0.251659 -0.025000
v 0.108736 -0.251829 -0.025000
v 0.107391 -0.251957 -0.025000
v 0.106119 -0.252048 -0.025000
v 0.104895 -0.252110 -0.025000
v 0.103696 -0.252147 -0.025000
v 0.102496 -0.252166 -0.025000
v 0.101272 -0.252173 -0.025000
v 0.100000 -0.252174 -0.025000
v 0.096912 -0.251967 -0.025000
v 0.093776 -0.251312 -0.025000
v 0.090652 -0.250163 -0.025000
v 0.087601 -0.248470 -0.025000
v 0.084682 -0.246186 -0.025000
v 0.081957 -0.243261 -0.025000
v 0.079485 -0.239648 -0.025000
v 0.077327 -0.235298 -0.025000
v 0.075543 -0.230163 -0.025000
v 0.074195 -0.224195 -0.025000
v 0.073341 -0.217345 -0.025000
v 0.073043 -0.209565 -0.025000
v 0.073043 0.329565 -0.025000
v -0.081739 0.329565 -0.025000
v -0.081739 -0.204348 -0.025000
v -0.080993 -0.229490 -0.025000
v -0.078672 -0.253096 -0.025000
v -0.074647 -0.275041 -0.025000
v -0.068792 -0.295201 -0.025000
v -0.060981 -0.313454 -0.025000
v -0.051087 -0.329674 -0.025000
v -0.038982 -0.343738 -0.025000
v -0.024541 -0.355523 -0.025000
v -0.007636 -0.364905 -0.025000
v 0.011860 -0.371759 -0.025000
v 0.034073 -0.375963 -0.025000
v 0.059130 -0.377391 0.025000
v 0.067627 -0.377268 0.025000
v 0.075729 -0.376908 0.025000
v 0.083438 -0.376332 0.025000
v 0.090757 -0.375556 0.025000
v 0.097690 -0.374598 0.025000
v 0.104239 -0.373478 0.025000
v 0.110408 -0.372213 0.025000
v 0.116200 -0.370821 0.025000
v 0.121617 -0.369321 0.025000
v 0.126663 -0.367729 0.025000
v 0.131340 -0.366066 0.025000
v 0.135652 -0.364348 0.025000
v 0.117391 -0.250435 0.025000
v 0.115322 -0.250834 0.025000
v 0.113446 -0.251168 0.025000
v 0.111739 -0.251440 0.025000
v 0.110177 -0.251659 0.025000
v 0.108736 -0.251829 0.025000
v 0.107391 -0.251957 0.025000
v 0.106119 -0.252048 0.025000
v 0.104895 -0.252110 0.025000
v 0.103696 -0.252147 0.025000
v 0.102496 -0.252166 0.025000
v 0.101272 -0.252173 0.025000
v 0.100000 -0.252174 0.025000
v 0.096912 -0.251967 0.025000
v 0.093776 -0.251312 0.025000
v 0.090652 -0.250163 0.025000
v 0.087601 -0.248470 0.025000
v 0.084682 -0.246186 0.025000
v 0.081957 -0.243261 0.025000
v 0.079485 -0.239648 0.025000
v 0.077327 -0.235298 0.025000
v 0.075543 -0.230163 0.025000
v 0.074195 -0.224195 0.025000
v 0.073341 -0.217345 0.025000
v 0.073043 -0.209565 0.025000
v 0.073043 0.329565 0.025000
v -0.081739 0.329565 0.025000
v -0.081739 -0.204348 0.025000
v -0.080993 -0.229490 0.025000
v -0.078672 -0.253096 0.025000
v -0.074647 -0.275041 0.025000
v -0.068792 -0.295201 0.025000
v -0.060981 -0.313454 0.025000
v -0.051087 -0.329674 0.025000
v -0.038982 -0.343738 0.025000
v -0.024541 -0.355523 0.025000
v -0.007636 -0.364905 0.025000
v 0.011860 -0.371759 0.025000
v 0.034073 -0.375963 0.025000
vn -0.0000 -0.0000 -1.0000
vn -0.0000 -0.0000 1.0000
vn -0.9603 -0.2789 -0.0000
vn 0.2009 -0.9796 -0.0000
vn 0.9923 0.1236 -0.0000
vn -0.9194 -0.3934 -0.0000
vn 0.2042 0.9789 -0.0000
vn 0.1686 -0.9857 -0.0000
vn -0.1385 0.9904 -0.0000
vn 0.9754 0.2204 -0.0000
vn -0.8537 -0.5208 -0.0000
vn -0.9952 -0.0979 -0.0000
vn 0.1368 -0.9906 -0.0000
vn -0.1172 0.9931 -0.0000
vn -0.7579 -0.6523 -0.0000
vn 0.1054 -0.9944 -0.0000
vn -0.0946 0.9955 -0.0000
vn 0.9446 0.3281 -0.0000
vn -0.0569 -0.9984 -0.0000
vn -0.6322 -0.7748 -0.0000
vn -0.0718 0.9974 -0.0000
vn 0.8958 0.4444 -0.0000
vn -0.4852 -0.8744 -0.0000
vn 0.0746 -0.9972 -0.0000
vn 0.8253 0.5646 -0.0000
vn 0.0146 -0.9999 -0.0000
vn 0.0670 0.9978 -0.0000
vn 0.0443 -0.9990 -0.0000
vn 0.3701 -0.9290 -0.0000
vn -0.0501 0.9987 -0.0000
vn 0.7316 0.6817 -0.0000
vn -0.3317 -0.9434 -0.0000
vn -0.0310 0.9995 -0.0000
vn 0.6164 0.7874 -0.0000
vn 0.3351 -0.9422 -0.0000
vn -0.0160 0.9999 -0.0000
vn 0.4851 0.8745 -0.0000
vn -1.0000 -0.0000 -0.0000
vn 0.3008 -0.9537 -0.0000
vn -0.0057 1.0000 -0.0000
vn 0.3453 0.9385 -0.0000
vn -0.0000 1.0000 -0.0000
vn -0.1896 0.9819 -0.0000
vn 0.2670 -0.9637 -0.0000
vn -0.0008 1.0000 -0.0000
vn 1.0000 -0.0000 -0.0000
vn 0.9874 0.1583 -0.0000
vn -0.9996 -0.0296 -0.0000
vn 0.2337 -0.9723 -0.0000
vn -0.1748 0.9846 -0.0000
vn -0.1859 -0.9826 -0.0000
vn -0.9836 -0.1804 -0.0000
vn -0.1578 0.9875 -0.0000
vn 0.9993 0.0383 -0.0000
vn -0.0947 0.9955 -0.0000
vn 0.3007 -0.9537 -0.0000
vn -0.0058 1.0000 -0.0000
vt 0.803922 0.000000
vt 0.725490 0.000000
vt 0.705882 0.000000
vt 0.823529 0.000000
vt 0.647059 0.000000
vt 0.666667 0.000000
vt 0.686275 0.000000
vt 0.784314 0.000000
vt 0.627451 0.000000
vt 0.607843 0.000000
vt 0.588235 0.000000
vt 0.568627 0.000000
vt 0.549020 0.000000
vt 0.529412 0.000000
vt 0.274510 0.000000
vt 0.254902 0.000000
vt 0.235294 0.000000
vt 0.294118 0.000000
vt 0.313726 0.000000
vt 0.509804 0.000000
vt 0.333333 0.000000
vt 0.352941 0.000000
vt 0.372549 0.000000
vt 0.392157 0.000000
vt 0.490196 0.000000
vt 0.411765 0.000000
vt 0.431373 0.000000
vt 0.450980 0.000000
vt 0.470588 0.000000
vt 0.843137 0.000000
vt 0.862745 0.000000
vt 0.882353 0.000000
vt 0.901961 0.000000
vt 0.921569 0.000000
vt 0.941176 0.000000
vt 0.960784 0.000000
vt 0.215686 0.000000
vt 0.980392 0.000000
vt 0.196078 0.000000
vt 0.176471 0.000000
vt 0.156863 0.000000
vt 0.137255 0.000000
vt 1.000000 0.000000
vt 0.117647 0.000000
vt 0.098039 0.000000
vt 0.078431 0.000000
vt 0.058824 0.000000
vt 0.000000 0.000000
vt 0.039216 0.000000
vt 0.019608 0.000000
vt 0.745098 0.000000
vt 0.764706 0.000000
s 0
f 42/1/1 38/2/1 37/3/1
f 95/4/2 86/5/2 87/6/2
f 43/4/1 36/7/1 35/6/1
f 94/1/2 88/7/2 89/3/2
f 42/1/1 37/3/1 36/7/1
f 94/1/2 90/2/2 93/8/2
f 95/4/2 88/7/2 94/1/2
f 43/4/1 35/6/1 34/5/1
f 43/4/1 34/5/1 33/9/1
f 43/4/1 33/9/1 32/10/1
f 43/4/1 32/10/1 31/11/1
f 43/4/1 31/11/1 30/12/1
f 43/4/1 30/12/1 29/13/1
f 43/4/1 29/13/1 28/14/1
f 15/15/1 14/16/1 13/17/1
f 16/18/1 15/15/1 13/17/1
f 17/19/1 16/18/1 13/17/1
f 43/4/1 28/14/1 27/20/1
f 18/21/1 17/19/1 13/17/1
f 19/22/1 18/21/1 13/17/1
f 20/23/1 19/22/1 13/17/1
f 21/24/1 20/23/1 13/17/1
f 43/4/1 27/20/1 26/25/1
f 22/26/1 21/24/1 13/17/1
f 23/27/1 22/26/1 13/17/1
f 24/28/1 23/27/1 13/17/1
f 25/29/1 24/28/1 13/17/1
f 26/25/1 25/29/1 13/17/1
f 43/4/1 26/25/1 13/17/1
f 44/30/1 43/4/1 13/17/1
f 45/31/1 44/30/1 13/17/1
f 46/32/1 45/31/1 13/17/1
f 47/33/1 46/32/1 13/17/1
f 48/34/1 47/33/1 13/17/1
f 49/35/1 48/34/1 13/17/1
f 50/36/1 49/35/1 13/17/1
f 50/36/1 13/17/1 12/37/1
f 51/38/1 50/36/1 12/37/1
f 51/38/1 12/37/1 11/39/1
f 51/38/1 11/39/1 10/40/1
f 51/38/1 10/40/1 9/41/1
f 51/38/1 9/41/1 8/42/1
f 52/43/1 51/38/1 8/42/1
f 52/43/1 8/42/1 7/44/1
f 52/43/1 7/44/1 6/45/1
f 52/43/1 6/45/1 5/46/1
f 52/43/1 5/46/1 4/47/1
f 1/48/1 52/43/1 4/47/1
f 1/48/1 4/47/1 3/49/1
f 1/48/1 3/49/1 2/50/1
f 41/8/1 39/51/1 38/2/1
f 95/4/2 85/9/2 86/5/2
f 95/4/2 84/10/2 85/9/2
f 95/4/2 83/11/2 84/10/2
f 95/4/2 82/12/2 83/11/2
f 95/4/2 81/13/2 82/12/2
f 95/4/2 80/14/2 81/13/2
f 67/15/2 65/17/2 66/16/2
f 68/18/2 65/17/2 67/15/2
f 69/19/2 65/17/2 68/18/2
f 95/4/2 79/20/2 80/14/2
f 70/21/2 65/17/2 69/19/2
f 71/22/2 65/17/2 70/21/2
f 72/23/2 65/17/2 71/22/2
f 73/24/2 65/17/2 72/23/2
f 95/4/2 78/25/2 79/20/2
f 74/26/2 65/17/2 73/24/2
f 75/27/2 65/17/2 74/26/2
f 76/28/2 65/17/2 75/27/2
f 77/29/2 65/17/2 76/28/2
f 78/25/2 65/17/2 77/29/2
f 95/4/2 65/17/2 78/25/2
f 96/30/2 65/17/2 95/4/2
f 97/31/2 65/17/2 96/30/2
f 98/32/2 65/17/2 97/31/2
f 99/33/2 65/17/2 98/32/2
f 100/34/2 65/17/2 99/33/2
f 101/35/2 65/17/2 100/34/2
f 102/36/2 65/17/2 101/35/2
f 102/36/2 64/37/2 65/17/2
f 103/38/2 64/37/2 102/36/2
f 103/38/2 63/39/2 64/37/2
f 103/38/2 62/40/2 63/39/2
f 103/38/2 61/41/2 62/40/2
f 103/38/2 60/42/2 61/41/2
f 104/43/2 60/42/2 103/38/2
f 104/43/2 59/44/2 60/42/2
f 104/43/2 58/45/2 59/44/2
f 104/43/2 57/46/2 58/45/2
f 104/43/2 56/47/2 57/46/2
f 53/48/2 56/47/2 104/43/2
f 53/48/2 55/49/2 56/47/2
f 53/48/2 54/50/2 55/49/2
f 93/8/2 91/51/2 92/52/2
f 45/31/3 96/30/3 44/30/3
f 8/42/4 59/44/4 7/44/4
f 37/3/5 88/7/5 36/7/5
f 46/32/6 97/31/6 45/31/6
f 28/14/7 79/20/7 27/20/7
f 7/44/8 58/45/8 6/45/8
f 18/21/9 69/19/9 17/19/9
f 36/7/10 87/6/10 35/6/10
f 46/32/11 99/33/11 98/32/11
f 43/4/12 94/1/12 42/1/12
f 6/45/13 57/46/13 5/46/13
f 19/22/14 70/21/14 18/21/14
f 48/34/15 99/33/15 47/33/15
f 5/46/16 56/47/16 4/47/16
f 20/23/17 71/22/17 19/22/17
f 35/6/18 86/5/18 34/5/18
f 1/48/19 104/43/19 52/43/19
f 49/35/20 100/34/20 48/34/20
f 21/24/21 72/23/21 20/23/21
f 34/5/22 85/9/22 33/9/22
f 49/35/23 102/36/23 101/35/23
f 4/47/24 55/49/24 3/49/24
f 33/9/25 84/10/25 32/10/25
f 2/50/26 53/48/26 1/48/26
f 27/20/27 78/25/27 26/25/27
f 3/49/28 54/50/28 2/50/28
f 13/17/29 64/37/29 12/37/29
f 22/26/30 73/24/30 21/24/30
f 32/10/31 83/11/31 31/11/31
f 51/38/32 102/36/32 50/36/32
f 23/27/33 74/26/33 22/26/33
f 31/11/34 82/12/34 30/12/34
f 12/37/35 63/39/35 11/39/35
f 24/28/36 75/27/36 23/27/36
f 30/12/37 81/13/37 29/13/37
f 41/8/38 92/52/38 40/52/38
f 11/39/39 62/40/39 10/40/39
f 25/29/40 76/28/40 24/28/40
f 29/13/41 80/14/41 28/14/41
f 40/52/42 91/51/42 39/51/42
f 15/15/43 66/16/43 14/16/43
f 10/40/44 61/41/44 9/41/44
f 26/25/45 77/29/45 25/29/45
f 39/51/46 90/2/46 38/2/46
f 14/16/47 65/17/47 13/17/47
f 42/1/48 93/8/48 41/8/48
f 9/41/49 60/42/49 8/42/49
f 16/18/50 67/15/50 15/15/50
f 52/43/51 103/38/51 51/38/51
f 44/30/52 95/4/52 43/4/52
f 17/19/53 68/18/53 16/18/53
f 38/2/54 89/3/54 37/3/54
f 42/1/1 41/8/1 38/2/1
f 43/4/1 42/1/1 36/7/1
f 94/1/2 89/3/2 90/2/2
f 95/4/2 87/6/2 88/7/2
f 41/8/1 40/52/1 39/51/1
f 93/8/2 90/2/2 91/51/2
f 45/31/3 97/31/3 96/30/3
f 8/42/4 60/42/4 59/44/4
f 37/3/5 89/3/5 88/7/5
f 46/32/6 98/32/6 97/31/6
f 28/14/7 80/14/7 79/20/7
f 7/44/8 59/44/8 58/45/8
f 18/21/9 70/21/9 69/19/9
f 36/7/10 88/7/10 87/6/10
f 46/32/11 47/33/11 99/33/11
f 43/4/12 95/4/12 94/1/12
f 6/45/13 58/45/13 57/46/13
f 19/22/14 71/22/14 70/21/14
f 48/34/15 100/34/15 99/33/15
f 5/46/16 57/46/16 56/47/16
f 20/23/55 72/23/55 71/22/55
f 35/6/18 87/6/18 86/5/18
f 1/48/19 53/48/19 104/43/19
f 49/35/20 101/35/20 100/34/20
f 21/24/21 73/24/21 72/23/21
f 34/5/22 86/5/22 85/9/22
f 49/35/23 50/36/23 102/36/23
f 4/47/24 56/47/24 55/49/24
f 33/9/25 85/9/25 84/10/25
f 2/50/26 54/50/26 53/48/26
f 27/20/27 79/20/27 78/25/27
f 3/49/28 55/49/28 54/50/28
f 13/17/29 65/17/29 64/37/29
f 22/26/30 74/26/30 73/24/30
f 32/10/31 84/10/31 83/11/31
f 51/38/32 103/38/32 102/36/32
f 23/27/33 75/27/33 74/26/33
f 31/11/34 83/11/34 82/12/34
f 12/37/35 64/37/35 63/39/35
f 24/28/36 76/28/36 75/27/36
f 30/12/37 82/12/37 81/13/37
f 41/8/38 93/8/38 92/52/38
f 11/39/56 63/39/56 62/40/56
f 25/29/57 77/29/57 76/28/57
f 29/13/41 81/13/41 80/14/41
f 40/52/42 92/52/42 91/51/42
f 15/15/43 67/15/43 66/16/43
f 10/40/44 62/40/44 61/41/44
f 26/25/45 78/25/45 77/29/45
f 39/51/46 91/51/46 90/2/46
f 14/16/47 66/16/47 65/17/47
f 42/1/48 94/1/48 93/8/48
f 9/41/49 61/41/49 60/42/49
f 16/18/50 68/18/50 67/15/50
f 52/43/51 104/43/51 103/38/51
f 44/30/52 96/30/52 95/4/52
f 17/19/53 69/19/53 68/18/53
f 38/2/54 90/2/54 89/3/54
