# Blender 4.5.8 LTS
# www.blender.org
mtllib text_a.mtl
o text_a.001
v -0.075652 -0.377391 -0.025000
v -0.062136 -0.376874 -0.025000
v -0.048969 -0.375354 -0.025000
v -0.036141 -0.372880 -0.025000
v -0.023639 -0.369501 -0.025000
v -0.011451 -0.365264 -0.025000
v 0.000435 -0.360217 -0.025000
v 0.012031 -0.354410 -0.025000
v 0.023349 -0.347890 -0.025000
v 0.034402 -0.340707 -0.025000
v 0.045201 -0.332907 -0.025000
v 0.055759 -0.324539 -0.025000
v 0.066087 -0.315652 -0.025000
v 0.070435 -0.315652 -0.025000
v 0.080870 -0.365217 -0.025000
v 0.206957 -0.365217 -0.025000
v 0.206957 -0.084348 -0.025000
v 0.205462 -0.047384 -0.025000
v 0.201019 -0.013857 -0.025000
v 0.193682 0.016277 -0.025000
v 0.183510 0.043060 -0.025000
v 0.170561 0.066533 -0.025000
v 0.154891 0.086739 -0.025000
v 0.136558 0.103721 -0.025000
v 0.115620 0.117520 -0.025000
v 0.092133 0.128179 -0.025000
v 0.066155 0.135741 -0.025000
v 0.037744 0.140247 -0.025000
v 0.006957 0.141739 -0.025000
v -0.012247 0.141203 -0.025000
v -0.031167 0.139626 -0.025000
v -0.049810 0.137052 -0.025000
v -0.068180 0.133527 -0.025000
v -0.086285 0.129096 -0.025000
v -0.104130 0.123804 -0.025000
v -0.121722 0.117698 -0.025000
v -0.139066 0.110821 -0.025000
v -0.156168 0.103220 -0.025000
v -0.173035 0.094940 -0.025000
v -0.189673 0.086025 -0.025000
v -0.206087 0.076522 -0.025000
v -0.152174 -0.025217 -0.025000
v -0.139960 -0.018517 -0.025000
v -0.128084 -0.012335 -0.025000
v -0.116522 -0.006685 -0.025000
v -0.105250 -0.001578 -0.025000
v -0.094243 0.002973 -0.025000
v -0.083478 0.006956 -0.025000
v -0.072931 0.010360 -0.025000
v -0.062576 0.013172 -0.025000
v -0.052391 0.015380 -0.025000
v -0.042351 0.016973 -0.025000
v -0.032432 0.017937 -0.025000
v -0.022609 0.018261 -0.025000
v -0.010609 0.017776 -0.025000
v 0.000201 0.016337 -0.025000
v 0.009864 0.013967 -0.025000
v 0.018422 0.010692 -0.025000
v 0.025917 0.006536 -0.025000
v 0.032391 0.001522 -0.025000
v 0.037887 -0.004326 -0.025000
v 0.042448 -0.010982 -0.025000
v 0.046114 -0.018424 -0.025000
v 0.048929 -0.026626 -0.025000
v 0.050935 -0.035566 -0.025000
v 0.052174 -0.045217 -0.025000
v 0.006215 -0.051185 -0.025000
v -0.035209 -0.058680 -0.025000
v -0.072201 -0.067745 -0.025000
v -0.104863 -0.078422 -0.025000
v -0.133298 -0.090754 -0.025000
v -0.157609 -0.104783 -0.025000
v -0.177898 -0.120551 -0.025000
v -0.194267 -0.138100 -0.025000
v -0.206821 -0.157473 -0.025000
v -0.215660 -0.178712 -0.025000
v -0.220889 -0.201859 -0.025000
v -0.222609 -0.226957 -0.025000
v -0.221461 -0.247270 -0.025000
v -0.218064 -0.266783 -0.025000
v -0.212486 -0.285313 -0.025000
v -0.204799 -0.302673 -0.025000
v -0.195070 -0.318681 -0.025000
v -0.183370 -0.333152 -0.025000
v -0.169767 -0.345902 -0.025000
v -0.154332 -0.356747 -0.025000
v -0.137133 -0.365503 -0.025000
v -0.118241 -0.371985 -0.025000
v -0.097724 -0.376009 -0.025000
v -0.075652 -0.214783 -0.025000
v -0.074980 -0.206220 -0.025000
v -0.072886 -0.197947 -0.025000
v -0.069253 -0.190000 -0.025000
v -0.063961 -0.182416 -0.025000
v -0.056895 -0.175230 -0.025000
v -0.047935 -0.168478 -0.025000
v -0.036964 -0.162198 -0.025000
v -0.023865 -0.156425 -0.025000
v -0.008519 -0.151196 -0.025000
v 0.009191 -0.146546 -0.025000
v 0.029383 -0.142512 -0.025000
v 0.052174 -0.139130 -0.025000
v 0.052174 -0.218261 -0.025000
v 0.046551 -0.224146 -0.025000
v 0.040958 -0.229614 -0.025000
v 0.035353 -0.234647 -0.025000
v 0.029694 -0.239227 -0.025000
v 0.023938 -0.243336 -0.025000
v 0.018043 -0.246957 -0.025000
v 0.011968 -0.250069 -0.025000
v 0.005668 -0.252657 -0.025000
v -0.000897 -0.254701 -0.025000
v -0.007770 -0.256184 -0.025000
v -0.014993 -0.257086 -0.025000
v -0.022609 -0.257391 -0.025000
v -0.030411 -0.257101 -0.025000
v -0.037709 -0.256228 -0.025000
v -0.044470 -0.254769 -0.025000
v -0.050660 -0.252721 -0.025000
v -0.056246 -0.250082 -0.025000
v -0.061196 -0.246848 -0.025000
v -0.065475 -0.243016 -0.025000
v -0.069050 -0.238583 -0.025000
v -0.071889 -0.233546 -0.025000
v -0.073957 -0.227903 -0.025000
v -0.075223 -0.221649 -0.025000
v -0.075652 -0.377391 0.025000
v -0.062136 -0.376874 0.025000
v -0.048969 -0.375354 0.025000
v -0.036141 -0.372880 0.025000
v -0.023639 -0.369501 0.025000
v -0.011451 -0.365264 0.025000
v 0.000435 -0.360217 0.025000
v 0.012031 -0.354410 0.025000
v 0.023349 -0.347890 0.025000
v 0.034402 -0.340707 0.025000
v 0.045201 -0.332907 0.025000
v 0.055759 -0.324539 0.025000
v 0.066087 -0.315652 0.025000
v 0.070435 -0.315652 0.025000
v 0.080870 -0.365217 0.025000
v 0.206957 -0.365217 0.025000
v 0.206957 -0.084348 0.025000
v 0.205462 -0.047384 0.025000
v 0.201019 -0.013857 0.025000
v 0.193682 0.016277 0.025000
v 0.183510 0.043060 0.025000
v 0.170561 0.066533 0.025000
v 0.154891 0.086739 0.025000
v 0.136558 0.103721 0.025000
v 0.115620 0.117520 0.025000
v 0.092133 0.128179 0.025000
v 0.066155 0.135741 0.025000
v 0.037744 0.140247 0.025000
v 0.006957 0.141739 0.025000
v -0.012247 0.141203 0.025000
v -0.031167 0.139626 0.025000
v -0.049810 0.137052 0.025000
v -0.068180 0.133527 0.025000
v -0.086285 0.129096 0.025000
v -0.104130 0.123804 0.025000
v -0.121722 0.117698 0.025000
v -0.139066 0.110821 0.025000
v -0.156168 0.103220 0.025000
v -0.173035 0.094940 0.025000
v -0.189673 0.086025 0.025000
v -0.206087 0.076522 0.025000
v -0.152174 -0.025217 0.025000
v -0.139960 -0.018517 0.025000
v -0.128084 -0.012335 0.025000
v -0.116522 -0.006685 0.025000
v -0.105250 -0.001578 0.025000
v -0.094243 0.002973 0.025000
v -0.083478 0.006956 0.025000
v -0.072931 0.010360 0.025000
v -0.062576 0.013172 0.025000
v -0.052391 0.015380 0.025000
v -0.042351 0.016973 0.025000
v -0.032432 0.017937 0.025000
v -0.022609 0.018261 0.025000
v -0.010609 0.017776 0.025000
v 0.000201 0.016337 0.025000
v 0.009864 0.013967 0.025000
v 0.018422 0.010692 0.025000
v 0.025917 0.006536 0.025000
v 0.032391 0.001522 0.025000
v 0.037887 -0.004326 0.025000
v 0.042448 -0.010982 0.025000
v 0.046114 -0.018424 0.025000
v 0.048929 -0.026626 0.025000
v 0.050935 -0.035566 0.025000
v 0.052174 -0.045217 0.025000
v 0.006215 -0.051185 0.025000
v -0.035209 -0.058680 0.025000
v -0.072201 -0.067745 0.025000
v -0.104863 -0.078422 0.025000
v -0.133298 -0.090754 0.025000
v -0.157609 -0.104783 0.025000
v -0.177898 -0.120551 0.025000
v -0.194267 -0.138100 0.025000
v -0.206821 -0.157473 0.025000
v -0.215660 -0.178712 0.025000
v -0.220889 -0.201859 0.025000
v -0.222609 -0.226957 0.025000
v -0.221461 -0.247270 0.025000
v -0.218064 -0.266783 0.025000
v -0.212486 -0.285313 0.025000
v -0.204799 -0.302673 0.025000
v -0.195070 -0.318681 0.025000
v -0.183370 -0.333152 0.025000
v -0.169767 -0.345902 0.025000
v -0.154332 -0.356747 0.025000
v -0.137133 -0.365503 0.025000
v -0.118241 -0.371985 0.025000
v -0.097724 -0.376009 0.025000
v -0.075652 -0.214783 0.025000
v -0.074980 -0.206220 0.025000
v -0.072886 -0.197947 0.025000
v -0.069253 -0.190000 0.025000
v -0.063961 -0.182416 0.025000
v -0.056895 -0.175230 0.025000
v -0.047935 -0.168478 0.025000
v -0.036964 -0.162198 0.025000
v -0.023865 -0.156425 0.025000
v -0.008519 -0.151196 0.025000
v 0.009191 -0.146546 0.025000
v 0.029383 -0.142512 0.025000
v 0.052174 -0.139130 0.025000
v 0.052174 -0.218261 0.025000
v 0.046551 -0.224146 0.025000
v 0.040958 -0.229614 0.025000
v 0.035353 -0.234647 0.025000
v 0.029694 -0.239227 0.025000
v 0.023938 -0.243336 0.025000
v 0.018043 -0.246957 0.025000
v 0.011968 -0.250069 0.025000
v 0.005668 -0.252657 0.025000
v -0.000897 -0.254701 0.025000
v -0.007770 -0.256184 0.025000
v -0.014993 -0.257086 0.025000
v -0.022609 -0.257391 0.025000
v -0.030411 -0.257101 0.025000
v -0.037709 -0.256228 0.025000
v -0.044470 -0.254769 0.025000
v -0.050660 -0.252721 0.025000
v -0.056246 -0.250082 0.025000
v -0.061196 -0.246848 0.025000
v -0.065475 -0.243016 0.025000
v -0.069050 -0.238583 0.025000
v -0.071889 -0.233546 0.025000
v -0.073957 -0.227903 0.025000
v -0.075223 -0.221649 0.025000
vn -0.0000 -0.0000 -1.0000
vn -0.0000 -0.0000 1.0000
vn -0.3279 0.9447 -0.0000
vn -0.2381 -0.9712 -0.0000
vn 0.6671 0.7449 -0.0000
vn -0.5233 0.8521 -0.0000
vn -0.3686 0.9296 -0.0000
vn 0.1959 -0.9806 -0.0000
vn 0.5450 -0.8385 -0.0000
vn -0.5749 -0.8182 -0.0000
vn 0.9716 0.2366 -0.0000
vn 0.2539 -0.9672 -0.0000
vn -0.3574 -0.9339 -0.0000
vn 0.5470 0.8371 -0.0000
vn 0.5503 0.8350 -0.0000
vn -0.4560 0.8900 -0.0000
vn -0.4061 0.9138 -0.0000
vn 0.3226 -0.9465 -0.0000
vn 0.4991 -0.8665 -0.0000
vn -0.4850 -0.8745 -0.0000
vn -0.9852 -0.1715 -0.0000
vn 0.4033 -0.9151 -0.0000
vn 0.4478 -0.8941 -0.0000
vn -0.6123 -0.7906 -0.0000
vn 0.6796 0.7336 -0.0000
vn -0.9232 0.3842 -0.0000
vn -0.4537 -0.8912 -0.0000
vn -0.3800 0.9250 -0.0000
vn -0.4407 0.8977 -0.0000
vn -0.7287 -0.6849 -0.0000
vn -0.4723 0.8814 -0.0000
vn 0.4968 -0.8679 -0.0000
vn 0.3908 -0.9205 -0.0000
vn -0.8250 -0.5652 -0.0000
vn 0.4272 0.9042 -0.0000
vn -0.2973 0.9548 -0.0000
vn 0.6018 -0.7987 -0.0000
vn 0.3284 -0.9445 -0.0000
vn -0.8970 -0.4420 -0.0000
vn 0.7902 0.6128 -0.0000
vn -0.3245 -0.9459 -0.0000
vn -0.5011 0.8654 -0.0000
vn 0.7130 -0.7012 -0.0000
vn 0.3141 0.9494 -0.0000
vn -0.9754 0.2203 -0.0000
vn 0.9913 0.1314 -0.0000
vn -0.2108 0.9775 -0.0000
vn -0.8836 -0.4682 -0.0000
vn 0.2610 -0.9654 -0.0000
vn -0.9458 -0.3246 -0.0000
vn 0.4810 -0.8767 -0.0000
vn -0.1925 -0.9813 -0.0000
vn 0.8201 -0.5722 -0.0000
vn -0.9757 -0.2189 -0.0000
vn 0.2109 0.9775 -0.0000
vn 0.4617 -0.8870 -0.0000
vn -0.1240 0.9923 -0.0000
vn 0.9094 -0.4158 -0.0000
vn 0.1894 -0.9819 -0.0000
vn -0.9919 -0.1273 -0.0000
vn 0.4391 -0.8985 -0.0000
vn 0.9694 -0.2454 -0.0000
vn 0.1147 -0.9934 -0.0000
vn -0.1288 0.9917 -0.0000
vn 0.1188 0.9929 -0.0000
vn 0.4127 -0.9109 -0.0000
vn -0.9977 0.0684 -0.0000
vn -0.0625 -0.9980 -0.0000
vn -0.0400 0.9992 -0.0000
vn 0.0382 -0.9993 -0.0000
vn 0.3821 -0.9241 -0.0000
vn 0.9992 0.0404 -0.0000
vn 0.9969 -0.0782 -0.0000
vn -0.1780 0.9840 -0.0000
vn 0.0372 0.9993 -0.0000
vn 0.3470 -0.9378 -0.0000
vn 0.9981 0.0624 -0.0000
vn -0.2380 0.9713 -0.0000
vn 0.3071 -0.9517 -0.0000
vn -0.7230 0.6908 -0.0000
vn -0.0279 0.9996 -0.0000
vn -0.3107 0.9505 -0.0000
vn -0.9576 -0.2882 -0.0000
vn 0.2621 -0.9650 -0.0000
vn 0.9801 0.1984 -0.0000
vn 0.0484 0.9988 -0.0000
vn -0.3979 0.9174 -0.0000
vn -0.9144 -0.4049 -0.0000
vn -0.6991 0.7150 -0.0000
vn -0.0831 0.9965 -0.0000
vn 0.2119 -0.9773 -0.0000
vn -0.8546 -0.5194 -0.0000
vn -0.9984 -0.0564 -0.0000
vn 0.1566 -0.9877 -0.0000
vn 0.1566 0.9877 -0.0000
vn -0.1368 0.9906 -0.0000
vn 1.0000 -0.0000 -0.0000
vn -0.0000 -1.0000 -0.0000
vn 0.9389 0.3442 -0.0000
vn -0.4998 0.8661 -0.0000
vn 0.8756 0.4830 -0.0000
vn -0.6681 0.7440 -0.0000
vn -0.1884 0.9821 -0.0000
vn 0.6522 -0.7580 -0.0000
vn 0.0967 -0.9953 -0.0000
vn -0.6136 0.7896 -0.0000
vn -0.9786 -0.2060 -0.0000
vn 0.0330 -0.9995 -0.0000
vn 0.8712 0.4910 -0.0000
vn 0.2795 0.9602 -0.0000
vn -0.7313 0.6821 -0.0000
vn -0.7776 -0.6287 -0.0000
vn -0.6291 0.7773 -0.0000
vn -0.2377 0.9713 -0.0000
vn -0.8392 0.5438 -0.0000
vn 0.9348 0.3550 -0.0000
vn -0.2843 0.9587 -0.0000
vn 0.6211 -0.7837 -0.0000
vn -0.0404 -0.9992 -0.0000
vn 0.7784 0.6278 -0.0000
vn -0.5810 0.8139 -0.0000
vn 0.1468 -0.9892 -0.0000
vn 0.5855 -0.8107 -0.0000
vn -0.1320 -0.9913 -0.0000
vn 0.4133 0.9106 -0.0000
vn -1.0000 -0.0000 -0.0000
vn -0.6839 -0.7296 -0.0000
vn 0.3284 -0.9446 -0.0000
vn 0.2610 -0.9653 -0.0000
vn -0.7230 0.6909 -0.0000
vn -0.9785 -0.2060 -0.0000
vt 0.232000 0.000000
vt 0.224000 0.000000
vt 0.216000 0.000000
vt 0.240000 0.000000
vt 0.208000 0.000000
vt 0.248000 0.000000
vt 0.256000 0.000000
vt 0.200000 0.000000
vt 0.264000 0.000000
vt 0.272000 0.000000
vt 0.192000 0.000000
vt 0.280000 0.000000
vt 0.288000 0.000000
vt 0.184000 0.000000
vt 0.296000 0.000000
vt 0.176000 0.000000
vt 0.304000 0.000000
vt 0.312000 0.000000
vt 0.168000 0.000000
vt 0.320000 0.000000
vt 0.328000 0.000000
vt 0.336000 0.000000
vt 0.344000 0.000000
vt 0.352000 0.000000
vt 0.360000 0.000000
vt 0.368000 0.000000
vt 0.376000 0.000000
vt 0.384000 0.000000
vt 0.392000 0.000000
vt 0.400000 0.000000
vt 0.408000 0.000000
vt 0.160000 0.000000
vt 0.416000 0.000000
vt 0.424000 0.000000
vt 0.152000 0.000000
vt 0.432000 0.000000
vt 0.440000 0.000000
vt 0.448000 0.000000
vt 0.144000 0.000000
vt 0.456000 0.000000
vt 0.464000 0.000000
vt 0.472000 0.000000
vt 0.480000 0.000000
vt 0.488000 0.000000
vt 0.496000 0.000000
vt 0.600000 0.000000
vt 0.736000 0.000000
vt 0.608000 0.000000
vt 0.512000 0.000000
vt 0.504000 0.000000
vt 0.136000 0.000000
vt 0.520000 0.000000
vt 0.528000 0.000000
vt 0.128000 0.000000
vt 0.536000 0.000000
vt 0.544000 0.000000
vt 0.552000 0.000000
vt 0.560000 0.000000
vt 0.808000 0.000000
vt 0.120000 0.000000
vt 0.568000 0.000000
vt 0.576000 0.000000
vt 0.584000 0.000000
vt 0.592000 0.000000
vt 0.800000 0.000000
vt 0.816000 0.000000
vt 0.792000 0.000000
vt 0.784000 0.000000
vt 0.776000 0.000000
vt 0.768000 0.000000
vt 0.760000 0.000000
vt 0.752000 0.000000
vt 0.744000 0.000000
vt 0.728000 0.000000
vt 0.720000 0.000000
vt 0.616000 0.000000
vt 0.712000 0.000000
vt 1.000000 0.000000
vt 0.824000 0.000000
vt 0.832000 0.000000
vt 0.624000 0.000000
vt 0.992000 0.000000
vt 0.984000 0.000000
vt 0.840000 0.000000
vt 0.976000 0.000000
vt 0.848000 0.000000
vt 0.968000 0.000000
vt 0.856000 0.000000
vt 0.960000 0.000000
vt 0.864000 0.000000
vt 0.952000 0.000000
vt 0.872000 0.000000
vt 0.632000 0.000000
vt 0.880000 0.000000
vt 0.944000 0.000000
vt 0.888000 0.000000
vt 0.936000 0.000000
vt 0.896000 0.000000
vt 0.928000 0.000000
vt 0.904000 0.000000
vt 0.920000 0.000000
vt 0.912000 0.000000
vt 0.104000 0.000000
vt 0.640000 0.000000
vt 0.648000 0.000000
vt 0.656000 0.000000
vt 0.096000 0.000000
vt 0.088000 0.000000
vt 0.112000 0.000000
vt 0.664000 0.000000
vt 0.080000 0.000000
vt 0.072000 0.000000
vt 0.672000 0.000000
vt 0.064000 0.000000
vt 0.680000 0.000000
vt 0.056000 0.000000
vt 0.048000 0.000000
vt 0.688000 0.000000
vt 0.040000 0.000000
vt 0.032000 0.000000
vt 0.696000 0.000000
vt 0.024000 0.000000
vt 0.704000 0.000000
vt 0.016000 0.000000
vt 0.008000 0.000000
vt 0.000000 0.000000
s 0
f 30/1/1 29/2/1 28/3/1
f 31/4/1 30/1/1 28/3/1
f 31/4/1 28/3/1 27/5/1
f 32/6/1 31/4/1 27/5/1
f 33/7/1 32/6/1 27/5/1
f 33/7/1 27/5/1 26/8/1
f 34/9/1 33/7/1 26/8/1
f 35/10/1 34/9/1 26/8/1
f 35/10/1 26/8/1 25/11/1
f 36/12/1 35/10/1 25/11/1
f 37/13/1 36/12/1 25/11/1
f 37/13/1 25/11/1 24/14/1
f 38/15/1 37/13/1 24/14/1
f 38/15/1 24/14/1 23/16/1
f 39/17/1 38/15/1 23/16/1
f 40/18/1 39/17/1 23/16/1
f 40/18/1 23/16/1 22/19/1
f 41/20/1 40/18/1 22/19/1
f 42/21/1 41/20/1 43/22/1
f 43/22/1 41/20/1 44/23/1
f 44/23/1 41/20/1 45/24/1
f 45/24/1 41/20/1 46/25/1
f 46/25/1 41/20/1 47/26/1
f 47/26/1 41/20/1 48/27/1
f 48/27/1 41/20/1 49/28/1
f 49/28/1 41/20/1 50/29/1
f 50/29/1 41/20/1 22/19/1
f 50/29/1 22/19/1 51/30/1
f 51/30/1 22/19/1 52/31/1
f 52/31/1 22/19/1 21/32/1
f 52/31/1 21/32/1 53/33/1
f 53/33/1 21/32/1 54/34/1
f 54/34/1 21/32/1 20/35/1
f 55/36/1 54/34/1 20/35/1
f 56/37/1 55/36/1 20/35/1
f 57/38/1 56/37/1 20/35/1
f 57/38/1 20/35/1 19/39/1
f 58/40/1 57/38/1 19/39/1
f 59/41/1 58/40/1 19/39/1
f 60/42/1 59/41/1 19/39/1
f 61/43/1 60/42/1 19/39/1
f 62/44/1 61/43/1 19/39/1
f 63/45/1 62/44/1 19/39/1
f 76/46/1 93/47/1 77/48/1
f 157/4/2 153/5/2 154/3/2
f 65/49/1 64/50/1 18/51/1
f 66/52/1 65/49/1 18/51/1
f 67/53/1 66/52/1 18/51/1
f 67/53/1 18/51/1 17/54/1
f 68/55/1 67/53/1 17/54/1
f 69/56/1 68/55/1 17/54/1
f 70/57/1 69/56/1 17/54/1
f 71/58/1 70/57/1 17/54/1
f 71/58/1 17/54/1 102/59/1
f 102/59/1 17/54/1 16/60/1
f 72/61/1 71/58/1 102/59/1
f 73/62/1 72/61/1 102/59/1
f 74/63/1 73/62/1 102/59/1
f 75/64/1 74/63/1 102/59/1
f 75/64/1 102/59/1 101/65/1
f 103/66/1 102/59/1 16/60/1
f 75/64/1 101/65/1 100/67/1
f 75/64/1 100/67/1 99/68/1
f 75/64/1 99/68/1 98/69/1
f 75/64/1 98/69/1 97/70/1
f 76/46/1 75/64/1 97/70/1
f 76/46/1 97/70/1 96/71/1
f 76/46/1 96/71/1 95/72/1
f 76/46/1 95/72/1 94/73/1
f 156/1/2 154/3/2 155/2/2
f 157/4/2 154/3/2 156/1/2
f 77/48/1 93/47/1 92/74/1
f 77/48/1 92/74/1 91/75/1
f 64/50/1 19/39/1 18/51/1
f 158/6/2 153/5/2 157/4/2
f 78/76/1 90/77/1 126/78/1
f 104/79/1 103/66/1 16/60/1
f 77/48/1 90/77/1 78/76/1
f 105/80/1 104/79/1 16/60/1
f 159/7/2 153/5/2 158/6/2
f 79/81/1 125/82/1 124/83/1
f 106/84/1 105/80/1 16/60/1
f 79/81/1 124/83/1 123/85/1
f 107/86/1 106/84/1 16/60/1
f 79/81/1 123/85/1 122/87/1
f 108/88/1 107/86/1 16/60/1
f 79/81/1 122/87/1 121/89/1
f 109/90/1 108/88/1 16/60/1
f 79/81/1 121/89/1 120/91/1
f 110/92/1 109/90/1 16/60/1
f 80/93/1 79/81/1 120/91/1
f 111/94/1 110/92/1 16/60/1
f 80/93/1 120/91/1 119/95/1
f 112/96/1 111/94/1 16/60/1
f 80/93/1 119/95/1 118/97/1
f 113/98/1 112/96/1 16/60/1
f 80/93/1 118/97/1 117/99/1
f 114/100/1 113/98/1 16/60/1
f 80/93/1 117/99/1 116/101/1
f 115/102/1 114/100/1 16/60/1
f 80/93/1 116/101/1 115/102/1
f 80/93/1 115/102/1 14/103/1
f 14/103/1 115/102/1 16/60/1
f 81/104/1 80/93/1 14/103/1
f 82/105/1 81/104/1 14/103/1
f 83/106/1 82/105/1 13/107/1
f 13/107/1 82/105/1 14/103/1
f 83/106/1 13/107/1 12/108/1
f 15/109/1 14/103/1 16/60/1
f 84/110/1 83/106/1 12/108/1
f 84/110/1 12/108/1 11/111/1
f 84/110/1 11/111/1 10/112/1
f 85/113/1 84/110/1 10/112/1
f 85/113/1 10/112/1 9/114/1
f 86/115/1 85/113/1 9/114/1
f 86/115/1 9/114/1 8/116/1
f 86/115/1 8/116/1 7/117/1
f 87/118/1 86/115/1 7/117/1
f 87/118/1 7/117/1 6/119/1
f 87/118/1 6/119/1 5/120/1
f 88/121/1 87/118/1 5/120/1
f 88/121/1 5/120/1 4/122/1
f 89/123/1 88/121/1 4/122/1
f 89/123/1 4/122/1 3/124/1
f 89/123/1 3/124/1 2/125/1
f 1/126/1 89/123/1 2/125/1
f 79/81/1 126/78/1 125/82/1
f 159/7/2 152/8/2 153/5/2
f 160/9/2 152/8/2 159/7/2
f 161/10/2 152/8/2 160/9/2
f 161/10/2 151/11/2 152/8/2
f 162/12/2 151/11/2 161/10/2
f 163/13/2 151/11/2 162/12/2
f 163/13/2 150/14/2 151/11/2
f 164/15/2 150/14/2 163/13/2
f 164/15/2 149/16/2 150/14/2
f 165/17/2 149/16/2 164/15/2
f 166/18/2 149/16/2 165/17/2
f 166/18/2 148/19/2 149/16/2
f 167/20/2 148/19/2 166/18/2
f 168/21/2 169/22/2 167/20/2
f 169/22/2 170/23/2 167/20/2
f 170/23/2 171/24/2 167/20/2
f 171/24/2 172/25/2 167/20/2
f 172/25/2 173/26/2 167/20/2
f 173/26/2 174/27/2 167/20/2
f 174/27/2 175/28/2 167/20/2
f 175/28/2 176/29/2 167/20/2
f 176/29/2 148/19/2 167/20/2
f 176/29/2 177/30/2 148/19/2
f 177/30/2 178/31/2 148/19/2
f 178/31/2 147/32/2 148/19/2
f 178/31/2 179/33/2 147/32/2
f 179/33/2 180/34/2 147/32/2
f 180/34/2 146/35/2 147/32/2
f 181/36/2 146/35/2 180/34/2
f 182/37/2 146/35/2 181/36/2
f 183/38/2 146/35/2 182/37/2
f 183/38/2 145/39/2 146/35/2
f 184/40/2 145/39/2 183/38/2
f 185/41/2 145/39/2 184/40/2
f 186/42/2 145/39/2 185/41/2
f 187/43/2 145/39/2 186/42/2
f 188/44/2 145/39/2 187/43/2
f 189/45/2 145/39/2 188/44/2
f 219/47/2 202/46/2 203/48/2
f 191/49/2 144/51/2 190/50/2
f 192/52/2 144/51/2 191/49/2
f 193/53/2 144/51/2 192/52/2
f 193/53/2 143/54/2 144/51/2
f 194/55/2 143/54/2 193/53/2
f 195/56/2 143/54/2 194/55/2
f 196/57/2 143/54/2 195/56/2
f 197/58/2 143/54/2 196/57/2
f 197/58/2 228/59/2 143/54/2
f 228/59/2 142/60/2 143/54/2
f 198/61/2 228/59/2 197/58/2
f 199/62/2 228/59/2 198/61/2
f 200/63/2 228/59/2 199/62/2
f 201/64/2 228/59/2 200/63/2
f 201/64/2 227/65/2 228/59/2
f 229/66/2 142/60/2 228/59/2
f 201/64/2 226/67/2 227/65/2
f 201/64/2 225/68/2 226/67/2
f 201/64/2 224/69/2 225/68/2
f 201/64/2 223/70/2 224/69/2
f 202/46/2 223/70/2 201/64/2
f 202/46/2 222/71/2 223/70/2
f 202/46/2 221/72/2 222/71/2
f 202/46/2 220/73/2 221/72/2
f 203/48/2 218/74/2 219/47/2
f 203/48/2 217/75/2 218/74/2
f 190/50/2 145/39/2 189/45/2
f 204/76/2 252/78/2 216/77/2
f 230/79/2 142/60/2 229/66/2
f 216/77/2 203/48/2 204/76/2
f 231/80/2 142/60/2 230/79/2
f 205/81/2 250/83/2 251/82/2
f 232/84/2 142/60/2 231/80/2
f 205/81/2 249/85/2 250/83/2
f 233/86/2 142/60/2 232/84/2
f 205/81/2 248/87/2 249/85/2
f 234/88/2 142/60/2 233/86/2
f 205/81/2 247/89/2 248/87/2
f 235/90/2 142/60/2 234/88/2
f 205/81/2 246/91/2 247/89/2
f 236/92/2 142/60/2 235/90/2
f 206/93/2 246/91/2 205/81/2
f 237/94/2 142/60/2 236/92/2
f 206/93/2 245/95/2 246/91/2
f 238/96/2 142/60/2 237/94/2
f 206/93/2 244/97/2 245/95/2
f 239/98/2 142/60/2 238/96/2
f 206/93/2 243/99/2 244/97/2
f 240/100/2 142/60/2 239/98/2
f 206/93/2 242/101/2 243/99/2
f 241/102/2 142/60/2 240/100/2
f 206/93/2 241/102/2 242/101/2
f 206/93/2 140/103/2 241/102/2
f 140/103/2 142/60/2 241/102/2
f 207/104/2 140/103/2 206/93/2
f 208/105/2 140/103/2 207/104/2
f 209/106/2 139/107/2 208/105/2
f 139/107/2 140/103/2 208/105/2
f 209/106/2 138/108/2 139/107/2
f 141/109/2 142/60/2 140/103/2
f 210/110/2 138/108/2 209/106/2
f 210/110/2 137/111/2 138/108/2
f 210/110/2 136/112/2 137/111/2
f 211/113/2 136/112/2 210/110/2
f 211/113/2 135/114/2 136/112/2
f 212/115/2 135/114/2 211/113/2
f 212/115/2 134/116/2 135/114/2
f 212/115/2 133/117/2 134/116/2
f 213/118/2 133/117/2 212/115/2
f 213/118/2 132/119/2 133/117/2
f 213/118/2 131/120/2 132/119/2
f 214/121/2 131/120/2 213/118/2
f 214/121/2 130/122/2 131/120/2
f 215/123/2 130/122/2 214/121/2
f 215/123/2 129/124/2 130/122/2
f 215/123/2 128/125/2 129/124/2
f 127/126/2 128/125/2 215/123/2
f 205/81/2 252/78/2 204/76/2
f 36/12/3 161/10/3 35/10/3
f 57/38/4 182/37/4 56/37/4
f 122/87/5 247/89/5 121/89/5
f 109/90/6 234/88/6 108/88/6
f 37/13/7 162/12/7 36/12/7
f 101/65/8 226/67/8 100/67/8
f 10/112/9 135/114/9 9/114/9
f 86/115/10 211/113/10 85/113/10
f 20/35/11 145/39/11 19/39/11
f 100/67/12 225/68/12 99/68/12
f 57/38/13 184/40/13 183/38/13
f 121/89/14 246/91/14 120/91/14
f 24/14/15 151/11/15 150/14/15
f 110/92/16 235/90/16 109/90/16
f 37/13/17 164/15/17 163/13/17
f 99/68/18 224/69/18 98/69/18
f 9/114/19 134/116/19 8/116/19
f 59/41/20 184/40/20 58/40/20
f 80/93/21 205/81/21 79/81/21
f 98/69/22 223/70/22 97/70/22
f 8/116/23 133/117/23 7/117/23
f 60/42/24 185/41/24 59/41/24
f 24/14/25 149/16/25 23/16/25
f 76/46/26 201/64/26 75/64/26
f 87/118/27 212/115/27 86/115/27
f 111/94/28 236/92/28 110/92/28
f 39/17/29 164/15/29 38/15/29
f 61/43/30 186/42/30 60/42/30
f 40/18/31 165/17/31 39/17/31
f 97/70/32 222/71/32 96/71/32
f 7/117/33 132/119/33 6/119/33
f 62/44/34 187/43/34 61/43/34
f 120/91/35 245/95/35 119/95/35
f 112/96/36 237/94/36 111/94/36
f 96/71/37 221/72/37 95/72/37
f 6/119/38 131/120/38 5/120/38
f 63/45/39 188/44/39 62/44/39
f 23/16/40 148/19/40 22/19/40
f 88/121/41 213/118/41 87/118/41
f 41/20/42 166/18/42 40/18/42
f 95/72/43 220/73/43 94/73/43
f 119/95/44 244/97/44 118/97/44
f 77/48/45 202/46/45 76/46/45
f 18/51/46 145/39/46 144/51/46
f 113/98/47 238/96/47 112/96/47
f 42/21/48 167/20/48 41/20/48
f 5/120/49 130/122/49 4/122/49
f 63/45/50 190/50/50 189/45/50
f 43/22/51 168/21/51 42/21/51
f 89/123/52 214/121/52 88/121/52
f 94/73/53 219/47/53 93/47/53
f 64/50/54 191/49/54 190/50/54
f 118/97/55 243/99/55 117/99/55
f 44/23/56 169/22/56 43/22/56
f 114/100/57 239/98/57 113/98/57
f 93/47/58 218/74/58 92/74/58
f 4/122/59 129/124/59 3/124/59
f 65/49/60 192/52/60 191/49/60
f 44/23/61 171/24/61 170/23/61
f 92/74/62 217/75/62 91/75/62
f 3/124/63 128/125/63 2/125/63
f 66/52/64 193/53/64 192/52/64
f 117/99/65 242/101/65 116/101/65
f 46/25/66 171/24/66 45/24/66
f 77/48/67 204/76/67 203/48/67
f 1/126/68 215/123/68 89/123/68
f 115/102/69 240/100/69 114/100/69
f 2/125/70 127/126/70 1/126/70
f 47/26/71 172/25/71 46/25/71
f 17/54/72 144/51/72 143/54/72
f 91/75/73 216/77/73 90/77/73
f 68/55/74 193/53/74 67/53/74
f 116/101/75 241/102/75 115/102/75
f 48/27/76 173/26/76 47/26/76
f 90/77/77 252/78/77 126/78/77
f 69/56/78 194/55/78 68/55/78
f 49/28/79 174/27/79 48/27/79
f 104/79/80 229/66/80 103/66/80
f 30/1/81 155/2/81 29/2/81
f 70/57/82 195/56/82 69/56/82
f 81/104/83 206/93/83 80/93/83
f 50/29/84 175/28/84 49/28/84
f 126/78/85 251/82/85 125/82/85
f 29/2/86 154/3/86 28/3/86
f 71/58/87 196/57/87 70/57/87
f 82/105/88 207/104/88 81/104/88
f 105/80/89 230/79/89 104/79/89
f 31/4/90 156/1/90 30/1/90
f 51/30/91 176/29/91 50/29/91
f 83/106/92 208/105/92 82/105/92
f 79/81/93 204/76/93 78/76/93
f 51/30/94 178/31/94 177/30/94
f 28/3/95 153/5/95 27/5/95
f 32/6/96 157/4/96 31/4/96
f 17/54/97 142/60/97 16/60/97
f 14/103/98 139/107/98 13/107/98
f 125/82/99 250/83/99 124/83/99
f 72/61/100 197/58/100 71/58/100
f 21/32/101 148/19/101 147/32/101
f 106/84/102 231/80/102 105/80/102
f 33/7/103 158/6/103 32/6/103
f 13/107/104 138/108/104 12/108/104
f 52/31/105 179/33/105 178/31/105
f 73/62/106 198/61/106 72/61/106
f 15/109/107 140/103/107 14/103/107
f 16/60/98 141/109/98 15/109/98
f 54/34/108 179/33/108 53/33/108
f 123/85/109 250/83/109 249/85/109
f 27/5/110 152/8/110 26/8/110
f 74/63/111 199/62/111 73/62/111
f 83/106/112 210/110/112 209/106/112
f 107/86/113 232/84/113 106/84/113
f 34/9/114 159/7/114 33/7/114
f 74/63/115 201/64/115 200/63/115
f 21/32/116 146/35/116 20/35/116
f 35/10/117 160/9/117 34/9/117
f 12/108/118 137/111/118 11/111/118
f 55/36/119 180/34/119 54/34/119
f 123/85/120 248/87/120 122/87/120
f 108/88/121 233/86/121 107/86/121
f 102/59/122 227/65/122 101/65/122
f 11/111/123 136/112/123 10/112/123
f 56/37/124 181/36/124 55/36/124
f 26/8/125 151/11/125 25/11/125
f 103/66/126 228/59/126 102/59/126
f 85/113/127 210/110/127 84/110/127
f 76/46/1 94/73/1 93/47/1
f 64/50/1 63/45/1 19/39/1
f 77/48/1 91/75/1 90/77/1
f 79/81/1 78/76/1 126/78/1
f 219/47/2 220/73/2 202/46/2
f 190/50/2 144/51/2 145/39/2
f 216/77/2 217/75/2 203/48/2
f 205/81/2 251/82/2 252/78/2
f 36/12/3 162/12/3 161/10/3
f 57/38/4 183/38/4 182/37/4
f 122/87/5 248/87/5 247/89/5
f 109/90/6 235/90/6 234/88/6
f 37/13/7 163/13/7 162/12/7
f 101/65/8 227/65/8 226/67/8
f 10/112/9 136/112/9 135/114/9
f 86/115/10 212/115/10 211/113/10
f 20/35/11 146/35/11 145/39/11
f 100/67/12 226/67/12 225/68/12
f 57/38/13 58/40/13 184/40/13
f 121/89/14 247/89/14 246/91/14
f 24/14/15 25/11/15 151/11/15
f 110/92/16 236/92/16 235/90/16
f 37/13/17 38/15/17 164/15/17
f 99/68/18 225/68/18 224/69/18
f 9/114/19 135/114/19 134/116/19
f 59/41/20 185/41/20 184/40/20
f 80/93/21 206/93/21 205/81/21
f 98/69/22 224/69/22 223/70/22
f 8/116/23 134/116/23 133/117/23
f 60/42/24 186/42/24 185/41/24
f 24/14/25 150/14/25 149/16/25
f 76/46/26 202/46/26 201/64/26
f 87/118/27 213/118/27 212/115/27
f 111/94/28 237/94/28 236/92/28
f 39/17/29 165/17/29 164/15/29
f 61/43/30 187/43/30 186/42/30
f 40/18/31 166/18/31 165/17/31
f 97/70/32 223/70/32 222/71/32
f 7/117/33 133/117/33 132/119/33
f 62/44/34 188/44/34 187/43/34
f 120/91/35 246/91/35 245/95/35
f 112/96/36 238/96/36 237/94/36
f 96/71/37 222/71/37 221/72/37
f 6/119/128 132/119/128 131/120/128
f 63/45/39 189/45/39 188/44/39
f 23/16/40 149/16/40 148/19/40
f 88/121/41 214/121/41 213/118/41
f 41/20/42 167/20/42 166/18/42
f 95/72/43 221/72/43 220/73/43
f 119/95/44 245/95/44 244/97/44
f 77/48/45 203/48/45 202/46/45
f 18/51/46 19/39/46 145/39/46
f 113/98/47 239/98/47 238/96/47
f 42/21/48 168/21/48 167/20/48
f 5/120/129 131/120/129 130/122/129
f 63/45/50 64/50/50 190/50/50
f 43/22/51 169/22/51 168/21/51
f 89/123/52 215/123/52 214/121/52
f 94/73/53 220/73/53 219/47/53
f 64/50/54 65/49/54 191/49/54
f 118/97/55 244/97/55 243/99/55
f 44/23/56 170/23/56 169/22/56
f 114/100/57 240/100/57 239/98/57
f 93/47/58 219/47/58 218/74/58
f 4/122/59 130/122/59 129/124/59
f 65/49/60 66/52/60 192/52/60
f 44/23/61 45/24/61 171/24/61
f 92/74/62 218/74/62 217/75/62
f 3/124/63 129/124/63 128/125/63
f 66/52/64 67/53/64 193/53/64
f 117/99/65 243/99/65 242/101/65
f 46/25/66 172/25/66 171/24/66
f 77/48/67 78/76/67 204/76/67
f 1/126/68 127/126/68 215/123/68
f 115/102/69 241/102/69 240/100/69
f 2/125/70 128/125/70 127/126/70
f 47/26/71 173/26/71 172/25/71
f 17/54/72 18/51/72 144/51/72
f 91/75/73 217/75/73 216/77/73
f 68/55/74 194/55/74 193/53/74
f 116/101/75 242/101/75 241/102/75
f 48/27/76 174/27/76 173/26/76
f 90/77/77 216/77/77 252/78/77
f 69/56/78 195/56/78 194/55/78
f 49/28/79 175/28/79 174/27/79
f 104/79/130 230/79/130 229/66/130
f 30/1/81 156/1/81 155/2/81
f 70/57/82 196/57/82 195/56/82
f 81/104/83 207/104/83 206/93/83
f 50/29/84 176/29/84 175/28/84
f 126/78/85 252/78/85 251/82/85
f 29/2/86 155/2/86 154/3/86
f 71/58/87 197/58/87 196/57/87
f 82/105/88 208/105/88 207/104/88
f 105/80/89 231/80/89 230/79/89
f 31/4/90 157/4/90 156/1/90
f 51/30/91 177/30/91 176/29/91
f 83/106/92 209/106/92 208/105/92
f 79/81/93 205/81/93 204/76/93
f 51/30/94 52/31/94 178/31/94
f 28/3/95 154/3/95 153/5/95
f 32/6/96 158/6/96 157/4/96
f 17/54/97 143/54/97 142/60/97
f 14/103/98 140/103/98 139/107/98
f 125/82/99 251/82/99 250/83/99
f 72/61/100 198/61/100 197/58/100
f 21/32/101 22/19/101 148/19/101
f 106/84/102 232/84/102 231/80/102
f 33/7/103 159/7/103 158/6/103
f 13/107/104 139/107/104 138/108/104
f 52/31/105 53/33/105 179/33/105
f 73/62/106 199/62/106 198/61/106
f 15/109/131 141/109/131 140/103/131
f 16/60/98 142/60/98 141/109/98
f 54/34/108 180/34/108 179/33/108
f 123/85/109 124/83/109 250/83/109
f 27/5/110 153/5/110 152/8/110
f 74/63/111 200/63/111 199/62/111
f 83/106/112 84/110/112 210/110/112
f 107/86/113 233/86/113 232/84/113
f 34/9/114 160/9/114 159/7/114
f 74/63/115 75/64/115 201/64/115
f 21/32/116 147/32/116 146/35/116
f 35/10/117 161/10/117 160/9/117
f 12/108/118 138/108/118 137/111/118
f 55/36/119 181/36/119 180/34/119
f 123/85/120 249/85/120 248/87/120
f 108/88/121 234/88/121 233/86/121
f 102/59/122 228/59/122 227/65/122
f 11/111/123 137/111/123 136/112/123
f 56/37/124 182/37/124 181/36/124
f 26/8/125 152/8/125 151/11/125
f 103/66/126 229/66/126 228/59/126
f 85/113/127 211/113/127 210/110/127
