# Blender 4.5.8 LTS
# www.blender.org
mtllib text_v.mtl
o text_v.001
v -0.251739 0.129565 -0.025000
v -0.087391 -0.365217 -0.025000
v 0.091739 -0.365217 -0.025000
v 0.251739 0.129565 -0.025000
v 0.103043 0.129565 -0.025000
v 0.042174 -0.098261 -0.025000
v 0.039130 -0.110488 -0.025000
v 0.036087 -0.122818 -0.025000
v 0.033043 -0.135245 -0.025000
v 0.030000 -0.147762 -0.025000
v 0.026957 -0.160363 -0.025000
v 0.023913 -0.173044 -0.025000
v 0.020870 -0.185796 -0.025000
v 0.017826 -0.198615 -0.025000
v 0.014783 -0.211495 -0.025000
v 0.011739 -0.224428 -0.025000
v 0.008696 -0.237410 -0.025000
v 0.005652 -0.250435 -0.025000
v 0.001304 -0.250435 -0.025000
v -0.001922 -0.237410 -0.025000
v -0.005089 -0.224428 -0.025000
v -0.008207 -0.211495 -0.025000
v -0.011288 -0.198615 -0.025000
v -0.014346 -0.185796 -0.025000
v -0.017391 -0.173044 -0.025000
v -0.020437 -0.160363 -0.025000
v -0.023494 -0.147762 -0.025000
v -0.026576 -0.135245 -0.025000
v -0.029694 -0.122818 -0.025000
v -0.032860 -0.110488 -0.025000
v -0.036087 -0.098261 -0.025000
v -0.096087 0.129565 -0.025000
v -0.251739 0.129565 0.025000
v -0.087391 -0.365217 0.025000
v 0.091739 -0.365217 0.025000
v 0.251739 0.129565 0.025000
v 0.103043 0.129565 0.025000
v 0.042174 -0.098261 0.025000
v 0.039130 -0.110488 0.025000
v 0.036087 -0.122818 0.025000
v 0.033043 -0.135245 0.025000
v 0.030000 -0.147762 0.025000
v 0.026957 -0.160363 0.025000
v 0.023913 -0.173044 0.025000
v 0.020870 -0.185796 0.025000
v 0.017826 -0.198615 0.025000
v 0.014783 -0.211495 0.025000
v 0.011739 -0.224428 0.025000
v 0.008696 -0.237410 0.025000
v 0.005652 -0.250435 0.025000
v 0.001304 -0.250435 0.025000
v -0.001922 -0.237410 0.025000
v -0.005089 -0.224428 0.025000
v -0.008207 -0.211495 0.025000
v -0.011288 -0.198615 0.025000
v -0.014346 -0.185796 0.025000
v -0.017391 -0.173044 0.025000
v -0.020437 -0.160363 0.025000
v -0.023494 -0.147762 0.025000
v -0.026576 -0.135245 0.025000
v -0.029694 -0.122818 0.025000
v -0.032860 -0.110488 0.025000
v -0.036087 -0.098261 0.025000
v -0.096087 0.129565 0.025000
vn -0.0000 -0.0000 -1.0000
vn -0.0000 -0.0000 1.0000
vn 0.9718 0.2358 -0.0000
vn -0.9738 0.2275 -0.0000
vn 0.9727 0.2320 -0.0000
vn -0.9721 0.2348 -0.0000
vn 0.9686 0.2487 -0.0000
vn -0.9732 0.2300 -0.0000
vn -0.0000 1.0000 -0.0000
vn -0.9709 0.2396 -0.0000
vn 0.9707 0.2405 -0.0000
vn 0.9670 0.2547 -0.0000
vn 0.9723 0.2335 -0.0000
vn 0.9725 0.2327 -0.0000
vn -0.9661 0.2581 -0.0000
vn -0.9724 0.2334 -0.0000
vn 0.9699 0.2434 -0.0000
vn -0.9734 0.2291 -0.0000
vn -0.0000 -1.0000 -0.0000
vn -0.9713 0.2379 -0.0000
vn 0.9726 0.2323 -0.0000
vn 0.9722 0.2344 -0.0000
vn 0.9515 -0.3077 -0.0000
vn -0.9727 0.2321 -0.0000
vn 0.9710 0.2391 -0.0000
vn -0.9736 0.2282 -0.0000
vn -0.9717 0.2363 -0.0000
vn 0.9669 0.2552 -0.0000
vn -0.9730 0.2310 -0.0000
vn -0.9704 0.2415 -0.0000
vn 0.9715 0.2369 -0.0000
vn -0.9490 -0.3152 -0.0000
vt 0.032258 0.000000
vt 0.000000 0.000000
vt 1.000000 0.000000
vt 0.967742 0.000000
vt 0.161290 0.000000
vt 0.129032 0.000000
vt 0.096774 0.000000
vt 0.064516 0.000000
vt 0.935484 0.000000
vt 0.193548 0.000000
vt 0.903226 0.000000
vt 0.225806 0.000000
vt 0.870968 0.000000
vt 0.258065 0.000000
vt 0.838710 0.000000
vt 0.290323 0.000000
vt 0.806452 0.000000
vt 0.322581 0.000000
vt 0.774194 0.000000
vt 0.354839 0.000000
vt 0.741935 0.000000
vt 0.387097 0.000000
vt 0.419355 0.000000
vt 0.709677 0.000000
vt 0.451613 0.000000
vt 0.677419 0.000000
vt 0.483871 0.000000
vt 0.645161 0.000000
vt 0.516129 0.000000
vt 0.612903 0.000000
vt 0.548387 0.000000
vt 0.580645 0.000000
s 0
f 2/1/1 1/2/1 32/3/1
f 2/1/1 32/3/1 31/4/1
f 6/5/1 5/6/1 4/7/1
f 6/5/1 4/7/1 3/8/1
f 2/1/1 31/4/1 30/9/1
f 7/10/1 6/5/1 3/8/1
f 2/1/1 30/9/1 29/11/1
f 8/12/1 7/10/1 3/8/1
f 2/1/1 29/11/1 28/13/1
f 9/14/1 8/12/1 3/8/1
f 2/1/1 28/13/1 27/15/1
f 10/16/1 9/14/1 3/8/1
f 2/1/1 27/15/1 26/17/1
f 11/18/1 10/16/1 3/8/1
f 2/1/1 26/17/1 25/19/1
f 12/20/1 11/18/1 3/8/1
f 2/1/1 25/19/1 24/21/1
f 13/22/1 12/20/1 3/8/1
f 14/23/1 13/22/1 3/8/1
f 2/1/1 24/21/1 23/24/1
f 15/25/1 14/23/1 3/8/1
f 2/1/1 23/24/1 22/26/1
f 16/27/1 15/25/1 3/8/1
f 2/1/1 22/26/1 21/28/1
f 17/29/1 16/27/1 3/8/1
f 2/1/1 21/28/1 20/30/1
f 18/31/1 17/29/1 3/8/1
f 2/1/1 20/30/1 19/32/1
f 34/1/2 64/3/2 33/2/2
f 34/1/2 63/4/2 64/3/2
f 19/32/1 3/8/1 2/1/1
f 38/5/2 36/7/2 37/6/2
f 38/5/2 35/8/2 36/7/2
f 34/1/2 62/9/2 63/4/2
f 39/10/2 35/8/2 38/5/2
f 34/1/2 61/11/2 62/9/2
f 40/12/2 35/8/2 39/10/2
f 34/1/2 60/13/2 61/11/2
f 41/14/2 35/8/2 40/12/2
f 34/1/2 59/15/2 60/13/2
f 42/16/2 35/8/2 41/14/2
f 34/1/2 58/17/2 59/15/2
f 43/18/2 35/8/2 42/16/2
f 34/1/2 57/19/2 58/17/2
f 44/20/2 35/8/2 43/18/2
f 34/1/2 56/21/2 57/19/2
f 45/22/2 35/8/2 44/20/2
f 46/23/2 35/8/2 45/22/2
f 34/1/2 55/24/2 56/21/2
f 47/25/2 35/8/2 46/23/2
f 34/1/2 54/26/2 55/24/2
f 48/27/2 35/8/2 47/25/2
f 34/1/2 53/28/2 54/26/2
f 49/29/2 35/8/2 48/27/2
f 34/1/2 52/30/2 53/28/2
f 50/31/2 35/8/2 49/29/2
f 34/1/2 51/32/2 52/30/2
f 35/8/2 51/32/2 34/1/2
f 26/17/3 59/15/3 58/17/3
f 18/31/4 49/29/4 17/29/4
f 24/21/5 55/24/5 23/24/5
f 11/18/6 42/16/6 10/16/6
f 30/9/7 61/11/7 29/11/7
f 15/25/8 46/23/8 14/23/8
f 1/2/9 64/3/9 32/3/9
f 8/12/10 39/10/10 7/10/10
f 20/30/11 51/32/11 19/32/11
f 32/3/12 63/4/12 31/4/12
f 26/17/13 57/19/13 25/19/13
f 23/24/14 54/26/14 22/26/14
f 6/5/15 37/6/15 5/6/15
f 12/20/16 43/18/16 11/18/16
f 19/32/9 50/31/9 18/31/9
f 29/11/17 60/13/17 28/13/17
f 15/25/18 48/27/18 47/25/18
f 3/8/19 34/1/19 2/1/19
f 9/14/20 40/12/20 8/12/20
f 5/6/9 36/7/9 4/7/9
f 25/19/21 56/21/21 24/21/21
f 22/26/22 53/28/22 21/28/22
f 4/7/23 35/8/23 3/8/23
f 13/22/24 44/20/24 12/20/24
f 28/13/25 59/15/25 27/15/25
f 17/29/26 48/27/26 16/27/26
f 10/16/27 41/14/27 9/14/27
f 31/4/28 62/9/28 30/9/28
f 14/23/29 45/22/29 13/22/29
f 7/10/30 38/5/30 6/5/30
f 21/28/31 52/30/31 20/30/31
f 2/1/32 33/2/32 1/2/32
f 19/32/1 18/31/1 3/8/1
f 35/8/2 50/31/2 51/32/2
f 26/17/3 27/15/3 59/15/3
f 18/31/4 50/31/4 49/29/4
f 24/21/5 56/21/5 55/24/5
f 11/18/6 43/18/6 42/16/6
f 30/9/7 62/9/7 61/11/7
f 15/25/8 47/25/8 46/23/8
f 1/2/9 33/2/9 64/3/9
f 8/12/10 40/12/10 39/10/10
f 20/30/11 52/30/11 51/32/11
f 32/3/12 64/3/12 63/4/12
f 26/17/13 58/17/13 57/19/13
f 23/24/14 55/24/14 54/26/14
f 6/5/15 38/5/15 37/6/15
f 12/20/16 44/20/16 43/18/16
f 19/32/9 51/32/9 50/31/9
f 29/11/17 61/11/17 60/13/17
f 15/25/18 16/27/18 48/27/18
f 3/8/19 35/8/19 34/1/19
f 9/14/20 41/14/20 40/12/20
f 5/6/9 37/6/9 36/7/9
f 25/19/21 57/19/21 56/21/21
f 22/26/22 54/26/22 53/28/22
f 4/7/23 36/7/23 35/8/23
f 13/22/24 45/22/24 44/20/24
f 28/13/25 60/13/25 59/15/25
f 17/29/26 49/29/26 48/27/26
f 10/16/27 42/16/27 41/14/27
f 31/4/28 63/4/28 62/9/28
f 14/23/29 46/23/29 45/22/29
f 7/10/30 39/10/30 38/5/30
f 21/28/31 53/28/31 52/30/31
f 2/1/32 34/1/32 33/2/32
