# Blender 4.5.8 LTS
# www.blender.org
mtllib text_m.mtl
o text_m.001
v -0.365652 0.129565 -0.025000
v -0.365652 -0.365217 -0.025000
v -0.210870 -0.365217 -0.025000
v -0.210870 -0.034783 -0.025000
v -0.203733 -0.027517 -0.025000
v -0.196679 -0.020930 -0.025000
v -0.189715 -0.015014 -0.025000
v -0.182850 -0.009758 -0.025000
v -0.176095 -0.005156 -0.025000
v -0.169457 -0.001196 -0.025000
v -0.162945 0.002130 -0.025000
v -0.156570 0.004831 -0.025000
v -0.150340 0.006916 -0.025000
v -0.144263 0.008394 -0.025000
v -0.138350 0.009274 -0.025000
v -0.132609 0.009565 -0.025000
v -0.123259 0.009149 -0.025000
v -0.114771 0.007830 -0.025000
v -0.107133 0.005503 -0.025000
v -0.100338 0.002061 -0.025000
v -0.094376 -0.002600 -0.025000
v -0.089239 -0.008587 -0.025000
v -0.084917 -0.016005 -0.025000
v -0.081401 -0.024960 -0.025000
v -0.078682 -0.035557 -0.025000
v -0.076751 -0.047903 -0.025000
v -0.075599 -0.062102 -0.025000
v -0.075217 -0.078261 -0.025000
v -0.075217 -0.365217 -0.025000
v 0.079565 -0.365217 -0.025000
v 0.079565 -0.034783 -0.025000
v 0.086901 -0.027517 -0.025000
v 0.094122 -0.020930 -0.025000
v 0.101223 -0.015014 -0.025000
v 0.108196 -0.009758 -0.025000
v 0.115037 -0.005156 -0.025000
v 0.121739 -0.001196 -0.025000
v 0.128296 0.002130 -0.025000
v 0.134702 0.004831 -0.025000
v 0.140951 0.006916 -0.025000
v 0.147037 0.008394 -0.025000
v 0.152954 0.009274 -0.025000
v 0.158696 0.009565 -0.025000
v 0.168028 0.009149 -0.025000
v 0.176469 0.007830 -0.025000
v 0.184035 0.005503 -0.025000
v 0.190741 0.002061 -0.025000
v 0.196601 -0.002600 -0.025000
v 0.201630 -0.008587 -0.025000
v 0.205845 -0.016005 -0.025000
v 0.209259 -0.024960 -0.025000
v 0.211889 -0.035557 -0.025000
v 0.213748 -0.047903 -0.025000
v 0.214853 -0.062102 -0.025000
v 0.215217 -0.078261 -0.025000
v 0.215217 -0.365217 -0.025000
v 0.370000 -0.365217 -0.025000
v 0.370000 -0.059130 -0.025000
v 0.369014 -0.029239 -0.025000
v 0.366023 -0.001377 -0.025000
v 0.360978 0.024348 -0.025000
v 0.353833 0.047826 -0.025000
v 0.344537 0.068949 -0.025000
v 0.333043 0.087609 -0.025000
v 0.319304 0.103696 -0.025000
v 0.303269 0.117101 -0.025000
v 0.284891 0.127717 -0.025000
v 0.264122 0.135435 -0.025000
v 0.240914 0.140145 -0.025000
v 0.215217 0.141739 -0.025000
v 0.199103 0.140961 -0.025000
v 0.183764 0.138704 -0.025000
v 0.169144 0.135082 -0.025000
v 0.155185 0.130209 -0.025000
v 0.141830 0.124202 -0.025000
v 0.129022 0.117174 -0.025000
v 0.116702 0.109240 -0.025000
v 0.104815 0.100515 -0.025000
v 0.093302 0.091114 -0.025000
v 0.082105 0.081151 -0.025000
v 0.071169 0.070742 -0.025000
v 0.060435 0.060000 -0.025000
v 0.053780 0.072751 -0.025000
v 0.046401 0.084473 -0.025000
v 0.038261 0.095149 -0.025000
v 0.029324 0.104766 -0.025000
v 0.019553 0.113309 -0.025000
v 0.008913 0.120761 -0.025000
v -0.002633 0.127108 -0.025000
v -0.015121 0.132335 -0.025000
v -0.028587 0.136427 -0.025000
v -0.043068 0.139368 -0.025000
v -0.058599 0.141144 -0.025000
v -0.075217 0.141739 -0.025000
v -0.091462 0.141048 -0.025000
v -0.106771 0.139038 -0.025000
v -0.121223 0.135802 -0.025000
v -0.134895 0.131433 -0.025000
v -0.147867 0.126026 -0.025000
v -0.160217 0.119674 -0.025000
v -0.172024 0.112470 -0.025000
v -0.183366 0.104509 -0.025000
v -0.194321 0.095883 -0.025000
v -0.204968 0.086687 -0.025000
v -0.215385 0.077013 -0.025000
v -0.225652 0.066957 -0.025000
v -0.228261 0.066957 -0.025000
v -0.239565 0.129565 -0.025000
v -0.365652 0.129565 0.025000
v -0.365652 -0.365217 0.025000
v -0.210870 -0.365217 0.025000
v -0.210870 -0.034783 0.025000
v -0.203733 -0.027517 0.025000
v -0.196679 -0.020930 0.025000
v -0.189715 -0.015014 0.025000
v -0.182850 -0.009758 0.025000
v -0.176095 -0.005156 0.025000
v -0.169457 -0.001196 0.025000
v -0.162945 0.002130 0.025000
v -0.156570 0.004831 0.025000
v -0.150340 0.006916 0.025000
v -0.144263 0.008394 0.025000
v -0.138350 0.009274 0.025000
v -0.132609 0.009565 0.025000
v -0.123259 0.009149 0.025000
v -0.114771 0.007830 0.025000
v -0.107133 0.005503 0.025000
v -0.100338 0.002061 0.025000
v -0.094376 -0.002600 0.025000
v -0.089239 -0.008587 0.025000
v -0.084917 -0.016005 0.025000
v -0.081401 -0.024960 0.025000
v -0.078682 -0.035557 0.025000
v -0.076751 -0.047903 0.025000
v -0.075599 -0.062102 0.025000
v -0.075217 -0.078261 0.025000
v -0.075217 -0.365217 0.025000
v 0.079565 -0.365217 0.025000
v 0.079565 -0.034783 0.025000
v 0.086901 -0.027517 0.025000
v 0.094122 -0.020930 0.025000
v 0.101223 -0.015014 0.025000
v 0.108196 -0.009758 0.025000
v 0.115037 -0.005156 0.025000
v 0.121739 -0.001196 0.025000
v 0.128296 0.002130 0.025000
v 0.134702 0.004831 0.025000
v 0.140951 0.006916 0.025000
v 0.147037 0.008394 0.025000
v 0.152954 0.009274 0.025000
v 0.158696 0.009565 0.025000
v 0.168028 0.009149 0.025000
v 0.176469 0.007830 0.025000
v 0.184035 0.005503 0.025000
v 0.190741 0.002061 0.025000
v 0.196601 -0.002600 0.025000
v 0.201630 -0.008587 0.025000
v 0.205845 -0.016005 0.025000
v 0.209259 -0.024960 0.025000
v 0.211889 -0.035557 0.025000
v 0.213748 -0.047903 0.025000
v 0.214853 -0.062102 0.025000
v 0.215217 -0.078261 0.025000
v 0.215217 -0.365217 0.025000
v 0.370000 -0.365217 0.025000
v 0.370000 -0.059130 0.025000
v 0.369014 -0.029239 0.025000
v 0.366023 -0.001377 0.025000
v 0.360978 0.024348 0.025000
v 0.353833 0.047826 0.025000
v 0.344537 0.068949 0.025000
v 0.333043 0.087609 0.025000
v 0.319304 0.103696 0.025000
v 0.303269 0.117101 0.025000
v 0.284891 0.127717 0.025000
v 0.264122 0.135435 0.025000
v 0.240914 0.140145 0.025000
v 0.215217 0.141739 0.025000
v 0.199103 0.140961 0.025000
v 0.183764 0.138704 0.025000
v 0.169144 0.135082 0.025000
v 0.155185 0.130209 0.025000
v 0.141830 0.124202 0.025000
v 0.129022 0.117174 0.025000
v 0.116702 0.109240 0.025000
v 0.104815 0.100515 0.025000
v 0.093302 0.091114 0.025000
v 0.082105 0.081151 0.025000
v 0.071169 0.070742 0.025000
v 0.060435 0.060000 0.025000
v 0.053780 0.072751 0.025000
v 0.046401 0.084473 0.025000
v 0.038261 0.095149 0.025000
v 0.029324 0.104766 0.025000
v 0.019553 0.113309 0.025000
v 0.008913 0.120761 0.025000
v -0.002633 0.127108 0.025000
v -0.015121 0.132335 0.025000
v -0.028587 0.136427 0.025000
v -0.043068 0.139368 0.025000
v -0.058599 0.141144 0.025000
v -0.075217 0.141739 0.025000
v -0.091462 0.141048 0.025000
v -0.106771 0.139038 0.025000
v -0.121223 0.135802 0.025000
v -0.134895 0.131433 0.025000
v -0.147867 0.126026 0.025000
v -0.160217 0.119674 0.025000
v -0.172024 0.112470 0.025000
v -0.183366 0.104509 0.025000
v -0.194321 0.095883 0.025000
v -0.204968 0.086687 0.025000
v -0.215385 0.077013 0.025000
v -0.225652 0.066957 0.025000
v -0.228261 0.066957 0.025000
v -0.239565 0.129565 0.025000
vn -0.0000 -0.0000 -1.0000
vn -0.0000 -0.0000 1.0000
vn 0.6475 -0.7621 -0.0000
vn 0.5737 0.8191 -0.0000
vn -0.5208 0.8537 -0.0000
vn 0.3885 -0.9215 -0.0000
vn 0.6079 -0.7940 -0.0000
vn 1.0000 -0.0000 -0.0000
vn -0.9997 -0.0236 -0.0000
vn -0.5414 0.8407 -0.0000
vn 0.4524 -0.8918 -0.0000
vn -0.0425 0.9991 -0.0000
vn 0.5631 -0.8264 -0.0000
vn -0.6160 -0.7878 -0.0000
vn -0.9997 -0.0226 -0.0000
vn 0.0358 0.9994 -0.0000
vn 0.5123 -0.8588 -0.0000
vn 0.6414 0.7672 -0.0000
vn -0.6225 -0.7826 -0.0000
vn -0.0482 0.9988 -0.0000
vn -1.0000 -0.0000 -0.0000
vn 0.4549 -0.8906 -0.0000
vn -0.0000 -1.0000 -0.0000
vn 0.6582 0.7528 -0.0000
vn 0.0619 0.9981 -0.0000
vn -0.5745 0.8185 -0.0000
vn 0.5087 -0.8609 -0.0000
vn 0.3901 -0.9208 -0.0000
vn 0.1136 0.9935 -0.0000
vn -0.5917 0.8062 -0.0000
vn 0.9943 0.1067 -0.0000
vn -0.1302 0.9915 -0.0000
vn 0.3173 -0.9483 -0.0000
vn -0.7589 -0.6512 -0.0000
vn -0.1456 0.9893 -0.0000
vn 0.7325 0.6807 -0.0000
vn -0.7657 -0.6432 -0.0000
vn 0.2363 -0.9717 -0.0000
vn -0.6186 0.7857 -0.0000
vn 0.1989 0.9800 -0.0000
vn 0.1472 -0.9891 -0.0000
vn 0.5583 -0.8297 -0.0000
vn 0.7604 0.6495 -0.0000
vn -0.8640 -0.5034 -0.0000
vn 0.1991 0.9800 -0.0000
vn -0.6325 0.7746 -0.0000
vn -0.2185 0.9758 -0.0000
vn 0.0507 -0.9987 -0.0000
vn -0.8695 -0.4940 -0.0000
vn -0.6537 0.7568 -0.0000
vn -0.2405 0.9707 -0.0000
vn 0.9567 0.2912 -0.0000
vn 0.6018 -0.7986 -0.0000
vn 0.7952 0.6063 -0.0000
vn 0.2907 0.9568 -0.0000
vn -0.6648 0.7471 -0.0000
vn 0.6401 -0.7683 -0.0000
vn -0.3044 0.9526 -0.0000
vn -0.0445 -0.9990 -0.0000
vn -0.9308 -0.3655 -0.0000
vn 0.8514 0.5245 -0.0000
vn -0.9344 -0.3563 -0.0000
vn 0.3483 0.9374 -0.0000
vn 0.9813 0.1924 -0.0000
vn -0.6804 0.7328 -0.0000
vn -0.3295 0.9441 -0.0000
vn 0.6739 -0.7388 -0.0000
vn 0.8463 0.5328 -0.0000
vn -0.9686 -0.2485 -0.0000
vn 0.3861 0.9225 -0.0000
vn -0.6894 0.7243 -0.0000
vn -0.3847 0.9230 -0.0000
vn -0.9706 -0.2408 -0.0000
vn 0.1471 -0.9891 -0.0000
vn -0.6998 0.7144 -0.0000
vn -0.4102 0.9120 -0.0000
vn -0.1535 -0.9881 -0.0000
vn 0.7037 -0.7105 -0.0000
vn -0.1544 -0.9880 -0.0000
vn 0.8865 0.4627 -0.0000
vn -0.7074 0.7069 -0.0000
vn 0.9995 0.0330 -0.0000
vn -0.0000 1.0000 -0.0000
vn 0.2360 -0.9718 -0.0000
vn 0.9841 0.1777 -0.0000
vn -0.2915 -0.9566 -0.0000
vn 0.9153 0.4028 -0.0000
vn 0.5002 0.8659 -0.0000
vn -0.2940 -0.9558 -0.0000
vn -0.9880 -0.1545 -0.0000
vn 0.4817 0.8763 -0.0000
vn -0.9888 -0.1489 -0.0000
vn -0.4574 0.8893 -0.0000
vn 0.3165 -0.9486 -0.0000
vn 0.7135 -0.7007 -0.0000
vn -0.4518 -0.8921 -0.0000
vn -0.9967 -0.0809 -0.0000
vn -0.4810 0.8767 -0.0000
vn 0.6824 -0.7309 -0.0000
vn -0.4566 -0.8897 -0.0000
vn -0.9970 -0.0776 -0.0000
vn -0.0446 -0.9990 -0.0000
vt 0.878505 0.000000
vt 0.869159 0.000000
vt 0.859813 0.000000
vt 0.654206 0.000000
vt 0.644860 0.000000
vt 0.635514 0.000000
vt 0.850467 0.000000
vt 0.887850 0.000000
vt 0.663551 0.000000
vt 0.626168 0.000000
vt 0.841121 0.000000
vt 0.897196 0.000000
vt 0.672897 0.000000
vt 0.831776 0.000000
vt 0.906542 0.000000
vt 0.616822 0.000000
vt 0.682243 0.000000
vt 0.822430 0.000000
vt 0.915888 0.000000
vt 0.691589 0.000000
vt 0.009346 0.000000
vt 0.000000 0.000000
vt 1.000000 0.000000
vt 0.990654 0.000000
vt 0.607477 0.000000
vt 0.813084 0.000000
vt 0.925234 0.000000
vt 0.700935 0.000000
vt 0.803738 0.000000
vt 0.934579 0.000000
vt 0.710280 0.000000
vt 0.598131 0.000000
vt 0.794393 0.000000
vt 0.943925 0.000000
vt 0.719626 0.000000
vt 0.785047 0.000000
vt 0.953271 0.000000
vt 0.588785 0.000000
vt 0.728972 0.000000
vt 0.962617 0.000000
vt 0.775701 0.000000
vt 0.738318 0.000000
vt 0.579439 0.000000
vt 0.971963 0.000000
vt 0.766355 0.000000
vt 0.747664 0.000000
vt 0.981308 0.000000
vt 0.757009 0.000000
vt 0.570093 0.000000
vt 0.028037 0.000000
vt 0.037383 0.000000
vt 0.046729 0.000000
vt 0.056075 0.000000
vt 0.065421 0.000000
vt 0.074766 0.000000
vt 0.084112 0.000000
vt 0.093458 0.000000
vt 0.102804 0.000000
vt 0.112150 0.000000
vt 0.121495 0.000000
vt 0.130841 0.000000
vt 0.140187 0.000000
vt 0.560748 0.000000
vt 0.392523 0.000000
vt 0.401869 0.000000
vt 0.551402 0.000000
vt 0.149533 0.000000
vt 0.383178 0.000000
vt 0.373832 0.000000
vt 0.158879 0.000000
vt 0.411215 0.000000
vt 0.364486 0.000000
vt 0.168224 0.000000
vt 0.420561 0.000000
vt 0.355140 0.000000
vt 0.177570 0.000000
vt 0.429907 0.000000
vt 0.345794 0.000000
vt 0.336449 0.000000
vt 0.186916 0.000000
vt 0.439252 0.000000
vt 0.327103 0.000000
vt 0.542056 0.000000
vt 0.196262 0.000000
vt 0.448598 0.000000
vt 0.317757 0.000000
vt 0.205607 0.000000
vt 0.457944 0.000000
vt 0.308411 0.000000
vt 0.299065 0.000000
vt 0.214953 0.000000
vt 0.467290 0.000000
vt 0.289720 0.000000
vt 0.224299 0.000000
vt 0.476636 0.000000
vt 0.280374 0.000000
vt 0.018692 0.000000
vt 0.271028 0.000000
vt 0.233645 0.000000
vt 0.242991 0.000000
vt 0.495327 0.000000
vt 0.485981 0.000000
vt 0.532710 0.000000
vt 0.523364 0.000000
vt 0.252336 0.000000
vt 0.504673 0.000000
vt 0.261682 0.000000
vt 0.514019 0.000000
s 0
f 95/1/1 94/2/1 93/3/1
f 71/4/1 70/5/1 69/6/1
f 95/1/1 93/3/1 92/7/1
f 96/8/1 95/1/1 92/7/1
f 72/9/1 71/4/1 69/6/1
f 72/9/1 69/6/1 68/10/1
f 96/8/1 92/7/1 91/11/1
f 97/12/1 96/8/1 91/11/1
f 73/13/1 72/9/1 68/10/1
f 97/12/1 91/11/1 90/14/1
f 98/15/1 97/12/1 90/14/1
f 73/13/1 68/10/1 67/16/1
f 74/17/1 73/13/1 67/16/1
f 98/15/1 90/14/1 89/18/1
f 99/19/1 98/15/1 89/18/1
f 75/20/1 74/17/1 67/16/1
f 2/21/1 1/22/1 108/23/1
f 2/21/1 108/23/1 107/24/1
f 75/20/1 67/16/1 66/25/1
f 99/19/1 89/18/1 88/26/1
f 100/27/1 99/19/1 88/26/1
f 76/28/1 75/20/1 66/25/1
f 100/27/1 88/26/1 87/29/1
f 101/30/1 100/27/1 87/29/1
f 77/31/1 76/28/1 66/25/1
f 77/31/1 66/25/1 65/32/1
f 101/30/1 87/29/1 86/33/1
f 102/34/1 101/30/1 86/33/1
f 78/35/1 77/31/1 65/32/1
f 102/34/1 86/33/1 85/36/1
f 103/37/1 102/34/1 85/36/1
f 78/35/1 65/32/1 64/38/1
f 79/39/1 78/35/1 64/38/1
f 104/40/1 103/37/1 85/36/1
f 104/40/1 85/36/1 84/41/1
f 80/42/1 79/39/1 64/38/1
f 80/42/1 64/38/1 63/43/1
f 105/44/1 104/40/1 84/41/1
f 105/44/1 84/41/1 83/45/1
f 81/46/1 80/42/1 63/43/1
f 106/47/1 105/44/1 83/45/1
f 106/47/1 83/45/1 82/48/1
f 82/48/1 81/46/1 63/43/1
f 82/48/1 63/43/1 62/49/1
f 2/21/1 107/24/1 106/47/1
f 2/21/1 106/47/1 4/50/1
f 4/50/1 106/47/1 5/51/1
f 5/51/1 106/47/1 6/52/1
f 6/52/1 106/47/1 7/53/1
f 7/53/1 106/47/1 8/54/1
f 8/54/1 106/47/1 9/55/1
f 9/55/1 106/47/1 10/56/1
f 10/56/1 106/47/1 11/57/1
f 11/57/1 106/47/1 12/58/1
f 12/58/1 106/47/1 13/59/1
f 13/59/1 106/47/1 82/48/1
f 13/59/1 82/48/1 14/60/1
f 14/60/1 82/48/1 15/61/1
f 15/61/1 82/48/1 62/49/1
f 15/61/1 62/49/1 16/62/1
f 16/62/1 62/49/1 61/63/1
f 16/62/1 61/63/1 43/64/1
f 43/64/1 61/63/1 44/65/1
f 44/65/1 61/63/1 60/66/1
f 17/67/1 16/62/1 43/64/1
f 17/67/1 43/64/1 42/68/1
f 17/67/1 42/68/1 41/69/1
f 18/70/1 17/67/1 41/69/1
f 45/71/1 44/65/1 60/66/1
f 18/70/1 41/69/1 40/72/1
f 19/73/1 18/70/1 40/72/1
f 46/74/1 45/71/1 60/66/1
f 19/73/1 40/72/1 39/75/1
f 20/76/1 19/73/1 39/75/1
f 47/77/1 46/74/1 60/66/1
f 20/76/1 39/75/1 38/78/1
f 20/76/1 38/78/1 37/79/1
f 21/80/1 20/76/1 37/79/1
f 48/81/1 47/77/1 60/66/1
f 21/80/1 37/79/1 36/82/1
f 48/81/1 60/66/1 59/83/1
f 22/84/1 21/80/1 36/82/1
f 49/85/1 48/81/1 59/83/1
f 22/84/1 36/82/1 35/86/1
f 23/87/1 22/84/1 35/86/1
f 50/88/1 49/85/1 59/83/1
f 23/87/1 35/86/1 34/89/1
f 23/87/1 34/89/1 33/90/1
f 24/91/1 23/87/1 33/90/1
f 51/92/1 50/88/1 59/83/1
f 24/91/1 33/90/1 32/93/1
f 25/94/1 24/91/1 32/93/1
f 52/95/1 51/92/1 59/83/1
f 25/94/1 32/93/1 31/96/1
f 203/1/2 201/3/2 202/2/2
f 2/21/1 4/50/1 3/97/1
f 25/94/1 31/96/1 30/98/1
f 26/99/1 25/94/1 30/98/1
f 179/4/2 177/6/2 178/5/2
f 27/100/1 26/99/1 30/98/1
f 54/101/1 53/102/1 58/103/1
f 54/101/1 58/103/1 57/104/1
f 28/105/1 27/100/1 30/98/1
f 55/106/1 54/101/1 57/104/1
f 29/107/1 28/105/1 30/98/1
f 56/108/1 55/106/1 57/104/1
f 53/102/1 59/83/1 58/103/1
f 203/1/2 200/7/2 201/3/2
f 204/8/2 200/7/2 203/1/2
f 180/9/2 177/6/2 179/4/2
f 180/9/2 176/10/2 177/6/2
f 204/8/2 199/11/2 200/7/2
f 205/12/2 199/11/2 204/8/2
f 181/13/2 176/10/2 180/9/2
f 205/12/2 198/14/2 199/11/2
f 206/15/2 198/14/2 205/12/2
f 181/13/2 175/16/2 176/10/2
f 182/17/2 175/16/2 181/13/2
f 206/15/2 197/18/2 198/14/2
f 207/19/2 197/18/2 206/15/2
f 183/20/2 175/16/2 182/17/2
f 110/21/2 216/23/2 109/22/2
f 110/21/2 215/24/2 216/23/2
f 183/20/2 174/25/2 175/16/2
f 207/19/2 196/26/2 197/18/2
f 208/27/2 196/26/2 207/19/2
f 184/28/2 174/25/2 183/20/2
f 208/27/2 195/29/2 196/26/2
f 209/30/2 195/29/2 208/27/2
f 185/31/2 174/25/2 184/28/2
f 185/31/2 173/32/2 174/25/2
f 209/30/2 194/33/2 195/29/2
f 210/34/2 194/33/2 209/30/2
f 186/35/2 173/32/2 185/31/2
f 210/34/2 193/36/2 194/33/2
f 211/37/2 193/36/2 210/34/2
f 186/35/2 172/38/2 173/32/2
f 187/39/2 172/38/2 186/35/2
f 212/40/2 193/36/2 211/37/2
f 212/40/2 192/41/2 193/36/2
f 188/42/2 172/38/2 187/39/2
f 188/42/2 171/43/2 172/38/2
f 213/44/2 192/41/2 212/40/2
f 213/44/2 191/45/2 192/41/2
f 189/46/2 171/43/2 188/42/2
f 214/47/2 191/45/2 213/44/2
f 214/47/2 190/48/2 191/45/2
f 190/48/2 171/43/2 189/46/2
f 190/48/2 170/49/2 171/43/2
f 110/21/2 214/47/2 215/24/2
f 110/21/2 112/50/2 214/47/2
f 112/50/2 113/51/2 214/47/2
f 113/51/2 114/52/2 214/47/2
f 114/52/2 115/53/2 214/47/2
f 115/53/2 116/54/2 214/47/2
f 116/54/2 117/55/2 214/47/2
f 117/55/2 118/56/2 214/47/2
f 118/56/2 119/57/2 214/47/2
f 119/57/2 120/58/2 214/47/2
f 120/58/2 121/59/2 214/47/2
f 121/59/2 190/48/2 214/47/2
f 121/59/2 122/60/2 190/48/2
f 122/60/2 123/61/2 190/48/2
f 123/61/2 170/49/2 190/48/2
f 123/61/2 124/62/2 170/49/2
f 124/62/2 169/63/2 170/49/2
f 124/62/2 151/64/2 169/63/2
f 151/64/2 152/65/2 169/63/2
f 152/65/2 168/66/2 169/63/2
f 125/67/2 151/64/2 124/62/2
f 125/67/2 150/68/2 151/64/2
f 125/67/2 149/69/2 150/68/2
f 126/70/2 149/69/2 125/67/2
f 153/71/2 168/66/2 152/65/2
f 126/70/2 148/72/2 149/69/2
f 127/73/2 148/72/2 126/70/2
f 154/74/2 168/66/2 153/71/2
f 127/73/2 147/75/2 148/72/2
f 128/76/2 147/75/2 127/73/2
f 155/77/2 168/66/2 154/74/2
f 128/76/2 146/78/2 147/75/2
f 128/76/2 145/79/2 146/78/2
f 129/80/2 145/79/2 128/76/2
f 156/81/2 168/66/2 155/77/2
f 129/80/2 144/82/2 145/79/2
f 156/81/2 167/83/2 168/66/2
f 130/84/2 144/82/2 129/80/2
f 157/85/2 167/83/2 156/81/2
f 130/84/2 143/86/2 144/82/2
f 131/87/2 143/86/2 130/84/2
f 158/88/2 167/83/2 157/85/2
f 131/87/2 142/89/2 143/86/2
f 131/87/2 141/90/2 142/89/2
f 132/91/2 141/90/2 131/87/2
f 159/92/2 167/83/2 158/88/2
f 132/91/2 140/93/2 141/90/2
f 133/94/2 140/93/2 132/91/2
f 160/95/2 167/83/2 159/92/2
f 133/94/2 139/96/2 140/93/2
f 110/21/2 111/97/2 112/50/2
f 133/94/2 138/98/2 139/96/2
f 134/99/2 138/98/2 133/94/2
f 135/100/2 138/98/2 134/99/2
f 162/101/2 166/103/2 161/102/2
f 162/101/2 165/104/2 166/103/2
f 136/105/2 138/98/2 135/100/2
f 163/106/2 165/104/2 162/101/2
f 137/107/2 138/98/2 136/105/2
f 164/108/2 165/104/2 163/106/2
f 161/102/2 167/83/2 160/95/2
f 7/53/3 114/52/3 6/52/3
f 88/26/4 195/29/4 87/29/4
f 101/30/5 208/27/5 100/27/5
f 39/75/6 146/78/6 38/78/6
f 8/54/7 115/53/7 7/53/7
f 58/103/8 165/104/8 57/104/8
f 27/100/9 136/105/9 135/100/9
f 77/31/10 184/28/10 76/28/10
f 37/79/11 146/78/11 145/79/11
f 95/1/12 202/2/12 94/2/12
f 9/55/13 116/54/13 8/54/13
f 21/80/14 128/76/14 20/76/14
f 55/106/15 162/101/15 54/101/15
f 94/2/16 201/3/16 93/3/16
f 10/56/17 117/55/17 9/55/17
f 66/25/18 173/32/18 65/32/18
f 48/81/19 155/77/19 47/77/19
f 71/4/20 178/5/20 70/5/20
f 29/107/21 136/105/21 28/105/21
f 11/57/22 118/56/22 10/56/22
f 30/98/23 137/107/23 29/107/23
f 87/29/24 194/33/24 86/33/24
f 70/5/25 177/6/25 69/6/25
f 56/108/21 163/106/21 55/106/21
f 102/34/26 209/30/26 101/30/26
f 37/79/27 144/82/27 36/82/27
f 12/58/28 119/57/28 11/57/28
f 57/104/23 164/108/23 56/108/23
f 93/3/29 200/7/29 92/7/29
f 78/35/30 185/31/30 77/31/30
f 60/66/31 167/83/31 59/83/31
f 96/8/32 203/1/32 95/1/32
f 13/59/33 120/58/33 12/58/33
f 22/84/34 129/80/34 21/80/34
f 72/9/35 179/4/35 71/4/35
f 86/33/36 193/36/36 85/36/36
f 48/81/37 157/85/37 156/81/37
f 14/60/38 121/59/38 13/59/38
f 103/37/39 210/34/39 102/34/39
f 69/6/40 176/10/40 68/10/40
f 15/61/41 122/60/41 14/60/41
f 36/82/42 143/86/42 35/86/42
f 65/32/43 172/38/43 64/38/43
f 23/87/44 130/84/44 22/84/44
f 92/7/45 199/11/45 91/11/45
f 79/39/46 186/35/46 78/35/46
f 97/12/47 204/8/47 96/8/47
f 16/62/48 123/61/48 15/61/48
f 50/88/49 157/85/49 49/85/49
f 104/40/50 211/37/50 103/37/50
f 73/13/51 180/9/51 72/9/51
f 62/49/52 169/63/52 61/63/52
f 35/86/53 142/89/53 34/89/53
f 85/36/54 192/41/54 84/41/54
f 91/11/55 198/14/55 90/14/55
f 80/42/56 187/39/56 79/39/56
f 34/89/57 141/90/57 33/90/57
f 98/15/58 205/12/58 97/12/58
f 44/65/59 151/64/59 43/64/59
f 24/91/60 131/87/60 23/87/60
f 64/38/61 171/43/61 63/43/61
f 50/88/62 159/92/62 158/88/62
f 68/10/63 175/16/63 67/16/63
f 61/63/64 168/66/64 60/66/64
f 105/44/65 212/40/65 104/40/65
f 74/17/66 181/13/66 73/13/66
f 16/62/59 125/67/59 124/62/59
f 32/93/67 141/90/67 140/93/67
f 84/41/68 191/45/68 83/45/68
f 25/94/69 132/91/69 24/91/69
f 90/14/70 197/18/70 89/18/70
f 43/64/48 150/68/48 42/68/48
f 81/46/71 188/42/71 80/42/71
f 98/15/72 207/19/72 206/15/72
f 52/95/73 159/92/73 51/92/73
f 42/68/74 149/69/74 41/69/74
f 106/47/75 213/44/75 105/44/75
f 74/17/76 183/20/76 182/17/76
f 18/70/77 125/67/77 17/67/77
f 32/93/78 139/96/78 31/96/78
f 2/21/21 109/22/21 1/22/21
f 44/65/79 153/71/79 152/65/79
f 83/45/80 190/48/80 82/48/80
f 82/48/81 189/46/81 81/46/81
f 59/83/82 166/103/82 58/103/82
f 1/22/83 216/23/83 108/23/83
f 3/97/23 110/21/23 2/21/23
f 41/69/84 148/72/84 40/72/84
f 4/50/8 111/97/8 3/97/8
f 108/23/85 215/24/85 107/24/85
f 19/73/86 126/70/86 18/70/86
f 63/43/87 170/49/87 62/49/87
f 31/96/8 138/98/8 30/98/8
f 67/16/88 174/25/88 66/25/88
f 45/71/89 154/74/89 153/71/89
f 107/24/83 214/47/83 106/47/83
f 25/94/90 134/99/90 133/94/90
f 89/18/91 196/26/91 88/26/91
f 53/102/92 160/95/92 52/95/92
f 100/27/93 207/19/93 99/19/93
f 39/75/94 148/72/94 147/75/94
f 5/51/95 112/50/95 4/50/95
f 20/76/96 127/73/96 19/73/96
f 27/100/97 134/99/97 26/99/97
f 76/28/98 183/20/98 75/20/98
f 6/52/99 113/51/99 5/51/99
f 47/77/100 154/74/100 46/74/100
f 54/101/101 161/102/101 53/102/101
f 53/102/1 52/95/1 59/83/1
f 161/102/2 166/103/2 167/83/2
f 7/53/3 115/53/3 114/52/3
f 88/26/4 196/26/4 195/29/4
f 101/30/5 209/30/5 208/27/5
f 39/75/6 147/75/6 146/78/6
f 8/54/7 116/54/7 115/53/7
f 58/103/8 166/103/8 165/104/8
f 27/100/9 28/105/9 136/105/9
f 77/31/10 185/31/10 184/28/10
f 37/79/11 38/78/11 146/78/11
f 95/1/12 203/1/12 202/2/12
f 9/55/13 117/55/13 116/54/13
f 21/80/14 129/80/14 128/76/14
f 55/106/15 163/106/15 162/101/15
f 94/2/16 202/2/16 201/3/16
f 10/56/17 118/56/17 117/55/17
f 66/25/18 174/25/18 173/32/18
f 48/81/19 156/81/19 155/77/19
f 71/4/20 179/4/20 178/5/20
f 29/107/21 137/107/21 136/105/21
f 11/57/22 119/57/22 118/56/22
f 30/98/23 138/98/23 137/107/23
f 87/29/24 195/29/24 194/33/24
f 70/5/25 178/5/25 177/6/25
f 56/108/21 164/108/21 163/106/21
f 102/34/26 210/34/26 209/30/26
f 37/79/27 145/79/27 144/82/27
f 12/58/28 120/58/28 119/57/28
f 57/104/23 165/104/23 164/108/23
f 93/3/29 201/3/29 200/7/29
f 78/35/30 186/35/30 185/31/30
f 60/66/31 168/66/31 167/83/31
f 96/8/32 204/8/32 203/1/32
f 13/59/33 121/59/33 120/58/33
f 22/84/34 130/84/34 129/80/34
f 72/9/35 180/9/35 179/4/35
f 86/33/36 194/33/36 193/36/36
f 48/81/37 49/85/37 157/85/37
f 14/60/38 122/60/38 121/59/38
f 103/37/39 211/37/39 210/34/39
f 69/6/40 177/6/40 176/10/40
f 15/61/41 123/61/41 122/60/41
f 36/82/42 144/82/42 143/86/42
f 65/32/43 173/32/43 172/38/43
f 23/87/44 131/87/44 130/84/44
f 92/7/45 200/7/45 199/11/45
f 79/39/46 187/39/46 186/35/46
f 97/12/47 205/12/47 204/8/47
f 16/62/48 124/62/48 123/61/48
f 50/88/49 158/88/49 157/85/49
f 104/40/50 212/40/50 211/37/50
f 73/13/51 181/13/51 180/9/51
f 62/49/52 170/49/52 169/63/52
f 35/86/53 143/86/53 142/89/53
f 85/36/54 193/36/54 192/41/54
f 91/11/55 199/11/55 198/14/55
f 80/42/56 188/42/56 187/39/56
f 34/89/57 142/89/57 141/90/57
f 98/15/58 206/15/58 205/12/58
f 44/65/102 152/65/102 151/64/102
f 24/91/60 132/91/60 131/87/60
f 64/38/61 172/38/61 171/43/61
f 50/88/62 51/92/62 159/92/62
f 68/10/63 176/10/63 175/16/63
f 61/63/64 169/63/64 168/66/64
f 105/44/65 213/44/65 212/40/65
f 74/17/66 182/17/66 181/13/66
f 16/62/59 17/67/59 125/67/59
f 32/93/67 33/90/67 141/90/67
f 84/41/68 192/41/68 191/45/68
f 25/94/69 133/94/69 132/91/69
f 90/14/70 198/14/70 197/18/70
f 43/64/48 151/64/48 150/68/48
f 81/46/71 189/46/71 188/42/71
f 98/15/72 99/19/72 207/19/72
f 52/95/73 160/95/73 159/92/73
f 42/68/74 150/68/74 149/69/74
f 106/47/75 214/47/75 213/44/75
f 74/17/76 75/20/76 183/20/76
f 18/70/77 126/70/77 125/67/77
f 32/93/78 140/93/78 139/96/78
f 2/21/21 110/21/21 109/22/21
f 44/65/79 45/71/79 153/71/79
f 83/45/80 191/45/80 190/48/80
f 82/48/81 190/48/81 189/46/81
f 59/83/82 167/83/82 166/103/82
f 1/22/83 109/22/83 216/23/83
f 3/97/23 111/97/23 110/21/23
f 41/69/84 149/69/84 148/72/84
f 4/50/8 112/50/8 111/97/8
f 108/23/85 216/23/85 215/24/85
f 19/73/86 127/73/86 126/70/86
f 63/43/87 171/43/87 170/49/87
f 31/96/8 139/96/8 138/98/8
f 67/16/88 175/16/88 174/25/88
f 45/71/89 46/74/89 154/74/89
f 107/24/83 215/24/83 214/47/83
f 25/94/90 26/99/90 134/99/90
f 89/18/91 197/18/91 196/26/91
f 53/102/92 161/102/92 160/95/92
f 100/27/93 208/27/93 207/19/93
f 39/75/94 40/72/94 148/72/94
f 5/51/95 113/51/95 112/50/95
f 20/76/96 128/76/96 127/73/96
f 27/100/97 135/100/97 134/99/97
f 76/28/98 184/28/98 183/20/98
f 6/52/99 114/52/99 113/51/99
f 47/77/100 155/77/100 154/74/100
f 54/101/101 162/101/101 161/102/101
