# Blender 4.5.8 LTS
# www.blender.org
mtllib text_r.mtl
o text_r
v -0.020462 0.071077 -0.050000
v -0.015428 0.072554 -0.050000
v -0.010380 0.074113 -0.050000
v -0.005317 0.075755 -0.050000
v -0.000239 0.077479 -0.050000
v 0.004854 0.079285 -0.050000
v 0.009962 0.081173 -0.050000
v 0.015084 0.083144 -0.050000
v 0.020222 0.085197 -0.050000
v 0.025375 0.087332 -0.050000
v 0.030543 0.089549 -0.050000
v 0.035725 0.091849 -0.050000
v 0.040923 0.094231 -0.050000
v 0.046016 0.096628 -0.050000
v 0.050885 0.098972 -0.050000
v 0.055529 0.101264 -0.050000
v 0.059949 0.103504 -0.050000
v 0.064144 0.105692 -0.050000
v 0.068115 0.107827 -0.050000
v 0.071862 0.109910 -0.050000
v 0.075385 0.111940 -0.050000
v 0.078683 0.113918 -0.050000
v 0.081756 0.115844 -0.050000
v 0.084606 0.117717 -0.050000
v 0.087231 0.119538 -0.050000
v 0.102308 0.128154 -0.050000
v 0.160462 0.067846 -0.050000
v 0.179846 0.011846 -0.050000
v 0.175441 0.010896 -0.050000
v 0.171201 0.009842 -0.050000
v 0.167125 0.008683 -0.050000
v 0.163214 0.007419 -0.050000
v 0.159467 0.006050 -0.050000
v 0.155885 0.004577 -0.050000
v 0.152467 0.002999 -0.050000
v 0.149214 0.001316 -0.050000
v 0.146125 -0.000471 -0.050000
v 0.143201 -0.002363 -0.050000
v 0.140441 -0.004360 -0.050000
v 0.137846 -0.006462 -0.050000
v 0.134847 -0.008870 -0.050000
v 0.131953 -0.011427 -0.050000
v 0.129163 -0.014135 -0.050000
v 0.126479 -0.016991 -0.050000
v 0.123899 -0.019998 -0.050000
v 0.121423 -0.023154 -0.050000
v 0.119052 -0.026459 -0.050000
v 0.116786 -0.029915 -0.050000
v 0.114625 -0.033519 -0.050000
v 0.112568 -0.037273 -0.050000
v 0.110616 -0.041177 -0.050000
v 0.108769 -0.045231 -0.050000
v 0.099077 -0.091538 -0.050000
v 0.093692 -0.061385 -0.050000
v 0.090222 -0.047646 -0.050000
v 0.086632 -0.034791 -0.050000
v 0.082923 -0.022817 -0.050000
v 0.079094 -0.011726 -0.050000
v 0.075145 -0.001518 -0.050000
v 0.071077 0.007808 -0.050000
v 0.066889 0.016251 -0.050000
v 0.062581 0.023812 -0.050000
v 0.058154 0.030490 -0.050000
v 0.053607 0.036286 -0.050000
v 0.048940 0.041200 -0.050000
v 0.044154 0.045231 -0.050000
v 0.038769 0.049359 -0.050000
v 0.033385 0.053128 -0.050000
v 0.028000 0.056538 -0.050000
v 0.022615 0.059590 -0.050000
v 0.017231 0.062282 -0.050000
v 0.011846 0.064615 -0.050000
v 0.006462 0.066590 -0.050000
v 0.001077 0.068205 -0.050000
v -0.004308 0.069462 -0.050000
v -0.009692 0.070359 -0.050000
v -0.015077 0.070897 -0.050000
v -0.020462 0.071077 -0.050000
v -0.020462 -0.291846 -0.050000
v -0.026093 -0.293125 -0.050000
v -0.031500 -0.294449 -0.050000
v -0.036683 -0.295817 -0.050000
v -0.041641 -0.297231 -0.050000
v -0.046375 -0.298689 -0.050000
v -0.050885 -0.300192 -0.050000
v -0.055170 -0.301740 -0.050000
v -0.059231 -0.303333 -0.050000
v -0.063067 -0.304971 -0.050000
v -0.066679 -0.306654 -0.050000
v -0.070067 -0.308381 -0.050000
v -0.073231 -0.310154 -0.050000
v -0.075033 -0.311081 -0.050000
v -0.076850 -0.312068 -0.050000
v -0.078683 -0.313115 -0.050000
v -0.080530 -0.314222 -0.050000
v -0.082392 -0.315389 -0.050000
v -0.084269 -0.316615 -0.050000
v -0.086161 -0.317902 -0.050000
v -0.088068 -0.319248 -0.050000
v -0.089990 -0.320654 -0.050000
v -0.091927 -0.322120 -0.050000
v -0.093879 -0.323645 -0.050000
v -0.095846 -0.325231 -0.050000
v -0.114154 -0.343538 -0.050000
v -0.121692 -0.351077 -0.050000
v -0.121692 0.033385 -0.050000
v -0.121842 0.038395 -0.050000
v -0.122291 0.043017 -0.050000
v -0.123038 0.047250 -0.050000
v -0.124085 0.051094 -0.050000
v -0.125432 0.054549 -0.050000
v -0.127077 0.057615 -0.050000
v -0.129021 0.060293 -0.050000
v -0.131265 0.062581 -0.050000
v -0.133808 0.064481 -0.050000
v -0.136650 0.065991 -0.050000
v -0.139791 0.067113 -0.050000
v -0.143231 0.067846 -0.050000
v -0.198154 0.074308 -0.050000
v -0.191101 0.076297 -0.050000
v -0.184303 0.078316 -0.050000
v -0.177760 0.080365 -0.050000
v -0.171470 0.082444 -0.050000
v -0.165435 0.084553 -0.050000
v -0.159654 0.086692 -0.050000
v -0.154127 0.088861 -0.050000
v -0.148855 0.091060 -0.050000
v -0.143837 0.093288 -0.050000
v -0.139073 0.095547 -0.050000
v -0.134563 0.097835 -0.050000
v -0.130308 0.100154 -0.050000
v -0.074308 0.129231 -0.050000
v -0.070165 0.124228 -0.050000
v -0.066350 0.119628 -0.050000
v -0.062865 0.115433 -0.050000
v -0.059709 0.111641 -0.050000
v -0.056882 0.108253 -0.050000
v -0.054385 0.105269 -0.050000
v -0.052216 0.102689 -0.050000
v -0.050376 0.100513 -0.050000
v -0.048865 0.098740 -0.050000
v -0.047684 0.097372 -0.050000
v -0.046831 0.096407 -0.050000
v -0.046308 0.095846 -0.050000
v -0.020462 0.071077 0.050000
v -0.015428 0.072554 0.050000
v -0.010380 0.074113 0.050000
v -0.005317 0.075755 0.050000
v -0.000239 0.077479 0.050000
v 0.004854 0.079285 0.050000
v 0.009962 0.081173 0.050000
v 0.015084 0.083144 0.050000
v 0.020222 0.085197 0.050000
v 0.025375 0.087332 0.050000
v 0.030543 0.089549 0.050000
v 0.035725 0.091849 0.050000
v 0.040923 0.094231 0.050000
v 0.046016 0.096628 0.050000
v 0.050885 0.098972 0.050000
v 0.055529 0.101264 0.050000
v 0.059949 0.103504 0.050000
v 0.064144 0.105692 0.050000
v 0.068115 0.107827 0.050000
v 0.071862 0.109910 0.050000
v 0.075385 0.111940 0.050000
v 0.078683 0.113918 0.050000
v 0.081756 0.115844 0.050000
v 0.084606 0.117717 0.050000
v 0.087231 0.119538 0.050000
v 0.102308 0.128154 0.050000
v 0.160462 0.067846 0.050000
v 0.179846 0.011846 0.050000
v 0.175441 0.010896 0.050000
v 0.171201 0.009842 0.050000
v 0.167125 0.008683 0.050000
v 0.163214 0.007419 0.050000
v 0.159467 0.006050 0.050000
v 0.155885 0.004577 0.050000
v 0.152467 0.002999 0.050000
v 0.149214 0.001316 0.050000
v 0.146125 -0.000471 0.050000
v 0.143201 -0.002363 0.050000
v 0.140441 -0.004360 0.050000
v 0.137846 -0.006462 0.050000
v 0.134847 -0.008870 0.050000
v 0.131953 -0.011427 0.050000
v 0.129163 -0.014135 0.050000
v 0.126479 -0.016991 0.050000
v 0.123899 -0.019998 0.050000
v 0.121423 -0.023154 0.050000
v 0.119052 -0.026459 0.050000
v 0.116786 -0.029915 0.050000
v 0.114625 -0.033519 0.050000
v 0.112568 -0.037274 0.050000
v 0.110616 -0.041177 0.050000
v 0.108769 -0.045231 0.050000
v 0.099077 -0.091538 0.050000
v 0.093692 -0.061385 0.050000
v 0.090222 -0.047646 0.050000
v 0.086632 -0.034791 0.050000
v 0.082923 -0.022817 0.050000
v 0.079094 -0.011726 0.050000
v 0.075145 -0.001518 0.050000
v 0.071077 0.007808 0.050000
v 0.066889 0.016251 0.050000
v 0.062581 0.023812 0.050000
v 0.058154 0.030490 0.050000
v 0.053607 0.036286 0.050000
v 0.048940 0.041200 0.050000
v 0.044154 0.045231 0.050000
v 0.038769 0.049359 0.050000
v 0.033385 0.053128 0.050000
v 0.028000 0.056538 0.050000
v 0.022615 0.059590 0.050000
v 0.017231 0.062282 0.050000
v 0.011846 0.064615 0.050000
v 0.006462 0.066590 0.050000
v 0.001077 0.068205 0.050000
v -0.004308 0.069462 0.050000
v -0.009692 0.070359 0.050000
v -0.015077 0.070897 0.050000
v -0.020462 0.071077 0.050000
v -0.020462 -0.291846 0.050000
v -0.026093 -0.293125 0.050000
v -0.031500 -0.294449 0.050000
v -0.036683 -0.295817 0.050000
v -0.041641 -0.297231 0.050000
v -0.046375 -0.298689 0.050000
v -0.050885 -0.300192 0.050000
v -0.055170 -0.301740 0.050000
v -0.059231 -0.303333 0.050000
v -0.063067 -0.304971 0.050000
v -0.066679 -0.306654 0.050000
v -0.070067 -0.308381 0.050000
v -0.073231 -0.310154 0.050000
v -0.075033 -0.311081 0.050000
v -0.076850 -0.312068 0.050000
v -0.078683 -0.313115 0.050000
v -0.080530 -0.314222 0.050000
v -0.082392 -0.315389 0.050000
v -0.084269 -0.316615 0.050000
v -0.086161 -0.317902 0.050000
v -0.088068 -0.319248 0.050000
v -0.089990 -0.320654 0.050000
v -0.091927 -0.322120 0.050000
v -0.093879 -0.323645 0.050000
v -0.095846 -0.325231 0.050000
v -0.114154 -0.343538 0.050000
v -0.121692 -0.351077 0.050000
v -0.121692 0.033385 0.050000
v -0.121842 0.038395 0.050000
v -0.122291 0.043017 0.050000
v -0.123038 0.047250 0.050000
v -0.124085 0.051094 0.050000
v -0.125432 0.054549 0.050000
v -0.127077 0.057615 0.050000
v -0.129021 0.060293 0.050000
v -0.131265 0.062581 0.050000
v -0.133808 0.064481 0.050000
v -0.136650 0.065991 0.050000
v -0.139791 0.067113 0.050000
v -0.143231 0.067846 0.050000
v -0.198154 0.074308 0.050000
v -0.191101 0.076297 0.050000
v -0.184303 0.078316 0.050000
v -0.177760 0.080365 0.050000
v -0.171470 0.082444 0.050000
v -0.165435 0.084553 0.050000
v -0.159654 0.086692 0.050000
v -0.154127 0.088861 0.050000
v -0.148855 0.091060 0.050000
v -0.143837 0.093288 0.050000
v -0.139073 0.095547 0.050000
v -0.134563 0.097835 0.050000
v -0.130308 0.100154 0.050000
v -0.074308 0.129231 0.050000
v -0.070165 0.124228 0.050000
v -0.066350 0.119628 0.050000
v -0.062865 0.115433 0.050000
v -0.059709 0.111641 0.050000
v -0.056882 0.108253 0.050000
v -0.054385 0.105269 0.050000
v -0.052216 0.102689 0.050000
v -0.050376 0.100513 0.050000
v -0.048865 0.098740 0.050000
v -0.047684 0.097372 0.050000
v -0.046831 0.096407 0.050000
v -0.046308 0.095846 0.050000
vn -0.0000 -0.0000 -1.0000
vn -0.0000 -0.0000 1.0000
vn -0.0001 -0.0000 1.0000
vn -0.6442 -0.7649 -0.0000
vn 0.7589 -0.6513 -0.0000
vn -0.2816 0.9595 -0.0000
vn 0.2553 -0.9669 -0.0000
vn 0.7493 0.6622 -0.0000
vn -0.9953 -0.0966 -0.0000
vn 0.7868 -0.6172 -0.0000
vn -0.4608 0.8875 -0.0000
vn -0.4258 0.9048 -0.0000
vn -0.9552 -0.2959 -0.0000
vn -0.2084 -0.9781 -0.0000
vn 0.2378 -0.9713 -0.0000
vn -0.7251 -0.6887 -0.0000
vn 0.7702 0.6378 -0.0000
vn -0.4961 0.8682 -0.0000
vn -0.3363 -0.9417 -0.0000
vn 0.2215 -0.9752 -0.0000
vn 0.7310 0.6823 -0.0000
vn -0.9996 -0.0298 -0.0000
vn 0.8126 -0.5828 -0.0000
vn -0.8335 -0.5525 -0.0000
vn 0.7198 0.6941 -0.0000
vn -0.4694 -0.8830 -0.0000
vn 0.6919 0.7220 -0.0000
vn -0.7868 -0.6172 -0.0000
vn 0.8362 -0.5484 -0.0000
vn -0.8689 -0.4950 -0.0000
vn -0.4284 0.9036 -0.0000
vn 0.7698 0.6383 -0.0000
vn -0.5985 -0.8011 -0.0000
vn -1.0000 -0.0000 -0.0000
vn 0.8576 -0.5142 -0.0000
vn -0.8959 -0.4444 -0.0000
vn -0.4166 0.9091 -0.0000
vn 0.7071 -0.7071 -0.0000
vn 0.7692 0.6390 -0.0000
vn -0.7141 -0.7001 -0.0000
vn 0.8770 -0.4804 -0.0000
vn -0.5700 0.8216 -0.0000
vn -0.4059 0.9139 -0.0000
vn -0.9632 -0.2689 -0.0000
vn -0.8091 -0.5876 -0.0000
vn 0.2108 -0.9775 -0.0000
vn -0.5494 0.8356 -0.0000
vn -0.4056 0.9141 -0.0000
vn 0.6276 -0.7786 -0.0000
vn -0.8812 -0.4728 -0.0000
vn 0.2413 -0.9704 -0.0000
vn 0.8944 -0.4472 -0.0000
vn -0.5309 0.8474 -0.0000
vn -0.3849 0.9230 -0.0000
vn 0.6158 -0.7879 -0.0000
vn -0.9318 -0.3630 -0.0000
vn 0.2736 -0.9619 -0.0000
vn 0.9100 -0.4147 -0.0000
vn -0.3943 0.9190 -0.0000
vn 0.6034 -0.7974 -0.0000
vn -0.9695 -0.2449 -0.0000
vn 0.7686 0.6397 -0.0000
vn 0.3075 -0.9516 -0.0000
vn -0.5144 0.8576 -0.0000
vn 1.0000 -0.0000 -0.0000
vn -0.9166 -0.3999 -0.0000
vn -0.3653 0.9309 -0.0000
vn 0.5904 -0.8071 -0.0000
vn -0.9844 -0.1758 -0.0000
vn -0.0333 -0.9994 -0.0000
vn 0.9788 -0.2049 -0.0000
vn -0.4994 0.8664 -0.0000
vn -0.3828 0.9238 -0.0000
vn 0.5767 -0.8170 -0.0000
vn 0.4773 -0.8787 -0.0000
vn -0.0995 -0.9950 -0.0000
vn 0.3431 -0.9393 -0.0000
vn -0.3470 0.9379 -0.0000
vn 0.5622 -0.8270 -0.0000
vn 0.4575 -0.8892 -0.0000
vn 0.7678 0.6407 -0.0000
vn -0.1644 -0.9864 -0.0000
vn 0.3804 -0.9248 -0.0000
vn 0.4888 -0.8724 -0.0000
vn -0.4859 0.8740 -0.0000
vn -0.3710 0.9286 -0.0000
vn 0.5470 -0.8371 -0.0000
vn -0.2272 -0.9738 -0.0000
vn 0.4192 -0.9079 -0.0000
vn -0.3299 0.9440 -0.0000
vn 0.5309 -0.8474 -0.0000
vn 0.7668 0.6419 -0.0000
vn -0.2873 -0.9578 -0.0000
vn 0.4594 -0.8882 -0.0000
vn -0.4736 0.8808 -0.0000
vn -0.3590 0.9333 -0.0000
vn 0.5140 -0.8578 -0.0000
vn 0.5009 -0.8655 -0.0000
vn -0.4623 0.8867 -0.0000
vn 0.9450 0.3271 -0.0000
vn -0.3139 0.9495 -0.0000
vn 0.4961 -0.8682 -0.0000
vn -0.3443 -0.9389 -0.0000
vn 0.5433 -0.8396 -0.0000
vn -0.9327 -0.3608 -0.0000
vn -0.3468 0.9380 -0.0000
vn 0.7655 0.6435 -0.0000
vn -0.3976 -0.9176 -0.0000
vn -0.4520 0.8920 -0.0000
vn -0.2988 0.9543 -0.0000
vn 0.4543 -0.8909 -0.0000
vn -0.4472 -0.8944 -0.0000
vn 0.5862 -0.8102 -0.0000
vn -0.3342 0.9425 -0.0000
vn 0.4223 -0.9065 -0.0000
vn 0.7637 0.6456 -0.0000
vn -0.4930 -0.8700 -0.0000
vn 0.6293 -0.7771 -0.0000
vn -0.4426 0.8967 -0.0000
vn -0.2847 0.9586 -0.0000
vn 0.3926 -0.9197 -0.0000
vn -0.5351 -0.8448 -0.0000
vn 0.6261 -0.7797 -0.0000
vn -0.3215 0.9469 -0.0000
vn 0.3652 -0.9309 -0.0000
vn 0.7611 0.6487 -0.0000
vn -0.5735 -0.8192 -0.0000
vn 0.6622 -0.7493 -0.0000
vn -0.4784 0.8781 -0.0000
vn -0.2715 0.9624 -0.0000
vn 0.3398 -0.9405 -0.0000
vn -0.9649 -0.2628 -0.0000
vn 0.6964 -0.7176 -0.0000
vn -0.4339 0.9010 -0.0000
vn -0.9453 -0.3263 -0.0000
vn -0.3084 0.9513 -0.0000
vn 0.3162 -0.9487 -0.0000
vn -0.6084 -0.7936 -0.0000
vn -0.1168 -0.9932 -0.0000
vn 0.2944 -0.9557 -0.0000
vn 0.7569 0.6535 -0.0000
vn -0.9847 -0.1740 -0.0000
vn 0.7287 -0.6848 -0.0000
vn -0.4525 0.8918 -0.0000
vn -0.2951 0.9555 -0.0000
vn 0.2741 -0.9617 -0.0000
vn 0.8577 -0.5142 -0.0000
vn 0.6276 -0.7785 -0.0000
vn -0.4525 0.8917 -0.0000
vt 0.909091 0.000000
vt 0.916084 0.000000
vt 0.923077 0.000000
vt 0.167832 0.000000
vt 0.174825 0.000000
vt 0.181818 0.000000
vt 0.930070 0.000000
vt 0.937063 0.000000
vt 0.160839 0.000000
vt 0.153846 0.000000
vt 0.146853 0.000000
vt 0.944056 0.000000
vt 0.139860 0.000000
vt 0.132867 0.000000
vt 0.433566 0.000000
vt 0.951049 0.000000
vt 0.769231 0.000000
vt 0.979021 0.000000
vt 0.762238 0.000000
vt 0.783217 0.000000
vt 0.776224 0.000000
vt 0.118881 0.000000
vt 0.125874 0.000000
vt 0.440559 0.000000
vt 0.986014 0.000000
vt 0.258741 0.000000
vt 0.251748 0.000000
vt 0.104895 0.000000
vt 0.111888 0.000000
vt 0.447552 0.000000
vt 0.797203 0.000000
vt 0.902098 0.000000
vt 0.958042 0.000000
vt 0.965035 0.000000
vt 0.636364 0.000000
vt 0.734266 0.000000
vt 0.622378 0.000000
vt 0.090909 0.000000
vt 0.097902 0.000000
vt 0.454545 0.000000
vt 0.384615 0.000000
vt 0.356643 0.000000
vt 0.377622 0.000000
vt 0.083916 0.000000
vt 0.461538 0.000000
vt 0.398601 0.000000
vt 0.314685 0.000000
vt 0.391608 0.000000
vt 0.818182 0.000000
vt 0.888112 0.000000
vt 0.811189 0.000000
vt 0.804196 0.000000
vt 0.895105 0.000000
vt 0.881119 0.000000
vt 0.412587 0.000000
vt 0.286713 0.000000
vt 0.405594 0.000000
vt 0.874126 0.000000
vt 0.062937 0.000000
vt 0.069930 0.000000
vt 0.475524 0.000000
vt 0.867133 0.000000
vt 0.055944 0.000000
vt 0.482517 0.000000
vt 0.860140 0.000000
vt 0.048951 0.000000
vt 0.489510 0.000000
vt 0.853147 0.000000
vt 0.041958 0.000000
vt 0.496504 0.000000
vt 0.846154 0.000000
vt 0.034965 0.000000
vt 0.503497 0.000000
vt 0.839161 0.000000
vt 0.027972 0.000000
vt 0.510490 0.000000
vt 0.832168 0.000000
vt 0.020979 0.000000
vt 0.517483 0.000000
vt 0.825175 0.000000
vt 0.013986 0.000000
vt 0.524476 0.000000
vt 0.006993 0.000000
vt 0.531469 0.000000
vt 0.000000 0.000000
vt 0.790210 0.000000
vt 0.349650 0.000000
vt 0.342657 0.000000
vt 0.076923 0.000000
vt 0.335664 0.000000
vt 0.468531 0.000000
vt 0.993007 0.000000
vt 0.538462 0.000000
vt 0.748252 0.000000
vt 1.000000 0.000000
vt 0.244755 0.000000
vt 0.237762 0.000000
vt 0.741259 0.000000
vt 0.293706 0.000000
vt 0.300699 0.000000
vt 0.426573 0.000000
vt 0.545455 0.000000
vt 0.419580 0.000000
vt 0.727273 0.000000
vt 0.720280 0.000000
vt 0.713287 0.000000
vt 0.706294 0.000000
vt 0.699301 0.000000
vt 0.692308 0.000000
vt 0.685315 0.000000
vt 0.678322 0.000000
vt 0.671329 0.000000
vt 0.664336 0.000000
vt 0.657343 0.000000
vt 0.650350 0.000000
vt 0.643357 0.000000
vt 0.615385 0.000000
vt 0.608392 0.000000
vt 0.601399 0.000000
vt 0.594406 0.000000
vt 0.587413 0.000000
vt 0.580420 0.000000
vt 0.573427 0.000000
vt 0.566434 0.000000
vt 0.559441 0.000000
vt 0.552448 0.000000
vt 0.265734 0.000000
vt 0.755245 0.000000
vt 0.188811 0.000000
vt 0.195804 0.000000
vt 0.202797 0.000000
vt 0.209790 0.000000
vt 0.216783 0.000000
vt 0.230769 0.000000
vt 0.223776 0.000000
vt 0.972028 0.000000
vt 0.272727 0.000000
vt 0.279720 0.000000
vt 0.307692 0.000000
vt 0.321678 0.000000
vt 0.328671 0.000000
vt 0.370629 0.000000
vt 0.363636 0.000000
vt 0.629371 0.000000
s 0
f 131/1/1 132/2/1 133/3/1
f 25/4/1 26/5/1 27/6/1
f 131/1/1 133/3/1 134/7/1
f 131/1/1 134/7/1 135/8/1
f 24/9/1 25/4/1 27/6/1
f 23/10/1 24/9/1 27/6/1
f 22/11/1 23/10/1 27/6/1
f 131/1/1 135/8/1 136/12/1
f 21/13/1 22/11/1 27/6/1
f 20/14/1 21/13/1 63/15/1
f 131/1/1 136/12/1 137/16/1
f 111/17/1 141/18/1 110/19/1
f 113/20/1 131/1/1 112/21/1
f 18/22/1 19/23/1 64/24/1
f 110/19/1 141/18/1 142/25/1
f 38/26/1 27/6/1 37/27/1
f 16/28/1 17/29/1 65/30/1
f 131/1/1 115/31/1 130/32/1
f 111/17/1 138/33/1 139/34/1
f 112/21/1 131/1/1 137/16/1
f 92/35/1 106/36/1 90/37/1
f 14/38/1 15/39/1 66/40/1
f 112/21/1 138/33/1 111/17/1
f 18/22/1 65/30/1 17/29/1
f 56/41/1 52/42/1 55/43/1
f 13/44/1 14/38/1 67/45/1
f 112/21/1 137/16/1 138/33/1
f 58/46/1 46/47/1 57/48/1
f 118/49/1 128/50/1 117/51/1
f 130/32/1 116/52/1 129/53/1
f 127/54/1 128/50/1 118/49/1
f 60/55/1 42/56/1 59/57/1
f 126/58/1 127/54/1 118/49/1
f 10/59/1 11/60/1 69/61/1
f 125/62/1 126/58/1 118/49/1
f 9/63/1 10/59/1 70/64/1
f 124/65/1 125/62/1 118/49/1
f 8/66/1 9/63/1 71/67/1
f 123/68/1 124/65/1 118/49/1
f 7/69/1 8/66/1 72/70/1
f 122/71/1 123/68/1 118/49/1
f 6/72/1 7/69/1 73/73/1
f 121/74/1 122/71/1 118/49/1
f 5/75/1 6/72/1 74/76/1
f 120/77/1 121/74/1 118/49/1
f 4/78/1 5/75/1 75/79/1
f 119/80/1 120/77/1 118/49/1
f 3/81/1 4/78/1 76/82/1
f 10/59/1 69/61/1 70/64/1
f 2/83/1 3/81/1 77/84/1
f 1/85/1 2/83/1 77/84/1
f 115/31/1 116/52/1 130/32/1
f 114/86/1 115/31/1 131/1/1
f 113/20/1 114/86/1 131/1/1
f 275/1/2 277/3/2 276/2/2
f 117/51/1 128/50/1 129/53/1
f 51/87/1 56/41/1 50/88/1
f 63/15/1 64/24/1 20/14/1
f 12/89/1 69/61/1 11/60/1
f 57/48/1 49/90/1 56/41/1
f 14/38/1 66/40/1 67/45/1
f 4/78/1 75/79/1 76/82/1
f 5/75/1 74/76/1 75/79/1
f 6/72/1 73/73/1 74/76/1
f 7/69/1 72/70/1 73/73/1
f 8/66/1 71/67/1 72/70/1
f 9/63/1 70/64/1 71/67/1
f 68/91/1 69/61/1 12/89/1
f 67/45/1 68/91/1 13/44/1
f 64/24/1 65/30/1 18/22/1
f 65/30/1 66/40/1 16/28/1
f 110/19/1 142/25/1 143/92/1
f 78/93/1 108/94/1 144/95/1
f 36/96/1 27/6/1 35/97/1
f 78/93/1 106/36/1 107/98/1
f 43/99/1 44/100/1 59/57/1
f 117/51/1 129/53/1 116/52/1
f 27/6/1 62/101/1 63/15/1
f 79/102/1 106/36/1 78/93/1
f 27/6/1 61/103/1 62/101/1
f 105/104/1 106/36/1 104/105/1
f 104/105/1 106/36/1 103/106/1
f 103/106/1 106/36/1 102/107/1
f 102/107/1 106/36/1 101/108/1
f 101/108/1 106/36/1 100/109/1
f 100/109/1 106/36/1 99/110/1
f 99/110/1 106/36/1 98/111/1
f 98/111/1 106/36/1 97/112/1
f 97/112/1 106/36/1 96/113/1
f 96/113/1 106/36/1 95/114/1
f 95/114/1 106/36/1 94/115/1
f 94/115/1 106/36/1 93/116/1
f 93/116/1 106/36/1 92/35/1
f 90/37/1 106/36/1 89/117/1
f 89/117/1 106/36/1 88/118/1
f 88/118/1 106/36/1 87/119/1
f 87/119/1 106/36/1 86/120/1
f 86/120/1 106/36/1 85/121/1
f 85/121/1 106/36/1 84/122/1
f 84/122/1 106/36/1 83/123/1
f 83/123/1 106/36/1 82/124/1
f 82/124/1 106/36/1 81/125/1
f 81/125/1 106/36/1 80/126/1
f 80/126/1 106/36/1 79/102/1
f 3/81/1 76/82/1 77/84/1
f 38/26/1 39/127/1 61/103/1
f 144/95/1 108/94/1 109/128/1
f 28/129/1 29/130/1 27/6/1
f 29/130/1 30/131/1 27/6/1
f 30/131/1 31/132/1 27/6/1
f 31/132/1 32/133/1 27/6/1
f 34/134/1 27/6/1 33/135/1
f 33/135/1 27/6/1 32/133/1
f 61/103/1 27/6/1 38/26/1
f 35/97/1 27/6/1 34/134/1
f 111/17/1 140/136/1 141/18/1
f 111/17/1 139/34/1 140/136/1
f 13/44/1 68/91/1 12/89/1
f 37/27/1 27/6/1 36/96/1
f 20/14/1 64/24/1 19/23/1
f 39/127/1 40/137/1 60/55/1
f 40/137/1 41/138/1 60/55/1
f 41/138/1 42/56/1 60/55/1
f 42/56/1 43/99/1 59/57/1
f 63/15/1 21/13/1 27/6/1
f 16/28/1 66/40/1 15/39/1
f 44/100/1 45/139/1 58/46/1
f 45/139/1 46/47/1 58/46/1
f 144/95/1 109/128/1 110/19/1
f 144/95/1 110/19/1 143/92/1
f 47/140/1 48/141/1 57/48/1
f 48/141/1 49/90/1 57/48/1
f 56/41/1 49/90/1 50/88/1
f 59/57/1 44/100/1 58/46/1
f 47/140/1 57/48/1 46/47/1
f 51/87/1 52/42/1 56/41/1
f 55/43/1 52/42/1 54/142/1
f 54/142/1 52/42/1 53/143/1
f 61/103/1 39/127/1 60/55/1
f 92/35/1 90/37/1 91/144/1
f 78/93/1 107/98/1 108/94/1
f 169/4/2 171/6/2 170/5/2
f 275/1/2 278/7/2 277/3/2
f 275/1/2 279/8/2 278/7/2
f 168/9/2 171/6/2 169/4/2
f 167/10/2 171/6/2 168/9/2
f 166/11/2 171/6/2 167/10/2
f 275/1/2 280/12/2 279/8/2
f 165/13/2 171/6/2 166/11/2
f 164/14/2 207/15/2 165/13/2
f 275/1/2 281/16/2 280/12/2
f 255/17/2 254/19/2 285/18/2
f 257/20/2 256/21/2 275/1/2
f 162/22/2 208/24/2 163/23/2
f 254/19/2 286/25/2 285/18/2
f 182/26/2 181/27/2 171/6/2
f 160/28/2 209/30/2 161/29/2
f 275/1/2 274/32/2 259/31/2
f 255/17/2 283/34/2 282/33/2
f 256/21/2 281/16/2 275/1/2
f 236/35/2 234/37/2 250/36/2
f 158/38/2 210/40/2 159/39/2
f 256/21/2 255/17/2 282/33/2
f 162/22/2 161/29/2 209/30/2
f 200/41/2 199/43/2 196/42/2
f 157/44/2 211/45/2 158/38/2
f 256/21/2 282/33/2 281/16/2
f 202/46/2 201/48/2 190/47/2
f 262/49/2 261/51/2 272/50/2
f 274/32/2 273/53/2 260/52/2
f 271/54/2 262/49/2 272/50/2
f 204/55/2 203/57/2 186/56/2
f 270/58/2 262/49/2 271/54/2
f 154/59/2 213/61/2 155/60/2
f 269/62/2 262/49/2 270/58/2
f 153/63/2 214/64/2 154/59/2
f 268/65/2 262/49/2 269/62/2
f 152/66/2 215/67/2 153/63/2
f 267/68/2 262/49/2 268/65/2
f 151/69/2 216/70/2 152/66/2
f 266/71/2 262/49/2 267/68/2
f 150/72/2 217/73/2 151/69/2
f 265/74/2 262/49/2 266/71/2
f 149/75/2 218/76/2 150/72/2
f 264/77/2 262/49/2 265/74/2
f 148/78/2 219/79/2 149/75/2
f 263/80/2 262/49/2 264/77/2
f 147/81/2 220/82/2 148/78/2
f 154/59/2 214/64/2 213/61/2
f 146/83/2 221/84/2 147/81/2
f 145/85/2 221/84/2 146/83/2
f 259/31/2 274/32/2 260/52/2
f 258/86/2 275/1/2 259/31/2
f 257/20/2 275/1/2 258/86/2
f 261/51/2 273/53/2 272/50/2
f 195/87/2 194/88/2 200/41/2
f 207/15/2 164/14/2 208/24/2
f 156/89/2 155/60/2 213/61/2
f 201/48/2 200/41/2 193/90/2
f 158/38/2 211/45/2 210/40/2
f 148/78/2 220/82/2 219/79/2
f 149/75/2 219/79/2 218/76/2
f 150/72/2 218/76/2 217/73/2
f 151/69/2 217/73/2 216/70/2
f 152/66/2 216/70/2 215/67/2
f 153/63/2 215/67/2 214/64/2
f 212/91/2 156/89/2 213/61/2
f 211/45/2 157/44/2 212/91/2
f 208/24/2 162/22/2 209/30/2
f 209/30/2 160/28/2 210/40/2
f 254/19/2 287/92/2 286/25/2
f 222/93/2 288/95/2 252/94/2
f 180/96/2 179/97/2 171/6/2
f 222/93/2 251/98/2 250/36/2
f 187/99/2 203/57/2 188/100/2
f 261/51/2 260/52/2 273/53/2
f 171/6/2 207/15/2 206/101/2
f 223/102/2 222/93/2 250/36/2
f 171/6/2 206/101/2 205/103/2
f 249/104/2 248/105/2 250/36/2
f 248/105/2 247/106/2 250/36/2
f 247/106/2 246/107/2 250/36/2
f 246/107/2 245/108/2 250/36/2
f 245/108/2 244/109/2 250/36/2
f 244/109/2 243/110/2 250/36/2
f 243/110/2 242/111/2 250/36/2
f 242/111/2 241/112/2 250/36/2
f 241/112/2 240/113/2 250/36/2
f 240/113/2 239/114/2 250/36/2
f 239/114/2 238/115/2 250/36/2
f 238/115/2 237/116/2 250/36/2
f 237/116/2 236/35/2 250/36/2
f 234/37/2 233/117/2 250/36/2
f 233/117/2 232/118/2 250/36/2
f 232/118/2 231/119/2 250/36/2
f 231/119/2 230/120/2 250/36/2
f 230/120/2 229/121/2 250/36/2
f 229/121/2 228/122/2 250/36/2
f 228/122/2 227/123/2 250/36/2
f 227/123/2 226/124/2 250/36/2
f 226/124/2 225/125/2 250/36/2
f 225/125/2 224/126/2 250/36/2
f 224/126/2 223/102/2 250/36/2
f 147/81/2 221/84/2 220/82/2
f 182/26/2 205/103/2 183/127/2
f 288/95/2 253/128/2 252/94/2
f 172/129/2 171/6/2 173/130/2
f 173/130/2 171/6/2 174/131/2
f 174/131/2 171/6/2 175/132/2
f 175/132/2 171/6/2 176/133/2
f 178/134/2 177/135/2 171/6/2
f 177/135/2 176/133/2 171/6/2
f 205/103/2 182/26/2 171/6/2
f 179/97/2 178/134/2 171/6/2
f 255/17/2 285/18/2 284/136/2
f 255/17/2 284/136/2 283/34/2
f 157/44/2 156/89/2 212/91/2
f 181/27/2 180/96/2 171/6/2
f 164/14/2 163/23/2 208/24/2
f 183/127/2 204/55/2 184/137/2
f 184/137/2 204/55/2 185/138/2
f 185/138/2 204/55/2 186/56/2
f 186/56/2 203/57/2 187/99/2
f 207/15/2 171/6/2 165/13/2
f 160/28/2 159/39/2 210/40/2
f 188/100/2 202/46/2 189/139/2
f 189/139/2 202/46/2 190/47/2
f 288/95/2 254/19/2 253/128/2
f 288/95/2 287/92/2 254/19/2
f 191/140/2 201/48/2 192/141/2
f 192/141/2 201/48/2 193/90/2
f 200/41/2 194/88/2 193/90/2
f 203/57/2 202/46/2 188/100/2
f 191/140/2 190/47/2 201/48/2
f 195/87/2 200/41/2 196/42/2
f 199/43/2 198/142/2 196/42/2
f 198/142/2 197/143/2 196/42/2
f 205/103/2 204/55/2 183/127/2
f 236/35/3 235/144/3 234/37/3
f 222/93/2 252/94/2 251/98/2
f 65/30/4 210/40/4 66/40/4
f 44/100/5 189/139/5 45/139/5
f 1/85/6 146/83/6 2/83/6
f 81/125/7 226/124/7 82/124/7
f 142/25/8 287/92/8 143/92/8
f 107/98/9 252/94/9 108/94/9
f 45/139/10 190/47/10 46/47/10
f 131/1/11 276/2/11 132/2/11
f 13/44/12 158/38/12 14/38/12
f 56/41/13 201/48/13 57/48/13
f 117/51/14 262/49/14 118/49/14
f 80/126/15 225/125/15 81/125/15
f 64/24/16 209/30/16 65/30/16
f 132/2/17 277/3/17 133/3/17
f 25/4/18 170/5/18 26/5/18
f 116/52/19 261/51/19 117/51/19
f 79/102/20 224/126/20 80/126/20
f 143/92/21 288/95/21 144/95/21
f 106/36/22 251/98/22 107/98/22
f 46/47/23 191/140/23 47/140/23
f 62/101/24 207/15/24 63/15/24
f 26/5/25 171/6/25 27/6/25
f 115/31/26 260/52/26 116/52/26
f 144/95/27 222/93/27 78/93/27
f 63/15/28 208/24/28 64/24/28
f 47/140/29 192/141/29 48/141/29
f 61/103/30 206/101/30 62/101/30
f 128/50/31 273/53/31 129/53/31
f 133/3/32 278/7/32 134/7/32
f 114/86/33 259/31/33 115/31/33
f 105/104/34 250/36/34 106/36/34
f 48/141/35 193/90/35 49/90/35
f 60/55/36 205/103/36 61/103/36
f 12/89/37 157/44/37 13/44/37
f 104/105/38 249/104/38 105/104/38
f 134/7/39 279/8/39 135/8/39
f 113/20/40 258/86/40 114/86/40
f 49/90/41 194/88/41 50/88/41
f 24/9/42 169/4/42 25/4/42
f 127/54/43 272/50/43 128/50/43
f 103/106/38 248/105/38 104/105/38
f 55/43/44 200/41/44 56/41/44
f 112/21/45 257/20/45 113/20/45
f 28/129/46 173/130/46 29/130/46
f 23/10/47 168/9/47 24/9/47
f 11/60/48 156/89/48 12/89/48
f 102/107/49 247/106/49 103/106/49
f 111/17/50 256/21/50 112/21/50
f 29/130/51 174/131/51 30/131/51
f 50/88/52 195/87/52 51/87/52
f 22/11/53 167/10/53 23/10/53
f 126/58/54 271/54/54 127/54/54
f 101/108/55 246/107/55 102/107/55
f 110/19/56 255/17/56 111/17/56
f 30/131/57 175/132/57 31/132/57
f 51/87/58 196/42/58 52/42/58
f 10/59/59 155/60/59 11/60/59
f 100/109/60 245/108/60 101/108/60
f 54/142/61 199/43/61 55/43/61
f 135/8/62 280/12/62 136/12/62
f 31/132/63 176/133/63 32/133/63
f 21/13/64 166/11/64 22/11/64
f 78/93/65 223/102/65 79/102/65
f 59/57/66 204/55/66 60/55/66
f 125/62/67 270/58/67 126/58/67
f 99/110/68 244/109/68 100/109/68
f 53/143/69 198/142/69 54/142/69
f 77/84/70 145/85/70 1/85/70
f 52/42/71 197/143/71 53/143/71
f 20/14/72 165/13/72 21/13/72
f 9/63/73 154/59/73 10/59/73
f 98/111/74 243/110/74 99/110/74
f 92/35/75 237/116/75 93/116/75
f 76/82/76 221/84/76 77/84/76
f 32/133/77 177/135/77 33/135/77
f 124/65/78 269/62/78 125/62/78
f 97/112/79 242/111/79 98/111/79
f 91/144/80 236/35/80 92/35/80
f 136/12/81 281/16/81 137/16/81
f 75/79/82 220/82/82 76/82/82
f 33/135/83 178/134/83 34/134/83
f 90/37/84 235/144/84 91/144/84
f 19/23/85 164/14/85 20/14/85
f 8/66/86 153/63/86 9/63/86
f 96/113/87 241/112/87 97/112/87
f 74/76/88 219/79/88 75/79/88
f 34/134/89 179/97/89 35/97/89
f 123/68/90 268/65/90 124/65/90
f 95/114/91 240/113/91 96/113/91
f 137/16/92 282/33/92 138/33/92
f 73/73/93 218/76/93 74/76/93
f 35/97/94 180/96/94 36/96/94
f 18/22/95 163/23/95 19/23/95
f 7/69/96 152/66/96 8/66/96
f 94/115/97 239/114/97 95/114/97
f 36/96/98 181/27/98 37/27/98
f 17/29/99 162/22/99 18/22/99
f 27/6/100 172/129/100 28/129/100
f 122/71/101 267/68/101 123/68/101
f 93/116/102 238/115/102 94/115/102
f 72/70/103 217/73/103 73/73/103
f 37/27/104 182/26/104 38/26/104
f 58/46/105 203/57/105 59/57/105
f 6/72/106 151/69/106 7/69/106
f 138/33/107 283/34/107 139/34/107
f 71/67/108 216/70/108 72/70/108
f 16/28/109 161/29/109 17/29/109
f 121/74/110 266/71/110 122/71/110
f 89/117/111 234/37/111 90/37/111
f 70/64/112 215/67/112 71/67/112
f 38/26/113 183/127/113 39/127/113
f 5/75/114 150/72/114 6/72/114
f 88/118/115 233/117/115 89/117/115
f 139/34/116 284/136/116 140/136/116
f 69/61/117 214/64/117 70/64/117
f 39/127/118 184/137/118 40/137/118
f 15/39/119 160/28/119 16/28/119
f 120/77/120 265/74/120 121/74/120
f 87/119/121 232/118/121 88/118/121
f 68/91/122 213/61/122 69/61/122
f 40/137/123 185/138/123 41/138/123
f 4/78/124 149/75/124 5/75/124
f 86/120/125 231/119/125 87/119/125
f 140/136/126 285/18/126 141/18/126
f 67/45/127 212/91/127 68/91/127
f 41/138/128 186/56/128 42/56/128
f 130/32/129 275/1/129 131/1/129
f 119/80/130 264/77/130 120/77/130
f 85/121/131 230/120/131 86/120/131
f 109/128/132 254/19/132 110/19/132
f 42/56/133 187/99/133 43/99/133
f 14/38/134 159/39/134 15/39/134
f 57/48/135 202/46/135 58/46/135
f 3/81/136 148/78/136 4/78/136
f 84/122/137 229/121/137 85/121/137
f 66/40/138 211/45/138 67/45/138
f 118/49/139 263/80/139 119/80/139
f 83/123/140 228/122/140 84/122/140
f 141/18/141 286/25/141 142/25/141
f 108/94/142 253/128/142 109/128/142
f 43/99/143 188/100/143 44/100/143
f 129/53/144 274/32/144 130/32/144
f 2/83/145 147/81/145 3/81/145
f 82/124/146 227/123/146 83/123/146
f 65/30/4 209/30/4 210/40/4
f 44/100/5 188/100/5 189/139/5
f 1/85/6 145/85/6 146/83/6
f 81/125/7 225/125/7 226/124/7
f 142/25/8 286/25/8 287/92/8
f 107/98/9 251/98/9 252/94/9
f 45/139/10 189/139/10 190/47/10
f 131/1/11 275/1/11 276/2/11
f 13/44/12 157/44/12 158/38/12
f 56/41/13 200/41/13 201/48/13
f 117/51/14 261/51/14 262/49/14
f 80/126/15 224/126/15 225/125/15
f 64/24/16 208/24/16 209/30/16
f 132/2/17 276/2/17 277/3/17
f 25/4/18 169/4/18 170/5/18
f 116/52/19 260/52/19 261/51/19
f 79/102/20 223/102/20 224/126/20
f 143/92/21 287/92/21 288/95/21
f 106/36/22 250/36/22 251/98/22
f 46/47/23 190/47/23 191/140/23
f 62/101/24 206/101/24 207/15/24
f 26/5/25 170/5/25 171/6/25
f 115/31/26 259/31/26 260/52/26
f 144/95/27 288/95/27 222/93/27
f 63/15/28 207/15/28 208/24/28
f 47/140/29 191/140/29 192/141/29
f 61/103/30 205/103/30 206/101/30
f 128/50/31 272/50/31 273/53/31
f 133/3/32 277/3/32 278/7/32
f 114/86/33 258/86/33 259/31/33
f 105/104/34 249/104/34 250/36/34
f 48/141/147 192/141/147 193/90/147
f 60/55/36 204/55/36 205/103/36
f 12/89/37 156/89/37 157/44/37
f 104/105/38 248/105/38 249/104/38
f 134/7/39 278/7/39 279/8/39
f 113/20/40 257/20/40 258/86/40
f 49/90/41 193/90/41 194/88/41
f 24/9/42 168/9/42 169/4/42
f 127/54/43 271/54/43 272/50/43
f 103/106/38 247/106/38 248/105/38
f 55/43/44 199/43/44 200/41/44
f 112/21/45 256/21/45 257/20/45
f 28/129/46 172/129/46 173/130/46
f 23/10/47 167/10/47 168/9/47
f 11/60/48 155/60/48 156/89/48
f 102/107/148 246/107/148 247/106/148
f 111/17/50 255/17/50 256/21/50
f 29/130/51 173/130/51 174/131/51
f 50/88/52 194/88/52 195/87/52
f 22/11/53 166/11/53 167/10/53
f 126/58/54 270/58/54 271/54/54
f 101/108/55 245/108/55 246/107/55
f 110/19/56 254/19/56 255/17/56
f 30/131/57 174/131/57 175/132/57
f 51/87/58 195/87/58 196/42/58
f 10/59/59 154/59/59 155/60/59
f 100/109/60 244/109/60 245/108/60
f 54/142/61 198/142/61 199/43/61
f 135/8/62 279/8/62 280/12/62
f 31/132/63 175/132/63 176/133/63
f 21/13/64 165/13/64 166/11/64
f 78/93/65 222/93/65 223/102/65
f 59/57/66 203/57/66 204/55/66
f 125/62/67 269/62/67 270/58/67
f 99/110/68 243/110/68 244/109/68
f 53/143/69 197/143/69 198/142/69
f 77/84/70 221/84/70 145/85/70
f 52/42/71 196/42/71 197/143/71
f 20/14/72 164/14/72 165/13/72
f 9/63/73 153/63/73 154/59/73
f 98/111/74 242/111/74 243/110/74
f 92/35/75 236/35/75 237/116/75
f 76/82/76 220/82/76 221/84/76
f 32/133/77 176/133/77 177/135/77
f 124/65/78 268/65/78 269/62/78
f 97/112/79 241/112/79 242/111/79
f 91/144/80 235/144/80 236/35/80
f 136/12/81 280/12/81 281/16/81
f 75/79/82 219/79/82 220/82/82
f 33/135/83 177/135/83 178/134/83
f 90/37/84 234/37/84 235/144/84
f 19/23/85 163/23/85 164/14/85
f 8/66/86 152/66/86 153/63/86
f 96/113/87 240/113/87 241/112/87
f 74/76/88 218/76/88 219/79/88
f 34/134/89 178/134/89 179/97/89
f 123/68/90 267/68/90 268/65/90
f 95/114/91 239/114/91 240/113/91
f 137/16/92 281/16/92 282/33/92
f 73/73/93 217/73/93 218/76/93
f 35/97/94 179/97/94 180/96/94
f 18/22/95 162/22/95 163/23/95
f 7/69/96 151/69/96 152/66/96
f 94/115/97 238/115/97 239/114/97
f 36/96/98 180/96/98 181/27/98
f 17/29/99 161/29/99 162/22/99
f 27/6/100 171/6/100 172/129/100
f 122/71/101 266/71/101 267/68/101
f 93/116/102 237/116/102 238/115/102
f 72/70/103 216/70/103 217/73/103
f 37/27/104 181/27/104 182/26/104
f 58/46/105 202/46/105 203/57/105
f 6/72/106 150/72/106 151/69/106
f 138/33/107 282/33/107 283/34/107
f 71/67/108 215/67/108 216/70/108
f 16/28/109 160/28/109 161/29/109
f 121/74/110 265/74/110 266/71/110
f 89/117/111 233/117/111 234/37/111
f 70/64/112 214/64/112 215/67/112
f 38/26/113 182/26/113 183/127/113
f 5/75/114 149/75/114 150/72/114
f 88/118/115 232/118/115 233/117/115
f 139/34/116 283/34/116 284/136/116
f 69/61/117 213/61/117 214/64/117
f 39/127/118 183/127/118 184/137/118
f 15/39/119 159/39/119 160/28/119
f 120/77/120 264/77/120 265/74/120
f 87/119/121 231/119/121 232/118/121
f 68/91/122 212/91/122 213/61/122
f 40/137/123 184/137/123 185/138/123
f 4/78/124 148/78/124 149/75/124
f 86/120/125 230/120/125 231/119/125
f 140/136/126 284/136/126 285/18/126
f 67/45/127 211/45/127 212/91/127
f 41/138/128 185/138/128 186/56/128
f 130/32/129 274/32/129 275/1/129
f 119/80/130 263/80/130 264/77/130
f 85/121/131 229/121/131 230/120/131
f 109/128/132 253/128/132 254/19/132
f 42/56/133 186/56/133 187/99/133
f 14/38/134 158/38/134 159/39/134
f 57/48/135 201/48/135 202/46/135
f 3/81/136 147/81/136 148/78/136
f 84/122/137 228/122/137 229/121/137
f 66/40/138 210/40/138 211/45/138
f 118/49/139 262/49/139 263/80/139
f 83/123/140 227/123/140 228/122/140
f 141/18/141 285/18/141 286/25/141
f 108/94/142 252/94/142 253/128/142
f 43/99/143 187/99/143 188/100/143
f 129/53/149 273/53/149 274/32/149
f 2/83/145 146/83/145 147/81/145
f 82/124/146 226/124/146 227/123/146
