# Blender 4.5.8 LTS
# www.blender.org
mtllib text_dot.mtl
o text_dot.001
v 0.305652 -0.377391 -0.025000
v 0.318609 -0.376522 -0.025000
v 0.330898 -0.373986 -0.025000
v 0.342432 -0.369891 -0.025000
v 0.353124 -0.364348 -0.025000
v 0.362886 -0.357464 -0.025000
v 0.371630 -0.349348 -0.025000
v 0.379270 -0.340109 -0.025000
v 0.385717 -0.329855 -0.025000
v 0.390883 -0.318696 -0.025000
v 0.394682 -0.306739 -0.025000
v 0.397026 -0.294094 -0.025000
v 0.397826 -0.280870 -0.025000
v 0.397025 -0.267662 -0.025000
v 0.394682 -0.255064 -0.025000
v 0.390883 -0.243179 -0.025000
v 0.385717 -0.232110 -0.025000
v 0.379270 -0.221958 -0.025000
v 0.371630 -0.212826 -0.025000
v 0.362886 -0.204818 -0.025000
v 0.353124 -0.198035 -0.025000
v 0.342432 -0.192582 -0.025000
v 0.330898 -0.188559 -0.025000
v 0.318609 -0.186070 -0.025000
v 0.305652 -0.185217 -0.025000
v 0.292513 -0.186070 -0.025000
v 0.280105 -0.188559 -0.025000
v 0.268505 -0.192582 -0.025000
v 0.257794 -0.198035 -0.025000
v 0.248048 -0.204818 -0.025000
v 0.239348 -0.212826 -0.025000
v 0.231770 -0.221958 -0.025000
v 0.225395 -0.232110 -0.025000
v 0.220299 -0.243179 -0.025000
v 0.216562 -0.255064 -0.025000
v 0.214262 -0.267662 -0.025000
v 0.213478 -0.280870 -0.025000
v 0.214262 -0.294094 -0.025000
v 0.216562 -0.306739 -0.025000
v 0.220299 -0.318696 -0.025000
v 0.225395 -0.329855 -0.025000
v 0.231770 -0.340109 -0.025000
v 0.239348 -0.349348 -0.025000
v 0.248049 -0.357464 -0.025000
v 0.257794 -0.364348 -0.025000
v 0.268505 -0.369891 -0.025000
v 0.280105 -0.373986 -0.025000
v 0.292513 -0.376522 -0.025000
v 0.000435 -0.377391 -0.025000
v 0.013391 -0.376522 -0.025000
v 0.025680 -0.373986 -0.025000
v 0.037215 -0.369891 -0.025000
v 0.047907 -0.364348 -0.025000
v 0.057669 -0.357464 -0.025000
v 0.066413 -0.349348 -0.025000
v 0.074052 -0.340109 -0.025000
v 0.080499 -0.329855 -0.025000
v 0.085666 -0.318696 -0.025000
v 0.089465 -0.306739 -0.025000
v 0.091808 -0.294094 -0.025000
v 0.092609 -0.280870 -0.025000
v 0.091808 -0.267662 -0.025000
v 0.089465 -0.255064 -0.025000
v 0.085666 -0.243179 -0.025000
v 0.080499 -0.232110 -0.025000
v 0.074052 -0.221958 -0.025000
v 0.066413 -0.212826 -0.025000
v 0.057669 -0.204818 -0.025000
v 0.047907 -0.198035 -0.025000
v 0.037215 -0.192582 -0.025000
v 0.025680 -0.188559 -0.025000
v 0.013391 -0.186070 -0.025000
v 0.000435 -0.185217 -0.025000
v -0.012704 -0.186070 -0.025000
v -0.025113 -0.188559 -0.025000
v -0.036712 -0.192582 -0.025000
v -0.047424 -0.198035 -0.025000
v -0.057169 -0.204818 -0.025000
v -0.065870 -0.212826 -0.025000
v -0.073447 -0.221958 -0.025000
v -0.079823 -0.232110 -0.025000
v -0.084918 -0.243179 -0.025000
v -0.088655 -0.255064 -0.025000
v -0.090955 -0.267662 -0.025000
v -0.091739 -0.280870 -0.025000
v -0.090955 -0.294094 -0.025000
v -0.088655 -0.306739 -0.025000
v -0.084918 -0.318696 -0.025000
v -0.079823 -0.329855 -0.025000
v -0.073447 -0.340109 -0.025000
v -0.065870 -0.349348 -0.025000
v -0.057169 -0.357464 -0.025000
v -0.047424 -0.364348 -0.025000
v -0.036712 -0.369891 -0.025000
v -0.025113 -0.373986 -0.025000
v -0.012704 -0.376522 -0.025000
v -0.304783 -0.377391 -0.025000
v -0.291826 -0.376522 -0.025000
v -0.279537 -0.373986 -0.025000
v -0.268003 -0.369891 -0.025000
v -0.257311 -0.364348 -0.025000
v -0.247549 -0.357464 -0.025000
v -0.238804 -0.349348 -0.025000
v -0.231165 -0.340109 -0.025000
v -0.224718 -0.329855 -0.025000
v -0.219552 -0.318696 -0.025000
v -0.215753 -0.306739 -0.025000
v -0.213409 -0.294094 -0.025000
v -0.212609 -0.280870 -0.025000
v -0.213409 -0.267662 -0.025000
v -0.215753 -0.255064 -0.025000
v -0.219552 -0.243179 -0.025000
v -0.224718 -0.232110 -0.025000
v -0.231165 -0.221958 -0.025000
v -0.238804 -0.212826 -0.025000
v -0.247549 -0.204818 -0.025000
v -0.257311 -0.198035 -0.025000
v -0.268003 -0.192582 -0.025000
v -0.279537 -0.188559 -0.025000
v -0.291826 -0.186070 -0.025000
v -0.304783 -0.185217 -0.025000
v -0.317922 -0.186070 -0.025000
v -0.330330 -0.188559 -0.025000
v -0.341929 -0.192582 -0.025000
v -0.352641 -0.198035 -0.025000
v -0.362386 -0.204818 -0.025000
v -0.371087 -0.212826 -0.025000
v -0.378665 -0.221958 -0.025000
v -0.385040 -0.232110 -0.025000
v -0.390136 -0.243179 -0.025000
v -0.393873 -0.255064 -0.025000
v -0.396173 -0.267662 -0.025000
v -0.396957 -0.280870 -0.025000
v -0.396173 -0.294094 -0.025000
v -0.393873 -0.306739 -0.025000
v -0.390136 -0.318696 -0.025000
v -0.385040 -0.329855 -0.025000
v -0.378664 -0.340109 -0.025000
v -0.371087 -0.349348 -0.025000
v -0.362386 -0.357464 -0.025000
v -0.352641 -0.364348 -0.025000
v -0.341929 -0.369891 -0.025000
v -0.330330 -0.373986 -0.025000
v -0.317922 -0.376522 -0.025000
v 0.305652 -0.377391 0.025000
v 0.318609 -0.376522 0.025000
v 0.330898 -0.373986 0.025000
v 0.342432 -0.369891 0.025000
v 0.353124 -0.364348 0.025000
v 0.362886 -0.357464 0.025000
v 0.371630 -0.349348 0.025000
v 0.379270 -0.340109 0.025000
v 0.385717 -0.329855 0.025000
v 0.390883 -0.318696 0.025000
v 0.394682 -0.306739 0.025000
v 0.397026 -0.294094 0.025000
v 0.397826 -0.280870 0.025000
v 0.397025 -0.267662 0.025000
v 0.394682 -0.255064 0.025000
v 0.390883 -0.243179 0.025000
v 0.385717 -0.232110 0.025000
v 0.379270 -0.221958 0.025000
v 0.371630 -0.212826 0.025000
v 0.362886 -0.204818 0.025000
v 0.353124 -0.198035 0.025000
v 0.342432 -0.192582 0.025000
v 0.330898 -0.188559 0.025000
v 0.318609 -0.186070 0.025000
v 0.305652 -0.185217 0.025000
v 0.292513 -0.186070 0.025000
v 0.280105 -0.188559 0.025000
v 0.268505 -0.192582 0.025000
v 0.257794 -0.198035 0.025000
v 0.248048 -0.204818 0.025000
v 0.239348 -0.212826 0.025000
v 0.231770 -0.221958 0.025000
v 0.225395 -0.232110 0.025000
v 0.220299 -0.243179 0.025000
v 0.216562 -0.255064 0.025000
v 0.214262 -0.267662 0.025000
v 0.213478 -0.280870 0.025000
v 0.214262 -0.294094 0.025000
v 0.216562 -0.306739 0.025000
v 0.220299 -0.318696 0.025000
v 0.225395 -0.329855 0.025000
v 0.231770 -0.340109 0.025000
v 0.239348 -0.349348 0.025000
v 0.248049 -0.357464 0.025000
v 0.257794 -0.364348 0.025000
v 0.268505 -0.369891 0.025000
v 0.280105 -0.373986 0.025000
v 0.292513 -0.376522 0.025000
v 0.000435 -0.377391 0.025000
v 0.013391 -0.376522 0.025000
v 0.025680 -0.373986 0.025000
v 0.037215 -0.369891 0.025000
v 0.047907 -0.364348 0.025000
v 0.057669 -0.357464 0.025000
v 0.066413 -0.349348 0.025000
v 0.074052 -0.340109 0.025000
v 0.080499 -0.329855 0.025000
v 0.085666 -0.318696 0.025000
v 0.089465 -0.306739 0.025000
v 0.091808 -0.294094 0.025000
v 0.092609 -0.280870 0.025000
v 0.091808 -0.267662 0.025000
v 0.089465 -0.255064 0.025000
v 0.085666 -0.243179 0.025000
v 0.080499 -0.232110 0.025000
v 0.074052 -0.221958 0.025000
v 0.066413 -0.212826 0.025000
v 0.057669 -0.204818 0.025000
v 0.047907 -0.198035 0.025000
v 0.037215 -0.192582 0.025000
v 0.025680 -0.188559 0.025000
v 0.013391 -0.186070 0.025000
v 0.000435 -0.185217 0.025000
v -0.012704 -0.186070 0.025000
v -0.025113 -0.188559 0.025000
v -0.036712 -0.192582 0.025000
v -0.047424 -0.198035 0.025000
v -0.057169 -0.204818 0.025000
v -0.065870 -0.212826 0.025000
v -0.073447 -0.221958 0.025000
v -0.079823 -0.232110 0.025000
v -0.084918 -0.243179 0.025000
v -0.088655 -0.255064 0.025000
v -0.090955 -0.267662 0.025000
v -0.091739 -0.280870 0.025000
v -0.090955 -0.294094 0.025000
v -0.088655 -0.306739 0.025000
v -0.084918 -0.318696 0.025000
v -0.079823 -0.329855 0.025000
v -0.073447 -0.340109 0.025000
v -0.065870 -0.349348 0.025000
v -0.057169 -0.357464 0.025000
v -0.047424 -0.364348 0.025000
v -0.036712 -0.369891 0.025000
v -0.025113 -0.373986 0.025000
v -0.012704 -0.376522 0.025000
v -0.304783 -0.377391 0.025000
v -0.291826 -0.376522 0.025000
v -0.279537 -0.373986 0.025000
v -0.268003 -0.369891 0.025000
v -0.257311 -0.364348 0.025000
v -0.247549 -0.357464 0.025000
v -0.238804 -0.349348 0.025000
v -0.231165 -0.340109 0.025000
v -0.224718 -0.329855 0.025000
v -0.219552 -0.318696 0.025000
v -0.215753 -0.306739 0.025000
v -0.213409 -0.294094 0.025000
v -0.212609 -0.280870 0.025000
v -0.213409 -0.267662 0.025000
v -0.215753 -0.255064 0.025000
v -0.219552 -0.243179 0.025000
v -0.224718 -0.232110 0.025000
v -0.231165 -0.221958 0.025000
v -0.238804 -0.212826 0.025000
v -0.247549 -0.204818 0.025000
v -0.257311 -0.198035 0.025000
v -0.268003 -0.192582 0.025000
v -0.279537 -0.188559 0.025000
v -0.291826 -0.186070 0.025000
v -0.304783 -0.185217 0.025000
v -0.317922 -0.186070 0.025000
v -0.330330 -0.188559 0.025000
v -0.341929 -0.192582 0.025000
v -0.352641 -0.198035 0.025000
v -0.362386 -0.204818 0.025000
v -0.371087 -0.212826 0.025000
v -0.378665 -0.221958 0.025000
v -0.385040 -0.232110 0.025000
v -0.390136 -0.243179 0.025000
v -0.393873 -0.255064 0.025000
v -0.396173 -0.267662 0.025000
v -0.396957 -0.280870 0.025000
v -0.396173 -0.294094 0.025000
v -0.393873 -0.306739 0.025000
v -0.390136 -0.318696 0.025000
v -0.385040 -0.329855 0.025000
v -0.378664 -0.340109 0.025000
v -0.371087 -0.349348 0.025000
v -0.362386 -0.357464 0.025000
v -0.352641 -0.364348 0.025000
v -0.341929 -0.369891 0.025000
v -0.330330 -0.373986 0.025000
v -0.317922 -0.376522 0.025000
vn -0.0000 -0.0000 -1.0000
vn -0.0000 -0.0000 1.0000
vn 0.6803 -0.7330 -0.0000
vn -0.1967 0.9805 -0.0000
vn -0.7695 0.6386 -0.0000
vn -0.9545 -0.2983 -0.0000
vn -0.5770 -0.8168 -0.0000
vn 0.4544 0.8908 -0.0000
vn 0.8466 -0.5323 -0.0000
vn -0.5712 0.8208 -0.0000
vn -0.7732 -0.6341 -0.0000
vn 0.1985 0.9801 -0.0000
vn 0.7670 0.6417 -0.0000
vn 0.9531 -0.3028 -0.0000
vn 0.5763 -0.8172 -0.0000
vn -0.3277 0.9448 -0.0000
vn -0.8468 0.5318 -0.0000
vn -0.9097 -0.4154 -0.0000
vn -0.4596 -0.8881 -0.0000
vn 0.5706 0.8212 -0.0000
vn 0.7707 -0.6372 -0.0000
vn -0.6772 0.7358 -0.0000
vn -0.6821 -0.7313 -0.0000
vn 0.3293 0.9442 -0.0000
vn 0.8442 0.5361 -0.0000
vn 0.9075 -0.4201 -0.0000
vn 0.4603 -0.8878 -0.0000
vn -0.4537 0.8911 -0.0000
vn -0.9084 0.4181 -0.0000
vn -0.8492 -0.5280 -0.0000
vn -0.3328 -0.9430 -0.0000
vn 0.6754 0.7375 -0.0000
vn 0.9062 0.4229 -0.0000
vn 0.3345 -0.9424 -0.0000
vn -0.9540 0.2999 -0.0000
vn -0.2003 -0.9797 -0.0000
vn 0.9525 0.3045 -0.0000
vn 0.2021 -0.9794 -0.0000
vn -0.9837 0.1796 -0.0000
vn -0.0660 -0.9978 -0.0000
vn 0.0670 -0.9978 -0.0000
vn 0.9831 0.1829 -0.0000
vn -0.9982 0.0593 -0.0000
vn 0.9982 0.0605 -0.0000
vn -0.9982 -0.0592 -0.0000
vn 0.9982 -0.0604 -0.0000
vn -0.9839 -0.1789 -0.0000
vn -0.0647 0.9979 -0.0000
vn 0.0657 0.9978 -0.0000
vn 0.9833 -0.1822 -0.0000
vn -0.8492 -0.5281 -0.0000
vt 0.531915 0.000000
vt 0.510638 0.000000
vt 0.489362 0.000000
vt 0.553191 0.000000
vt 0.468085 0.000000
vt 0.574468 0.000000
vt 0.446809 0.000000
vt 0.595745 0.000000
vt 0.425532 0.000000
vt 0.617021 0.000000
vt 0.404255 0.000000
vt 0.638298 0.000000
vt 0.382979 0.000000
vt 0.659574 0.000000
vt 0.680851 0.000000
vt 0.361702 0.000000
vt 0.702128 0.000000
vt 0.340426 0.000000
vt 0.319149 0.000000
vt 0.723404 0.000000
vt 0.297872 0.000000
vt 0.744681 0.000000
vt 0.191489 0.000000
vt 0.829787 0.000000
vt 0.851064 0.000000
vt 0.276596 0.000000
vt 0.765957 0.000000
vt 0.936170 0.000000
vt 0.106383 0.000000
vt 0.914894 0.000000
vt 0.255319 0.000000
vt 0.787234 0.000000
vt 1.000000 0.000000
vt 0.042553 0.000000
vt 0.978723 0.000000
vt 0.234043 0.000000
vt 0.808511 0.000000
vt 0.063830 0.000000
vt 0.957447 0.000000
vt 0.148936 0.000000
vt 0.872340 0.000000
vt 0.893617 0.000000
vt 0.170213 0.000000
vt 0.127660 0.000000
vt 0.085106 0.000000
vt 0.021277 0.000000
vt 0.000000 0.000000
vt 0.212766 0.000000
s 0
f 26/1/1 25/2/1 24/3/1
f 27/4/1 26/1/1 24/3/1
f 27/4/1 24/3/1 23/5/1
f 28/6/1 27/4/1 23/5/1
f 28/6/1 23/5/1 22/7/1
f 29/8/1 28/6/1 22/7/1
f 29/8/1 22/7/1 21/9/1
f 30/10/1 29/8/1 21/9/1
f 30/10/1 21/9/1 20/11/1
f 31/12/1 30/10/1 20/11/1
f 31/12/1 20/11/1 19/13/1
f 32/14/1 31/12/1 19/13/1
f 81/15/1 67/13/1 66/16/1
f 172/6/2 167/5/2 171/4/2
f 130/17/1 114/16/1 113/18/1
f 175/12/2 164/11/2 174/10/2
f 82/17/1 64/19/1 83/20/1
f 208/19/2 226/17/2 227/20/2
f 131/20/1 111/21/1 132/22/1
f 202/23/2 232/24/2 233/25/2
f 132/22/1 110/26/1 133/27/1
f 189/28/2 150/29/2 188/30/2
f 133/27/1 109/31/1 134/32/1
f 192/33/2 147/34/2 191/35/2
f 86/32/1 60/36/1 87/37/1
f 191/35/2 148/38/2 190/39/2
f 83/20/1 63/21/1 84/22/1
f 200/40/2 234/41/2 235/42/2
f 88/24/1 58/23/1 89/25/1
f 204/36/2 230/32/2 231/37/2
f 89/25/1 57/43/1 90/41/1
f 225/15/2 211/13/2 224/14/2
f 90/41/1 56/40/1 91/42/1
f 173/8/2 165/9/2 166/7/2
f 43/42/1 8/40/1 7/44/1
f 44/30/1 43/42/1 7/44/1
f 44/30/1 7/44/1 6/29/1
f 45/28/1 44/30/1 6/29/1
f 45/28/1 6/29/1 5/45/1
f 46/39/1 45/28/1 5/45/1
f 46/39/1 5/45/1 4/38/1
f 47/35/1 46/39/1 4/38/1
f 47/35/1 4/38/1 3/34/1
f 48/33/1 47/35/1 3/34/1
f 48/33/1 3/34/1 2/46/1
f 1/47/1 48/33/1 2/46/1
f 74/1/1 73/2/1 72/3/1
f 75/4/1 74/1/1 72/3/1
f 75/4/1 72/3/1 71/5/1
f 76/6/1 75/4/1 71/5/1
f 76/6/1 71/5/1 70/7/1
f 77/8/1 76/6/1 70/7/1
f 77/8/1 70/7/1 69/9/1
f 78/10/1 77/8/1 69/9/1
f 78/10/1 69/9/1 68/11/1
f 79/12/1 78/10/1 68/11/1
f 79/12/1 68/11/1 67/13/1
f 80/14/1 79/12/1 67/13/1
f 129/15/1 115/13/1 114/16/1
f 171/4/2 167/5/2 168/3/2
f 42/41/1 8/40/1 43/42/1
f 174/10/2 165/9/2 173/8/2
f 41/25/1 9/43/1 42/41/1
f 274/17/2 258/16/2 273/15/2
f 35/20/1 15/21/1 36/22/1
f 201/43/2 233/25/2 234/41/2
f 36/22/1 14/26/1 37/27/1
f 189/28/2 149/45/2 150/29/2
f 37/27/1 13/31/1 38/32/1
f 192/33/2 146/46/2 147/34/2
f 134/32/1 108/36/1 135/37/1
f 190/39/2 148/38/2 149/45/2
f 135/37/1 107/48/1 136/24/1
f 188/30/2 151/44/2 187/42/2
f 136/24/1 106/23/1 137/25/1
f 253/31/2 277/27/2 278/32/2
f 137/25/1 105/43/1 138/41/1
f 176/14/2 163/13/2 175/12/2
f 138/41/1 104/40/1 139/42/1
f 173/8/2 166/7/2 172/6/2
f 91/42/1 56/40/1 55/44/1
f 92/30/1 91/42/1 55/44/1
f 92/30/1 55/44/1 54/29/1
f 93/28/1 92/30/1 54/29/1
f 93/28/1 54/29/1 53/45/1
f 94/39/1 93/28/1 53/45/1
f 94/39/1 53/45/1 52/38/1
f 95/35/1 94/39/1 52/38/1
f 95/35/1 52/38/1 51/34/1
f 96/33/1 95/35/1 51/34/1
f 96/33/1 51/34/1 50/46/1
f 49/47/1 96/33/1 50/46/1
f 122/1/1 121/2/1 120/3/1
f 123/4/1 122/1/1 120/3/1
f 123/4/1 120/3/1 119/5/1
f 124/6/1 123/4/1 119/5/1
f 124/6/1 119/5/1 118/7/1
f 125/8/1 124/6/1 118/7/1
f 125/8/1 118/7/1 117/9/1
f 126/10/1 125/8/1 117/9/1
f 126/10/1 117/9/1 116/11/1
f 127/12/1 126/10/1 116/11/1
f 127/12/1 116/11/1 115/13/1
f 128/14/1 127/12/1 115/13/1
f 170/1/2 168/3/2 169/2/2
f 171/4/2 168/3/2 170/1/2
f 82/17/1 66/16/1 65/18/1
f 174/10/2 164/11/2 165/9/2
f 34/17/1 16/19/1 35/20/1
f 255/21/2 275/20/2 276/22/2
f 40/24/1 10/23/1 41/25/1
f 207/21/2 227/20/2 228/22/2
f 87/37/1 59/48/1 88/24/1
f 188/30/2 150/29/2 151/44/2
f 38/32/1 12/36/1 39/37/1
f 191/35/2 147/34/2 148/38/2
f 84/22/1 62/26/1 85/27/1
f 190/39/2 149/45/2 189/28/2
f 39/37/1 11/48/1 40/24/1
f 187/42/2 151/44/2 152/40/2
f 130/17/1 112/19/1 131/20/1
f 254/26/2 276/22/2 277/27/2
f 34/17/1 18/16/1 17/18/1
f 175/12/2 163/13/2 164/11/2
f 33/15/1 19/13/1 18/16/1
f 172/6/2 166/7/2 167/5/2
f 139/42/1 104/40/1 103/44/1
f 140/30/1 139/42/1 103/44/1
f 140/30/1 103/44/1 102/29/1
f 141/28/1 140/30/1 102/29/1
f 141/28/1 102/29/1 101/45/1
f 142/39/1 141/28/1 101/45/1
f 142/39/1 101/45/1 100/38/1
f 143/35/1 142/39/1 100/38/1
f 143/35/1 100/38/1 99/34/1
f 144/33/1 143/35/1 99/34/1
f 144/33/1 99/34/1 98/46/1
f 97/47/1 144/33/1 98/46/1
f 85/27/1 61/31/1 86/32/1
f 145/47/2 146/46/2 192/33/2
f 218/1/2 216/3/2 217/2/2
f 219/4/2 216/3/2 218/1/2
f 219/4/2 215/5/2 216/3/2
f 220/6/2 215/5/2 219/4/2
f 220/6/2 214/7/2 215/5/2
f 221/8/2 214/7/2 220/6/2
f 221/8/2 213/9/2 214/7/2
f 222/10/2 213/9/2 221/8/2
f 222/10/2 212/11/2 213/9/2
f 223/12/2 212/11/2 222/10/2
f 223/12/2 211/13/2 212/11/2
f 224/14/2 211/13/2 223/12/2
f 273/15/2 259/13/2 272/14/2
f 152/40/2 186/41/2 187/42/2
f 153/43/2 185/25/2 186/41/2
f 159/21/2 179/20/2 180/22/2
f 158/26/2 180/22/2 181/27/2
f 157/31/2 181/27/2 182/32/2
f 252/36/2 278/32/2 279/37/2
f 251/48/2 279/37/2 280/24/2
f 250/23/2 280/24/2 281/25/2
f 249/43/2 281/25/2 282/41/2
f 248/40/2 282/41/2 283/42/2
f 235/42/2 199/44/2 200/40/2
f 236/30/2 199/44/2 235/42/2
f 236/30/2 198/29/2 199/44/2
f 237/28/2 198/29/2 236/30/2
f 237/28/2 197/45/2 198/29/2
f 238/39/2 197/45/2 237/28/2
f 238/39/2 196/38/2 197/45/2
f 239/35/2 196/38/2 238/39/2
f 239/35/2 195/34/2 196/38/2
f 240/33/2 195/34/2 239/35/2
f 240/33/2 194/46/2 195/34/2
f 193/47/2 194/46/2 240/33/2
f 266/1/2 264/3/2 265/2/2
f 267/4/2 264/3/2 266/1/2
f 267/4/2 263/5/2 264/3/2
f 268/6/2 263/5/2 267/4/2
f 268/6/2 262/7/2 263/5/2
f 269/8/2 262/7/2 268/6/2
f 269/8/2 261/9/2 262/7/2
f 270/10/2 261/9/2 269/8/2
f 270/10/2 260/11/2 261/9/2
f 271/12/2 260/11/2 270/10/2
f 271/12/2 259/13/2 260/11/2
f 272/14/2 259/13/2 271/12/2
f 226/17/2 210/16/2 225/15/2
f 160/19/2 178/17/2 179/20/2
f 154/23/2 184/24/2 185/25/2
f 203/48/2 231/37/2 232/24/2
f 156/36/2 182/32/2 183/37/2
f 206/26/2 228/22/2 229/27/2
f 155/48/2 183/37/2 184/24/2
f 256/19/2 274/17/2 275/20/2
f 178/17/2 162/16/2 177/15/2
f 177/15/2 163/13/2 176/14/2
f 283/42/2 247/44/2 248/40/2
f 284/30/2 247/44/2 283/42/2
f 284/30/2 246/29/2 247/44/2
f 285/28/2 246/29/2 284/30/2
f 285/28/2 245/45/2 246/29/2
f 286/39/2 245/45/2 285/28/2
f 286/39/2 244/38/2 245/45/2
f 287/35/2 244/38/2 286/39/2
f 287/35/2 243/34/2 244/38/2
f 288/33/2 243/34/2 287/35/2
f 288/33/2 242/46/2 243/34/2
f 241/47/2 242/46/2 288/33/2
f 205/31/2 229/27/2 230/32/2
f 103/44/3 246/29/3 102/29/3
f 27/4/4 170/1/4 26/1/4
f 127/12/5 272/14/5 271/12/5
f 40/24/6 183/37/6 39/37/6
f 141/28/7 284/30/7 140/30/7
f 70/7/8 213/9/8 69/9/8
f 57/43/9 200/40/9 56/40/9
f 78/10/10 221/8/10 77/8/10
f 91/42/11 234/41/11 90/41/11
f 24/3/12 167/5/12 23/5/12
f 115/13/13 258/16/13 114/16/13
f 11/48/14 154/23/14 10/23/14
f 101/45/15 246/29/15 245/45/15
f 28/6/16 171/4/16 27/4/16
f 129/15/17 272/14/17 128/14/17
f 41/25/18 184/24/18 40/24/18
f 142/39/19 285/28/19 141/28/19
f 69/9/20 212/11/20 68/11/20
f 56/40/21 199/44/21 55/44/21
f 79/12/22 222/10/22 78/10/22
f 92/30/23 235/42/23 91/42/23
f 23/5/24 166/7/24 22/7/24
f 114/16/25 257/18/25 113/18/25
f 10/23/26 153/43/26 9/43/26
f 101/45/27 244/38/27 100/38/27
f 29/8/28 172/6/28 28/6/28
f 130/17/29 273/15/29 129/15/29
f 42/41/30 185/25/30 41/25/30
f 143/35/31 286/39/31 142/39/31
f 68/11/32 211/13/32 67/13/32
f 55/44/3 198/29/3 54/29/3
f 79/12/5 224/14/5 223/12/5
f 93/28/7 236/30/7 92/30/7
f 22/7/8 165/9/8 21/9/8
f 113/18/33 256/19/33 112/19/33
f 9/43/9 152/40/9 8/40/9
f 100/38/34 243/34/34 99/34/34
f 30/10/10 173/8/10 29/8/10
f 131/20/35 274/17/35 130/17/35
f 43/42/11 186/41/11 42/41/11
f 144/33/36 287/35/36 143/35/36
f 67/13/13 210/16/13 66/16/13
f 54/29/15 197/45/15 53/45/15
f 81/15/17 224/14/17 80/14/17
f 94/39/19 237/28/19 93/28/19
f 21/9/20 164/11/20 20/11/20
f 112/19/37 255/21/37 111/21/37
f 8/40/21 151/44/21 7/44/21
f 99/34/38 242/46/38 98/46/38
f 31/12/22 174/10/22 30/10/22
f 132/22/39 275/20/39 131/20/39
f 44/30/23 187/42/23 43/42/23
f 97/47/40 288/33/40 144/33/40
f 66/16/25 209/18/25 65/18/25
f 53/45/27 196/38/27 52/38/27
f 98/46/41 241/47/41 97/47/41
f 82/17/29 225/15/29 81/15/29
f 95/35/31 238/39/31 94/39/31
f 20/11/32 163/13/32 19/13/32
f 111/21/42 254/26/42 110/26/42
f 7/44/3 150/29/3 6/29/3
f 31/12/5 176/14/5 175/12/5
f 133/27/43 276/22/43 132/22/43
f 45/28/7 188/30/7 44/30/7
f 65/18/33 208/19/33 64/19/33
f 52/38/34 195/34/34 51/34/34
f 83/20/35 226/17/35 82/17/35
f 96/33/36 239/35/36 95/35/36
f 19/13/13 162/16/13 18/16/13
f 109/31/44 254/26/44 253/31/44
f 5/45/15 150/29/15 149/45/15
f 33/15/17 176/14/17 32/14/17
f 134/32/45 277/27/45 133/27/45
f 46/39/19 189/28/19 45/28/19
f 64/19/37 207/21/37 63/21/37
f 51/34/38 194/46/38 50/46/38
f 84/22/39 227/20/39 83/20/39
f 49/47/40 240/33/40 96/33/40
f 18/16/25 161/18/25 17/18/25
f 109/31/46 252/36/46 108/36/46
f 5/45/27 148/38/27 4/38/27
f 50/46/41 193/47/41 49/47/41
f 34/17/29 177/15/29 33/15/29
f 135/37/47 278/32/47 134/32/47
f 47/35/31 190/39/31 46/39/31
f 122/1/48 265/2/48 121/2/48
f 63/21/42 206/26/42 62/26/42
f 85/27/43 228/22/43 84/22/43
f 121/2/49 264/3/49 120/3/49
f 17/18/33 160/19/33 16/19/33
f 108/36/50 251/48/50 107/48/50
f 4/38/34 147/34/34 3/34/34
f 123/4/4 266/1/4 122/1/4
f 35/20/35 178/17/35 34/17/35
f 136/24/6 279/37/6 135/37/6
f 48/33/36 191/35/36 47/35/36
f 61/31/44 206/26/44 205/31/44
f 86/32/45 229/27/45 85/27/45
f 120/3/12 263/5/12 119/5/12
f 16/19/37 159/21/37 15/21/37
f 107/48/14 250/23/14 106/23/14
f 3/34/38 146/46/38 2/46/38
f 124/6/16 267/4/16 123/4/16
f 36/22/39 179/20/39 35/20/39
f 137/25/18 280/24/18 136/24/18
f 1/47/40 192/33/40 48/33/40
f 61/31/46 204/36/46 60/36/46
f 2/46/41 145/47/41 1/47/41
f 87/37/47 230/32/47 86/32/47
f 74/1/48 217/2/48 73/2/48
f 119/5/24 262/7/24 118/7/24
f 15/21/42 158/26/42 14/26/42
f 106/23/26 249/43/26 105/43/26
f 125/8/28 268/6/28 124/6/28
f 37/27/43 180/22/43 36/22/43
f 138/41/30 281/25/30 137/25/30
f 73/2/49 216/3/49 72/3/49
f 60/36/50 203/48/50 59/48/50
f 75/4/4 218/1/4 74/1/4
f 88/24/6 231/37/6 87/37/6
f 118/7/8 261/9/8 117/9/8
f 14/26/44 157/31/44 13/31/44
f 105/43/9 248/40/9 104/40/9
f 126/10/10 269/8/10 125/8/10
f 38/32/45 181/27/45 37/27/45
f 139/42/11 282/41/11 138/41/11
f 72/3/12 215/5/12 71/5/12
f 59/48/14 202/23/14 58/23/14
f 76/6/16 219/4/16 75/4/16
f 88/24/18 233/25/18 232/24/18
f 117/9/20 260/11/20 116/11/20
f 13/31/46 156/36/46 12/36/46
f 104/40/21 247/44/21 103/44/21
f 127/12/22 270/10/22 126/10/22
f 39/37/47 182/32/47 38/32/47
f 140/30/23 283/42/23 139/42/23
f 26/1/48 169/2/48 25/2/48
f 71/5/24 214/7/24 70/7/24
f 58/23/26 201/43/26 57/43/26
f 77/8/28 220/6/28 76/6/28
f 90/41/30 233/25/30 89/25/30
f 25/2/49 168/3/49 24/3/49
f 116/11/32 259/13/32 115/13/32
f 12/36/50 155/48/50 11/48/50
f 81/15/1 80/14/1 67/13/1
f 130/17/1 129/15/1 114/16/1
f 82/17/1 65/18/1 64/19/1
f 208/19/2 209/18/2 226/17/2
f 131/20/1 112/19/1 111/21/1
f 202/23/2 203/48/2 232/24/2
f 132/22/1 111/21/1 110/26/1
f 133/27/1 110/26/1 109/31/1
f 86/32/1 61/31/1 60/36/1
f 83/20/1 64/19/1 63/21/1
f 200/40/2 201/43/2 234/41/2
f 88/24/1 59/48/1 58/23/1
f 204/36/2 205/31/2 230/32/2
f 89/25/1 58/23/1 57/43/1
f 225/15/2 210/16/2 211/13/2
f 90/41/1 57/43/1 56/40/1
f 129/15/1 128/14/1 115/13/1
f 42/41/1 9/43/1 8/40/1
f 41/25/1 10/23/1 9/43/1
f 274/17/2 257/18/2 258/16/2
f 35/20/1 16/19/1 15/21/1
f 201/43/2 202/23/2 233/25/2
f 36/22/1 15/21/1 14/26/1
f 37/27/1 14/26/1 13/31/1
f 134/32/1 109/31/1 108/36/1
f 135/37/1 108/36/1 107/48/1
f 136/24/1 107/48/1 106/23/1
f 253/31/2 254/26/2 277/27/2
f 137/25/1 106/23/1 105/43/1
f 138/41/1 105/43/1 104/40/1
f 82/17/1 81/15/1 66/16/1
f 34/17/1 17/18/1 16/19/1
f 255/21/2 256/19/2 275/20/2
f 40/24/1 11/48/1 10/23/1
f 207/21/2 208/19/2 227/20/2
f 87/37/1 60/36/1 59/48/1
f 38/32/1 13/31/1 12/36/1
f 84/22/1 63/21/1 62/26/1
f 39/37/1 12/36/1 11/48/1
f 130/17/1 113/18/1 112/19/1
f 254/26/2 255/21/2 276/22/2
f 34/17/1 33/15/1 18/16/1
f 33/15/1 32/14/1 19/13/1
f 85/27/1 62/26/1 61/31/1
f 273/15/2 258/16/2 259/13/2
f 152/40/2 153/43/2 186/41/2
f 153/43/2 154/23/2 185/25/2
f 159/21/2 160/19/2 179/20/2
f 158/26/2 159/21/2 180/22/2
f 157/31/2 158/26/2 181/27/2
f 252/36/2 253/31/2 278/32/2
f 251/48/2 252/36/2 279/37/2
f 250/23/2 251/48/2 280/24/2
f 249/43/2 250/23/2 281/25/2
f 248/40/2 249/43/2 282/41/2
f 226/17/2 209/18/2 210/16/2
f 160/19/2 161/18/2 178/17/2
f 154/23/2 155/48/2 184/24/2
f 203/48/2 204/36/2 231/37/2
f 156/36/2 157/31/2 182/32/2
f 206/26/2 207/21/2 228/22/2
f 155/48/2 156/36/2 183/37/2
f 256/19/2 257/18/2 274/17/2
f 178/17/2 161/18/2 162/16/2
f 177/15/2 162/16/2 163/13/2
f 205/31/2 206/26/2 229/27/2
f 103/44/3 247/44/3 246/29/3
f 27/4/4 171/4/4 170/1/4
f 127/12/5 128/14/5 272/14/5
f 40/24/6 184/24/6 183/37/6
f 141/28/7 285/28/7 284/30/7
f 70/7/8 214/7/8 213/9/8
f 57/43/9 201/43/9 200/40/9
f 78/10/10 222/10/10 221/8/10
f 91/42/11 235/42/11 234/41/11
f 24/3/12 168/3/12 167/5/12
f 115/13/13 259/13/13 258/16/13
f 11/48/14 155/48/14 154/23/14
f 101/45/15 102/29/15 246/29/15
f 28/6/16 172/6/16 171/4/16
f 129/15/17 273/15/17 272/14/17
f 41/25/18 185/25/18 184/24/18
f 142/39/19 286/39/19 285/28/19
f 69/9/20 213/9/20 212/11/20
f 56/40/21 200/40/21 199/44/21
f 79/12/22 223/12/22 222/10/22
f 92/30/23 236/30/23 235/42/23
f 23/5/24 167/5/24 166/7/24
f 114/16/25 258/16/25 257/18/25
f 10/23/26 154/23/26 153/43/26
f 101/45/27 245/45/27 244/38/27
f 29/8/28 173/8/28 172/6/28
f 130/17/29 274/17/29 273/15/29
f 42/41/51 186/41/51 185/25/51
f 143/35/31 287/35/31 286/39/31
f 68/11/32 212/11/32 211/13/32
f 55/44/3 199/44/3 198/29/3
f 79/12/5 80/14/5 224/14/5
f 93/28/7 237/28/7 236/30/7
f 22/7/8 166/7/8 165/9/8
f 113/18/33 257/18/33 256/19/33
f 9/43/9 153/43/9 152/40/9
f 100/38/34 244/38/34 243/34/34
f 30/10/10 174/10/10 173/8/10
f 131/20/35 275/20/35 274/17/35
f 43/42/11 187/42/11 186/41/11
f 144/33/36 288/33/36 287/35/36
f 67/13/13 211/13/13 210/16/13
f 54/29/15 198/29/15 197/45/15
f 81/15/17 225/15/17 224/14/17
f 94/39/19 238/39/19 237/28/19
f 21/9/20 165/9/20 164/11/20
f 112/19/37 256/19/37 255/21/37
f 8/40/21 152/40/21 151/44/21
f 99/34/38 243/34/38 242/46/38
f 31/12/22 175/12/22 174/10/22
f 132/22/39 276/22/39 275/20/39
f 44/30/23 188/30/23 187/42/23
f 97/47/40 241/47/40 288/33/40
f 66/16/25 210/16/25 209/18/25
f 53/45/27 197/45/27 196/38/27
f 98/46/41 242/46/41 241/47/41
f 82/17/29 226/17/29 225/15/29
f 95/35/31 239/35/31 238/39/31
f 20/11/32 164/11/32 163/13/32
f 111/21/42 255/21/42 254/26/42
f 7/44/3 151/44/3 150/29/3
f 31/12/5 32/14/5 176/14/5
f 133/27/43 277/27/43 276/22/43
f 45/28/7 189/28/7 188/30/7
f 65/18/33 209/18/33 208/19/33
f 52/38/34 196/38/34 195/34/34
f 83/20/35 227/20/35 226/17/35
f 96/33/36 240/33/36 239/35/36
f 19/13/13 163/13/13 162/16/13
f 109/31/44 110/26/44 254/26/44
f 5/45/15 6/29/15 150/29/15
f 33/15/17 177/15/17 176/14/17
f 134/32/45 278/32/45 277/27/45
f 46/39/19 190/39/19 189/28/19
f 64/19/37 208/19/37 207/21/37
f 51/34/38 195/34/38 194/46/38
f 84/22/39 228/22/39 227/20/39
f 49/47/40 193/47/40 240/33/40
f 18/16/25 162/16/25 161/18/25
f 109/31/46 253/31/46 252/36/46
f 5/45/27 149/45/27 148/38/27
f 50/46/41 194/46/41 193/47/41
f 34/17/29 178/17/29 177/15/29
f 135/37/47 279/37/47 278/32/47
f 47/35/31 191/35/31 190/39/31
f 122/1/48 266/1/48 265/2/48
f 63/21/42 207/21/42 206/26/42
f 85/27/43 229/27/43 228/22/43
f 121/2/49 265/2/49 264/3/49
f 17/18/33 161/18/33 160/19/33
f 108/36/50 252/36/50 251/48/50
f 4/38/34 148/38/34 147/34/34
f 123/4/4 267/4/4 266/1/4
f 35/20/35 179/20/35 178/17/35
f 136/24/6 280/24/6 279/37/6
f 48/33/36 192/33/36 191/35/36
f 61/31/44 62/26/44 206/26/44
f 86/32/45 230/32/45 229/27/45
f 120/3/12 264/3/12 263/5/12
f 16/19/37 160/19/37 159/21/37
f 107/48/14 251/48/14 250/23/14
f 3/34/38 147/34/38 146/46/38
f 124/6/16 268/6/16 267/4/16
f 36/22/39 180/22/39 179/20/39
f 137/25/18 281/25/18 280/24/18
f 1/47/40 145/47/40 192/33/40
f 61/31/46 205/31/46 204/36/46
f 2/46/41 146/46/41 145/47/41
f 87/37/47 231/37/47 230/32/47
f 74/1/48 218/1/48 217/2/48
f 119/5/24 263/5/24 262/7/24
f 15/21/42 159/21/42 158/26/42
f 106/23/26 250/23/26 249/43/26
f 125/8/28 269/8/28 268/6/28
f 37/27/43 181/27/43 180/22/43
f 138/41/51 282/41/51 281/25/51
f 73/2/49 217/2/49 216/3/49
f 60/36/50 204/36/50 203/48/50
f 75/4/4 219/4/4 218/1/4
f 88/24/6 232/24/6 231/37/6
f 118/7/8 262/7/8 261/9/8
f 14/26/44 158/26/44 157/31/44
f 105/43/9 249/43/9 248/40/9
f 126/10/10 270/10/10 269/8/10
f 38/32/45 182/32/45 181/27/45
f 139/42/11 283/42/11 282/41/11
f 72/3/12 216/3/12 215/5/12
f 59/48/14 203/48/14 202/23/14
f 76/6/16 220/6/16 219/4/16
f 88/24/18 89/25/18 233/25/18
f 117/9/20 261/9/20 260/11/20
f 13/31/46 157/31/46 156/36/46
f 104/40/21 248/40/21 247/44/21
f 127/12/22 271/12/22 270/10/22
f 39/37/47 183/37/47 182/32/47
f 140/30/23 284/30/23 283/42/23
f 26/1/48 170/1/48 169/2/48
f 71/5/24 215/5/24 214/7/24
f 58/23/26 202/23/26 201/43/26
f 77/8/28 221/8/28 220/6/28
f 90/41/51 234/41/51 233/25/51
f 25/2/49 169/2/49 168/3/49
f 116/11/32 260/11/32 259/13/32
f 12/36/50 156/36/50 155/48/50
