# Blender 4.5.8 LTS
# www.blender.org
mtllib text_G.mtl
o text_G
v 0.010769 0.403846 -0.050000
v 0.183077 0.403846 -0.050000
v 0.183077 0.273538 -0.050000
v 0.180923 0.287538 -0.050000
v 0.180205 0.290575 -0.050000
v 0.179487 0.293581 -0.050000
v 0.178769 0.296558 -0.050000
v 0.178051 0.299504 -0.050000
v 0.177333 0.302421 -0.050000
v 0.176615 0.305308 -0.050000
v 0.175897 0.308165 -0.050000
v 0.175179 0.310991 -0.050000
v 0.174461 0.313789 -0.050000
v 0.173744 0.316556 -0.050000
v 0.173026 0.319293 -0.050000
v 0.172308 0.322000 -0.050000
v 0.170962 0.325208 -0.050000
v 0.169436 0.328372 -0.050000
v 0.167731 0.331490 -0.050000
v 0.165846 0.334564 -0.050000
v 0.163782 0.337593 -0.050000
v 0.161538 0.340577 -0.050000
v 0.159115 0.343516 -0.050000
v 0.156513 0.346410 -0.050000
v 0.153731 0.349260 -0.050000
v 0.150769 0.352064 -0.050000
v 0.147628 0.354824 -0.050000
v 0.144308 0.357538 -0.050000
v 0.137502 0.362018 -0.050000
v 0.130009 0.366124 -0.050000
v 0.121827 0.369856 -0.050000
v 0.112957 0.373214 -0.050000
v 0.103400 0.376198 -0.050000
v 0.093154 0.378808 -0.050000
v 0.082220 0.381044 -0.050000
v 0.070598 0.382906 -0.050000
v 0.058288 0.384394 -0.050000
v 0.045291 0.385509 -0.050000
v 0.031605 0.386249 -0.050000
v 0.017231 0.386615 -0.050000
v 0.010470 0.386361 -0.050000
v 0.003829 0.385598 -0.050000
v -0.002692 0.384327 -0.050000
v -0.009094 0.382547 -0.050000
v -0.015376 0.380259 -0.050000
v -0.021538 0.377462 -0.050000
v -0.027581 0.374156 -0.050000
v -0.033504 0.370342 -0.050000
v -0.039308 0.366019 -0.050000
v -0.044991 0.361188 -0.050000
v -0.050556 0.355848 -0.050000
v -0.056000 0.350000 -0.050000
v -0.056000 -0.256308 -0.050000
v -0.050900 -0.261131 -0.050000
v -0.045650 -0.265551 -0.050000
v -0.040250 -0.269567 -0.050000
v -0.034701 -0.273179 -0.050000
v -0.029002 -0.276388 -0.050000
v -0.023154 -0.279192 -0.050000
v -0.017156 -0.281593 -0.050000
v -0.011009 -0.283590 -0.050000
v -0.004712 -0.285183 -0.050000
v 0.001735 -0.286372 -0.050000
v 0.008331 -0.287157 -0.050000
v 0.015077 -0.287538 -0.050000
v 0.021366 -0.287165 -0.050000
v 0.027671 -0.286402 -0.050000
v 0.033990 -0.285250 -0.050000
v 0.040325 -0.283709 -0.050000
v 0.046674 -0.281780 -0.050000
v 0.053038 -0.279462 -0.050000
v 0.059418 -0.276754 -0.050000
v 0.065812 -0.273658 -0.050000
v 0.072221 -0.270173 -0.050000
v 0.078645 -0.266299 -0.050000
v 0.085084 -0.262036 -0.050000
v 0.091538 -0.257385 -0.050000
v 0.094687 -0.254842 -0.050000
v 0.097671 -0.252239 -0.050000
v 0.100490 -0.249577 -0.050000
v 0.103145 -0.246855 -0.050000
v 0.105636 -0.244073 -0.050000
v 0.107962 -0.241231 -0.050000
v 0.110123 -0.238329 -0.050000
v 0.112120 -0.235368 -0.050000
v 0.113952 -0.232346 -0.050000
v 0.115620 -0.229265 -0.050000
v 0.117123 -0.226124 -0.050000
v 0.118462 -0.222923 -0.050000
v 0.119351 -0.220545 -0.050000
v 0.120226 -0.218077 -0.050000
v 0.121087 -0.215519 -0.050000
v 0.121932 -0.212872 -0.050000
v 0.122762 -0.210135 -0.050000
v 0.123577 -0.207308 -0.050000
v 0.124377 -0.204391 -0.050000
v 0.125162 -0.201385 -0.050000
v 0.125933 -0.198288 -0.050000
v 0.126688 -0.195103 -0.050000
v 0.127428 -0.191827 -0.050000
v 0.128154 -0.188462 -0.050000
v 0.130308 -0.174462 -0.050000
v 0.130308 0.023692 -0.050000
v 0.130166 0.028696 -0.050000
v 0.129739 0.033295 -0.050000
v 0.129029 0.037490 -0.050000
v 0.128034 0.041282 -0.050000
v 0.126755 0.044670 -0.050000
v 0.125192 0.047654 -0.050000
v 0.123345 0.050234 -0.050000
v 0.121214 0.052410 -0.050000
v 0.118798 0.054183 -0.050000
v 0.116098 0.055551 -0.050000
v 0.113114 0.056516 -0.050000
v 0.109846 0.057077 -0.050000
v 0.053846 0.063538 -0.050000
v 0.060577 0.065363 -0.050000
v 0.067128 0.067248 -0.050000
v 0.073500 0.069192 -0.050000
v 0.079692 0.071197 -0.050000
v 0.085705 0.073261 -0.050000
v 0.091538 0.075385 -0.050000
v 0.097192 0.077568 -0.050000
v 0.102667 0.079812 -0.050000
v 0.107962 0.082115 -0.050000
v 0.113077 0.084479 -0.050000
v 0.118013 0.086902 -0.050000
v 0.122769 0.089385 -0.050000
v 0.178769 0.119538 -0.050000
v 0.182912 0.114535 -0.050000
v 0.186726 0.109936 -0.050000
v 0.190212 0.105740 -0.050000
v 0.193368 0.101949 -0.050000
v 0.196194 0.098561 -0.050000
v 0.198692 0.095577 -0.050000
v 0.200861 0.092997 -0.050000
v 0.202701 0.090821 -0.050000
v 0.204212 0.089048 -0.050000
v 0.205393 0.087679 -0.050000
v 0.206246 0.086715 -0.050000
v 0.206769 0.086154 -0.050000
v 0.232615 0.061385 -0.050000
v 0.232615 -0.163692 -0.050000
v 0.232298 -0.182774 -0.050000
v 0.231344 -0.201609 -0.050000
v 0.229755 -0.220197 -0.050000
v 0.227530 -0.238538 -0.050000
v 0.224669 -0.256633 -0.050000
v 0.221173 -0.274481 -0.050000
v 0.217041 -0.292082 -0.050000
v 0.212273 -0.309436 -0.050000
v 0.206870 -0.326543 -0.050000
v 0.200831 -0.343404 -0.050000
v 0.194157 -0.360018 -0.050000
v 0.186846 -0.376385 -0.050000
v 0.178930 -0.392310 -0.050000
v 0.170438 -0.407600 -0.050000
v 0.161370 -0.422255 -0.050000
v 0.151726 -0.436273 -0.050000
v 0.141507 -0.449656 -0.050000
v 0.130712 -0.462404 -0.050000
v 0.119340 -0.474515 -0.050000
v 0.107393 -0.485991 -0.050000
v 0.094870 -0.496832 -0.050000
v 0.081771 -0.507036 -0.050000
v 0.068097 -0.516605 -0.050000
v 0.053846 -0.525538 -0.050000
v 0.051692 -0.521231 -0.050000
v 0.056770 -0.512421 -0.050000
v 0.061594 -0.503940 -0.050000
v 0.066163 -0.495788 -0.050000
v 0.070479 -0.487966 -0.050000
v 0.074540 -0.480472 -0.050000
v 0.078346 -0.473308 -0.050000
v 0.081898 -0.466472 -0.050000
v 0.085197 -0.459966 -0.050000
v 0.088240 -0.453788 -0.050000
v 0.091030 -0.447940 -0.050000
v 0.093565 -0.442421 -0.050000
v 0.095846 -0.437231 -0.050000
v 0.097985 -0.431996 -0.050000
v 0.100094 -0.426342 -0.050000
v 0.102173 -0.420269 -0.050000
v 0.104222 -0.413778 -0.050000
v 0.106241 -0.406868 -0.050000
v 0.108231 -0.399538 -0.050000
v 0.110190 -0.391791 -0.050000
v 0.112120 -0.383624 -0.050000
v 0.114019 -0.375038 -0.050000
v 0.115889 -0.366034 -0.050000
v 0.117729 -0.356611 -0.050000
v 0.119538 -0.346769 -0.050000
v 0.120077 -0.343516 -0.050000
v 0.120615 -0.340218 -0.050000
v 0.121154 -0.336875 -0.050000
v 0.121692 -0.333487 -0.050000
v 0.122231 -0.330054 -0.050000
v 0.122769 -0.326577 -0.050000
v 0.123308 -0.323054 -0.050000
v 0.123846 -0.319487 -0.050000
v 0.124385 -0.315875 -0.050000
v 0.124923 -0.312218 -0.050000
v 0.125462 -0.308516 -0.050000
v 0.126000 -0.304769 -0.050000
v -0.018308 -0.304769 -0.050000
v -0.033168 -0.304134 -0.050000
v -0.047594 -0.302226 -0.050000
v -0.061587 -0.299048 -0.050000
v -0.075145 -0.294598 -0.050000
v -0.088270 -0.288877 -0.050000
v -0.100962 -0.281885 -0.050000
v -0.113219 -0.273621 -0.050000
v -0.125043 -0.264085 -0.050000
v -0.136433 -0.253279 -0.050000
v -0.147389 -0.241201 -0.050000
v -0.157911 -0.227852 -0.050000
v -0.168000 -0.213231 -0.050000
v -0.178321 -0.196307 -0.050000
v -0.187744 -0.178560 -0.050000
v -0.196269 -0.159990 -0.050000
v -0.203897 -0.140598 -0.050000
v -0.210628 -0.120384 -0.050000
v -0.216462 -0.099346 -0.050000
v -0.221397 -0.077486 -0.050000
v -0.225436 -0.054803 -0.050000
v -0.228577 -0.031298 -0.050000
v -0.230821 -0.006970 -0.050000
v -0.232167 0.018180 -0.050000
v -0.232615 0.044154 -0.050000
v -0.232219 0.067891 -0.050000
v -0.231030 0.091000 -0.050000
v -0.229048 0.113481 -0.050000
v -0.226274 0.135333 -0.050000
v -0.222706 0.156558 -0.050000
v -0.218346 0.177154 -0.050000
v -0.213193 0.197122 -0.050000
v -0.207248 0.216462 -0.050000
v -0.200510 0.235173 -0.050000
v -0.192979 0.253256 -0.050000
v -0.184655 0.270712 -0.050000
v -0.175538 0.287538 -0.050000
v -0.163879 0.305951 -0.050000
v -0.151517 0.322778 -0.050000
v -0.138452 0.338019 -0.050000
v -0.124684 0.351675 -0.050000
v -0.110213 0.363746 -0.050000
v -0.095038 0.374231 -0.050000
v -0.079161 0.383130 -0.050000
v -0.062581 0.390444 -0.050000
v -0.045298 0.396173 -0.050000
v -0.027312 0.400316 -0.050000
v -0.008623 0.402874 -0.050000
v -0.078615 -0.225077 -0.050000
v -0.078615 0.313385 -0.050000
v -0.078660 0.313295 -0.050000
v -0.078795 0.313026 -0.050000
v -0.079019 0.312577 -0.050000
v -0.079333 0.311949 -0.050000
v -0.079737 0.311141 -0.050000
v -0.080231 0.310154 -0.050000
v -0.080814 0.308987 -0.050000
v -0.081487 0.307641 -0.050000
v -0.082250 0.306115 -0.050000
v -0.083103 0.304410 -0.050000
v -0.084045 0.302526 -0.050000
v -0.085077 0.300462 -0.050000
v -0.091621 0.284203 -0.050000
v -0.097611 0.267017 -0.050000
v -0.103048 0.248904 -0.050000
v -0.107932 0.229863 -0.050000
v -0.112262 0.209895 -0.050000
v -0.116038 0.189000 -0.050000
v -0.119262 0.167177 -0.050000
v -0.121932 0.144427 -0.050000
v -0.124048 0.120750 -0.050000
v -0.125611 0.096145 -0.050000
v -0.126621 0.070613 -0.050000
v -0.127077 0.044154 -0.050000
v -0.126875 0.021710 -0.050000
v -0.126269 -0.000030 -0.050000
v -0.125260 -0.021067 -0.050000
v -0.123846 -0.041402 -0.050000
v -0.122029 -0.061033 -0.050000
v -0.119808 -0.079962 -0.050000
v -0.117183 -0.098187 -0.050000
v -0.114154 -0.115709 -0.050000
v -0.110721 -0.132529 -0.050000
v -0.106885 -0.148645 -0.050000
v -0.102644 -0.164059 -0.050000
v -0.098000 -0.178769 -0.050000
v -0.096549 -0.183204 -0.050000
v -0.095068 -0.187534 -0.050000
v -0.093558 -0.191760 -0.050000
v -0.092017 -0.195880 -0.050000
v -0.090447 -0.199896 -0.050000
v -0.088846 -0.203808 -0.050000
v -0.087216 -0.207614 -0.050000
v -0.085556 -0.211316 -0.050000
v -0.083865 -0.214913 -0.050000
v -0.082145 -0.218406 -0.050000
v -0.080395 -0.221794 -0.050000
v 0.010769 0.403846 0.050000
v 0.183077 0.403846 0.050000
v 0.183077 0.273538 0.050000
v 0.180923 0.287538 0.050000
v 0.180205 0.290575 0.050000
v 0.179487 0.293581 0.050000
v 0.178769 0.296558 0.050000
v 0.178051 0.299504 0.050000
v 0.177333 0.302421 0.050000
v 0.176615 0.305308 0.050000
v 0.175897 0.308165 0.050000
v 0.175179 0.310991 0.050000
v 0.174461 0.313789 0.050000
v 0.173744 0.316556 0.050000
v 0.173026 0.319293 0.050000
v 0.172308 0.322000 0.050000
v 0.170962 0.325208 0.050000
v 0.169436 0.328372 0.050000
v 0.167731 0.331490 0.050000
v 0.165846 0.334564 0.050000
v 0.163782 0.337593 0.050000
v 0.161538 0.340577 0.050000
v 0.159115 0.343516 0.050000
v 0.156513 0.346410 0.050000
v 0.153731 0.349260 0.050000
v 0.150769 0.352064 0.050000
v 0.147628 0.354824 0.050000
v 0.144308 0.357538 0.050000
v 0.137502 0.362018 0.050000
v 0.130009 0.366124 0.050000
v 0.121827 0.369856 0.050000
v 0.112957 0.373214 0.050000
v 0.103400 0.376198 0.050000
v 0.093154 0.378808 0.050000
v 0.082220 0.381044 0.050000
v 0.070598 0.382906 0.050000
v 0.058288 0.384394 0.050000
v 0.045291 0.385509 0.050000
v 0.031605 0.386249 0.050000
v 0.017231 0.386615 0.050000
v 0.010470 0.386361 0.050000
v 0.003829 0.385598 0.050000
v -0.002692 0.384327 0.050000
v -0.009094 0.382547 0.050000
v -0.015376 0.380259 0.050000
v -0.021538 0.377462 0.050000
v -0.027581 0.374156 0.050000
v -0.033504 0.370342 0.050000
v -0.039308 0.366019 0.050000
v -0.044991 0.361188 0.050000
v -0.050556 0.355848 0.050000
v -0.056000 0.350000 0.050000
v -0.056000 -0.256308 0.050000
v -0.050900 -0.261131 0.050000
v -0.045650 -0.265551 0.050000
v -0.040250 -0.269567 0.050000
v -0.034701 -0.273179 0.050000
v -0.029002 -0.276388 0.050000
v -0.023154 -0.279192 0.050000
v -0.017156 -0.281593 0.050000
v -0.011009 -0.283590 0.050000
v -0.004712 -0.285183 0.050000
v 0.001735 -0.286372 0.050000
v 0.008331 -0.287157 0.050000
v 0.015077 -0.287538 0.050000
v 0.021366 -0.287165 0.050000
v 0.027671 -0.286402 0.050000
v 0.033990 -0.285250 0.050000
v 0.040325 -0.283709 0.050000
v 0.046674 -0.281780 0.050000
v 0.053038 -0.279462 0.050000
v 0.059418 -0.276754 0.050000
v 0.065812 -0.273658 0.050000
v 0.072221 -0.270173 0.050000
v 0.078645 -0.266299 0.050000
v 0.085084 -0.262036 0.050000
v 0.091538 -0.257385 0.050000
v 0.094687 -0.254842 0.050000
v 0.097671 -0.252239 0.050000
v 0.100490 -0.249577 0.050000
v 0.103145 -0.246855 0.050000
v 0.105636 -0.244073 0.050000
v 0.107962 -0.241231 0.050000
v 0.110123 -0.238329 0.050000
v 0.112120 -0.235368 0.050000
v 0.113952 -0.232346 0.050000
v 0.115620 -0.229265 0.050000
v 0.117123 -0.226124 0.050000
v 0.118462 -0.222923 0.050000
v 0.119351 -0.220545 0.050000
v 0.120226 -0.218077 0.050000
v 0.121087 -0.215519 0.050000
v 0.121932 -0.212872 0.050000
v 0.122762 -0.210135 0.050000
v 0.123577 -0.207308 0.050000
v 0.124377 -0.204391 0.050000
v 0.125162 -0.201385 0.050000
v 0.125933 -0.198288 0.050000
v 0.126688 -0.195103 0.050000
v 0.127428 -0.191827 0.050000
v 0.128154 -0.188462 0.050000
v 0.130308 -0.174462 0.050000
v 0.130308 0.023692 0.050000
v 0.130166 0.028696 0.050000
v 0.129739 0.033295 0.050000
v 0.129029 0.037490 0.050000
v 0.128034 0.041282 0.050000
v 0.126755 0.044670 0.050000
v 0.125192 0.047654 0.050000
v 0.123345 0.050234 0.050000
v 0.121214 0.052410 0.050000
v 0.118798 0.054183 0.050000
v 0.116098 0.055551 0.050000
v 0.113114 0.056516 0.050000
v 0.109846 0.057077 0.050000
v 0.053846 0.063538 0.050000
v 0.060577 0.065363 0.050000
v 0.067128 0.067248 0.050000
v 0.073500 0.069192 0.050000
v 0.079692 0.071197 0.050000
v 0.085705 0.073261 0.050000
v 0.091538 0.075385 0.050000
v 0.097192 0.077568 0.050000
v 0.102667 0.079812 0.050000
v 0.107962 0.082115 0.050000
v 0.113077 0.084479 0.050000
v 0.118013 0.086902 0.050000
v 0.122769 0.089385 0.050000
v 0.178769 0.119538 0.050000
v 0.182912 0.114535 0.050000
v 0.186726 0.109936 0.050000
v 0.190212 0.105740 0.050000
v 0.193368 0.101949 0.050000
v 0.196194 0.098561 0.050000
v 0.198692 0.095577 0.050000
v 0.200861 0.092997 0.050000
v 0.202701 0.090821 0.050000
v 0.204212 0.089048 0.050000
v 0.205393 0.087679 0.050000
v 0.206246 0.086715 0.050000
v 0.206769 0.086154 0.050000
v 0.232615 0.061385 0.050000
v 0.232615 -0.163692 0.050000
v 0.232298 -0.182774 0.050000
v 0.231344 -0.201609 0.050000
v 0.229755 -0.220197 0.050000
v 0.227530 -0.238538 0.050000
v 0.224669 -0.256633 0.050000
v 0.221173 -0.274481 0.050000
v 0.217041 -0.292082 0.050000
v 0.212273 -0.309436 0.050000
v 0.206870 -0.326543 0.050000
v 0.200831 -0.343404 0.050000
v 0.194157 -0.360018 0.050000
v 0.186846 -0.376385 0.050000
v 0.178930 -0.392310 0.050000
v 0.170438 -0.407600 0.050000
v 0.161370 -0.422255 0.050000
v 0.151726 -0.436273 0.050000
v 0.141507 -0.449656 0.050000
v 0.130712 -0.462404 0.050000
v 0.119340 -0.474515 0.050000
v 0.107393 -0.485991 0.050000
v 0.094870 -0.496832 0.050000
v 0.081771 -0.507036 0.050000
v 0.068097 -0.516605 0.050000
v 0.053846 -0.525538 0.050000
v 0.051692 -0.521231 0.050000
v 0.056770 -0.512421 0.050000
v 0.061594 -0.503940 0.050000
v 0.066163 -0.495788 0.050000
v 0.070479 -0.487966 0.050000
v 0.074540 -0.480472 0.050000
v 0.078346 -0.473308 0.050000
v 0.081898 -0.466472 0.050000
v 0.085197 -0.459966 0.050000
v 0.088240 -0.453788 0.050000
v 0.091030 -0.447940 0.050000
v 0.093565 -0.442421 0.050000
v 0.095846 -0.437231 0.050000
v 0.097985 -0.431996 0.050000
v 0.100094 -0.426342 0.050000
v 0.102173 -0.420269 0.050000
v 0.104222 -0.413778 0.050000
v 0.106241 -0.406868 0.050000
v 0.108231 -0.399538 0.050000
v 0.110190 -0.391791 0.050000
v 0.112120 -0.383624 0.050000
v 0.114019 -0.375038 0.050000
v 0.115889 -0.366034 0.050000
v 0.117729 -0.356611 0.050000
v 0.119538 -0.346769 0.050000
v 0.120077 -0.343516 0.050000
v 0.120615 -0.340218 0.050000
v 0.121154 -0.336875 0.050000
v 0.121692 -0.333487 0.050000
v 0.122231 -0.330054 0.050000
v 0.122769 -0.326577 0.050000
v 0.123308 -0.323054 0.050000
v 0.123846 -0.319487 0.050000
v 0.124385 -0.315875 0.050000
v 0.124923 -0.312218 0.050000
v 0.125462 -0.308516 0.050000
v 0.126000 -0.304769 0.050000
v -0.018308 -0.304769 0.050000
v -0.033168 -0.304134 0.050000
v -0.047594 -0.302226 0.050000
v -0.061587 -0.299048 0.050000
v -0.075145 -0.294598 0.050000
v -0.088270 -0.288877 0.050000
v -0.100962 -0.281885 0.050000
v -0.113219 -0.273621 0.050000
v -0.125043 -0.264085 0.050000
v -0.136433 -0.253279 0.050000
v -0.147389 -0.241201 0.050000
v -0.157911 -0.227852 0.050000
v -0.168000 -0.213231 0.050000
v -0.178321 -0.196307 0.050000
v -0.187744 -0.178560 0.050000
v -0.196269 -0.159990 0.050000
v -0.203897 -0.140598 0.050000
v -0.210628 -0.120384 0.050000
v -0.216462 -0.099346 0.050000
v -0.221397 -0.077486 0.050000
v -0.225436 -0.054803 0.050000
v -0.228577 -0.031298 0.050000
v -0.230821 -0.006970 0.050000
v -0.232167 0.018180 0.050000
v -0.232615 0.044154 0.050000
v -0.232219 0.067891 0.050000
v -0.231030 0.091000 0.050000
v -0.229048 0.113481 0.050000
v -0.226274 0.135333 0.050000
v -0.222706 0.156558 0.050000
v -0.218346 0.177154 0.050000
v -0.213193 0.197122 0.050000
v -0.207248 0.216462 0.050000
v -0.200510 0.235173 0.050000
v -0.192979 0.253256 0.050000
v -0.184655 0.270712 0.050000
v -0.175538 0.287538 0.050000
v -0.163879 0.305951 0.050000
v -0.151517 0.322778 0.050000
v -0.138452 0.338019 0.050000
v -0.124684 0.351675 0.050000
v -0.110213 0.363746 0.050000
v -0.095038 0.374231 0.050000
v -0.079161 0.383130 0.050000
v -0.062581 0.390444 0.050000
v -0.045298 0.396173 0.050000
v -0.027312 0.400316 0.050000
v -0.008623 0.402874 0.050000
v -0.078615 -0.225077 0.050000
v -0.078615 0.313385 0.050000
v -0.078660 0.313295 0.050000
v -0.078795 0.313026 0.050000
v -0.079019 0.312577 0.050000
v -0.079333 0.311949 0.050000
v -0.079737 0.311141 0.050000
v -0.080231 0.310154 0.050000
v -0.080814 0.308987 0.050000
v -0.081487 0.307641 0.050000
v -0.082250 0.306115 0.050000
v -0.083103 0.304410 0.050000
v -0.084045 0.302526 0.050000
v -0.085077 0.300462 0.050000
v -0.091621 0.284203 0.050000
v -0.097611 0.267017 0.050000
v -0.103048 0.248904 0.050000
v -0.107932 0.229863 0.050000
v -0.112262 0.209895 0.050000
v -0.116038 0.189000 0.050000
v -0.119262 0.167177 0.050000
v -0.121932 0.144427 0.050000
v -0.124048 0.120750 0.050000
v -0.125611 0.096145 0.050000
v -0.126621 0.070613 0.050000
v -0.127077 0.044154 0.050000
v -0.126875 0.021710 0.050000
v -0.126269 -0.000030 0.050000
v -0.125260 -0.021067 0.050000
v -0.123846 -0.041402 0.050000
v -0.122029 -0.061033 0.050000
v -0.119808 -0.079962 0.050000
v -0.117183 -0.098187 0.050000
v -0.114154 -0.115709 0.050000
v -0.110721 -0.132529 0.050000
v -0.106885 -0.148645 0.050000
v -0.102644 -0.164059 0.050000
v -0.098000 -0.178769 0.050000
v -0.096549 -0.183204 0.050000
v -0.095068 -0.187534 0.050000
v -0.093558 -0.191760 0.050000
v -0.092017 -0.195880 0.050000
v -0.090447 -0.199896 0.050000
v -0.088846 -0.203808 0.050000
v -0.087216 -0.207614 0.050000
v -0.085556 -0.211316 0.050000
v -0.083865 -0.214913 0.050000
v -0.082145 -0.218406 0.050000
v -0.080395 -0.221794 0.050000
vn -0.0000 -0.0000 -1.0000
vn -0.0000 -0.0000 1.0000
vn -0.8832 -0.4690 -0.0000
vn 0.6919 0.7220 -0.0000
vn -0.8059 0.5921 -0.0000
vn -0.9695 0.2452 -0.0000
vn -0.6876 -0.7261 -0.0000
vn 0.5968 0.8024 -0.0000
vn -0.4194 0.9078 -0.0000
vn -0.5164 0.8563 -0.0000
vn 0.9504 0.3109 -0.0000
vn -0.7155 -0.6986 -0.0000
vn -0.3989 0.9170 -0.0000
vn 0.8944 -0.4472 -0.0000
vn 0.8742 -0.4855 -0.0000
vn 0.9987 -0.0506 -0.0000
vn -1.0000 -0.0000 -0.0000
vn -0.9651 0.2619 -0.0000
vn -0.7436 -0.6686 -0.0000
vn 0.5455 0.8381 -0.0000
vn -0.3792 0.9253 -0.0000
vn -0.4777 0.8785 -0.0000
vn 0.9462 0.3236 -0.0000
vn -0.9599 0.2805 -0.0000
vn -0.7716 -0.6361 -0.0000
vn -0.3603 0.9328 -0.0000
vn 0.9416 0.3367 -0.0000
vn -0.7993 -0.6010 -0.0000
vn 0.4906 0.8714 -0.0000
vn -0.9775 0.2107 -0.0000
vn -0.3421 0.9397 -0.0000
vn 0.8504 -0.5262 -0.0000
vn -0.5590 -0.8292 -0.0000
vn -0.9536 0.3010 -0.0000
vn -0.8264 -0.5631 -0.0000
vn -0.3247 0.9458 -0.0000
vn -0.4358 0.9000 -0.0000
vn 0.9367 0.3502 -0.0000
vn -0.9461 0.3239 -0.0000
vn -0.8525 -0.5227 -0.0000
vn -0.9754 0.2205 -0.0000
vn -0.3079 0.9514 -0.0000
vn -0.8774 -0.4797 -0.0000
vn 0.9735 -0.2285 -0.0000
vn -0.9730 0.2307 -0.0000
vn 0.8239 -0.5668 -0.0000
vn 0.9999 -0.0172 -0.0000
vn -0.9369 0.3495 -0.0000
vn -0.9007 -0.4344 -0.0000
vn 0.4324 0.9017 -0.0000
vn -0.2919 0.9565 -0.0000
vn -0.3907 0.9205 -0.0000
vn 0.9313 0.3642 -0.0000
vn -0.9257 0.3782 -0.0000
vn -0.9221 -0.3869 -0.0000
vn -0.8538 -0.5206 -0.0000
vn -0.9999 0.0167 -0.0000
vn -0.9666 -0.2563 -0.0000
vn 0.3716 0.9284 -0.0000
vn -0.9704 0.2414 -0.0000
vn -0.2765 0.9610 -0.0000
vn 0.7948 -0.6069 -0.0000
vn -0.3423 0.9396 -0.0000
vn -0.9155 0.4023 -0.0000
vn -0.9673 -0.2537 -0.0000
vn -0.2617 0.9652 -0.0000
vn 0.9255 0.3787 -0.0000
vn -0.8449 0.5350 -0.0000
vn -0.9087 0.4174 -0.0000
vn -0.9680 -0.2511 -0.0000
vn 0.3089 0.9511 -0.0000
vn -0.9675 0.2527 -0.0000
vn -0.1146 -0.9934 -0.0000
vn -0.2908 0.9568 -0.0000
vn -0.9026 0.4305 -0.0000
vn -0.9686 -0.2486 -0.0000
vn -0.1692 -0.9856 -0.0000
vn -0.4826 -0.8759 -0.0000
vn 0.9964 -0.0852 -0.0000
vn -0.9692 -0.2461 -0.0000
vn -0.3076 -0.9515 -0.0000
vn 0.7631 -0.6463 -0.0000
vn 0.9192 0.3937 -0.0000
vn -0.8970 0.4420 -0.0000
vn -0.9698 -0.2437 -0.0000
vn 0.2452 0.9695 -0.0000
vn -0.9644 0.2646 -0.0000
vn -0.4521 -0.8919 -0.0000
vn 0.9277 -0.3734 -0.0000
vn -0.2363 0.9717 -0.0000
vn -0.8792 0.4764 -0.0000
vn -0.8920 0.4521 -0.0000
vn -0.9704 -0.2413 -0.0000
vn -0.9608 0.2771 -0.0000
vn -0.5916 -0.8062 -0.0000
vn -0.9710 -0.2390 -0.0000
vn 0.1814 0.9834 -0.0000
vn -0.7144 -0.6997 -0.0000
vn 0.9443 -0.3291 -0.0000
vn 0.7290 -0.6845 -0.0000
vn -0.1793 0.9838 -0.0000
vn 0.9124 0.4092 -0.0000
vn -0.9026 0.4304 -0.0000
vn -0.8873 0.4611 -0.0000
vn -0.9716 -0.2367 -0.0000
vn -0.9570 0.2902 -0.0000
vn -0.8131 -0.5821 -0.0000
vn -0.8831 0.4692 -0.0000
vn -0.9721 -0.2345 -0.0000
vn 0.1182 0.9930 -0.0000
vn -0.8858 -0.4640 -0.0000
vn 0.9578 -0.2875 -0.0000
vn -0.1201 0.9928 -0.0000
vn 0.9051 0.4253 -0.0000
vn -0.9231 0.3845 -0.0000
vn -0.9727 -0.2323 -0.0000
vn -0.9526 0.3041 -0.0000
vn 0.6927 -0.7212 -0.0000
vn 1.0000 -0.0000 -0.0000
vn -0.8792 0.4765 -0.0000
vn -0.9732 -0.2301 -0.0000
vn 0.0565 0.9984 -0.0000
vn -0.8231 -0.5679 -0.0000
vn -0.9356 -0.3532 -0.0000
vn 0.9686 -0.2484 -0.0000
vn -0.0593 0.9982 -0.0000
vn -0.9409 0.3388 -0.0000
vn -0.9884 -0.1521 -0.0000
vn -0.9999 -0.0173 -0.0000
vn 0.6545 -0.7561 -0.0000
vn 0.8971 0.4418 -0.0000
vn -0.8756 0.4830 -0.0000
vn -0.1356 0.9908 -0.0000
vn -0.3996 -0.9167 -0.0000
vn -0.9478 0.3187 -0.0000
vn 0.9773 -0.2119 -0.0000
vn 1.0000 0.0090 -0.0000
vn -0.9559 0.2939 -0.0000
vn -0.8723 0.4890 -0.0000
vn -0.9425 0.3342 -0.0000
vn -0.2004 -0.9797 -0.0000
vn -0.2245 0.9745 -0.0000
vn -0.9860 -0.1670 -0.0000
vn 0.9841 -0.1779 -0.0000
vn 0.6146 -0.7889 -0.0000
vn 0.9643 -0.2649 -0.0000
vn 0.8885 0.4589 -0.0000
vn -0.9683 0.2499 -0.0000
vn -0.8692 0.4944 -0.0000
vn -0.3118 -0.9501 -0.0000
vn -0.9957 -0.0923 -0.0000
vn -0.1200 -0.9928 -0.0000
vn 0.9927 -0.1204 -0.0000
vn -0.2215 -0.9752 -0.0000
vn -0.9366 0.3505 -0.0000
vn -0.9996 -0.0284 -0.0000
vn 0.9893 -0.1461 -0.0000
vn 0.5733 -0.8193 -0.0000
vn -0.1582 -0.9874 -0.0000
vn -0.9783 0.2071 -0.0000
vn -0.8664 0.4994 -0.0000
vn -0.3146 0.9492 -0.0000
vn -0.1311 -0.9914 -0.0000
vn 0.8791 0.4766 -0.0000
vn -0.8944 -0.4472 -0.0000
vn -0.0427 -0.9991 -0.0000
vn -0.9226 0.3858 -0.0000
vn 0.9932 -0.1166 -0.0000
vn 0.5311 -0.8473 -0.0000
vn -0.0540 -0.9985 -0.0000
vn -0.0000 -1.0000 -0.0000
vn 0.9996 0.0279 -0.0000
vn -0.9862 0.1658 -0.0000
vn -0.9898 0.1423 -0.0000
vn -0.9986 -0.0534 -0.0000
vn -0.0854 -0.9963 -0.0000
vn -0.9020 0.4317 -0.0000
vn -0.4036 0.9149 -0.0000
vn -0.9896 0.1439 -0.0000
vn 0.9960 -0.0890 -0.0000
vn -0.7854 -0.6190 -0.0000
vn 0.9989 0.0479 -0.0000
vn -0.9920 0.1260 -0.0000
vn -0.9958 -0.0918 -0.0000
vn -0.0255 -0.9997 -0.0000
vn 0.9536 -0.3012 -0.0000
vn -0.8794 0.4760 -0.0000
vn -0.9893 0.1457 -0.0000
vn 0.9980 -0.0634 -0.0000
vn 0.0376 -0.9993 -0.0000
vn -0.8551 0.5185 -0.0000
vn 0.9976 0.0693 -0.0000
vn -0.4741 0.8805 -0.0000
vn -0.9891 0.1474 -0.0000
vn -0.9912 -0.1325 -0.0000
vn 0.1141 -0.9935 -0.0000
vn -0.8291 0.5590 -0.0000
vn 0.7702 0.6378 -0.0000
vn -0.9888 0.1493 -0.0000
vn 0.1914 -0.9815 -0.0000
vn -0.8020 0.5974 -0.0000
vn 0.9957 0.0922 -0.0000
vn 0.7698 0.6383 -0.0000
vn -0.9885 0.1511 -0.0000
vn -0.9845 -0.1753 -0.0000
vn -0.9961 0.0878 -0.0000
vn 0.2679 -0.9635 -0.0000
vn -0.4890 0.8723 -0.0000
vn 0.9877 -0.1562 -0.0000
vn 0.9414 -0.3372 -0.0000
vn -0.7407 -0.6719 -0.0000
vn 0.9932 0.1165 -0.0000
vn 0.7692 0.6390 -0.0000
vn -0.9882 0.1530 -0.0000
vn -0.9754 -0.2203 -0.0000
vn 0.3423 -0.9396 -0.0000
vn -0.7739 0.6334 -0.0000
vn 0.7686 0.6397 -0.0000
vn -0.9879 0.1550 -0.0000
vn 0.4133 -0.9106 -0.0000
vn -0.7451 0.6670 -0.0000
vn 0.9898 0.1426 -0.0000
vn 0.7678 0.6407 -0.0000
vn -0.9876 0.1570 -0.0000
vn 0.4799 -0.8773 -0.0000
vn -0.7159 0.6982 -0.0000
vn 0.9854 0.1703 -0.0000
vn 0.7668 0.6419 -0.0000
vn -0.5685 0.8227 -0.0000
vn -0.9873 0.1590 -0.0000
vn -0.9636 -0.2672 -0.0000
vn -0.0501 0.9987 -0.0000
vn -0.6866 0.7271 -0.0000
vn 0.9992 -0.0395 -0.0000
vn -0.9869 0.1611 -0.0000
vn 0.5414 -0.8408 -0.0000
vn -0.0000 1.0000 -0.0000
vn -0.6573 0.7536 -0.0000
vn 0.9798 0.2000 -0.0000
vn 0.7655 0.6434 -0.0000
vn -0.9488 -0.3159 -0.0000
vn 0.5974 -0.8020 -0.0000
vn 0.9279 -0.3728 -0.0000
vn -0.6883 -0.7254 -0.0000
vn 0.7637 0.6456 -0.0000
vn -0.9866 0.1633 -0.0000
vn -0.2469 -0.9691 -0.0000
vn -0.9987 0.0514 -0.0000
vn 0.6476 -0.7619 -0.0000
vn -0.6283 0.7780 -0.0000
vn 0.9728 0.2316 -0.0000
vn -0.6405 0.7679 -0.0000
vn -0.9835 0.1809 -0.0000
vn -0.2980 -0.9546 -0.0000
vn -0.9306 -0.3661 -0.0000
vn 0.7611 0.6487 -0.0000
vn -0.9815 0.1916 -0.0000
vn -0.3541 -0.9352 -0.0000
vn 0.6871 0.7265 -0.0000
vn -0.4628 0.8865 -0.0000
vn 0.6924 -0.7215 -0.0000
vn 0.9642 0.2653 -0.0000
vn -0.4150 -0.9098 -0.0000
vn 0.9813 -0.1922 -0.0000
vn -0.9088 -0.4172 -0.0000
vn 0.7319 -0.6814 -0.0000
vn 0.9131 -0.4078 -0.0000
vn -0.5847 0.8113 -0.0000
vn 0.7569 0.6535 -0.0000
vn -0.7042 0.7100 -0.0000
vn -0.9791 0.2033 -0.0000
vn -0.4805 -0.8770 -0.0000
vn 0.9999 -0.0167 -0.0000
vn 0.7493 0.6622 -0.0000
vn -0.9764 0.2160 -0.0000
vn -0.5498 -0.8353 -0.0000
vn 0.6440 0.7650 -0.0000
vn -0.4407 0.8977 -0.0000
vn -0.5520 0.8338 -0.0000
vn 0.9536 0.3011 -0.0000
vn -0.6329 -0.7742 -0.0000
vn -0.9884 0.1521 -0.0000
vn 0.8955 -0.4451 -0.0000
vn -0.6278 -0.7784 -0.0000
vn 0.7310 0.6824 -0.0000
vn -0.7592 0.6508 -0.0000
vn -0.9732 0.2299 -0.0000
vn -0.6600 -0.7512 -0.0000
vn -0.9651 0.2620 -0.0000
vn 0.8944 -0.4473 -0.0000
vn -0.9692 -0.2462 -0.0000
vn -0.4522 -0.8919 -0.0000
vn -0.8793 0.4764 -0.0000
vn -0.9704 -0.2414 -0.0000
vn -0.9609 0.2771 -0.0000
vn -0.9726 -0.2323 -0.0000
vn -0.7739 0.6333 -0.0000
vn 0.7655 0.6435 -0.0000
vn 0.7310 0.6823 -0.0000
vt 0.113333 0.000000
vt 0.003333 0.000000
vt 0.110000 0.000000
vt 0.840000 0.000000
vt 0.706667 0.000000
vt 1.000000 0.000000
vt 0.106667 0.000000
vt 0.103333 0.000000
vt 0.100000 0.000000
vt 0.096667 0.000000
vt 0.093333 0.000000
vt 0.090000 0.000000
vt 0.086667 0.000000
vt 0.083333 0.000000
vt 0.080000 0.000000
vt 0.076667 0.000000
vt 0.073333 0.000000
vt 0.070000 0.000000
vt 0.066667 0.000000
vt 0.063333 0.000000
vt 0.060000 0.000000
vt 0.056667 0.000000
vt 0.053333 0.000000
vt 0.050000 0.000000
vt 0.046667 0.000000
vt 0.043333 0.000000
vt 0.040000 0.000000
vt 0.036667 0.000000
vt 0.033333 0.000000
vt 0.030000 0.000000
vt 0.026667 0.000000
vt 0.023333 0.000000
vt 0.020000 0.000000
vt 0.016667 0.000000
vt 0.013333 0.000000
vt 0.010000 0.000000
vt 0.006667 0.000000
vt 0.120000 0.000000
vt 0.000000 0.000000
vt 0.116667 0.000000
vt 0.123333 0.000000
vt 0.466667 0.000000
vt 0.353333 0.000000
vt 0.463333 0.000000
vt 0.126667 0.000000
vt 0.910000 0.000000
vt 0.780000 0.000000
vt 0.906667 0.000000
vt 0.510000 0.000000
vt 0.653333 0.000000
vt 0.506667 0.000000
vt 0.833333 0.000000
vt 0.836667 0.000000
vt 0.146667 0.000000
vt 0.356667 0.000000
vt 0.446667 0.000000
vt 0.450000 0.000000
vt 0.143333 0.000000
vt 0.140000 0.000000
vt 0.736667 0.000000
vt 0.946667 0.000000
vt 0.950000 0.000000
vt 0.136667 0.000000
vt 0.133333 0.000000
vt 0.150000 0.000000
vt 0.153333 0.000000
vt 0.156667 0.000000
vt 0.830000 0.000000
vt 0.130000 0.000000
vt 0.823333 0.000000
vt 0.170000 0.000000
vt 0.820000 0.000000
vt 0.160000 0.000000
vt 0.826667 0.000000
vt 0.816667 0.000000
vt 0.543333 0.000000
vt 0.576667 0.000000
vt 0.540000 0.000000
vt 0.163333 0.000000
vt 0.843333 0.000000
vt 0.813333 0.000000
vt 0.350000 0.000000
vt 0.166667 0.000000
vt 0.866667 0.000000
vt 0.810000 0.000000
vt 0.173333 0.000000
vt 0.453333 0.000000
vt 0.806667 0.000000
vt 0.886667 0.000000
vt 0.803333 0.000000
vt 0.193333 0.000000
vt 0.680000 0.000000
vt 0.683333 0.000000
vt 0.846667 0.000000
vt 0.850000 0.000000
vt 0.853333 0.000000
vt 0.856667 0.000000
vt 0.860000 0.000000
vt 0.863333 0.000000
vt 0.870000 0.000000
vt 0.873333 0.000000
vt 0.876667 0.000000
vt 0.890000 0.000000
vt 0.800000 0.000000
vt 0.880000 0.000000
vt 0.883333 0.000000
vt 0.796667 0.000000
vt 0.893333 0.000000
vt 0.493333 0.000000
vt 0.676667 0.000000
vt 0.283333 0.000000
vt 0.793333 0.000000
vt 0.896667 0.000000
vt 0.733333 0.000000
vt 0.953333 0.000000
vt 0.790000 0.000000
vt 0.900000 0.000000
vt 0.536667 0.000000
vt 0.590000 0.000000
vt 0.533333 0.000000
vt 0.786667 0.000000
vt 0.713333 0.000000
vt 0.983333 0.000000
vt 0.986667 0.000000
vt 0.783333 0.000000
vt 0.903333 0.000000
vt 0.280000 0.000000
vt 0.276667 0.000000
vt 0.776667 0.000000
vt 0.990000 0.000000
vt 0.710000 0.000000
vt 0.773333 0.000000
vt 0.913333 0.000000
vt 0.770000 0.000000
vt 0.916667 0.000000
vt 0.423333 0.000000
vt 0.426667 0.000000
vt 0.430000 0.000000
vt 0.433333 0.000000
vt 0.766667 0.000000
vt 0.436667 0.000000
vt 0.440000 0.000000
vt 0.443333 0.000000
vt 0.363333 0.000000
vt 0.360000 0.000000
vt 0.920000 0.000000
vt 0.420000 0.000000
vt 0.373333 0.000000
vt 0.416667 0.000000
vt 0.553333 0.000000
vt 0.560000 0.000000
vt 0.550000 0.000000
vt 0.763333 0.000000
vt 0.666667 0.000000
vt 0.503333 0.000000
vt 0.286667 0.000000
vt 0.490000 0.000000
vt 0.486667 0.000000
vt 0.313333 0.000000
vt 0.483333 0.000000
vt 0.380000 0.000000
vt 0.413333 0.000000
vt 0.376667 0.000000
vt 0.410000 0.000000
vt 0.406667 0.000000
vt 0.403333 0.000000
vt 0.400000 0.000000
vt 0.396667 0.000000
vt 0.393333 0.000000
vt 0.923333 0.000000
vt 0.390000 0.000000
vt 0.760000 0.000000
vt 0.386667 0.000000
vt 0.383333 0.000000
vt 0.530000 0.000000
vt 0.606667 0.000000
vt 0.526667 0.000000
vt 0.370000 0.000000
vt 0.366667 0.000000
vt 0.720000 0.000000
vt 0.970000 0.000000
vt 0.716667 0.000000
vt 0.456667 0.000000
vt 0.460000 0.000000
vt 0.346667 0.000000
vt 0.966667 0.000000
vt 0.980000 0.000000
vt 0.756667 0.000000
vt 0.926667 0.000000
vt 0.326667 0.000000
vt 0.480000 0.000000
vt 0.470000 0.000000
vt 0.343333 0.000000
vt 0.340000 0.000000
vt 0.973333 0.000000
vt 0.976667 0.000000
vt 0.473333 0.000000
vt 0.336667 0.000000
vt 0.930000 0.000000
vt 0.753333 0.000000
vt 0.933333 0.000000
vt 0.750000 0.000000
vt 0.936667 0.000000
vt 0.746667 0.000000
vt 0.940000 0.000000
vt 0.743333 0.000000
vt 0.943333 0.000000
vt 0.740000 0.000000
vt 0.206667 0.000000
vt 0.203333 0.000000
vt 0.723333 0.000000
vt 0.960000 0.000000
vt 0.963333 0.000000
vt 0.730000 0.000000
vt 0.956667 0.000000
vt 0.726667 0.000000
vt 0.476667 0.000000
vt 0.333333 0.000000
vt 0.690000 0.000000
vt 0.176667 0.000000
vt 0.180000 0.000000
vt 0.330000 0.000000
vt 0.323333 0.000000
vt 0.600000 0.000000
vt 0.513333 0.000000
vt 0.636667 0.000000
vt 0.320000 0.000000
vt 0.613333 0.000000
vt 0.523333 0.000000
vt 0.316667 0.000000
vt 0.310000 0.000000
vt 0.686667 0.000000
vt 0.183333 0.000000
vt 0.186667 0.000000
vt 0.306667 0.000000
vt 0.303333 0.000000
vt 0.220000 0.000000
vt 0.300000 0.000000
vt 0.296667 0.000000
vt 0.293333 0.000000
vt 0.583333 0.000000
vt 0.290000 0.000000
vt 0.273333 0.000000
vt 0.200000 0.000000
vt 0.196667 0.000000
vt 0.270000 0.000000
vt 0.266667 0.000000
vt 0.263333 0.000000
vt 0.260000 0.000000
vt 0.256667 0.000000
vt 0.703333 0.000000
vt 0.253333 0.000000
vt 0.620000 0.000000
vt 0.520000 0.000000
vt 0.250000 0.000000
vt 0.700000 0.000000
vt 0.246667 0.000000
vt 0.996667 0.000000
vt 0.696667 0.000000
vt 0.243333 0.000000
vt 0.240000 0.000000
vt 0.693333 0.000000
vt 0.236667 0.000000
vt 0.216667 0.000000
vt 0.213333 0.000000
vt 0.516667 0.000000
vt 0.630000 0.000000
vt 0.233333 0.000000
vt 0.230000 0.000000
vt 0.226667 0.000000
vt 0.190000 0.000000
vt 0.223333 0.000000
vt 0.210000 0.000000
vt 0.496667 0.000000
vt 0.500000 0.000000
vt 0.673333 0.000000
vt 0.670000 0.000000
vt 0.663333 0.000000
vt 0.660000 0.000000
vt 0.656667 0.000000
vt 0.650000 0.000000
vt 0.646667 0.000000
vt 0.643333 0.000000
vt 0.640000 0.000000
vt 0.993333 0.000000
vt 0.633333 0.000000
vt 0.626667 0.000000
vt 0.623333 0.000000
vt 0.616667 0.000000
vt 0.610000 0.000000
vt 0.603333 0.000000
vt 0.596667 0.000000
vt 0.593333 0.000000
vt 0.586667 0.000000
vt 0.546667 0.000000
vt 0.570000 0.000000
vt 0.580000 0.000000
vt 0.573333 0.000000
vt 0.566667 0.000000
vt 0.563333 0.000000
vt 0.556667 0.000000
s 0
f 35/1/1 2/2/1 34/3/1
f 253/4/1 213/5/1 301/6/1
f 34/3/1 2/2/1 33/7/1
f 33/7/1 2/2/1 32/8/1
f 32/8/1 2/2/1 31/9/1
f 31/9/1 2/2/1 30/10/1
f 30/10/1 2/2/1 29/11/1
f 29/11/1 2/2/1 28/12/1
f 28/12/1 2/2/1 27/13/1
f 27/13/1 2/2/1 26/14/1
f 26/14/1 2/2/1 25/15/1
f 25/15/1 2/2/1 24/16/1
f 24/16/1 2/2/1 23/17/1
f 23/17/1 2/2/1 22/18/1
f 22/18/1 2/2/1 21/19/1
f 21/19/1 2/2/1 20/20/1
f 20/20/1 2/2/1 19/21/1
f 19/21/1 2/2/1 18/22/1
f 18/22/1 2/2/1 17/23/1
f 17/23/1 2/2/1 16/24/1
f 16/24/1 2/2/1 15/25/1
f 15/25/1 2/2/1 14/26/1
f 14/26/1 2/2/1 13/27/1
f 13/27/1 2/2/1 12/28/1
f 12/28/1 2/2/1 11/29/1
f 11/29/1 2/2/1 10/30/1
f 10/30/1 2/2/1 9/31/1
f 9/31/1 2/2/1 8/32/1
f 8/32/1 2/2/1 7/33/1
f 7/33/1 2/2/1 6/34/1
f 6/34/1 2/2/1 5/35/1
f 5/35/1 2/2/1 4/36/1
f 4/36/1 2/2/1 3/37/1
f 37/38/1 1/39/1 36/40/1
f 38/41/1 1/39/1 37/38/1
f 141/42/1 107/43/1 140/44/1
f 39/45/1 1/39/1 38/41/1
f 274/46/1 235/47/1 273/48/1
f 154/49/1 197/50/1 153/51/1
f 251/52/1 252/53/1 45/54/1
f 108/55/1 135/56/1 136/57/1
f 44/58/1 252/53/1 43/59/1
f 222/60/1 285/61/1 286/62/1
f 43/59/1 252/53/1 42/63/1
f 42/63/1 1/39/1 41/64/1
f 46/65/1 47/66/1 251/52/1
f 48/67/1 250/68/1 47/66/1
f 40/69/1 1/39/1 39/45/1
f 248/70/1 52/71/1 247/72/1
f 250/68/1 49/73/1 249/74/1
f 46/65/1 251/52/1 45/54/1
f 247/72/1 52/71/1 246/75/1
f 164/76/1 174/77/1 163/78/1
f 48/67/1 49/73/1 250/68/1
f 49/73/1 50/79/1 249/74/1
f 246/75/1 254/80/1 245/81/1
f 141/42/1 106/82/1 107/43/1
f 51/83/1 52/71/1 248/70/1
f 245/81/1 261/84/1 244/85/1
f 1/39/1 2/2/1 36/40/1
f 254/80/1 52/71/1 53/86/1
f 108/55/1 136/57/1 137/87/1
f 243/88/1 267/89/1 242/90/1
f 59/91/1 205/92/1 206/93/1
f 253/4/1 254/80/1 53/86/1
f 255/94/1 256/95/1 245/81/1
f 256/95/1 257/96/1 245/81/1
f 257/96/1 258/97/1 245/81/1
f 258/97/1 259/98/1 245/81/1
f 259/98/1 260/99/1 245/81/1
f 260/99/1 261/84/1 245/81/1
f 261/84/1 262/100/1 244/85/1
f 262/100/1 263/101/1 244/85/1
f 263/101/1 264/102/1 244/85/1
f 249/74/1 51/83/1 248/70/1
f 242/90/1 268/103/1 241/104/1
f 265/105/1 266/106/1 244/85/1
f 266/106/1 267/89/1 243/88/1
f 240/107/1 241/104/1 269/108/1
f 149/109/1 204/110/1 86/111/1
f 239/112/1 240/107/1 270/113/1
f 221/114/1 286/62/1 287/115/1
f 238/116/1 239/112/1 271/117/1
f 162/118/1 178/119/1 161/120/1
f 237/121/1 238/116/1 271/117/1
f 215/122/1 296/123/1 297/124/1
f 236/125/1 237/121/1 272/126/1
f 252/53/1 1/39/1 42/63/1
f 235/47/1 236/125/1 273/48/1
f 85/127/1 204/110/1 84/128/1
f 234/129/1 235/47/1 274/46/1
f 215/122/1 298/130/1 214/131/1
f 233/132/1 234/129/1 274/46/1
f 233/132/1 274/46/1 275/133/1
f 232/134/1 233/132/1 275/133/1
f 232/134/1 275/133/1 276/135/1
f 128/136/1 129/137/1 130/138/1
f 128/136/1 130/138/1 131/139/1
f 231/140/1 232/134/1 276/135/1
f 128/136/1 131/139/1 132/141/1
f 128/136/1 132/141/1 133/142/1
f 128/136/1 133/142/1 134/143/1
f 110/144/1 128/136/1 109/145/1
f 231/140/1 276/135/1 277/146/1
f 127/147/1 113/148/1 126/149/1
f 167/150/1 169/151/1 166/152/1
f 230/153/1 231/140/1 277/146/1
f 153/51/1 201/154/1 152/155/1
f 109/145/1 128/136/1 134/143/1
f 109/145/1 135/56/1 108/55/1
f 109/145/1 134/143/1 135/56/1
f 149/109/1 87/156/1 148/157/1
f 147/158/1 95/159/1 146/160/1
f 255/94/1 245/81/1 254/80/1
f 115/161/1 125/162/1 114/163/1
f 124/164/1 125/162/1 115/161/1
f 123/165/1 124/164/1 115/161/1
f 122/166/1 123/165/1 115/161/1
f 121/167/1 122/166/1 115/161/1
f 120/168/1 121/167/1 115/161/1
f 119/169/1 120/168/1 115/161/1
f 230/153/1 277/146/1 278/170/1
f 118/171/1 119/169/1 115/161/1
f 229/172/1 230/153/1 278/170/1
f 117/173/1 118/171/1 115/161/1
f 116/174/1 117/173/1 115/161/1
f 160/175/1 183/176/1 159/177/1
f 112/178/1 113/148/1 127/147/1
f 111/179/1 112/178/1 128/136/1
f 110/144/1 111/179/1 128/136/1
f 217/180/1 292/181/1 216/182/1
f 215/122/1 297/124/1 298/130/1
f 107/43/1 138/183/1 139/184/1
f 141/42/1 105/185/1 106/82/1
f 217/180/1 291/186/1 292/181/1
f 215/122/1 295/187/1 296/123/1
f 228/188/1 229/172/1 279/189/1
f 146/160/1 99/190/1 145/191/1
f 142/192/1 104/193/1 105/185/1
f 142/192/1 103/194/1 104/193/1
f 216/182/1 293/195/1 294/196/1
f 143/197/1 103/194/1 142/192/1
f 102/198/1 103/194/1 143/197/1
f 228/188/1 279/189/1 280/199/1
f 227/200/1 228/188/1 280/199/1
f 227/200/1 280/199/1 281/201/1
f 226/202/1 227/200/1 281/201/1
f 226/202/1 281/201/1 282/203/1
f 225/204/1 226/202/1 282/203/1
f 225/204/1 282/203/1 283/205/1
f 224/206/1 225/204/1 283/205/1
f 224/206/1 283/205/1 284/207/1
f 223/208/1 224/206/1 284/207/1
f 223/208/1 284/207/1 285/61/1
f 223/208/1 285/61/1 222/60/1
f 63/209/1 205/92/1 62/210/1
f 222/60/1 286/62/1 221/114/1
f 218/211/1 289/212/1 290/213/1
f 221/114/1 287/115/1 220/214/1
f 272/126/1 237/121/1 271/117/1
f 220/214/1 288/215/1 219/216/1
f 220/214/1 287/115/1 288/215/1
f 102/198/1 143/197/1 144/217/1
f 219/216/1 289/212/1 218/211/1
f 101/218/1 102/198/1 144/217/1
f 219/216/1 288/215/1 289/212/1
f 218/211/1 290/213/1 217/180/1
f 101/218/1 144/217/1 145/191/1
f 208/219/1 54/220/1 55/221/1
f 107/43/1 139/184/1 140/44/1
f 100/222/1 101/218/1 145/191/1
f 301/6/1 213/5/1 214/131/1
f 99/190/1 100/222/1 145/191/1
f 98/223/1 99/190/1 146/160/1
f 161/120/1 181/224/1 160/175/1
f 155/225/1 192/226/1 154/49/1
f 97/227/1 98/223/1 146/160/1
f 159/177/1 185/228/1 158/229/1
f 96/230/1 97/227/1 146/160/1
f 279/189/1 229/172/1 278/170/1
f 36/40/1 2/2/1 35/1/1
f 95/159/1 96/230/1 146/160/1
f 94/231/1 95/159/1 147/158/1
f 207/232/1 56/233/1 57/234/1
f 93/235/1 94/231/1 147/158/1
f 251/52/1 47/66/1 250/68/1
f 92/236/1 93/235/1 147/158/1
f 205/92/1 67/237/1 204/110/1
f 271/117/1 239/112/1 270/113/1
f 91/238/1 92/236/1 147/158/1
f 90/239/1 91/238/1 147/158/1
f 264/102/1 265/105/1 244/85/1
f 114/163/1 125/162/1 126/149/1
f 89/240/1 90/239/1 148/157/1
f 163/78/1 176/241/1 162/118/1
f 88/242/1 89/240/1 148/157/1
f 244/85/1 266/106/1 243/88/1
f 87/156/1 88/242/1 148/157/1
f 108/55/1 138/183/1 107/43/1
f 86/111/1 87/156/1 149/109/1
f 216/182/1 292/181/1 293/195/1
f 108/55/1 137/87/1 138/183/1
f 84/128/1 204/110/1 83/243/1
f 216/182/1 294/196/1 295/187/1
f 61/244/1 205/92/1 60/245/1
f 82/246/1 83/243/1 204/110/1
f 81/247/1 82/246/1 204/110/1
f 80/248/1 81/247/1 204/110/1
f 79/249/1 80/248/1 204/110/1
f 78/250/1 79/249/1 204/110/1
f 213/5/1 253/4/1 212/251/1
f 77/252/1 78/250/1 204/110/1
f 336/1/2 335/3/2 303/2/2
f 158/229/1 187/253/1 157/254/1
f 76/255/1 77/252/1 204/110/1
f 212/251/1 253/4/1 211/256/1
f 75/257/1 76/255/1 204/110/1
f 214/131/1 300/258/1 301/6/1
f 211/256/1 53/86/1 210/259/1
f 74/260/1 75/257/1 204/110/1
f 211/256/1 253/4/1 53/86/1
f 73/261/1 74/260/1 204/110/1
f 210/259/1 53/86/1 209/262/1
f 216/182/1 295/187/1 215/122/1
f 72/263/1 73/261/1 204/110/1
f 66/264/1 205/92/1 65/265/1
f 156/266/1 190/267/1 155/225/1
f 71/268/1 72/263/1 204/110/1
f 128/136/1 112/178/1 127/147/1
f 70/269/1 71/268/1 204/110/1
f 208/219/1 56/233/1 207/232/1
f 69/270/1 70/269/1 204/110/1
f 209/262/1 54/220/1 208/219/1
f 59/91/1 206/93/1 58/271/1
f 68/272/1 69/270/1 204/110/1
f 148/157/1 90/239/1 147/158/1
f 67/237/1 68/272/1 204/110/1
f 208/219/1 55/221/1 56/233/1
f 66/264/1 67/237/1 205/92/1
f 58/271/1 207/232/1 57/234/1
f 58/271/1 206/93/1 207/232/1
f 60/245/1 205/92/1 59/91/1
f 64/273/1 205/92/1 63/209/1
f 204/110/1 149/109/1 150/274/1
f 204/110/1 150/274/1 151/275/1
f 62/210/1 205/92/1 61/244/1
f 65/265/1 205/92/1 64/273/1
f 209/262/1 53/86/1 54/220/1
f 41/64/1 1/39/1 40/69/1
f 203/276/1 204/110/1 152/155/1
f 202/277/1 203/276/1 152/155/1
f 152/155/1 204/110/1 151/275/1
f 201/154/1 202/277/1 152/155/1
f 200/278/1 201/154/1 153/51/1
f 199/279/1 200/278/1 153/51/1
f 198/280/1 199/279/1 153/51/1
f 86/111/1 204/110/1 85/127/1
f 197/50/1 198/280/1 153/51/1
f 196/281/1 197/50/1 154/49/1
f 195/282/1 196/281/1 154/49/1
f 194/283/1 195/282/1 154/49/1
f 193/284/1 194/283/1 154/49/1
f 214/131/1 299/285/1 300/258/1
f 192/226/1 193/284/1 154/49/1
f 191/286/1 192/226/1 155/225/1
f 190/267/1 191/286/1 155/225/1
f 273/48/1 236/125/1 272/126/1
f 189/287/1 190/267/1 156/266/1
f 188/288/1 189/287/1 157/254/1
f 269/108/1 241/104/1 268/103/1
f 187/253/1 188/288/1 157/254/1
f 186/289/1 187/253/1 158/229/1
f 214/131/1 298/130/1 299/285/1
f 185/228/1 186/289/1 158/229/1
f 184/290/1 185/228/1 159/177/1
f 217/180/1 290/213/1 291/186/1
f 183/176/1 184/290/1 159/177/1
f 182/291/1 183/176/1 160/175/1
f 270/113/1 240/107/1 269/108/1
f 181/224/1 182/291/1 160/175/1
f 180/292/1 181/224/1 161/120/1
f 45/54/1 252/53/1 44/58/1
f 179/293/1 180/292/1 161/120/1
f 178/119/1 179/293/1 161/120/1
f 177/294/1 178/119/1 162/118/1
f 165/295/1 172/296/1 164/76/1
f 176/241/1 177/294/1 162/118/1
f 175/297/1 176/241/1 163/78/1
f 50/79/1 51/83/1 249/74/1
f 174/77/1 175/297/1 163/78/1
f 173/298/1 174/77/1 164/76/1
f 267/89/1 268/103/1 242/90/1
f 172/296/1 173/298/1 164/76/1
f 114/163/1 126/149/1 113/148/1
f 171/299/1 172/296/1 165/295/1
f 170/300/1 171/299/1 165/295/1
f 166/152/1 170/300/1 165/295/1
f 169/151/1 170/300/1 166/152/1
f 142/192/1 105/185/1 141/42/1
f 168/301/1 169/151/1 167/150/1
f 157/254/1 189/287/1 156/266/1
f 52/71/1 254/80/1 246/75/1
f 554/4/2 602/6/2 514/5/2
f 335/3/2 334/7/2 303/2/2
f 334/7/2 333/8/2 303/2/2
f 333/8/2 332/9/2 303/2/2
f 332/9/2 331/10/2 303/2/2
f 331/10/2 330/11/2 303/2/2
f 330/11/2 329/12/2 303/2/2
f 329/12/2 328/13/2 303/2/2
f 328/13/2 327/14/2 303/2/2
f 327/14/2 326/15/2 303/2/2
f 326/15/2 325/16/2 303/2/2
f 325/16/2 324/17/2 303/2/2
f 324/17/2 323/18/2 303/2/2
f 323/18/2 322/19/2 303/2/2
f 322/19/2 321/20/2 303/2/2
f 321/20/2 320/21/2 303/2/2
f 320/21/2 319/22/2 303/2/2
f 319/22/2 318/23/2 303/2/2
f 318/23/2 317/24/2 303/2/2
f 317/24/2 316/25/2 303/2/2
f 316/25/2 315/26/2 303/2/2
f 315/26/2 314/27/2 303/2/2
f 314/27/2 313/28/2 303/2/2
f 313/28/2 312/29/2 303/2/2
f 312/29/2 311/30/2 303/2/2
f 311/30/2 310/31/2 303/2/2
f 310/31/2 309/32/2 303/2/2
f 309/32/2 308/33/2 303/2/2
f 308/33/2 307/34/2 303/2/2
f 307/34/2 306/35/2 303/2/2
f 306/35/2 305/36/2 303/2/2
f 305/36/2 304/37/2 303/2/2
f 338/38/2 337/40/2 302/39/2
f 339/41/2 338/38/2 302/39/2
f 442/42/2 441/44/2 408/43/2
f 340/45/2 339/41/2 302/39/2
f 575/46/2 574/48/2 536/47/2
f 455/49/2 454/51/2 498/50/2
f 552/52/2 346/54/2 553/53/2
f 409/55/2 437/57/2 436/56/2
f 345/58/2 344/59/2 553/53/2
f 523/60/2 587/62/2 586/61/2
f 344/59/2 343/63/2 553/53/2
f 343/63/2 342/64/2 302/39/2
f 347/65/2 552/52/2 348/66/2
f 349/67/2 348/66/2 551/68/2
f 341/69/2 340/45/2 302/39/2
f 549/70/2 548/72/2 353/71/2
f 551/68/2 550/74/2 350/73/2
f 347/65/2 346/54/2 552/52/2
f 548/72/2 547/75/2 353/71/2
f 465/76/2 464/78/2 475/77/2
f 349/67/2 551/68/2 350/73/2
f 350/73/2 550/74/2 351/79/2
f 547/75/2 546/81/2 555/80/2
f 442/42/2 408/43/2 407/82/2
f 352/83/2 549/70/2 353/71/2
f 546/81/2 545/85/2 562/84/2
f 302/39/2 337/40/2 303/2/2
f 555/80/2 354/86/2 353/71/2
f 409/55/2 438/87/2 437/57/2
f 544/88/2 543/90/2 568/89/2
f 360/91/2 507/93/2 506/92/2
f 554/4/2 354/86/2 555/80/2
f 556/94/2 546/81/2 557/95/2
f 557/95/2 546/81/2 558/96/2
f 558/96/2 546/81/2 559/97/2
f 559/97/2 546/81/2 560/98/2
f 560/98/2 546/81/2 561/99/2
f 561/99/2 546/81/2 562/84/2
f 562/84/2 545/85/2 563/100/2
f 563/100/2 545/85/2 564/101/2
f 564/101/2 545/85/2 565/102/2
f 550/74/2 549/70/2 352/83/2
f 543/90/2 542/104/2 569/103/2
f 566/105/2 545/85/2 567/106/2
f 567/106/2 544/88/2 568/89/2
f 541/107/2 570/108/2 542/104/2
f 450/109/2 387/111/2 505/110/2
f 540/112/2 571/113/2 541/107/2
f 522/114/2 588/115/2 587/62/2
f 539/116/2 572/117/2 540/112/2
f 463/118/2 462/120/2 479/119/2
f 538/121/2 572/117/2 539/116/2
f 516/122/2 598/124/2 597/123/2
f 537/125/2 573/126/2 538/121/2
f 553/53/2 343/63/2 302/39/2
f 536/47/2 574/48/2 537/125/2
f 386/127/2 385/128/2 505/110/2
f 535/129/2 575/46/2 536/47/2
f 516/122/2 515/131/2 599/130/2
f 534/132/2 575/46/2 535/129/2
f 534/132/2 576/133/2 575/46/2
f 533/134/2 576/133/2 534/132/2
f 533/134/2 577/135/2 576/133/2
f 429/136/2 431/138/2 430/137/2
f 429/136/2 432/139/2 431/138/2
f 532/140/2 577/135/2 533/134/2
f 429/136/2 433/141/2 432/139/2
f 429/136/2 434/142/2 433/141/2
f 429/136/2 435/143/2 434/142/2
f 411/144/2 410/145/2 429/136/2
f 532/140/2 578/146/2 577/135/2
f 428/147/2 427/149/2 414/148/2
f 468/150/2 467/152/2 470/151/2
f 531/153/2 578/146/2 532/140/2
f 454/51/2 453/155/2 502/154/2
f 410/145/2 435/143/2 429/136/2
f 410/145/2 409/55/2 436/56/2
f 410/145/2 436/56/2 435/143/2
f 450/109/2 449/157/2 388/156/2
f 448/158/2 447/160/2 396/159/2
f 556/94/2 555/80/2 546/81/2
f 416/161/2 415/163/2 426/162/2
f 425/164/2 416/161/2 426/162/2
f 424/165/2 416/161/2 425/164/2
f 423/166/2 416/161/2 424/165/2
f 422/167/2 416/161/2 423/166/2
f 421/168/2 416/161/2 422/167/2
f 420/169/2 416/161/2 421/168/2
f 531/153/2 579/170/2 578/146/2
f 419/171/2 416/161/2 420/169/2
f 530/172/2 579/170/2 531/153/2
f 418/173/2 416/161/2 419/171/2
f 417/174/2 416/161/2 418/173/2
f 461/175/2 460/177/2 484/176/2
f 413/178/2 428/147/2 414/148/2
f 412/179/2 429/136/2 413/178/2
f 411/144/2 429/136/2 412/179/2
f 518/180/2 517/182/2 593/181/2
f 516/122/2 599/130/2 598/124/2
f 408/43/2 440/184/2 439/183/2
f 442/42/2 407/82/2 406/185/2
f 518/180/2 593/181/2 592/186/2
f 516/122/2 597/123/2 596/187/2
f 529/188/2 580/189/2 530/172/2
f 447/160/2 446/191/2 400/190/2
f 443/192/2 406/185/2 405/193/2
f 443/192/2 405/193/2 404/194/2
f 517/182/2 595/196/2 594/195/2
f 444/197/2 443/192/2 404/194/2
f 403/198/2 444/197/2 404/194/2
f 529/188/2 581/199/2 580/189/2
f 528/200/2 581/199/2 529/188/2
f 528/200/2 582/201/2 581/199/2
f 527/202/2 582/201/2 528/200/2
f 527/202/2 583/203/2 582/201/2
f 526/204/2 583/203/2 527/202/2
f 526/204/2 584/205/2 583/203/2
f 525/206/2 584/205/2 526/204/2
f 525/206/2 585/207/2 584/205/2
f 524/208/2 585/207/2 525/206/2
f 524/208/2 586/61/2 585/207/2
f 524/208/2 523/60/2 586/61/2
f 364/209/2 363/210/2 506/92/2
f 523/60/2 522/114/2 587/62/2
f 519/211/2 591/213/2 590/212/2
f 522/114/2 521/214/2 588/115/2
f 573/126/2 572/117/2 538/121/2
f 521/214/2 520/216/2 589/215/2
f 521/214/2 589/215/2 588/115/2
f 403/198/2 445/217/2 444/197/2
f 520/216/2 519/211/2 590/212/2
f 402/218/2 445/217/2 403/198/2
f 520/216/2 590/212/2 589/215/2
f 519/211/2 518/180/2 591/213/2
f 402/218/2 446/191/2 445/217/2
f 509/219/2 356/221/2 355/220/2
f 408/43/2 441/44/2 440/184/2
f 401/222/2 446/191/2 402/218/2
f 602/6/2 515/131/2 514/5/2
f 400/190/2 446/191/2 401/222/2
f 399/223/2 447/160/2 400/190/2
f 462/120/2 461/175/2 482/224/2
f 456/225/2 455/49/2 493/226/2
f 398/227/2 447/160/2 399/223/2
f 460/177/2 459/229/2 486/228/2
f 397/230/2 447/160/2 398/227/2
f 580/189/2 579/170/2 530/172/2
f 337/40/2 336/1/2 303/2/2
f 396/159/2 447/160/2 397/230/2
f 395/231/2 448/158/2 396/159/2
f 508/232/2 358/234/2 357/233/2
f 394/235/2 448/158/2 395/231/2
f 552/52/2 551/68/2 348/66/2
f 393/236/2 448/158/2 394/235/2
f 506/92/2 505/110/2 368/237/2
f 572/117/2 571/113/2 540/112/2
f 392/238/2 448/158/2 393/236/2
f 391/239/2 448/158/2 392/238/2
f 565/102/2 545/85/2 566/105/2
f 415/163/2 427/149/2 426/162/2
f 390/240/2 449/157/2 391/239/2
f 464/78/2 463/118/2 477/241/2
f 389/242/2 449/157/2 390/240/2
f 545/85/2 544/88/2 567/106/2
f 388/156/2 449/157/2 389/242/2
f 409/55/2 408/43/2 439/183/2
f 387/111/2 450/109/2 388/156/2
f 517/182/2 594/195/2 593/181/2
f 409/55/2 439/183/2 438/87/2
f 385/128/2 384/243/2 505/110/2
f 517/182/2 596/187/2 595/196/2
f 362/244/2 361/245/2 506/92/2
f 383/246/2 505/110/2 384/243/2
f 382/247/2 505/110/2 383/246/2
f 381/248/2 505/110/2 382/247/2
f 380/249/2 505/110/2 381/248/2
f 379/250/2 505/110/2 380/249/2
f 514/5/2 513/251/2 554/4/2
f 378/252/2 505/110/2 379/250/2
f 459/229/2 458/254/2 488/253/2
f 377/255/2 505/110/2 378/252/2
f 513/251/2 512/256/2 554/4/2
f 376/257/2 505/110/2 377/255/2
f 515/131/2 602/6/2 601/258/2
f 512/256/2 511/259/2 354/86/2
f 375/260/2 505/110/2 376/257/2
f 512/256/2 354/86/2 554/4/2
f 374/261/2 505/110/2 375/260/2
f 511/259/2 510/262/2 354/86/2
f 517/182/2 516/122/2 596/187/2
f 373/263/2 505/110/2 374/261/2
f 367/264/2 366/265/2 506/92/2
f 457/266/2 456/225/2 491/267/2
f 372/268/2 505/110/2 373/263/2
f 429/136/2 428/147/2 413/178/2
f 371/269/2 505/110/2 372/268/2
f 509/219/2 508/232/2 357/233/2
f 370/270/2 505/110/2 371/269/2
f 510/262/2 509/219/2 355/220/2
f 360/91/2 359/271/2 507/93/2
f 369/272/2 505/110/2 370/270/2
f 449/157/2 448/158/2 391/239/2
f 368/237/2 505/110/2 369/272/2
f 509/219/2 357/233/2 356/221/2
f 367/264/2 506/92/2 368/237/2
f 359/271/2 358/234/2 508/232/2
f 359/271/2 508/232/2 507/93/2
f 361/245/2 360/91/2 506/92/2
f 365/273/2 364/209/2 506/92/2
f 505/110/2 451/274/2 450/109/2
f 505/110/2 452/275/2 451/274/2
f 363/210/2 362/244/2 506/92/2
f 366/265/2 365/273/2 506/92/2
f 510/262/2 355/220/2 354/86/2
f 342/64/2 341/69/2 302/39/2
f 504/276/2 453/155/2 505/110/2
f 503/277/2 453/155/2 504/276/2
f 453/155/2 452/275/2 505/110/2
f 502/154/2 453/155/2 503/277/2
f 501/278/2 454/51/2 502/154/2
f 500/279/2 454/51/2 501/278/2
f 499/280/2 454/51/2 500/279/2
f 387/111/2 386/127/2 505/110/2
f 498/50/2 454/51/2 499/280/2
f 497/281/2 455/49/2 498/50/2
f 496/282/2 455/49/2 497/281/2
f 495/283/2 455/49/2 496/282/2
f 494/284/2 455/49/2 495/283/2
f 515/131/2 601/258/2 600/285/2
f 493/226/2 455/49/2 494/284/2
f 492/286/2 456/225/2 493/226/2
f 491/267/2 456/225/2 492/286/2
f 574/48/2 573/126/2 537/125/2
f 490/287/2 457/266/2 491/267/2
f 489/288/2 458/254/2 490/287/2
f 570/108/2 569/103/2 542/104/2
f 488/253/2 458/254/2 489/288/2
f 487/289/2 459/229/2 488/253/2
f 515/131/2 600/285/2 599/130/2
f 486/228/2 459/229/2 487/289/2
f 485/290/2 460/177/2 486/228/2
f 518/180/2 592/186/2 591/213/2
f 484/176/2 460/177/2 485/290/2
f 483/291/2 461/175/2 484/176/2
f 571/113/2 570/108/2 541/107/2
f 482/224/2 461/175/2 483/291/2
f 481/292/2 462/120/2 482/224/2
f 346/54/2 345/58/2 553/53/2
f 480/293/2 462/120/2 481/292/2
f 479/119/2 462/120/2 480/293/2
f 478/294/2 463/118/2 479/119/2
f 466/295/2 465/76/2 473/296/2
f 477/241/2 463/118/2 478/294/2
f 476/297/2 464/78/2 477/241/2
f 351/79/2 550/74/2 352/83/2
f 475/77/2 464/78/2 476/297/2
f 474/298/2 465/76/2 475/77/2
f 568/89/2 543/90/2 569/103/2
f 473/296/2 465/76/2 474/298/2
f 415/163/2 414/148/2 427/149/2
f 472/299/2 466/295/2 473/296/2
f 471/300/2 466/295/2 472/299/2
f 467/152/2 466/295/2 471/300/2
f 470/151/2 467/152/2 471/300/2
f 443/192/2 442/42/2 406/185/2
f 469/301/2 468/150/2 470/151/2
f 458/254/2 457/266/2 490/287/2
f 353/71/2 547/75/2 555/80/2
f 218/211/3 520/216/3 219/216/3
f 141/42/4 443/192/4 142/192/4
f 242/90/5 544/88/5 243/88/5
f 186/289/6 488/253/6 187/253/6
f 25/15/7 327/14/7 26/14/7
f 55/221/8 357/233/8 56/233/8
f 125/162/9 427/149/9 126/149/9
f 74/260/10 376/257/10 75/257/10
f 290/213/11 592/186/11 291/186/11
f 24/16/12 326/15/12 25/15/12
f 124/164/13 426/162/13 125/162/13
f 254/80/14 556/94/14 255/94/14
f 156/266/15 458/254/15 157/254/15
f 144/217/16 446/191/16 145/191/16
f 253/4/17 555/80/17 254/80/17
f 185/228/18 487/289/18 186/289/18
f 23/17/19 325/16/19 24/16/19
f 56/233/20 358/234/20 57/234/20
f 123/165/21 425/164/21 124/164/21
f 73/261/22 375/260/22 74/260/22
f 291/186/23 593/181/23 292/181/23
f 184/290/24 486/228/24 185/228/24
f 22/18/25 324/17/25 23/17/25
f 122/166/26 424/165/26 123/165/26
f 255/94/14 557/95/14 256/95/14
f 292/181/27 594/195/27 293/195/27
f 21/19/28 323/18/28 22/18/28
f 57/234/29 359/271/29 58/271/29
f 100/222/30 402/218/30 101/218/30
f 121/167/31 423/166/31 122/166/31
f 256/95/14 558/96/14 257/96/14
f 157/254/32 459/229/32 158/229/32
f 211/256/33 513/251/33 212/251/33
f 183/176/34 485/290/34 184/290/34
f 20/20/35 322/19/35 21/19/35
f 120/168/36 422/167/36 121/167/36
f 257/96/14 559/97/14 258/97/14
f 72/263/37 374/261/37 73/261/37
f 293/195/38 595/196/38 294/196/38
f 182/291/39 484/176/39 183/176/39
f 19/21/40 321/20/40 20/20/40
f 99/190/41 401/222/41 100/222/41
f 119/169/42 421/168/42 120/168/42
f 258/97/14 560/98/14 259/98/14
f 18/22/43 320/21/43 19/21/43
f 149/109/44 451/274/44 150/274/44
f 98/223/45 400/190/45 99/190/45
f 259/98/14 561/99/14 260/99/14
f 158/229/46 460/177/46 159/177/46
f 277/146/47 579/170/47 278/170/47
f 181/224/48 483/291/48 182/291/48
f 17/23/49 319/22/49 18/22/49
f 58/271/50 360/91/50 59/91/50
f 118/171/51 420/169/51 119/169/51
f 260/99/14 562/84/14 261/84/14
f 71/268/52 373/263/52 72/263/52
f 294/196/53 596/187/53 295/187/53
f 180/292/54 482/224/54 181/224/54
f 16/24/55 318/23/55 17/23/55
f 217/180/56 519/211/56 218/211/56
f 229/172/57 531/153/57 230/153/57
f 261/84/14 563/100/14 262/100/14
f 15/25/58 317/24/58 16/24/58
f 59/91/59 361/245/59 60/245/59
f 97/227/60 399/223/60 98/223/60
f 117/173/61 419/171/61 118/171/61
f 262/100/14 564/101/14 263/101/14
f 159/177/62 461/175/62 160/175/62
f 70/269/63 372/268/63 71/268/63
f 179/293/64 481/292/64 180/292/64
f 14/26/65 316/25/65 15/25/65
f 116/174/66 418/173/66 117/173/66
f 263/101/14 565/102/14 264/102/14
f 295/187/67 597/123/67 296/123/67
f 241/104/68 543/90/68 242/90/68
f 178/119/69 480/293/69 179/293/69
f 13/27/70 315/26/70 14/26/70
f 60/245/71 362/244/71 61/244/71
f 96/230/72 398/227/72 97/227/72
f 115/161/73 417/174/73 116/174/73
f 69/270/74 371/269/74 70/269/74
f 177/294/75 479/119/75 178/119/75
f 12/28/76 314/27/76 13/27/76
f 114/163/77 416/161/77 115/161/77
f 264/102/14 566/105/14 265/105/14
f 210/259/78 512/256/78 211/256/78
f 145/191/79 447/160/79 146/160/79
f 11/29/80 313/28/80 12/28/80
f 113/148/81 415/163/81 114/163/81
f 265/105/14 567/106/14 266/106/14
f 160/175/82 462/120/82 161/120/82
f 296/123/83 598/124/83 297/124/83
f 176/241/84 478/294/84 177/294/84
f 10/30/85 312/29/85 11/29/85
f 61/244/86 363/210/86 62/210/86
f 95/159/87 397/230/87 96/230/87
f 112/178/88 414/148/88 113/148/88
f 266/106/89 568/89/89 267/89/89
f 68/272/90 370/270/90 69/270/90
f 240/107/91 542/104/91 241/104/91
f 175/297/92 477/241/92 176/241/92
f 9/31/93 311/30/93 10/30/93
f 94/231/94 396/159/94 95/159/94
f 111/179/95 413/178/95 112/178/95
f 8/32/96 310/31/96 9/31/96
f 62/210/97 364/209/97 63/209/97
f 110/144/98 412/179/98 111/179/98
f 267/89/99 569/103/99 268/103/99
f 161/120/100 463/118/100 162/118/100
f 67/237/101 369/272/101 68/272/101
f 297/124/102 599/130/102 298/130/102
f 239/112/103 541/107/103 240/107/103
f 174/77/104 476/297/104 175/297/104
f 7/33/105 309/32/105 8/32/105
f 93/235/106 395/231/106 94/231/106
f 109/145/107 411/144/107 110/144/107
f 173/298/108 475/77/108 174/77/108
f 6/34/109 308/33/109 7/33/109
f 63/209/110 365/273/110 64/273/110
f 108/55/111 410/145/111 109/145/111
f 268/103/112 570/108/112 269/108/112
f 66/264/113 368/237/113 67/237/113
f 298/130/114 600/285/114 299/285/114
f 238/116/115 540/112/115 239/112/115
f 5/35/116 307/34/116 6/34/116
f 92/236/117 394/235/117 93/235/117
f 162/118/118 464/78/118 163/78/118
f 142/192/119 444/197/119 143/197/119
f 172/296/120 474/298/120 173/298/120
f 4/36/121 306/35/121 5/35/121
f 64/273/122 366/265/122 65/265/122
f 216/182/123 518/180/123 217/180/123
f 107/43/124 409/55/124 108/55/124
f 269/108/125 571/113/125 270/113/125
f 65/265/126 367/264/126 66/264/126
f 237/121/127 539/116/127 238/116/127
f 3/37/128 305/36/128 4/36/128
f 228/188/129 530/172/129 229/172/129
f 163/78/130 465/76/130 164/76/130
f 2/2/119 304/37/119 3/37/119
f 299/285/131 601/258/131 300/258/131
f 171/299/132 473/296/132 172/296/132
f 251/52/133 553/53/133 252/53/133
f 209/262/134 511/259/134 210/259/134
f 91/238/135 393/236/135 92/236/135
f 270/113/136 572/117/136 271/117/136
f 278/170/137 580/189/137 279/189/137
f 236/125/138 538/121/138 237/121/138
f 170/300/139 472/299/139 171/299/139
f 90/239/140 392/238/140 91/238/140
f 106/82/65 408/43/65 107/43/65
f 34/3/141 336/1/141 35/1/141
f 250/68/142 552/52/142 251/52/142
f 105/185/143 407/82/143 106/82/143
f 271/117/144 573/126/144 272/126/144
f 164/76/145 466/295/145 165/295/145
f 150/274/146 452/275/146 151/275/146
f 300/258/147 602/6/147 301/6/147
f 235/47/148 537/125/148 236/125/148
f 169/151/149 471/300/149 170/300/149
f 208/219/150 510/262/150 209/262/150
f 104/193/151 406/185/151 105/185/151
f 36/40/152 338/38/152 37/38/152
f 146/160/153 448/158/153 147/158/153
f 207/232/154 509/219/154 208/219/154
f 89/240/155 391/239/155 90/239/155
f 103/194/156 405/193/156 104/193/156
f 272/126/157 574/48/157 273/48/157
f 165/295/158 467/152/158 166/152/158
f 35/1/159 337/40/159 36/40/159
f 234/129/160 536/47/160 235/47/160
f 168/301/161 470/151/161 169/151/161
f 249/74/162 551/68/162 250/68/162
f 206/93/163 508/232/163 207/232/163
f 102/198/17 404/194/17 103/194/17
f 301/6/164 554/4/164 253/4/164
f 167/150/165 469/301/165 168/301/165
f 205/92/166 507/93/166 206/93/166
f 88/242/167 390/240/167 89/240/167
f 273/48/168 575/46/168 274/46/168
f 166/152/169 468/150/169 167/150/169
f 38/41/170 340/45/170 39/45/170
f 204/110/171 506/92/171 205/92/171
f 279/189/172 581/199/172 280/199/172
f 233/132/173 535/129/173 234/129/173
f 203/276/174 505/110/174 204/110/174
f 227/200/175 529/188/175 228/188/175
f 37/38/176 339/41/176 38/41/176
f 87/156/177 389/242/177 88/242/177
f 248/70/178 550/74/178 249/74/178
f 202/277/179 504/276/179 203/276/179
f 274/46/180 576/133/180 275/133/180
f 215/122/181 517/182/181 216/182/181
f 280/199/182 582/201/182 281/201/182
f 232/134/183 534/132/183 233/132/183
f 226/202/184 528/200/184 227/200/184
f 39/45/185 341/69/185 40/69/185
f 151/275/186 453/155/186 152/155/186
f 86/111/187 388/156/187 87/156/187
f 201/154/188 503/277/188 202/277/188
f 275/133/189 577/135/189 276/135/189
f 40/69/190 342/64/190 41/64/190
f 85/127/191 387/111/191 86/111/191
f 281/201/192 583/203/192 282/203/192
f 128/136/193 430/137/193 129/137/193
f 200/278/194 502/154/194 201/154/194
f 225/204/195 527/202/195 226/202/195
f 41/64/196 343/63/196 42/63/196
f 84/128/197 386/127/197 85/127/197
f 129/137/198 431/138/198 130/138/198
f 199/279/199 501/278/199 200/278/199
f 42/63/200 344/59/200 43/59/200
f 83/243/201 385/128/201 84/128/201
f 282/203/202 584/205/202 283/205/202
f 130/138/203 432/139/203 131/139/203
f 198/280/204 500/279/204 199/279/204
f 224/206/205 526/204/205 225/204/205
f 231/140/206 533/134/206 232/134/206
f 43/59/207 345/58/207 44/58/207
f 247/72/208 549/70/208 248/70/208
f 147/158/209 449/157/209 148/157/209
f 152/155/210 454/51/210 153/51/210
f 214/131/211 516/122/211 215/122/211
f 283/205/212 585/207/212 284/207/212
f 131/139/213 433/141/213 132/141/213
f 197/50/214 499/280/214 198/280/214
f 223/208/215 525/206/215 224/206/215
f 44/58/216 346/54/216 45/54/216
f 82/246/217 384/243/217 83/243/217
f 132/141/218 434/142/218 133/142/218
f 196/281/219 498/50/219 197/50/219
f 45/54/220 347/65/220 46/65/220
f 81/247/221 383/246/221 82/246/221
f 284/207/222 586/61/222 285/61/222
f 133/142/223 435/143/223 134/143/223
f 195/282/224 497/281/224 196/281/224
f 46/65/225 348/66/225 47/66/225
f 80/248/226 382/247/226 81/247/226
f 285/61/227 587/62/227 286/62/227
f 134/143/228 436/56/228 135/56/228
f 246/75/229 548/72/229 247/72/229
f 194/283/230 496/282/230 195/282/230
f 222/60/231 524/208/231 223/208/231
f 252/53/232 302/39/232 1/39/232
f 79/249/233 381/248/233 80/248/233
f 276/135/234 578/146/234 277/146/234
f 193/284/235 495/283/235 194/283/235
f 47/66/236 349/67/236 48/67/236
f 1/39/237 303/2/237 2/2/237
f 78/250/238 380/249/238 79/249/238
f 286/62/239 588/115/239 287/115/239
f 135/56/240 437/57/240 136/57/240
f 221/114/241 523/60/241 222/60/241
f 48/67/242 350/73/242 49/73/242
f 153/51/243 455/49/243 154/49/243
f 213/5/244 515/131/244 214/131/244
f 136/57/245 438/87/245 137/87/245
f 192/226/246 494/284/246 193/284/246
f 33/7/247 335/3/247 34/3/247
f 230/153/248 532/140/248 231/140/248
f 49/73/249 351/79/249 50/79/249
f 77/252/250 379/250/250 78/250/250
f 287/115/251 589/215/251 288/215/251
f 245/81/252 547/75/252 246/75/252
f 191/286/253 493/226/253 192/226/253
f 32/8/254 334/7/254 33/7/254
f 220/214/255 522/114/255 221/114/255
f 137/87/256 439/183/256 138/183/256
f 190/267/257 492/286/257 191/286/257
f 31/9/258 333/8/258 32/8/258
f 53/86/259 355/220/259 54/220/259
f 127/147/260 429/136/260 128/136/260
f 50/79/261 352/83/261 51/83/261
f 288/215/262 590/212/262 289/212/262
f 30/10/263 332/9/263 31/9/263
f 148/157/264 450/109/264 149/109/264
f 219/216/265 521/214/265 220/214/265
f 51/83/266 353/71/266 52/71/266
f 154/49/267 456/225/267 155/225/267
f 76/255/268 378/252/268 77/252/268
f 138/183/269 440/184/269 139/184/269
f 244/85/270 546/81/270 245/81/270
f 189/287/271 491/267/271 190/267/271
f 29/11/272 331/10/272 30/10/272
f 143/197/273 445/217/273 144/217/273
f 139/184/274 441/44/274 140/44/274
f 188/288/275 490/287/275 189/287/275
f 28/12/276 330/11/276 29/11/276
f 54/220/277 356/221/277 55/221/277
f 126/149/278 428/147/278 127/147/278
f 75/257/279 377/255/279 76/255/279
f 289/212/280 591/213/280 290/213/280
f 27/13/281 329/12/281 28/12/281
f 101/218/282 403/198/282 102/198/282
f 52/71/119 354/86/119 53/86/119
f 155/225/283 457/266/283 156/266/283
f 212/251/284 514/5/284 213/5/284
f 140/44/285 442/42/285 141/42/285
f 243/88/286 545/85/286 244/85/286
f 187/253/287 489/288/287 188/288/287
f 26/14/288 328/13/288 27/13/288
f 218/211/3 519/211/3 520/216/3
f 141/42/4 442/42/4 443/192/4
f 242/90/5 543/90/5 544/88/5
f 186/289/6 487/289/6 488/253/6
f 25/15/7 326/15/7 327/14/7
f 55/221/8 356/221/8 357/233/8
f 125/162/9 426/162/9 427/149/9
f 74/260/10 375/260/10 376/257/10
f 290/213/11 591/213/11 592/186/11
f 24/16/12 325/16/12 326/15/12
f 124/164/13 425/164/13 426/162/13
f 254/80/14 555/80/14 556/94/14
f 156/266/15 457/266/15 458/254/15
f 144/217/16 445/217/16 446/191/16
f 253/4/17 554/4/17 555/80/17
f 185/228/289 486/228/289 487/289/289
f 23/17/19 324/17/19 325/16/19
f 56/233/20 357/233/20 358/234/20
f 123/165/21 424/165/21 425/164/21
f 73/261/22 374/261/22 375/260/22
f 291/186/23 592/186/23 593/181/23
f 184/290/24 485/290/24 486/228/24
f 22/18/25 323/18/25 324/17/25
f 122/166/26 423/166/26 424/165/26
f 255/94/290 556/94/290 557/95/290
f 292/181/27 593/181/27 594/195/27
f 21/19/28 322/19/28 323/18/28
f 57/234/29 358/234/29 359/271/29
f 100/222/30 401/222/30 402/218/30
f 121/167/31 422/167/31 423/166/31
f 256/95/14 557/95/14 558/96/14
f 157/254/32 458/254/32 459/229/32
f 211/256/33 512/256/33 513/251/33
f 183/176/34 484/176/34 485/290/34
f 20/20/35 321/20/35 322/19/35
f 120/168/36 421/168/36 422/167/36
f 257/96/14 558/96/14 559/97/14
f 72/263/37 373/263/37 374/261/37
f 293/195/38 594/195/38 595/196/38
f 182/291/39 483/291/39 484/176/39
f 19/21/40 320/21/40 321/20/40
f 99/190/41 400/190/41 401/222/41
f 119/169/42 420/169/42 421/168/42
f 258/97/14 559/97/14 560/98/14
f 18/22/43 319/22/43 320/21/43
f 149/109/44 450/109/44 451/274/44
f 98/223/45 399/223/45 400/190/45
f 259/98/14 560/98/14 561/99/14
f 158/229/46 459/229/46 460/177/46
f 277/146/47 578/146/47 579/170/47
f 181/224/48 482/224/48 483/291/48
f 17/23/49 318/23/49 319/22/49
f 58/271/50 359/271/50 360/91/50
f 118/171/51 419/171/51 420/169/51
f 260/99/14 561/99/14 562/84/14
f 71/268/52 372/268/52 373/263/52
f 294/196/53 595/196/53 596/187/53
f 180/292/54 481/292/54 482/224/54
f 16/24/55 317/24/55 318/23/55
f 217/180/56 518/180/56 519/211/56
f 229/172/57 530/172/57 531/153/57
f 261/84/14 562/84/14 563/100/14
f 15/25/58 316/25/58 317/24/58
f 59/91/59 360/91/59 361/245/59
f 97/227/60 398/227/60 399/223/60
f 117/173/61 418/173/61 419/171/61
f 262/100/14 563/100/14 564/101/14
f 159/177/62 460/177/62 461/175/62
f 70/269/63 371/269/63 372/268/63
f 179/293/64 480/293/64 481/292/64
f 14/26/65 315/26/65 316/25/65
f 116/174/66 417/174/66 418/173/66
f 263/101/14 564/101/14 565/102/14
f 295/187/67 596/187/67 597/123/67
f 241/104/68 542/104/68 543/90/68
f 178/119/69 479/119/69 480/293/69
f 13/27/70 314/27/70 315/26/70
f 60/245/71 361/245/71 362/244/71
f 96/230/72 397/230/72 398/227/72
f 115/161/73 416/161/73 417/174/73
f 69/270/74 370/270/74 371/269/74
f 177/294/75 478/294/75 479/119/75
f 12/28/76 313/28/76 314/27/76
f 114/163/77 415/163/77 416/161/77
f 264/102/14 565/102/14 566/105/14
f 210/259/78 511/259/78 512/256/78
f 145/191/79 446/191/79 447/160/79
f 11/29/291 312/29/291 313/28/291
f 113/148/81 414/148/81 415/163/81
f 265/105/14 566/105/14 567/106/14
f 160/175/82 461/175/82 462/120/82
f 296/123/83 597/123/83 598/124/83
f 176/241/84 477/241/84 478/294/84
f 10/30/85 311/30/85 312/29/85
f 61/244/86 362/244/86 363/210/86
f 95/159/87 396/159/87 397/230/87
f 112/178/292 413/178/292 414/148/292
f 266/106/89 567/106/89 568/89/89
f 68/272/90 369/272/90 370/270/90
f 240/107/293 541/107/293 542/104/293
f 175/297/92 476/297/92 477/241/92
f 9/31/294 310/31/294 311/30/294
f 94/231/295 395/231/295 396/159/295
f 111/179/95 412/179/95 413/178/95
f 8/32/96 309/32/96 310/31/96
f 62/210/97 363/210/97 364/209/97
f 110/144/98 411/144/98 412/179/98
f 267/89/99 568/89/99 569/103/99
f 161/120/100 462/120/100 463/118/100
f 67/237/101 368/237/101 369/272/101
f 297/124/102 598/124/102 599/130/102
f 239/112/103 540/112/103 541/107/103
f 174/77/104 475/77/104 476/297/104
f 7/33/105 308/33/105 309/32/105
f 93/235/106 394/235/106 395/231/106
f 109/145/107 410/145/107 411/144/107
f 173/298/108 474/298/108 475/77/108
f 6/34/109 307/34/109 308/33/109
f 63/209/110 364/209/110 365/273/110
f 108/55/111 409/55/111 410/145/111
f 268/103/112 569/103/112 570/108/112
f 66/264/113 367/264/113 368/237/113
f 298/130/114 599/130/114 600/285/114
f 238/116/115 539/116/115 540/112/115
f 5/35/296 306/35/296 307/34/296
f 92/236/117 393/236/117 394/235/117
f 162/118/118 463/118/118 464/78/118
f 142/192/119 443/192/119 444/197/119
f 172/296/120 473/296/120 474/298/120
f 4/36/121 305/36/121 306/35/121
f 64/273/122 365/273/122 366/265/122
f 216/182/123 517/182/123 518/180/123
f 107/43/124 408/43/124 409/55/124
f 269/108/125 570/108/125 571/113/125
f 65/265/126 366/265/126 367/264/126
f 237/121/127 538/121/127 539/116/127
f 3/37/128 304/37/128 305/36/128
f 228/188/129 529/188/129 530/172/129
f 163/78/130 464/78/130 465/76/130
f 2/2/119 303/2/119 304/37/119
f 299/285/131 600/285/131 601/258/131
f 171/299/132 472/299/132 473/296/132
f 251/52/133 552/52/133 553/53/133
f 209/262/134 510/262/134 511/259/134
f 91/238/135 392/238/135 393/236/135
f 270/113/136 571/113/136 572/117/136
f 278/170/137 579/170/137 580/189/137
f 236/125/138 537/125/138 538/121/138
f 170/300/139 471/300/139 472/299/139
f 90/239/140 391/239/140 392/238/140
f 106/82/65 407/82/65 408/43/65
f 34/3/141 335/3/141 336/1/141
f 250/68/142 551/68/142 552/52/142
f 105/185/143 406/185/143 407/82/143
f 271/117/144 572/117/144 573/126/144
f 164/76/145 465/76/145 466/295/145
f 150/274/146 451/274/146 452/275/146
f 300/258/147 601/258/147 602/6/147
f 235/47/148 536/47/148 537/125/148
f 169/151/149 470/151/149 471/300/149
f 208/219/150 509/219/150 510/262/150
f 104/193/151 405/193/151 406/185/151
f 36/40/152 337/40/152 338/38/152
f 146/160/153 447/160/153 448/158/153
f 207/232/154 508/232/154 509/219/154
f 89/240/155 390/240/155 391/239/155
f 103/194/156 404/194/156 405/193/156
f 272/126/157 573/126/157 574/48/157
f 165/295/158 466/295/158 467/152/158
f 35/1/159 336/1/159 337/40/159
f 234/129/160 535/129/160 536/47/160
f 168/301/161 469/301/161 470/151/161
f 249/74/162 550/74/162 551/68/162
f 206/93/163 507/93/163 508/232/163
f 102/198/17 403/198/17 404/194/17
f 301/6/164 602/6/164 554/4/164
f 167/150/165 468/150/165 469/301/165
f 205/92/166 506/92/166 507/93/166
f 88/242/167 389/242/167 390/240/167
f 273/48/168 574/48/168 575/46/168
f 166/152/169 467/152/169 468/150/169
f 38/41/170 339/41/170 340/45/170
f 204/110/171 505/110/171 506/92/171
f 279/189/172 580/189/172 581/199/172
f 233/132/173 534/132/173 535/129/173
f 203/276/174 504/276/174 505/110/174
f 227/200/175 528/200/175 529/188/175
f 37/38/176 338/38/176 339/41/176
f 87/156/177 388/156/177 389/242/177
f 248/70/178 549/70/178 550/74/178
f 202/277/179 503/277/179 504/276/179
f 274/46/180 575/46/180 576/133/180
f 215/122/181 516/122/181 517/182/181
f 280/199/182 581/199/182 582/201/182
f 232/134/183 533/134/183 534/132/183
f 226/202/184 527/202/184 528/200/184
f 39/45/185 340/45/185 341/69/185
f 151/275/186 452/275/186 453/155/186
f 86/111/187 387/111/187 388/156/187
f 201/154/188 502/154/188 503/277/188
f 275/133/189 576/133/189 577/135/189
f 40/69/190 341/69/190 342/64/190
f 85/127/191 386/127/191 387/111/191
f 281/201/192 582/201/192 583/203/192
f 128/136/193 429/136/193 430/137/193
f 200/278/194 501/278/194 502/154/194
f 225/204/195 526/204/195 527/202/195
f 41/64/196 342/64/196 343/63/196
f 84/128/197 385/128/197 386/127/197
f 129/137/198 430/137/198 431/138/198
f 199/279/199 500/279/199 501/278/199
f 42/63/200 343/63/200 344/59/200
f 83/243/201 384/243/201 385/128/201
f 282/203/202 583/203/202 584/205/202
f 130/138/203 431/138/203 432/139/203
f 198/280/204 499/280/204 500/279/204
f 224/206/205 525/206/205 526/204/205
f 231/140/206 532/140/206 533/134/206
f 43/59/207 344/59/207 345/58/207
f 247/72/208 548/72/208 549/70/208
f 147/158/209 448/158/209 449/157/209
f 152/155/210 453/155/210 454/51/210
f 214/131/211 515/131/211 516/122/211
f 283/205/212 584/205/212 585/207/212
f 131/139/213 432/139/213 433/141/213
f 197/50/214 498/50/214 499/280/214
f 223/208/215 524/208/215 525/206/215
f 44/58/216 345/58/216 346/54/216
f 82/246/297 383/246/297 384/243/297
f 132/141/218 433/141/218 434/142/218
f 196/281/219 497/281/219 498/50/219
f 45/54/220 346/54/220 347/65/220
f 81/247/221 382/247/221 383/246/221
f 284/207/222 585/207/222 586/61/222
f 133/142/223 434/142/223 435/143/223
f 195/282/224 496/282/224 497/281/224
f 46/65/225 347/65/225 348/66/225
f 80/248/226 381/248/226 382/247/226
f 285/61/227 586/61/227 587/62/227
f 134/143/228 435/143/228 436/56/228
f 246/75/229 547/75/229 548/72/229
f 194/283/230 495/283/230 496/282/230
f 222/60/231 523/60/231 524/208/231
f 252/53/232 553/53/232 302/39/232
f 79/249/233 380/249/233 381/248/233
f 276/135/234 577/135/234 578/146/234
f 193/284/235 494/284/235 495/283/235
f 47/66/236 348/66/236 349/67/236
f 1/39/237 302/39/237 303/2/237
f 78/250/238 379/250/238 380/249/238
f 286/62/239 587/62/239 588/115/239
f 135/56/298 436/56/298 437/57/298
f 221/114/241 522/114/241 523/60/241
f 48/67/242 349/67/242 350/73/242
f 153/51/243 454/51/243 455/49/243
f 213/5/244 514/5/244 515/131/244
f 136/57/245 437/57/245 438/87/245
f 192/226/246 493/226/246 494/284/246
f 33/7/247 334/7/247 335/3/247
f 230/153/248 531/153/248 532/140/248
f 49/73/249 350/73/249 351/79/249
f 77/252/250 378/252/250 379/250/250
f 287/115/251 588/115/251 589/215/251
f 245/81/252 546/81/252 547/75/252
f 191/286/253 492/286/253 493/226/253
f 32/8/254 333/8/254 334/7/254
f 220/214/255 521/214/255 522/114/255
f 137/87/256 438/87/256 439/183/256
f 190/267/257 491/267/257 492/286/257
f 31/9/258 332/9/258 333/8/258
f 53/86/259 354/86/259 355/220/259
f 127/147/260 428/147/260 429/136/260
f 50/79/261 351/79/261 352/83/261
f 288/215/262 589/215/262 590/212/262
f 30/10/263 331/10/263 332/9/263
f 148/157/264 449/157/264 450/109/264
f 219/216/265 520/216/265 521/214/265
f 51/83/266 352/83/266 353/71/266
f 154/49/267 455/49/267 456/225/267
f 76/255/268 377/255/268 378/252/268
f 138/183/269 439/183/269 440/184/269
f 244/85/270 545/85/270 546/81/270
f 189/287/271 490/287/271 491/267/271
f 29/11/272 330/11/272 331/10/272
f 143/197/273 444/197/273 445/217/273
f 139/184/274 440/184/274 441/44/274
f 188/288/275 489/288/275 490/287/275
f 28/12/276 329/12/276 330/11/276
f 54/220/277 355/220/277 356/221/277
f 126/149/278 427/149/278 428/147/278
f 75/257/279 376/257/279 377/255/279
f 289/212/280 590/212/280 591/213/280
f 27/13/281 328/13/281 329/12/281
f 101/218/282 402/218/282 403/198/282
f 52/71/119 353/71/119 354/86/119
f 155/225/283 456/225/283 457/266/283
f 212/251/284 513/251/284 514/5/284
f 140/44/299 441/44/299 442/42/299
f 243/88/286 544/88/286 545/85/286
f 187/253/287 488/253/287 489/288/287
f 26/14/288 327/14/288 328/13/288
