# Blender 4.5.8 LTS
# www.blender.org
mtllib text_O.mtl
o text_O
v -0.001077 0.394154 -0.050000
v 0.018173 0.393316 -0.050000
v 0.036795 0.390803 -0.050000
v 0.054788 0.386615 -0.050000
v 0.072154 0.380752 -0.050000
v 0.088891 0.373214 -0.050000
v 0.105000 0.364000 -0.050000
v 0.120481 0.353111 -0.050000
v 0.135333 0.340547 -0.050000
v 0.149558 0.326308 -0.050000
v 0.163154 0.310393 -0.050000
v 0.176122 0.292803 -0.050000
v 0.188462 0.273538 -0.050000
v 0.197922 0.256196 -0.050000
v 0.206560 0.238269 -0.050000
v 0.214375 0.219760 -0.050000
v 0.221367 0.200667 -0.050000
v 0.227537 0.180990 -0.050000
v 0.232885 0.160731 -0.050000
v 0.237409 0.139888 -0.050000
v 0.241111 0.118462 -0.050000
v 0.243990 0.096452 -0.050000
v 0.246047 0.073859 -0.050000
v 0.247281 0.050683 -0.050000
v 0.247692 0.026923 -0.050000
v 0.247371 0.006649 -0.050000
v 0.246406 -0.013252 -0.050000
v 0.244798 -0.032779 -0.050000
v 0.242547 -0.051932 -0.050000
v 0.239653 -0.070710 -0.050000
v 0.236115 -0.089115 -0.050000
v 0.231935 -0.107146 -0.050000
v 0.227111 -0.124803 -0.050000
v 0.221644 -0.142087 -0.050000
v 0.215534 -0.158996 -0.050000
v 0.208781 -0.175531 -0.050000
v 0.201385 -0.191692 -0.050000
v 0.189292 -0.215085 -0.050000
v 0.176346 -0.236444 -0.050000
v 0.162548 -0.255769 -0.050000
v 0.147897 -0.273060 -0.050000
v 0.132394 -0.288316 -0.050000
v 0.116038 -0.301538 -0.050000
v 0.098830 -0.312726 -0.050000
v 0.080769 -0.321880 -0.050000
v 0.061856 -0.329000 -0.050000
v 0.042090 -0.334085 -0.050000
v 0.021471 -0.337137 -0.050000
v 0.000000 -0.338154 -0.050000
v -0.018712 -0.337406 -0.050000
v -0.036795 -0.335162 -0.050000
v -0.054250 -0.331423 -0.050000
v -0.071077 -0.326188 -0.050000
v -0.087276 -0.319457 -0.050000
v -0.102846 -0.311231 -0.050000
v -0.117788 -0.301509 -0.050000
v -0.132103 -0.290291 -0.050000
v -0.145788 -0.277577 -0.050000
v -0.158846 -0.263368 -0.050000
v -0.171276 -0.247662 -0.050000
v -0.183077 -0.230462 -0.050000
v -0.193397 -0.213537 -0.050000
v -0.202821 -0.195791 -0.050000
v -0.211346 -0.177221 -0.050000
v -0.218974 -0.157829 -0.050000
v -0.225705 -0.137614 -0.050000
v -0.231538 -0.116577 -0.050000
v -0.236474 -0.094717 -0.050000
v -0.240513 -0.072034 -0.050000
v -0.243654 -0.048529 -0.050000
v -0.245897 -0.024201 -0.050000
v -0.247244 0.000950 -0.050000
v -0.247692 0.026923 -0.050000
v -0.247303 0.050653 -0.050000
v -0.246137 0.073739 -0.050000
v -0.244192 0.096183 -0.050000
v -0.241470 0.117983 -0.050000
v -0.237970 0.139140 -0.050000
v -0.233692 0.159654 -0.050000
v -0.228637 0.179525 -0.050000
v -0.222803 0.198752 -0.050000
v -0.216192 0.217337 -0.050000
v -0.208803 0.235278 -0.050000
v -0.200637 0.252576 -0.050000
v -0.191692 0.269231 -0.050000
v -0.179674 0.289184 -0.050000
v -0.166953 0.307402 -0.050000
v -0.153529 0.323885 -0.050000
v -0.139402 0.338633 -0.050000
v -0.124572 0.351645 -0.050000
v -0.109038 0.362923 -0.050000
v -0.092802 0.372466 -0.050000
v -0.075863 0.380274 -0.050000
v -0.058221 0.386346 -0.050000
v -0.039876 0.390684 -0.050000
v -0.020828 0.393286 -0.050000
v 0.142154 0.026923 -0.050000
v 0.141855 0.053719 -0.050000
v 0.140957 0.079543 -0.050000
v 0.139462 0.104394 -0.050000
v 0.137368 0.128274 -0.050000
v 0.134675 0.151181 -0.050000
v 0.131385 0.173115 -0.050000
v 0.127496 0.194078 -0.050000
v 0.123009 0.214068 -0.050000
v 0.117923 0.233087 -0.050000
v 0.112239 0.251132 -0.050000
v 0.105957 0.268206 -0.050000
v 0.099077 0.284308 -0.050000
v 0.092473 0.297896 -0.050000
v 0.085585 0.310303 -0.050000
v 0.078413 0.321529 -0.050000
v 0.070957 0.331573 -0.050000
v 0.063217 0.340435 -0.050000
v 0.055192 0.348115 -0.050000
v 0.046884 0.354614 -0.050000
v 0.038291 0.359932 -0.050000
v 0.029413 0.364067 -0.050000
v 0.020252 0.367021 -0.050000
v 0.010807 0.368794 -0.050000
v 0.001077 0.369385 -0.050000
v -0.007247 0.369003 -0.050000
v -0.015346 0.367859 -0.050000
v -0.023221 0.365952 -0.050000
v -0.030872 0.363282 -0.050000
v -0.038298 0.359849 -0.050000
v -0.045500 0.355654 -0.050000
v -0.052478 0.350696 -0.050000
v -0.059231 0.344974 -0.050000
v -0.065760 0.338490 -0.050000
v -0.072064 0.331244 -0.050000
v -0.078144 0.323234 -0.050000
v -0.084000 0.314462 -0.050000
v -0.084000 -0.261692 -0.050000
v -0.078316 -0.269784 -0.050000
v -0.072393 -0.277188 -0.050000
v -0.066231 -0.283904 -0.050000
v -0.059829 -0.289932 -0.050000
v -0.053188 -0.295271 -0.050000
v -0.046308 -0.299923 -0.050000
v -0.039188 -0.303887 -0.050000
v -0.031829 -0.307162 -0.050000
v -0.024231 -0.309750 -0.050000
v -0.016393 -0.311650 -0.050000
v -0.008316 -0.312861 -0.050000
v 0.000000 -0.313385 -0.050000
v 0.012474 -0.312577 -0.050000
v 0.024410 -0.310154 -0.050000
v 0.035808 -0.306115 -0.050000
v 0.046667 -0.300462 -0.050000
v 0.056987 -0.293192 -0.050000
v 0.066769 -0.284308 -0.050000
v 0.076013 -0.273808 -0.050000
v 0.084718 -0.261692 -0.050000
v 0.092885 -0.247962 -0.050000
v 0.100513 -0.232615 -0.050000
v 0.107603 -0.215654 -0.050000
v 0.114154 -0.197077 -0.050000
v 0.118462 -0.183017 -0.050000
v 0.122410 -0.168120 -0.050000
v 0.126000 -0.152385 -0.050000
v 0.129231 -0.135812 -0.050000
v 0.132103 -0.118402 -0.050000
v 0.134615 -0.100154 -0.050000
v 0.136769 -0.081068 -0.050000
v 0.138564 -0.061145 -0.050000
v 0.140000 -0.040385 -0.050000
v 0.141077 -0.018786 -0.050000
v 0.141795 0.003650 -0.050000
v -0.107692 0.267077 -0.050000
v -0.113197 0.251424 -0.050000
v -0.118222 0.234979 -0.050000
v -0.122769 0.217740 -0.050000
v -0.126838 0.199709 -0.050000
v -0.130427 0.180886 -0.050000
v -0.133538 0.161269 -0.050000
v -0.136171 0.140860 -0.050000
v -0.138325 0.119658 -0.050000
v -0.140000 0.097663 -0.050000
v -0.141197 0.074876 -0.050000
v -0.141914 0.051296 -0.050000
v -0.142154 0.026923 -0.050000
v -0.141959 0.004472 -0.050000
v -0.141376 -0.017291 -0.050000
v -0.140404 -0.038365 -0.050000
v -0.139043 -0.058752 -0.050000
v -0.137293 -0.078451 -0.050000
v -0.135154 -0.097462 -0.050000
v -0.132626 -0.115784 -0.050000
v -0.129709 -0.133419 -0.050000
v -0.126404 -0.150365 -0.050000
v -0.122709 -0.166624 -0.050000
v -0.118626 -0.182194 -0.050000
v -0.114154 -0.197077 -0.050000
v -0.113615 -0.198685 -0.050000
v -0.113077 -0.200278 -0.050000
v -0.112538 -0.201856 -0.050000
v -0.112000 -0.203419 -0.050000
v -0.111462 -0.204967 -0.050000
v -0.110923 -0.206500 -0.050000
v -0.110385 -0.208018 -0.050000
v -0.109846 -0.209521 -0.050000
v -0.109308 -0.211010 -0.050000
v -0.108769 -0.212483 -0.050000
v -0.108231 -0.213941 -0.050000
v -0.107692 -0.215385 -0.050000
v -0.001077 0.394154 0.050000
v 0.018173 0.393316 0.050000
v 0.036795 0.390803 0.050000
v 0.054788 0.386615 0.050000
v 0.072154 0.380752 0.050000
v 0.088891 0.373214 0.050000
v 0.105000 0.364000 0.050000
v 0.120481 0.353111 0.050000
v 0.135333 0.340547 0.050000
v 0.149558 0.326308 0.050000
v 0.163154 0.310393 0.050000
v 0.176122 0.292803 0.050000
v 0.188462 0.273538 0.050000
v 0.197922 0.256196 0.050000
v 0.206560 0.238269 0.050000
v 0.214375 0.219760 0.050000
v 0.221367 0.200667 0.050000
v 0.227537 0.180990 0.050000
v 0.232885 0.160731 0.050000
v 0.237409 0.139888 0.050000
v 0.241111 0.118462 0.050000
v 0.243990 0.096452 0.050000
v 0.246047 0.073859 0.050000
v 0.247281 0.050683 0.050000
v 0.247692 0.026923 0.050000
v 0.247371 0.006649 0.050000
v 0.246406 -0.013252 0.050000
v 0.244798 -0.032779 0.050000
v 0.242547 -0.051932 0.050000
v 0.239653 -0.070710 0.050000
v 0.236115 -0.089115 0.050000
v 0.231935 -0.107146 0.050000
v 0.227111 -0.124803 0.050000
v 0.221644 -0.142087 0.050000
v 0.215534 -0.158996 0.050000
v 0.208781 -0.175531 0.050000
v 0.201385 -0.191692 0.050000
v 0.189292 -0.215085 0.050000
v 0.176346 -0.236444 0.050000
v 0.162548 -0.255769 0.050000
v 0.147897 -0.273060 0.050000
v 0.132394 -0.288316 0.050000
v 0.116038 -0.301538 0.050000
v 0.098830 -0.312726 0.050000
v 0.080769 -0.321880 0.050000
v 0.061856 -0.329000 0.050000
v 0.042090 -0.334085 0.050000
v 0.021471 -0.337137 0.050000
v 0.000000 -0.338154 0.050000
v -0.018712 -0.337406 0.050000
v -0.036795 -0.335162 0.050000
v -0.054250 -0.331423 0.050000
v -0.071077 -0.326188 0.050000
v -0.087276 -0.319457 0.050000
v -0.102846 -0.311231 0.050000
v -0.117788 -0.301509 0.050000
v -0.132103 -0.290291 0.050000
v -0.145788 -0.277577 0.050000
v -0.158846 -0.263368 0.050000
v -0.171276 -0.247662 0.050000
v -0.183077 -0.230462 0.050000
v -0.193397 -0.213537 0.050000
v -0.202821 -0.195791 0.050000
v -0.211346 -0.177221 0.050000
v -0.218974 -0.157829 0.050000
v -0.225705 -0.137614 0.050000
v -0.231538 -0.116577 0.050000
v -0.236474 -0.094717 0.050000
v -0.240513 -0.072034 0.050000
v -0.243654 -0.048529 0.050000
v -0.245897 -0.024201 0.050000
v -0.247244 0.000950 0.050000
v -0.247692 0.026923 0.050000
v -0.247303 0.050653 0.050000
v -0.246137 0.073739 0.050000
v -0.244192 0.096183 0.050000
v -0.241470 0.117983 0.050000
v -0.237970 0.139140 0.050000
v -0.233692 0.159654 0.050000
v -0.228637 0.179525 0.050000
v -0.222803 0.198752 0.050000
v -0.216192 0.217337 0.050000
v -0.208803 0.235278 0.050000
v -0.200637 0.252576 0.050000
v -0.191692 0.269231 0.050000
v -0.179674 0.289184 0.050000
v -0.166953 0.307402 0.050000
v -0.153529 0.323885 0.050000
v -0.139402 0.338633 0.050000
v -0.124572 0.351645 0.050000
v -0.109038 0.362923 0.050000
v -0.092802 0.372466 0.050000
v -0.075863 0.380274 0.050000
v -0.058221 0.386346 0.050000
v -0.039876 0.390684 0.050000
v -0.020828 0.393286 0.050000
v 0.142154 0.026923 0.050000
v 0.141855 0.053719 0.050000
v 0.140957 0.079543 0.050000
v 0.139462 0.104394 0.050000
v 0.137368 0.128274 0.050000
v 0.134675 0.151181 0.050000
v 0.131385 0.173115 0.050000
v 0.127496 0.194078 0.050000
v 0.123009 0.214068 0.050000
v 0.117923 0.233087 0.050000
v 0.112239 0.251132 0.050000
v 0.105957 0.268206 0.050000
v 0.099077 0.284308 0.050000
v 0.092473 0.297896 0.050000
v 0.085585 0.310303 0.050000
v 0.078413 0.321529 0.050000
v 0.070957 0.331573 0.050000
v 0.063217 0.340435 0.050000
v 0.055192 0.348115 0.050000
v 0.046884 0.354614 0.050000
v 0.038291 0.359932 0.050000
v 0.029413 0.364067 0.050000
v 0.020252 0.367021 0.050000
v 0.010807 0.368794 0.050000
v 0.001077 0.369385 0.050000
v -0.007247 0.369003 0.050000
v -0.015346 0.367859 0.050000
v -0.023221 0.365952 0.050000
v -0.030872 0.363282 0.050000
v -0.038298 0.359849 0.050000
v -0.045500 0.355654 0.050000
v -0.052478 0.350696 0.050000
v -0.059231 0.344974 0.050000
v -0.065760 0.338490 0.050000
v -0.072064 0.331244 0.050000
v -0.078144 0.323234 0.050000
v -0.084000 0.314462 0.050000
v -0.084000 -0.261692 0.050000
v -0.078316 -0.269784 0.050000
v -0.072393 -0.277188 0.050000
v -0.066231 -0.283904 0.050000
v -0.059829 -0.289932 0.050000
v -0.053188 -0.295271 0.050000
v -0.046308 -0.299923 0.050000
v -0.039188 -0.303887 0.050000
v -0.031829 -0.307162 0.050000
v -0.024231 -0.309750 0.050000
v -0.016393 -0.311650 0.050000
v -0.008316 -0.312861 0.050000
v 0.000000 -0.313385 0.050000
v 0.012474 -0.312577 0.050000
v 0.024410 -0.310154 0.050000
v 0.035808 -0.306115 0.050000
v 0.046667 -0.300462 0.050000
v 0.056987 -0.293192 0.050000
v 0.066769 -0.284308 0.050000
v 0.076013 -0.273808 0.050000
v 0.084718 -0.261692 0.050000
v 0.092885 -0.247962 0.050000
v 0.100513 -0.232615 0.050000
v 0.107603 -0.215654 0.050000
v 0.114154 -0.197077 0.050000
v 0.118462 -0.183017 0.050000
v 0.122410 -0.168120 0.050000
v 0.126000 -0.152385 0.050000
v 0.129231 -0.135812 0.050000
v 0.132103 -0.118402 0.050000
v 0.134615 -0.100154 0.050000
v 0.136769 -0.081068 0.050000
v 0.138564 -0.061145 0.050000
v 0.140000 -0.040385 0.050000
v 0.141077 -0.018786 0.050000
v 0.141795 0.003650 0.050000
v -0.107692 0.267077 0.050000
v -0.113197 0.251424 0.050000
v -0.118222 0.234979 0.050000
v -0.122769 0.217740 0.050000
v -0.126838 0.199709 0.050000
v -0.130427 0.180886 0.050000
v -0.133538 0.161269 0.050000
v -0.136171 0.140860 0.050000
v -0.138325 0.119658 0.050000
v -0.140000 0.097663 0.050000
v -0.141197 0.074876 0.050000
v -0.141914 0.051296 0.050000
v -0.142154 0.026923 0.050000
v -0.141959 0.004472 0.050000
v -0.141376 -0.017291 0.050000
v -0.140404 -0.038365 0.050000
v -0.139043 -0.058752 0.050000
v -0.137293 -0.078451 0.050000
v -0.135154 -0.097462 0.050000
v -0.132626 -0.115784 0.050000
v -0.129709 -0.133419 0.050000
v -0.126404 -0.150365 0.050000
v -0.122709 -0.166624 0.050000
v -0.118626 -0.182194 0.050000
v -0.114154 -0.197077 0.050000
v -0.113615 -0.198685 0.050000
v -0.113077 -0.200278 0.050000
v -0.112538 -0.201856 0.050000
v -0.112000 -0.203419 0.050000
v -0.111462 -0.204967 0.050000
v -0.110923 -0.206500 0.050000
v -0.110385 -0.208018 0.050000
v -0.109846 -0.209521 0.050000
v -0.109308 -0.211010 0.050000
v -0.108769 -0.212483 0.050000
v -0.108231 -0.213941 0.050000
v -0.107692 -0.215385 0.050000
vn -0.0000 -0.0000 -1.0000
vn -0.0000 -0.0000 1.0000
vn -0.9958 -0.0918 -0.0000
vn -0.3255 0.9456 -0.0000
vn -0.9226 0.3857 -0.0000
vn 0.9563 -0.2923 -0.0000
vn -0.9538 -0.3004 -0.0000
vn -0.8246 -0.5657 -0.0000
vn 0.9932 -0.1167 -0.0000
vn 0.4107 0.9118 -0.0000
vn -0.4186 0.9082 -0.0000
vn -0.8955 0.4451 -0.0000
vn 0.9978 0.0666 -0.0000
vn 0.9212 0.3890 -0.0000
vn -0.9976 0.0690 -0.0000
vn -0.9247 0.3808 -0.0000
vn 0.8138 -0.5811 -0.0000
vn -0.9912 -0.1325 -0.0000
vn -0.7841 -0.6206 -0.0000
vn 0.9669 -0.2551 -0.0000
vn 0.4965 0.8680 -0.0000
vn -0.9661 -0.2583 -0.0000
vn -0.5067 0.8621 -0.0000
vn -0.8595 0.5112 -0.0000
vn 0.9883 -0.1523 -0.0000
vn 0.9961 0.0885 -0.0000
vn 0.9390 0.3439 -0.0000
vn 0.0458 -0.9990 -0.0000
vn 0.7629 -0.6465 -0.0000
vn -0.9960 0.0897 -0.0000
vn -0.0606 -0.9982 -0.0000
vn 0.9755 -0.2201 -0.0000
vn 0.8183 0.5748 -0.0000
vn -0.9422 0.3352 -0.0000
vn -0.8121 0.5835 -0.0000
vn 0.9820 -0.1887 -0.0000
vn 0.1399 -0.9902 -0.0000
vn -0.9845 -0.1753 -0.0000
vn -0.9757 -0.2190 -0.0000
vn -0.1844 -0.9828 -0.0000
vn -0.7363 -0.6766 -0.0000
vn 0.9937 0.1118 -0.0000
vn 0.9542 0.2992 -0.0000
vn 0.2354 -0.9719 -0.0000
vn 0.7809 0.6247 -0.0000
vn -0.9937 0.1121 -0.0000
vn -0.3069 -0.9517 -0.0000
vn 0.9823 -0.1873 -0.0000
vn 0.7014 -0.7128 -0.0000
vn -0.9569 0.2903 -0.0000
vn -0.7506 0.6608 -0.0000
vn 0.9742 -0.2259 -0.0000
vn 0.3295 -0.9442 -0.0000
vn -0.9754 -0.2203 -0.0000
vn -0.9832 -0.1824 -0.0000
vn -0.4223 -0.9065 -0.0000
vn 0.7368 0.6761 -0.0000
vn -0.6806 -0.7327 -0.0000
vn 0.9906 0.1367 -0.0000
vn 0.9669 0.2552 -0.0000
vn 0.5753 0.8179 -0.0000
vn -0.9907 0.1364 -0.0000
vn 0.9877 -0.1566 -0.0000
vn 0.4196 -0.9077 -0.0000
vn 0.6855 0.7280 -0.0000
vn -0.9691 0.2466 -0.0000
vn -0.5875 0.8092 -0.0000
vn -0.6723 0.7402 -0.0000
vn 0.9647 -0.2635 -0.0000
vn -0.9889 -0.1484 -0.0000
vn -0.5262 -0.8504 -0.0000
vn 0.9866 0.1632 -0.0000
vn 0.6287 -0.7777 -0.0000
vn -0.9636 -0.2672 -0.0000
vn 0.9918 -0.1279 -0.0000
vn 0.5034 -0.8641 -0.0000
vn 0.6266 0.7793 -0.0000
vn -0.9867 0.1628 -0.0000
vn -0.6168 -0.7871 -0.0000
vn 0.9772 0.2121 -0.0000
vn 0.5793 -0.8151 -0.0000
vn -0.9789 0.2041 -0.0000
vn -0.6161 -0.7877 -0.0000
vn -0.5758 0.8176 -0.0000
vn 0.9534 -0.3016 -0.0000
vn -0.9932 -0.1167 -0.0000
vn 0.9815 0.1914 -0.0000
vn 0.6458 0.7635 -0.0000
vn 0.5601 0.8284 -0.0000
vn -0.9815 0.1913 -0.0000
vn -0.6596 0.7517 -0.0000
vn 0.9949 -0.1011 -0.0000
vn 0.4864 0.8737 -0.0000
vn -0.9488 -0.3159 -0.0000
vn -0.4618 0.8870 -0.0000
vn 0.9854 0.1703 -0.0000
vn 0.6464 -0.7630 -0.0000
vn -0.9866 0.1632 -0.0000
vn -0.6915 -0.7224 -0.0000
vn -0.5454 -0.8382 -0.0000
vn 0.9405 -0.3398 -0.0000
vn -0.9962 -0.0874 -0.0000
vn 0.9751 0.2216 -0.0000
vn 0.7047 -0.7095 -0.0000
vn 0.5451 -0.8384 -0.0000
vn -0.9750 0.2224 -0.0000
vn 0.9971 -0.0759 -0.0000
vn 0.7075 0.7067 -0.0000
vn 0.4067 0.9136 -0.0000
vn -0.9306 -0.3661 -0.0000
vn -0.7532 -0.6578 -0.0000
vn -0.3340 0.9426 -0.0000
vn 0.9916 0.1297 -0.0000
vn -0.9923 0.1239 -0.0000
vn -0.7221 0.6917 -0.0000
vn 0.9258 -0.3781 -0.0000
vn 0.3224 0.9466 -0.0000
vn -0.9982 -0.0601 -0.0000
vn 0.9673 0.2537 -0.0000
vn 0.7545 -0.6564 -0.0000
vn 0.2355 0.9719 -0.0000
vn -0.9666 0.2562 -0.0000
vn -0.8029 -0.5961 -0.0000
vn -0.1989 0.9800 -0.0000
vn 0.9986 -0.0524 -0.0000
vn -0.4671 -0.8842 -0.0000
vn 0.9093 -0.4161 -0.0000
vn 0.9959 0.0907 -0.0000
vn 0.7965 -0.6046 -0.0000
vn -0.9088 -0.4172 -0.0000
vn -0.9963 0.0863 -0.0000
vn 0.7603 0.6496 -0.0000
vn 0.1483 0.9889 -0.0000
vn -0.9994 -0.0347 -0.0000
vn -0.7754 0.6315 -0.0000
vn -0.0646 0.9979 -0.0000
vn 0.9577 0.2878 -0.0000
vn -0.9561 0.2929 -0.0000
vn 0.9995 -0.0304 -0.0000
vn 0.8317 -0.5552 -0.0000
vn 0.4521 -0.8920 -0.0000
vn -0.8427 -0.5384 -0.0000
vn 0.8883 -0.4592 -0.0000
vn 0.9986 0.0532 -0.0000
vn 0.0628 0.9980 -0.0000
vn -0.8832 -0.4690 -0.0000
vn -0.9987 0.0505 -0.0000
vn -0.3837 -0.9235 -0.0000
vn -0.9999 -0.0112 -0.0000
vn 0.9482 0.3176 -0.0000
vn 1.0000 -0.0000 -0.0000
vn -0.9431 0.3326 -0.0000
vn 0.3523 -0.9359 -0.0000
vn 1.0000 -0.0098 -0.0000
vn 0.8049 0.5934 -0.0000
vn -0.2971 -0.9549 -0.0000
vn -0.8743 -0.4854 -0.0000
vn 0.9473 0.3202 -0.0000
vn 0.9999 0.0173 -0.0000
vn -0.9999 0.0164 -0.0000
vn -0.8199 0.5725 -0.0000
vn 0.2492 -0.9685 -0.0000
vn 0.9464 0.3230 -0.0000
vn -0.2095 -0.9778 -0.0000
vn -0.9999 -0.0173 -0.0000
vn -0.8994 -0.4371 -0.0000
vn 0.9455 0.3257 -0.0000
vn 0.1464 -0.9892 -0.0000
vn 0.9445 0.3285 -0.0000
vn 1.0000 0.0087 -0.0000
vn 0.8421 0.5394 -0.0000
vn -0.1231 -0.9924 -0.0000
vn -0.9999 0.0154 -0.0000
vn -0.8566 0.5160 -0.0000
vn 0.9435 0.3314 -0.0000
vn -0.0399 -0.9992 -0.0000
vn -0.9196 -0.3929 -0.0000
vn 0.0473 -0.9989 -0.0000
vn 0.9425 0.3343 -0.0000
vn 0.9999 -0.0159 -0.0000
vn 0.9414 0.3372 -0.0000
vn 0.9988 -0.0484 -0.0000
vn 0.8779 0.4789 -0.0000
vn -0.0439 0.9990 -0.0000
vn -0.8810 0.4731 -0.0000
vn 0.9403 0.3402 -0.0000
vn 0.9996 0.0268 -0.0000
vn 0.0435 0.9991 -0.0000
vn -0.9995 0.0320 -0.0000
vn -0.9385 -0.3453 -0.0000
vn 0.9392 0.3433 -0.0000
vn 0.1337 0.9910 -0.0000
vn -0.9986 -0.0534 -0.0000
vn -0.1354 0.9908 -0.0000
vn 0.9381 0.3464 -0.0000
vn 0.9434 -0.3317 -0.0000
vn -0.8538 -0.5206 -0.0000
vn -1.0000 -0.0000 -0.0000
vn 0.9966 -0.0821 -0.0000
vn 0.2267 0.9740 -0.0000
vn -0.2301 0.9732 -0.0000
vn 0.9369 0.3495 -0.0000
vn 0.9989 0.0461 -0.0000
vn 0.9009 0.4341 -0.0000
vn -0.9988 0.0498 -0.0000
vn -0.9043 0.4269 -0.0000
vn 0.8552 -0.5183 -0.0000
vn 0.3199 0.9475 -0.0000
vn 0.6855 0.7281 -0.0000
vn -0.9867 0.1627 -0.0000
vn 0.9482 0.3175 -0.0000
vn 0.9464 0.3229 -0.0000
vt 0.463415 0.000000
vt 0.000000 0.000000
vt 0.590244 0.000000
vt 0.746341 0.000000
vt 0.204878 0.000000
vt 0.741463 0.000000
vt 0.458537 0.000000
vt 0.600000 0.000000
vt 0.024390 0.000000
vt 0.546341 0.000000
vt 0.551220 0.000000
vt 0.453659 0.000000
vt 0.609756 0.000000
vt 0.565854 0.000000
vt 0.014634 0.000000
vt 0.560976 0.000000
vt 0.146341 0.000000
vt 0.804878 0.000000
vt 0.141463 0.000000
vt 0.580488 0.000000
vt 0.004878 0.000000
vt 0.575610 0.000000
vt 0.039024 0.000000
vt 0.531707 0.000000
vt 0.536585 0.000000
vt 0.253659 0.000000
vt 0.668293 0.000000
vt 0.673171 0.000000
vt 0.009756 0.000000
vt 0.448780 0.000000
vt 0.624390 0.000000
vt 0.443902 0.000000
vt 0.585366 0.000000
vt 0.570732 0.000000
vt 0.604878 0.000000
vt 0.019512 0.000000
vt 0.595122 0.000000
vt 0.702439 0.000000
vt 0.234146 0.000000
vt 0.239024 0.000000
vt 0.263415 0.000000
vt 0.653659 0.000000
vt 0.658537 0.000000
vt 0.556098 0.000000
vt 0.492683 0.000000
vt 0.082927 0.000000
vt 0.087805 0.000000
vt 0.839024 0.000000
vt 0.404878 0.000000
vt 0.834146 0.000000
vt 0.185366 0.000000
vt 0.765854 0.000000
vt 0.180488 0.000000
vt 0.614634 0.000000
vt 0.029268 0.000000
vt 0.629268 0.000000
vt 0.634146 0.000000
vt 0.278049 0.000000
vt 1.000000 0.000000
vt 0.648780 0.000000
vt 0.248780 0.000000
vt 0.682927 0.000000
vt 0.243902 0.000000
vt 0.692683 0.000000
vt 0.619512 0.000000
vt 0.268293 0.000000
vt 0.429268 0.000000
vt 0.643902 0.000000
vt 0.424390 0.000000
vt 0.214634 0.000000
vt 0.736585 0.000000
vt 0.209756 0.000000
vt 0.517073 0.000000
vt 0.058537 0.000000
vt 0.512195 0.000000
vt 0.639024 0.000000
vt 0.439024 0.000000
vt 0.034146 0.000000
vt 0.824390 0.000000
vt 0.419512 0.000000
vt 0.521951 0.000000
vt 0.053659 0.000000
vt 0.165854 0.000000
vt 0.785366 0.000000
vt 0.160976 0.000000
vt 0.502439 0.000000
vt 0.073171 0.000000
vt 0.078049 0.000000
vt 0.414634 0.000000
vt 0.297561 0.000000
vt 0.936585 0.000000
vt 0.941463 0.000000
vt 0.048780 0.000000
vt 0.409756 0.000000
vt 0.829268 0.000000
vt 0.526829 0.000000
vt 0.043902 0.000000
vt 0.170732 0.000000
vt 0.541463 0.000000
vt 0.273171 0.000000
vt 0.400000 0.000000
vt 0.190244 0.000000
vt 0.760976 0.000000
vt 0.848781 0.000000
vt 0.395122 0.000000
vt 0.843902 0.000000
vt 0.507317 0.000000
vt 0.068293 0.000000
vt 0.390244 0.000000
vt 0.663415 0.000000
vt 0.497561 0.000000
vt 0.487805 0.000000
vt 0.092683 0.000000
vt 0.385366 0.000000
vt 0.853659 0.000000
vt 0.302439 0.000000
vt 0.931707 0.000000
vt 0.121951 0.000000
vt 0.468293 0.000000
vt 0.117073 0.000000
vt 0.380488 0.000000
vt 0.731707 0.000000
vt 0.219512 0.000000
vt 0.726829 0.000000
vt 0.858537 0.000000
vt 0.375610 0.000000
vt 0.863415 0.000000
vt 0.482927 0.000000
vt 0.370732 0.000000
vt 0.287805 0.000000
vt 0.970732 0.000000
vt 0.975610 0.000000
vt 0.868293 0.000000
vt 0.097561 0.000000
vt 0.102439 0.000000
vt 0.365854 0.000000
vt 0.478049 0.000000
vt 0.873171 0.000000
vt 0.107317 0.000000
vt 0.360976 0.000000
vt 0.473171 0.000000
vt 0.878049 0.000000
vt 0.112195 0.000000
vt 0.356098 0.000000
vt 0.882927 0.000000
vt 0.351220 0.000000
vt 0.346341 0.000000
vt 0.887805 0.000000
vt 0.819512 0.000000
vt 0.980488 0.000000
vt 0.985366 0.000000
vt 0.126829 0.000000
vt 0.892683 0.000000
vt 0.814634 0.000000
vt 0.341463 0.000000
vt 0.131707 0.000000
vt 0.897561 0.000000
vt 0.809756 0.000000
vt 0.336585 0.000000
vt 0.136585 0.000000
vt 0.902439 0.000000
vt 0.331707 0.000000
vt 0.907317 0.000000
vt 0.800000 0.000000
vt 0.780488 0.000000
vt 0.175610 0.000000
vt 0.775610 0.000000
vt 0.326829 0.000000
vt 0.912195 0.000000
vt 0.795122 0.000000
vt 0.151220 0.000000
vt 0.321951 0.000000
vt 0.917073 0.000000
vt 0.790244 0.000000
vt 0.156098 0.000000
vt 0.317073 0.000000
vt 0.434146 0.000000
vt 0.921951 0.000000
vt 0.312195 0.000000
vt 0.292683 0.000000
vt 0.951219 0.000000
vt 0.956098 0.000000
vt 0.307317 0.000000
vt 0.926829 0.000000
vt 0.712195 0.000000
vt 0.707317 0.000000
vt 0.687805 0.000000
vt 0.990244 0.000000
vt 0.770732 0.000000
vt 0.721951 0.000000
vt 0.995122 0.000000
vt 0.946341 0.000000
vt 0.960976 0.000000
vt 0.965854 0.000000
vt 0.756098 0.000000
vt 0.282927 0.000000
vt 0.751220 0.000000
vt 0.195122 0.000000
vt 0.200000 0.000000
vt 0.063415 0.000000
vt 0.258537 0.000000
vt 0.224390 0.000000
vt 0.717073 0.000000
vt 0.678049 0.000000
vt 0.229268 0.000000
vt 0.697561 0.000000
s 0
f 96/1/1 1/2/1 122/3/1
f 154/4/1 43/5/1 153/6/1
f 95/7/1 96/1/1 124/8/1
f 6/9/1 113/10/1 114/11/1
f 94/12/1 95/7/1 126/13/1
f 117/14/1 4/15/1 116/16/1
f 31/17/1 166/18/1 30/19/1
f 120/20/1 2/21/1 119/22/1
f 9/23/1 110/24/1 111/25/1
f 53/26/1 138/27/1 139/28/1
f 119/22/1 2/21/1 3/29/1
f 93/30/1 129/31/1 92/32/1
f 122/3/1 1/2/1 121/33/1
f 119/22/1 3/29/1 118/34/1
f 125/35/1 95/7/1 124/8/1
f 116/16/1 4/15/1 5/36/1
f 124/8/1 96/1/1 123/37/1
f 145/38/1 49/39/1 50/40/1
f 55/41/1 135/42/1 136/43/1
f 116/16/1 5/36/1 115/44/1
f 6/9/1 114/11/1 115/44/1
f 102/45/1 18/46/1 19/47/1
f 173/48/1 84/49/1 172/50/1
f 115/44/1 5/36/1 6/9/1
f 39/51/1 158/52/1 38/53/1
f 127/54/1 94/12/1 126/13/1
f 7/55/1 113/10/1 6/9/1
f 130/56/1 131/57/1 92/32/1
f 58/58/1 206/59/1 134/60/1
f 52/61/1 141/62/1 51/63/1
f 143/64/1 50/40/1 51/63/1
f 129/31/1 130/56/1 92/32/1
f 94/12/1 128/65/1 93/30/1
f 56/66/1 134/60/1 135/42/1
f 89/67/1 133/68/1 88/69/1
f 45/70/1 152/71/1 44/72/1
f 107/73/1 13/74/1 106/75/1
f 131/57/1 132/76/1 91/77/1
f 118/34/1 3/29/1 117/14/1
f 9/23/1 111/25/1 8/78/1
f 88/69/1 170/79/1 87/80/1
f 108/81/1 12/82/1 107/73/1
f 133/68/1 170/79/1 88/69/1
f 170/79/1 133/68/1 134/60/1
f 35/83/1 162/84/1 34/85/1
f 104/86/1 16/87/1 17/88/1
f 86/89/1 87/80/1 170/79/1
f 62/90/1 193/91/1 194/92/1
f 12/82/1 108/81/1 11/93/1
f 85/94/1 86/89/1 171/95/1
f 11/93/1 109/96/1 10/97/1
f 35/83/1 36/98/1 162/84/1
f 84/49/1 85/94/1 172/50/1
f 8/78/1 112/99/1 7/55/1
f 58/58/1 134/60/1 57/100/1
f 206/59/1 170/79/1 134/60/1
f 8/78/1 111/25/1 112/99/1
f 83/101/1 84/49/1 173/48/1
f 128/65/1 129/31/1 93/30/1
f 40/102/1 157/103/1 39/51/1
f 175/104/1 82/105/1 174/106/1
f 7/55/1 112/99/1 113/10/1
f 105/107/1 15/108/1 104/86/1
f 57/100/1 134/60/1 56/66/1
f 302/1/2 328/3/2 207/2/2
f 173/48/1 174/106/1 83/101/1
f 81/109/1 82/105/1 175/104/1
f 55/41/1 136/43/1 137/110/1
f 104/86/1 17/88/1 103/111/1
f 101/112/1 19/47/1 20/113/1
f 80/114/1 81/109/1 176/115/1
f 63/116/1 192/117/1 193/91/1
f 103/111/1 18/46/1 102/45/1
f 26/118/1 97/119/1 25/120/1
f 79/121/1 80/114/1 176/115/1
f 151/122/1 46/123/1 150/124/1
f 79/121/1 176/115/1 177/125/1
f 102/45/1 19/47/1 101/112/1
f 78/126/1 79/121/1 177/125/1
f 92/32/1 131/57/1 91/77/1
f 78/126/1 177/125/1 178/127/1
f 101/112/1 20/113/1 100/128/1
f 77/129/1 78/126/1 178/127/1
f 60/130/1 200/131/1 201/132/1
f 77/129/1 178/127/1 179/133/1
f 100/128/1 21/134/1 22/135/1
f 76/136/1 77/129/1 179/133/1
f 99/137/1 100/128/1 22/135/1
f 76/136/1 179/133/1 180/138/1
f 99/137/1 22/135/1 23/139/1
f 75/140/1 76/136/1 180/138/1
f 98/141/1 99/137/1 23/139/1
f 75/140/1 180/138/1 181/142/1
f 98/141/1 23/139/1 24/143/1
f 74/144/1 75/140/1 181/142/1
f 97/119/1 98/141/1 24/143/1
f 74/144/1 181/142/1 182/145/1
f 97/119/1 24/143/1 25/120/1
f 73/146/1 74/144/1 182/145/1
f 72/147/1 73/146/1 183/148/1
f 100/128/1 20/113/1 21/134/1
f 169/149/1 97/119/1 26/118/1
f 60/130/1 202/150/1 203/151/1
f 169/149/1 26/118/1 27/152/1
f 72/147/1 183/148/1 184/153/1
f 168/154/1 169/149/1 27/152/1
f 71/155/1 72/147/1 184/153/1
f 168/154/1 27/152/1 28/156/1
f 71/155/1 184/153/1 185/157/1
f 167/158/1 168/154/1 28/156/1
f 70/159/1 71/155/1 185/157/1
f 167/158/1 28/156/1 29/160/1
f 70/159/1 185/157/1 186/161/1
f 166/18/1 167/158/1 30/19/1
f 69/162/1 70/159/1 186/161/1
f 60/130/1 201/132/1 202/150/1
f 69/162/1 186/161/1 187/163/1
f 165/164/1 166/18/1 31/17/1
f 161/165/1 37/166/1 160/167/1
f 68/168/1 69/162/1 187/163/1
f 68/168/1 187/163/1 188/169/1
f 164/170/1 165/164/1 32/171/1
f 117/14/1 3/29/1 4/15/1
f 67/172/1 68/168/1 188/169/1
f 67/172/1 188/169/1 189/173/1
f 163/174/1 164/170/1 33/175/1
f 83/101/1 174/106/1 82/105/1
f 67/172/1 189/173/1 66/176/1
f 103/111/1 17/88/1 18/46/1
f 162/84/1 163/174/1 34/85/1
f 91/77/1 132/76/1 90/177/1
f 66/176/1 190/178/1 65/179/1
f 61/180/1 196/181/1 197/182/1
f 64/183/1 191/184/1 192/117/1
f 147/185/1 49/39/1 146/186/1
f 65/179/1 191/184/1 64/183/1
f 176/115/1 81/109/1 175/104/1
f 107/73/1 12/82/1 13/74/1
f 143/64/1 51/63/1 142/187/1
f 64/183/1 192/117/1 63/116/1
f 60/130/1 203/151/1 204/188/1
f 90/177/1 133/68/1 89/67/1
f 65/179/1 190/178/1 191/184/1
f 63/116/1 193/91/1 62/90/1
f 158/52/1 159/189/1 38/53/1
f 150/124/1 46/123/1 149/190/1
f 66/176/1 189/173/1 190/178/1
f 62/90/1 194/92/1 61/180/1
f 157/103/1 158/52/1 39/51/1
f 60/130/1 204/188/1 205/191/1
f 60/130/1 205/191/1 206/59/1
f 61/180/1 195/192/1 196/181/1
f 51/63/1 141/62/1 142/187/1
f 61/180/1 197/182/1 198/193/1
f 61/180/1 198/193/1 199/194/1
f 61/180/1 199/194/1 200/131/1
f 61/180/1 200/131/1 60/130/1
f 104/86/1 15/108/1 16/87/1
f 183/148/1 73/146/1 182/145/1
f 30/19/1 167/158/1 29/160/1
f 160/167/1 38/53/1 159/189/1
f 56/66/1 135/42/1 55/41/1
f 61/180/1 194/92/1 195/192/1
f 156/195/1 157/103/1 40/102/1
f 206/59/1 59/196/1 60/130/1
f 155/197/1 156/195/1 41/198/1
f 42/199/1 43/5/1 154/4/1
f 59/196/1 206/59/1 58/58/1
f 154/4/1 155/197/1 42/199/1
f 41/198/1 156/195/1 40/102/1
f 127/54/1 128/65/1 94/12/1
f 37/166/1 38/53/1 160/167/1
f 106/75/1 14/200/1 105/107/1
f 54/201/1 138/27/1 53/26/1
f 10/97/1 110/24/1 9/23/1
f 152/71/1 153/6/1 44/72/1
f 54/201/1 137/110/1 138/27/1
f 33/175/1 164/170/1 32/171/1
f 126/13/1 95/7/1 125/35/1
f 151/122/1 152/71/1 45/70/1
f 42/199/1 155/197/1 41/198/1
f 120/20/1 1/2/1 2/21/1
f 171/95/1 86/89/1 170/79/1
f 106/75/1 13/74/1 14/200/1
f 55/41/1 137/110/1 54/201/1
f 10/97/1 109/96/1 110/24/1
f 36/98/1 37/166/1 161/165/1
f 11/93/1 108/81/1 109/96/1
f 132/76/1 133/68/1 90/177/1
f 105/107/1 14/200/1 15/108/1
f 149/190/1 47/202/1 148/203/1
f 52/61/1 140/204/1 141/62/1
f 172/50/1 85/94/1 171/95/1
f 44/72/1 153/6/1 43/5/1
f 53/26/1 140/204/1 52/61/1
f 53/26/1 139/28/1 140/204/1
f 148/203/1 48/205/1 147/185/1
f 34/85/1 163/174/1 33/175/1
f 162/84/1 36/98/1 161/165/1
f 144/206/1 50/40/1 143/64/1
f 146/186/1 49/39/1 145/38/1
f 45/70/1 46/123/1 151/122/1
f 32/171/1 165/164/1 31/17/1
f 46/123/1 47/202/1 149/190/1
f 123/37/1 96/1/1 122/3/1
f 47/202/1 48/205/1 148/203/1
f 121/33/1 1/2/1 120/20/1
f 48/205/1 49/39/1 147/185/1
f 145/38/1 50/40/1 144/206/1
f 360/4/2 359/6/2 249/5/2
f 301/7/2 330/8/2 302/1/2
f 212/9/2 320/11/2 319/10/2
f 300/12/2 332/13/2 301/7/2
f 323/14/2 322/16/2 210/15/2
f 237/17/2 236/19/2 372/18/2
f 326/20/2 325/22/2 208/21/2
f 215/23/2 317/25/2 316/24/2
f 259/26/2 345/28/2 344/27/2
f 325/22/2 209/29/2 208/21/2
f 299/30/2 298/32/2 335/31/2
f 328/3/2 327/33/2 207/2/2
f 325/22/2 324/34/2 209/29/2
f 331/35/2 330/8/2 301/7/2
f 322/16/2 211/36/2 210/15/2
f 330/8/2 329/37/2 302/1/2
f 351/38/2 256/40/2 255/39/2
f 261/41/2 342/43/2 341/42/2
f 322/16/2 321/44/2 211/36/2
f 212/9/2 321/44/2 320/11/2
f 308/45/2 225/47/2 224/46/2
f 379/48/2 378/50/2 290/49/2
f 321/44/2 212/9/2 211/36/2
f 245/51/2 244/53/2 364/52/2
f 333/54/2 332/13/2 300/12/2
f 213/55/2 212/9/2 319/10/2
f 336/56/2 298/32/2 337/57/2
f 264/58/2 340/60/2 412/59/2
f 258/61/2 257/63/2 347/62/2
f 349/64/2 257/63/2 256/40/2
f 335/31/2 298/32/2 336/56/2
f 300/12/2 299/30/2 334/65/2
f 262/66/2 341/42/2 340/60/2
f 295/67/2 294/69/2 339/68/2
f 251/70/2 250/72/2 358/71/2
f 313/73/2 312/75/2 219/74/2
f 337/57/2 297/77/2 338/76/2
f 324/34/2 323/14/2 209/29/2
f 215/23/2 214/78/2 317/25/2
f 294/69/2 293/80/2 376/79/2
f 314/81/2 313/73/2 218/82/2
f 339/68/2 294/69/2 376/79/2
f 376/79/2 340/60/2 339/68/2
f 241/83/2 240/85/2 368/84/2
f 310/86/2 223/88/2 222/87/2
f 292/89/2 376/79/2 293/80/2
f 268/90/2 400/92/2 399/91/2
f 218/82/2 217/93/2 314/81/2
f 291/94/2 377/95/2 292/89/2
f 217/93/2 216/97/2 315/96/2
f 241/83/2 368/84/2 242/98/2
f 290/49/2 378/50/2 291/94/2
f 214/78/2 213/55/2 318/99/2
f 264/58/2 263/100/2 340/60/2
f 412/59/2 340/60/2 376/79/2
f 214/78/2 318/99/2 317/25/2
f 289/101/2 379/48/2 290/49/2
f 334/65/2 299/30/2 335/31/2
f 246/102/2 245/51/2 363/103/2
f 381/104/2 380/106/2 288/105/2
f 213/55/2 319/10/2 318/99/2
f 311/107/2 310/86/2 221/108/2
f 263/100/2 262/66/2 340/60/2
f 379/48/2 289/101/2 380/106/2
f 287/109/2 381/104/2 288/105/2
f 261/41/2 343/110/2 342/43/2
f 310/86/2 309/111/2 223/88/2
f 307/112/2 226/113/2 225/47/2
f 286/114/2 382/115/2 287/109/2
f 269/116/2 399/91/2 398/117/2
f 309/111/2 308/45/2 224/46/2
f 232/118/2 231/120/2 303/119/2
f 285/121/2 382/115/2 286/114/2
f 357/122/2 356/124/2 252/123/2
f 285/121/2 383/125/2 382/115/2
f 308/45/2 307/112/2 225/47/2
f 284/126/2 383/125/2 285/121/2
f 298/32/2 297/77/2 337/57/2
f 284/126/2 384/127/2 383/125/2
f 307/112/2 306/128/2 226/113/2
f 283/129/2 384/127/2 284/126/2
f 266/130/2 407/132/2 406/131/2
f 283/129/2 385/133/2 384/127/2
f 306/128/2 228/135/2 227/134/2
f 282/136/2 385/133/2 283/129/2
f 305/137/2 228/135/2 306/128/2
f 282/136/2 386/138/2 385/133/2
f 305/137/2 229/139/2 228/135/2
f 281/140/2 386/138/2 282/136/2
f 304/141/2 229/139/2 305/137/2
f 281/140/2 387/142/2 386/138/2
f 304/141/2 230/143/2 229/139/2
f 280/144/2 387/142/2 281/140/2
f 303/119/2 230/143/2 304/141/2
f 280/144/2 388/145/2 387/142/2
f 303/119/2 231/120/2 230/143/2
f 279/146/2 388/145/2 280/144/2
f 278/147/2 389/148/2 279/146/2
f 306/128/2 227/134/2 226/113/2
f 375/149/2 232/118/2 303/119/2
f 266/130/2 409/151/2 408/150/2
f 375/149/2 233/152/2 232/118/2
f 278/147/2 390/153/2 389/148/2
f 374/154/2 233/152/2 375/149/2
f 277/155/2 390/153/2 278/147/2
f 374/154/2 234/156/2 233/152/2
f 277/155/2 391/157/2 390/153/2
f 373/158/2 234/156/2 374/154/2
f 276/159/2 391/157/2 277/155/2
f 373/158/2 235/160/2 234/156/2
f 276/159/2 392/161/2 391/157/2
f 372/18/2 236/19/2 373/158/2
f 275/162/2 392/161/2 276/159/2
f 266/130/2 408/150/2 407/132/2
f 275/162/2 393/163/2 392/161/2
f 371/164/2 237/17/2 372/18/2
f 367/165/2 366/167/2 243/166/2
f 274/168/2 393/163/2 275/162/2
f 274/168/2 394/169/2 393/163/2
f 370/170/2 238/171/2 371/164/2
f 323/14/2 210/15/2 209/29/2
f 273/172/2 394/169/2 274/168/2
f 273/172/2 395/173/2 394/169/2
f 369/174/2 239/175/2 370/170/2
f 289/101/2 288/105/2 380/106/2
f 273/172/2 272/176/2 395/173/2
f 309/111/2 224/46/2 223/88/2
f 368/84/2 240/85/2 369/174/2
f 297/77/2 296/177/2 338/76/2
f 272/176/2 271/179/2 396/178/2
f 267/180/2 403/182/2 402/181/2
f 270/183/2 398/117/2 397/184/2
f 353/185/2 352/186/2 255/39/2
f 271/179/2 270/183/2 397/184/2
f 382/115/2 381/104/2 287/109/2
f 313/73/2 219/74/2 218/82/2
f 349/64/2 348/187/2 257/63/2
f 270/183/2 269/116/2 398/117/2
f 266/130/2 410/188/2 409/151/2
f 296/177/2 295/67/2 339/68/2
f 271/179/2 397/184/2 396/178/2
f 269/116/2 268/90/2 399/91/2
f 364/52/2 244/53/2 365/189/2
f 356/124/2 355/190/2 252/123/2
f 272/176/2 396/178/2 395/173/2
f 268/90/2 267/180/2 400/92/2
f 363/103/2 245/51/2 364/52/2
f 266/130/2 411/191/2 410/188/2
f 266/130/2 412/59/2 411/191/2
f 267/180/2 402/181/2 401/192/2
f 257/63/2 348/187/2 347/62/2
f 267/180/2 404/193/2 403/182/2
f 267/180/2 405/194/2 404/193/2
f 267/180/2 406/131/2 405/194/2
f 267/180/2 266/130/2 406/131/2
f 310/86/2 222/87/2 221/108/2
f 389/148/2 388/145/2 279/146/2
f 236/19/2 235/160/2 373/158/2
f 366/167/2 365/189/2 244/53/2
f 262/66/2 261/41/2 341/42/2
f 267/180/2 401/192/2 400/92/2
f 362/195/2 246/102/2 363/103/2
f 412/59/2 266/130/2 265/196/2
f 361/197/2 247/198/2 362/195/2
f 248/199/2 360/4/2 249/5/2
f 265/196/2 264/58/2 412/59/2
f 360/4/2 248/199/2 361/197/2
f 247/198/2 246/102/2 362/195/2
f 333/54/2 300/12/2 334/65/2
f 243/166/2 366/167/2 244/53/2
f 312/75/2 311/107/2 220/200/2
f 260/201/2 259/26/2 344/27/2
f 216/97/2 215/23/2 316/24/2
f 358/71/2 250/72/2 359/6/2
f 260/201/2 344/27/2 343/110/2
f 239/175/2 238/171/2 370/170/2
f 332/13/2 331/35/2 301/7/2
f 357/122/2 251/70/2 358/71/2
f 248/199/2 247/198/2 361/197/2
f 326/20/2 208/21/2 207/2/2
f 377/95/2 376/79/2 292/89/2
f 312/75/2 220/200/2 219/74/2
f 261/41/2 260/201/2 343/110/2
f 216/97/2 316/24/2 315/96/2
f 242/98/2 367/165/2 243/166/2
f 217/93/2 315/96/2 314/81/2
f 338/76/2 296/177/2 339/68/2
f 311/107/2 221/108/2 220/200/2
f 355/190/2 354/203/2 253/202/2
f 258/61/2 347/62/2 346/204/2
f 378/50/2 377/95/2 291/94/2
f 250/72/2 249/5/2 359/6/2
f 259/26/2 258/61/2 346/204/2
f 259/26/2 346/204/2 345/28/2
f 354/203/2 353/185/2 254/205/2
f 240/85/2 239/175/2 369/174/2
f 368/84/2 367/165/2 242/98/2
f 350/206/2 349/64/2 256/40/2
f 352/186/2 351/38/2 255/39/2
f 251/70/2 357/122/2 252/123/2
f 238/171/2 237/17/2 371/164/2
f 252/123/2 355/190/2 253/202/2
f 329/37/2 328/3/2 302/1/2
f 253/202/2 354/203/2 254/205/2
f 327/33/2 326/20/2 207/2/2
f 254/205/2 353/185/2 255/39/2
f 351/38/2 350/206/2 256/40/2
f 70/159/3 277/155/3 71/155/3
f 93/30/4 300/12/4 94/12/4
f 156/195/5 363/103/5 157/103/5
f 171/95/6 378/50/6 172/50/6
f 106/75/7 313/73/7 107/73/7
f 60/130/8 267/180/8 61/180/8
f 28/156/9 235/160/9 29/160/9
f 5/36/10 212/9/10 6/9/10
f 92/32/11 299/30/11 93/30/11
f 155/197/12 362/195/12 156/195/12
f 185/157/13 392/161/13 186/161/13
f 15/108/14 222/87/14 16/87/14
f 166/18/15 373/158/15 167/158/15
f 82/105/16 289/101/16 83/101/16
f 39/51/17 246/102/17 40/102/17
f 69/162/18 276/159/18 70/159/18
f 59/196/19 266/130/19 60/130/19
f 172/50/20 379/48/20 173/48/20
f 6/9/21 213/55/21 7/55/21
f 105/107/22 312/75/22 106/75/22
f 91/77/23 298/32/23 92/32/23
f 154/4/24 361/197/24 155/197/24
f 29/160/25 236/19/25 30/19/25
f 186/161/26 393/163/26 187/163/26
f 16/87/27 223/88/27 17/88/27
f 121/33/28 328/3/28 122/3/28
f 40/102/29 247/198/29 41/198/29
f 165/164/30 372/18/30 166/18/30
f 120/20/31 327/33/31 121/33/31
f 173/48/32 380/106/32 174/106/32
f 134/60/33 341/42/33 135/42/33
f 81/109/34 288/105/34 82/105/34
f 153/6/35 360/4/35 154/4/35
f 30/19/36 237/17/36 31/17/36
f 122/3/37 329/37/37 123/37/37
f 68/168/38 275/162/38 69/162/38
f 104/86/39 311/107/39 105/107/39
f 119/22/40 326/20/40 120/20/40
f 58/58/41 265/196/41 59/196/41
f 187/163/42 394/169/42 188/169/42
f 17/88/43 224/46/43 18/46/43
f 123/37/44 330/8/44 124/8/44
f 135/42/45 342/43/45 136/43/45
f 164/170/46 371/164/46 165/164/46
f 118/34/47 325/22/47 119/22/47
f 174/106/48 381/104/48 175/104/48
f 41/198/49 248/199/49 42/199/49
f 80/114/50 287/109/50 81/109/50
f 152/71/51 359/6/51 153/6/51
f 31/17/52 238/171/52 32/171/52
f 124/8/53 331/35/53 125/35/53
f 67/172/54 274/168/54 68/168/54
f 103/111/55 310/86/55 104/86/55
f 117/14/56 324/34/56 118/34/56
f 136/43/57 343/110/57 137/110/57
f 57/100/58 264/58/58 58/58/58
f 188/169/59 395/173/59 189/173/59
f 18/46/60 225/47/60 19/47/60
f 7/55/61 214/78/61 8/78/61
f 163/174/62 370/170/62 164/170/62
f 175/104/63 382/115/63 176/115/63
f 125/35/64 332/13/64 126/13/64
f 137/110/65 344/27/65 138/27/65
f 79/121/66 286/114/66 80/114/66
f 90/177/67 297/77/67 91/77/67
f 151/122/68 358/71/68 152/71/68
f 32/171/69 239/175/69 33/175/69
f 102/45/70 309/111/70 103/111/70
f 116/16/71 323/14/71 117/14/71
f 189/173/72 396/178/72 190/178/72
f 42/199/73 249/5/73 43/5/73
f 66/176/74 273/172/74 67/172/74
f 176/115/75 383/125/75 177/125/75
f 126/13/76 333/54/76 127/54/76
f 138/27/77 345/28/77 139/28/77
f 162/84/78 369/174/78 163/174/78
f 56/66/79 263/100/79 57/100/79
f 19/47/80 226/113/80 20/113/80
f 127/54/81 334/65/81 128/65/81
f 78/126/82 285/121/82 79/121/82
f 115/44/83 322/16/83 116/16/83
f 150/124/84 357/122/84 151/122/84
f 33/175/85 240/85/85 34/85/85
f 101/112/86 308/45/86 102/45/86
f 190/178/87 397/184/87 191/184/87
f 8/78/88 215/23/88 9/23/88
f 139/28/89 346/204/89 140/204/89
f 161/165/90 368/84/90 162/84/90
f 89/67/91 296/177/91 90/177/91
f 177/125/92 384/127/92 178/127/92
f 140/204/93 347/62/93 141/62/93
f 65/179/94 272/176/94 66/176/94
f 149/190/95 356/124/95 150/124/95
f 20/113/96 227/134/96 21/134/96
f 128/65/97 335/31/97 129/31/97
f 77/129/98 284/126/98 78/126/98
f 114/11/99 321/44/99 115/44/99
f 55/41/100 262/66/100 56/66/100
f 34/85/101 241/83/101 35/83/101
f 100/128/102 307/112/102 101/112/102
f 191/184/103 398/117/103 192/117/103
f 129/31/104 336/56/104 130/56/104
f 43/5/105 250/72/105 44/72/105
f 160/167/106 367/165/106 161/165/106
f 178/127/107 385/133/107 179/133/107
f 9/23/108 216/97/108 10/97/108
f 141/62/109 348/187/109 142/187/109
f 64/183/110 271/179/110 65/179/110
f 113/10/111 320/11/111 114/11/111
f 148/203/112 355/190/112 149/190/112
f 21/134/113 228/135/113 22/135/113
f 76/136/114 283/129/114 77/129/114
f 88/69/115 295/67/115 89/67/115
f 35/83/116 242/98/116 36/98/116
f 142/187/117 349/64/117 143/64/117
f 99/137/118 306/128/118 100/128/118
f 192/117/119 399/91/119 193/91/119
f 130/56/120 337/57/120 131/57/120
f 143/64/121 350/206/121 144/206/121
f 159/189/122 366/167/122 160/167/122
f 112/99/123 319/10/123 113/10/123
f 147/185/124 354/203/124 148/203/124
f 179/133/125 386/138/125 180/138/125
f 54/201/126 261/41/126 55/41/126
f 36/98/127 243/166/127 37/166/127
f 22/135/128 229/139/128 23/139/128
f 131/57/129 338/76/129 132/76/129
f 63/116/130 270/183/130 64/183/130
f 75/140/131 282/136/131 76/136/131
f 10/97/132 217/93/132 11/93/132
f 144/206/133 351/38/133 145/38/133
f 98/141/134 305/137/134 99/137/134
f 87/80/135 294/69/135 88/69/135
f 146/186/136 353/185/136 147/185/136
f 193/91/137 400/92/137 194/92/137
f 158/52/138 365/189/138 159/189/138
f 180/138/139 387/142/139 181/142/139
f 132/76/140 339/68/140 133/68/140
f 44/72/141 251/70/141 45/70/141
f 111/25/142 318/99/142 112/99/142
f 37/166/143 244/53/143 38/53/143
f 23/139/144 230/143/144 24/143/144
f 145/38/145 352/186/145 146/186/145
f 62/90/146 269/116/146 63/116/146
f 74/144/147 281/140/147 75/140/147
f 53/26/148 260/201/148 54/201/148
f 97/119/149 304/141/149 98/141/149
f 194/92/150 401/192/150 195/192/150
f 133/68/151 340/60/151 134/60/151
f 157/103/152 364/52/152 158/52/152
f 45/70/153 252/123/153 46/123/153
f 181/142/154 388/145/154 182/145/154
f 11/93/155 218/82/155 12/82/155
f 52/61/156 259/26/156 53/26/156
f 110/24/157 317/25/157 111/25/157
f 195/192/158 402/181/158 196/181/158
f 24/143/159 231/120/159 25/120/159
f 73/146/160 280/144/160 74/144/160
f 86/89/161 293/80/161 87/80/161
f 46/123/162 253/202/162 47/202/162
f 196/181/163 403/182/163 197/182/163
f 51/63/164 258/61/164 52/61/164
f 72/147/165 279/146/165 73/146/165
f 109/96/166 316/24/166 110/24/166
f 197/182/167 404/193/167 198/193/167
f 47/202/168 254/205/168 48/205/168
f 198/193/169 405/194/169 199/194/169
f 182/145/170 389/148/170 183/148/170
f 12/82/171 219/74/171 13/74/171
f 50/40/172 257/63/172 51/63/172
f 169/149/173 303/119/173 97/119/173
f 85/94/174 292/89/174 86/89/174
f 199/194/175 406/131/175 200/131/175
f 49/39/176 256/40/176 50/40/176
f 108/81/177 315/96/177 109/96/177
f 48/205/178 255/39/178 49/39/178
f 200/131/179 407/132/179 201/132/179
f 25/120/180 232/118/180 26/118/180
f 201/132/181 408/150/181 202/150/181
f 26/118/182 233/152/182 27/152/182
f 13/74/183 220/200/183 14/200/183
f 96/1/184 207/2/184 1/2/184
f 84/49/185 291/94/185 85/94/185
f 202/150/186 409/151/186 203/151/186
f 183/148/187 390/153/187 184/153/187
f 1/2/188 208/21/188 2/21/188
f 168/154/189 375/149/189 169/149/189
f 107/73/190 314/81/190 108/81/190
f 203/151/191 410/188/191 204/188/191
f 2/21/192 209/29/192 3/29/192
f 71/155/193 278/147/193 72/147/193
f 95/7/194 302/1/194 96/1/194
f 204/188/195 411/191/195 205/191/195
f 170/79/196 377/95/196 171/95/196
f 61/180/197 268/90/197 62/90/197
f 206/59/198 376/79/198 170/79/198
f 27/152/199 234/156/199 28/156/199
f 3/29/200 210/15/200 4/15/200
f 94/12/201 301/7/201 95/7/201
f 205/191/202 412/59/202 206/59/202
f 184/153/203 391/157/203 185/157/203
f 14/200/204 221/108/204 15/108/204
f 167/158/205 374/154/205 168/154/205
f 83/101/206 290/49/206 84/49/206
f 38/53/207 245/51/207 39/51/207
f 4/15/208 211/36/208 5/36/208
f 70/159/3 276/159/3 277/155/3
f 93/30/4 299/30/4 300/12/4
f 156/195/5 362/195/5 363/103/5
f 171/95/6 377/95/6 378/50/6
f 106/75/7 312/75/7 313/73/7
f 60/130/8 266/130/8 267/180/8
f 28/156/9 234/156/9 235/160/9
f 5/36/10 211/36/10 212/9/10
f 92/32/11 298/32/11 299/30/11
f 155/197/12 361/197/12 362/195/12
f 185/157/13 391/157/13 392/161/13
f 15/108/14 221/108/14 222/87/14
f 166/18/15 372/18/15 373/158/15
f 82/105/16 288/105/16 289/101/16
f 39/51/17 245/51/17 246/102/17
f 69/162/18 275/162/18 276/159/18
f 59/196/19 265/196/19 266/130/19
f 172/50/20 378/50/20 379/48/20
f 6/9/21 212/9/21 213/55/21
f 105/107/22 311/107/22 312/75/22
f 91/77/23 297/77/23 298/32/23
f 154/4/24 360/4/24 361/197/24
f 29/160/25 235/160/25 236/19/25
f 186/161/26 392/161/26 393/163/26
f 16/87/27 222/87/27 223/88/27
f 121/33/28 327/33/28 328/3/28
f 40/102/29 246/102/29 247/198/29
f 165/164/30 371/164/30 372/18/30
f 120/20/31 326/20/31 327/33/31
f 173/48/32 379/48/32 380/106/32
f 134/60/33 340/60/33 341/42/33
f 81/109/34 287/109/34 288/105/34
f 153/6/35 359/6/35 360/4/35
f 30/19/36 236/19/36 237/17/36
f 122/3/37 328/3/37 329/37/37
f 68/168/38 274/168/38 275/162/38
f 104/86/39 310/86/39 311/107/39
f 119/22/40 325/22/40 326/20/40
f 58/58/41 264/58/41 265/196/41
f 187/163/42 393/163/42 394/169/42
f 17/88/43 223/88/43 224/46/43
f 123/37/44 329/37/44 330/8/44
f 135/42/45 341/42/45 342/43/45
f 164/170/46 370/170/46 371/164/46
f 118/34/47 324/34/47 325/22/47
f 174/106/48 380/106/48 381/104/48
f 41/198/49 247/198/49 248/199/49
f 80/114/50 286/114/50 287/109/50
f 152/71/51 358/71/51 359/6/51
f 31/17/52 237/17/52 238/171/52
f 124/8/53 330/8/53 331/35/53
f 67/172/54 273/172/54 274/168/54
f 103/111/55 309/111/55 310/86/55
f 117/14/56 323/14/56 324/34/56
f 136/43/57 342/43/57 343/110/57
f 57/100/58 263/100/58 264/58/58
f 188/169/59 394/169/59 395/173/59
f 18/46/60 224/46/60 225/47/60
f 7/55/61 213/55/61 214/78/61
f 163/174/62 369/174/62 370/170/62
f 175/104/63 381/104/63 382/115/63
f 125/35/64 331/35/64 332/13/64
f 137/110/209 343/110/209 344/27/209
f 79/121/66 285/121/66 286/114/66
f 90/177/67 296/177/67 297/77/67
f 151/122/68 357/122/68 358/71/68
f 32/171/69 238/171/69 239/175/69
f 102/45/70 308/45/70 309/111/70
f 116/16/71 322/16/71 323/14/71
f 189/173/72 395/173/72 396/178/72
f 42/199/73 248/199/73 249/5/73
f 66/176/74 272/176/74 273/172/74
f 176/115/75 382/115/75 383/125/75
f 126/13/76 332/13/76 333/54/76
f 138/27/77 344/27/77 345/28/77
f 162/84/210 368/84/210 369/174/210
f 56/66/79 262/66/79 263/100/79
f 19/47/80 225/47/80 226/113/80
f 127/54/81 333/54/81 334/65/81
f 78/126/82 284/126/82 285/121/82
f 115/44/83 321/44/83 322/16/83
f 150/124/84 356/124/84 357/122/84
f 33/175/85 239/175/85 240/85/85
f 101/112/86 307/112/86 308/45/86
f 190/178/87 396/178/87 397/184/87
f 8/78/88 214/78/88 215/23/88
f 139/28/89 345/28/89 346/204/89
f 161/165/90 367/165/90 368/84/90
f 89/67/91 295/67/91 296/177/91
f 177/125/92 383/125/92 384/127/92
f 140/204/93 346/204/93 347/62/93
f 65/179/94 271/179/94 272/176/94
f 149/190/95 355/190/95 356/124/95
f 20/113/96 226/113/96 227/134/96
f 128/65/97 334/65/97 335/31/97
f 77/129/98 283/129/98 284/126/98
f 114/11/99 320/11/99 321/44/99
f 55/41/100 261/41/100 262/66/100
f 34/85/101 240/85/101 241/83/101
f 100/128/102 306/128/102 307/112/102
f 191/184/103 397/184/103 398/117/103
f 129/31/104 335/31/104 336/56/104
f 43/5/105 249/5/105 250/72/105
f 160/167/106 366/167/106 367/165/106
f 178/127/107 384/127/107 385/133/107
f 9/23/108 215/23/108 216/97/108
f 141/62/109 347/62/109 348/187/109
f 64/183/110 270/183/110 271/179/110
f 113/10/111 319/10/111 320/11/111
f 148/203/112 354/203/112 355/190/112
f 21/134/113 227/134/113 228/135/113
f 76/136/114 282/136/114 283/129/114
f 88/69/115 294/69/115 295/67/115
f 35/83/116 241/83/116 242/98/116
f 142/187/117 348/187/117 349/64/117
f 99/137/118 305/137/118 306/128/118
f 192/117/119 398/117/119 399/91/119
f 130/56/120 336/56/120 337/57/120
f 143/64/121 349/64/121 350/206/121
f 159/189/122 365/189/122 366/167/122
f 112/99/123 318/99/123 319/10/123
f 147/185/124 353/185/124 354/203/124
f 179/133/125 385/133/125 386/138/125
f 54/201/126 260/201/126 261/41/126
f 36/98/127 242/98/127 243/166/127
f 22/135/128 228/135/128 229/139/128
f 131/57/129 337/57/129 338/76/129
f 63/116/130 269/116/130 270/183/130
f 75/140/131 281/140/131 282/136/131
f 10/97/132 216/97/132 217/93/132
f 144/206/133 350/206/133 351/38/133
f 98/141/134 304/141/134 305/137/134
f 87/80/135 293/80/135 294/69/135
f 146/186/136 352/186/136 353/185/136
f 193/91/137 399/91/137 400/92/137
f 158/52/138 364/52/138 365/189/138
f 180/138/139 386/138/139 387/142/139
f 132/76/140 338/76/140 339/68/140
f 44/72/141 250/72/141 251/70/141
f 111/25/142 317/25/142 318/99/142
f 37/166/143 243/166/143 244/53/143
f 23/139/144 229/139/144 230/143/144
f 145/38/145 351/38/145 352/186/145
f 62/90/146 268/90/146 269/116/146
f 74/144/147 280/144/147 281/140/147
f 53/26/148 259/26/148 260/201/148
f 97/119/149 303/119/149 304/141/149
f 194/92/211 400/92/211 401/192/211
f 133/68/151 339/68/151 340/60/151
f 157/103/152 363/103/152 364/52/152
f 45/70/153 251/70/153 252/123/153
f 181/142/154 387/142/154 388/145/154
f 11/93/155 217/93/155 218/82/155
f 52/61/156 258/61/156 259/26/156
f 110/24/157 316/24/157 317/25/157
f 195/192/158 401/192/158 402/181/158
f 24/143/159 230/143/159 231/120/159
f 73/146/160 279/146/160 280/144/160
f 86/89/161 292/89/161 293/80/161
f 46/123/162 252/123/162 253/202/162
f 196/181/212 402/181/212 403/182/212
f 51/63/164 257/63/164 258/61/164
f 72/147/165 278/147/165 279/146/165
f 109/96/166 315/96/166 316/24/166
f 197/182/167 403/182/167 404/193/167
f 47/202/168 253/202/168 254/205/168
f 198/193/169 404/193/169 405/194/169
f 182/145/170 388/145/170 389/148/170
f 12/82/171 218/82/171 219/74/171
f 50/40/172 256/40/172 257/63/172
f 169/149/173 375/149/173 303/119/173
f 85/94/174 291/94/174 292/89/174
f 199/194/175 405/194/175 406/131/175
f 49/39/176 255/39/176 256/40/176
f 108/81/177 314/81/177 315/96/177
f 48/205/178 254/205/178 255/39/178
f 200/131/179 406/131/179 407/132/179
f 25/120/180 231/120/180 232/118/180
f 201/132/181 407/132/181 408/150/181
f 26/118/182 232/118/182 233/152/182
f 13/74/183 219/74/183 220/200/183
f 96/1/184 302/1/184 207/2/184
f 84/49/185 290/49/185 291/94/185
f 202/150/186 408/150/186 409/151/186
f 183/148/187 389/148/187 390/153/187
f 1/2/188 207/2/188 208/21/188
f 168/154/189 374/154/189 375/149/189
f 107/73/190 313/73/190 314/81/190
f 203/151/191 409/151/191 410/188/191
f 2/21/192 208/21/192 209/29/192
f 71/155/193 277/155/193 278/147/193
f 95/7/194 301/7/194 302/1/194
f 204/188/195 410/188/195 411/191/195
f 170/79/196 376/79/196 377/95/196
f 61/180/197 267/180/197 268/90/197
f 206/59/198 412/59/198 376/79/198
f 27/152/199 233/152/199 234/156/199
f 3/29/200 209/29/200 210/15/200
f 94/12/201 300/12/201 301/7/201
f 205/191/202 411/191/202 412/59/202
f 184/153/203 390/153/203 391/157/203
f 14/200/204 220/200/204 221/108/204
f 167/158/205 373/158/205 374/154/205
f 83/101/206 289/101/206 290/49/206
f 38/53/207 244/53/207 245/51/207
f 4/15/208 210/15/208 211/36/208
