# Blender 4.5.8 LTS
# www.blender.org
mtllib text_e.mtl
o text_e
v 0.152923 0.119538 -0.050000
v 0.152923 -0.086154 -0.050000
v 0.144173 -0.088196 -0.050000
v 0.135872 -0.090372 -0.050000
v 0.128019 -0.092683 -0.050000
v 0.120615 -0.095128 -0.050000
v 0.113660 -0.097708 -0.050000
v 0.107154 -0.100423 -0.050000
v 0.101096 -0.103272 -0.050000
v 0.095487 -0.106256 -0.050000
v 0.090327 -0.109375 -0.050000
v 0.085615 -0.112628 -0.050000
v 0.081353 -0.116016 -0.050000
v 0.077538 -0.119538 -0.050000
v 0.051692 -0.145385 -0.050000
v 0.051692 -0.098000 -0.050000
v -0.052769 -0.098000 -0.050000
v -0.052657 -0.119329 -0.050000
v -0.052321 -0.139162 -0.050000
v -0.051760 -0.157500 -0.050000
v -0.050974 -0.174342 -0.050000
v -0.049965 -0.189688 -0.050000
v -0.048731 -0.203538 -0.050000
v -0.047272 -0.215893 -0.050000
v -0.045590 -0.226752 -0.050000
v -0.043683 -0.236115 -0.050000
v -0.041551 -0.243983 -0.050000
v -0.039196 -0.250355 -0.050000
v -0.036615 -0.255231 -0.050000
v -0.032214 -0.261767 -0.050000
v -0.027626 -0.267735 -0.050000
v -0.022851 -0.273135 -0.050000
v -0.017889 -0.277966 -0.050000
v -0.012740 -0.282229 -0.050000
v -0.007404 -0.285923 -0.050000
v -0.001881 -0.289049 -0.050000
v 0.003829 -0.291607 -0.050000
v 0.009726 -0.293596 -0.050000
v 0.015810 -0.295017 -0.050000
v 0.022081 -0.295870 -0.050000
v 0.028538 -0.296154 -0.050000
v 0.035004 -0.295974 -0.050000
v 0.041297 -0.295436 -0.050000
v 0.047418 -0.294538 -0.050000
v 0.053368 -0.293282 -0.050000
v 0.059145 -0.291667 -0.050000
v 0.064750 -0.289692 -0.050000
v 0.070183 -0.287359 -0.050000
v 0.075444 -0.284667 -0.050000
v 0.080534 -0.281615 -0.050000
v 0.085451 -0.278205 -0.050000
v 0.090196 -0.274436 -0.050000
v 0.094769 -0.270308 -0.050000
v 0.099092 -0.266269 -0.050000
v 0.103085 -0.262410 -0.050000
v 0.106750 -0.258731 -0.050000
v 0.110085 -0.255231 -0.050000
v 0.113092 -0.251910 -0.050000
v 0.115769 -0.248769 -0.050000
v 0.118118 -0.245808 -0.050000
v 0.120137 -0.243026 -0.050000
v 0.121827 -0.240423 -0.050000
v 0.123188 -0.238000 -0.050000
v 0.124220 -0.235756 -0.050000
v 0.124923 -0.233692 -0.050000
v 0.140000 -0.184154 -0.050000
v 0.140000 -0.313385 -0.050000
v 0.025846 -0.313385 -0.050000
v 0.014456 -0.313138 -0.050000
v 0.003261 -0.312397 -0.050000
v -0.007740 -0.311163 -0.050000
v -0.018547 -0.309436 -0.050000
v -0.029159 -0.307215 -0.050000
v -0.039577 -0.304500 -0.050000
v -0.049800 -0.301292 -0.050000
v -0.059829 -0.297590 -0.050000
v -0.069663 -0.293394 -0.050000
v -0.079303 -0.288705 -0.050000
v -0.088749 -0.283522 -0.050000
v -0.098000 -0.277846 -0.050000
v -0.106772 -0.271198 -0.050000
v -0.114782 -0.263098 -0.050000
v -0.122029 -0.253548 -0.050000
v -0.128513 -0.242547 -0.050000
v -0.134234 -0.230095 -0.050000
v -0.139192 -0.216192 -0.050000
v -0.143388 -0.200839 -0.050000
v -0.146820 -0.184034 -0.050000
v -0.149490 -0.165779 -0.050000
v -0.151397 -0.146073 -0.050000
v -0.152542 -0.124916 -0.050000
v -0.152923 -0.102308 -0.050000
v -0.152474 -0.079446 -0.050000
v -0.151128 -0.057885 -0.050000
v -0.148885 -0.037625 -0.050000
v -0.145744 -0.018667 -0.050000
v -0.141705 -0.001010 -0.050000
v -0.136769 0.015346 -0.050000
v -0.130936 0.030401 -0.050000
v -0.124205 0.044154 -0.050000
v -0.116577 0.056606 -0.050000
v -0.108051 0.067756 -0.050000
v -0.098628 0.077606 -0.050000
v -0.088308 0.086154 -0.050000
v -0.080620 0.091486 -0.050000
v -0.072632 0.096355 -0.050000
v -0.064346 0.100760 -0.050000
v -0.055761 0.104701 -0.050000
v -0.046876 0.108178 -0.050000
v -0.037692 0.111192 -0.050000
v -0.028209 0.113743 -0.050000
v -0.018427 0.115829 -0.050000
v -0.008346 0.117452 -0.050000
v 0.002034 0.118611 -0.050000
v 0.012714 0.119307 -0.050000
v 0.023692 0.119538 -0.050000
v -0.052769 -0.074308 -0.050000
v 0.051692 -0.074308 -0.050000
v 0.051692 0.102308 -0.050000
v 0.006462 0.102308 -0.050000
v -0.002341 0.101081 -0.050000
v -0.010440 0.097402 -0.050000
v -0.017837 0.091269 -0.050000
v -0.024530 0.082684 -0.050000
v -0.030520 0.071645 -0.050000
v -0.035808 0.058154 -0.050000
v -0.040392 0.042209 -0.050000
v -0.044273 0.023812 -0.050000
v -0.047452 0.002962 -0.050000
v -0.049927 -0.020342 -0.050000
v -0.051700 -0.046098 -0.050000
v 0.152923 0.119538 0.050000
v 0.152923 -0.086154 0.050000
v 0.144173 -0.088196 0.050000
v 0.135872 -0.090372 0.050000
v 0.128019 -0.092683 0.050000
v 0.120615 -0.095128 0.050000
v 0.113660 -0.097708 0.050000
v 0.107154 -0.100423 0.050000
v 0.101096 -0.103272 0.050000
v 0.095487 -0.106256 0.050000
v 0.090327 -0.109375 0.050000
v 0.085615 -0.112628 0.050000
v 0.081353 -0.116016 0.050000
v 0.077538 -0.119538 0.050000
v 0.051692 -0.145385 0.050000
v 0.051692 -0.098000 0.050000
v -0.052769 -0.098000 0.050000
v -0.052657 -0.119329 0.050000
v -0.052321 -0.139162 0.050000
v -0.051760 -0.157500 0.050000
v -0.050974 -0.174342 0.050000
v -0.049965 -0.189688 0.050000
v -0.048731 -0.203538 0.050000
v -0.047272 -0.215893 0.050000
v -0.045590 -0.226752 0.050000
v -0.043683 -0.236115 0.050000
v -0.041551 -0.243983 0.050000
v -0.039196 -0.250355 0.050000
v -0.036615 -0.255231 0.050000
v -0.032214 -0.261767 0.050000
v -0.027626 -0.267735 0.050000
v -0.022851 -0.273135 0.050000
v -0.017889 -0.277966 0.050000
v -0.012740 -0.282229 0.050000
v -0.007404 -0.285923 0.050000
v -0.001881 -0.289049 0.050000
v 0.003829 -0.291607 0.050000
v 0.009726 -0.293596 0.050000
v 0.015810 -0.295017 0.050000
v 0.022081 -0.295870 0.050000
v 0.028538 -0.296154 0.050000
v 0.035004 -0.295974 0.050000
v 0.041297 -0.295436 0.050000
v 0.047418 -0.294538 0.050000
v 0.053368 -0.293282 0.050000
v 0.059145 -0.291667 0.050000
v 0.064750 -0.289692 0.050000
v 0.070183 -0.287359 0.050000
v 0.075444 -0.284667 0.050000
v 0.080534 -0.281615 0.050000
v 0.085451 -0.278205 0.050000
v 0.090196 -0.274436 0.050000
v 0.094769 -0.270308 0.050000
v 0.099092 -0.266269 0.050000
v 0.103085 -0.262410 0.050000
v 0.106750 -0.258731 0.050000
v 0.110085 -0.255231 0.050000
v 0.113092 -0.251910 0.050000
v 0.115769 -0.248769 0.050000
v 0.118118 -0.245808 0.050000
v 0.120137 -0.243026 0.050000
v 0.121827 -0.240423 0.050000
v 0.123188 -0.238000 0.050000
v 0.124220 -0.235756 0.050000
v 0.124923 -0.233692 0.050000
v 0.140000 -0.184154 0.050000
v 0.140000 -0.313385 0.050000
v 0.025846 -0.313385 0.050000
v 0.014456 -0.313138 0.050000
v 0.003261 -0.312397 0.050000
v -0.007740 -0.311163 0.050000
v -0.018547 -0.309436 0.050000
v -0.029159 -0.307215 0.050000
v -0.039577 -0.304500 0.050000
v -0.049800 -0.301292 0.050000
v -0.059829 -0.297590 0.050000
v -0.069663 -0.293394 0.050000
v -0.079303 -0.288705 0.050000
v -0.088749 -0.283522 0.050000
v -0.098000 -0.277846 0.050000
v -0.106772 -0.271198 0.050000
v -0.114782 -0.263098 0.050000
v -0.122029 -0.253548 0.050000
v -0.128513 -0.242547 0.050000
v -0.134234 -0.230095 0.050000
v -0.139192 -0.216192 0.050000
v -0.143388 -0.200839 0.050000
v -0.146820 -0.184034 0.050000
v -0.149490 -0.165779 0.050000
v -0.151397 -0.146073 0.050000
v -0.152542 -0.124916 0.050000
v -0.152923 -0.102308 0.050000
v -0.152474 -0.079446 0.050000
v -0.151128 -0.057885 0.050000
v -0.148885 -0.037625 0.050000
v -0.145744 -0.018667 0.050000
v -0.141705 -0.001010 0.050000
v -0.136769 0.015346 0.050000
v -0.130936 0.030401 0.050000
v -0.124205 0.044154 0.050000
v -0.116577 0.056606 0.050000
v -0.108051 0.067756 0.050000
v -0.098628 0.077606 0.050000
v -0.088308 0.086154 0.050000
v -0.080620 0.091486 0.050000
v -0.072632 0.096355 0.050000
v -0.064346 0.100760 0.050000
v -0.055761 0.104701 0.050000
v -0.046876 0.108178 0.050000
v -0.037692 0.111192 0.050000
v -0.028209 0.113743 0.050000
v -0.018427 0.115829 0.050000
v -0.008346 0.117452 0.050000
v 0.002034 0.118611 0.050000
v 0.012714 0.119307 0.050000
v 0.023692 0.119538 0.050000
v -0.052769 -0.074308 0.050000
v 0.051692 -0.074308 0.050000
v 0.051692 0.102308 0.050000
v 0.006462 0.102308 0.050000
v -0.002341 0.101081 0.050000
v -0.010440 0.097402 0.050000
v -0.017837 0.091269 0.050000
v -0.024530 0.082684 0.050000
v -0.030520 0.071645 0.050000
v -0.035808 0.058154 0.050000
v -0.040392 0.042209 0.050000
v -0.044273 0.023812 0.050000
v -0.047452 0.002962 0.050000
v -0.049927 -0.020342 0.050000
v -0.051700 -0.046098 0.050000
vn -0.0000 -0.0000 -1.0000
vn -0.0000 -0.0000 1.0000
vn 0.9931 0.1172 -0.0000
vn 0.2823 -0.9593 -0.0000
vn 0.7886 -0.6148 -0.0000
vn -0.3463 -0.9381 -0.0000
vn -0.6040 -0.7970 -0.0000
vn -0.6379 0.7701 -0.0000
vn 0.9882 0.1531 -0.0000
vn 0.3136 -0.9495 -0.0000
vn -0.9419 -0.3359 -0.0000
vn -0.2994 -0.9541 -0.0000
vn 0.3478 -0.9376 -0.0000
vn 0.6976 0.7165 -0.0000
vn 0.8789 -0.4770 -0.0000
vn -0.2522 -0.9677 -0.0000
vn -0.0000 -1.0000 -0.0000
vn -0.6220 0.7830 -0.0000
vn -0.7226 0.6913 -0.0000
vn 0.9799 0.1996 -0.0000
vn -0.9087 -0.4175 -0.0000
vn -0.2049 -0.9788 -0.0000
vn -0.5230 -0.8523 -0.0000
vn 0.3851 -0.9229 -0.0000
vn 0.9311 -0.3649 -0.0000
vn -0.9466 0.3224 -0.0000
vn -0.1579 -0.9875 -0.0000
vn -0.7944 0.6074 -0.0000
vn 1.0000 0.0053 -0.0000
vn 0.6377 0.7703 -0.0000
vn -0.9085 0.4179 -0.0000
vn -0.1115 -0.9938 -0.0000
vn -1.0000 -0.0000 -0.0000
vn -0.5699 0.8217 -0.0000
vn -0.0211 0.9998 -0.0000
vn 0.7071 -0.7071 -0.0000
vn 0.9611 -0.2763 -0.0000
vn -0.0660 -0.9978 -0.0000
vn -0.5142 0.8577 -0.0000
vn -0.8527 0.5224 -0.0000
vn 0.9652 0.2615 -0.0000
vn -0.0000 1.0000 -0.0000
vn 0.6785 -0.7346 -0.0000
vn -0.8719 0.4897 -0.0000
vn -0.0217 -0.9998 -0.0000
vn -0.8982 0.4396 -0.0000
vn 0.6222 -0.7829 -0.0000
vn 0.5692 0.8222 -0.0000
vn -0.8387 0.5447 -0.0000
vn -0.4810 -0.8767 -0.0000
vn 1.0000 -0.0000 -0.0000
vn 0.5682 -0.8229 -0.0000
vn 0.9785 -0.2064 -0.0000
vn -0.8615 -0.5078 -0.0000
vn -0.0650 0.9979 -0.0000
vn -0.4555 0.8902 -0.0000
vn -0.9324 0.3613 -0.0000
vn 0.5172 -0.8558 -0.0000
vn -0.8093 0.5874 -0.0000
vn -0.1110 0.9938 -0.0000
vn 0.4697 -0.8828 -0.0000
vn 0.4926 0.8703 -0.0000
vn 0.9886 -0.1507 -0.0000
vn -0.1589 0.9873 -0.0000
vn -0.3946 0.9188 -0.0000
vn -0.9574 0.2889 -0.0000
vn 0.9379 0.3468 -0.0000
vn 0.4256 -0.9049 -0.0000
vn -0.7836 0.6213 -0.0000
vn -0.2086 0.9780 -0.0000
vn -0.9999 -0.0169 -0.0000
vn -0.4374 -0.8993 -0.0000
vn 0.9944 -0.1056 -0.0000
vn -0.7610 0.6487 -0.0000
vn -0.2597 0.9657 -0.0000
vn -0.9748 0.2230 -0.0000
vn 0.9999 0.0170 -0.0000
vn 0.4088 0.9126 -0.0000
vn -0.3118 0.9501 -0.0000
vn -0.9985 -0.0540 -0.0000
vn -0.3322 0.9432 -0.0000
vn -0.9866 0.1635 -0.0000
vn 0.8839 0.4677 -0.0000
vn -0.7413 0.6712 -0.0000
vn -0.3645 0.9312 -0.0000
vn 0.9995 0.0306 -0.0000
vn 0.3196 0.9475 -0.0000
vn 0.9976 -0.0687 -0.0000
vn -0.7966 -0.6045 -0.0000
vn -0.4172 0.9088 -0.0000
vn -0.9954 -0.0963 -0.0000
vn -0.2693 0.9631 -0.0000
vn -0.9939 0.1101 -0.0000
vn -0.2066 0.9784 -0.0000
vn 0.8295 0.5585 -0.0000
vn 0.9989 0.0466 -0.0000
vn 0.9993 -0.0379 -0.0000
vn -0.7239 0.6899 -0.0000
vn -0.9895 -0.1447 -0.0000
vn -0.3924 -0.9198 -0.0000
vn -0.9981 0.0623 -0.0000
vn 0.1380 -0.9904 -0.0000
vn -0.7085 0.7057 -0.0000
vn 0.9978 0.0656 -0.0000
vn 0.2274 0.9738 -0.0000
vn -0.9798 -0.2001 -0.0000
vn -0.1451 0.9894 -0.0000
vn 0.7928 0.6095 -0.0000
vn 0.4136 -0.9105 -0.0000
vn -0.9998 0.0196 -0.0000
vn -0.6949 0.7191 -0.0000
vn -0.4694 0.8830 -0.0000
vn -0.9567 0.2912 -0.0000
vn 0.1347 0.9909 -0.0000
vn -0.7110 -0.7032 -0.0000
vn -0.0853 0.9964 -0.0000
vn 0.2272 -0.9738 -0.0000
vn 0.6383 -0.7698 -0.0000
vn -0.6827 0.7307 -0.0000
vn -0.5205 0.8539 -0.0000
vn 0.9961 0.0887 -0.0000
vn -0.9646 -0.2636 -0.0000
vn 0.0440 0.9990 -0.0000
vn -0.0278 0.9996 -0.0000
vn 0.2536 -0.9673 -0.0000
vn 0.7491 0.6625 -0.0000
vn -0.6701 0.7423 -0.0000
vn -0.8387 0.5446 -0.0000
vt 0.876923 0.000000
vt 0.884615 0.000000
vt 0.915385 0.000000
vt 0.292308 0.000000
vt 0.523077 0.000000
vt 0.284615 0.000000
vt 0.907692 0.000000
vt 0.000000 0.000000
vt 0.015385 0.000000
vt 0.869231 0.000000
vt 0.861538 0.000000
vt 0.923077 0.000000
vt 0.853846 0.000000
vt 0.930769 0.000000
vt 0.846154 0.000000
vt 0.200000 0.000000
vt 0.607692 0.000000
vt 0.192308 0.000000
vt 0.623077 0.000000
vt 0.184615 0.000000
vt 0.823077 0.000000
vt 0.953846 0.000000
vt 0.815385 0.000000
vt 0.630769 0.000000
vt 0.176923 0.000000
vt 0.669231 0.000000
vt 0.146154 0.000000
vt 0.153846 0.000000
vt 0.938462 0.000000
vt 0.838462 0.000000
vt 0.615385 0.000000
vt 0.800000 0.000000
vt 0.807692 0.000000
vt 0.961538 0.000000
vt 0.946154 0.000000
vt 0.784615 0.000000
vt 0.792308 0.000000
vt 0.969231 0.000000
vt 0.776923 0.000000
vt 0.515385 0.000000
vt 0.346154 0.000000
vt 0.507692 0.000000
vt 0.769231 0.000000
vt 0.976923 0.000000
vt 0.653846 0.000000
vt 0.161538 0.000000
vt 0.169231 0.000000
vt 0.761538 0.000000
vt 0.753846 0.000000
vt 0.984615 0.000000
vt 0.223077 0.000000
vt 0.584615 0.000000
vt 0.215385 0.000000
vt 0.746154 0.000000
vt 0.592308 0.000000
vt 0.207692 0.000000
vt 0.738462 0.000000
vt 0.992308 0.000000
vt 0.730769 0.000000
vt 0.723077 0.000000
vt 1.000000 0.000000
vt 0.123077 0.000000
vt 0.707692 0.000000
vt 0.892308 0.000000
vt 0.715385 0.000000
vt 0.700000 0.000000
vt 0.646154 0.000000
vt 0.638462 0.000000
vt 0.569231 0.000000
vt 0.230769 0.000000
vt 0.238462 0.000000
vt 0.023077 0.000000
vt 0.030769 0.000000
vt 0.900000 0.000000
vt 0.038462 0.000000
vt 0.046154 0.000000
vt 0.053846 0.000000
vt 0.130769 0.000000
vt 0.107692 0.000000
vt 0.115385 0.000000
vt 0.100000 0.000000
vt 0.092308 0.000000
vt 0.084615 0.000000
vt 0.076923 0.000000
vt 0.069231 0.000000
vt 0.061538 0.000000
vt 0.692308 0.000000
vt 0.138462 0.000000
vt 0.684615 0.000000
vt 0.676923 0.000000
vt 0.661538 0.000000
vt 0.538462 0.000000
vt 0.261538 0.000000
vt 0.269231 0.000000
vt 0.492308 0.000000
vt 0.500000 0.000000
vt 0.600000 0.000000
vt 0.830769 0.000000
vt 0.484615 0.000000
vt 0.476923 0.000000
vt 0.253846 0.000000
vt 0.546154 0.000000
vt 0.553846 0.000000
vt 0.469231 0.000000
vt 0.461538 0.000000
vt 0.453846 0.000000
vt 0.446154 0.000000
vt 0.438462 0.000000
vt 0.430769 0.000000
vt 0.576923 0.000000
vt 0.423077 0.000000
vt 0.415385 0.000000
vt 0.407692 0.000000
vt 0.400000 0.000000
vt 0.392308 0.000000
vt 0.384615 0.000000
vt 0.530769 0.000000
vt 0.376923 0.000000
vt 0.369231 0.000000
vt 0.007692 0.000000
vt 0.361538 0.000000
vt 0.353846 0.000000
vt 0.561538 0.000000
vt 0.246154 0.000000
vt 0.338462 0.000000
vt 0.330769 0.000000
vt 0.276923 0.000000
vt 0.323077 0.000000
vt 0.315385 0.000000
vt 0.307692 0.000000
vt 0.300000 0.000000
s 0
f 115/1/1 116/2/1 120/3/1
f 39/4/1 69/5/1 38/6/1
f 119/7/1 1/8/1 3/9/1
f 114/10/1 115/1/1 120/3/1
f 113/11/1 114/10/1 121/12/1
f 112/13/1 113/11/1 122/14/1
f 111/15/1 112/13/1 122/14/1
f 27/16/1 80/17/1 26/18/1
f 26/18/1 82/19/1 25/20/1
f 121/12/1 114/10/1 120/3/1
f 108/21/1 125/22/1 107/23/1
f 120/3/1 116/2/1 119/7/1
f 25/20/1 83/24/1 24/25/1
f 88/26/1 20/27/1 21/28/1
f 111/15/1 123/29/1 110/30/1
f 122/14/1 113/11/1 121/12/1
f 26/18/1 81/31/1 82/19/1
f 105/32/1 106/33/1 126/34/1
f 124/35/1 125/22/1 108/21/1
f 123/29/1 124/35/1 110/30/1
f 103/36/1 104/37/1 127/38/1
f 107/23/1 125/22/1 106/33/1
f 102/39/1 103/36/1 127/38/1
f 68/40/1 46/41/1 67/42/1
f 101/43/1 102/39/1 128/44/1
f 86/45/1 22/46/1 23/47/1
f 100/48/1 101/43/1 128/44/1
f 99/49/1 100/48/1 129/50/1
f 30/51/1 77/52/1 29/53/1
f 98/54/1 99/49/1 129/50/1
f 29/53/1 78/55/1 28/56/1
f 97/57/1 98/54/1 130/58/1
f 26/18/1 80/17/1 81/31/1
f 96/59/1 97/57/1 130/58/1
f 95/60/1 96/59/1 131/61/1
f 17/62/1 93/63/1 117/64/1
f 94/65/1 95/60/1 131/61/1
f 94/65/1 131/61/1 117/64/1
f 93/63/1 94/65/1 117/64/1
f 92/66/1 93/63/1 17/62/1
f 119/7/1 116/2/1 1/8/1
f 85/67/1 23/47/1 24/25/1
f 85/67/1 24/25/1 84/68/1
f 75/69/1 31/70/1 32/71/1
f 3/9/1 4/72/1 119/7/1
f 4/72/1 5/73/1 118/74/1
f 5/73/1 6/75/1 118/74/1
f 6/75/1 7/76/1 118/74/1
f 129/50/1 100/48/1 128/44/1
f 7/76/1 8/77/1 118/74/1
f 92/66/1 17/62/1 18/78/1
f 15/79/1 16/80/1 14/81/1
f 14/81/1 16/80/1 13/82/1
f 13/82/1 16/80/1 12/83/1
f 12/83/1 16/80/1 11/84/1
f 10/85/1 11/84/1 118/74/1
f 9/86/1 10/85/1 118/74/1
f 8/77/1 9/86/1 118/74/1
f 91/87/1 92/66/1 18/78/1
f 91/87/1 18/78/1 19/88/1
f 90/89/1 91/87/1 19/88/1
f 90/89/1 19/88/1 20/27/1
f 89/90/1 90/89/1 20/27/1
f 89/90/1 20/27/1 88/26/1
f 246/1/2 251/3/2 247/2/2
f 88/26/1 21/28/1 87/91/1
f 71/92/1 35/93/1 36/94/1
f 65/95/1 66/96/1 67/42/1
f 87/91/1 22/46/1 86/45/1
f 25/20/1 82/19/1 83/24/1
f 86/45/1 23/47/1 85/67/1
f 28/56/1 78/55/1 79/97/1
f 109/98/1 124/35/1 108/21/1
f 127/38/1 104/37/1 126/34/1
f 110/30/1 124/35/1 109/98/1
f 64/99/1 65/95/1 67/42/1
f 63/100/1 64/99/1 67/42/1
f 34/101/1 72/102/1 73/103/1
f 62/104/1 63/100/1 67/42/1
f 61/105/1 62/104/1 67/42/1
f 118/74/1 11/84/1 16/80/1
f 60/106/1 61/105/1 67/42/1
f 28/56/1 79/97/1 27/16/1
f 59/107/1 60/106/1 67/42/1
f 58/108/1 59/107/1 67/42/1
f 131/61/1 96/59/1 130/58/1
f 57/109/1 58/108/1 67/42/1
f 35/93/1 72/102/1 34/101/1
f 76/110/1 30/51/1 31/70/1
f 56/111/1 57/109/1 67/42/1
f 55/112/1 56/111/1 67/42/1
f 87/91/1 21/28/1 22/46/1
f 54/113/1 55/112/1 67/42/1
f 29/53/1 77/52/1 78/55/1
f 53/114/1 54/113/1 67/42/1
f 27/16/1 79/97/1 80/17/1
f 52/115/1 53/114/1 67/42/1
f 105/32/1 126/34/1 104/37/1
f 130/58/1 98/54/1 129/50/1
f 51/116/1 52/115/1 67/42/1
f 38/6/1 69/5/1 70/117/1
f 126/34/1 106/33/1 125/22/1
f 50/118/1 51/116/1 67/42/1
f 49/119/1 50/118/1 67/42/1
f 77/52/1 30/51/1 76/110/1
f 3/9/1 1/8/1 2/120/1
f 48/121/1 49/119/1 67/42/1
f 76/110/1 31/70/1 75/69/1
f 47/122/1 48/121/1 67/42/1
f 74/123/1 32/71/1 33/124/1
f 75/69/1 32/71/1 74/123/1
f 46/41/1 47/122/1 67/42/1
f 33/124/1 73/103/1 74/123/1
f 45/125/1 46/41/1 68/40/1
f 44/126/1 45/125/1 68/40/1
f 37/127/1 70/117/1 71/92/1
f 119/7/1 4/72/1 118/74/1
f 43/128/1 44/126/1 68/40/1
f 34/101/1 73/103/1 33/124/1
f 42/129/1 43/128/1 68/40/1
f 24/25/1 83/24/1 84/68/1
f 41/130/1 42/129/1 68/40/1
f 37/127/1 71/92/1 36/94/1
f 128/44/1 102/39/1 127/38/1
f 72/102/1 35/93/1 71/92/1
f 40/131/1 69/5/1 39/4/1
f 40/131/1 68/40/1 69/5/1
f 38/6/1 70/117/1 37/127/1
f 41/130/1 68/40/1 40/131/1
f 17/62/1 117/64/1 118/74/1
f 122/14/1 123/29/1 111/15/1
f 118/74/1 16/80/1 17/62/1
f 170/4/2 169/6/2 200/5/2
f 250/7/2 134/9/2 132/8/2
f 245/10/2 251/3/2 246/1/2
f 244/11/2 252/12/2 245/10/2
f 243/13/2 253/14/2 244/11/2
f 242/15/2 253/14/2 243/13/2
f 158/16/2 157/18/2 211/17/2
f 157/18/2 156/20/2 213/19/2
f 252/12/2 251/3/2 245/10/2
f 239/21/2 238/23/2 256/22/2
f 251/3/2 250/7/2 247/2/2
f 156/20/2 155/25/2 214/24/2
f 219/26/2 152/28/2 151/27/2
f 242/15/2 241/30/2 254/29/2
f 253/14/2 252/12/2 244/11/2
f 157/18/2 213/19/2 212/31/2
f 236/32/2 257/34/2 237/33/2
f 255/35/2 239/21/2 256/22/2
f 254/29/2 241/30/2 255/35/2
f 234/36/2 258/38/2 235/37/2
f 238/23/2 237/33/2 256/22/2
f 233/39/2 258/38/2 234/36/2
f 199/40/2 198/42/2 177/41/2
f 232/43/2 259/44/2 233/39/2
f 217/45/2 154/47/2 153/46/2
f 231/48/2 259/44/2 232/43/2
f 230/49/2 260/50/2 231/48/2
f 161/51/2 160/53/2 208/52/2
f 229/54/2 260/50/2 230/49/2
f 160/53/2 159/56/2 209/55/2
f 228/57/2 261/58/2 229/54/2
f 157/18/2 212/31/2 211/17/2
f 227/59/2 261/58/2 228/57/2
f 226/60/2 262/61/2 227/59/2
f 148/62/2 248/64/2 224/63/2
f 225/65/2 262/61/2 226/60/2
f 225/65/2 248/64/2 262/61/2
f 224/63/2 248/64/2 225/65/2
f 223/66/2 148/62/2 224/63/2
f 250/7/2 132/8/2 247/2/2
f 216/67/2 155/25/2 154/47/2
f 216/67/2 215/68/2 155/25/2
f 206/69/2 163/71/2 162/70/2
f 134/9/2 250/7/2 135/72/2
f 135/72/2 249/74/2 136/73/2
f 136/73/2 249/74/2 137/75/2
f 137/75/2 249/74/2 138/76/2
f 260/50/2 259/44/2 231/48/2
f 138/76/2 249/74/2 139/77/2
f 223/66/2 149/78/2 148/62/2
f 146/79/2 145/81/2 147/80/2
f 145/81/2 144/82/2 147/80/2
f 144/82/2 143/83/2 147/80/2
f 143/83/2 142/84/2 147/80/2
f 141/85/2 249/74/2 142/84/2
f 140/86/2 249/74/2 141/85/2
f 139/77/2 249/74/2 140/86/2
f 222/87/2 149/78/2 223/66/2
f 222/87/2 150/88/2 149/78/2
f 221/89/2 150/88/2 222/87/2
f 221/89/2 151/27/2 150/88/2
f 220/90/2 151/27/2 221/89/2
f 220/90/2 219/26/2 151/27/2
f 219/26/2 218/91/2 152/28/2
f 202/92/2 167/94/2 166/93/2
f 196/95/2 198/42/2 197/96/2
f 218/91/2 217/45/2 153/46/2
f 156/20/2 214/24/2 213/19/2
f 217/45/2 216/67/2 154/47/2
f 159/56/2 210/97/2 209/55/2
f 240/98/2 239/21/2 255/35/2
f 258/38/2 257/34/2 235/37/2
f 241/30/2 240/98/2 255/35/2
f 195/99/2 198/42/2 196/95/2
f 194/100/2 198/42/2 195/99/2
f 165/101/2 204/103/2 203/102/2
f 193/104/2 198/42/2 194/100/2
f 192/105/2 198/42/2 193/104/2
f 249/74/2 147/80/2 142/84/2
f 191/106/2 198/42/2 192/105/2
f 159/56/2 158/16/2 210/97/2
f 190/107/2 198/42/2 191/106/2
f 189/108/2 198/42/2 190/107/2
f 262/61/2 261/58/2 227/59/2
f 188/109/2 198/42/2 189/108/2
f 166/93/2 165/101/2 203/102/2
f 207/110/2 162/70/2 161/51/2
f 187/111/2 198/42/2 188/109/2
f 186/112/2 198/42/2 187/111/2
f 218/91/2 153/46/2 152/28/2
f 185/113/2 198/42/2 186/112/2
f 160/53/2 209/55/2 208/52/2
f 184/114/2 198/42/2 185/113/2
f 158/16/2 211/17/2 210/97/2
f 183/115/2 198/42/2 184/114/2
f 236/32/2 235/37/2 257/34/2
f 261/58/2 260/50/2 229/54/2
f 182/116/2 198/42/2 183/115/2
f 169/6/2 201/117/2 200/5/2
f 257/34/2 256/22/2 237/33/2
f 181/118/2 198/42/2 182/116/2
f 180/119/2 198/42/2 181/118/2
f 208/52/2 207/110/2 161/51/2
f 134/9/2 133/120/2 132/8/2
f 179/121/2 198/42/2 180/119/2
f 207/110/2 206/69/2 162/70/2
f 178/122/2 198/42/2 179/121/2
f 205/123/2 164/124/2 163/71/2
f 206/69/2 205/123/2 163/71/2
f 177/41/2 198/42/2 178/122/2
f 164/124/2 205/123/2 204/103/2
f 176/125/2 199/40/2 177/41/2
f 175/126/2 199/40/2 176/125/2
f 168/127/2 202/92/2 201/117/2
f 250/7/2 249/74/2 135/72/2
f 174/128/2 199/40/2 175/126/2
f 165/101/2 164/124/2 204/103/2
f 173/129/2 199/40/2 174/128/2
f 155/25/2 215/68/2 214/24/2
f 172/130/2 199/40/2 173/129/2
f 168/127/2 167/94/2 202/92/2
f 259/44/2 258/38/2 233/39/2
f 203/102/2 202/92/2 166/93/2
f 171/131/2 170/4/2 200/5/2
f 171/131/2 200/5/2 199/40/2
f 169/6/2 168/127/2 201/117/2
f 172/130/2 171/131/2 199/40/2
f 148/62/2 249/74/2 248/64/2
f 253/14/2 242/15/2 254/29/2
f 249/74/2 148/62/2 147/80/2
f 23/47/3 155/25/3 24/25/3
f 4/72/4 136/73/4 5/73/4
f 123/29/5 255/35/5 124/35/5
f 75/69/6 207/110/6 76/110/6
f 80/17/7 212/31/7 81/31/7
f 103/36/8 235/37/8 104/37/8
f 24/25/9 156/20/9 25/20/9
f 5/73/10 137/75/10 6/75/10
f 85/67/11 217/45/11 86/45/11
f 74/123/12 206/69/12 75/69/12
f 6/75/13 138/76/13 7/76/13
f 32/71/14 164/124/14 33/124/14
f 124/35/15 256/22/15 125/22/15
f 73/103/16 205/123/16 74/123/16
f 16/80/17 148/62/17 17/62/17
f 51/116/18 183/115/18 52/115/18
f 102/39/19 234/36/19 103/36/19
f 25/20/20 157/18/20 26/18/20
f 84/68/21 216/67/21 85/67/21
f 72/102/22 204/103/22 73/103/22
f 79/97/23 211/17/23 80/17/23
f 7/76/24 139/77/24 8/77/24
f 125/22/25 257/34/25 126/34/25
f 64/99/26 196/95/26 65/95/26
f 71/92/27 203/102/27 72/102/27
f 101/43/28 233/39/28 102/39/28
f 17/62/29 149/78/29 18/78/29
f 33/124/30 165/101/30 34/101/30
f 63/100/31 195/99/31 64/99/31
f 70/117/32 202/92/32 71/92/32
f 15/79/33 147/80/33 16/80/33
f 50/118/34 182/116/34 51/116/34
f 115/1/35 247/2/35 116/2/35
f 14/81/36 146/79/36 15/79/36
f 126/34/37 258/38/37 127/38/37
f 69/5/38 201/117/38 70/117/38
f 49/119/39 181/118/39 50/118/39
f 100/48/40 232/43/40 101/43/40
f 26/18/41 158/16/41 27/16/41
f 116/2/42 132/8/42 1/8/42
f 13/82/43 145/81/43 14/81/43
f 62/104/44 194/100/44 63/100/44
f 68/40/45 200/5/45 69/5/45
f 99/49/46 231/48/46 100/48/46
f 67/42/17 199/40/17 68/40/17
f 12/83/47 144/82/47 13/82/47
f 34/101/48 166/93/48 35/93/48
f 61/105/49 193/104/49 62/104/49
f 78/55/50 210/97/50 79/97/50
f 1/8/51 133/120/51 2/120/51
f 11/84/52 143/83/52 12/83/52
f 127/38/53 259/44/53 128/44/53
f 83/24/54 215/68/54 84/68/54
f 114/10/55 246/1/55 115/1/55
f 48/121/56 180/119/56 49/119/56
f 98/54/57 230/49/57 99/49/57
f 10/85/58 142/84/58 11/84/58
f 60/106/59 192/105/59 61/105/59
f 113/11/60 245/10/60 114/10/60
f 9/86/61 141/85/61 10/85/61
f 35/93/62 167/94/62 36/94/62
f 128/44/63 260/50/63 129/50/63
f 112/13/64 244/11/64 113/11/64
f 47/122/65 179/121/65 48/121/65
f 97/57/66 229/54/66 98/54/66
f 27/16/67 159/56/67 28/56/67
f 8/77/68 140/86/68 9/86/68
f 59/107/69 191/106/69 60/106/69
f 111/15/70 243/13/70 112/13/70
f 91/87/71 223/66/71 92/66/71
f 77/52/72 209/55/72 78/55/72
f 129/50/73 261/58/73 130/58/73
f 58/108/74 190/107/74 59/107/74
f 110/30/75 242/15/75 111/15/75
f 96/59/76 228/57/76 97/57/76
f 18/78/77 150/88/77 19/88/77
f 36/94/78 168/127/78 37/127/78
f 109/98/79 241/30/79 110/30/79
f 90/89/80 222/87/80 91/87/80
f 46/41/81 178/122/81 47/122/81
f 95/60/82 227/59/82 96/59/82
f 28/56/83 160/53/83 29/53/83
f 57/109/84 189/108/84 58/108/84
f 108/21/85 240/98/85 109/98/85
f 19/88/86 151/27/86 20/27/86
f 37/127/87 169/6/87 38/6/87
f 130/58/88 262/61/88 131/61/88
f 82/19/89 214/24/89 83/24/89
f 107/23/90 239/21/90 108/21/90
f 89/90/91 221/89/91 90/89/91
f 45/125/92 177/41/92 46/41/92
f 94/65/93 226/60/93 95/60/93
f 44/126/94 176/125/94 45/125/94
f 29/53/95 161/51/95 30/51/95
f 119/7/17 251/3/17 120/3/17
f 20/27/96 152/28/96 21/28/96
f 131/61/97 248/64/97 117/64/97
f 56/111/98 188/109/98 57/109/98
f 88/26/99 220/90/99 89/90/99
f 76/110/100 208/52/100 77/52/100
f 93/63/101 225/65/101 94/65/101
f 120/3/102 252/12/102 121/12/102
f 55/112/103 187/111/103 56/111/103
f 118/74/33 250/7/33 119/7/33
f 21/28/104 153/46/104 22/46/104
f 38/6/105 170/4/105 39/4/105
f 117/64/42 249/74/42 118/74/42
f 87/91/106 219/26/106 88/26/106
f 43/128/107 175/126/107 44/126/107
f 30/51/108 162/70/108 31/70/108
f 121/12/109 253/14/109 122/14/109
f 92/66/110 224/63/110 93/63/110
f 54/113/111 186/112/111 55/112/111
f 106/33/112 238/23/112 107/23/112
f 65/95/113 197/96/113 66/96/113
f 39/4/114 171/131/114 40/131/114
f 81/31/115 213/19/115 82/19/115
f 66/96/51 198/42/51 67/42/51
f 42/129/116 174/128/116 43/128/116
f 2/120/117 134/9/117 3/9/117
f 122/14/118 254/29/118 123/29/118
f 53/114/119 185/113/119 54/113/119
f 105/32/120 237/33/120 106/33/120
f 22/46/121 154/47/121 23/47/121
f 86/45/122 218/91/122 87/91/122
f 40/131/123 172/130/123 41/130/123
f 104/37/34 236/32/34 105/32/34
f 41/130/124 173/129/124 42/129/124
f 3/9/125 135/72/125 4/72/125
f 31/70/126 163/71/126 32/71/126
f 52/115/127 184/114/127 53/114/127
f 23/47/3 154/47/3 155/25/3
f 4/72/4 135/72/4 136/73/4
f 123/29/5 254/29/5 255/35/5
f 75/69/6 206/69/6 207/110/6
f 80/17/7 211/17/7 212/31/7
f 103/36/8 234/36/8 235/37/8
f 24/25/9 155/25/9 156/20/9
f 5/73/10 136/73/10 137/75/10
f 85/67/11 216/67/11 217/45/11
f 74/123/12 205/123/12 206/69/12
f 6/75/13 137/75/13 138/76/13
f 32/71/14 163/71/14 164/124/14
f 124/35/15 255/35/15 256/22/15
f 73/103/16 204/103/16 205/123/16
f 16/80/17 147/80/17 148/62/17
f 51/116/18 182/116/18 183/115/18
f 102/39/19 233/39/19 234/36/19
f 25/20/20 156/20/20 157/18/20
f 84/68/21 215/68/21 216/67/21
f 72/102/22 203/102/22 204/103/22
f 79/97/23 210/97/23 211/17/23
f 7/76/24 138/76/24 139/77/24
f 125/22/25 256/22/25 257/34/25
f 64/99/26 195/99/26 196/95/26
f 71/92/27 202/92/27 203/102/27
f 101/43/28 232/43/28 233/39/28
f 17/62/29 148/62/29 149/78/29
f 33/124/30 164/124/30 165/101/30
f 63/100/31 194/100/31 195/99/31
f 70/117/32 201/117/32 202/92/32
f 15/79/33 146/79/33 147/80/33
f 50/118/34 181/118/34 182/116/34
f 115/1/35 246/1/35 247/2/35
f 14/81/36 145/81/36 146/79/36
f 126/34/37 257/34/37 258/38/37
f 69/5/38 200/5/38 201/117/38
f 49/119/39 180/119/39 181/118/39
f 100/48/40 231/48/40 232/43/40
f 26/18/41 157/18/41 158/16/41
f 116/2/42 247/2/42 132/8/42
f 13/82/43 144/82/43 145/81/43
f 62/104/44 193/104/44 194/100/44
f 68/40/45 199/40/45 200/5/45
f 99/49/46 230/49/46 231/48/46
f 67/42/17 198/42/17 199/40/17
f 12/83/47 143/83/47 144/82/47
f 34/101/48 165/101/48 166/93/48
f 61/105/128 192/105/128 193/104/128
f 78/55/50 209/55/50 210/97/50
f 1/8/51 132/8/51 133/120/51
f 11/84/52 142/84/52 143/83/52
f 127/38/53 258/38/53 259/44/53
f 83/24/54 214/24/54 215/68/54
f 114/10/55 245/10/55 246/1/55
f 48/121/56 179/121/56 180/119/56
f 98/54/57 229/54/57 230/49/57
f 10/85/58 141/85/58 142/84/58
f 60/106/59 191/106/59 192/105/59
f 113/11/60 244/11/60 245/10/60
f 9/86/61 140/86/61 141/85/61
f 35/93/62 166/93/62 167/94/62
f 128/44/63 259/44/63 260/50/63
f 112/13/64 243/13/64 244/11/64
f 47/122/65 178/122/65 179/121/65
f 97/57/66 228/57/66 229/54/66
f 27/16/67 158/16/67 159/56/67
f 8/77/68 139/77/68 140/86/68
f 59/107/69 190/107/69 191/106/69
f 111/15/70 242/15/70 243/13/70
f 91/87/71 222/87/71 223/66/71
f 77/52/72 208/52/72 209/55/72
f 129/50/73 260/50/73 261/58/73
f 58/108/74 189/108/74 190/107/74
f 110/30/75 241/30/75 242/15/75
f 96/59/76 227/59/76 228/57/76
f 18/78/77 149/78/77 150/88/77
f 36/94/78 167/94/78 168/127/78
f 109/98/79 240/98/79 241/30/79
f 90/89/80 221/89/80 222/87/80
f 46/41/81 177/41/81 178/122/81
f 95/60/82 226/60/82 227/59/82
f 28/56/83 159/56/83 160/53/83
f 57/109/84 188/109/84 189/108/84
f 108/21/85 239/21/85 240/98/85
f 19/88/86 150/88/86 151/27/86
f 37/127/87 168/127/87 169/6/87
f 130/58/88 261/58/88 262/61/88
f 82/19/89 213/19/89 214/24/89
f 107/23/90 238/23/90 239/21/90
f 89/90/91 220/90/91 221/89/91
f 45/125/92 176/125/92 177/41/92
f 94/65/93 225/65/93 226/60/93
f 44/126/94 175/126/94 176/125/94
f 29/53/95 160/53/95 161/51/95
f 119/7/17 250/7/17 251/3/17
f 20/27/96 151/27/96 152/28/96
f 131/61/97 262/61/97 248/64/97
f 56/111/98 187/111/98 188/109/98
f 88/26/99 219/26/99 220/90/99
f 76/110/100 207/110/100 208/52/100
f 93/63/101 224/63/101 225/65/101
f 120/3/102 251/3/102 252/12/102
f 55/112/103 186/112/103 187/111/103
f 118/74/33 249/74/33 250/7/33
f 21/28/104 152/28/104 153/46/104
f 38/6/105 169/6/105 170/4/105
f 117/64/42 248/64/42 249/74/42
f 87/91/106 218/91/106 219/26/106
f 43/128/107 174/128/107 175/126/107
f 30/51/108 161/51/108 162/70/108
f 121/12/109 252/12/109 253/14/109
f 92/66/110 223/66/110 224/63/110
f 54/113/111 185/113/111 186/112/111
f 106/33/112 237/33/112 238/23/112
f 65/95/113 196/95/113 197/96/113
f 39/4/114 170/4/114 171/131/114
f 81/31/115 212/31/115 213/19/115
f 66/96/51 197/96/51 198/42/51
f 42/129/116 173/129/116 174/128/116
f 2/120/117 133/120/117 134/9/117
f 122/14/118 253/14/118 254/29/118
f 53/114/119 184/114/119 185/113/119
f 105/32/120 236/32/120 237/33/120
f 22/46/121 153/46/121 154/47/121
f 86/45/122 217/45/122 218/91/122
f 40/131/123 171/131/123 172/130/123
f 104/37/34 235/37/34 236/32/34
f 41/130/124 172/130/124 173/129/124
f 3/9/125 134/9/125 135/72/125
f 31/70/126 162/70/126 163/71/126
f 52/115/127 183/115/127 184/114/127
