# Blender 4.5.8 LTS
# www.blender.org
mtllib text_v.mtl
o text_v
v -0.030692 0.071077 -0.050000
v -0.033684 0.047347 -0.050000
v -0.035838 0.021748 -0.050000
v -0.037154 -0.005721 -0.050000
v -0.037632 -0.035060 -0.050000
v -0.037274 -0.066268 -0.050000
v -0.036077 -0.099346 -0.050000
v -0.034043 -0.134294 -0.050000
v -0.031171 -0.171111 -0.050000
v -0.027462 -0.209798 -0.050000
v -0.022915 -0.250355 -0.050000
v -0.017530 -0.292781 -0.050000
v -0.011308 -0.337077 -0.050000
v -0.000703 -0.320960 -0.050000
v 0.009214 -0.304919 -0.050000
v 0.018442 -0.288952 -0.050000
v 0.026983 -0.273060 -0.050000
v 0.034835 -0.257243 -0.050000
v 0.042000 -0.241500 -0.050000
v 0.048476 -0.225832 -0.050000
v 0.054265 -0.210239 -0.050000
v 0.059365 -0.194721 -0.050000
v 0.063778 -0.179278 -0.050000
v 0.067502 -0.163909 -0.050000
v 0.070538 -0.148615 -0.050000
v 0.073238 -0.133912 -0.050000
v 0.075594 -0.119598 -0.050000
v 0.077606 -0.105673 -0.050000
v 0.079273 -0.092137 -0.050000
v 0.080597 -0.078989 -0.050000
v 0.081577 -0.066231 -0.050000
v 0.082213 -0.053861 -0.050000
v 0.082504 -0.041880 -0.050000
v 0.082452 -0.030288 -0.050000
v 0.082056 -0.019085 -0.050000
v 0.081315 -0.008271 -0.050000
v 0.080231 0.002154 -0.050000
v 0.075923 0.033385 -0.050000
v 0.075115 0.038388 -0.050000
v 0.074128 0.042987 -0.050000
v 0.072962 0.047183 -0.050000
v 0.071615 0.050974 -0.050000
v 0.070090 0.054362 -0.050000
v 0.068385 0.057346 -0.050000
v 0.066500 0.059926 -0.050000
v 0.064436 0.062103 -0.050000
v 0.062192 0.063875 -0.050000
v 0.059769 0.065244 -0.050000
v 0.057167 0.066208 -0.050000
v 0.054385 0.066769 -0.050000
v -0.001615 0.073231 -0.050000
v 0.005601 0.075385 -0.050000
v 0.012534 0.077538 -0.050000
v 0.019183 0.079692 -0.050000
v 0.025547 0.081846 -0.050000
v 0.031627 0.084000 -0.050000
v 0.037423 0.086154 -0.050000
v 0.042935 0.088308 -0.050000
v 0.048162 0.090462 -0.050000
v 0.053106 0.092615 -0.050000
v 0.057765 0.094769 -0.050000
v 0.062140 0.096923 -0.050000
v 0.066231 0.099077 -0.050000
v 0.119000 0.129231 -0.050000
v 0.150231 0.094769 -0.050000
v 0.177154 0.071077 -0.050000
v 0.178231 0.048462 -0.050000
v 0.179068 0.025921 -0.050000
v 0.179068 0.003889 -0.050000
v 0.178231 -0.017635 -0.050000
v 0.176556 -0.038650 -0.050000
v 0.174043 -0.059156 -0.050000
v 0.170692 -0.079154 -0.050000
v 0.166504 -0.098643 -0.050000
v 0.161479 -0.117624 -0.050000
v 0.155615 -0.136096 -0.050000
v 0.148915 -0.154060 -0.050000
v 0.141376 -0.171515 -0.050000
v 0.133000 -0.188462 -0.050000
v 0.123943 -0.204847 -0.050000
v 0.114363 -0.220620 -0.050000
v 0.104260 -0.235779 -0.050000
v 0.093632 -0.250325 -0.050000
v 0.082482 -0.264257 -0.050000
v 0.070808 -0.277577 -0.050000
v 0.058610 -0.290283 -0.050000
v 0.045889 -0.302376 -0.050000
v 0.032644 -0.313856 -0.050000
v 0.018876 -0.324722 -0.050000
v 0.004584 -0.334975 -0.050000
v -0.010231 -0.344615 -0.050000
v -0.023460 -0.324932 -0.050000
v -0.035868 -0.305009 -0.050000
v -0.047452 -0.284846 -0.050000
v -0.058214 -0.264444 -0.050000
v -0.068153 -0.243803 -0.050000
v -0.077269 -0.222923 -0.050000
v -0.085563 -0.201803 -0.050000
v -0.093034 -0.180444 -0.050000
v -0.099683 -0.158846 -0.050000
v -0.105509 -0.137009 -0.050000
v -0.110512 -0.114932 -0.050000
v -0.114692 -0.092615 -0.050000
v -0.131923 0.043077 -0.050000
v -0.132372 0.046203 -0.050000
v -0.133000 0.049120 -0.050000
v -0.133808 0.051827 -0.050000
v -0.134795 0.054325 -0.050000
v -0.135962 0.056613 -0.050000
v -0.137308 0.058692 -0.050000
v -0.138833 0.060562 -0.050000
v -0.140538 0.062222 -0.050000
v -0.142423 0.063673 -0.050000
v -0.144487 0.064915 -0.050000
v -0.146731 0.065947 -0.050000
v -0.149154 0.066769 -0.050000
v -0.151801 0.067457 -0.050000
v -0.154718 0.068085 -0.050000
v -0.157904 0.068654 -0.050000
v -0.161359 0.069162 -0.050000
v -0.165083 0.069611 -0.050000
v -0.169077 0.070000 -0.050000
v -0.173340 0.070329 -0.050000
v -0.177872 0.070598 -0.050000
v -0.182673 0.070808 -0.050000
v -0.187744 0.070957 -0.050000
v -0.193083 0.071047 -0.050000
v -0.198692 0.071077 -0.050000
v -0.209462 0.071077 -0.050000
v -0.198887 0.074390 -0.050000
v -0.189060 0.077509 -0.050000
v -0.179981 0.080433 -0.050000
v -0.171650 0.083162 -0.050000
v -0.164066 0.085698 -0.050000
v -0.157231 0.088038 -0.050000
v -0.151143 0.090185 -0.050000
v -0.145803 0.092137 -0.050000
v -0.141212 0.093894 -0.050000
v -0.137368 0.095457 -0.050000
v -0.134271 0.096826 -0.050000
v -0.131923 0.098000 -0.050000
v -0.075923 0.129231 -0.050000
v -0.075781 0.128191 -0.050000
v -0.075355 0.126868 -0.050000
v -0.074644 0.125260 -0.050000
v -0.073650 0.123368 -0.050000
v -0.072371 0.121191 -0.050000
v -0.070808 0.118731 -0.050000
v -0.068960 0.115986 -0.050000
v -0.066829 0.112957 -0.050000
v -0.064413 0.109644 -0.050000
v -0.061714 0.106047 -0.050000
v -0.058730 0.102166 -0.050000
v -0.055462 0.098000 -0.050000
v -0.052163 0.093864 -0.050000
v -0.049090 0.090073 -0.050000
v -0.046240 0.086625 -0.050000
v -0.043615 0.083521 -0.050000
v -0.041215 0.080762 -0.050000
v -0.039038 0.078346 -0.050000
v -0.037087 0.076275 -0.050000
v -0.035359 0.074547 -0.050000
v -0.033856 0.073163 -0.050000
v -0.032577 0.072124 -0.050000
v -0.031522 0.071428 -0.050000
v -0.030692 0.071077 0.050000
v -0.033684 0.047347 0.050000
v -0.035838 0.021748 0.050000
v -0.037154 -0.005721 0.050000
v -0.037632 -0.035060 0.050000
v -0.037274 -0.066268 0.050000
v -0.036077 -0.099346 0.050000
v -0.034043 -0.134294 0.050000
v -0.031171 -0.171111 0.050000
v -0.027462 -0.209798 0.050000
v -0.022915 -0.250355 0.050000
v -0.017530 -0.292781 0.050000
v -0.011308 -0.337077 0.050000
v -0.000703 -0.320960 0.050000
v 0.009214 -0.304919 0.050000
v 0.018442 -0.288952 0.050000
v 0.026983 -0.273060 0.050000
v 0.034835 -0.257243 0.050000
v 0.042000 -0.241500 0.050000
v 0.048476 -0.225832 0.050000
v 0.054265 -0.210239 0.050000
v 0.059365 -0.194721 0.050000
v 0.063778 -0.179278 0.050000
v 0.067502 -0.163909 0.050000
v 0.070538 -0.148615 0.050000
v 0.073238 -0.133912 0.050000
v 0.075594 -0.119598 0.050000
v 0.077606 -0.105673 0.050000
v 0.079273 -0.092137 0.050000
v 0.080597 -0.078989 0.050000
v 0.081577 -0.066231 0.050000
v 0.082213 -0.053861 0.050000
v 0.082504 -0.041880 0.050000
v 0.082452 -0.030288 0.050000
v 0.082056 -0.019085 0.050000
v 0.081315 -0.008271 0.050000
v 0.080231 0.002154 0.050000
v 0.075923 0.033385 0.050000
v 0.075115 0.038388 0.050000
v 0.074128 0.042987 0.050000
v 0.072962 0.047183 0.050000
v 0.071615 0.050974 0.050000
v 0.070090 0.054362 0.050000
v 0.068385 0.057346 0.050000
v 0.066500 0.059926 0.050000
v 0.064436 0.062103 0.050000
v 0.062192 0.063875 0.050000
v 0.059769 0.065244 0.050000
v 0.057167 0.066208 0.050000
v 0.054385 0.066769 0.050000
v -0.001615 0.073231 0.050000
v 0.005601 0.075385 0.050000
v 0.012534 0.077538 0.050000
v 0.019183 0.079692 0.050000
v 0.025547 0.081846 0.050000
v 0.031627 0.084000 0.050000
v 0.037423 0.086154 0.050000
v 0.042935 0.088308 0.050000
v 0.048162 0.090462 0.050000
v 0.053106 0.092615 0.050000
v 0.057765 0.094769 0.050000
v 0.062140 0.096923 0.050000
v 0.066231 0.099077 0.050000
v 0.119000 0.129231 0.050000
v 0.150231 0.094769 0.050000
v 0.177154 0.071077 0.050000
v 0.178231 0.048462 0.050000
v 0.179068 0.025921 0.050000
v 0.179068 0.003889 0.050000
v 0.178231 -0.017635 0.050000
v 0.176556 -0.038650 0.050000
v 0.174043 -0.059156 0.050000
v 0.170692 -0.079154 0.050000
v 0.166504 -0.098643 0.050000
v 0.161479 -0.117624 0.050000
v 0.155615 -0.136096 0.050000
v 0.148915 -0.154060 0.050000
v 0.141376 -0.171515 0.050000
v 0.133000 -0.188462 0.050000
v 0.123943 -0.204847 0.050000
v 0.114363 -0.220620 0.050000
v 0.104260 -0.235779 0.050000
v 0.093632 -0.250325 0.050000
v 0.082482 -0.264257 0.050000
v 0.070808 -0.277577 0.050000
v 0.058610 -0.290283 0.050000
v 0.045889 -0.302376 0.050000
v 0.032644 -0.313856 0.050000
v 0.018876 -0.324722 0.050000
v 0.004584 -0.334975 0.050000
v -0.010231 -0.344615 0.050000
v -0.023460 -0.324932 0.050000
v -0.035868 -0.305009 0.050000
v -0.047452 -0.284846 0.050000
v -0.058214 -0.264444 0.050000
v -0.068153 -0.243803 0.050000
v -0.077269 -0.222923 0.050000
v -0.085563 -0.201803 0.050000
v -0.093034 -0.180444 0.050000
v -0.099683 -0.158846 0.050000
v -0.105509 -0.137009 0.050000
v -0.110512 -0.114932 0.050000
v -0.114692 -0.092615 0.050000
v -0.131923 0.043077 0.050000
v -0.132372 0.046203 0.050000
v -0.133000 0.049120 0.050000
v -0.133808 0.051827 0.050000
v -0.134795 0.054325 0.050000
v -0.135962 0.056613 0.050000
v -0.137308 0.058692 0.050000
v -0.138833 0.060562 0.050000
v -0.140538 0.062222 0.050000
v -0.142423 0.063673 0.050000
v -0.144487 0.064915 0.050000
v -0.146731 0.065947 0.050000
v -0.149154 0.066769 0.050000
v -0.151801 0.067457 0.050000
v -0.154718 0.068085 0.050000
v -0.157904 0.068654 0.050000
v -0.161359 0.069162 0.050000
v -0.165083 0.069611 0.050000
v -0.169077 0.070000 0.050000
v -0.173340 0.070329 0.050000
v -0.177872 0.070598 0.050000
v -0.182673 0.070808 0.050000
v -0.187744 0.070957 0.050000
v -0.193083 0.071047 0.050000
v -0.198692 0.071077 0.050000
v -0.209462 0.071077 0.050000
v -0.198887 0.074390 0.050000
v -0.189060 0.077509 0.050000
v -0.179981 0.080433 0.050000
v -0.171650 0.083162 0.050000
v -0.164066 0.085698 0.050000
v -0.157231 0.088038 0.050000
v -0.151143 0.090185 0.050000
v -0.145803 0.092137 0.050000
v -0.141212 0.093894 0.050000
v -0.137368 0.095457 0.050000
v -0.134271 0.096826 0.050000
v -0.131923 0.098000 0.050000
v -0.075923 0.129231 0.050000
v -0.075781 0.128191 0.050000
v -0.075355 0.126868 0.050000
v -0.074644 0.125260 0.050000
v -0.073650 0.123367 0.050000
v -0.072371 0.121191 0.050000
v -0.070808 0.118731 0.050000
v -0.068960 0.115986 0.050000
v -0.066829 0.112957 0.050000
v -0.064413 0.109644 0.050000
v -0.061714 0.106047 0.050000
v -0.058730 0.102166 0.050000
v -0.055462 0.098000 0.050000
v -0.052163 0.093864 0.050000
v -0.049090 0.090073 0.050000
v -0.046240 0.086625 0.050000
v -0.043615 0.083521 0.050000
v -0.041215 0.080762 0.050000
v -0.039038 0.078346 0.050000
v -0.037087 0.076275 0.050000
v -0.035359 0.074547 0.050000
v -0.033856 0.073163 0.050000
v -0.032577 0.072124 0.050000
v -0.031522 0.071428 0.050000
vn -0.0000 -0.0000 -1.0000
vn -0.0000 -0.0000 1.0000
vn 0.6890 -0.7248 -0.0000
vn -0.7748 -0.6322 -0.0000
vn -0.4871 0.8734 -0.0000
vn 0.3899 0.9208 -0.0000
vn -1.0000 -0.0045 -0.0000
vn -0.3809 0.9246 -0.0000
vn 0.9954 0.0954 -0.0000
vn -0.0000 -1.0000 -0.0000
vn 0.9903 0.1391 -0.0000
vn -0.8075 -0.5898 -0.0000
vn 0.9908 0.1354 -0.0000
vn -0.3325 0.9431 -0.0000
vn 0.8965 -0.4431 -0.0000
vn -0.4961 0.8682 -0.0000
vn -0.0053 -1.0000 -0.0000
vn 0.9999 0.0115 -0.0000
vn 0.6550 -0.7557 -0.0000
vn -0.8394 -0.5435 -0.0000
vn -0.9615 0.2747 -0.0000
vn -0.8506 0.5258 -0.0000
vn 0.7410 0.6715 -0.0000
vn -0.0168 -0.9999 -0.0000
vn 0.9926 -0.1216 -0.0000
vn 0.7708 0.6371 -0.0000
vn -0.8682 -0.4961 -0.0000
vn -0.9439 -0.3302 -0.0000
vn -0.9997 0.0243 -0.0000
vn -0.8489 -0.5286 -0.0000
vn -0.3640 0.9314 -0.0000
vn 0.9519 0.3065 -0.0000
vn -0.0295 -0.9996 -0.0000
vn -0.8909 -0.4542 -0.0000
vn -0.9987 0.0513 -0.0000
vn -0.3240 0.9461 -0.0000
vn 0.8752 -0.4837 -0.0000
vn 0.9147 0.4042 -0.0000
vn -0.0436 -0.9991 -0.0000
vn 0.6195 -0.7850 -0.0000
vn -0.9118 -0.4106 -0.0000
vn -0.9500 0.3122 -0.0000
vn -0.8354 0.5497 -0.0000
vn 0.8851 0.4653 -0.0000
vn -0.0593 -0.9982 -0.0000
vn 0.9863 -0.1652 -0.0000
vn 0.7635 0.6458 -0.0000
vn -0.9300 -0.3675 -0.0000
vn -0.9308 -0.3655 -0.0000
vn -0.9971 0.0766 -0.0000
vn -0.3483 0.9374 -0.0000
vn 0.8622 0.5066 -0.0000
vn -0.0770 -0.9970 -0.0000
vn 0.5829 -0.8125 -0.0000
vn -0.9583 -0.2859 -0.0000
vn -0.8300 -0.5578 -0.0000
vn -0.3171 0.9484 -0.0000
vn 0.8547 -0.5191 -0.0000
vn 0.8441 0.5362 -0.0000
vn -0.0969 -0.9953 -0.0000
vn 0.9993 0.0362 -0.0000
vn -0.9424 -0.3346 -0.0000
vn -0.9950 0.1002 -0.0000
vn 0.5454 -0.8382 -0.0000
vn -0.3339 0.9426 -0.0000
vn 0.9938 0.1114 -0.0000
vn 0.8296 0.5583 -0.0000
vn -0.1196 -0.9928 -0.0000
vn -0.9776 -0.2106 -0.0000
vn -0.9375 0.3480 -0.0000
vn 0.9777 -0.2101 -0.0000
vn 0.8178 0.5755 -0.0000
vn -0.1456 -0.9893 -0.0000
vn -0.9925 0.1223 -0.0000
vn 0.7545 0.6563 -0.0000
vn -0.3114 0.9503 -0.0000
vn 0.9993 0.0371 -0.0000
vn 0.8321 -0.5546 -0.0000
vn 0.8080 0.5891 -0.0000
vn -0.9829 -0.1841 -0.0000
vn -0.9165 -0.4001 -0.0000
vn 0.9921 -0.1251 -0.0000
vn -0.3206 0.9472 -0.0000
vn 0.9965 -0.0838 -0.0000
vn 0.7998 0.6003 -0.0000
vn -0.9634 -0.2679 -0.0000
vn -0.9242 0.3820 -0.0000
vn 0.9989 0.0476 -0.0000
vn 0.9667 -0.2560 -0.0000
vn 0.7928 0.6095 -0.0000
vn -0.1756 -0.9845 -0.0000
vn 0.7430 0.6693 -0.0000
vn -0.9899 -0.1421 -0.0000
vn 0.9983 0.0581 -0.0000
vn -0.3066 0.9518 -0.0000
vn 0.8075 -0.5899 -0.0000
vn 0.7868 0.6173 -0.0000
vn -0.2106 -0.9776 -0.0000
vn -0.9897 0.1430 -0.0000
vn -0.9920 -0.1260 -0.0000
vn -0.9102 0.4142 -0.0000
vn -0.4659 0.8849 -0.0000
vn -0.3082 0.9513 -0.0000
vn -0.2515 -0.9678 -0.0000
vn -0.9753 -0.2210 -0.0000
vn -0.9777 -0.2099 -0.0000
vn -0.9010 -0.4338 -0.0000
vn -0.4472 0.8944 -0.0000
vn -0.3215 -0.9469 -0.0000
vn 0.7278 0.6858 -0.0000
vn -0.9872 -0.1594 -0.0000
vn 0.9531 -0.3025 -0.0000
vn -0.2967 0.9550 -0.0000
vn 0.7807 -0.6248 -0.0000
vn 0.7818 0.6235 -0.0000
vn -0.1976 -0.9803 -0.0000
vn -0.9867 0.1624 -0.0000
vn -0.9906 -0.1366 -0.0000
vn -0.4417 0.8972 -0.0000
vn -0.3025 0.9532 -0.0000
vn 0.9920 0.1259 -0.0000
vn -0.3476 -0.9377 -0.0000
vn -0.9836 0.1806 -0.0000
vn -0.8957 0.4447 -0.0000
vn -0.4043 0.9146 -0.0000
vn 1.0000 -0.0000 -0.0000
vn -0.4179 -0.9085 -0.0000
vn 0.7071 0.7071 -0.0000
vn -0.3767 0.9263 -0.0000
vn 0.9970 0.0778 -0.0000
vn -0.2860 0.9582 -0.0000
vn 0.9989 -0.0479 -0.0000
vn 0.7520 -0.6591 -0.0000
vn -0.4918 -0.8707 -0.0000
vn -0.8845 -0.4666 -0.0000
vn -0.4196 0.9077 -0.0000
vn 0.9369 -0.3495 -0.0000
vn 0.9992 -0.0389 -0.0000
vn -0.5154 -0.8569 -0.0000
vn -0.9662 -0.2578 -0.0000
vn 0.6772 0.7358 -0.0000
vn -0.9946 -0.1035 -0.0000
vn -0.8809 0.4734 -0.0000
vn -0.2990 0.9543 -0.0000
vn 0.6606 0.7507 -0.0000
vn -0.6199 -0.7847 -0.0000
vn -0.9809 0.1947 -0.0000
vn -0.3574 0.9339 -0.0000
vn -0.1146 -0.9934 -0.0000
vn 0.9999 -0.0163 -0.0000
vn 0.7214 -0.6925 -0.0000
vn -0.6100 -0.7924 -0.0000
vn -0.9977 -0.0683 -0.0000
vn -0.8671 -0.4982 -0.0000
vn 0.9180 -0.3965 -0.0000
vn 0.7768 0.6297 -0.0000
vn -0.6976 -0.7165 -0.0000
vn -0.9557 -0.2942 -0.0000
vn 0.6308 0.7760 -0.0000
vn -0.8658 0.5004 -0.0000
vn -0.3994 0.9168 -0.0000
vn 0.9968 -0.0795 -0.0000
vn -0.7256 -0.6882 -0.0000
vn -0.9719 0.2355 -0.0000
vn 0.5506 0.8348 -0.0000
vn -0.9994 -0.0354 -0.0000
vn -0.3433 0.9392 -0.0000
vt 0.853659 0.000000
vt 0.859756 0.000000
vt 0.865854 0.000000
vt 0.378049 0.000000
vt 0.384146 0.000000
vt 0.390244 0.000000
vt 0.871951 0.000000
vt 0.878049 0.000000
vt 0.884146 0.000000
vt 0.890244 0.000000
vt 0.896341 0.000000
vt 0.902439 0.000000
vt 0.908537 0.000000
vt 0.914634 0.000000
vt 0.920732 0.000000
vt 0.926829 0.000000
vt 0.664634 0.000000
vt 0.658537 0.000000
vt 0.975610 0.000000
vt 0.006098 0.000000
vt 0.969512 0.000000
vt 0.737805 0.000000
vt 0.804878 0.000000
vt 0.731707 0.000000
vt 0.774390 0.000000
vt 0.786585 0.000000
vt 0.768293 0.000000
vt 0.792683 0.000000
vt 0.762195 0.000000
vt 0.646341 0.000000
vt 0.932927 0.000000
vt 0.939024 0.000000
vt 0.701219 0.000000
vt 0.823171 0.000000
vt 0.829268 0.000000
vt 0.298781 0.000000
vt 0.359756 0.000000
vt 0.292683 0.000000
vt 0.097561 0.000000
vt 0.524390 0.000000
vt 0.091463 0.000000
vt 0.987805 0.000000
vt 0.981707 0.000000
vt 0.353659 0.000000
vt 0.682927 0.000000
vt 0.835366 0.000000
vt 0.841463 0.000000
vt 0.347561 0.000000
vt 0.810976 0.000000
vt 0.725610 0.000000
vt 0.640244 0.000000
vt 0.341463 0.000000
vt 0.750000 0.000000
vt 0.798781 0.000000
vt 0.743902 0.000000
vt 0.231707 0.000000
vt 0.402439 0.000000
vt 0.335366 0.000000
vt 0.670732 0.000000
vt 0.329268 0.000000
vt 0.439024 0.000000
vt 0.189024 0.000000
vt 0.432927 0.000000
vt 0.945122 0.000000
vt 0.323171 0.000000
vt 0.365854 0.000000
vt 0.317073 0.000000
vt 0.286585 0.000000
vt 0.371951 0.000000
vt 0.310976 0.000000
vt 0.152439 0.000000
vt 0.469512 0.000000
vt 0.146341 0.000000
vt 0.847561 0.000000
vt 0.304878 0.000000
vt 0.689024 0.000000
vt 0.780488 0.000000
vt 0.493902 0.000000
vt 0.121951 0.000000
vt 0.487805 0.000000
vt 0.713415 0.000000
vt 0.817073 0.000000
vt 0.707317 0.000000
vt 0.719512 0.000000
vt 0.018293 0.000000
vt 0.628049 0.000000
vt 0.012195 0.000000
vt 0.756098 0.000000
vt 0.676829 0.000000
vt 0.652439 0.000000
vt 0.396341 0.000000
vt 0.963415 0.000000
vt 0.957317 0.000000
vt 0.451219 0.000000
vt 0.170732 0.000000
vt 0.445122 0.000000
vt 0.280488 0.000000
vt 0.274390 0.000000
vt 0.213415 0.000000
vt 0.414634 0.000000
vt 0.420732 0.000000
vt 0.268293 0.000000
vt 0.262195 0.000000
vt 0.457317 0.000000
vt 0.164634 0.000000
vt 0.463415 0.000000
vt 0.158537 0.000000
vt 0.103659 0.000000
vt 0.518293 0.000000
vt 0.024390 0.000000
vt 0.621951 0.000000
vt 0.695122 0.000000
vt 0.951219 0.000000
vt 0.176829 0.000000
vt 0.000000 0.000000
vt 1.000000 0.000000
vt 0.993902 0.000000
vt 0.243902 0.000000
vt 0.237805 0.000000
vt 0.634146 0.000000
vt 0.225610 0.000000
vt 0.250000 0.000000
vt 0.256098 0.000000
vt 0.201220 0.000000
vt 0.426829 0.000000
vt 0.408537 0.000000
vt 0.219512 0.000000
vt 0.542683 0.000000
vt 0.079268 0.000000
vt 0.536585 0.000000
vt 0.207317 0.000000
vt 0.195122 0.000000
vt 0.030488 0.000000
vt 0.182927 0.000000
vt 0.036585 0.000000
vt 0.109756 0.000000
vt 0.512195 0.000000
vt 0.615854 0.000000
vt 0.609756 0.000000
vt 0.115854 0.000000
vt 0.506098 0.000000
vt 0.500000 0.000000
vt 0.042683 0.000000
vt 0.603659 0.000000
vt 0.591463 0.000000
vt 0.048780 0.000000
vt 0.054878 0.000000
vt 0.140244 0.000000
vt 0.597561 0.000000
vt 0.134146 0.000000
vt 0.475610 0.000000
vt 0.128049 0.000000
vt 0.481707 0.000000
vt 0.585366 0.000000
vt 0.579268 0.000000
vt 0.573171 0.000000
vt 0.060976 0.000000
vt 0.530488 0.000000
vt 0.085366 0.000000
vt 0.567073 0.000000
vt 0.560976 0.000000
vt 0.067073 0.000000
vt 0.554878 0.000000
vt 0.073171 0.000000
vt 0.548781 0.000000
s 0
f 141/1/1 142/2/1 143/3/1
f 63/4/1 64/5/1 65/6/1
f 141/1/1 143/3/1 144/7/1
f 141/1/1 144/7/1 145/8/1
f 141/1/1 145/8/1 146/9/1
f 141/1/1 146/9/1 147/10/1
f 141/1/1 147/10/1 148/11/1
f 141/1/1 148/11/1 149/12/1
f 141/1/1 149/12/1 150/13/1
f 141/1/1 150/13/1 151/14/1
f 141/1/1 151/14/1 152/15/1
f 141/1/1 152/15/1 153/16/1
f 110/17/1 141/1/1 109/18/1
f 161/19/1 2/20/1 160/21/1
f 122/22/1 133/23/1 121/24/1
f 128/25/1 130/26/1 127/27/1
f 127/27/1 131/28/1 126/29/1
f 107/30/1 154/31/1 155/32/1
f 116/33/1 136/34/1 137/35/1
f 50/36/1 60/37/1 49/38/1
f 17/39/1 87/40/1 16/41/1
f 163/42/1 2/20/1 162/43/1
f 127/27/1 130/26/1 131/28/1
f 59/44/1 60/37/1 50/36/1
f 113/45/1 138/46/1 139/47/1
f 58/48/1 59/44/1 50/36/1
f 121/24/1 134/49/1 120/50/1
f 107/30/1 155/32/1 106/51/1
f 57/52/1 58/48/1 50/36/1
f 124/53/1 132/54/1 123/55/1
f 39/56/1 65/6/1 67/57/1
f 56/58/1 57/52/1 50/36/1
f 111/59/1 141/1/1 110/17/1
f 55/60/1 56/58/1 50/36/1
f 73/61/1 32/62/1 72/63/1
f 106/51/1 155/32/1 156/64/1
f 54/65/1 55/60/1 50/36/1
f 49/38/1 60/37/1 61/66/1
f 123/55/1 133/23/1 122/22/1
f 53/67/1 54/65/1 50/36/1
f 48/68/1 61/66/1 62/69/1
f 52/70/1 53/67/1 50/36/1
f 26/71/1 78/72/1 25/73/1
f 111/59/1 140/74/1 141/1/1
f 51/75/1 52/70/1 50/36/1
f 114/76/1 137/35/1 138/46/1
f 129/77/1 130/26/1 128/25/1
f 82/78/1 21/79/1 81/80/1
f 118/81/1 135/82/1 117/83/1
f 120/50/1 134/49/1 119/84/1
f 123/55/1 132/54/1 133/23/1
f 4/85/1 104/86/1 3/87/1
f 125/88/1 132/54/1 124/53/1
f 112/89/1 140/74/1 111/59/1
f 121/24/1 133/23/1 134/49/1
f 119/84/1 135/82/1 118/81/1
f 117/83/1 135/82/1 136/34/1
f 114/76/1 138/46/1 113/45/1
f 113/45/1 139/47/1 112/89/1
f 162/43/1 2/20/1 161/19/1
f 108/90/1 153/16/1 154/31/1
f 66/91/1 67/57/1 65/6/1
f 159/92/1 2/20/1 158/93/1
f 108/90/1 141/1/1 153/16/1
f 108/90/1 154/31/1 107/30/1
f 75/94/1 29/95/1 74/96/1
f 63/4/1 47/97/1 62/69/1
f 47/97/1 63/4/1 46/98/1
f 36/99/1 69/100/1 70/101/1
f 46/98/1 63/4/1 45/102/1
f 63/4/1 44/103/1 45/102/1
f 65/6/1 44/103/1 63/4/1
f 76/104/1 28/105/1 75/94/1
f 77/106/1 27/107/1 76/104/1
f 18/108/1 86/109/1 17/39/1
f 104/86/1 2/20/1 3/87/1
f 104/86/1 5/110/1 103/111/1
f 115/112/1 137/35/1 114/76/1
f 158/93/1 2/20/1 157/113/1
f 62/69/1 47/97/1 48/68/1
f 74/96/1 30/114/1 73/61/1
f 1/115/1 2/20/1 165/116/1
f 164/117/1 2/20/1 163/42/1
f 41/118/1 65/6/1 40/119/1
f 160/21/1 2/20/1 159/92/1
f 105/120/1 156/64/1 157/113/1
f 105/120/1 2/20/1 104/86/1
f 40/119/1 65/6/1 39/56/1
f 67/57/1 38/121/1 39/56/1
f 65/6/1 42/122/1 43/123/1
f 34/124/1 70/101/1 71/125/1
f 68/126/1 38/121/1 67/57/1
f 37/127/1 38/121/1 68/126/1
f 37/127/1 68/126/1 69/100/1
f 90/128/1 14/129/1 89/130/1
f 37/127/1 69/100/1 36/99/1
f 157/113/1 2/20/1 105/120/1
f 4/85/1 5/110/1 104/86/1
f 35/131/1 36/99/1 70/101/1
f 35/131/1 70/101/1 34/124/1
f 117/83/1 136/34/1 116/33/1
f 33/132/1 34/124/1 71/125/1
f 103/111/1 5/110/1 6/133/1
f 33/132/1 71/125/1 72/63/1
f 32/62/1 33/132/1 72/63/1
f 31/134/1 32/62/1 73/61/1
f 119/84/1 134/49/1 135/82/1
f 30/114/1 31/134/1 73/61/1
f 103/111/1 6/133/1 7/135/1
f 29/95/1 30/114/1 74/96/1
f 19/136/1 85/137/1 18/108/1
f 28/105/1 29/95/1 75/94/1
f 102/138/1 103/111/1 7/135/1
f 106/51/1 156/64/1 105/120/1
f 102/138/1 7/135/1 101/139/1
f 27/107/1 28/105/1 76/104/1
f 20/140/1 84/141/1 19/136/1
f 21/79/1 83/142/1 20/140/1
f 26/71/1 27/107/1 77/106/1
f 116/33/1 137/35/1 115/112/1
f 101/139/1 8/143/1 100/144/1
f 65/6/1 41/118/1 42/122/1
f 98/145/1 9/146/1 10/147/1
f 24/148/1 25/73/1 78/72/1
f 165/116/1 2/20/1 164/117/1
f 99/149/1 100/144/1 9/146/1
f 23/150/1 24/148/1 79/151/1
f 99/149/1 9/146/1 98/145/1
f 77/106/1 78/72/1 26/71/1
f 22/152/1 23/150/1 80/153/1
f 83/142/1 84/141/1 20/140/1
f 79/151/1 24/148/1 78/72/1
f 21/79/1 22/152/1 81/80/1
f 97/154/1 98/145/1 10/147/1
f 101/139/1 7/135/1 8/143/1
f 97/154/1 10/147/1 96/155/1
f 112/89/1 139/47/1 140/74/1
f 81/80/1 22/152/1 80/153/1
f 100/144/1 8/143/1 9/146/1
f 49/38/1 61/66/1 48/68/1
f 125/88/1 131/28/1 132/54/1
f 109/18/1 141/1/1 108/90/1
f 95/156/1 96/155/1 11/157/1
f 16/41/1 88/158/1 15/159/1
f 95/156/1 11/157/1 94/160/1
f 65/6/1 43/123/1 44/103/1
f 96/155/1 10/147/1 11/157/1
f 84/141/1 85/137/1 19/136/1
f 80/153/1 23/150/1 79/151/1
f 89/130/1 15/159/1 88/158/1
f 93/161/1 94/160/1 12/162/1
f 82/78/1 83/142/1 21/79/1
f 92/163/1 12/162/1 13/164/1
f 93/161/1 12/162/1 92/163/1
f 87/40/1 88/158/1 16/41/1
f 14/129/1 15/159/1 89/130/1
f 85/137/1 86/109/1 18/108/1
f 94/160/1 11/157/1 12/162/1
f 13/164/1 14/129/1 90/128/1
f 86/109/1 87/40/1 17/39/1
f 91/165/1 92/163/1 13/164/1
f 13/164/1 90/128/1 91/165/1
f 126/29/1 131/28/1 125/88/1
f 306/1/2 308/3/2 307/2/2
f 228/4/2 230/6/2 229/5/2
f 306/1/2 309/7/2 308/3/2
f 306/1/2 310/8/2 309/7/2
f 306/1/2 311/9/2 310/8/2
f 306/1/2 312/10/2 311/9/2
f 306/1/2 313/11/2 312/10/2
f 306/1/2 314/12/2 313/11/2
f 306/1/2 315/13/2 314/12/2
f 306/1/2 316/14/2 315/13/2
f 306/1/2 317/15/2 316/14/2
f 306/1/2 318/16/2 317/15/2
f 275/17/2 274/18/2 306/1/2
f 326/19/2 325/21/2 167/20/2
f 287/22/2 286/24/2 298/23/2
f 293/25/2 292/27/2 295/26/2
f 292/27/2 291/29/2 296/28/2
f 272/30/2 320/32/2 319/31/2
f 281/33/2 302/35/2 301/34/2
f 215/36/2 214/38/2 225/37/2
f 182/39/2 181/41/2 252/40/2
f 328/42/2 327/43/2 167/20/2
f 292/27/2 296/28/2 295/26/2
f 224/44/2 215/36/2 225/37/2
f 278/45/2 304/47/2 303/46/2
f 223/48/2 215/36/2 224/44/2
f 286/24/2 285/50/2 299/49/2
f 272/30/2 271/51/2 320/32/2
f 222/52/2 215/36/2 223/48/2
f 289/53/2 288/55/2 297/54/2
f 204/56/2 232/57/2 230/6/2
f 221/58/2 215/36/2 222/52/2
f 276/59/2 275/17/2 306/1/2
f 220/60/2 215/36/2 221/58/2
f 238/61/2 237/63/2 197/62/2
f 271/51/2 321/64/2 320/32/2
f 219/65/2 215/36/2 220/60/2
f 214/38/2 226/66/2 225/37/2
f 288/55/2 287/22/2 298/23/2
f 218/67/2 215/36/2 219/65/2
f 213/68/2 227/69/2 226/66/2
f 217/70/2 215/36/2 218/67/2
f 191/71/2 190/73/2 243/72/2
f 276/59/2 306/1/2 305/74/2
f 216/75/2 215/36/2 217/70/2
f 279/76/2 303/46/2 302/35/2
f 294/77/2 293/25/2 295/26/2
f 247/78/2 246/80/2 186/79/2
f 283/81/2 282/83/2 300/82/2
f 285/50/2 284/84/2 299/49/2
f 288/55/2 298/23/2 297/54/2
f 169/85/2 168/87/2 269/86/2
f 290/88/2 289/53/2 297/54/2
f 277/89/2 276/59/2 305/74/2
f 286/24/2 299/49/2 298/23/2
f 284/84/2 283/81/2 300/82/2
f 282/83/2 301/34/2 300/82/2
f 279/76/2 278/45/2 303/46/2
f 278/45/2 277/89/2 304/47/2
f 327/43/2 326/19/2 167/20/2
f 273/90/2 319/31/2 318/16/2
f 231/91/2 230/6/2 232/57/2
f 324/92/2 323/93/2 167/20/2
f 273/90/2 318/16/2 306/1/2
f 273/90/2 272/30/2 319/31/2
f 240/94/2 239/96/2 194/95/2
f 228/4/2 227/69/2 212/97/2
f 212/97/2 211/98/2 228/4/2
f 201/99/2 235/101/2 234/100/2
f 211/98/2 210/102/2 228/4/2
f 228/4/2 210/102/2 209/103/2
f 230/6/2 228/4/2 209/103/2
f 241/104/2 240/94/2 193/105/2
f 242/106/2 241/104/2 192/107/2
f 183/108/2 182/39/2 251/109/2
f 269/86/2 168/87/2 167/20/2
f 269/86/2 268/111/2 170/110/2
f 280/112/2 279/76/2 302/35/2
f 323/93/2 322/113/2 167/20/2
f 227/69/2 213/68/2 212/97/2
f 239/96/2 238/61/2 195/114/2
f 166/115/2 330/116/2 167/20/2
f 329/117/2 328/42/2 167/20/2
f 206/118/2 205/119/2 230/6/2
f 325/21/2 324/92/2 167/20/2
f 270/120/2 322/113/2 321/64/2
f 270/120/2 269/86/2 167/20/2
f 205/119/2 204/56/2 230/6/2
f 232/57/2 204/56/2 203/121/2
f 230/6/2 208/123/2 207/122/2
f 199/124/2 236/125/2 235/101/2
f 233/126/2 232/57/2 203/121/2
f 202/127/2 233/126/2 203/121/2
f 202/127/2 234/100/2 233/126/2
f 255/128/2 254/130/2 179/129/2
f 202/127/2 201/99/2 234/100/2
f 322/113/2 270/120/2 167/20/2
f 169/85/2 269/86/2 170/110/2
f 200/131/2 235/101/2 201/99/2
f 200/131/2 199/124/2 235/101/2
f 282/83/2 281/33/2 301/34/2
f 198/132/2 236/125/2 199/124/2
f 268/111/2 171/133/2 170/110/2
f 198/132/2 237/63/2 236/125/2
f 197/62/2 237/63/2 198/132/2
f 196/134/2 238/61/2 197/62/2
f 284/84/2 300/82/2 299/49/2
f 195/114/2 238/61/2 196/134/2
f 268/111/2 172/135/2 171/133/2
f 194/95/2 239/96/2 195/114/2
f 184/136/2 183/108/2 250/137/2
f 193/105/2 240/94/2 194/95/2
f 267/138/2 172/135/2 268/111/2
f 271/51/2 270/120/2 321/64/2
f 267/138/2 266/139/2 172/135/2
f 192/107/2 241/104/2 193/105/2
f 185/140/2 184/136/2 249/141/2
f 186/79/2 185/140/2 248/142/2
f 191/71/2 242/106/2 192/107/2
f 281/33/2 280/112/2 302/35/2
f 266/139/2 265/144/2 173/143/2
f 230/6/2 207/122/2 206/118/2
f 263/145/2 175/147/2 174/146/2
f 189/148/2 243/72/2 190/73/2
f 330/116/2 329/117/2 167/20/2
f 264/149/2 174/146/2 265/144/2
f 188/150/2 244/151/2 189/148/2
f 264/149/2 263/145/2 174/146/2
f 242/106/2 191/71/2 243/72/2
f 187/152/2 245/153/2 188/150/2
f 248/142/2 185/140/2 249/141/2
f 244/151/2 243/72/2 189/148/2
f 186/79/2 246/80/2 187/152/2
f 262/154/2 175/147/2 263/145/2
f 266/139/2 173/143/2 172/135/2
f 262/154/2 261/155/2 175/147/2
f 277/89/2 305/74/2 304/47/2
f 246/80/2 245/153/2 187/152/2
f 265/144/2 174/146/2 173/143/2
f 214/38/2 213/68/2 226/66/2
f 290/88/2 297/54/2 296/28/2
f 274/18/2 273/90/2 306/1/2
f 260/156/2 176/157/2 261/155/2
f 181/41/2 180/159/2 253/158/2
f 260/156/2 259/160/2 176/157/2
f 230/6/2 209/103/2 208/123/2
f 261/155/2 176/157/2 175/147/2
f 249/141/2 184/136/2 250/137/2
f 245/153/2 244/151/2 188/150/2
f 254/130/2 253/158/2 180/159/2
f 258/161/2 177/162/2 259/160/2
f 247/78/2 186/79/2 248/142/2
f 257/163/2 178/164/2 177/162/2
f 258/161/2 257/163/2 177/162/2
f 252/40/2 181/41/2 253/158/2
f 179/129/2 254/130/2 180/159/2
f 250/137/2 183/108/2 251/109/2
f 259/160/2 177/162/2 176/157/2
f 178/164/2 255/128/2 179/129/2
f 251/109/2 182/39/2 252/40/2
f 256/165/2 178/164/2 257/163/2
f 178/164/2 256/165/2 255/128/2
f 291/29/2 290/88/2 296/28/2
f 86/109/3 252/40/3 87/40/3
f 110/17/4 276/59/4 111/59/4
f 141/1/5 307/2/5 142/2/5
f 165/116/6 166/115/6 1/115/6
f 33/132/7 199/124/7 34/124/7
f 58/48/8 224/44/8 59/44/8
f 9/146/9 175/147/9 10/147/9
f 128/25/10 294/77/10 129/77/10
f 12/162/11 178/164/11 13/164/11
f 44/103/12 210/102/12 45/102/12
f 142/2/13 308/3/13 143/3/13
f 135/82/14 301/34/14 136/34/14
f 78/72/15 244/151/15 79/151/15
f 63/4/16 229/5/16 64/5/16
f 127/27/17 293/25/17 128/25/17
f 5/110/18 171/133/18 6/133/18
f 87/40/19 253/158/19 88/158/19
f 109/18/20 275/17/20 110/17/20
f 22/152/21 188/150/21 23/150/21
f 14/129/22 180/159/22 15/159/22
f 64/5/23 230/6/23 65/6/23
f 126/29/24 292/27/24 127/27/24
f 71/125/25 237/63/25 72/63/25
f 156/64/26 322/113/26 157/113/26
f 43/123/27 209/103/27 44/103/27
f 98/145/28 264/149/28 99/149/28
f 32/62/29 198/132/29 33/132/29
f 92/163/30 258/161/30 93/161/30
f 57/52/31 223/48/31 58/48/31
f 143/3/32 309/7/32 144/7/32
f 125/88/33 291/29/33 126/29/33
f 108/90/34 274/18/34 109/18/34
f 31/134/35 197/62/35 32/62/35
f 134/49/36 300/82/36 135/82/36
f 79/151/37 245/153/37 80/153/37
f 144/7/38 310/8/38 145/8/38
f 124/53/39 290/88/39 125/88/39
f 88/158/40 254/130/40 89/130/40
f 42/122/41 208/123/41 43/123/41
f 21/79/42 187/152/42 22/152/42
f 13/164/43 179/129/43 14/129/43
f 145/8/44 311/9/44 146/9/44
f 123/55/45 289/53/45 124/53/45
f 72/63/46 238/61/46 73/61/46
f 157/113/47 323/93/47 158/93/47
f 107/30/48 273/90/48 108/90/48
f 97/154/49 263/145/49 98/145/49
f 30/114/50 196/134/50 31/134/50
f 56/58/51 222/52/51 57/52/51
f 146/9/52 312/10/52 147/10/52
f 122/22/53 288/55/53 123/55/53
f 89/130/54 255/128/54 90/128/54
f 106/51/55 272/30/55 107/30/55
f 91/165/56 257/163/56 92/163/56
f 133/23/57 299/49/57 134/49/57
f 80/153/58 246/80/58 81/80/58
f 147/10/59 313/11/59 148/11/59
f 121/24/60 287/22/60 122/22/60
f 6/133/61 172/135/61 7/135/61
f 41/118/62 207/122/62 42/122/62
f 29/95/63 195/114/63 30/114/63
f 90/128/64 256/165/64 91/165/64
f 55/60/65 221/58/65 56/58/65
f 10/147/66 176/157/66 11/157/66
f 148/11/67 314/12/67 149/12/67
f 120/50/68 286/24/68 121/24/68
f 105/120/69 271/51/69 106/51/69
f 20/140/70 186/79/70 21/79/70
f 73/61/71 239/96/71 74/96/71
f 149/12/72 315/13/72 150/13/72
f 119/84/73 285/50/73 120/50/73
f 28/105/74 194/95/74 29/95/74
f 158/93/75 324/92/75 159/92/75
f 132/54/76 298/23/76 133/23/76
f 67/57/77 233/126/77 68/126/77
f 81/80/78 247/78/78 82/78/78
f 150/13/79 316/14/79 151/14/79
f 102/138/80 268/111/80 103/111/80
f 96/155/81 262/154/81 97/154/81
f 1/115/82 167/20/82 2/20/82
f 54/65/83 220/60/83 55/60/83
f 2/20/84 168/87/84 3/87/84
f 151/14/85 317/15/85 152/15/85
f 40/119/86 206/118/86 41/118/86
f 19/136/87 185/140/87 20/140/87
f 66/91/88 232/57/88 67/57/88
f 74/96/89 240/94/89 75/94/89
f 152/15/90 318/16/90 153/16/90
f 118/81/91 284/84/91 119/84/91
f 159/92/92 325/21/92 160/21/92
f 104/86/93 270/120/93 105/120/93
f 7/135/94 173/143/94 8/143/94
f 131/28/95 297/54/95 132/54/95
f 82/78/96 248/142/96 83/142/96
f 153/16/97 319/31/97 154/31/97
f 117/83/98 283/81/98 118/81/98
f 27/107/99 193/105/99 28/105/99
f 103/111/100 269/86/100 104/86/100
f 18/108/101 184/136/101 19/136/101
f 62/69/102 228/4/102 63/4/102
f 53/67/103 219/65/103 54/65/103
f 116/33/104 282/83/104 117/83/104
f 101/139/105 267/138/105 102/138/105
f 39/56/106 205/119/106 40/119/106
f 95/156/107 261/155/107 96/155/107
f 140/74/108 306/1/108 141/1/108
f 115/112/109 281/33/109 116/33/109
f 160/21/110 326/19/110 161/19/110
f 38/121/111 204/56/111 39/56/111
f 75/94/112 241/104/112 76/104/112
f 52/70/113 218/67/113 53/67/113
f 83/142/114 249/141/114 84/141/114
f 154/31/115 320/32/115 155/32/115
f 49/38/116 215/36/116 50/36/116
f 26/71/117 192/107/117 27/107/117
f 37/127/118 203/121/118 38/121/118
f 61/66/119 227/69/119 62/69/119
f 130/26/120 296/28/120 131/28/120
f 11/157/121 177/162/121 12/162/121
f 48/68/122 214/38/122 49/38/122
f 25/73/123 191/71/123 26/71/123
f 17/39/124 183/108/124 18/108/124
f 139/47/125 305/74/125 140/74/125
f 68/126/126 234/100/126 69/100/126
f 114/76/127 280/112/127 115/112/127
f 161/19/128 327/43/128 162/43/128
f 138/46/129 304/47/129 139/47/129
f 8/143/130 174/146/130 9/146/130
f 51/75/131 217/70/131 52/70/131
f 3/87/132 169/85/132 4/85/132
f 84/141/133 250/137/133 85/137/133
f 47/97/134 213/68/134 48/68/134
f 94/160/135 260/156/135 95/156/135
f 60/37/136 226/66/136 61/66/136
f 76/104/137 242/106/137 77/106/137
f 69/100/138 235/101/138 70/101/138
f 113/45/139 279/76/139 114/76/139
f 100/144/140 266/139/140 101/139/140
f 162/43/141 328/42/141 163/42/141
f 36/99/142 202/127/142 37/127/142
f 16/41/143 182/39/143 17/39/143
f 129/77/144 295/26/144 130/26/144
f 65/6/145 231/91/145 66/91/145
f 46/98/146 212/97/146 47/97/146
f 24/148/147 190/73/147 25/73/147
f 137/35/148 303/46/148 138/46/148
f 50/36/149 216/75/149 51/75/149
f 4/85/150 170/110/150 5/110/150
f 85/137/151 251/109/151 86/109/151
f 112/89/152 278/45/152 113/45/152
f 35/131/153 201/99/153 36/99/153
f 93/161/154 259/160/154 94/160/154
f 77/106/155 243/72/155 78/72/155
f 155/32/156 321/64/156 156/64/156
f 111/59/157 277/89/157 112/89/157
f 99/149/158 265/144/158 100/144/158
f 163/42/159 329/117/159 164/117/159
f 15/159/160 181/41/160 16/41/160
f 59/44/161 225/37/161 60/37/161
f 70/101/162 236/125/162 71/125/162
f 45/102/163 211/98/163 46/98/163
f 23/150/164 189/148/164 24/148/164
f 164/117/165 330/116/165 165/116/165
f 34/124/166 200/131/166 35/131/166
f 136/34/167 302/35/167 137/35/167
f 86/109/3 251/109/3 252/40/3
f 110/17/4 275/17/4 276/59/4
f 141/1/5 306/1/5 307/2/5
f 165/116/6 330/116/6 166/115/6
f 33/132/7 198/132/7 199/124/7
f 58/48/8 223/48/8 224/44/8
f 9/146/9 174/146/9 175/147/9
f 128/25/10 293/25/10 294/77/10
f 12/162/11 177/162/11 178/164/11
f 44/103/12 209/103/12 210/102/12
f 142/2/13 307/2/13 308/3/13
f 135/82/14 300/82/14 301/34/14
f 78/72/15 243/72/15 244/151/15
f 63/4/16 228/4/16 229/5/16
f 127/27/17 292/27/17 293/25/17
f 5/110/18 170/110/18 171/133/18
f 87/40/19 252/40/19 253/158/19
f 109/18/20 274/18/20 275/17/20
f 22/152/21 187/152/21 188/150/21
f 14/129/22 179/129/22 180/159/22
f 64/5/23 229/5/23 230/6/23
f 126/29/24 291/29/24 292/27/24
f 71/125/25 236/125/25 237/63/25
f 156/64/26 321/64/26 322/113/26
f 43/123/27 208/123/27 209/103/27
f 98/145/28 263/145/28 264/149/28
f 32/62/29 197/62/29 198/132/29
f 92/163/30 257/163/30 258/161/30
f 57/52/31 222/52/31 223/48/31
f 143/3/32 308/3/32 309/7/32
f 125/88/33 290/88/33 291/29/33
f 108/90/34 273/90/34 274/18/34
f 31/134/35 196/134/35 197/62/35
f 134/49/36 299/49/36 300/82/36
f 79/151/37 244/151/37 245/153/37
f 144/7/38 309/7/38 310/8/38
f 124/53/39 289/53/39 290/88/39
f 88/158/40 253/158/40 254/130/40
f 42/122/41 207/122/41 208/123/41
f 21/79/42 186/79/42 187/152/42
f 13/164/43 178/164/43 179/129/43
f 145/8/44 310/8/44 311/9/44
f 123/55/45 288/55/45 289/53/45
f 72/63/46 237/63/46 238/61/46
f 157/113/47 322/113/47 323/93/47
f 107/30/48 272/30/48 273/90/48
f 97/154/49 262/154/49 263/145/49
f 30/114/50 195/114/50 196/134/50
f 56/58/51 221/58/51 222/52/51
f 146/9/52 311/9/52 312/10/52
f 122/22/53 287/22/53 288/55/53
f 89/130/54 254/130/54 255/128/54
f 106/51/55 271/51/55 272/30/55
f 91/165/56 256/165/56 257/163/56
f 133/23/57 298/23/57 299/49/57
f 80/153/58 245/153/58 246/80/58
f 147/10/59 312/10/59 313/11/59
f 121/24/60 286/24/60 287/22/60
f 6/133/61 171/133/61 172/135/61
f 41/118/62 206/118/62 207/122/62
f 29/95/63 194/95/63 195/114/63
f 90/128/64 255/128/64 256/165/64
f 55/60/65 220/60/65 221/58/65
f 10/147/66 175/147/66 176/157/66
f 148/11/67 313/11/67 314/12/67
f 120/50/68 285/50/68 286/24/68
f 105/120/69 270/120/69 271/51/69
f 20/140/70 185/140/70 186/79/70
f 73/61/71 238/61/71 239/96/71
f 149/12/72 314/12/72 315/13/72
f 119/84/73 284/84/73 285/50/73
f 28/105/74 193/105/74 194/95/74
f 158/93/75 323/93/75 324/92/75
f 132/54/76 297/54/76 298/23/76
f 67/57/77 232/57/77 233/126/77
f 81/80/78 246/80/78 247/78/78
f 150/13/79 315/13/79 316/14/79
f 102/138/80 267/138/80 268/111/80
f 96/155/81 261/155/81 262/154/81
f 1/115/82 166/115/82 167/20/82
f 54/65/83 219/65/83 220/60/83
f 2/20/84 167/20/84 168/87/84
f 151/14/85 316/14/85 317/15/85
f 40/119/86 205/119/86 206/118/86
f 19/136/87 184/136/87 185/140/87
f 66/91/88 231/91/88 232/57/88
f 74/96/89 239/96/89 240/94/89
f 152/15/90 317/15/90 318/16/90
f 118/81/91 283/81/91 284/84/91
f 159/92/92 324/92/92 325/21/92
f 104/86/93 269/86/93 270/120/93
f 7/135/94 172/135/94 173/143/94
f 131/28/95 296/28/95 297/54/95
f 82/78/96 247/78/96 248/142/96
f 153/16/97 318/16/97 319/31/97
f 117/83/98 282/83/98 283/81/98
f 27/107/99 192/107/99 193/105/99
f 103/111/100 268/111/100 269/86/100
f 18/108/101 183/108/101 184/136/101
f 62/69/102 227/69/102 228/4/102
f 53/67/103 218/67/103 219/65/103
f 116/33/104 281/33/104 282/83/104
f 101/139/105 266/139/105 267/138/105
f 39/56/106 204/56/106 205/119/106
f 95/156/107 260/156/107 261/155/107
f 140/74/108 305/74/108 306/1/108
f 115/112/109 280/112/109 281/33/109
f 160/21/110 325/21/110 326/19/110
f 38/121/111 203/121/111 204/56/111
f 75/94/112 240/94/112 241/104/112
f 52/70/113 217/70/113 218/67/113
f 83/142/114 248/142/114 249/141/114
f 154/31/115 319/31/115 320/32/115
f 49/38/116 214/38/116 215/36/116
f 26/71/117 191/71/117 192/107/117
f 37/127/118 202/127/118 203/121/118
f 61/66/119 226/66/119 227/69/119
f 130/26/120 295/26/120 296/28/120
f 11/157/121 176/157/121 177/162/121
f 48/68/122 213/68/122 214/38/122
f 25/73/123 190/73/123 191/71/123
f 17/39/124 182/39/124 183/108/124
f 139/47/125 304/47/125 305/74/125
f 68/126/126 233/126/126 234/100/126
f 114/76/127 279/76/127 280/112/127
f 161/19/128 326/19/128 327/43/128
f 138/46/129 303/46/129 304/47/129
f 8/143/130 173/143/130 174/146/130
f 51/75/131 216/75/131 217/70/131
f 3/87/132 168/87/132 169/85/132
f 84/141/133 249/141/133 250/137/133
f 47/97/134 212/97/134 213/68/134
f 94/160/135 259/160/135 260/156/135
f 60/37/136 225/37/136 226/66/136
f 76/104/137 241/104/137 242/106/137
f 69/100/138 234/100/138 235/101/138
f 113/45/139 278/45/139 279/76/139
f 100/144/140 265/144/140 266/139/140
f 162/43/141 327/43/141 328/42/141
f 36/99/142 201/99/142 202/127/142
f 16/41/143 181/41/143 182/39/143
f 129/77/144 294/77/144 295/26/144
f 65/6/145 230/6/145 231/91/145
f 46/98/146 211/98/146 212/97/146
f 24/148/147 189/148/147 190/73/147
f 137/35/148 302/35/148 303/46/148
f 50/36/149 215/36/149 216/75/149
f 4/85/150 169/85/150 170/110/150
f 85/137/151 250/137/151 251/109/151
f 112/89/152 277/89/152 278/45/152
f 35/131/153 200/131/153 201/99/153
f 93/161/154 258/161/154 259/160/154
f 77/106/155 242/106/155 243/72/155
f 155/32/156 320/32/156 321/64/156
f 111/59/157 276/59/157 277/89/157
f 99/149/158 264/149/158 265/144/158
f 163/42/159 328/42/159 329/117/159
f 15/159/160 180/159/160 181/41/160
f 59/44/161 224/44/161 225/37/161
f 70/101/162 235/101/162 236/125/162
f 45/102/163 210/102/163 211/98/163
f 23/150/164 188/150/164 189/148/164
f 164/117/165 329/117/165 330/116/165
f 34/124/166 199/124/166 200/131/166
f 136/34/167 301/34/167 302/35/167
