# Blender 4.4.3
# www.blender.org
mtllib TD_OverDamageBlock.mtl
o 球
v 0.000000 0.418319 0.737560
v 0.000000 0.828085 0.613258
v 0.000000 1.031577 0.409766
v 0.000000 1.141706 0.143891
v 0.000000 1.155878 -0.000000
v 0.000000 1.141706 -0.143891
v 0.000000 1.031577 -0.409766
v 0.000000 0.418319 -0.737560
v 0.026430 0.559445 0.723388
v 0.051844 0.695147 0.681416
v 0.075266 0.820211 0.613258
v 0.095796 0.929831 0.521533
v 0.112644 1.019793 0.409766
v 0.125163 1.086642 0.282252
v 0.132873 1.127806 0.143891
v 0.135476 1.141706 -0.000000
v 0.132873 1.127806 -0.143891
v 0.125163 1.086642 -0.282252
v 0.112644 1.019793 -0.409766
v 0.095796 0.929831 -0.521533
v 0.075266 0.820211 -0.613258
v 0.051844 0.695147 -0.681416
v 0.026430 0.559445 -0.723388
v 0.051844 0.551256 0.723388
v 0.101696 0.679085 0.681416
v 0.147640 0.796893 0.613258
v 0.187910 0.900153 0.521533
v 0.220959 0.984895 0.409766
v 0.245517 1.047865 0.282252
v 0.260639 1.086642 0.143891
v 0.265745 1.099735 -0.000000
v 0.260639 1.086642 -0.143891
v 0.245517 1.047865 -0.282252
v 0.220959 0.984895 -0.409766
v 0.187910 0.900153 -0.521533
v 0.147640 0.796893 -0.613258
v 0.101696 0.679085 -0.681416
v 0.051844 0.551256 -0.723388
v 0.075266 0.537959 0.723388
v 0.147640 0.653002 0.681416
v 0.214340 0.759027 0.613258
v 0.272803 0.851958 0.521533
v 0.320783 0.928224 0.409766
v 0.356435 0.984895 0.282252
v 0.378389 1.019793 0.143891
v 0.385802 1.031577 -0.000000
v 0.378389 1.019793 -0.143891
v 0.356435 0.984895 -0.282252
v 0.320783 0.928224 -0.409766
v 0.272803 0.851958 -0.521533
v 0.214340 0.759027 -0.613258
v 0.147640 0.653003 -0.681416
v 0.075266 0.537959 -0.723388
v 0.095796 0.520065 0.723388
v 0.187910 0.617901 0.681416
v 0.272803 0.708067 0.613258
v 0.347213 0.787098 0.521533
v 0.408279 0.851958 0.409766
v 0.453655 0.900153 0.282252
v 0.481598 0.929831 0.143891
v 0.491033 0.939852 -0.000000
v 0.481598 0.929831 -0.143891
v 0.453655 0.900153 -0.282252
v 0.408279 0.851958 -0.409766
v 0.347213 0.787098 -0.521533
v 0.272803 0.708067 -0.613258
v 0.187910 0.617901 -0.681416
v 0.095796 0.520065 -0.723388
v 0.112644 0.498260 0.723388
v 0.220959 0.575129 0.681416
v 0.320783 0.645972 0.613258
v 0.408279 0.708067 0.521533
v 0.480085 0.759027 0.409766
v 0.533442 0.796893 0.282252
v 0.566299 0.820211 0.143891
v 0.577394 0.828085 -0.000000
v 0.566299 0.820211 -0.143891
v 0.533442 0.796893 -0.282252
v 0.480085 0.759027 -0.409766
v 0.408279 0.708067 -0.521533
v 0.320783 0.645972 -0.613258
v 0.220959 0.575129 -0.681416
v 0.112644 0.498260 -0.723388
v 0.125163 0.473383 0.723388
v 0.245517 0.526332 0.681416
v 0.356435 0.575129 0.613258
v 0.453656 0.617901 0.521533
v 0.533442 0.653002 0.409766
v 0.592729 0.679085 0.282252
v 0.629238 0.695147 0.143891
v 0.641566 0.700570 -0.000000
v 0.629238 0.695147 -0.143891
v 0.592729 0.679085 -0.282252
v 0.533442 0.653002 -0.409766
v 0.453656 0.617901 -0.521533
v 0.356435 0.575129 -0.613258
v 0.245517 0.526332 -0.681416
v 0.125163 0.473383 -0.723388
v 0.132873 0.446390 0.723388
v 0.260639 0.473383 0.681416
v 0.378389 0.498260 0.613258
v 0.481598 0.520065 0.521533
v 0.566299 0.537959 0.409766
v 0.629238 0.551256 0.282252
v 0.667996 0.559444 0.143891
v 0.681082 0.562209 -0.000000
v 0.667996 0.559444 -0.143891
v 0.629238 0.551256 -0.282252
v 0.566299 0.537959 -0.409766
v 0.481598 0.520065 -0.521533
v 0.378389 0.498260 -0.613258
v 0.260639 0.473383 -0.681416
v 0.132873 0.446390 -0.723388
v 0.135476 0.418319 0.723388
v 0.265745 0.418319 0.681416
v 0.385802 0.418319 0.613258
v 0.491033 0.418319 0.521533
v 0.577394 0.418319 0.409766
v 0.641566 0.418319 0.282252
v 0.681083 0.418319 0.143891
v 0.694426 0.418319 -0.000000
v 0.681083 0.418319 -0.143891
v 0.641566 0.418319 -0.282252
v 0.577394 0.418319 -0.409766
v 0.491033 0.418319 -0.521533
v 0.385802 0.418319 -0.613258
v 0.265745 0.418319 -0.681416
v 0.135476 0.418319 -0.723388
v 0.132873 0.390247 0.723388
v 0.260639 0.363254 0.681416
v 0.378389 0.338377 0.613258
v 0.481598 0.316573 0.521533
v 0.566299 0.298678 0.409766
v 0.629238 0.285381 0.282252
v 0.667996 0.277193 0.143891
v 0.681082 0.274428 -0.000000
v 0.667996 0.277193 -0.143891
v 0.629238 0.285381 -0.282252
v 0.566299 0.298678 -0.409766
v 0.481598 0.316573 -0.521533
v 0.378389 0.338377 -0.613258
v 0.260639 0.363254 -0.681416
v 0.132873 0.390247 -0.723388
v 0.125163 0.363254 0.723388
v 0.245517 0.310305 0.681416
v 0.356435 0.261508 0.613258
v 0.453655 0.218736 0.521533
v 0.533442 0.183635 0.409766
v 0.592729 0.157552 0.282252
v 0.629238 0.141490 0.143891
v 0.641566 0.136067 -0.000000
v 0.629238 0.141490 -0.143891
v 0.592729 0.157552 -0.282252
v 0.533442 0.183635 -0.409766
v 0.453655 0.218736 -0.521533
v 0.356435 0.261508 -0.613258
v 0.245517 0.310306 -0.681416
v 0.125163 0.363254 -0.723388
v 0.112644 0.338377 0.723388
v 0.220959 0.261508 0.681416
v 0.320783 0.190665 0.613258
v 0.408279 0.128570 0.521533
v 0.480085 0.077611 0.409766
v 0.533442 0.039744 0.282252
v 0.566299 0.016426 0.143891
v 0.577394 0.008552 -0.000000
v 0.566299 0.016426 -0.143891
v 0.533442 0.039744 -0.282252
v 0.480085 0.077611 -0.409766
v 0.408279 0.128570 -0.521533
v 0.320783 0.190665 -0.613258
v 0.220959 0.261508 -0.681416
v 0.112644 0.338377 -0.723388
v 0.095796 0.316573 0.723388
v 0.187910 0.218736 0.681416
v 0.272803 0.128570 0.613258
v 0.347213 0.049539 0.521533
v 0.408279 -0.015320 0.409766
v 0.453655 -0.063515 0.282252
v 0.481598 -0.093194 0.143891
v 0.491033 -0.103215 0.000000
v 0.481598 -0.093194 -0.143891
v 0.453655 -0.063515 -0.282252
v 0.408279 -0.015320 -0.409766
v 0.347213 0.049539 -0.521533
v 0.272803 0.128570 -0.613258
v 0.187910 0.218736 -0.681416
v 0.095796 0.316573 -0.723388
v 0.075266 0.298678 0.723388
v 0.147640 0.183635 0.681416
v 0.214340 0.077611 0.613258
v 0.272803 -0.015321 0.521533
v 0.320783 -0.091587 0.409766
v 0.356435 -0.148258 0.282252
v 0.378389 -0.183156 0.143891
v 0.385802 -0.194940 0.000000
v 0.378389 -0.183156 -0.143891
v 0.356435 -0.148258 -0.282252
v 0.320783 -0.091587 -0.409766
v 0.272803 -0.015320 -0.521533
v 0.214340 0.077611 -0.613258
v 0.147640 0.183635 -0.681416
v 0.075266 0.298678 -0.723388
v 0.051844 0.285381 0.723388
v 0.101696 0.157552 0.681416
v 0.147640 0.039744 0.613258
v 0.187910 -0.063515 0.521533
v 0.220959 -0.148258 0.409766
v 0.245517 -0.211228 0.282252
v 0.260639 -0.250004 0.143891
v 0.265745 -0.263097 0.000000
v 0.260639 -0.250004 -0.143891
v 0.245517 -0.211228 -0.282252
v 0.220959 -0.148258 -0.409766
v 0.187910 -0.063515 -0.521533
v 0.147640 0.039744 -0.613258
v 0.101696 0.157552 -0.681416
v 0.051844 0.285381 -0.723388
v 0.026430 0.277193 0.723388
v 0.051844 0.141490 0.681416
v 0.075266 0.016426 0.613258
v 0.095796 -0.093194 0.521533
v 0.112644 -0.183156 0.409766
v 0.125163 -0.250004 0.282252
v 0.132872 -0.291169 0.143891
v 0.135475 -0.305069 0.000000
v 0.132872 -0.291169 -0.143891
v 0.125163 -0.250004 -0.282252
v 0.112644 -0.183156 -0.409766
v 0.095796 -0.093194 -0.521533
v 0.075266 0.016426 -0.613258
v 0.051844 0.141490 -0.681416
v 0.026430 0.277193 -0.723388
v 0.000000 0.274428 0.723388
v 0.000000 0.136067 0.681416
v 0.000000 0.008553 0.613258
v 0.000000 -0.103215 0.521533
v 0.000000 -0.194940 0.409766
v 0.000000 -0.263097 0.282252
v 0.000000 -0.305069 0.143891
v 0.000000 -0.319241 0.000000
v 0.000000 -0.305069 -0.143891
v 0.000000 -0.263097 -0.282252
v 0.000000 -0.194940 -0.409766
v 0.000000 -0.103215 -0.521533
v 0.000000 0.008553 -0.613258
v 0.000000 0.136067 -0.681416
v 0.000000 0.274428 -0.723388
v -0.026430 0.277193 0.723388
v -0.051844 0.141490 0.681416
v -0.075266 0.016426 0.613258
v -0.095796 -0.093194 0.521533
v -0.112644 -0.183156 0.409766
v -0.125163 -0.250004 0.282252
v -0.132873 -0.291169 0.143891
v -0.135476 -0.305068 0.000000
v -0.132873 -0.291169 -0.143891
v -0.125163 -0.250004 -0.282252
v -0.112644 -0.183156 -0.409766
v -0.095796 -0.093194 -0.521533
v -0.075266 0.016426 -0.613258
v -0.051844 0.141490 -0.681416
v -0.026430 0.277193 -0.723388
v -0.051844 0.285381 0.723388
v -0.101696 0.157552 0.681416
v -0.147640 0.039744 0.613258
v -0.187910 -0.063515 0.521533
v -0.220959 -0.148258 0.409766
v -0.245516 -0.211228 0.282252
v -0.260639 -0.250004 0.143891
v -0.265745 -0.263097 0.000000
v -0.260639 -0.250004 -0.143891
v -0.245516 -0.211228 -0.282252
v -0.220959 -0.148258 -0.409766
v -0.187910 -0.063515 -0.521533
v -0.147640 0.039744 -0.613258
v -0.101696 0.157552 -0.681416
v -0.051844 0.285381 -0.723388
v -0.075266 0.298678 0.723388
v -0.147640 0.183635 0.681416
v -0.214340 0.077611 0.613258
v -0.272803 -0.015320 0.521533
v -0.320783 -0.091587 0.409766
v -0.356435 -0.148258 0.282252
v -0.378389 -0.183156 0.143891
v -0.385802 -0.194939 0.000000
v -0.378389 -0.183156 -0.143891
v -0.356435 -0.148258 -0.282252
v -0.320783 -0.091587 -0.409766
v -0.272803 -0.015320 -0.521533
v -0.214340 0.077611 -0.613258
v -0.147640 0.183635 -0.681416
v -0.075266 0.298678 -0.723388
v -0.095796 0.316573 0.723388
v -0.187910 0.218736 0.681416
v -0.272803 0.128570 0.613258
v -0.347213 0.049539 0.521533
v -0.408279 -0.015320 0.409766
v -0.453655 -0.063515 0.282252
v -0.481598 -0.093193 0.143891
v -0.491033 -0.103214 0.000000
v -0.481598 -0.093193 -0.143891
v -0.453655 -0.063515 -0.282252
v -0.408279 -0.015320 -0.409766
v -0.347213 0.049539 -0.521533
v -0.272803 0.128570 -0.613258
v -0.187910 0.218737 -0.681416
v -0.095796 0.316573 -0.723388
v -0.112644 0.338377 0.723388
v -0.220959 0.261508 0.681416
v -0.320783 0.190665 0.613258
v -0.408279 0.128570 0.521533
v -0.480085 0.077611 0.409766
v -0.533442 0.039744 0.282252
v -0.566299 0.016426 0.143891
v -0.577394 0.008553 -0.000000
v -0.566299 0.016426 -0.143891
v -0.533442 0.039744 -0.282252
v -0.480085 0.077611 -0.409766
v -0.408279 0.128570 -0.521533
v -0.320783 0.190665 -0.613258
v -0.220959 0.261508 -0.681416
v -0.112644 0.338377 -0.723388
v -0.125163 0.363254 0.723388
v -0.245517 0.310306 0.681416
v -0.356435 0.261508 0.613258
v -0.453655 0.218736 0.521533
v -0.533442 0.183635 0.409766
v -0.592729 0.157552 0.282252
v -0.629238 0.141490 0.143891
v -0.641565 0.136067 -0.000000
v -0.629238 0.141490 -0.143891
v -0.592729 0.157552 -0.282252
v -0.533442 0.183635 -0.409766
v -0.453655 0.218737 -0.521533
v -0.356435 0.261508 -0.613258
v -0.245517 0.310306 -0.681416
v -0.125163 0.363254 -0.723388
v -0.132873 0.390247 0.723388
v -0.260639 0.363254 0.681416
v -0.378389 0.338377 0.613258
v -0.481598 0.316573 0.521533
v -0.566299 0.298678 0.409766
v -0.629238 0.285381 0.282252
v -0.667996 0.277193 0.143891
v -0.681082 0.274428 -0.000000
v -0.667996 0.277193 -0.143891
v -0.629238 0.285381 -0.282252
v -0.566299 0.298678 -0.409766
v -0.481598 0.316573 -0.521533
v -0.378389 0.338377 -0.613258
v -0.260639 0.363254 -0.681416
v -0.132873 0.390247 -0.723388
v -0.135476 0.418319 0.723388
v -0.265745 0.418319 0.681416
v -0.385802 0.418319 0.613258
v -0.491033 0.418319 0.521533
v -0.577394 0.418319 0.409766
v -0.641566 0.418319 0.282252
v -0.681082 0.418319 0.143891
v -0.694425 0.418319 -0.000000
v -0.681082 0.418319 -0.143891
v -0.641566 0.418319 -0.282252
v -0.577394 0.418319 -0.409766
v -0.491033 0.418319 -0.521533
v -0.385802 0.418319 -0.613258
v -0.265745 0.418319 -0.681416
v -0.135476 0.418319 -0.723388
v -0.132873 0.446390 0.723388
v -0.260639 0.473383 0.681416
v -0.378389 0.498260 0.613258
v -0.481598 0.520065 0.521533
v -0.566299 0.537959 0.409766
v -0.629238 0.551256 0.282252
v -0.667995 0.559445 0.143891
v -0.681082 0.562210 -0.000000
v -0.667995 0.559445 -0.143891
v -0.629238 0.551256 -0.282252
v -0.566299 0.537959 -0.409766
v -0.481598 0.520065 -0.521533
v -0.378389 0.498260 -0.613258
v -0.260639 0.473383 -0.681416
v -0.132873 0.446390 -0.723388
v -0.125163 0.473383 0.723388
v -0.245516 0.526332 0.681416
v -0.356434 0.575129 0.613258
v -0.453655 0.617901 0.521533
v -0.533442 0.653002 0.409766
v -0.592729 0.679085 0.282252
v -0.629238 0.695147 0.143891
v -0.641565 0.700571 -0.000000
v -0.629238 0.695147 -0.143891
v -0.592729 0.679085 -0.282252
v -0.533442 0.653002 -0.409766
v -0.453655 0.617901 -0.521533
v -0.356434 0.575129 -0.613258
v -0.245516 0.526332 -0.681416
v -0.125163 0.473383 -0.723388
v -0.112644 0.498260 0.723388
v -0.220959 0.575129 0.681416
v -0.320783 0.645972 0.613258
v -0.408279 0.708067 0.521533
v -0.480085 0.759027 0.409766
v -0.533442 0.796893 0.282252
v -0.566299 0.820211 0.143891
v -0.577393 0.828085 -0.000000
v -0.566299 0.820211 -0.143891
v -0.533442 0.796893 -0.282252
v -0.480085 0.759027 -0.409766
v -0.408279 0.708067 -0.521533
v -0.320783 0.645972 -0.613258
v -0.220959 0.575129 -0.681416
v -0.112644 0.498260 -0.723388
v -0.095796 0.520065 0.723388
v -0.187910 0.617901 0.681416
v -0.272803 0.708067 0.613258
v -0.347213 0.787098 0.521533
v -0.408279 0.851958 0.409766
v -0.453655 0.900152 0.282252
v -0.481598 0.929831 0.143891
v -0.491032 0.939852 -0.000000
v -0.481598 0.929831 -0.143891
v -0.453655 0.900152 -0.282252
v -0.408279 0.851958 -0.409766
v -0.347213 0.787098 -0.521533
v -0.272803 0.708067 -0.613258
v -0.187910 0.617901 -0.681416
v -0.095796 0.520065 -0.723388
v -0.075266 0.537959 0.723388
v -0.147640 0.653002 0.681416
v -0.214340 0.759026 0.613258
v -0.272803 0.851958 0.521533
v -0.320783 0.928224 0.409766
v -0.356435 0.984895 0.282252
v -0.378389 1.019793 0.143891
v -0.385802 1.031577 -0.000000
v -0.378389 1.019793 -0.143891
v -0.356435 0.984895 -0.282252
v -0.320783 0.928224 -0.409766
v -0.272803 0.851958 -0.521533
v -0.214340 0.759027 -0.613258
v -0.147640 0.653002 -0.681416
v -0.075266 0.537959 -0.723388
v -0.051844 0.551256 0.723388
v -0.101696 0.679085 0.681416
v -0.147640 0.796893 0.613258
v -0.187910 0.900153 0.521533
v -0.220959 0.984895 0.409766
v -0.245516 1.047865 0.282252
v -0.260639 1.086641 0.143891
v -0.265745 1.099734 -0.000000
v -0.260639 1.086641 -0.143891
v -0.245516 1.047865 -0.282252
v -0.220959 0.984895 -0.409766
v -0.187910 0.900153 -0.521533
v -0.147640 0.796893 -0.613258
v -0.101696 0.679085 -0.681416
v -0.051844 0.551256 -0.723388
v -0.026430 0.559444 0.723388
v -0.051844 0.695147 0.681416
v -0.075266 0.820211 0.613258
v -0.095796 0.929831 0.521533
v -0.112644 1.019793 0.409766
v -0.125163 1.086641 0.282252
v -0.132872 1.127806 0.143891
v -0.135475 1.141706 -0.000000
v -0.132872 1.127806 -0.143891
v -0.125163 1.086641 -0.282252
v -0.112644 1.019793 -0.409766
v -0.095796 0.929831 -0.521533
v -0.075266 0.820211 -0.613258
v -0.051844 0.695147 -0.681416
v -0.026430 0.559444 -0.723388
v 0.000000 0.562209 0.723388
v 0.000000 0.700570 0.681416
v 0.000000 0.939852 0.521533
v 0.000000 1.099735 0.282252
v 0.000000 1.099735 -0.282252
v 0.000000 0.939852 -0.521533
v 0.000000 0.828084 -0.613258
v 0.000000 0.700570 -0.681416
v 0.000000 0.562209 -0.723388
v -4.116088 -0.581681 0.581681
v -4.116088 -0.581681 -1.418319
v -4.116088 1.418319 0.581681
v -4.116088 1.418319 -1.418319
v 4.116088 -0.581681 0.581681
v 4.116088 -0.581681 -1.418319
v 4.116088 1.418319 0.581681
v 4.116088 1.418319 -1.418319
v -4.116088 -0.305269 0.711469
v -4.116088 -0.305269 -1.288531
v -4.116088 1.141906 0.711469
v -4.116088 1.141906 -1.288531
v 4.116088 -0.305269 0.711469
v 4.116088 -0.305269 -1.288531
v 4.116088 1.141906 0.711469
v 4.116088 1.141906 -1.288531
vn 0.0303 0.2902 -0.9565
vn 0.1035 0.9898 0.0975
vn 0.0102 0.0980 0.9951
vn 0.0102 0.0980 -0.9951
vn 0.1035 0.9898 -0.0975
vn 0.0303 0.2902 0.9565
vn 0.0304 0.2902 0.9565
vn 0.0996 0.9522 -0.2888
vn 0.0493 0.4708 0.8809
vn 0.0919 0.8782 -0.4694
vn 0.0662 0.6330 0.7713
vn 0.0806 0.7705 -0.6323
vn 0.0806 0.7705 0.6323
vn 0.0662 0.6330 -0.7713
vn 0.0919 0.8782 0.4694
vn 0.0492 0.4708 -0.8809
vn 0.0493 0.4708 -0.8809
vn 0.0996 0.9522 0.2888
vn 0.1457 0.4522 -0.8799
vn 0.2937 0.9116 0.2876
vn 0.0899 0.2789 -0.9561
vn 0.3052 0.9473 0.0970
vn 0.0304 0.0942 0.9951
vn 0.0304 0.0942 -0.9951
vn 0.3052 0.9473 -0.0970
vn 0.0899 0.2789 0.9561
vn 0.2937 0.9116 -0.2876
vn 0.1457 0.4522 0.8799
vn 0.2711 0.8413 -0.4677
vn 0.1957 0.6075 0.7698
vn 0.2380 0.7388 -0.6305
vn 0.2380 0.7388 0.6305
vn 0.1957 0.6075 -0.7698
vn 0.2711 0.8413 0.4677
vn 0.2362 0.4160 0.8782
vn 0.4372 0.7701 -0.4645
vn 0.3167 0.5579 0.7671
vn 0.3845 0.6773 -0.6272
vn 0.3845 0.6773 0.6272
vn 0.3167 0.5579 -0.7671
vn 0.4372 0.7701 0.4645
vn 0.2362 0.4160 -0.8782
vn 0.2361 0.4160 -0.8782
vn 0.4732 0.8335 0.2853
vn 0.1458 0.2568 -0.9554
vn 0.4914 0.8656 0.0962
vn 0.0493 0.0868 0.9950
vn 0.0493 0.0868 -0.9950
vn 0.4914 0.8656 -0.0962
vn 0.1458 0.2568 0.9554
vn 0.4732 0.8335 -0.2853
vn 0.6303 0.7231 0.2824
vn 0.1960 0.2249 -0.9545
vn 0.6541 0.7504 0.0952
vn 0.6541 0.7504 0.0951
vn 0.0663 0.0761 0.9949
vn 0.0663 0.0761 -0.9949
vn 0.6541 0.7504 -0.0952
vn 0.1960 0.2249 0.9545
vn 0.6303 0.7231 -0.2824
vn 0.3170 0.3637 0.8759
vn 0.5833 0.6692 -0.4605
vn 0.4243 0.4868 0.7636
vn 0.5140 0.5897 -0.6230
vn 0.5140 0.5897 0.6230
vn 0.4243 0.4868 -0.7636
vn 0.5833 0.6692 0.4605
vn 0.3170 0.3637 -0.8759
vn 0.7042 0.5441 -0.4562
vn 0.5144 0.3975 0.7598
vn 0.6218 0.4804 -0.6185
vn 0.6218 0.4804 0.6185
vn 0.5144 0.3975 -0.7598
vn 0.7042 0.5441 0.4562
vn 0.3852 0.2976 -0.8735
vn 0.7598 0.5871 0.2794
vn 0.2386 0.1844 -0.9535
vn 0.7878 0.6087 0.0941
vn 0.0808 0.0625 0.9948
vn 0.0808 0.0625 -0.9948
vn 0.7878 0.6087 -0.0941
vn 0.7878 0.6087 -0.0940
vn 0.2386 0.1844 0.9535
vn 0.7598 0.5871 -0.2794
vn 0.3852 0.2976 0.8735
vn 0.2720 0.1369 -0.9525
vn 0.8894 0.4476 0.0931
vn 0.0922 0.0464 0.9947
vn 0.0922 0.0464 -0.9947
vn 0.8894 0.4476 -0.0931
vn 0.2720 0.1369 0.9525
vn 0.8584 0.4320 -0.2767
vn 0.8584 0.4320 -0.2766
vn 0.4384 0.2206 0.8713
vn 0.7966 0.4009 -0.4524
vn 0.5843 0.2940 0.7564
vn 0.7047 0.3547 -0.6145
vn 0.7047 0.3547 0.6145
vn 0.5843 0.2940 -0.7564
vn 0.7966 0.4009 0.4524
vn 0.4384 0.2206 -0.8713
vn 0.8584 0.4320 0.2767
vn 0.6318 0.1804 0.7538
vn 0.7609 0.2173 -0.6114
vn 0.7609 0.2173 0.6114
vn 0.6318 0.1804 -0.7538
vn 0.8589 0.2453 0.4495
vn 0.4747 0.1356 -0.8696
vn 0.9246 0.2641 0.2746
vn 0.2949 0.0842 -0.9518
vn 0.9574 0.2735 0.0923
vn 0.9574 0.2734 0.0923
vn 0.1000 0.0286 0.9946
vn 0.1000 0.0286 -0.9946
vn 0.9574 0.2735 -0.0923
vn 0.2949 0.0842 0.9518
vn 0.9246 0.2641 -0.2746
vn 0.4747 0.1356 0.8696
vn 0.8589 0.2453 -0.4495
vn 0.9915 0.0919 0.0919
vn 0.9915 0.0920 0.0919
vn 0.1040 0.0096 0.9945
vn 0.1040 0.0096 -0.9945
vn 0.9915 0.0919 -0.0919
vn 0.3065 0.0284 0.9514
vn 0.9578 0.0888 -0.2735
vn 0.4932 0.0457 0.8687
vn 0.8902 0.0826 -0.4480
vn 0.6559 0.0608 0.7524
vn 0.7892 0.0732 -0.6098
vn 0.7892 0.0732 0.6098
vn 0.6559 0.0608 -0.7524
vn 0.8902 0.0826 0.4480
vn 0.4932 0.0457 -0.8687
vn 0.9578 0.0888 0.2735
vn 0.3065 0.0284 -0.9514
vn 0.7892 -0.0732 -0.6098
vn 0.7892 -0.0732 0.6098
vn 0.6559 -0.0608 -0.7524
vn 0.8902 -0.0826 0.4480
vn 0.4932 -0.0457 -0.8687
vn 0.9578 -0.0888 0.2735
vn 0.3065 -0.0284 -0.9514
vn 0.9915 -0.0919 0.0919
vn 0.1040 -0.0096 0.9945
vn 0.1040 -0.0096 -0.9945
vn 0.9915 -0.0919 -0.0919
vn 0.3065 -0.0284 0.9514
vn 0.9578 -0.0888 -0.2735
vn 0.4932 -0.0457 0.8687
vn 0.8902 -0.0826 -0.4480
vn 0.6559 -0.0608 0.7524
vn 0.1000 -0.0286 -0.9946
vn 0.9574 -0.2735 -0.0923
vn 0.2949 -0.0842 0.9518
vn 0.9246 -0.2641 -0.2746
vn 0.4747 -0.1356 0.8696
vn 0.8589 -0.2453 -0.4495
vn 0.6318 -0.1805 0.7538
vn 0.7609 -0.2173 -0.6114
vn 0.7609 -0.2173 0.6114
vn 0.6318 -0.1805 -0.7538
vn 0.8589 -0.2453 0.4495
vn 0.4747 -0.1356 -0.8696
vn 0.9246 -0.2641 0.2746
vn 0.2949 -0.0842 -0.9518
vn 0.9574 -0.2735 0.0923
vn 0.9574 -0.2734 0.0923
vn 0.1000 -0.0286 0.9946
vn 0.5843 -0.2940 -0.7564
vn 0.7966 -0.4009 0.4524
vn 0.4384 -0.2206 -0.8713
vn 0.8584 -0.4320 0.2767
vn 0.2720 -0.1369 -0.9525
vn 0.8894 -0.4476 0.0931
vn 0.0922 -0.0464 0.9947
vn 0.0922 -0.0464 -0.9947
vn 0.8894 -0.4476 -0.0931
vn 0.2720 -0.1369 0.9525
vn 0.8584 -0.4320 -0.2767
vn 0.4384 -0.2206 0.8713
vn 0.7966 -0.4009 -0.4524
vn 0.5843 -0.2940 0.7564
vn 0.7047 -0.3547 -0.6145
vn 0.7047 -0.3547 0.6145
vn 0.2386 -0.1844 0.9535
vn 0.7598 -0.5871 -0.2794
vn 0.3852 -0.2976 0.8735
vn 0.7042 -0.5441 -0.4562
vn 0.5144 -0.3975 0.7598
vn 0.6218 -0.4804 -0.6185
vn 0.6218 -0.4804 0.6185
vn 0.5144 -0.3975 -0.7598
vn 0.7042 -0.5441 0.4562
vn 0.3852 -0.2976 -0.8735
vn 0.7598 -0.5871 0.2794
vn 0.2386 -0.1844 -0.9535
vn 0.7878 -0.6087 0.0941
vn 0.7878 -0.6087 0.0940
vn 0.0808 -0.0625 0.9948
vn 0.0808 -0.0625 -0.9948
vn 0.7878 -0.6087 -0.0941
vn 0.5833 -0.6691 0.4605
vn 0.3170 -0.3637 -0.8759
vn 0.6303 -0.7231 0.2824
vn 0.1960 -0.2249 -0.9545
vn 0.6541 -0.7504 0.0952
vn 0.0663 -0.0761 0.9949
vn 0.0663 -0.0761 -0.9949
vn 0.6541 -0.7504 -0.0952
vn 0.6541 -0.7504 -0.0951
vn 0.1960 -0.2249 0.9545
vn 0.6303 -0.7231 -0.2824
vn 0.3170 -0.3637 0.8759
vn 0.5833 -0.6691 -0.4605
vn 0.5833 -0.6692 -0.4605
vn 0.4243 -0.4868 0.7636
vn 0.5140 -0.5897 -0.6230
vn 0.5140 -0.5897 0.6230
vn 0.4243 -0.4868 -0.7636
vn 0.4732 -0.8335 -0.2853
vn 0.2362 -0.4160 0.8782
vn 0.4372 -0.7701 -0.4645
vn 0.3167 -0.5579 0.7671
vn 0.3845 -0.6773 -0.6272
vn 0.3845 -0.6773 0.6272
vn 0.3167 -0.5579 -0.7671
vn 0.4372 -0.7701 0.4645
vn 0.2362 -0.4160 -0.8782
vn 0.4732 -0.8335 0.2853
vn 0.1458 -0.2568 -0.9554
vn 0.4914 -0.8656 0.0962
vn 0.0493 -0.0868 0.9950
vn 0.0493 -0.0868 -0.9950
vn 0.4914 -0.8656 -0.0962
vn 0.1458 -0.2568 0.9554
vn 0.1457 -0.4522 -0.8799
vn 0.2937 -0.9116 0.2876
vn 0.0899 -0.2789 -0.9561
vn 0.3052 -0.9473 0.0970
vn 0.0304 -0.0942 0.9951
vn 0.0304 -0.0942 -0.9951
vn 0.3052 -0.9473 -0.0970
vn 0.0899 -0.2789 0.9561
vn 0.2937 -0.9116 -0.2876
vn 0.1457 -0.4522 0.8799
vn 0.2711 -0.8413 -0.4677
vn 0.1957 -0.6075 0.7698
vn 0.2380 -0.7388 -0.6305
vn 0.2380 -0.7388 0.6305
vn 0.1957 -0.6075 -0.7698
vn 0.2711 -0.8413 0.4677
vn 0.0492 -0.4708 0.8809
vn 0.0919 -0.8782 -0.4694
vn 0.0662 -0.6330 0.7713
vn 0.0806 -0.7705 -0.6323
vn 0.0806 -0.7705 0.6323
vn 0.0662 -0.6330 -0.7713
vn 0.0919 -0.8782 0.4694
vn 0.0492 -0.4708 -0.8809
vn 0.0996 -0.9522 0.2888
vn 0.0304 -0.2902 -0.9565
vn 0.1035 -0.9898 0.0975
vn 0.0103 -0.0980 0.9951
vn 0.0103 -0.0980 -0.9951
vn 0.1035 -0.9898 -0.0975
vn 0.0304 -0.2902 0.9565
vn 0.0996 -0.9522 -0.2888
vn -0.0996 -0.9522 0.2888
vn -0.0304 -0.2902 -0.9565
vn -0.1036 -0.9898 0.0975
vn -0.0103 -0.0980 0.9951
vn -0.0103 -0.0980 -0.9951
vn -0.1036 -0.9898 -0.0975
vn -0.1035 -0.9898 -0.0975
vn -0.0304 -0.2902 0.9565
vn -0.0303 -0.2902 0.9565
vn -0.0996 -0.9522 -0.2888
vn -0.0492 -0.4708 0.8809
vn -0.0919 -0.8782 -0.4694
vn -0.0662 -0.6330 0.7713
vn -0.0806 -0.7705 -0.6323
vn -0.0806 -0.7705 0.6323
vn -0.0662 -0.6330 -0.7713
vn -0.0919 -0.8782 0.4694
vn -0.0492 -0.4708 -0.8809
vn -0.2711 -0.8413 -0.4677
vn -0.1957 -0.6075 0.7698
vn -0.2380 -0.7388 -0.6305
vn -0.2380 -0.7388 0.6305
vn -0.1957 -0.6075 -0.7698
vn -0.2711 -0.8413 0.4677
vn -0.1457 -0.4522 -0.8799
vn -0.2937 -0.9116 0.2876
vn -0.0899 -0.2789 -0.9561
vn -0.3052 -0.9473 0.0970
vn -0.0304 -0.0942 0.9951
vn -0.0304 -0.0942 -0.9951
vn -0.3052 -0.9473 -0.0970
vn -0.0899 -0.2789 0.9561
vn -0.2937 -0.9116 -0.2876
vn -0.1457 -0.4522 0.8799
vn -0.1458 -0.2568 -0.9554
vn -0.4914 -0.8656 0.0962
vn -0.0493 -0.0868 0.9950
vn -0.0493 -0.0868 -0.9950
vn -0.4914 -0.8656 -0.0962
vn -0.1458 -0.2568 0.9554
vn -0.4732 -0.8335 -0.2853
vn -0.2362 -0.4160 0.8782
vn -0.4372 -0.7701 -0.4645
vn -0.3167 -0.5579 0.7671
vn -0.3845 -0.6773 -0.6272
vn -0.3845 -0.6773 0.6272
vn -0.3167 -0.5579 -0.7671
vn -0.4372 -0.7701 0.4645
vn -0.2362 -0.4160 -0.8782
vn -0.4732 -0.8335 0.2853
vn -0.5140 -0.5897 -0.6230
vn -0.5140 -0.5897 0.6230
vn -0.4243 -0.4868 -0.7636
vn -0.5833 -0.6691 0.4605
vn -0.3170 -0.3637 -0.8759
vn -0.6303 -0.7231 0.2824
vn -0.1960 -0.2249 -0.9545
vn -0.6541 -0.7504 0.0951
vn -0.0663 -0.0761 0.9949
vn -0.0663 -0.0761 -0.9949
vn -0.6541 -0.7504 -0.0951
vn -0.1960 -0.2249 0.9545
vn -0.6303 -0.7231 -0.2824
vn -0.3170 -0.3637 0.8759
vn -0.5833 -0.6691 -0.4605
vn -0.4243 -0.4868 0.7636
vn -0.0808 -0.0625 0.9948
vn -0.0808 -0.0625 -0.9948
vn -0.7878 -0.6087 -0.0940
vn -0.2386 -0.1844 0.9535
vn -0.7598 -0.5871 -0.2794
vn -0.3852 -0.2976 0.8735
vn -0.7042 -0.5441 -0.4562
vn -0.5144 -0.3975 0.7598
vn -0.6218 -0.4804 -0.6185
vn -0.6218 -0.4804 0.6185
vn -0.5144 -0.3975 -0.7598
vn -0.7042 -0.5441 0.4562
vn -0.3852 -0.2976 -0.8735
vn -0.7598 -0.5871 0.2794
vn -0.2386 -0.1844 -0.9535
vn -0.7878 -0.6087 0.0940
vn -0.7878 -0.6087 0.0941
vn -0.7047 -0.3547 0.6145
vn -0.5843 -0.2940 -0.7564
vn -0.7966 -0.4009 0.4524
vn -0.4384 -0.2206 -0.8713
vn -0.8584 -0.4320 0.2767
vn -0.2720 -0.1369 -0.9525
vn -0.8894 -0.4476 0.0931
vn -0.0922 -0.0464 0.9947
vn -0.0922 -0.0464 -0.9947
vn -0.8894 -0.4476 -0.0931
vn -0.2720 -0.1369 0.9525
vn -0.8584 -0.4320 -0.2767
vn -0.8584 -0.4320 -0.2766
vn -0.4384 -0.2206 0.8713
vn -0.7966 -0.4009 -0.4524
vn -0.5843 -0.2940 0.7564
vn -0.7047 -0.3547 -0.6145
vn -0.9574 -0.2735 -0.0923
vn -0.2949 -0.0842 0.9518
vn -0.9246 -0.2641 -0.2746
vn -0.4747 -0.1356 0.8696
vn -0.8589 -0.2453 -0.4495
vn -0.6318 -0.1805 0.7538
vn -0.7609 -0.2173 -0.6114
vn -0.7609 -0.2173 0.6114
vn -0.6318 -0.1805 -0.7538
vn -0.6318 -0.1804 -0.7538
vn -0.8589 -0.2453 0.4495
vn -0.4747 -0.1356 -0.8696
vn -0.9246 -0.2641 0.2746
vn -0.2949 -0.0842 -0.9518
vn -0.9574 -0.2735 0.0923
vn -0.1000 -0.0286 0.9946
vn -0.1000 -0.0286 -0.9946
vn -0.6559 -0.0608 -0.7524
vn -0.8902 -0.0826 0.4480
vn -0.4932 -0.0457 -0.8687
vn -0.9578 -0.0888 0.2735
vn -0.3065 -0.0284 -0.9514
vn -0.9915 -0.0919 0.0919
vn -0.1040 -0.0096 0.9945
vn -0.1040 -0.0096 -0.9945
vn -0.9915 -0.0919 -0.0919
vn -0.3065 -0.0284 0.9514
vn -0.9578 -0.0888 -0.2735
vn -0.4932 -0.0457 0.8687
vn -0.8902 -0.0826 -0.4480
vn -0.6559 -0.0608 0.7524
vn -0.7892 -0.0732 -0.6098
vn -0.7892 -0.0732 0.6098
vn -0.3065 0.0284 0.9514
vn -0.9578 0.0888 -0.2735
vn -0.4932 0.0457 0.8687
vn -0.8902 0.0826 -0.4480
vn -0.6559 0.0608 0.7524
vn -0.7892 0.0732 -0.6098
vn -0.7892 0.0732 0.6098
vn -0.6559 0.0608 -0.7524
vn -0.8902 0.0826 0.4480
vn -0.4932 0.0457 -0.8687
vn -0.9578 0.0888 0.2735
vn -0.3065 0.0284 -0.9514
vn -0.9915 0.0919 0.0919
vn -0.1040 0.0096 0.9945
vn -0.1040 0.0096 -0.9945
vn -0.9915 0.0919 -0.0919
vn -0.8589 0.2453 0.4495
vn -0.4747 0.1356 -0.8696
vn -0.9246 0.2641 0.2746
vn -0.2949 0.0842 -0.9518
vn -0.9574 0.2735 0.0923
vn -0.1000 0.0286 0.9946
vn -0.1000 0.0286 -0.9946
vn -0.9574 0.2735 -0.0923
vn -0.9574 0.2734 -0.0923
vn -0.2949 0.0842 0.9518
vn -0.9246 0.2641 -0.2746
vn -0.4747 0.1356 0.8696
vn -0.8589 0.2453 -0.4495
vn -0.6318 0.1805 0.7538
vn -0.7609 0.2173 -0.6114
vn -0.7609 0.2173 0.6114
vn -0.6318 0.1805 -0.7538
vn -0.8584 0.4320 -0.2767
vn -0.4384 0.2206 0.8713
vn -0.7966 0.4009 -0.4524
vn -0.5843 0.2940 0.7564
vn -0.7047 0.3547 -0.6145
vn -0.7047 0.3547 0.6145
vn -0.5843 0.2940 -0.7564
vn -0.7966 0.4009 0.4524
vn -0.4384 0.2206 -0.8713
vn -0.8584 0.4320 0.2767
vn -0.2720 0.1369 -0.9525
vn -0.8894 0.4476 0.0931
vn -0.0922 0.0464 0.9947
vn -0.0922 0.0464 -0.9947
vn -0.8894 0.4476 -0.0931
vn -0.2720 0.1369 0.9525
vn -0.3852 0.2976 -0.8735
vn -0.7598 0.5871 0.2794
vn -0.2386 0.1844 -0.9535
vn -0.7878 0.6087 0.0940
vn -0.0808 0.0625 0.9948
vn -0.0808 0.0625 -0.9948
vn -0.7878 0.6087 -0.0940
vn -0.2386 0.1844 0.9535
vn -0.7598 0.5871 -0.2794
vn -0.3852 0.2976 0.8735
vn -0.7042 0.5441 -0.4562
vn -0.5144 0.3975 0.7598
vn -0.6218 0.4804 -0.6185
vn -0.6218 0.4804 0.6185
vn -0.5144 0.3975 -0.7598
vn -0.7042 0.5441 0.4562
vn -0.5833 0.6692 -0.4605
vn -0.4243 0.4868 0.7636
vn -0.5140 0.5897 -0.6230
vn -0.5140 0.5897 0.6230
vn -0.4243 0.4868 -0.7636
vn -0.5833 0.6692 0.4605
vn -0.3170 0.3637 -0.8759
vn -0.6303 0.7231 0.2824
vn -0.1960 0.2249 -0.9545
vn -0.6541 0.7504 0.0951
vn -0.6541 0.7504 0.0952
vn -0.0663 0.0761 0.9949
vn -0.0663 0.0761 -0.9949
vn -0.6541 0.7504 -0.0951
vn -0.1960 0.2249 0.9545
vn -0.6303 0.7231 -0.2824
vn -0.3170 0.3637 0.8759
vn -0.1458 0.2568 -0.9554
vn -0.4914 0.8656 0.0962
vn -0.0493 0.0868 0.9950
vn -0.0493 0.0868 -0.9950
vn -0.4914 0.8656 -0.0962
vn -0.1458 0.2568 0.9554
vn -0.4732 0.8335 -0.2853
vn -0.2362 0.4160 0.8782
vn -0.4372 0.7701 -0.4645
vn -0.3167 0.5579 0.7671
vn -0.3845 0.6773 -0.6272
vn -0.3845 0.6773 0.6272
vn -0.3167 0.5579 -0.7671
vn -0.4372 0.7701 0.4645
vn -0.2362 0.4160 -0.8782
vn -0.4732 0.8335 0.2853
vn -0.1957 0.6075 0.7698
vn -0.2380 0.7388 -0.6305
vn -0.2380 0.7388 0.6305
vn -0.1957 0.6075 -0.7698
vn -0.2711 0.8413 0.4677
vn -0.1457 0.4522 -0.8799
vn -0.2937 0.9116 0.2876
vn -0.0899 0.2789 -0.9561
vn -0.3052 0.9473 0.0970
vn -0.0304 0.0942 0.9951
vn -0.0304 0.0942 -0.9951
vn -0.3052 0.9473 -0.0970
vn -0.0899 0.2789 0.9561
vn -0.2937 0.9116 -0.2876
vn -0.1457 0.4522 0.8799
vn -0.2711 0.8413 -0.4677
vn -0.1035 0.9898 0.0975
vn -0.0103 0.0980 0.9951
vn -0.0103 0.0980 -0.9951
vn -0.1035 0.9898 -0.0975
vn -0.0304 0.2902 0.9565
vn -0.0996 0.9522 -0.2888
vn -0.0493 0.4708 0.8809
vn -0.0919 0.8782 -0.4694
vn -0.0662 0.6330 0.7713
vn -0.0806 0.7705 -0.6323
vn -0.0806 0.7705 0.6323
vn -0.0662 0.6330 -0.7713
vn -0.0919 0.8782 0.4694
vn -0.0492 0.4708 -0.8809
vn -0.0493 0.4708 -0.8809
vn -0.0996 0.9522 0.2888
vn -0.0304 0.2902 -0.9565
vn 0.0304 0.2902 -0.9565
vn 0.0492 0.4708 0.8809
vn 0.6541 0.7504 -0.0951
vn 0.7878 0.6087 0.0940
vn 0.8584 0.4320 0.2766
vn 0.9574 0.2734 -0.0923
vn 0.9915 0.0920 -0.0919
vn 0.9574 -0.2734 -0.0923
vn 0.7878 -0.6087 -0.0940
vn 0.6541 -0.7504 0.0951
vn -0.1035 -0.9898 0.0975
vn -0.5833 -0.6692 -0.4605
vn -0.7878 -0.6087 -0.0941
vn -0.8584 -0.4320 0.2766
vn -0.6318 -0.1804 0.7538
vn -0.9574 0.2734 0.0923
vn -0.6541 0.7504 -0.0952
vn -0.0000 -0.0000 1.0000
vn -0.0000 1.0000 -0.0000
vn 1.0000 -0.0000 -0.0000
vn -0.0000 -0.0000 -1.0000
vn -1.0000 -0.0000 -0.0000
vn -0.0000 -1.0000 -0.0000
vt 0.750000 0.125000
vt 0.718750 0.062500
vt 0.750000 0.062500
vt 0.750000 0.562500
vt 0.718750 0.500000
vt 0.750000 0.500000
vt 0.750000 0.937500
vt 0.734375 1.000000
vt 0.718750 0.937500
vt 0.734375 0.000000
vt 0.718750 0.437500
vt 0.750000 0.437500
vt 0.750000 0.875000
vt 0.718750 0.875000
vt 0.718750 0.375000
vt 0.750000 0.375000
vt 0.750000 0.812500
vt 0.718750 0.812500
vt 0.718750 0.312500
vt 0.750000 0.312500
vt 0.750000 0.750000
vt 0.718750 0.750000
vt 0.718750 0.250000
vt 0.750000 0.250000
vt 0.750000 0.687500
vt 0.718750 0.687500
vt 0.718750 0.187500
vt 0.750000 0.187500
vt 0.750000 0.625000
vt 0.718750 0.625000
vt 0.718750 0.125000
vt 0.718750 0.562500
vt 0.687500 0.187500
vt 0.687500 0.125000
vt 0.687500 0.625000
vt 0.687500 0.562500
vt 0.687500 0.062500
vt 0.687500 0.500000
vt 0.703125 1.000000
vt 0.687500 0.937500
vt 0.703125 0.000000
vt 0.687500 0.437500
vt 0.687500 0.875000
vt 0.687500 0.375000
vt 0.687500 0.812500
vt 0.687500 0.312500
vt 0.687500 0.750000
vt 0.687500 0.250000
vt 0.687500 0.687500
vt 0.656250 0.812500
vt 0.656250 0.375000
vt 0.656250 0.312500
vt 0.656250 0.750000
vt 0.656250 0.250000
vt 0.656250 0.687500
vt 0.656250 0.187500
vt 0.656250 0.625000
vt 0.656250 0.125000
vt 0.656250 0.562500
vt 0.656250 0.062500
vt 0.656250 0.500000
vt 0.671875 1.000000
vt 0.656250 0.937500
vt 0.671875 0.000000
vt 0.656250 0.437500
vt 0.656250 0.875000
vt 0.625000 0.625000
vt 0.625000 0.562500
vt 0.625000 0.062500
vt 0.625000 0.500000
vt 0.640625 1.000000
vt 0.625000 0.937500
vt 0.640625 0.000000
vt 0.625000 0.437500
vt 0.625000 0.875000
vt 0.625000 0.375000
vt 0.625000 0.812500
vt 0.625000 0.312500
vt 0.625000 0.750000
vt 0.625000 0.250000
vt 0.625000 0.687500
vt 0.625000 0.187500
vt 0.625000 0.125000
vt 0.593750 0.375000
vt 0.593750 0.312500
vt 0.593750 0.750000
vt 0.593750 0.250000
vt 0.593750 0.687500
vt 0.593750 0.187500
vt 0.593750 0.625000
vt 0.593750 0.125000
vt 0.593750 0.562500
vt 0.593750 0.062500
vt 0.593750 0.500000
vt 0.609375 1.000000
vt 0.593750 0.937500
vt 0.609375 0.000000
vt 0.593750 0.437500
vt 0.593750 0.875000
vt 0.593750 0.812500
vt 0.562500 0.125000
vt 0.562500 0.062500
vt 0.562500 0.562500
vt 0.562500 0.500000
vt 0.578125 1.000000
vt 0.562500 0.937500
vt 0.578125 0.000000
vt 0.562500 0.437500
vt 0.562500 0.875000
vt 0.562500 0.375000
vt 0.562500 0.812500
vt 0.562500 0.312500
vt 0.562500 0.750000
vt 0.562500 0.250000
vt 0.562500 0.687500
vt 0.562500 0.187500
vt 0.562500 0.625000
vt 0.531250 0.750000
vt 0.531250 0.250000
vt 0.531250 0.687500
vt 0.531250 0.187500
vt 0.531250 0.625000
vt 0.531250 0.125000
vt 0.531250 0.562500
vt 0.531250 0.062500
vt 0.531250 0.500000
vt 0.546875 1.000000
vt 0.531250 0.937500
vt 0.546875 0.000000
vt 0.531250 0.437500
vt 0.531250 0.875000
vt 0.531250 0.375000
vt 0.531250 0.812500
vt 0.531250 0.312500
vt 0.500000 0.562500
vt 0.500000 0.500000
vt 0.515625 1.000000
vt 0.500000 0.937500
vt 0.515625 0.000000
vt 0.500000 0.062500
vt 0.500000 0.437500
vt 0.500000 0.875000
vt 0.500000 0.375000
vt 0.500000 0.812500
vt 0.500000 0.312500
vt 0.500000 0.750000
vt 0.500000 0.250000
vt 0.500000 0.687500
vt 0.500000 0.187500
vt 0.500000 0.625000
vt 0.500000 0.125000
vt 0.468750 0.250000
vt 0.468750 0.750000
vt 0.468750 0.687500
vt 0.468750 0.187500
vt 0.468750 0.625000
vt 0.468750 0.125000
vt 0.468750 0.562500
vt 0.468750 0.062500
vt 0.468750 0.500000
vt 0.484375 1.000000
vt 0.468750 0.937500
vt 0.484375 0.000000
vt 0.468750 0.437500
vt 0.468750 0.875000
vt 0.468750 0.375000
vt 0.468750 0.812500
vt 0.468750 0.312500
vt 0.453125 0.000000
vt 0.437500 0.062500
vt 0.437500 0.437500
vt 0.437500 0.875000
vt 0.437500 0.375000
vt 0.437500 0.812500
vt 0.437500 0.312500
vt 0.437500 0.750000
vt 0.437500 0.250000
vt 0.437500 0.687500
vt 0.437500 0.187500
vt 0.437500 0.625000
vt 0.437500 0.125000
vt 0.437500 0.562500
vt 0.437500 0.500000
vt 0.453125 1.000000
vt 0.437500 0.937500
vt 0.406250 0.250000
vt 0.406250 0.187500
vt 0.406250 0.625000
vt 0.406250 0.125000
vt 0.406250 0.562500
vt 0.406250 0.062500
vt 0.406250 0.500000
vt 0.421875 1.000000
vt 0.406250 0.937500
vt 0.421875 0.000000
vt 0.406250 0.437500
vt 0.406250 0.875000
vt 0.406250 0.375000
vt 0.406250 0.812500
vt 0.406250 0.312500
vt 0.406250 0.750000
vt 0.406250 0.687500
vt 0.375000 0.875000
vt 0.375000 0.375000
vt 0.375000 0.812500
vt 0.375000 0.312500
vt 0.375000 0.750000
vt 0.375000 0.250000
vt 0.375000 0.687500
vt 0.375000 0.187500
vt 0.375000 0.625000
vt 0.375000 0.125000
vt 0.375000 0.562500
vt 0.375000 0.062500
vt 0.375000 0.500000
vt 0.390625 1.000000
vt 0.375000 0.937500
vt 0.390625 0.000000
vt 0.375000 0.437500
vt 0.343750 0.625000
vt 0.343750 0.125000
vt 0.343750 0.562500
vt 0.343750 0.062500
vt 0.343750 0.500000
vt 0.359375 1.000000
vt 0.343750 0.937500
vt 0.359375 0.000000
vt 0.343750 0.437500
vt 0.343750 0.875000
vt 0.343750 0.375000
vt 0.343750 0.812500
vt 0.343750 0.312500
vt 0.343750 0.750000
vt 0.343750 0.250000
vt 0.343750 0.687500
vt 0.343750 0.187500
vt 0.312500 0.375000
vt 0.312500 0.812500
vt 0.312500 0.312500
vt 0.312500 0.750000
vt 0.312500 0.250000
vt 0.312500 0.687500
vt 0.312500 0.187500
vt 0.312500 0.625000
vt 0.312500 0.125000
vt 0.312500 0.562500
vt 0.312500 0.062500
vt 0.312500 0.500000
vt 0.328125 1.000000
vt 0.312500 0.937500
vt 0.328125 0.000000
vt 0.312500 0.437500
vt 0.312500 0.875000
vt 0.281250 0.125000
vt 0.281250 0.625000
vt 0.281250 0.562500
vt 0.281250 0.062500
vt 0.281250 0.500000
vt 0.296875 1.000000
vt 0.281250 0.937500
vt 0.296875 0.000000
vt 0.281250 0.437500
vt 0.281250 0.875000
vt 0.281250 0.375000
vt 0.281250 0.812500
vt 0.281250 0.312500
vt 0.281250 0.750000
vt 0.281250 0.250000
vt 0.281250 0.687500
vt 0.281250 0.187500
vt 0.250000 0.875000
vt 0.250000 0.812500
vt 0.250000 0.375000
vt 0.250000 0.312500
vt 0.250000 0.750000
vt 0.250000 0.250000
vt 0.250000 0.687500
vt 0.250000 0.187500
vt 0.250000 0.625000
vt 0.250000 0.125000
vt 0.250000 0.562500
vt 0.250000 0.062500
vt 0.250000 0.500000
vt 0.265625 1.000000
vt 0.250000 0.937500
vt 0.265625 0.000000
vt 0.250000 0.437500
vt 0.218750 0.625000
vt 0.218750 0.562500
vt 0.218750 0.062500
vt 0.218750 0.500000
vt 0.234375 1.000000
vt 0.218750 0.937500
vt 0.234375 0.000000
vt 0.218750 0.437500
vt 0.218750 0.875000
vt 0.218750 0.375000
vt 0.218750 0.812500
vt 0.218750 0.312500
vt 0.218750 0.750000
vt 0.218750 0.250000
vt 0.218750 0.687500
vt 0.218750 0.187500
vt 0.218750 0.125000
vt 0.187500 0.375000
vt 0.187500 0.312500
vt 0.187500 0.750000
vt 0.187500 0.250000
vt 0.187500 0.687500
vt 0.187500 0.187500
vt 0.187500 0.625000
vt 0.187500 0.125000
vt 0.187500 0.562500
vt 0.187500 0.062500
vt 0.187500 0.500000
vt 0.203125 1.000000
vt 0.187500 0.937500
vt 0.203125 0.000000
vt 0.187500 0.437500
vt 0.187500 0.875000
vt 0.187500 0.812500
vt 0.156250 0.125000
vt 0.156250 0.062500
vt 0.156250 0.562500
vt 0.156250 0.500000
vt 0.171875 1.000000
vt 0.156250 0.937500
vt 0.171875 0.000000
vt 0.156250 0.437500
vt 0.156250 0.875000
vt 0.156250 0.375000
vt 0.156250 0.812500
vt 0.156250 0.312500
vt 0.156250 0.750000
vt 0.156250 0.250000
vt 0.156250 0.687500
vt 0.156250 0.187500
vt 0.156250 0.625000
vt 0.125000 0.250000
vt 0.125000 0.750000
vt 0.125000 0.687500
vt 0.125000 0.187500
vt 0.125000 0.625000
vt 0.125000 0.125000
vt 0.125000 0.562500
vt 0.125000 0.062500
vt 0.125000 0.500000
vt 0.140625 1.000000
vt 0.125000 0.937500
vt 0.140625 0.000000
vt 0.125000 0.437500
vt 0.125000 0.875000
vt 0.125000 0.375000
vt 0.125000 0.812500
vt 0.125000 0.312500
vt 0.109375 1.000000
vt 0.093750 0.937500
vt 0.109375 0.000000
vt 0.093750 0.062500
vt 0.093750 0.437500
vt 0.093750 0.875000
vt 0.093750 0.375000
vt 0.093750 0.812500
vt 0.093750 0.312500
vt 0.093750 0.750000
vt 0.093750 0.250000
vt 0.093750 0.687500
vt 0.093750 0.187500
vt 0.093750 0.625000
vt 0.093750 0.125000
vt 0.093750 0.562500
vt 0.093750 0.500000
vt 0.062500 0.687500
vt 0.062500 0.250000
vt 0.062500 0.187500
vt 0.062500 0.625000
vt 0.062500 0.125000
vt 0.062500 0.562500
vt 0.062500 0.062500
vt 0.062500 0.500000
vt 0.078125 1.000000
vt 0.062500 0.937500
vt 0.078125 0.000000
vt 0.062500 0.437500
vt 0.062500 0.875000
vt 0.062500 0.375000
vt 0.062500 0.812500
vt 0.062500 0.312500
vt 0.062500 0.750000
vt 0.031250 0.437500
vt 0.031250 0.875000
vt 0.031250 0.375000
vt 0.031250 0.812500
vt 0.031250 0.312500
vt 0.031250 0.750000
vt 0.031250 0.250000
vt 0.031250 0.687500
vt 0.031250 0.187500
vt 0.031250 0.625000
vt 0.031250 0.125000
vt 0.031250 0.562500
vt 0.031250 0.062500
vt 0.031250 0.500000
vt 0.046875 1.000000
vt 0.031250 0.937500
vt 0.046875 0.000000
vt 0.000000 0.250000
vt 0.000000 0.187500
vt 0.000000 0.625000
vt 0.000000 0.125000
vt 0.000000 0.562500
vt 0.000000 0.062500
vt 0.000000 0.500000
vt 0.015625 1.000000
vt 0.000000 0.937500
vt 0.015625 0.000000
vt 0.000000 0.437500
vt 0.000000 0.875000
vt 0.000000 0.375000
vt 0.000000 0.812500
vt 0.000000 0.312500
vt 0.000000 0.750000
vt 0.000000 0.687500
vt 1.000000 0.937500
vt 0.968750 0.875000
vt 1.000000 0.875000
vt 1.000000 0.437500
vt 0.968750 0.375000
vt 1.000000 0.375000
vt 1.000000 0.812500
vt 0.968750 0.812500
vt 1.000000 0.312500
vt 0.968750 0.312500
vt 0.968750 0.750000
vt 1.000000 0.750000
vt 0.968750 0.250000
vt 1.000000 0.250000
vt 1.000000 0.687500
vt 0.968750 0.687500
vt 1.000000 0.187500
vt 0.968750 0.187500
vt 0.968750 0.625000
vt 1.000000 0.625000
vt 0.968750 0.125000
vt 1.000000 0.125000
vt 1.000000 0.562500
vt 0.968750 0.562500
vt 0.968750 0.062500
vt 1.000000 0.062500
vt 1.000000 0.500000
vt 0.968750 0.500000
vt 0.984375 1.000000
vt 0.968750 0.937500
vt 0.984375 0.000000
vt 0.968750 0.437500
vt 0.937500 0.625000
vt 0.937500 0.125000
vt 0.937500 0.562500
vt 0.937500 0.062500
vt 0.937500 0.500000
vt 0.953125 1.000000
vt 0.937500 0.937500
vt 0.953125 0.000000
vt 0.937500 0.437500
vt 0.937500 0.875000
vt 0.937500 0.375000
vt 0.937500 0.812500
vt 0.937500 0.312500
vt 0.937500 0.750000
vt 0.937500 0.250000
vt 0.937500 0.687500
vt 0.937500 0.187500
vt 0.906250 0.375000
vt 0.906250 0.812500
vt 0.906250 0.312500
vt 0.906250 0.750000
vt 0.906250 0.250000
vt 0.906250 0.687500
vt 0.906250 0.187500
vt 0.906250 0.625000
vt 0.906250 0.125000
vt 0.906250 0.562500
vt 0.906250 0.062500
vt 0.906250 0.500000
vt 0.921875 1.000000
vt 0.906250 0.937500
vt 0.921875 0.000000
vt 0.906250 0.437500
vt 0.906250 0.875000
vt 0.875000 0.125000
vt 0.875000 0.625000
vt 0.875000 0.562500
vt 0.875000 0.062500
vt 0.875000 0.500000
vt 0.890625 1.000000
vt 0.875000 0.937500
vt 0.890625 0.000000
vt 0.875000 0.437500
vt 0.875000 0.875000
vt 0.875000 0.375000
vt 0.875000 0.812500
vt 0.875000 0.312500
vt 0.875000 0.750000
vt 0.875000 0.250000
vt 0.875000 0.687500
vt 0.875000 0.187500
vt 0.843750 0.375000
vt 0.843750 0.312500
vt 0.843750 0.750000
vt 0.843750 0.250000
vt 0.843750 0.687500
vt 0.843750 0.187500
vt 0.843750 0.625000
vt 0.843750 0.125000
vt 0.843750 0.562500
vt 0.843750 0.062500
vt 0.843750 0.500000
vt 0.859375 1.000000
vt 0.843750 0.937500
vt 0.859375 0.000000
vt 0.843750 0.437500
vt 0.843750 0.875000
vt 0.843750 0.812500
vt 0.812500 0.062500
vt 0.812500 0.562500
vt 0.812500 0.500000
vt 0.828125 1.000000
vt 0.812500 0.937500
vt 0.828125 0.000000
vt 0.812500 0.437500
vt 0.812500 0.875000
vt 0.812500 0.375000
vt 0.812500 0.812500
vt 0.812500 0.312500
vt 0.812500 0.750000
vt 0.812500 0.250000
vt 0.812500 0.687500
vt 0.812500 0.187500
vt 0.812500 0.625000
vt 0.812500 0.125000
vt 0.781250 0.750000
vt 0.781250 0.250000
vt 0.781250 0.687500
vt 0.781250 0.187500
vt 0.781250 0.625000
vt 0.781250 0.125000
vt 0.781250 0.562500
vt 0.781250 0.062500
vt 0.781250 0.500000
vt 0.796875 1.000000
vt 0.781250 0.937500
vt 0.796875 0.000000
vt 0.781250 0.437500
vt 0.781250 0.875000
vt 0.781250 0.375000
vt 0.781250 0.812500
vt 0.781250 0.312500
vt 0.765625 1.000000
vt 0.765625 0.000000
vt 0.000000 0.000000
s 1
usemtl マテリアル
f 481/1/1 23/2/1 482/3/1
f 4/4/2 16/5/2 5/6/2
f 474/7/3 1/8/3 9/9/3
f 8/10/4 482/3/4 23/2/4
f 5/6/5 17/11/5 6/12/5
f 475/13/6 9/9/6 10/14/7
f 6/12/8 18/15/8 478/16/8
f 2/17/9 10/14/9 11/18/9
f 478/16/10 19/19/10 7/20/10
f 476/21/11 11/18/11 12/22/11
f 7/20/12 20/23/12 479/24/12
f 3/25/13 12/22/13 13/26/13
f 479/24/14 21/27/14 480/28/14
f 477/29/15 13/26/15 14/30/15
f 480/28/16 22/31/16 481/1/17
f 4/4/18 14/30/18 15/32/18
f 22/31/19 36/33/19 37/34/19
f 15/32/20 29/35/20 30/36/20
f 22/31/21 38/37/21 23/2/21
f 15/32/22 31/38/22 16/5/22
f 9/9/23 1/39/23 24/40/23
f 8/41/24 23/2/24 38/37/24
f 16/5/25 32/42/25 17/11/25
f 9/9/26 25/43/26 10/14/26
f 17/11/27 33/44/27 18/15/27
f 10/14/28 26/45/28 11/18/28
f 18/15/29 34/46/29 19/19/29
f 11/18/30 27/47/30 12/22/30
f 19/19/31 35/48/31 20/23/31
f 12/22/32 28/49/32 13/26/32
f 21/27/33 35/48/33 36/33/33
f 13/26/34 29/35/34 14/30/34
f 25/43/35 41/50/35 26/45/35
f 34/46/36 48/51/36 49/52/36
f 26/45/37 42/53/37 27/47/37
f 35/48/38 49/52/38 50/54/38
f 27/47/39 43/55/39 28/49/39
f 36/33/40 50/54/40 51/56/40
f 28/49/41 44/57/41 29/35/41
f 36/33/42 52/58/43 37/34/43
f 29/35/44 45/59/44 30/36/44
f 37/34/45 53/60/45 38/37/45
f 30/36/46 46/61/46 31/38/46
f 24/40/47 1/62/47 39/63/47
f 8/64/48 38/37/48 53/60/48
f 32/42/49 46/61/49 47/65/49
f 24/40/50 40/66/50 25/43/50
f 32/42/51 48/51/51 33/44/51
f 45/59/52 59/67/52 60/68/52
f 52/58/53 68/69/53 53/60/53
f 46/61/54 60/68/54 61/70/55
f 39/63/56 1/71/56 54/72/56
f 8/73/57 53/60/57 68/69/57
f 46/61/58 62/74/58 47/65/58
f 39/63/59 55/75/59 40/66/59
f 47/65/60 63/76/60 48/51/60
f 40/66/61 56/77/61 41/50/61
f 49/52/62 63/76/62 64/78/62
f 41/50/63 57/79/63 42/53/63
f 49/52/64 65/80/64 50/54/64
f 42/53/65 58/81/65 43/55/65
f 50/54/66 66/82/66 51/56/66
f 43/55/67 59/67/67 44/57/67
f 51/56/68 67/83/68 52/58/68
f 64/78/69 78/84/69 79/85/69
f 56/77/70 72/86/70 57/79/70
f 64/78/71 80/87/71 65/80/71
f 58/81/72 72/86/72 73/88/72
f 65/80/73 81/89/73 66/82/73
f 58/81/74 74/90/74 59/67/74
f 67/83/75 81/89/75 82/91/75
f 60/68/76 74/90/76 75/92/76
f 67/83/77 83/93/77 68/69/77
f 61/70/78 75/92/78 76/94/78
f 54/72/79 1/95/79 69/96/79
f 8/97/80 68/69/80 83/93/80
f 61/70/81 77/98/81 62/74/82
f 54/72/83 70/99/83 55/75/83
f 62/74/84 78/84/84 63/76/84
f 55/75/85 71/100/85 56/77/85
f 83/93/86 97/101/86 98/102/86
f 76/94/87 90/103/87 91/104/87
f 69/96/88 1/105/88 84/106/88
f 8/107/89 83/93/89 98/102/89
f 76/94/90 92/108/90 77/98/90
f 69/96/91 85/109/91 70/99/91
f 77/98/92 93/110/92 78/84/93
f 70/99/94 86/111/94 71/100/94
f 79/85/95 93/110/95 94/112/95
f 71/100/96 87/113/96 72/86/96
f 79/85/97 95/114/97 80/87/97
f 73/88/98 87/113/98 88/115/98
f 80/87/99 96/116/99 81/89/99
f 73/88/100 89/117/100 74/90/100
f 81/89/101 97/101/101 82/91/101
f 75/92/102 89/117/102 90/103/102
f 86/111/103 102/118/103 87/113/103
f 94/112/104 110/119/104 95/114/104
f 88/115/105 102/118/105 103/120/105
f 96/116/106 110/119/106 111/121/106
f 88/115/107 104/122/107 89/117/107
f 97/101/108 111/121/108 112/123/108
f 90/103/109 104/122/109 105/124/109
f 97/101/110 113/125/110 98/102/110
f 91/104/111 105/124/111 106/126/112
f 84/106/113 1/127/113 99/128/113
f 8/129/114 98/102/114 113/125/114
f 91/104/115 107/130/115 92/108/115
f 85/109/116 99/128/116 100/131/116
f 92/108/117 108/132/117 93/110/117
f 85/109/118 101/133/118 86/111/118
f 94/112/119 108/132/119 109/134/119
f 106/126/120 120/135/120 121/136/121
f 99/128/122 1/137/122 114/138/122
f 8/139/123 113/125/123 128/140/123
f 106/126/124 122/141/124 107/130/124
f 100/131/125 114/138/125 115/142/125
f 107/130/126 123/143/126 108/132/126
f 100/131/127 116/144/127 101/133/127
f 109/134/128 123/143/128 124/145/128
f 101/133/129 117/146/129 102/118/129
f 109/134/130 125/147/130 110/119/130
f 103/120/131 117/146/131 118/148/131
f 111/121/132 125/147/132 126/149/132
f 103/120/133 119/150/133 104/122/133
f 111/121/134 127/151/134 112/123/134
f 105/124/135 119/150/135 120/135/135
f 112/123/136 128/140/136 113/125/136
f 124/145/137 140/152/137 125/147/137
f 118/148/138 132/153/138 133/154/138
f 126/149/139 140/152/139 141/155/139
f 118/148/140 134/156/140 119/150/140
f 126/149/141 142/157/141 127/151/141
f 120/135/142 134/156/142 135/158/142
f 127/151/143 143/159/143 128/140/143
f 121/136/144 135/158/144 136/160/144
f 114/138/145 1/161/145 129/162/145
f 8/163/146 128/140/146 143/159/146
f 121/136/147 137/164/147 122/141/147
f 114/138/148 130/165/148 115/142/148
f 122/141/149 138/166/149 123/143/149
f 115/142/150 131/167/150 116/144/150
f 124/145/151 138/166/151 139/168/151
f 116/144/152 132/153/152 117/146/152
f 8/169/153 143/159/153 158/170/153
f 136/160/154 152/171/154 137/164/154
f 129/162/155 145/172/155 130/165/155
f 137/164/156 153/173/156 138/166/156
f 131/167/157 145/172/157 146/174/157
f 139/168/158 153/173/158 154/175/158
f 131/167/159 147/176/159 132/153/159
f 139/168/160 155/177/160 140/152/160
f 133/154/161 147/176/161 148/178/161
f 141/155/162 155/177/162 156/179/162
f 133/154/163 149/180/163 134/156/163
f 141/155/164 157/181/164 142/157/164
f 135/158/165 149/180/165 150/182/165
f 143/159/166 157/181/166 158/170/166
f 136/160/167 150/182/167 151/183/168
f 129/162/169 1/184/169 144/185/169
f 156/179/170 170/186/170 171/187/170
f 148/178/171 164/188/171 149/180/171
f 156/179/172 172/189/172 157/181/172
f 150/182/173 164/188/173 165/190/173
f 157/181/174 173/191/174 158/170/174
f 151/183/175 165/190/175 166/192/175
f 144/185/176 1/193/176 159/194/176
f 8/195/177 158/170/177 173/191/177
f 151/183/178 167/196/178 152/171/178
f 144/185/179 160/197/179 145/172/179
f 152/171/180 168/198/180 153/173/180
f 146/174/181 160/197/181 161/199/181
f 154/175/182 168/198/182 169/200/182
f 146/174/183 162/201/183 147/176/183
f 154/175/184 170/186/184 155/177/184
f 148/178/185 162/201/185 163/202/185
f 159/194/186 175/203/186 160/197/186
f 167/196/187 183/204/187 168/198/187
f 160/197/188 176/205/188 161/199/188
f 169/200/189 183/204/189 184/206/189
f 161/199/190 177/207/190 162/201/190
f 169/200/191 185/208/191 170/186/191
f 163/202/192 177/207/192 178/209/192
f 170/186/193 186/210/193 171/187/193
f 163/202/194 179/211/194 164/188/194
f 172/189/195 186/210/195 187/212/195
f 165/190/196 179/211/196 180/213/196
f 173/191/197 187/212/197 188/214/197
f 166/192/198 180/213/198 181/215/199
f 159/194/200 1/216/200 174/217/200
f 8/218/201 173/191/201 188/214/201
f 166/192/202 182/219/202 167/196/202
f 178/209/203 194/220/203 179/211/203
f 186/210/204 202/221/204 187/212/204
f 180/213/205 194/220/205 195/222/205
f 187/212/206 203/223/206 188/214/206
f 181/215/207 195/222/207 196/224/207
f 174/217/208 1/225/208 189/226/208
f 8/227/209 188/214/209 203/223/209
f 181/215/210 197/228/210 182/219/211
f 175/203/212 189/226/212 190/229/212
f 182/219/213 198/230/213 183/204/213
f 176/205/214 190/229/214 191/231/214
f 184/206/215 198/230/215 199/232/216
f 176/205/217 192/233/217 177/207/217
f 184/206/218 200/234/218 185/208/218
f 178/209/219 192/233/219 193/235/219
f 186/210/220 200/234/220 201/236/220
f 197/228/221 213/237/221 198/230/221
f 190/229/222 206/238/222 191/231/222
f 199/232/223 213/237/223 214/239/223
f 191/231/224 207/240/224 192/233/224
f 199/232/225 215/241/225 200/234/225
f 193/235/226 207/240/226 208/242/226
f 201/236/227 215/241/227 216/243/227
f 193/235/228 209/244/228 194/220/228
f 201/236/229 217/245/229 202/221/229
f 195/222/230 209/244/230 210/246/230
f 202/221/231 218/247/231 203/223/231
f 196/224/232 210/246/232 211/248/232
f 189/226/233 1/249/233 204/250/233
f 8/251/234 203/223/234 218/247/234
f 196/224/235 212/252/235 197/228/235
f 189/226/236 205/253/236 190/229/236
f 216/243/237 232/254/237 217/245/237
f 210/246/238 224/255/238 225/256/238
f 217/245/239 233/257/239 218/247/239
f 211/248/240 225/256/240 226/258/240
f 204/250/241 1/259/241 219/260/241
f 8/261/242 218/247/242 233/257/242
f 211/248/243 227/262/243 212/252/243
f 204/250/244 220/263/244 205/253/244
f 212/252/245 228/264/245 213/237/245
f 205/253/246 221/265/246 206/238/246
f 214/239/247 228/264/247 229/266/247
f 206/238/248 222/267/248 207/240/248
f 214/239/249 230/268/249 215/241/249
f 208/242/250 222/267/250 223/269/250
f 216/243/251 230/268/251 231/270/251
f 208/242/252 224/255/252 209/244/252
f 221/265/253 235/271/253 236/272/253
f 229/266/254 243/273/254 244/274/254
f 221/265/255 237/275/255 222/267/255
f 229/266/256 245/276/256 230/268/256
f 223/269/257 237/275/257 238/277/257
f 231/270/258 245/276/258 246/278/258
f 223/269/259 239/279/259 224/255/259
f 231/270/260 247/280/260 232/254/260
f 225/256/261 239/279/261 240/281/261
f 233/257/262 247/280/262 248/282/262
f 226/258/263 240/281/263 241/283/263
f 219/260/264 1/284/264 234/285/264
f 8/286/265 233/257/265 248/282/265
f 226/258/266 242/287/266 227/262/266
f 219/260/267 235/271/267 220/263/267
f 227/262/268 243/273/268 228/264/268
f 240/281/269 254/288/269 255/289/269
f 247/280/270 263/290/270 248/282/270
f 241/283/271 255/289/271 256/291/271
f 234/285/272 1/292/272 249/293/272
f 8/294/273 248/282/273 263/290/273
f 241/283/274 257/295/274 242/287/275
f 234/285/276 250/296/276 235/271/277
f 242/287/278 258/297/278 243/273/278
f 235/271/279 251/298/279 236/272/279
f 244/274/280 258/297/280 259/299/280
f 236/272/281 252/300/281 237/275/281
f 244/274/282 260/301/282 245/276/282
f 238/277/283 252/300/283 253/302/283
f 246/278/284 260/301/284 261/303/284
f 238/277/285 254/288/285 239/279/285
f 246/278/286 262/304/286 247/280/286
f 259/299/287 273/305/287 274/306/287
f 251/298/288 267/307/288 252/300/288
f 259/299/289 275/308/289 260/301/289
f 253/302/290 267/307/290 268/309/290
f 261/303/291 275/308/291 276/310/291
f 253/302/292 269/311/292 254/288/292
f 261/303/293 277/312/293 262/304/293
f 255/289/294 269/311/294 270/313/294
f 262/304/295 278/314/295 263/290/295
f 256/291/296 270/313/296 271/315/296
f 249/293/297 1/316/297 264/317/297
f 8/318/298 263/290/298 278/314/298
f 256/291/299 272/319/299 257/295/299
f 250/296/300 264/317/300 265/320/300
f 257/295/301 273/305/301 258/297/301
f 250/296/302 266/321/302 251/298/302
f 278/314/303 292/322/303 293/323/303
f 271/315/304 285/324/304 286/325/304
f 264/317/305 1/326/305 279/327/305
f 8/328/306 278/314/306 293/323/306
f 271/315/307 287/329/307 272/319/307
f 265/320/308 279/327/308 280/330/308
f 272/319/309 288/331/309 273/305/309
f 265/320/310 281/332/310 266/321/310
f 274/306/311 288/331/311 289/333/311
f 266/321/312 282/334/312 267/307/312
f 274/306/313 290/335/313 275/308/313
f 268/309/314 282/334/314 283/336/314
f 276/310/315 290/335/315 291/337/315
f 268/309/316 284/338/316 269/311/316
f 276/310/317 292/322/317 277/312/317
f 270/313/318 284/338/318 285/324/318
f 289/333/319 305/339/319 290/335/319
f 283/336/320 297/340/320 298/341/320
f 291/337/321 305/339/321 306/342/321
f 283/336/322 299/343/322 284/338/322
f 291/337/323 307/344/323 292/322/323
f 285/324/324 299/343/324 300/345/324
f 293/323/325 307/344/325 308/346/325
f 286/325/326 300/345/326 301/347/326
f 279/327/327 1/348/327 294/349/327
f 8/350/328 293/323/328 308/346/328
f 286/325/329 302/351/329 287/329/329
f 279/327/330 295/352/330 280/330/330
f 287/329/331 303/353/331 288/331/331
f 280/330/332 296/354/332 281/332/332
f 289/333/333 303/353/333 304/355/333
f 281/332/334 297/340/334 282/334/334
f 294/349/335 1/356/335 309/357/335
f 8/358/336 308/346/336 323/359/336
f 301/347/337 317/360/337 302/351/337
f 294/349/338 310/361/338 295/352/338
f 302/351/339 318/362/339 303/353/339
f 295/352/340 311/363/340 296/354/340
f 304/355/341 318/362/341 319/364/341
f 296/354/342 312/365/342 297/340/342
f 304/355/343 320/366/343 305/339/343
f 298/341/344 312/365/344 313/367/344
f 306/342/345 320/366/345 321/368/345
f 298/341/346 314/369/346 299/343/346
f 306/342/347 322/370/347 307/344/347
f 300/345/348 314/369/348 315/371/348
f 307/344/349 323/359/349 308/346/349
f 301/347/350 315/371/350 316/372/351
f 312/365/352 328/373/352 313/367/352
f 321/368/353 335/374/353 336/375/353
f 313/367/354 329/376/354 314/369/354
f 321/368/355 337/377/355 322/370/355
f 315/371/356 329/376/356 330/378/356
f 322/370/357 338/379/357 323/359/357
f 316/372/358 330/378/358 331/380/358
f 309/357/359 1/381/359 324/382/359
f 8/383/360 323/359/360 338/379/360
f 316/372/361 332/384/361 317/360/361
f 309/357/362 325/385/362 310/361/362
f 317/360/363 333/386/363 318/362/364
f 310/361/365 326/387/365 311/363/365
f 319/364/366 333/386/366 334/388/366
f 311/363/367 327/389/367 312/365/367
f 319/364/368 335/374/368 320/366/368
f 331/380/369 347/390/369 332/384/369
f 324/382/370 340/391/370 325/385/370
f 332/384/371 348/392/371 333/386/371
f 325/385/372 341/393/372 326/387/372
f 334/388/373 348/392/373 349/394/373
f 326/387/374 342/395/374 327/389/374
f 334/388/375 350/396/375 335/374/375
f 328/373/376 342/395/376 343/397/376
f 336/375/377 350/396/377 351/398/378
f 328/373/379 344/399/379 329/376/379
f 336/375/380 352/400/380 337/377/380
f 330/378/381 344/399/381 345/401/381
f 337/377/382 353/402/382 338/379/382
f 331/380/383 345/401/383 346/403/383
f 324/382/384 1/404/384 339/405/384
f 8/406/385 338/379/385 353/402/385
f 351/398/386 365/407/386 366/408/386
f 343/397/387 359/409/387 344/399/387
f 351/398/388 367/410/388 352/400/388
f 345/401/389 359/409/389 360/411/389
f 352/400/390 368/412/390 353/402/390
f 346/403/391 360/411/391 361/413/391
f 339/405/392 1/414/392 354/415/392
f 8/416/393 353/402/393 368/412/393
f 346/403/394 362/417/394 347/390/394
f 339/405/395 355/418/395 340/391/395
f 347/390/396 363/419/396 348/392/396
f 341/393/397 355/418/397 356/420/397
f 349/394/398 363/419/398 364/421/398
f 341/393/399 357/422/399 342/395/399
f 349/394/400 365/407/400 350/396/400
f 343/397/401 357/422/401 358/423/401
f 354/424/402 370/425/402 355/426/402
f 362/427/403 378/428/403 363/429/403
f 356/430/404 370/425/404 371/431/404
f 364/432/405 378/428/405 379/433/405
f 356/430/406 372/434/406 357/435/406
f 364/432/407 380/436/407 365/437/407
f 358/438/408 372/434/408 373/439/408
f 366/440/409 380/436/409 381/441/409
f 358/438/410 374/442/410 359/443/410
f 366/440/411 382/444/411 367/445/411
f 360/446/412 374/442/412 375/447/412
f 367/445/413 383/448/413 368/449/413
f 361/450/414 375/447/414 376/451/414
f 354/424/415 1/452/415 369/453/415
f 8/454/416 368/449/416 383/448/416
f 361/450/417 377/455/417 362/427/417
f 373/439/418 389/456/418 374/442/418
f 381/441/419 397/457/419 382/444/419
f 375/447/420 389/456/420 390/458/420
f 382/444/421 398/459/421 383/448/421
f 376/451/422 390/458/422 391/460/422
f 369/453/423 1/461/423 384/462/423
f 8/463/424 383/448/424 398/459/424
f 376/451/425 392/464/425 377/455/426
f 369/453/427 385/465/427 370/425/427
f 377/455/428 393/466/428 378/428/428
f 371/431/429 385/465/429 386/467/429
f 379/433/430 393/466/430 394/468/430
f 371/431/431 387/469/431 372/434/431
f 379/433/432 395/470/432 380/436/432
f 373/439/433 387/469/433 388/471/433
f 381/441/434 395/470/434 396/472/434
f 392/464/435 408/473/435 393/466/435
f 385/465/436 401/474/436 386/467/436
f 394/468/437 408/473/437 409/475/437
f 386/467/438 402/476/438 387/469/438
f 394/468/439 410/477/439 395/470/439
f 388/471/440 402/476/440 403/478/440
f 396/472/441 410/477/441 411/479/441
f 388/471/442 404/480/442 389/456/442
f 397/457/443 411/479/443 412/481/443
f 390/458/444 404/480/444 405/482/444
f 397/457/445 413/483/445 398/459/445
f 391/460/446 405/482/446 406/484/446
f 384/462/447 1/485/447 399/486/447
f 8/487/448 398/459/448 413/483/448
f 391/460/449 407/488/449 392/464/449
f 385/465/450 399/486/450 400/489/450
f 411/479/451 427/490/451 412/481/451
f 405/482/452 419/491/452 420/492/452
f 412/481/453 428/493/453 413/483/453
f 406/484/454 420/492/454 421/494/454
f 399/486/455 1/495/455 414/496/455
f 8/497/456 413/483/456 428/493/456
f 406/484/457 422/498/457 407/488/457
f 399/486/458 415/499/458 400/489/458
f 407/488/459 423/500/459 408/473/459
f 401/474/460 415/499/460 416/501/460
f 409/475/461 423/500/461 424/502/461
f 401/474/462 417/503/462 402/476/462
f 409/475/463 425/504/463 410/477/463
f 403/478/464 417/503/464 418/505/464
f 411/479/465 425/504/465 426/506/465
f 403/478/466 419/491/466 404/480/466
f 424/502/467 438/507/467 439/508/467
f 416/501/468 432/509/468 417/503/468
f 424/502/469 440/510/469 425/504/469
f 418/505/470 432/509/470 433/511/470
f 426/506/471 440/510/471 441/512/471
f 418/505/472 434/513/472 419/491/472
f 426/506/473 442/514/473 427/490/473
f 420/492/474 434/513/474 435/515/474
f 427/490/475 443/516/475 428/493/475
f 421/494/476 435/515/476 436/517/477
f 414/496/478 1/518/478 429/519/478
f 8/520/479 428/493/479 443/516/479
f 421/494/480 437/521/480 422/498/480
f 414/496/481 430/522/481 415/499/481
f 422/498/482 438/507/482 423/500/482
f 416/501/483 430/522/483 431/523/483
f 442/514/484 458/524/484 443/516/484
f 436/517/485 450/525/485 451/526/485
f 429/519/486 1/527/486 444/528/486
f 8/529/487 443/516/487 458/524/487
f 436/517/488 452/530/488 437/521/488
f 430/522/489 444/528/489 445/531/489
f 437/521/490 453/532/490 438/507/490
f 430/522/491 446/533/491 431/523/491
f 439/508/492 453/532/492 454/534/492
f 431/523/493 447/535/493 432/509/493
f 439/508/494 455/536/494 440/510/494
f 433/511/495 447/535/495 448/537/495
f 441/512/496 455/536/496 456/538/496
f 433/511/497 449/539/497 434/513/497
f 441/512/498 457/540/498 442/514/498
f 435/515/499 449/539/499 450/525/499
f 446/533/500 462/541/500 447/535/500
f 454/534/501 470/542/501 455/536/501
f 448/537/502 462/541/502 463/543/502
f 456/538/503 470/542/503 471/544/503
f 448/537/504 464/545/504 449/539/504
f 456/538/505 472/546/505 457/540/505
f 450/525/506 464/545/506 465/547/506
f 458/524/507 472/546/507 473/548/507
f 451/526/508 465/547/508 466/549/508
f 444/528/509 1/550/509 459/551/509
f 8/552/510 458/524/510 473/548/510
f 451/526/511 467/553/511 452/530/511
f 444/528/512 460/554/512 445/531/512
f 452/530/513 468/555/513 453/532/513
f 446/533/514 460/554/514 461/556/514
f 454/534/515 468/555/515 469/557/515
f 466/549/516 4/4/516 5/6/516
f 459/551/517 1/558/517 474/7/517
f 8/559/518 473/548/518 482/3/518
f 466/549/519 6/12/519 467/553/519
f 460/554/520 474/7/520 475/13/520
f 467/553/521 478/16/521 468/555/521
f 461/556/522 475/13/522 2/17/522
f 468/555/523 7/20/523 469/557/523
f 462/541/524 2/17/524 476/21/524
f 469/557/525 479/24/525 470/542/525
f 463/543/526 476/21/526 3/25/526
f 471/544/527 479/24/527 480/28/527
f 464/545/528 3/25/528 477/29/528
f 471/544/529 481/1/529 472/546/530
f 465/547/531 477/29/531 4/4/531
f 472/546/532 482/3/532 473/548/532
f 481/1/1 22/31/533 23/2/1
f 4/4/2 15/32/2 16/5/2
f 5/6/5 16/5/5 17/11/5
f 475/13/6 474/7/6 9/9/6
f 6/12/8 17/11/8 18/15/8
f 2/17/9 475/13/534 10/14/9
f 478/16/10 18/15/10 19/19/10
f 476/21/11 2/17/11 11/18/11
f 7/20/12 19/19/12 20/23/12
f 3/25/13 476/21/13 12/22/13
f 479/24/14 20/23/14 21/27/14
f 477/29/15 3/25/15 13/26/15
f 480/28/16 21/27/16 22/31/16
f 4/4/18 477/29/18 14/30/18
f 22/31/19 21/27/19 36/33/19
f 15/32/20 14/30/20 29/35/20
f 22/31/21 37/34/21 38/37/21
f 15/32/22 30/36/22 31/38/22
f 16/5/25 31/38/25 32/42/25
f 9/9/26 24/40/26 25/43/26
f 17/11/27 32/42/27 33/44/27
f 10/14/28 25/43/28 26/45/28
f 18/15/29 33/44/29 34/46/29
f 11/18/30 26/45/30 27/47/30
f 19/19/31 34/46/31 35/48/31
f 12/22/32 27/47/32 28/49/32
f 21/27/33 20/23/33 35/48/33
f 13/26/34 28/49/34 29/35/34
f 25/43/35 40/66/35 41/50/35
f 34/46/36 33/44/36 48/51/36
f 26/45/37 41/50/37 42/53/37
f 35/48/38 34/46/38 49/52/38
f 27/47/39 42/53/39 43/55/39
f 36/33/40 35/48/40 50/54/40
f 28/49/41 43/55/41 44/57/41
f 36/33/42 51/56/42 52/58/43
f 29/35/44 44/57/44 45/59/44
f 37/34/45 52/58/45 53/60/45
f 30/36/46 45/59/46 46/61/46
f 32/42/49 31/38/49 46/61/49
f 24/40/50 39/63/50 40/66/50
f 32/42/51 47/65/51 48/51/51
f 45/59/52 44/57/52 59/67/52
f 52/58/53 67/83/53 68/69/53
f 46/61/54 45/59/54 60/68/54
f 46/61/58 61/70/535 62/74/58
f 39/63/59 54/72/59 55/75/59
f 47/65/60 62/74/60 63/76/60
f 40/66/61 55/75/61 56/77/61
f 49/52/62 48/51/62 63/76/62
f 41/50/63 56/77/63 57/79/63
f 49/52/64 64/78/64 65/80/64
f 42/53/65 57/79/65 58/81/65
f 50/54/66 65/80/66 66/82/66
f 43/55/67 58/81/67 59/67/67
f 51/56/68 66/82/68 67/83/68
f 64/78/69 63/76/69 78/84/69
f 56/77/70 71/100/70 72/86/70
f 64/78/71 79/85/71 80/87/71
f 58/81/72 57/79/72 72/86/72
f 65/80/73 80/87/73 81/89/73
f 58/81/74 73/88/74 74/90/74
f 67/83/75 66/82/75 81/89/75
f 60/68/76 59/67/76 74/90/76
f 67/83/77 82/91/77 83/93/77
f 61/70/78 60/68/536 75/92/78
f 61/70/81 76/94/81 77/98/81
f 54/72/83 69/96/83 70/99/83
f 62/74/84 77/98/84 78/84/84
f 55/75/85 70/99/85 71/100/85
f 83/93/86 82/91/86 97/101/86
f 76/94/87 75/92/87 90/103/87
f 76/94/90 91/104/90 92/108/90
f 69/96/91 84/106/91 85/109/91
f 77/98/92 92/108/92 93/110/92
f 70/99/94 85/109/94 86/111/94
f 79/85/95 78/84/95 93/110/95
f 71/100/96 86/111/96 87/113/96
f 79/85/97 94/112/97 95/114/97
f 73/88/98 72/86/98 87/113/98
f 80/87/99 95/114/99 96/116/99
f 73/88/100 88/115/100 89/117/100
f 81/89/101 96/116/101 97/101/101
f 75/92/102 74/90/537 89/117/102
f 86/111/103 101/133/103 102/118/103
f 94/112/104 109/134/104 110/119/104
f 88/115/105 87/113/105 102/118/105
f 96/116/106 95/114/106 110/119/106
f 88/115/107 103/120/107 104/122/107
f 97/101/108 96/116/108 111/121/108
f 90/103/109 89/117/109 104/122/109
f 97/101/110 112/123/110 113/125/110
f 91/104/111 90/103/111 105/124/111
f 91/104/115 106/126/538 107/130/115
f 85/109/116 84/106/116 99/128/116
f 92/108/117 107/130/117 108/132/117
f 85/109/118 100/131/118 101/133/118
f 94/112/119 93/110/119 108/132/119
f 106/126/120 105/124/120 120/135/120
f 106/126/124 121/136/539 122/141/124
f 100/131/125 99/128/125 114/138/125
f 107/130/126 122/141/126 123/143/126
f 100/131/127 115/142/127 116/144/127
f 109/134/128 108/132/128 123/143/128
f 101/133/129 116/144/129 117/146/129
f 109/134/130 124/145/130 125/147/130
f 103/120/131 102/118/131 117/146/131
f 111/121/132 110/119/132 125/147/132
f 103/120/133 118/148/133 119/150/133
f 111/121/134 126/149/134 127/151/134
f 105/124/135 104/122/135 119/150/135
f 112/123/136 127/151/136 128/140/136
f 124/145/137 139/168/137 140/152/137
f 118/148/138 117/146/138 132/153/138
f 126/149/139 125/147/139 140/152/139
f 118/148/140 133/154/140 134/156/140
f 126/149/141 141/155/141 142/157/141
f 120/135/142 119/150/142 134/156/142
f 127/151/143 142/157/143 143/159/143
f 121/136/144 120/135/144 135/158/144
f 121/136/147 136/160/147 137/164/147
f 114/138/148 129/162/148 130/165/148
f 122/141/149 137/164/149 138/166/149
f 115/142/150 130/165/150 131/167/150
f 124/145/151 123/143/151 138/166/151
f 116/144/152 131/167/152 132/153/152
f 136/160/154 151/183/540 152/171/154
f 129/162/155 144/185/155 145/172/155
f 137/164/156 152/171/156 153/173/156
f 131/167/157 130/165/157 145/172/157
f 139/168/158 138/166/158 153/173/158
f 131/167/159 146/174/159 147/176/159
f 139/168/160 154/175/160 155/177/160
f 133/154/161 132/153/161 147/176/161
f 141/155/162 140/152/162 155/177/162
f 133/154/163 148/178/163 149/180/163
f 141/155/164 156/179/164 157/181/164
f 135/158/165 134/156/165 149/180/165
f 143/159/166 142/157/166 157/181/166
f 136/160/167 135/158/167 150/182/167
f 156/179/170 155/177/170 170/186/170
f 148/178/171 163/202/171 164/188/171
f 156/179/172 171/187/172 172/189/172
f 150/182/173 149/180/173 164/188/173
f 157/181/174 172/189/174 173/191/174
f 151/183/175 150/182/175 165/190/175
f 151/183/178 166/192/178 167/196/178
f 144/185/179 159/194/179 160/197/179
f 152/171/180 167/196/180 168/198/180
f 146/174/181 145/172/181 160/197/181
f 154/175/182 153/173/182 168/198/182
f 146/174/183 161/199/183 162/201/183
f 154/175/184 169/200/184 170/186/184
f 148/178/185 147/176/185 162/201/185
f 159/194/186 174/217/186 175/203/186
f 167/196/187 182/219/187 183/204/187
f 160/197/188 175/203/188 176/205/188
f 169/200/189 168/198/189 183/204/189
f 161/199/190 176/205/190 177/207/190
f 169/200/191 184/206/191 185/208/191
f 163/202/192 162/201/192 177/207/192
f 170/186/193 185/208/193 186/210/193
f 163/202/194 178/209/194 179/211/194
f 172/189/195 171/187/195 186/210/195
f 165/190/196 164/188/196 179/211/196
f 173/191/197 172/189/197 187/212/197
f 166/192/198 165/190/198 180/213/198
f 166/192/202 181/215/541 182/219/202
f 178/209/203 193/235/203 194/220/203
f 186/210/204 201/236/204 202/221/204
f 180/213/205 179/211/205 194/220/205
f 187/212/206 202/221/206 203/223/206
f 181/215/207 180/213/542 195/222/207
f 181/215/210 196/224/210 197/228/210
f 175/203/212 174/217/212 189/226/212
f 182/219/213 197/228/213 198/230/213
f 176/205/214 175/203/214 190/229/214
f 184/206/215 183/204/215 198/230/215
f 176/205/217 191/231/217 192/233/217
f 184/206/218 199/232/218 200/234/218
f 178/209/219 177/207/219 192/233/219
f 186/210/220 185/208/220 200/234/220
f 197/228/221 212/252/221 213/237/221
f 190/229/222 205/253/222 206/238/222
f 199/232/223 198/230/223 213/237/223
f 191/231/224 206/238/224 207/240/224
f 199/232/225 214/239/225 215/241/225
f 193/235/226 192/233/226 207/240/226
f 201/236/227 200/234/227 215/241/227
f 193/235/228 208/242/228 209/244/228
f 201/236/229 216/243/229 217/245/229
f 195/222/230 194/220/230 209/244/230
f 202/221/231 217/245/231 218/247/231
f 196/224/232 195/222/232 210/246/232
f 196/224/235 211/248/235 212/252/235
f 189/226/236 204/250/236 205/253/236
f 216/243/237 231/270/237 232/254/237
f 210/246/238 209/244/238 224/255/238
f 217/245/239 232/254/239 233/257/239
f 211/248/240 210/246/240 225/256/240
f 211/248/243 226/258/243 227/262/243
f 204/250/244 219/260/244 220/263/244
f 212/252/245 227/262/245 228/264/245
f 205/253/246 220/263/246 221/265/246
f 214/239/247 213/237/247 228/264/247
f 206/238/248 221/265/248 222/267/248
f 214/239/249 229/266/249 230/268/249
f 208/242/250 207/240/250 222/267/250
f 216/243/251 215/241/251 230/268/251
f 208/242/252 223/269/252 224/255/252
f 221/265/253 220/263/253 235/271/253
f 229/266/254 228/264/254 243/273/254
f 221/265/255 236/272/255 237/275/255
f 229/266/256 244/274/256 245/276/256
f 223/269/257 222/267/257 237/275/257
f 231/270/258 230/268/258 245/276/258
f 223/269/259 238/277/259 239/279/259
f 231/270/260 246/278/260 247/280/260
f 225/256/261 224/255/261 239/279/261
f 233/257/262 232/254/262 247/280/262
f 226/258/263 225/256/263 240/281/263
f 226/258/266 241/283/266 242/287/266
f 219/260/267 234/285/267 235/271/267
f 227/262/268 242/287/268 243/273/268
f 240/281/269 239/279/269 254/288/269
f 247/280/270 262/304/270 263/290/270
f 241/283/271 240/281/543 255/289/271
f 241/283/274 256/291/274 257/295/274
f 234/285/276 249/293/276 250/296/276
f 242/287/278 257/295/278 258/297/278
f 235/271/279 250/296/279 251/298/279
f 244/274/280 243/273/280 258/297/280
f 236/272/281 251/298/281 252/300/281
f 244/274/282 259/299/282 260/301/282
f 238/277/283 237/275/283 252/300/283
f 246/278/284 245/276/284 260/301/284
f 238/277/285 253/302/285 254/288/285
f 246/278/286 261/303/286 262/304/286
f 259/299/287 258/297/287 273/305/287
f 251/298/288 266/321/288 267/307/288
f 259/299/289 274/306/289 275/308/289
f 253/302/290 252/300/290 267/307/290
f 261/303/291 260/301/291 275/308/291
f 253/302/292 268/309/292 269/311/292
f 261/303/293 276/310/293 277/312/293
f 255/289/294 254/288/294 269/311/294
f 262/304/295 277/312/295 278/314/295
f 256/291/296 255/289/296 270/313/296
f 256/291/299 271/315/299 272/319/299
f 250/296/300 249/293/300 264/317/300
f 257/295/301 272/319/301 273/305/301
f 250/296/302 265/320/302 266/321/302
f 278/314/303 277/312/303 292/322/303
f 271/315/304 270/313/304 285/324/304
f 271/315/307 286/325/307 287/329/307
f 265/320/308 264/317/308 279/327/308
f 272/319/309 287/329/309 288/331/309
f 265/320/310 280/330/310 281/332/310
f 274/306/311 273/305/311 288/331/311
f 266/321/312 281/332/312 282/334/312
f 274/306/313 289/333/313 290/335/313
f 268/309/314 267/307/314 282/334/314
f 276/310/315 275/308/315 290/335/315
f 268/309/316 283/336/316 284/338/316
f 276/310/317 291/337/317 292/322/317
f 270/313/318 269/311/318 284/338/318
f 289/333/319 304/355/319 305/339/319
f 283/336/320 282/334/320 297/340/320
f 291/337/321 290/335/321 305/339/321
f 283/336/322 298/341/322 299/343/322
f 291/337/323 306/342/323 307/344/323
f 285/324/324 284/338/324 299/343/324
f 293/323/325 292/322/325 307/344/325
f 286/325/326 285/324/326 300/345/326
f 286/325/329 301/347/329 302/351/329
f 279/327/330 294/349/330 295/352/330
f 287/329/331 302/351/331 303/353/331
f 280/330/332 295/352/332 296/354/332
f 289/333/333 288/331/544 303/353/333
f 281/332/334 296/354/334 297/340/334
f 301/347/337 316/372/545 317/360/337
f 294/349/338 309/357/338 310/361/338
f 302/351/339 317/360/339 318/362/339
f 295/352/340 310/361/340 311/363/340
f 304/355/341 303/353/341 318/362/341
f 296/354/342 311/363/342 312/365/342
f 304/355/343 319/364/343 320/366/343
f 298/341/344 297/340/344 312/365/344
f 306/342/345 305/339/345 320/366/345
f 298/341/346 313/367/346 314/369/346
f 306/342/347 321/368/347 322/370/347
f 300/345/348 299/343/348 314/369/348
f 307/344/349 322/370/349 323/359/349
f 301/347/350 300/345/350 315/371/350
f 312/365/352 327/389/352 328/373/352
f 321/368/353 320/366/353 335/374/353
f 313/367/354 328/373/354 329/376/354
f 321/368/355 336/375/355 337/377/355
f 315/371/356 314/369/546 329/376/356
f 322/370/357 337/377/357 338/379/357
f 316/372/358 315/371/358 330/378/358
f 316/372/361 331/380/361 332/384/361
f 309/357/362 324/382/362 325/385/362
f 317/360/363 332/384/363 333/386/363
f 310/361/365 325/385/365 326/387/365
f 319/364/366 318/362/366 333/386/366
f 311/363/367 326/387/367 327/389/367
f 319/364/368 334/388/368 335/374/368
f 331/380/369 346/403/369 347/390/369
f 324/382/370 339/405/370 340/391/370
f 332/384/371 347/390/371 348/392/371
f 325/385/372 340/391/372 341/393/372
f 334/388/373 333/386/373 348/392/373
f 326/387/374 341/393/547 342/395/374
f 334/388/375 349/394/375 350/396/375
f 328/373/376 327/389/376 342/395/376
f 336/375/377 335/374/377 350/396/377
f 328/373/379 343/397/379 344/399/379
f 336/375/380 351/398/380 352/400/380
f 330/378/381 329/376/381 344/399/381
f 337/377/382 352/400/382 353/402/382
f 331/380/383 330/378/383 345/401/383
f 351/398/386 350/396/386 365/407/386
f 343/397/387 358/423/387 359/409/387
f 351/398/388 366/408/388 367/410/388
f 345/401/389 344/399/389 359/409/389
f 352/400/390 367/410/390 368/412/390
f 346/403/391 345/401/391 360/411/391
f 346/403/394 361/413/394 362/417/394
f 339/405/395 354/415/395 355/418/395
f 347/390/396 362/417/396 363/419/396
f 341/393/397 340/391/397 355/418/397
f 349/394/398 348/392/398 363/419/398
f 341/393/399 356/420/399 357/422/399
f 349/394/400 364/421/400 365/407/400
f 343/397/401 342/395/401 357/422/401
f 354/424/402 369/453/402 370/425/402
f 362/427/403 377/455/403 378/428/403
f 356/430/404 355/426/404 370/425/404
f 364/432/405 363/429/405 378/428/405
f 356/430/406 371/431/406 372/434/406
f 364/432/407 379/433/407 380/436/407
f 358/438/408 357/435/408 372/434/408
f 366/440/409 365/437/409 380/436/409
f 358/438/410 373/439/410 374/442/410
f 366/440/411 381/441/411 382/444/411
f 360/446/412 359/443/412 374/442/412
f 367/445/413 382/444/413 383/448/413
f 361/450/414 360/446/414 375/447/414
f 361/450/417 376/451/417 377/455/417
f 373/439/418 388/471/418 389/456/418
f 381/441/419 396/472/419 397/457/419
f 375/447/420 374/442/420 389/456/420
f 382/444/421 397/457/421 398/459/421
f 376/451/422 375/447/548 390/458/422
f 376/451/425 391/460/425 392/464/425
f 369/453/427 384/462/427 385/465/427
f 377/455/428 392/464/428 393/466/428
f 371/431/429 370/425/429 385/465/429
f 379/433/430 378/428/430 393/466/430
f 371/431/431 386/467/431 387/469/431
f 379/433/432 394/468/432 395/470/432
f 373/439/433 372/434/433 387/469/433
f 381/441/434 380/436/434 395/470/434
f 392/464/435 407/488/435 408/473/435
f 385/465/436 400/489/436 401/474/436
f 394/468/437 393/466/437 408/473/437
f 386/467/438 401/474/438 402/476/438
f 394/468/439 409/475/439 410/477/439
f 388/471/440 387/469/440 402/476/440
f 396/472/441 395/470/441 410/477/441
f 388/471/442 403/478/442 404/480/442
f 397/457/443 396/472/443 411/479/443
f 390/458/444 389/456/444 404/480/444
f 397/457/445 412/481/445 413/483/445
f 391/460/446 390/458/446 405/482/446
f 391/460/449 406/484/449 407/488/449
f 385/465/450 384/462/450 399/486/450
f 411/479/451 426/506/451 427/490/451
f 405/482/452 404/480/452 419/491/452
f 412/481/453 427/490/453 428/493/453
f 406/484/454 405/482/454 420/492/454
f 406/484/457 421/494/457 422/498/457
f 399/486/458 414/496/458 415/499/458
f 407/488/459 422/498/459 423/500/459
f 401/474/460 400/489/460 415/499/460
f 409/475/461 408/473/461 423/500/461
f 401/474/462 416/501/462 417/503/462
f 409/475/463 424/502/463 425/504/463
f 403/478/464 402/476/464 417/503/464
f 411/479/465 410/477/465 425/504/465
f 403/478/466 418/505/466 419/491/466
f 424/502/467 423/500/467 438/507/467
f 416/501/468 431/523/468 432/509/468
f 424/502/469 439/508/469 440/510/469
f 418/505/470 417/503/470 432/509/470
f 426/506/471 425/504/471 440/510/471
f 418/505/472 433/511/472 434/513/472
f 426/506/473 441/512/473 442/514/473
f 420/492/474 419/491/474 434/513/474
f 427/490/475 442/514/475 443/516/475
f 421/494/476 420/492/476 435/515/476
f 421/494/480 436/517/549 437/521/480
f 414/496/481 429/519/481 430/522/481
f 422/498/482 437/521/482 438/507/482
f 416/501/483 415/499/483 430/522/483
f 442/514/484 457/540/484 458/524/484
f 436/517/485 435/515/485 450/525/485
f 436/517/488 451/526/488 452/530/488
f 430/522/489 429/519/489 444/528/489
f 437/521/490 452/530/490 453/532/490
f 430/522/491 445/531/491 446/533/491
f 439/508/492 438/507/492 453/532/492
f 431/523/493 446/533/493 447/535/493
f 439/508/494 454/534/494 455/536/494
f 433/511/495 432/509/495 447/535/495
f 441/512/496 440/510/496 455/536/496
f 433/511/497 448/537/497 449/539/497
f 441/512/498 456/538/498 457/540/498
f 435/515/499 434/513/499 449/539/499
f 446/533/500 461/556/500 462/541/500
f 454/534/501 469/557/501 470/542/501
f 448/537/502 447/535/502 462/541/502
f 456/538/503 455/536/503 470/542/503
f 448/537/504 463/543/504 464/545/504
f 456/538/505 471/544/505 472/546/505
f 450/525/506 449/539/506 464/545/506
f 458/524/507 457/540/507 472/546/507
f 451/526/508 450/525/508 465/547/508
f 451/526/511 466/549/511 467/553/511
f 444/528/512 459/551/512 460/554/512
f 452/530/513 467/553/513 468/555/513
f 446/533/514 445/531/514 460/554/514
f 454/534/515 453/532/515 468/555/515
f 466/549/516 465/547/516 4/4/516
f 466/549/519 5/6/519 6/12/519
f 460/554/520 459/551/520 474/7/520
f 467/553/521 6/12/521 478/16/521
f 461/556/522 460/554/522 475/13/522
f 468/555/523 478/16/523 7/20/523
f 462/541/524 461/556/524 2/17/524
f 469/557/525 7/20/525 479/24/525
f 463/543/526 462/541/526 476/21/526
f 471/544/527 470/542/527 479/24/527
f 464/545/528 463/543/528 3/25/528
f 471/544/529 480/28/529 481/1/529
f 465/547/531 464/545/531 477/29/531
f 472/546/532 481/1/532 482/3/532
usemtl Material.001
f 487/560/550 485/560/550 483/560/550
f 485/560/551 490/560/551 486/560/551
f 489/560/552 488/560/552 490/560/552
f 484/560/553 490/560/553 488/560/553
f 483/560/554 486/560/554 484/560/554
f 487/560/555 484/560/555 488/560/555
f 487/560/550 489/560/550 485/560/550
f 485/560/551 489/560/551 490/560/551
f 489/560/552 487/560/552 488/560/552
f 484/560/553 486/560/553 490/560/553
f 483/560/554 485/560/554 486/560/554
f 487/560/555 483/560/555 484/560/555
usemtl Material.002
f 495/560/550 493/560/550 491/560/550
f 493/560/551 498/560/551 494/560/551
f 497/560/552 496/560/552 498/560/552
f 492/560/553 498/560/553 496/560/553
f 491/560/554 494/560/554 492/560/554
f 495/560/555 492/560/555 496/560/555
f 495/560/550 497/560/550 493/560/550
f 493/560/551 497/560/551 498/560/551
f 497/560/552 495/560/552 496/560/552
f 492/560/553 494/560/553 498/560/553
f 491/560/554 493/560/554 494/560/554
f 495/560/555 491/560/555 492/560/555
