mtllib Debris_Generic.mtl
o tripo_node_57955ec0-058b-4d24-a917-e61281b79b95
g tripo_node_57955ec0-058b-4d24-a917-e61281b79b95
usemtl tripo_material_57955ec0_058b_4d24_a917_e61281b79b95
v 0.240936264 0.140213013 -0.350738555
vt 0.604736328 0.361816406
vn 0.463977516 -0.511161804 -0.723490536
v 0.259872437 0.098419189 -0.267272979
vt 0.570556641 0.387939453
vn 0.651667237 -0.612410247 -0.447530627
v 0.218749985 0.097259521 -0.317077667
vt 0.578369141 0.359619141
vn 0.458458573 -0.632356703 -0.624452353
v 0.297653198 0.176254272 -0.332061797
vt 0.618896484 0.390380859
vn 0.645989716 -0.393896192 -0.653867781
v 0.087051377 0.044891357 -0.339447021
vt 0.549804688 0.300781250
vn 0.110603698 -0.908530474 -0.402913481
v 0.211242676 0.037689209 -0.268524200
vt 0.544433594 0.365966797
vn 0.196984798 -0.953406394 -0.228502333
v 0.149475068 0.133300766 -0.396820098
vt 0.602783203 0.314941406
vn 0.410672665 -0.379082561 -0.829243183
v 0.236541718 0.250564575 -0.378845245
vt 0.655761719 0.358886719
vn 0.472866148 -0.157622114 -0.866921544
v 0.337783813 0.251220703 -0.311462432
vt 0.650390625 0.414306641
vn 0.911916971 -0.117920287 -0.393067807
v 0.058189355 0.164840683 -0.455017090
vt 0.617187500 0.265380859
vn 0.110181488 -0.354155153 -0.928673387
v 0.334182739 0.324600220 -0.306091338
vt 0.683105469 0.419433594
vn 0.992772579 0.047274929 -0.110308193
v 0.343460083 0.292823792 -0.220764205
vt 0.665771484 0.457275391
vn 0.994224131 0.063125394 0.086797215
v 0.183685273 0.299468994 -0.412475616
vt 0.679443359 0.331787109
vn 0.434311241 -0.031586301 -0.900209010
v 0.299179018 0.324514389 -0.352661163
vt 0.686279297 0.392822266
vn 0.536348224 -0.007887490 -0.843960047
v 0.339492798 0.421249390 -0.300689727
vt 0.725585938 0.427978516
vn 0.974898219 -0.149379522 -0.165103853
v 0.328628540 0.426132202 -0.200912520
vt 0.721191406 0.473876953
vn 0.983490050 -0.180962130 -0.000000121
v 0.313064516 0.459167480 -0.350158721
vt 0.745605469 0.405029297
vn 0.575642467 0.094626158 -0.812207997
v 0.181854203 0.428306580 -0.391418487
vt 0.737548828 0.341064453
vn 0.470461547 0.086251296 -0.878195167
v 0.113174394 0.321853638 -0.440155059
vt 0.690673828 0.297363281
vn 0.496601999 -0.039412882 -0.867083132
v 0.037807416 0.314731568 -0.482360840
vt 0.689941406 0.257812500
vn -0.086765051 -0.189305350 -0.978077412
v -0.023468053 0.232368439 -0.427459717
vt 0.649658203 0.224121094
vn -0.447199970 -0.203985959 -0.870862842
v -0.024959611 0.371135682 -0.456146240
vt 0.713134766 0.225097656
vn -0.455241770 -0.141281947 -0.879087269
v 0.330673218 0.153625488 -0.248321563
vt 0.087646484 0.517578125
vn 0.953880250 -0.260149121 -0.149782956
vt 0.045898438 0.516845703
vt 0.052978516 0.475097656
vt 0.071044922 0.556640625
v 0.334213257 0.261276245 -0.151519820
vt 0.120605469 0.455566406
vn 0.999752104 -0.015744084 0.015743997
v 0.296218872 0.099761963 -0.203781158
vt 0.105712891 0.547363281
vn 0.677060366 -0.606205285 -0.417258233
vt 0.085937500 0.441162109
vt 0.051757812 0.576171875
vt 0.072753906 0.593017578
v 0.269454956 0.041656494 -0.185256973
vt 0.116210938 0.574951172
vn 0.267261267 -0.958996296 -0.094327502
v 0.323959351 0.078338623 -0.134231597
vt 0.143310547 0.549072266
vn 0.913499177 -0.393749595 -0.102375008
v 0.111228950 0.051879883 -0.173904419
vt 0.114257812 0.647460938
vn -0.055019226 -0.998206854 0.023579739
vt 0.045410156 0.651123047
v 0.152252212 0.047729492 -0.117515571
vt 0.145019531 0.630371094
vn -0.007864962 -0.998854995 -0.047189955
v 0.289108276 0.052185059 -0.058200859
vt 0.174560547 0.582031250
vn 0.316217899 -0.948653638 -0.007905447
v 0.189437896 0.035552979 -0.038192760
vt 0.174804688 0.627929688
vn 0.039295867 -0.990255177 -0.133605808
v 0.280868590 0.048156738 0.028644538
vt 0.202636719 0.594482422
vn 0.418505162 -0.908077121 0.015792631
v 0.152084395 0.018920898 0.061412808
vt 0.217285156 0.649169922
vn 0.031609975 -0.995713115 -0.086927302
v 0.338272154 0.100738525 0.036342587
vt 0.213867188 0.526123047
vn 0.919295549 -0.392861307 0.023571577
v 0.329910278 0.172836319 -0.078941382
vt 0.159667969 0.492675781
vn 0.999845147 -0.007872752 0.015745463
v 0.334854126 0.151367202 0.002190257
vt 0.197265625 0.499023438
vn 0.995371222 0.094797306 0.015799409
v 0.320693970 0.274879456 -0.015174905
vt 0.192871094 0.448486328
vn 0.999473393 -0.007869825 0.031479347
v 0.330551147 0.373661041 -0.084869429
vt 0.147216797 0.403320312
vn 0.999195039 -0.039338343 0.007867548
v 0.334396362 0.376129150 -0.002389238
vt 0.188720703 0.400390625
vn 0.988547087 -0.149066582 0.023536714
vt 0.104980469 0.376464844
v 0.344284058 0.440994263 0.062061261
vt 0.161376953 0.337646484
vn 0.976620197 -0.212651119 -0.031503994
v 0.329177856 0.329677582 -0.157150313
vt 0.117675781 0.420654297
vn 0.999504447 0.031480499 -0.000000132
vt 0.066406250 0.410888672
v 0.314712524 0.286186218 -0.176254317
vt 0.109619141 0.440673828
vn 0.981184721 0.086344309 0.172688380
vt 0.187988281 0.685058594
v -0.026105888 0.043365479 -0.275970459
vt 0.179687500 0.743652344
vn -0.070682295 -0.989552617 -0.125657409
v -0.047290824 0.076293916 -0.377532959
vt 0.135498047 0.722656250
vn -0.291954756 -0.583909452 -0.757504046
vt 0.119384766 0.652343750
vt 0.076660156 0.676757812
v -0.143569961 0.078277588 -0.324890107
vt 0.127685547 0.771972656
vn -0.267211765 -0.762339413 -0.589437544
v -0.092544556 0.040466309 -0.191574067
vt 0.191162109 0.791259766
vn 0.015728567 -0.990898132 -0.133692548
v -0.131027251 0.198867783 -0.367156953
vt 0.074707031 0.749755859
vn -0.338908672 -0.252211064 -0.906383276
v -0.105064429 0.306076020 -0.406005859
vt 0.033447266 0.702636719
vn -0.347189486 -0.236720100 -0.907426715
vt 0.017822266 0.652832031
v -0.192291290 0.297325104 -0.382385224
vt 0.024414062 0.764648438
vn -0.355334699 -0.142133877 -0.923869789
v -0.224578872 0.150970429 -0.333160371
vt 0.086425781 0.798828125
vn -0.314308584 -0.314308524 -0.895779133
v -0.285079956 0.292472810 -0.333404511
vt 0.018798828 0.812255859
vn -0.564901471 -0.047075182 -0.823814511
v -0.287063599 0.176879853 -0.321838349
vt 0.068359375 0.823974609
vn -0.545578182 -0.371625751 -0.751158237
v -0.335464478 0.182266206 -0.267028779
vt 0.062500000 0.856933594
vn -0.717939079 -0.213014945 -0.662712753
v -0.234283462 0.069274902 -0.269866914
vt 0.123291016 0.820556641
vn -0.298519403 -0.801288843 -0.518480897
v -0.322128296 0.093627930 -0.220184267
vt 0.113281250 0.865722656
vn -0.622645915 -0.701461852 -0.346790016
v -0.189926147 0.040466309 -0.211318925
vt 0.158447266 0.822265625
vn -0.070732489 -0.982396007 -0.172901645
v -0.253738403 0.039184570 -0.164215043
vt 0.156494141 0.858398438
vn -0.268458217 -0.947499752 -0.173708215
v -0.171447739 0.030700684 -0.111328088
vt 0.199951172 0.842041016
vn -0.007900481 -0.995464504 -0.094806105
v -0.210159302 0.056335449 -0.162490800
vt 0.168945312 0.844970703
vn -0.031562641 -0.994224131 -0.102578625
vt 0.297851562 0.954589844
vt 0.264648438 0.957275391
v 0.036758367 0.423583955 -0.504394531
vt 0.260253906 0.914062500
vn 0.094514437 0.078762107 -0.992402971
vt 0.234863281 0.940429688
v -0.116683997 0.349763840 -0.418853730
vt 0.199218750 0.956298828
vn -0.424710125 -0.039325058 -0.904474914
v -0.096534774 0.476783723 -0.424285889
vt 0.197509766 0.905761719
vn -0.474312127 0.071146734 -0.877477109
v -0.073867843 0.533447266 -0.416717529
vt 0.199218750 0.881835938
vn -0.370239615 0.354484558 -0.858640492
vt 0.330810547 0.913330078
v 0.046840616 0.477317780 -0.474975586
vt 0.270507812 0.892089844
vn 0.039277513 0.282799035 -0.958374739
v -0.043228198 0.635223389 -0.390075684
vt 0.211669922 0.841308594
vn -0.266833037 0.486577690 -0.831890881
v -0.179290816 0.467407197 -0.378143281
vt 0.152343750 0.900878906
vn -0.393749744 0.157499790 -0.905624092
v 0.081489511 0.574218750 -0.452575684
vt 0.287353516 0.854492188
vn 0.211988032 0.612410188 -0.761587083
v 0.036647752 0.661407471 -0.341125488
vt 0.248779297 0.811767578
vn 0.031511616 0.937473059 -0.346628755
v 0.108230546 0.659057617 -0.325988770
vt 0.272216797 0.795898438
vn 0.141767383 0.952992380 -0.267783016
v 0.170120195 0.605010986 -0.329742461
vt 0.340820312 0.828125000
vn 0.267616898 0.779237807 -0.566718459
v 0.218032792 0.610534668 -0.341461211
vt 0.355224609 0.841064453
vn 0.361276269 0.502645373 -0.785383523
v 0.113517709 0.506805420 -0.440185577
vt 0.299804688 0.881347656
vn 0.591486990 0.055205449 -0.804422438
v 0.188629106 0.480758667 -0.375732452
vt 0.337402344 0.892822266
vn 0.393249869 0.165164962 -0.904475033
vt 0.384521484 0.907714844
vt 0.503906250 0.359863281
vt 0.543457031 0.374511719
vt 0.491210938 0.395996094
v 0.331985533 0.120773330 0.090965234
vt 0.463134766 0.393066406
vn 0.925718725 -0.363957763 0.102857530
vt 0.495117188 0.425781250
v 0.263870299 0.050537109 0.142303452
vt 0.452148438 0.339843750
vn 0.628364921 -0.746183276 0.219927639
v 0.325332701 0.205719009 0.134857133
vt 0.426025391 0.421142578
vn 0.998114347 0.047155052 -0.039295975
v 0.334396422 0.152542144 0.235397309
vt 0.392333984 0.385498047
vn 0.913839281 -0.386018246 0.126046687
v 0.340713561 0.242019683 0.244934037
vt 0.374267578 0.425781250
vn 0.997252405 0.039261945 -0.062819183
v 0.296035826 0.145614654 0.278686494
vt 0.374023438 0.363769531
vn 0.583183706 -0.701396525 0.409804612
v 0.324783385 0.325023681 0.171142533
vt 0.385009766 0.465576172
vn 0.996392667 -0.070610456 -0.047073796
v 0.324447632 0.236831680 0.026012383
vt 0.466552734 0.458496094
vn 0.999195039 0.039338432 -0.007867810
vt 0.476074219 0.484130859
v 0.325302124 0.361834556 0.081512406
vt 0.415771484 0.501220703
vn 0.994719684 -0.102629758 -0.000000126
vt 0.448730469 0.526367188
v 0.208221495 0.047393799 0.237243637
vt 0.412597656 0.303955078
vn 0.481871098 -0.789952457 0.379177153
v 0.237731993 0.129714996 0.322540253
vt 0.358886719 0.328613281
vn 0.434460461 -0.671438694 0.600345135
v 0.150299132 0.052856445 0.291900605
vt 0.390380859 0.271972656
vn 0.133850053 -0.936949790 0.322814643
v 0.197189376 0.018768311 0.132354721
vt 0.465087891 0.305664062
vn 0.133937225 -0.984832168 0.110301234
vt 0.503662109 0.292968750
v 0.070884749 0.026947021 0.146774292
vt 0.473388672 0.243652344
vn 0.063125387 -0.994224012 0.086797372
v 0.066482574 0.033142090 0.024595266
vt 0.531005859 0.256103516
vn 0.007873068 -0.992003083 -0.125968605
v -0.022026001 0.025390625 0.246856704
vt 0.434326172 0.189941406
vn 0.047248576 -0.921345472 0.385862648
v 0.112060614 0.078460693 0.334411621
vt 0.373046875 0.244384766
vn -0.007906055 -0.545526981 0.838056087
v -0.009059840 0.081054688 0.302581787
vt 0.395996094 0.187500000
vn -0.063119307 -0.568074942 0.820552766
v -0.048370309 0.000976562 0.172912613
vt 0.474609375 0.182373047
vn 0.078458570 -0.996423304 0.031383444
v -0.022685971 0.029541016 0.031204242
vt 0.538818359 0.212890625
vn 0.086344279 -0.981184721 -0.172688484
vt 0.659423828 0.882080078
v 0.031162266 0.053985596 -0.173385605
vt 0.625732422 0.899658203
vn 0.062867567 -0.998021960 0.000000035
vt 0.614257812 0.816162109
vt 0.579833984 0.867675781
vt 0.569335938 0.918212891
v -0.060173009 0.035095215 -0.032279946
vt 0.617187500 0.980468750
vn 0.110089608 -0.990806222 -0.078635380
vt 0.552978516 0.969970703
v 0.025991458 0.048187256 -0.075088486
vt 0.644531250 0.943115234
vn 0.000000029 -0.993883729 -0.110431477
vt 0.688720703 0.897460938
vt 0.646240234 1.000000000
vt 0.721435547 0.923828125
vt 0.683105469 0.977539062
vt 0.727539062 0.975341797
vt 0.202636719 0.171142578
v 0.366378784 0.524612427 -0.233917296
vt 0.128662109 0.158691406
vn 0.943858325 0.000000027 -0.330350518
vt 0.187744141 0.134521484
v 0.365859985 0.546966553 -0.156982481
vt 0.088867188 0.144287109
vn 0.971490085 -0.236948758 0.007898176
vt 0.142822266 0.103515625
v 0.375686646 0.558578491 0.012189806
vt 0.071777344 0.070800781
vn 0.971247733 -0.236889645 -0.023689084
v 0.381362915 0.627471924 -0.186554015
vt 0.082275391 0.191162109
vn 0.918275714 0.251152396 -0.306092054
v 0.387832642 0.652130127 -0.007129733
vt 0.000000000 0.181884766
vn 0.966707587 0.251501173 0.047156330
v 0.309219301 0.575271606 -0.327728301
vt 0.161865234 0.213378906
vn 0.573719203 0.353662580 -0.738761842
vt 0.238037109 0.236328125
v 0.377731323 0.671997070 -0.059185091
vt 0.015136719 0.209960938
vn 0.597020268 0.801264048 0.039277539
vt 0.172363281 0.267089844
v 0.297714233 0.689208984 -0.217330992
vt 0.096191406 0.249267578
vn 0.290977895 0.849341154 -0.440399170
v 0.346481323 0.686828613 -0.154251158
vt 0.058105469 0.222900391
vn 0.473263234 0.843986213 -0.252407163
v 0.293167114 0.712707520 -0.111274771
vt 0.036376953 0.252197266
vn 0.228275642 0.968203902 -0.102330558
v 0.287765503 0.712219238 -0.054756217
vt 0.010498047 0.262207031
vn 0.015808901 0.980152965 0.197611436
v 0.298355103 0.659851074 -0.174438536
vt 0.069091797 0.246093750
vn 0.118033372 0.991480768 -0.055082325
v 0.279220581 0.694732666 -0.153823897
vt 0.055175781 0.261230469
vn -0.023578312 0.958848178 -0.282938808
v 0.232223496 0.707214355 -0.093193099
vt 0.030029297 0.288085938
vn -0.172933817 0.974717557 -0.141491264
v 0.121925347 0.682403564 -0.052986175
vt 0.011230469 0.343261719
vn -0.236985788 0.955842614 0.173789546
v 0.032684311 0.659851074 -0.127212539
vt 0.068603516 0.386474609
vn -0.133643046 0.990530550 -0.031445440
v 0.013967511 0.643157959 -0.037952438
vt 0.019775391 0.409912109
vn -0.118194580 0.984954536 0.126074150
v 0.149551362 0.666015625 -0.204803497
vt 0.096923828 0.320068359
vn -0.141399592 0.981941283 -0.125688508
vt 0.158691406 0.331542969
v 0.185638398 0.671997070 -0.268524200
vt 0.128662109 0.296875000
vn 0.031468663 0.904726863 -0.424828321
vt 0.176513672 0.291503906
vt 0.702392578 0.253173828
vt 0.734619141 0.242675781
v 0.010965316 0.662445068 -0.251312256
vt 0.750732422 0.283447266
vn 0.023612486 0.999597251 -0.015741736
vt 0.746826172 0.342773438
v -0.128082320 0.656036377 -0.319793671
vt 0.811523438 0.244384766
vn -0.173330560 0.906045616 -0.386054218
vt 0.769287109 0.213623047
v -0.235458419 0.583053589 -0.341644257
vt 0.864257812 0.213378906
vn -0.424565703 0.353804588 -0.833406448
v -0.040962242 0.659423828 -0.172821060
vt 0.778564453 0.317871094
vn 0.023542598 0.996638060 0.078475393
vt 0.760253906 0.384277344
v -0.094253577 0.668853760 -0.268432617
vt 0.798583984 0.270996094
vn -0.015728578 0.998762369 0.047185581
v -0.082588188 0.641845703 0.018684385
vt 0.807617188 0.405761719
vn 0.165164962 0.983125031 0.078649931
v -0.158172637 0.670715332 -0.245071411
vt 0.829345703 0.278564453
vn 0.070872672 0.992218256 -0.102371767
v -0.134078994 0.674133301 -0.133255005
vt 0.828125000 0.332519531
vn 0.188532680 0.981941283 0.015710995
v -0.071571372 0.640838623 -0.199798584
vt 0.791015625 0.306640625
vn 0.102626562 0.994688690 -0.007894412
vt 0.947265625 0.917724609
vt 0.950927734 0.940185547
vt 0.928466797 0.893798828
vt 0.956298828 0.906738281
vt 0.986328125 0.904785156
v 0.349868834 0.454605132 0.181671098
vt 0.964355469 0.863769531
vn 0.978442788 -0.205157310 -0.023672123
v 0.329086363 0.360787421 0.241836503
vt 0.996093750 0.886962891
vn 0.997713923 -0.054992061 -0.039280202
v 0.353958130 0.478042632 0.118255563
vt 0.939941406 0.869140625
vn 0.975410879 -0.220254019 -0.007866334
vt 0.893310547 0.867187500
vt 0.866699219 0.932617188
v 0.365463257 0.526641846 0.123519845
vt 0.934082031 0.850830078
vn 0.984832287 -0.173330441 0.007878536
v 0.361221373 0.492950469 0.359527528
vt 0.999023438 0.806640625
vn 0.966051459 0.086394899 0.243476257
v 0.369766295 0.577728271 0.238006532
vt 0.951416016 0.804443359
vn 0.733079314 0.575427949 0.362598240
vt 0.875000000 0.840332031
vt 0.844970703 0.865966797
v 0.381790161 0.613220215 0.193572938
vt 0.937988281 0.805908203
vn 0.827361882 0.464898556 0.315185308
v 0.231002837 0.663391113 0.197204545
vt 0.954345703 0.756347656
vn 0.031360250 0.956487715 0.290082306
v 0.287246704 0.689971924 0.165054262
vt 0.906005859 0.778564453
vn 0.370354384 0.898306370 0.236396328
v 0.314193726 0.680175781 0.043563787
vt 0.921875000 0.378173828
vn 0.078489907 0.988973260 0.125583842
vt 0.968017578 0.334960938
vt 0.975097656 0.377197266
vt 0.942382812 0.337646484
vt 0.862304688 0.396728516
v 0.196853653 0.669006348 0.067428552
vt 0.922363281 0.437255859
vn -0.157793730 0.978320897 0.134124607
vt 0.855224609 0.430908203
vt 0.820556641 0.379394531
vt 0.986816406 0.457031250
vt 0.790283203 0.425537109
v 0.196487457 0.652465820 0.252990693
vt 0.839843750 0.456054688
vn 0.236948848 0.860914052 0.450202703
v 0.123947173 0.653808594 0.229446381
vt 0.860351562 0.490234375
vn -0.015746122 0.999876022 -0.000000042
v 0.152191162 0.661804199 -0.009044681
vt 0.958740234 0.456054688
vn -0.213260576 0.947824717 0.236956164
v 0.097373977 0.643981934 0.077430695
vt 0.933349609 0.490722656
vn -0.189429119 0.978717029 0.078928769
vt 1.000000000 0.517578125
v 0.021913545 0.633239746 0.103546128
vt 0.931640625 0.526855469
vn -0.007849531 0.996883690 -0.078494824
v -0.020900693 0.669128418 0.253997803
vt 0.863525391 0.564208984
vn -0.023630172 0.984587789 -0.173287496
vt 0.761474609 0.211669922
vt 0.751708984 0.177001953
vt 0.770019531 0.172119141
v -0.161483794 0.330039948 -0.394439667
vt 0.754882812 0.153808594
vn -0.456622243 0.007872737 -0.889625847
vt 0.738281250 0.144531250
v -0.167617843 0.447021455 -0.383117646
vt 0.795166016 0.136230469
vn -0.502506018 0.039258216 -0.863682032
vt 0.802246094 0.164794922
v -0.229690582 0.394607514 -0.349914521
vt 0.770263672 0.114746094
vn -0.440412879 0.047187023 -0.896554470
vt 0.725830078 0.103515625
vt 0.807373047 0.132324219
vt 0.817626953 0.175537109
v -0.271041930 0.440719575 -0.335327119
vt 0.783203125 0.093261719
vn -0.517555654 0.039208695 -0.854750812
vt 0.675292969 0.082763672
v -0.373031616 0.290626496 -0.248535112
vt 0.704833984 0.057373047
vn -0.909447491 0.015680071 -0.415523291
v -0.359848022 0.404888123 -0.266784608
vt 0.750000000 0.055175781
vn -0.834051311 0.031473570 -0.550788403
v -0.356338501 0.387618989 -0.185729936
vt 0.728759766 0.026123047
vn -0.998947680 0.039328605 -0.023597062
v -0.387466431 0.264709443 -0.136474565
vt 0.675048828 0.022705078
vn -0.992218256 0.102371670 0.070872843
v -0.376571655 0.489547700 -0.203506425
vt 0.762695312 0.026367188
vn -0.998762369 0.015728496 -0.047185492
v -0.338363647 0.472579926 -0.276519746
vt 0.781005859 0.053710938
vn -0.780084074 0.181231588 -0.598852277
vt 0.840087891 0.086181641
vt 0.870849609 0.137939453
v -0.308731139 0.506347656 -0.308380097
vt 0.801269531 0.063232422
vn -0.723356426 0.345952958 -0.597555101
v -0.368240356 0.556152344 -0.171691865
vt 0.789062500 0.025634766
vn -0.868947923 0.434473902 -0.236985669
v -0.243728667 0.646667480 -0.269348115
vt 0.856689453 0.053466797
vn -0.463176310 0.730091393 -0.502428472
v -0.285720825 0.662261963 -0.214981049
vt 0.865966797 0.034912109
vn -0.628442466 0.730564296 -0.267087966
vt 0.886718750 0.069091797
vt 0.894531250 0.048828125
vt 0.840087891 0.835937500
vt 0.850097656 0.853027344
vt 0.804443359 0.843994141
v -0.387832642 0.160507172 -0.200195253
vt 0.819824219 0.811279297
vn -0.934894681 -0.314250350 -0.164981276
vt 0.866943359 0.798828125
vt 0.836914062 0.766601562
v -0.369064331 0.174499497 -0.023364965
vt 0.781982422 0.759277344
vn -0.994224012 -0.031562708 0.102578789
v -0.353805542 0.304027557 -0.035148572
vt 0.817138672 0.728759766
vn -0.990499973 0.070749953 0.117916793
v -0.365768433 0.222473130 0.046714839
vt 0.773193359 0.729492188
vn -0.997221589 0.070669197 -0.023556288
v -0.356796265 0.083831757 -0.041896760
vt 0.761718750 0.788330078
vn -0.840178847 -0.541797578 -0.023556281
v -0.360916078 0.108917221 0.073547415
vt 0.738037109 0.752685547
vn -0.961226106 -0.275761604 0.000000138
v -0.372054994 0.236831665 0.126693770
vt 0.756835938 0.708984375
vn -0.994688690 0.086837858 -0.055260353
v -0.349197388 0.329458237 0.057712600
vt 0.777832031 0.688476562
vn -0.999442518 0.023608835 -0.023608752
v -0.374374330 0.129333481 0.133407652
vt 0.727050781 0.733886719
vn -0.946291029 -0.315430373 0.070971966
v -0.293167055 0.032073975 0.088386588
vt 0.708740234 0.777832031
vn -0.512033224 -0.858640432 0.023632409
v -0.314132690 0.073547363 -0.091133058
vt 0.764404297 0.816406250
vn -0.511035383 -0.849105000 -0.133655310
v -0.227325410 0.022705078 0.044670150
vt 0.704833984 0.811279297
vn -0.260904163 -0.964554965 -0.039530866
v -0.207931459 0.020111084 0.220840499
vt 0.666503906 0.774169922
vn -0.227768123 -0.950343192 0.212060124
v -0.255874634 0.031860352 -0.050086927
vt 0.738281250 0.828857422
vn -0.471856207 -0.880798280 -0.039321251
vt 0.768798828 0.860839844
vt 0.799804688 0.876464844
v -0.214218125 0.025909424 -0.066818193
vt 0.730957031 0.844238281
vn -0.031411435 -0.989461064 -0.141351521
v -0.142669633 0.000000000 0.108970679
vt 0.670654297 0.828857422
vn -0.039241314 -0.996730208 -0.070634365
vt 0.756835938 0.872558594
vt 0.762939453 0.883789062
vt 0.731445312 0.866943359
v -0.109184235 0.022705078 0.006556540
vt 0.688476562 0.860839844
vn 0.102279827 -0.983459711 -0.149485841
vt 0.665527344 0.878173828
vt 0.689941406 0.885498047
v -0.367691040 0.345321625 -0.120574906
vt 0.496337891 0.754638672
vt 0.522949219 0.772949219
vt 0.467285156 0.773925781
vt 0.468505859 0.726318359
v -0.364822388 0.429290771 -0.063857988
vt 0.519042969 0.719238281
vn -0.996914387 -0.000000040 0.078497328
vt 0.564941406 0.762451172
vt 0.462646484 0.686523438
vt 0.424072266 0.708984375
v -0.352920532 0.556854248 -0.092887841
vt 0.571533203 0.708007812
vn -0.980309248 0.196061805 0.023527542
v -0.353164673 0.451805115 0.023645444
vt 0.512695312 0.681640625
vn -0.998361051 -0.055027820 -0.015722089
v -0.366134644 0.470390320 0.108230628
vt 0.507568359 0.645507812
vn -0.993204236 -0.102473497 -0.055177882
v -0.369491577 0.499862671 0.035099071
vt 0.529296875 0.667968750
vn -0.997375369 0.047120046 -0.054973319
v -0.354446411 0.589889526 0.140213042
vt 0.538330078 0.615722656
vn -0.956170857 0.292382807 0.015804589
vt 0.584472656 0.738769531
vt 0.576416016 0.795654297
v -0.315628052 0.639038086 -0.024551364
vt 0.591552734 0.665283203
vn -0.699206948 0.714919329 0.000000060
v -0.328475952 0.635528564 0.086555511
vt 0.567382812 0.625488281
vn -0.565458655 0.824627221 0.015707223
v -0.291488647 0.637420654 0.065589927
vt 0.582275391 0.627441406
vn -0.299621582 0.954058111 -0.000000002
vt 0.641357422 0.728515625
vt 0.611328125 0.798583984
v -0.228240982 0.671783447 -0.131912217
vt 0.645996094 0.686279297
vn -0.204985157 0.977621377 0.047304247
v -0.189056396 0.677429199 0.041618358
vt 0.626464844 0.614746094
vn -0.000000030 0.994719684 0.102629758
vt 0.679931641 0.667724609
vt 0.670898438 0.599853516
v -0.168350250 0.684112549 -0.210052490
vt 0.683349609 0.702880859
vn -0.070813537 0.991388738 -0.110154346
vt 0.696044922 0.712402344
v -0.205307037 0.657318115 -0.218704209
vt 0.673095703 0.719238281
vn -0.149195328 0.910876215 -0.384766668
vt 0.665283203 0.744873047
v 0.340988219 0.237052947 0.361419618
vt 0.304443359 0.613037109
vn 0.714743078 -0.377007246 0.589073777
vt 0.237060547 0.622314453
vt 0.228027344 0.593017578
vt 0.240478516 0.661865234
vt 0.266113281 0.565185547
vt 0.273193359 0.506347656
vt 0.311279297 0.521972656
v 0.334976256 0.343296081 0.390472382
vt 0.355712891 0.587158203
vn 0.977074921 -0.165472314 0.133953676
v 0.274093688 0.315109283 0.386352509
vt 0.358398438 0.622558594
vn 0.471041381 -0.471041203 0.745815217
v 0.330429137 0.417503387 0.466705292
vt 0.406738281 0.566162109
vn 0.699466109 -0.102169119 0.707325041
v 0.276260436 0.344250709 0.451873749
vt 0.374267578 0.663330078
vn 0.306735128 -0.558414936 0.770769894
v 0.242218092 0.270149261 0.399444550
vt 0.324218750 0.667968750
vn 0.196449026 -0.447903425 0.872233033
v 0.248107985 0.185455352 0.363891572
vt 0.276855469 0.661621094
vn 0.118474536 -0.418609530 0.900405407
v 0.166168287 0.334150344 0.447113007
vt 0.362548828 0.711181641
vn -0.110263444 -0.551317811 0.826976895
v 0.184661940 0.394622833 0.499267548
vt 0.404785156 0.707763672
vn -0.188865051 -0.361991584 0.912848353
v 0.166534498 0.239036590 0.384002656
vt 0.303466797 0.706787109
vn -0.055407297 -0.427428752 0.902349651
vt 0.213378906 0.728271484
vt 0.192871094 0.702880859
v 0.125763014 0.151123062 0.346527070
vt 0.252197266 0.724609375
vn -0.062906243 -0.275215387 0.959322333
v 0.015945503 0.146530166 0.337188721
vt 0.243896484 0.782470703
vn -0.055027638 -0.369472176 0.927611053
vt 0.204833984 0.793945312
v -0.005886485 0.256843567 0.383239746
vt 0.303466797 0.798583984
vn -0.070949636 -0.338982224 0.938113689
v 0.021524498 0.318744689 0.406311035
vt 0.338867188 0.787353516
vn -0.212796301 -0.323135287 0.922117889
v 0.114173964 0.393589050 0.463012666
vt 0.391113281 0.742431641
vn -0.290753186 -0.290753275 0.911550939
v 0.207901075 0.432319671 0.504394531
vt 0.399902344 0.131835938
vn 0.478862494 0.463162035 0.745769203
vt 0.416503906 0.148925781
vt 0.373535156 0.192871094
vt 0.337158203 0.159423828
v 0.133117750 0.540313721 0.497802705
vt 0.426025391 0.066162109
vn 0.315420628 0.402161211 0.859520912
v 0.173523009 0.542510986 0.379180878
vt 0.361816406 0.048339844
vn 0.630527556 0.654172301 0.417724401
vt 0.457763672 0.141357422
vt 0.444335938 0.182861328
v 0.045559000 0.538757324 0.481353760
vt 0.471923828 0.055419922
vn -0.180760756 0.047155052 0.982396126
v 0.012671540 0.457870513 0.451934814
vt 0.501953125 0.094482422
vn -0.346531808 -0.244147450 0.905708432
vt 0.521240234 0.171386719
v 0.301498473 0.447059661 0.427062958
vt 0.335205078 0.128662109
vn 0.268049181 0.772612214 0.575517178
v 0.267044127 0.493347198 0.391052216
vt 0.331787109 0.096923828
vn 0.204388931 0.668194413 0.715361059
v 0.203506514 0.541671753 0.347991914
vt 0.338867188 0.048583984
vn 0.173903599 0.663995326 0.727232933
vt 0.284667969 0.110107422
vt 0.291748047 0.193603516
v 0.312362731 0.571212769 0.326995820
vt 0.286865234 0.058593750
vn 0.299027324 0.723960757 0.621661842
v 0.239654586 0.581390381 0.318695039
vt 0.309570312 0.034912109
vn 0.125824511 0.652714252 0.747082531
vt 0.230957031 0.052978516
vt 0.188720703 0.120361328
vt 0.214355469 0.175781250
vt 0.267089844 0.008789062
vt 0.199218750 0.074951172
vt 0.215087891 0.000000000
vt 0.184570312 0.021728516
v 0.150070235 0.614440918 0.316345185
vt 0.158935547 0.064453125
vn 0.440031976 0.754340470 0.487178147
vt 0.190673828 0.103759766
vt 0.157226562 0.015380859
vt 0.137207031 0.022949219
v 0.114967398 0.639862061 0.370544404
vt 0.125244141 0.070312500
vn 0.511731744 0.763661265 0.393639743
vt 0.074707031 0.015380859
v 0.079444945 0.609985352 0.435882568
vt 0.085449219 0.068603516
vn 0.157793745 0.702181995 0.694292188
vt 0.045410156 0.050048828
vt 0.979492188 0.277832031
vt 0.960205078 0.316162109
v 0.097564742 0.657836914 0.320922852
vt 0.930664062 0.281494141
vn 0.292382807 0.956170857 0.015804397
vt 0.903564453 0.355224609
vt 0.947265625 0.262939453
v -0.021963073 0.685058594 0.350952148
vt 0.898681641 0.216064453
vn 0.094485238 0.984221458 0.149601609
vt 0.953857422 0.163574219
v -0.022285406 0.650238037 0.408691406
vt 0.913574219 0.220458984
vn 0.109940149 0.848109484 0.518289030
vt 0.915283203 0.165039062
vt 0.199707031 0.286132812
vt 0.249755859 0.294921875
vt 0.236816406 0.329101562
v -0.139617875 0.671997070 0.363922149
vt 0.301269531 0.333251953
vn -0.189801946 0.964826524 0.181893498
vt 0.238037109 0.242675781
vt 0.285644531 0.253906250
vt 0.323730469 0.183349609
v -0.089050271 0.641174316 0.147583008
vt 0.358642578 0.232910156
vn 0.007844350 0.996239424 -0.086288497
v -0.200302079 0.649261475 0.299163848
vt 0.353027344 0.330322266
vn -0.236066878 0.967874110 0.086557835
v -0.052234586 0.623413086 0.455200195
vt 0.244873047 0.362548828
vn -0.314269572 0.204275310 0.927095592
vt 0.186767578 0.355712891
vt 0.194335938 0.401367188
v -0.160812318 0.638244629 0.382171661
vt 0.310791016 0.354980469
vn -0.598109961 0.243965954 0.763377368
v -0.239608720 0.559829712 0.340515167
vt 0.362060547 0.389404297
vn -0.559853911 0.228672773 0.796412170
vt 0.216064453 0.447021484
v -0.140548646 0.521408081 0.391876251
vt 0.303955078 0.416992188
vn -0.480657727 -0.063037075 0.874639690
v -0.205154359 0.486877441 0.352050811
vt 0.346435547 0.431152344
vn -0.448360354 -0.094391666 0.888855040
v -0.060028013 0.484085083 0.425506592
vt 0.258300781 0.437500000
vn -0.361991465 -0.188865155 0.912848413
vt 0.223144531 0.524414062
v -0.132354677 0.395748138 0.387573272
vt 0.306884766 0.482666016
vn -0.371265978 -0.150086269 0.916316390
v -0.196838319 0.402809143 0.341064483
vt 0.352539062 0.475585938
vn -0.392861277 0.023571709 0.919295728
v -0.088218622 0.309246063 0.388549805
vt 0.323730469 0.526367188
vn -0.173767745 -0.102680981 0.979418993
vt 0.420410156 0.650146484
vt 0.462158203 0.594238281
vt 0.488281250 0.641845703
vt 0.539794922 0.607177734
vt 0.467773438 0.555419922
v -0.167053163 0.035064697 0.271698028
vt 0.533935547 0.575683594
vn -0.055111144 -0.614097059 0.787303925
vt 0.478515625 0.518798828
v -0.087036066 0.156463638 0.346557617
vt 0.529541016 0.497558594
vn -0.086482786 -0.400966197 0.912001610
vt 0.483154297 0.481689453
vt 0.516845703 0.434570312
v -0.101921014 0.202041641 0.348754883
vt 0.547119141 0.483154297
vn -0.023638772 -0.346703976 0.937676728
v -0.131317064 0.219009414 0.375671417
vt 0.566894531 0.478759766
vn 0.015799187 -0.434473902 0.900545895
v -0.294570863 0.092376709 0.291412383
vt 0.600097656 0.580078125
vn -0.378234148 -0.472792834 0.795867980
v -0.210983202 0.234771729 0.373138458
vt 0.604492188 0.485595703
vn -0.339796096 -0.015804451 0.940366387
vt 0.563232422 0.430664062
vt 0.630371094 0.407714844
vt 0.520019531 0.400390625
vt 0.601074219 0.404785156
vt 0.956054688 0.175537109
vt 0.956054688 0.260253906
vt 0.918457031 0.225097656
vt 0.710449219 0.103759766
vt 0.710693359 0.179443359
v -0.335555971 0.084716797 0.222793639
vt 0.652587891 0.145019531
vn -0.730992913 -0.620951056 0.282965124
vt 0.648193359 0.093994141
vt 0.648437500 0.183105469
vt 0.708740234 0.211425781
v -0.370223939 0.242012024 0.250061095
vt 0.575927734 0.146240234
vn -0.918926895 -0.086394869 0.384849876
vt 0.599121094 0.081298828
v -0.295638978 0.167007446 0.271209747
vt 0.612060547 0.182373047
vn -0.748681545 -0.204902336 0.630468905
v -0.311141908 0.229476929 0.316864043
vt 0.588623047 0.211425781
vn -0.678914368 -0.007894353 0.734175026
vt 0.609619141 0.262207031
v -0.358200014 0.351824045 0.226715133
vt 0.533203125 0.110351562
vn -0.981305599 0.039252184 0.188410804
vt 0.566406250 0.035888672
v -0.283035219 0.324768066 0.309692413
vt 0.551757812 0.240722656
vn -0.543105006 0.094453089 0.834335506
vt 0.536376953 0.296142578
v -0.325637758 0.366604805 0.268798858
vt 0.523681641 0.135009766
vn -0.730361402 -0.204187080 0.651828110
v -0.317672670 0.460350037 0.306304961
vt 0.731689453 0.554687500
vn -0.550634980 0.039331097 0.833819032
vt 0.684082031 0.598144531
vt 0.647949219 0.569824219
vt 0.673095703 0.495117188
vt 0.727539062 0.477783203
vt 0.774414062 0.485107422
v -0.370346010 0.464393616 0.256195128
vt 0.752685547 0.599853516
vn -0.916487873 0.063206039 0.395038009
v -0.293075502 0.641082764 0.257110626
vt 0.840332031 0.536376953
vn -0.457047224 0.772252262 0.441287041
vt 0.840820312 0.472412109
vt 0.689941406 0.635986328
vt 0.778076172 0.679687500
vt 0.705078125 0.735839844
v -0.344589174 0.603164673 0.222610503
vt 0.833007812 0.584960938
vn -0.901333690 0.403228194 0.158128828
vt 0.894287109 0.627197266
v -0.367660463 0.504608154 0.171249434
vt 0.796142578 0.644042969
vn -0.981941283 0.188532680 0.015711181
vt 0.813476562 0.706787109
vt 0.852294922 0.635742188
v -0.330337524 0.543182373 0.163711578
vt 0.824707031 0.627685547
vn -0.979510546 0.181683376 0.086892188
vt 0.554199219 0.806152344
vt 0.570800781 0.882568359
vt 0.512451172 0.866943359
vt 0.489990234 0.799804688
v -0.126129135 0.651519775 0.083663940
vt 0.479492188 0.839599609
vn 0.109923147 0.981456876 0.157033041
vt 0.450927734 0.872314453
v -0.158355698 0.650634766 0.134674072
vt 0.455566406 0.817138672
vn 0.039334692 0.999102235 0.015733846
vt 0.409912109 0.736083984
vt 0.367675781 0.772216797
v -0.199050888 0.634765625 0.089744575
vt 0.439208984 0.838623047
vn 0.126333281 0.963291407 0.236874878
v -0.253280640 0.662841797 0.105766311
vt 0.406738281 0.849365234
vn -0.078436837 0.996147394 0.039218366
vt 0.368408203 0.872070312
vt 0.390380859 0.878417969
f 1/1/1 2/2/2 3/3/3
f 2/2/2 1/1/1 4/4/4
f 1/1/1 3/3/3 5/5/5
f 5/5/5 3/3/3 6/6/6
f 1/1/1 5/5/5 7/7/7
f 4/4/4 1/1/1 8/8/8
f 8/8/8 1/1/1 7/7/7
f 4/4/4 8/8/8 9/9/9
f 7/7/7 5/5/5 10/10/10
f 11/11/11 12/12/12 9/9/9
f 8/8/8 7/7/7 13/13/13
f 13/13/13 7/7/7 10/10/10
f 9/9/9 8/8/8 14/14/14
f 14/14/14 8/8/8 13/13/13
f 9/9/9 14/14/14 11/11/11
f 11/11/11 14/14/14 15/15/15
f 11/11/11 15/15/15 16/16/16
f 15/15/15 14/14/14 17/17/17
f 17/17/17 14/14/14 18/18/18
f 18/18/18 14/14/14 13/13/13
f 18/18/18 13/13/13 19/19/19
f 19/19/19 13/13/13 10/10/10
f 19/19/19 10/10/10 20/20/20
f 20/20/20 10/10/10 21/21/21
f 20/20/20 21/21/21 22/22/22
f 23/23/23 4/24/4 9/25/9
f 4/24/4 23/23/23 2/26/2
f 23/23/23 9/25/9 24/27/24
f 2/26/2 23/23/23 25/28/25
f 24/27/24 9/25/9 12/29/12
f 3/30/3 2/26/2 6/31/6
f 2/26/2 25/28/25 26/32/26
f 2/26/2 26/32/26 6/31/6
f 25/28/25 23/23/23 27/33/27
f 25/28/25 27/33/27 26/32/26
f 6/31/6 26/32/26 28/34/28
f 6/31/6 28/34/28 5/35/5
f 28/34/28 26/32/26 29/36/29
f 29/36/29 26/32/26 30/37/30
f 30/37/30 26/32/26 27/33/27
f 29/36/29 30/37/30 31/38/31
f 31/38/31 30/37/30 32/39/32
f 31/38/31 32/39/32 33/40/33
f 30/37/30 27/33/27 34/41/34
f 34/41/34 27/33/27 35/42/35
f 35/42/35 27/33/27 23/23/23
f 34/41/34 35/42/35 36/43/36
f 36/43/36 35/42/35 37/44/37
f 35/42/35 23/23/23 24/27/24
f 37/44/37 35/42/35 38/45/38
f 38/45/38 35/42/35 24/27/24
f 37/44/37 38/45/38 39/46/39
f 16/47/16 40/48/40 38/45/38
f 16/47/16 38/45/38 41/49/41
f 41/49/41 38/45/38 24/27/24
f 16/47/16 41/49/41 11/50/11
f 11/50/11 41/49/41 12/29/12
f 41/49/41 24/27/24 42/51/42
f 42/51/42 24/27/24 12/29/12
f 42/51/42 12/29/12 41/49/41
f 5/52/5 43/53/43 44/54/44
f 5/52/5 44/54/44 10/55/10
f 10/55/10 44/54/44 21/56/21
f 44/54/44 43/53/43 45/57/45
f 45/57/45 43/53/43 46/58/46
f 21/56/21 44/54/44 47/59/47
f 47/59/47 44/54/44 45/57/45
f 21/56/21 47/59/47 48/60/48
f 21/56/21 48/60/48 22/61/22
f 48/60/48 47/59/47 49/62/49
f 49/62/49 47/59/47 50/63/50
f 50/63/50 47/59/47 45/57/45
f 49/62/49 50/63/50 51/64/51
f 51/64/51 50/63/50 52/65/52
f 51/64/51 52/65/52 53/66/53
f 50/63/50 45/57/45 54/67/54
f 50/63/50 54/67/54 52/65/52
f 54/67/54 45/57/45 46/58/46
f 52/65/52 54/67/54 55/68/55
f 54/67/54 46/58/46 56/69/56
f 54/67/54 56/69/56 57/70/57
f 56/69/56 46/58/46 58/71/58
f 56/69/56 58/71/58 59/72/59
f 19/73/19 20/74/20 60/75/60
f 60/75/60 20/74/20 22/76/22
f 61/77/61 62/78/62 22/76/22
f 22/76/22 62/78/62 60/75/60
f 60/75/60 62/78/62 63/79/63
f 19/73/19 60/75/60 18/80/18
f 60/75/60 63/79/63 64/81/64
f 60/75/60 64/81/64 18/80/18
f 64/81/64 63/79/63 65/82/65
f 65/82/65 63/79/63 66/83/66
f 64/81/64 65/82/65 67/84/67
f 67/84/67 65/82/65 68/85/68
f 67/84/67 68/85/68 69/86/69
f 67/84/67 69/86/69 70/87/70
f 67/84/67 70/87/70 71/88/71
f 64/81/64 67/84/67 72/89/72
f 72/89/72 67/84/67 71/88/71
f 64/81/64 72/89/72 18/80/18
f 72/89/72 71/88/71 73/90/73
f 72/89/72 73/90/73 18/80/18
f 18/80/18 73/90/73 17/91/17
f 32/92/32 30/93/30 34/94/34
f 32/92/32 34/94/34 74/95/74
f 74/95/74 34/94/34 36/96/36
f 32/92/32 74/95/74 75/97/75
f 74/95/74 36/96/36 76/98/76
f 75/97/75 74/95/74 77/99/77
f 77/99/77 74/95/74 76/98/76
f 77/99/77 76/98/76 78/100/78
f 75/97/75 77/99/77 79/101/79
f 78/100/78 76/98/76 80/102/80
f 76/98/76 36/96/36 81/103/81
f 76/98/76 81/103/81 80/102/80
f 81/103/81 36/96/36 37/104/37
f 80/102/80 81/103/81 82/105/82
f 82/105/82 81/103/81 37/104/37
f 82/105/82 37/104/37 39/106/39
f 75/97/75 79/101/79 83/107/83
f 83/107/83 79/101/79 84/108/84
f 83/107/83 84/108/84 85/109/85
f 75/97/75 83/107/83 86/110/86
f 86/110/86 83/107/83 85/109/85
f 75/97/75 86/110/86 32/92/32
f 32/92/32 86/110/86 33/111/33
f 33/111/33 86/110/86 87/112/87
f 87/112/87 86/110/86 85/109/85
f 33/111/33 87/112/87 88/113/88
f 87/112/87 85/109/85 89/114/89
f 89/114/89 85/109/85 90/115/90
f 89/114/89 90/115/90 91/116/91
f 87/112/87 89/114/89 92/117/92
f 87/112/87 92/117/92 88/113/88
f 88/113/88 92/117/92 93/118/93
f 28/119/28 94/120/94 5/121/5
f 5/121/5 94/120/94 43/122/43
f 43/122/43 94/120/94 46/123/46
f 46/123/46 94/120/94 95/124/95
f 46/123/46 95/124/95 58/125/58
f 94/120/94 28/119/28 96/126/96
f 94/120/94 96/126/96 95/124/95
f 96/126/96 28/119/28 29/127/29
f 95/124/95 96/126/96 93/128/93
f 96/126/96 29/127/29 31/129/31
f 93/128/93 96/126/96 88/130/88
f 88/130/88 96/126/96 31/129/31
f 88/130/88 31/129/31 33/131/33
f 17/132/17 97/133/97 15/134/15
f 15/134/15 97/133/97 98/135/98
f 15/134/15 98/135/98 16/136/16
f 16/136/16 98/135/98 99/137/99
f 98/135/98 97/133/97 100/138/100
f 98/135/98 100/138/100 101/139/101
f 97/133/97 17/132/17 102/140/102
f 97/133/97 102/140/102 100/138/100
f 102/140/102 17/132/17 73/141/73
f 101/139/101 100/138/100 103/142/103
f 102/140/102 73/141/73 71/143/71
f 100/138/100 102/140/102 104/144/104
f 104/144/104 102/140/102 71/143/71
f 103/142/103 100/138/100 105/145/105
f 105/145/105 100/138/100 104/144/104
f 103/142/103 105/145/105 106/146/106
f 103/142/103 106/146/106 107/147/107
f 105/145/105 104/144/104 108/148/108
f 105/145/105 108/148/108 109/149/109
f 105/145/105 109/149/109 106/146/106
f 109/149/109 108/148/108 104/144/104
f 107/147/107 106/146/106 110/150/110
f 110/150/110 106/146/106 109/149/109
f 107/147/107 110/150/110 111/151/111
f 111/151/111 110/150/110 112/152/112
f 111/151/111 112/152/112 113/153/113
f 110/150/110 109/149/109 114/154/114
f 110/150/110 114/154/114 112/152/112
f 114/154/114 109/149/109 104/144/104
f 112/152/112 114/154/114 69/155/69
f 114/154/114 104/144/104 115/156/115
f 114/154/114 115/156/115 69/155/69
f 115/156/115 104/144/104 71/143/71
f 69/155/69 115/156/115 70/157/70
f 70/157/70 115/156/115 71/143/71
f 69/158/69 68/159/68 116/160/116
f 69/158/69 116/160/116 112/161/112
f 116/160/116 68/159/68 117/162/117
f 117/162/117 68/159/68 65/163/65
f 117/162/117 65/163/65 118/164/118
f 112/161/112 116/160/116 119/165/119
f 112/161/112 119/165/119 113/166/113
f 116/160/116 117/162/117 120/167/120
f 116/160/116 120/167/120 119/165/119
f 113/166/113 119/165/119 121/168/121
f 120/167/120 117/162/117 122/169/122
f 121/168/121 119/165/119 123/170/123
f 120/167/120 122/169/122 124/171/124
f 124/171/124 122/169/122 123/170/123
f 120/167/120 124/171/124 119/165/119
f 119/165/119 124/171/124 123/170/123
f 39/172/39 38/173/38 40/174/40
f 39/172/39 40/174/40 82/175/82
f 82/175/82 40/174/40 80/176/80
f 125/177/125 126/178/126 80/176/80
f 80/176/80 40/174/40 127/179/127
f 80/176/80 127/179/127 125/177/125
f 127/179/127 40/174/40 99/180/99
f 99/180/99 40/174/40 16/181/16
f 125/177/125 127/179/127 128/182/128
f 128/182/128 127/179/127 99/180/99
f 125/177/125 128/182/128 129/183/129
f 129/183/129 128/182/128 130/184/130
f 128/182/128 99/180/99 101/185/101
f 101/185/101 99/180/99 98/186/98
f 130/184/130 128/182/128 131/187/131
f 131/187/131 128/182/128 101/185/101
f 130/184/130 131/187/131 132/188/132
f 131/187/131 101/185/101 133/189/133
f 134/190/134 103/191/103 107/192/107
f 103/191/103 134/190/134 101/193/101
f 101/193/101 134/190/134 133/194/133
f 134/190/134 107/192/107 135/195/135
f 133/194/133 134/190/134 132/196/132
f 133/194/133 132/196/132 131/197/131
f 132/196/132 134/190/134 135/195/135
f 135/195/135 107/192/107 111/198/111
f 130/199/130 132/196/132 136/200/136
f 136/200/136 132/196/132 137/201/137
f 137/201/137 132/196/132 135/195/135
f 135/195/135 111/198/111 138/202/138
f 138/202/138 111/198/111 139/203/139
f 138/202/138 139/203/139 135/195/135
f 135/195/135 139/203/139 137/201/137
f 139/203/139 111/198/111 113/204/113
f 139/203/139 113/204/113 140/205/140
f 139/203/139 140/205/140 137/201/137
f 137/201/137 140/205/140 141/206/141
f 22/207/22 48/208/48 61/209/61
f 61/209/61 48/208/48 142/210/142
f 142/210/142 48/208/48 49/211/49
f 61/209/61 142/210/142 143/212/143
f 61/209/61 143/212/143 62/213/62
f 142/210/142 49/211/49 144/214/144
f 142/210/142 144/214/144 143/212/143
f 144/214/144 49/211/49 51/215/51
f 62/213/62 143/212/143 66/216/66
f 66/216/66 143/212/143 144/214/144
f 62/213/62 66/216/66 63/217/63
f 144/214/144 51/215/51 145/218/145
f 144/214/144 145/218/145 66/216/66
f 53/219/53 146/220/146 51/215/51
f 51/215/51 146/220/146 147/221/147
f 51/215/51 147/221/147 145/218/145
f 147/221/147 146/220/146 148/222/148
f 148/222/148 146/220/146 149/223/149
f 147/221/147 148/222/148 150/224/150
f 147/221/147 150/224/150 151/225/151
f 147/221/147 151/225/151 145/218/145
f 118/226/118 66/216/66 145/218/145
f 66/216/66 118/226/118 65/227/65
f 145/218/145 151/225/151 152/228/152
f 145/218/145 152/228/152 118/226/118
f 152/228/152 151/225/151 153/229/153
f 118/226/118 152/228/152 154/230/154
f 154/230/154 152/228/152 155/231/155
f 118/226/118 154/230/154 117/232/117
f 117/232/117 154/230/154 122/233/122
f 53/234/53 52/235/52 55/236/55
f 53/234/53 55/236/55 156/237/156
f 53/234/53 156/237/156 146/238/146
f 146/238/146 156/237/156 149/239/149
f 149/239/149 156/237/156 157/240/157
f 149/239/149 157/240/157 158/241/158
f 158/241/158 157/240/157 159/242/159
f 157/240/157 156/237/156 160/243/160
f 159/242/159 157/240/157 161/244/161
f 161/244/161 157/240/157 160/243/160
f 159/242/159 161/244/161 162/245/162
f 159/242/159 162/245/162 163/246/163
f 162/245/162 161/244/161 164/247/164
f 164/247/164 161/244/161 165/248/165
f 165/248/165 161/244/161 160/243/160
f 166/249/166 160/243/160 156/237/156
f 160/243/160 166/249/166 165/248/165
f 166/249/166 156/237/156 55/236/55
f 165/248/165 166/249/166 167/250/167
f 165/248/165 167/250/167 168/251/168
f 166/249/166 55/236/55 169/252/169
f 166/249/166 169/252/169 167/250/167
f 169/252/169 55/236/55 57/253/57
f 57/253/57 55/236/55 54/254/54
f 167/250/167 169/252/169 170/255/170
f 170/255/170 169/252/169 57/253/57
f 167/250/167 170/255/170 171/256/171
f 170/255/170 57/253/57 59/257/59
f 59/257/59 57/253/57 56/258/56
f 170/255/170 59/257/59 58/259/58
f 171/256/171 170/255/170 172/260/172
f 172/260/172 170/255/170 58/259/58
f 171/256/171 172/260/172 93/261/93
f 172/260/172 58/259/58 95/262/95
f 172/260/172 95/262/95 93/261/93
f 173/263/149 148/264/148 149/265/149
f 173/263/149 149/265/149 158/266/158
f 148/264/148 173/263/149 174/267/173
f 174/267/173 173/263/149 158/266/158
f 148/264/148 174/267/173 150/268/150
f 174/267/173 158/266/158 163/269/163
f 163/269/163 158/266/158 159/270/159
f 150/268/150 174/267/173 175/271/174
f 174/267/173 163/269/163 176/272/175
f 174/267/173 176/272/175 175/271/174
f 176/272/175 163/269/163 177/273/176
f 176/272/175 177/273/176 178/274/177
f 176/272/175 178/274/177 175/271/174
f 175/271/174 178/274/177 179/275/178
f 150/268/150 175/271/174 153/276/153
f 150/268/150 153/276/153 151/277/151
f 175/271/174 179/275/178 180/278/179
f 175/271/174 180/278/179 153/276/153
f 180/278/179 179/275/178 181/279/180
f 180/278/179 181/279/180 182/280/181
f 153/276/153 180/278/179 155/281/155
f 153/276/153 155/281/155 152/282/152
f 180/278/179 182/280/181 183/283/182
f 180/278/179 183/283/182 155/281/155
f 183/283/182 182/280/181 184/284/183
f 183/283/182 184/284/183 123/285/123
f 123/285/123 184/284/183 121/286/121
f 183/283/182 123/285/123 185/287/184
f 183/283/182 185/287/184 155/281/155
f 185/287/184 123/285/123 122/288/122
f 155/281/155 185/287/184 186/289/185
f 186/289/185 185/287/184 122/288/122
f 155/281/155 186/289/185 154/290/154
f 154/290/154 186/289/185 122/288/122
f 187/291/186 79/292/79 77/293/77
f 79/292/79 187/291/186 84/294/84
f 187/291/186 77/293/77 78/295/78
f 80/296/80 126/297/126 78/295/78
f 78/295/78 126/297/126 188/298/187
f 78/295/78 188/298/187 187/291/186
f 187/291/186 188/298/187 189/299/188
f 189/299/188 188/298/187 190/300/189
f 189/299/188 190/300/189 191/301/190
f 187/291/186 189/299/188 192/302/191
f 192/302/191 189/299/188 191/301/190
f 187/291/186 192/302/191 193/303/192
f 187/291/186 193/303/192 84/294/84
f 192/302/191 191/301/190 194/304/193
f 194/304/193 191/301/190 195/305/194
f 193/303/192 192/302/191 196/306/195
f 196/306/195 192/302/191 194/304/193
f 84/294/84 193/303/192 90/307/90
f 84/294/84 90/307/90 85/308/85
f 90/307/90 193/303/192 197/309/196
f 197/309/196 193/303/192 196/306/195
f 90/307/90 197/309/196 198/310/197
f 198/310/197 197/309/196 196/306/195
f 90/307/90 198/310/197 91/311/91
f 198/310/197 196/306/195 199/312/198
f 199/312/198 196/306/195 200/313/199
f 200/313/199 196/306/195 194/304/193
f 200/313/199 194/304/193 201/314/200
f 202/315/201 195/316/194 191/317/190
f 202/315/201 191/317/190 190/318/189
f 195/316/194 202/315/201 203/319/202
f 203/319/202 202/315/201 204/320/203
f 195/316/194 203/319/202 201/321/200
f 195/316/194 201/321/200 194/322/193
f 201/321/200 203/319/202 205/323/204
f 201/321/200 205/323/204 206/324/205
f 201/321/200 206/324/205 200/325/199
f 204/320/203 202/315/201 207/326/206
f 207/326/206 202/315/201 190/318/189
f 204/320/203 207/326/206 208/327/207
f 204/320/203 208/327/207 209/328/208
f 207/326/206 190/318/189 129/329/129
f 207/326/206 129/329/129 208/327/207
f 129/329/129 190/318/189 188/330/187
f 209/328/208 208/327/207 210/331/209
f 210/331/209 208/327/207 129/329/129
f 209/328/208 210/331/209 211/332/210
f 210/331/209 129/329/129 130/333/130
f 129/329/129 188/330/187 125/334/125
f 125/334/125 188/330/187 126/335/126
f 130/336/130 136/337/136 210/338/209
f 210/338/209 136/337/136 211/339/210
f 211/339/210 136/337/136 212/340/211
f 212/340/211 136/337/136 137/341/137
f 211/339/210 212/340/211 209/342/208
f 209/342/208 212/340/211 204/343/203
f 204/343/203 212/340/211 213/344/212
f 204/343/203 213/344/212 203/345/202
f 203/345/202 213/344/212 214/346/213
f 203/345/202 214/346/213 205/347/204
f 212/348/211 137/349/137 215/350/214
f 215/350/214 137/349/137 141/351/141
f 212/348/211 215/350/214 213/352/212
f 213/352/212 215/350/214 216/353/215
f 213/354/212 217/355/216 214/356/213
f 213/357/212 216/358/215 217/359/216
f 217/359/216 216/358/215 218/360/217
f 215/361/214 141/362/141 216/358/215
f 216/358/215 141/362/141 218/360/217
f 140/363/140 219/364/218 141/362/141
f 141/362/141 219/364/218 220/365/219
f 141/362/141 220/365/219 218/360/217
f 217/359/216 218/360/217 221/366/220
f 217/359/216 221/366/220 214/367/213
f 214/367/213 221/366/220 205/368/204
f 218/360/217 220/365/219 222/369/221
f 218/360/217 222/369/221 221/366/220
f 222/369/221 220/365/219 223/370/222
f 205/368/204 221/366/220 206/371/205
f 222/369/221 223/370/222 224/372/223
f 222/369/221 224/372/223 221/366/220
f 224/372/223 223/370/222 225/373/224
f 206/371/205 221/366/220 226/374/225
f 226/374/225 221/366/220 224/372/223
f 206/371/205 226/374/225 200/375/199
f 200/375/199 226/374/225 227/376/226
f 227/376/226 226/374/225 224/372/223
f 227/376/226 224/372/223 225/373/224
f 227/376/226 225/373/224 228/377/227
f 227/376/226 228/377/227 229/378/228
f 93/379/93 92/380/92 171/381/171
f 171/381/171 92/380/92 168/382/168
f 168/382/168 92/380/92 89/383/89
f 168/382/168 89/383/89 230/384/229
f 230/384/229 89/383/89 91/385/91
f 230/384/229 91/385/91 231/386/230
f 231/386/230 91/385/91 198/387/197
f 231/386/230 198/387/197 199/388/198
f 230/384/229 231/386/230 232/389/231
f 232/389/231 231/386/230 199/388/198
f 230/384/229 232/389/231 233/390/232
f 230/384/229 233/390/232 234/391/233
f 234/391/233 233/390/232 235/392/234
f 233/390/232 232/389/231 229/393/228
f 233/390/232 229/393/228 235/392/234
f 229/393/228 232/389/231 199/388/198
f 235/392/234 229/393/228 228/394/227
f 229/393/228 199/388/198 200/395/199
f 229/393/228 200/395/199 227/396/226
f 168/397/168 167/398/167 171/399/171
f 165/400/165 168/401/168 236/402/235
f 165/400/165 236/402/235 164/403/164
f 236/402/235 168/401/168 234/404/233
f 234/404/233 168/401/168 230/405/229
f 164/403/164 236/402/235 237/406/236
f 237/406/236 236/402/235 234/404/233
f 164/403/164 237/406/236 162/407/162
f 237/406/236 234/404/233 238/408/237
f 238/408/237 234/404/233 239/409/238
f 238/408/237 239/409/238 237/406/236
f 239/409/238 234/404/233 235/410/234
f 162/407/162 237/406/236 240/411/239
f 240/411/239 237/406/236 239/409/238
f 162/407/162 240/411/239 163/412/163
f 239/409/238 235/410/234 241/413/240
f 239/409/238 241/413/240 240/411/239
f 241/413/240 235/410/234 228/414/227
f 240/411/239 241/413/240 242/415/241
f 243/416/242 242/417/241 241/418/240
f 243/416/242 241/418/240 228/419/227
f 243/416/242 228/419/227 225/420/224
f 243/416/242 225/420/224 223/421/222
f 242/417/241 243/416/242 244/422/243
f 243/416/242 223/421/222 245/423/244
f 245/423/244 223/421/222 220/424/219
f 243/416/242 245/423/244 244/422/243
f 242/417/241 244/422/243 240/425/239
f 240/425/239 244/422/243 177/426/176
f 240/425/239 177/426/176 163/427/163
f 244/422/243 245/423/244 246/428/245
f 246/428/245 245/423/244 181/429/180
f 177/426/176 244/422/243 247/430/246
f 247/430/246 244/422/243 246/428/245
f 177/426/176 247/430/246 178/431/177
f 246/428/245 181/429/180 179/432/178
f 178/431/177 247/430/246 179/432/178
f 247/430/246 246/428/245 248/433/247
f 247/430/246 248/433/247 179/432/178
f 179/432/178 248/433/247 246/428/245
f 140/434/140 113/435/113 121/436/121
f 140/434/140 121/436/121 219/437/218
f 219/437/218 121/436/121 249/438/248
f 249/438/248 121/436/121 184/439/183
f 219/437/218 249/438/248 250/440/249
f 219/437/218 250/440/249 220/441/219
f 220/441/219 250/440/249 245/442/244
f 250/440/249 249/438/248 251/443/250
f 251/443/250 249/438/248 184/439/183
f 245/442/244 250/440/249 252/444/251
f 252/444/251 250/440/249 251/443/250
f 252/444/251 251/443/250 184/439/183
f 245/442/244 252/444/251 181/445/180
f 252/444/251 184/439/183 182/446/181
f 252/444/251 182/446/181 181/445/180
