# Blender 4.4.1
# www.blender.org
mtllib playerMachineGun.mtl
o playerMachineGun
v -0.160000 -0.300000 -0.390000
v -0.160000 0.900000 -0.390000
v -0.160000 -0.300000 -0.810000
v -0.160000 0.900000 -0.810000
v 0.160000 -0.300000 -0.390000
v 0.160000 0.900000 -0.390000
v 0.160000 -0.300000 -0.810000
v 0.160000 0.900000 -0.810000
v -0.100000 -0.200000 0.000000
v -0.100000 0.200000 0.000000
v -0.100000 -0.200000 -0.400000
v -0.100000 0.200000 -0.400000
v 0.100000 -0.200000 0.000000
v 0.100000 0.200000 0.000000
v 0.100000 -0.200000 -0.400000
v 0.100000 0.200000 -0.400000
v -0.120000 -0.250000 -0.760000
v -0.120000 0.650000 -0.760000
v -0.120000 -0.250000 -0.880000
v -0.120000 0.650000 -0.880000
v 0.120000 -0.250000 -0.760000
v 0.120000 0.650000 -0.760000
v 0.120000 -0.250000 -0.880000
v 0.120000 0.650000 -0.880000
v 0.000000 -0.500000 -0.900000
v 0.000000 -0.500000 -0.300000
v 0.050000 -0.513397 -0.900000
v 0.050000 -0.513398 -0.300000
v 0.086603 -0.550000 -0.900000
v 0.086603 -0.550000 -0.300000
v 0.100000 -0.600000 -0.900000
v 0.100000 -0.600000 -0.300000
v 0.086603 -0.650000 -0.900000
v 0.086603 -0.650000 -0.300000
v 0.050000 -0.686603 -0.900000
v 0.050000 -0.686603 -0.300000
v 0.000000 -0.700000 -0.900000
v 0.000000 -0.700000 -0.300000
v -0.050000 -0.686603 -0.900000
v -0.050000 -0.686603 -0.300000
v -0.086603 -0.650000 -0.900000
v -0.086603 -0.650000 -0.300000
v -0.100000 -0.600000 -0.900000
v -0.100000 -0.600000 -0.300000
v -0.086603 -0.550000 -0.900000
v -0.086603 -0.550000 -0.300000
v -0.050000 -0.513397 -0.900000
v -0.050000 -0.513398 -0.300000
v 0.000000 -1.750000 -1.500000
v 0.000000 -1.750000 0.300000
v 0.035355 -1.764645 -1.500000
v 0.035355 -1.764645 0.300000
v 0.050000 -1.800000 -1.500000
v 0.050000 -1.800000 0.300000
v 0.035355 -1.835355 -1.500000
v 0.035355 -1.835355 0.300000
v 0.000000 -1.850000 -1.500000
v 0.000000 -1.850000 0.300000
v -0.035355 -1.835355 -1.500000
v -0.035355 -1.835355 0.300000
v -0.050000 -1.800000 -1.500000
v -0.050000 -1.800000 0.300000
v -0.035355 -1.764645 -1.500000
v -0.035355 -1.764645 0.300000
v 0.000000 -2.690000 -0.675000
v 0.000000 -2.690000 -0.525000
v 0.042426 -2.707574 -0.675000
v 0.042426 -2.707574 -0.525000
v 0.060000 -2.750000 -0.675000
v 0.060000 -2.750000 -0.525000
v 0.042426 -2.792426 -0.675000
v 0.042426 -2.792426 -0.525000
v 0.000000 -2.810000 -0.675000
v 0.000000 -2.810000 -0.525000
v -0.042426 -2.792426 -0.675000
v -0.042426 -2.792426 -0.525000
v -0.060000 -2.750000 -0.675000
v -0.060000 -2.750000 -0.525000
v -0.042426 -2.707574 -0.675000
v -0.042426 -2.707574 -0.525000
v -0.500000 0.100000 -0.275000
v -0.500000 0.700000 -0.275000
v -0.500000 0.100000 -0.725000
v -0.500000 0.700000 -0.725000
v -0.200000 0.100000 -0.275000
v -0.200000 0.700000 -0.275000
v -0.200000 0.100000 -0.725000
v -0.200000 0.700000 -0.725000
v -0.225000 0.920000 -0.630000
v 0.225000 0.920000 -0.630000
v -0.225000 0.898787 -0.621213
v 0.225000 0.898787 -0.621213
v -0.225000 0.890000 -0.600000
v 0.225000 0.890000 -0.600000
v -0.225000 0.898787 -0.578787
v 0.225000 0.898787 -0.578787
v -0.225000 0.920000 -0.570000
v 0.225000 0.920000 -0.570000
v -0.225000 0.941213 -0.578787
v 0.225000 0.941213 -0.578787
v -0.225000 0.950000 -0.600000
v 0.225000 0.950000 -0.600000
v -0.225000 0.941213 -0.621213
v 0.225000 0.941213 -0.621213
v -0.200000 1.010000 -0.775000
v -0.200000 1.010000 -0.425000
v -0.178787 1.001213 -0.775000
v -0.178787 1.001213 -0.425000
v -0.170000 0.980000 -0.775000
v -0.170000 0.980000 -0.425000
v -0.178787 0.958787 -0.775000
v -0.178787 0.958787 -0.425000
v -0.200000 0.950000 -0.775000
v -0.200000 0.950000 -0.425000
v -0.221213 0.958787 -0.775000
v -0.221213 0.958787 -0.425000
v -0.230000 0.980000 -0.775000
v -0.230000 0.980000 -0.425000
v -0.221213 1.001213 -0.775000
v -0.221213 1.001213 -0.425000
v 0.200000 1.010000 -0.775000
v 0.200000 1.010000 -0.425000
v 0.221213 1.001213 -0.775000
v 0.221213 1.001213 -0.425000
v 0.230000 0.980000 -0.775000
v 0.230000 0.980000 -0.425000
v 0.221213 0.958787 -0.775000
v 0.221213 0.958787 -0.425000
v 0.200000 0.950000 -0.775000
v 0.200000 0.950000 -0.425000
v 0.178787 0.958787 -0.775000
v 0.178787 0.958787 -0.425000
v 0.170000 0.980000 -0.775000
v 0.170000 0.980000 -0.425000
v 0.178787 1.001213 -0.775000
v 0.178787 1.001213 -0.425000
vn -1.0000 -0.0000 -0.0000
vn -0.0000 -0.0000 -1.0000
vn 1.0000 -0.0000 -0.0000
vn -0.0000 -0.0000 1.0000
vn -0.0000 -1.0000 -0.0000
vn -0.0000 1.0000 -0.0000
vn 0.2588 0.9659 -0.0000
vn 0.7071 0.7071 -0.0000
vn 0.9659 0.2588 -0.0000
vn 0.9659 -0.2588 -0.0000
vn 0.7071 -0.7071 -0.0000
vn 0.2588 -0.9659 -0.0000
vn -0.2588 -0.9659 -0.0000
vn -0.7071 -0.7071 -0.0000
vn -0.9659 -0.2588 -0.0000
vn -0.9659 0.2588 -0.0000
vn -0.7071 0.7071 -0.0000
vn -0.2588 0.9659 -0.0000
vn 0.3827 0.9239 -0.0000
vn 0.9239 0.3827 -0.0000
vn 0.9239 -0.3827 -0.0000
vn 0.3827 -0.9239 -0.0000
vn -0.3827 -0.9239 -0.0000
vn -0.9239 -0.3827 -0.0000
vn -0.9239 0.3827 -0.0000
vn -0.3827 0.9239 -0.0000
vn -0.0000 -0.3827 -0.9239
vn -0.0000 -0.9239 -0.3827
vn -0.0000 -0.9239 0.3827
vn -0.0000 -0.3827 0.9239
vn -0.0000 0.3827 0.9239
vn -0.0000 0.9239 0.3827
vn -0.0000 0.9239 -0.3827
vn -0.0000 0.3827 -0.9239
vt 0.375000 0.000000
vt 0.625000 0.000000
vt 0.625000 0.250000
vt 0.375000 0.250000
vt 0.625000 0.500000
vt 0.375000 0.500000
vt 0.625000 0.750000
vt 0.375000 0.750000
vt 0.625000 1.000000
vt 0.375000 1.000000
vt 0.125000 0.500000
vt 0.125000 0.750000
vt 0.875000 0.500000
vt 0.875000 0.750000
vt 1.000000 0.500000
vt 1.000000 1.000000
vt 0.916667 1.000000
vt 0.916667 0.500000
vt 0.833333 1.000000
vt 0.833333 0.500000
vt 0.750000 1.000000
vt 0.750000 0.500000
vt 0.666667 1.000000
vt 0.666667 0.500000
vt 0.583333 1.000000
vt 0.583333 0.500000
vt 0.500000 1.000000
vt 0.500000 0.500000
vt 0.416667 1.000000
vt 0.416667 0.500000
vt 0.333333 1.000000
vt 0.333333 0.500000
vt 0.250000 1.000000
vt 0.250000 0.500000
vt 0.166667 1.000000
vt 0.166667 0.500000
vt 0.370000 0.457846
vt 0.250000 0.490000
vt 0.130000 0.457846
vt 0.042154 0.370000
vt 0.010000 0.250000
vt 0.042154 0.130000
vt 0.130000 0.042154
vt 0.250000 0.010000
vt 0.370000 0.042154
vt 0.457846 0.130000
vt 0.490000 0.250000
vt 0.457846 0.370000
vt 0.083333 1.000000
vt 0.083333 0.500000
vt 0.000000 1.000000
vt 0.000000 0.500000
vt 0.750000 0.490000
vt 0.870000 0.457846
vt 0.957846 0.370000
vt 0.990000 0.250000
vt 0.957846 0.130000
vt 0.870000 0.042154
vt 0.750000 0.010000
vt 0.630000 0.042154
vt 0.542154 0.130000
vt 0.510000 0.250000
vt 0.542154 0.370000
vt 0.630000 0.457846
vt 0.875000 1.000000
vt 0.750000 1.000000
vt 0.750000 0.500000
vt 0.500000 1.000000
vt 0.500000 0.500000
vt 0.250000 1.000000
vt 0.250000 0.500000
vt 0.419706 0.419706
vt 0.080294 0.419706
vt 0.080294 0.080294
vt 0.419706 0.080294
vt 0.125000 1.000000
vt 0.000000 1.000000
vt 0.000000 0.500000
vt 0.919706 0.419706
vt 0.919706 0.080294
vt 0.580294 0.080294
vt 0.580294 0.419706
vt 0.080294 0.419706
vt 0.080294 0.080294
vt 0.419706 0.080294
vt 0.919706 0.080294
vt 0.580294 0.080294
s 0
usemtl Mtl_DarkMetal
f 1/1/1 2/2/1 4/3/1 3/4/1
f 3/4/2 4/3/2 8/5/2 7/6/2
f 7/6/3 8/5/3 6/7/3 5/8/3
f 5/8/4 6/7/4 2/9/4 1/10/4
f 3/11/5 7/6/5 5/8/5 1/12/5
f 8/5/6 4/13/6 2/14/6 6/7/6
f 9/1/1 10/2/1 12/3/1 11/4/1
f 11/4/2 12/3/2 16/5/2 15/6/2
f 15/6/3 16/5/3 14/7/3 13/8/3
f 13/8/4 14/7/4 10/9/4 9/10/4
f 11/11/5 15/6/5 13/8/5 9/12/5
f 16/5/6 12/13/6 10/14/6 14/7/6
f 17/1/1 18/2/1 20/3/1 19/4/1
f 19/4/2 20/3/2 24/5/2 23/6/2
f 23/6/3 24/5/3 22/7/3 21/8/3
f 21/8/4 22/7/4 18/9/4 17/10/4
f 19/11/5 23/6/5 21/8/5 17/12/5
f 24/5/6 20/13/6 18/14/6 22/7/6
f 25/15/7 26/16/7 28/17/7 27/18/7
f 27/18/8 28/17/8 30/19/8 29/20/8
f 29/20/9 30/19/9 32/21/9 31/22/9
f 31/22/10 32/21/10 34/23/10 33/24/10
f 33/24/11 34/23/11 36/25/11 35/26/11
f 35/26/12 36/25/12 38/27/12 37/28/12
f 37/28/13 38/27/13 40/29/13 39/30/13
f 39/30/14 40/29/14 42/31/14 41/32/14
f 41/32/15 42/31/15 44/33/15 43/34/15
f 43/34/16 44/33/16 46/35/16 45/36/16
f 28/37/4 26/38/4 48/39/4 46/40/4 44/41/4 42/42/4 40/43/4 38/44/4 36/45/4 34/46/4 32/47/4 30/48/4
f 45/36/17 46/35/17 48/49/17 47/50/17
f 47/50/18 48/49/18 26/51/18 25/52/18
f 25/53/2 27/54/2 29/55/2 31/56/2 33/57/2 35/58/2 37/59/2 39/60/2 41/61/2 43/62/2 45/63/2 47/64/2
f 65/15/19 66/16/19 68/65/19 67/13/19
f 67/13/20 68/65/20 70/66/20 69/67/20
f 69/67/21 70/66/21 72/9/21 71/5/21
f 71/5/22 72/9/22 74/68/22 73/69/22
f 73/69/23 74/68/23 76/10/23 75/6/23
f 75/6/24 76/10/24 78/70/24 77/71/24
f 68/72/4 66/38/4 80/83/4 78/41/4 76/84/4 74/44/4 72/85/4 70/47/4
f 77/71/25 78/70/25 80/76/25 79/11/25
f 79/11/26 80/76/26 66/77/26 65/78/26
f 65/53/2 67/79/2 69/56/2 71/86/2 73/59/2 75/87/2 77/62/2 79/82/2
f 89/15/27 90/16/27 92/65/27 91/13/27
f 91/13/28 92/65/28 94/66/28 93/67/28
f 93/67/29 94/66/29 96/9/29 95/5/29
f 95/5/30 96/9/30 98/68/30 97/69/30
f 97/69/31 98/68/31 100/10/31 99/6/31
f 99/6/32 100/10/32 102/70/32 101/71/32
f 92/72/3 90/38/3 104/83/3 102/41/3 100/84/3 98/44/3 96/85/3 94/47/3
f 101/71/33 102/70/33 104/76/33 103/11/33
f 103/11/34 104/76/34 90/77/34 89/78/34
f 89/53/1 91/79/1 93/56/1 95/86/1 97/59/1 99/87/1 101/62/1 103/82/1
usemtl Mtl_LightMetal
f 49/15/19 50/16/19 52/65/19 51/13/19
f 51/13/20 52/65/20 54/66/20 53/67/20
f 53/67/21 54/66/21 56/9/21 55/5/21
f 55/5/22 56/9/22 58/68/22 57/69/22
f 57/69/23 58/68/23 60/10/23 59/6/23
f 59/6/24 60/10/24 62/70/24 61/71/24
f 52/72/4 50/38/4 64/73/4 62/41/4 60/74/4 58/44/4 56/75/4 54/47/4
f 61/71/25 62/70/25 64/76/25 63/11/25
f 63/11/26 64/76/26 50/77/26 49/78/26
f 49/53/2 51/79/2 53/56/2 55/80/2 57/59/2 59/81/2 61/62/2 63/82/2
f 105/15/19 106/16/19 108/65/19 107/13/19
f 107/13/20 108/65/20 110/66/20 109/67/20
f 109/67/21 110/66/21 112/9/21 111/5/21
f 111/5/22 112/9/22 114/68/22 113/69/22
f 113/69/23 114/68/23 116/10/23 115/6/23
f 115/6/24 116/10/24 118/70/24 117/71/24
f 108/72/4 106/38/4 120/83/4 118/41/4 116/84/4 114/44/4 112/85/4 110/47/4
f 117/71/25 118/70/25 120/76/25 119/11/25
f 119/11/26 120/76/26 106/77/26 105/78/26
f 105/53/2 107/79/2 109/56/2 111/86/2 113/59/2 115/87/2 117/62/2 119/82/2
f 121/15/19 122/16/19 124/65/19 123/13/19
f 123/13/20 124/65/20 126/66/20 125/67/20
f 125/67/21 126/66/21 128/9/21 127/5/21
f 127/5/22 128/9/22 130/68/22 129/69/22
f 129/69/23 130/68/23 132/10/23 131/6/23
f 131/6/24 132/10/24 134/70/24 133/71/24
f 124/72/4 122/38/4 136/83/4 134/41/4 132/84/4 130/44/4 128/85/4 126/47/4
f 133/71/25 134/70/25 136/76/25 135/11/25
f 135/11/26 136/76/26 122/77/26 121/78/26
f 121/53/2 123/79/2 125/56/2 127/86/2 129/59/2 131/87/2 133/62/2 135/82/2
usemtl Mtl_Accent
f 81/1/1 82/2/1 84/3/1 83/4/1
f 83/4/2 84/3/2 88/5/2 87/6/2
f 87/6/3 88/5/3 86/7/3 85/8/3
f 85/8/4 86/7/4 82/9/4 81/10/4
f 83/11/5 87/6/5 85/8/5 81/12/5
f 88/5/6 84/13/6 82/14/6 86/7/6
