# Blender 4.4.3
# www.blender.org
mtllib playerCasing.mtl
o 円柱
v 0.000000 0.050000 -0.150000
v 0.000000 0.050000 0.150000
v 0.009755 0.049039 -0.150000
v 0.009755 0.049039 0.150000
v 0.019134 0.046194 -0.150000
v 0.019134 0.046194 0.150000
v 0.027779 0.041573 -0.150000
v 0.027779 0.041573 0.150000
v 0.035355 0.035355 -0.150000
v 0.035355 0.035355 0.150000
v 0.041573 0.027779 -0.150000
v 0.041573 0.027779 0.150000
v 0.046194 0.019134 -0.150000
v 0.046194 0.019134 0.150000
v 0.049039 0.009755 -0.150000
v 0.049039 0.009755 0.150000
v 0.050000 0.000000 -0.150000
v 0.050000 -0.000000 0.150000
v 0.049039 -0.009755 -0.150000
v 0.049039 -0.009755 0.150000
v 0.046194 -0.019134 -0.150000
v 0.046194 -0.019134 0.150000
v 0.041573 -0.027779 -0.150000
v 0.041573 -0.027779 0.150000
v 0.035355 -0.035355 -0.150000
v 0.035355 -0.035355 0.150000
v 0.027779 -0.041573 -0.150000
v 0.027779 -0.041573 0.150000
v 0.019134 -0.046194 -0.150000
v 0.019134 -0.046194 0.150000
v 0.009755 -0.049039 -0.150000
v 0.009755 -0.049039 0.150000
v 0.000000 -0.050000 -0.150000
v 0.000000 -0.050000 0.150000
v -0.009755 -0.049039 -0.150000
v -0.009755 -0.049039 0.150000
v -0.019134 -0.046194 -0.150000
v -0.019134 -0.046194 0.150000
v -0.027779 -0.041573 -0.150000
v -0.027779 -0.041573 0.150000
v -0.035355 -0.035355 -0.150000
v -0.035355 -0.035355 0.150000
v -0.041573 -0.027779 -0.150000
v -0.041573 -0.027779 0.150000
v -0.046194 -0.019134 -0.150000
v -0.046194 -0.019134 0.150000
v -0.049039 -0.009755 -0.150000
v -0.049039 -0.009755 0.150000
v -0.050000 0.000000 -0.150000
v -0.050000 -0.000000 0.150000
v -0.049039 0.009755 -0.150000
v -0.049039 0.009755 0.150000
v -0.046194 0.019134 -0.150000
v -0.046194 0.019134 0.150000
v -0.041573 0.027779 -0.150000
v -0.041573 0.027779 0.150000
v -0.035355 0.035355 -0.150000
v -0.035355 0.035355 0.150000
v -0.027779 0.041573 -0.150000
v -0.027779 0.041573 0.150000
v -0.019134 0.046194 -0.150000
v -0.019134 0.046194 0.150000
v -0.009755 0.049039 -0.150000
v -0.009755 0.049039 0.150000
v 0.000000 0.050846 0.101397
v 0.009920 0.049869 0.101397
v 0.019458 0.046975 0.101397
v 0.028248 0.042277 0.101397
v 0.035953 0.035953 0.101397
v 0.042277 0.028248 0.101397
v 0.046975 0.019458 0.101397
v 0.049869 0.009920 0.101397
v 0.050846 -0.000000 0.101397
v 0.049869 -0.009920 0.101397
v 0.046975 -0.019458 0.101397
v 0.042277 -0.028248 0.101397
v 0.035953 -0.035953 0.101397
v 0.028248 -0.042277 0.101397
v 0.019458 -0.046975 0.101397
v 0.009920 -0.049869 0.101397
v -0.000000 -0.050846 0.101397
v -0.009920 -0.049869 0.101397
v -0.019458 -0.046975 0.101397
v -0.028248 -0.042277 0.101397
v -0.035953 -0.035953 0.101397
v -0.042277 -0.028248 0.101397
v -0.046975 -0.019458 0.101397
v -0.049869 -0.009920 0.101397
v -0.050846 -0.000000 0.101397
v -0.049869 0.009920 0.101397
v -0.046975 0.019458 0.101397
v -0.042277 0.028248 0.101397
v -0.035953 0.035953 0.101397
v -0.028248 0.042277 0.101397
v -0.019458 0.046975 0.101397
v -0.009920 0.049869 0.101397
v 0.011450 0.057561 0.151089
v -0.000000 0.058688 0.151089
v -0.000000 0.058688 0.136378
v 0.022459 0.054221 0.151089
v 0.032605 0.048797 0.151089
v 0.041499 0.041499 0.151089
v 0.048797 0.032605 0.151089
v 0.054221 0.022459 0.151089
v 0.057561 0.011450 0.151089
v 0.058688 -0.000000 0.151089
v 0.057561 -0.011450 0.151089
v 0.054221 -0.022459 0.151089
v 0.048797 -0.032605 0.151089
v 0.041499 -0.041499 0.151089
v 0.032605 -0.048797 0.151089
v 0.022459 -0.054221 0.151089
v 0.011450 -0.057561 0.151089
v -0.000000 -0.058688 0.151089
v -0.011450 -0.057561 0.151089
v -0.022459 -0.054221 0.151089
v -0.032605 -0.048797 0.151089
v -0.041499 -0.041499 0.151089
v -0.048797 -0.032605 0.151089
v -0.054221 -0.022459 0.151089
v -0.057561 -0.011450 0.151089
v -0.058688 -0.000000 0.151089
v -0.057561 0.011450 0.151089
v -0.054221 0.022459 0.151089
v -0.048797 0.032605 0.151089
v -0.041499 0.041499 0.151089
v -0.032605 0.048797 0.151089
v -0.022459 0.054221 0.151089
v -0.011450 0.057561 0.151089
v 0.011450 0.057561 0.136378
v 0.022459 0.054221 0.136378
v 0.032605 0.048797 0.136378
v 0.041499 0.041499 0.136378
v 0.048797 0.032605 0.136378
v 0.054221 0.022459 0.136378
v 0.057561 0.011450 0.136378
v 0.058688 -0.000000 0.136378
v 0.057561 -0.011450 0.136378
v 0.054221 -0.022459 0.136378
v 0.048797 -0.032605 0.136378
v 0.041499 -0.041499 0.136378
v 0.032605 -0.048797 0.136378
v 0.022459 -0.054221 0.136378
v 0.011450 -0.057561 0.136378
v -0.000000 -0.058688 0.136378
v -0.011450 -0.057561 0.136378
v -0.022459 -0.054221 0.136378
v -0.032605 -0.048797 0.136378
v -0.041499 -0.041499 0.136378
v -0.048797 -0.032605 0.136378
v -0.054221 -0.022459 0.136378
v -0.057561 -0.011450 0.136378
v -0.058688 -0.000000 0.136378
v -0.057561 0.011450 0.136378
v -0.054221 0.022459 0.136378
v -0.048797 0.032605 0.136378
v -0.041499 0.041499 0.136378
v -0.032605 0.048797 0.136378
v -0.022459 0.054221 0.136378
v -0.011450 0.057561 0.136378
vn 0.0363 0.1196 0.9922
vn -0.6192 0.7545 -0.2178
vn -0.1243 0.0122 0.9922
vn 0.4601 0.8608 -0.2178
vn -0.4601 0.8608 -0.2178
vn 0.6192 0.7545 -0.2178
vn 0.1196 -0.0363 0.9922
vn -0.2833 0.9340 -0.2178
vn 0.7545 0.6192 -0.2178
vn 0.0122 0.1243 0.9922
vn -0.0957 0.9713 -0.2178
vn -0.1243 -0.0122 0.9922
vn 0.8608 0.4601 -0.2178
vn 0.9340 0.2833 -0.2178
vn 0.1243 -0.0122 0.9922
vn 0.9713 0.0957 -0.2178
vn -0.0122 0.1243 0.9922
vn -0.1196 -0.0363 0.9922
vn 0.9713 -0.0957 -0.2178
vn 0.9340 -0.2833 -0.2178
vn 0.1243 0.0122 0.9922
vn 0.8608 -0.4601 -0.2178
vn -0.0363 0.1196 0.9922
vn -0.1102 -0.0589 0.9922
vn 0.7545 -0.6192 -0.2178
vn 0.0122 -0.1244 0.9922
vn 0.6192 -0.7545 -0.2178
vn 0.1196 0.0363 0.9922
vn 0.4601 -0.8608 -0.2178
vn -0.0589 0.1102 0.9922
vn -0.0000 -0.0000 1.0000
vn 0.2833 -0.9340 -0.2178
vn -0.0966 -0.0793 0.9922
vn -0.0000 -0.0000 -1.0000
vn -0.0980 0.9952 -0.0033
vn -0.2903 0.9569 -0.0033
vn -0.4714 0.8819 -0.0033
vn -0.6344 0.7730 -0.0033
vn -0.7730 0.6344 -0.0033
vn -0.8819 0.4714 -0.0033
vn -0.9569 0.2903 -0.0033
vn -0.9952 0.0980 -0.0033
vn -0.9952 -0.0980 -0.0033
vn -0.9569 -0.2903 -0.0033
vn -0.8819 -0.4714 -0.0033
vn -0.7730 -0.6344 -0.0033
vn -0.6344 -0.7730 -0.0033
vn -0.4714 -0.8819 -0.0033
vn -0.2903 -0.9569 -0.0033
vn -0.0980 -0.9952 -0.0033
vn 0.0980 -0.9952 -0.0033
vn 0.2903 -0.9569 -0.0033
vn 0.4714 -0.8819 -0.0033
vn 0.6344 -0.7730 -0.0033
vn 0.7730 -0.6344 -0.0033
vn 0.8819 -0.4714 -0.0033
vn 0.9569 -0.2903 -0.0033
vn 0.9952 -0.0980 -0.0033
vn 0.9952 0.0980 -0.0033
vn 0.9569 0.2903 -0.0033
vn 0.8819 0.4714 -0.0033
vn 0.7730 0.6344 -0.0033
vn 0.6344 0.7730 -0.0033
vn 0.4714 0.8819 -0.0033
vn 0.2903 0.9569 -0.0033
vn 0.0980 0.9952 -0.0033
vn 0.0980 0.9952 -0.0000
vn 0.2903 0.9569 -0.0000
vn 0.4714 0.8819 -0.0000
vn 0.6344 0.7730 -0.0000
vn 0.7730 0.6344 -0.0000
vn 0.8819 0.4714 -0.0000
vn 0.9569 0.2903 -0.0000
vn 0.9952 0.0980 -0.0000
vn 0.9952 -0.0980 -0.0000
vn 0.9569 -0.2903 -0.0000
vn 0.8819 -0.4714 -0.0000
vn 0.7730 -0.6344 -0.0000
vn 0.6344 -0.7730 -0.0000
vn 0.4714 -0.8819 -0.0000
vn 0.2903 -0.9569 -0.0000
vn 0.0980 -0.9952 -0.0000
vn -0.0980 -0.9952 -0.0000
vn -0.2903 -0.9569 -0.0000
vn -0.4714 -0.8819 -0.0000
vn -0.6344 -0.7730 -0.0000
vn -0.7730 -0.6344 -0.0000
vn -0.8819 -0.4714 -0.0000
vn -0.9569 -0.2903 -0.0000
vn -0.9952 -0.0980 -0.0000
vn -0.9952 0.0980 -0.0000
vn -0.9569 0.2903 -0.0000
vn -0.8819 0.4714 -0.0000
vn -0.7730 0.6344 -0.0000
vn -0.6344 0.7730 -0.0000
vn -0.4714 0.8819 -0.0000
vn -0.2903 0.9569 -0.0000
vn -0.0980 0.9952 -0.0000
vn 0.2833 0.9340 -0.2178
vn -0.0122 -0.1243 0.9922
vn -0.7545 0.6192 -0.2178
vn 0.1102 -0.0589 0.9922
vn 0.0957 0.9713 -0.2178
vn -0.8608 0.4601 -0.2178
vn -0.1196 0.0363 0.9922
vn -0.9340 0.2833 -0.2178
vn 0.0589 0.1102 0.9922
vn -0.9713 0.0957 -0.2178
vn 0.0966 -0.0793 0.9922
vn -0.9713 -0.0957 -0.2178
vn -0.0363 -0.1196 0.9922
vn -0.1102 0.0589 0.9922
vn -0.9340 -0.2833 -0.2178
vn 0.0793 0.0966 0.9922
vn -0.8608 -0.4601 -0.2178
vn 0.0793 -0.0966 0.9922
vn -0.0589 -0.1102 0.9922
vn -0.7545 -0.6192 -0.2178
vn -0.0966 0.0793 0.9922
vn -0.6192 -0.7545 -0.2178
vn 0.0966 0.0793 0.9922
vn -0.4601 -0.8608 -0.2178
vn 0.0589 -0.1102 0.9922
vn -0.0793 -0.0966 0.9922
vn -0.2833 -0.9340 -0.2178
vn -0.0793 0.0966 0.9922
vn -0.0957 -0.9713 -0.2178
vn 0.1102 0.0589 0.9922
vn 0.0957 -0.9713 -0.2178
vn 0.0363 -0.1196 0.9922
vn 0.0122 0.1244 0.9922
vn -0.0122 0.1244 0.9922
vn 0.0122 -0.1243 0.9922
vt 0.158156 0.028269
vt 0.203178 0.014612
vt 0.125000 0.979111
vt 0.093750 0.979111
vt 0.490000 0.250000
vt 0.485388 0.203178
vt 0.906250 0.979111
vt 0.937500 0.979111
vt 0.062500 0.979111
vt 0.875000 0.979111
vt 0.028269 0.341844
vt 0.014612 0.296822
vt 0.031250 0.979111
vt 0.843750 0.979111
vt 0.250000 0.010000
vt 0.000000 0.979111
vt 0.485388 0.296822
vt 0.812500 0.979111
vt 0.781250 0.979111
vt 0.010000 0.250000
vt 0.750000 0.979111
vt 0.296822 0.014612
vt 0.471731 0.341844
vt 0.718750 0.979111
vt 0.687500 0.979111
vt 0.014612 0.203178
vt 0.656250 0.979111
vt 0.341844 0.028269
vt 0.449553 0.383337
vt 0.625000 0.979111
vt 0.250000 0.490000
vt 0.203178 0.485388
vt 0.593750 0.979111
vt 0.028269 0.158156
vt 0.562500 0.979111
vt 0.383337 0.050447
vt 0.471731 0.158156
vt 0.341844 0.471731
vt 0.531250 0.979111
vt 0.419706 0.419706
vt 0.796822 0.014612
vt 0.514612 0.203178
vt 0.703178 0.485388
vt 0.000000 0.500000
vt 0.031250 0.500000
vt 0.062500 0.500000
vt 0.093750 0.500000
vt 0.125000 0.500000
vt 0.156250 0.979111
vt 0.156250 0.500000
vt 0.187500 0.979111
vt 0.187500 0.500000
vt 0.218750 0.979111
vt 0.218750 0.500000
vt 0.250000 0.979111
vt 0.250000 0.500000
vt 0.281250 0.979111
vt 0.281250 0.500000
vt 0.312500 0.979111
vt 0.312500 0.500000
vt 0.343750 0.979111
vt 0.343750 0.500000
vt 0.375000 0.979111
vt 0.375000 0.500000
vt 0.406250 0.979111
vt 0.406250 0.500000
vt 0.437500 0.979111
vt 0.437500 0.500000
vt 0.468750 0.979111
vt 0.468750 0.500000
vt 0.500000 0.979111
vt 0.500000 0.500000
vt 0.531250 0.500000
vt 0.562500 0.500000
vt 0.593750 0.500000
vt 0.625000 0.500000
vt 0.656250 0.500000
vt 0.687500 0.500000
vt 0.718750 0.500000
vt 0.750000 0.500000
vt 0.781250 0.500000
vt 0.812500 0.500000
vt 0.843750 0.500000
vt 0.875000 0.500000
vt 0.906250 0.500000
vt 0.937500 0.500000
vt 0.968750 0.500000
vt 1.000000 0.979111
vt 1.000000 0.500000
vt 1.000000 1.000000
vt 0.968750 0.979111
vt 0.968750 1.000000
vt 0.937500 1.000000
vt 0.906250 1.000000
vt 0.875000 1.000000
vt 0.843750 1.000000
vt 0.812500 1.000000
vt 0.781250 1.000000
vt 0.750000 1.000000
vt 0.718750 1.000000
vt 0.687500 1.000000
vt 0.625000 1.000000
vt 0.593750 1.000000
vt 0.562500 1.000000
vt 0.531250 1.000000
vt 0.500000 1.000000
vt 0.468750 1.000000
vt 0.437500 1.000000
vt 0.406250 1.000000
vt 0.375000 1.000000
vt 0.343750 1.000000
vt 0.312500 1.000000
vt 0.281250 1.000000
vt 0.250000 1.000000
vt 0.218750 1.000000
vt 0.187500 1.000000
vt 0.156250 1.000000
vt 0.125000 1.000000
vt 0.093750 1.000000
vt 0.062500 1.000000
vt 0.031250 1.000000
vt 0.296822 0.485388
vt 0.050447 0.383337
vt 0.116663 0.050447
vt 0.080294 0.419706
vt 0.449553 0.116663
vt 0.080294 0.080294
vt 0.116663 0.449553
vt 0.383337 0.449553
vt 0.419706 0.080294
vt 0.050447 0.116663
vt 0.158156 0.471731
vt 0.750000 0.490000
vt 0.796822 0.485388
vt 0.841844 0.471731
vt 0.883337 0.449553
vt 0.919706 0.419706
vt 0.949553 0.383337
vt 0.971731 0.341844
vt 0.985388 0.296822
vt 0.990000 0.250000
vt 0.985388 0.203178
vt 0.971731 0.158156
vt 0.949553 0.116663
vt 0.919706 0.080294
vt 0.883337 0.050447
vt 0.841844 0.028269
vt 0.750000 0.010000
vt 0.703178 0.014612
vt 0.658156 0.028269
vt 0.616663 0.050447
vt 0.580294 0.080294
vt 0.550447 0.116663
vt 0.528269 0.158156
vt 0.510000 0.250000
vt 0.514612 0.296822
vt 0.528269 0.341844
vt 0.550447 0.383337
vt 0.580294 0.419706
vt 0.616663 0.449553
vt 0.658156 0.471731
vt 0.656250 1.000000
vt 0.000000 1.000000
s 0
f 38/1/1 115/2/1 36/2/1
f 93/3/2 158/4/2 94/4/2
f 18/5/3 107/6/3 106/5/3
f 68/7/4 131/8/4 132/7/4
f 94/4/5 159/9/5 95/9/5
f 68/7/6 133/10/6 69/10/6
f 54/11/7 123/12/7 52/12/7
f 95/9/8 160/13/8 96/13/8
f 70/14/9 133/10/9 134/14/9
f 36/2/10 114/15/10 34/15/10
f 96/13/11 99/16/11 65/16/11
f 16/17/12 106/5/12 105/17/12
f 70/14/13 135/18/13 71/18/13
f 71/18/14 136/19/14 72/19/14
f 52/12/15 122/20/15 50/20/15
f 72/19/16 137/21/16 73/21/16
f 34/15/17 113/22/17 32/22/17
f 14/23/18 105/17/18 104/23/18
f 73/21/19 138/24/19 74/24/19
f 75/25/20 138/24/20 139/25/20
f 50/20/21 121/26/21 48/26/21
f 75/25/22 140/27/22 76/27/22
f 30/28/23 113/22/23 112/28/23
f 14/23/24 103/29/24 12/29/24
f 76/27/25 141/30/25 77/30/25
f 2/31/26 129/32/26 64/32/26
f 77/30/27 142/33/27 78/33/27
f 46/34/28 121/26/28 120/34/28
f 78/33/29 143/35/29 79/35/29
f 30/28/30 111/36/30 28/36/30
f 38/1/31 22/37/31 6/38/31
f 79/35/32 144/39/32 80/39/32
f 10/40/33 103/29/33 102/40/33
f 31/41/34 47/42/34 63/43/34
f 96/13/35 1/44/35 63/45/35
f 95/9/36 63/45/36 61/46/36
f 94/4/37 61/46/37 59/47/37
f 93/3/38 59/47/38 57/48/38
f 92/49/39 57/48/39 55/50/39
f 91/51/40 55/50/40 53/52/40
f 90/53/41 53/52/41 51/54/41
f 89/55/42 51/54/42 49/56/42
f 88/57/43 49/56/43 47/58/43
f 87/59/44 47/58/44 45/60/44
f 86/61/45 45/60/45 43/62/45
f 85/63/46 43/62/46 41/64/46
f 84/65/47 41/64/47 39/66/47
f 83/67/48 39/66/48 37/68/48
f 82/69/49 37/68/49 35/70/49
f 81/71/50 35/70/50 33/72/50
f 80/39/51 33/72/51 31/73/51
f 79/35/52 31/73/52 29/74/52
f 78/33/53 29/74/53 27/75/53
f 77/30/54 27/75/54 25/76/54
f 23/77/55 77/30/55 25/76/55
f 75/25/56 23/77/56 21/78/56
f 74/24/57 21/78/57 19/79/57
f 73/21/58 19/79/58 17/80/58
f 72/19/59 17/80/59 15/81/59
f 71/18/60 15/81/60 13/82/60
f 70/14/61 13/82/61 11/83/61
f 69/10/62 11/83/62 9/84/62
f 68/7/63 9/84/63 7/85/63
f 67/8/64 7/85/64 5/86/64
f 3/87/65 67/8/65 5/86/65
f 65/88/66 3/87/66 1/89/66
f 98/90/67 130/91/67 99/88/67
f 97/92/68 131/8/68 130/91/68
f 100/93/69 132/7/69 131/8/69
f 101/94/70 133/10/70 132/7/70
f 102/95/71 134/14/71 133/10/71
f 103/96/72 135/18/72 134/14/72
f 104/97/73 136/19/73 135/18/73
f 105/98/74 137/21/74 136/19/74
f 106/99/75 138/24/75 137/21/75
f 107/100/76 139/25/76 138/24/76
f 108/101/77 140/27/77 139/25/77
f 140/27/78 110/102/78 141/30/78
f 110/102/79 142/33/79 141/30/79
f 111/103/80 143/35/80 142/33/80
f 112/104/81 144/39/81 143/35/81
f 113/105/82 145/71/82 144/39/82
f 114/106/83 146/69/83 145/71/83
f 115/107/84 147/67/84 146/69/84
f 116/108/85 148/65/85 147/67/85
f 117/109/86 149/63/86 148/65/86
f 118/110/87 150/61/87 149/63/87
f 119/111/88 151/59/88 150/61/88
f 120/112/89 152/57/89 151/59/89
f 121/113/90 153/55/90 152/57/90
f 122/114/91 154/53/91 153/55/91
f 123/115/92 155/51/92 154/53/92
f 124/116/93 156/49/93 155/51/93
f 125/117/94 157/3/94 156/49/94
f 126/118/95 158/4/95 157/3/95
f 127/119/96 159/9/96 158/4/96
f 128/120/97 160/13/97 159/9/97
f 129/121/98 99/16/98 160/13/98
f 66/91/99 131/8/99 67/8/99
f 4/122/100 98/31/100 2/31/100
f 93/3/101 156/49/101 157/3/101
f 56/123/102 124/11/102 54/11/102
f 65/88/103 130/91/103 66/91/103
f 91/51/104 156/49/104 92/49/104
f 22/37/105 107/6/105 20/6/105
f 91/51/106 154/53/106 155/51/106
f 38/1/107 117/124/107 116/1/107
f 89/55/108 154/53/108 90/53/108
f 58/125/109 125/123/109 56/123/109
f 89/55/110 152/57/110 153/55/110
f 4/122/111 100/38/111 97/122/111
f 24/126/112 108/37/112 22/37/112
f 87/59/113 152/57/113 88/57/113
f 42/127/114 117/124/114 40/124/114
f 86/61/115 151/59/115 87/59/115
f 60/128/116 126/125/116 58/125/116
f 6/38/117 101/129/117 100/38/117
f 86/61/118 149/63/118 150/61/118
f 26/130/119 109/126/119 24/126/119
f 84/65/120 149/63/120 85/63/120
f 42/127/121 119/131/121 118/127/121
f 83/67/122 148/65/122 84/65/122
f 62/132/123 127/128/123 60/128/123
f 10/40/124 101/129/124 8/129/124
f 82/69/125 147/67/125 83/67/125
f 26/130/126 111/36/126 110/130/126
f 82/69/127 145/71/127 146/69/127
f 44/131/128 120/34/128 119/131/128
f 81/71/129 144/39/129 145/71/129
f 64/32/130 128/132/130 62/132/130
f 38/1/1 116/1/1 115/2/1
f 93/3/2 157/3/2 158/4/2
f 18/5/3 20/6/3 107/6/3
f 68/7/4 67/8/4 131/8/4
f 94/4/5 158/4/5 159/9/5
f 68/7/6 132/7/6 133/10/6
f 54/11/7 124/11/7 123/12/7
f 95/9/8 159/9/8 160/13/8
f 70/14/9 69/10/9 133/10/9
f 36/2/131 115/2/131 114/15/131
f 96/13/11 160/13/11 99/16/11
f 16/17/12 18/5/12 106/5/12
f 70/14/13 134/14/13 135/18/13
f 71/18/14 135/18/14 136/19/14
f 52/12/15 123/12/15 122/20/15
f 72/19/16 136/19/16 137/21/16
f 34/15/132 114/15/132 113/22/132
f 14/23/18 16/17/18 105/17/18
f 73/21/19 137/21/19 138/24/19
f 75/25/20 74/24/20 138/24/20
f 50/20/21 122/20/21 121/26/21
f 75/25/22 139/25/22 140/27/22
f 30/28/23 32/22/23 113/22/23
f 14/23/24 104/23/24 103/29/24
f 76/27/25 140/27/25 141/30/25
f 2/31/133 98/31/133 129/32/133
f 77/30/27 141/30/27 142/33/27
f 46/34/28 48/26/28 121/26/28
f 78/33/29 142/33/29 143/35/29
f 30/28/30 112/28/30 111/36/30
f 6/38/31 4/122/31 2/31/31
f 2/31/31 64/32/31 62/132/31
f 62/132/31 60/128/31 58/125/31
f 58/125/31 56/123/31 54/11/31
f 54/11/31 52/12/31 50/20/31
f 50/20/31 48/26/31 46/34/31
f 46/34/31 44/131/31 42/127/31
f 42/127/31 40/124/31 38/1/31
f 38/1/31 36/2/31 34/15/31
f 34/15/31 32/22/31 30/28/31
f 30/28/31 28/36/31 26/130/31
f 26/130/31 24/126/31 22/37/31
f 22/37/31 20/6/31 18/5/31
f 18/5/31 16/17/31 14/23/31
f 14/23/31 12/29/31 10/40/31
f 10/40/31 8/129/31 6/38/31
f 6/38/31 2/31/31 62/132/31
f 62/132/31 58/125/31 54/11/31
f 54/11/31 50/20/31 46/34/31
f 46/34/31 42/127/31 38/1/31
f 38/1/31 34/15/31 30/28/31
f 30/28/31 26/130/31 22/37/31
f 22/37/31 18/5/31 14/23/31
f 14/23/31 10/40/31 6/38/31
f 6/38/31 62/132/31 54/11/31
f 54/11/31 46/34/31 38/1/31
f 38/1/31 30/28/31 22/37/31
f 22/37/31 14/23/31 6/38/31
f 6/38/31 54/11/31 38/1/31
f 79/35/32 143/35/32 144/39/32
f 10/40/33 12/29/33 103/29/33
f 63/43/34 1/133/34 3/134/34
f 3/134/34 5/135/34 7/136/34
f 7/136/34 9/137/34 11/138/34
f 11/138/34 13/139/34 15/140/34
f 15/140/34 17/141/34 19/142/34
f 19/142/34 21/143/34 23/144/34
f 23/144/34 25/145/34 27/146/34
f 27/146/34 29/147/34 31/41/34
f 31/41/34 33/148/34 35/149/34
f 35/149/34 37/150/34 39/151/34
f 39/151/34 41/152/34 43/153/34
f 43/153/34 45/154/34 47/42/34
f 47/42/34 49/155/34 51/156/34
f 51/156/34 53/157/34 55/158/34
f 55/158/34 57/159/34 59/160/34
f 59/160/34 61/161/34 63/43/34
f 63/43/34 3/134/34 7/136/34
f 7/136/34 11/138/34 15/140/34
f 15/140/34 19/142/34 23/144/34
f 23/144/34 27/146/34 31/41/34
f 31/41/34 35/149/34 39/151/34
f 39/151/34 43/153/34 47/42/34
f 47/42/34 51/156/34 55/158/34
f 55/158/34 59/160/34 63/43/34
f 63/43/34 7/136/34 15/140/34
f 15/140/34 23/144/34 31/41/34
f 31/41/34 39/151/34 47/42/34
f 47/42/34 55/158/34 63/43/34
f 63/43/34 15/140/34 31/41/34
f 96/13/35 65/16/35 1/44/35
f 95/9/36 96/13/36 63/45/36
f 94/4/37 95/9/37 61/46/37
f 93/3/38 94/4/38 59/47/38
f 92/49/39 93/3/39 57/48/39
f 91/51/40 92/49/40 55/50/40
f 90/53/41 91/51/41 53/52/41
f 89/55/42 90/53/42 51/54/42
f 88/57/43 89/55/43 49/56/43
f 87/59/44 88/57/44 47/58/44
f 86/61/45 87/59/45 45/60/45
f 85/63/46 86/61/46 43/62/46
f 84/65/47 85/63/47 41/64/47
f 83/67/48 84/65/48 39/66/48
f 82/69/49 83/67/49 37/68/49
f 81/71/50 82/69/50 35/70/50
f 80/39/51 81/71/51 33/72/51
f 79/35/52 80/39/52 31/73/52
f 78/33/53 79/35/53 29/74/53
f 77/30/54 78/33/54 27/75/54
f 23/77/55 76/27/55 77/30/55
f 75/25/56 76/27/56 23/77/56
f 74/24/57 75/25/57 21/78/57
f 73/21/58 74/24/58 19/79/58
f 72/19/59 73/21/59 17/80/59
f 71/18/60 72/19/60 15/81/60
f 70/14/61 71/18/61 13/82/61
f 69/10/62 70/14/62 11/83/62
f 68/7/63 69/10/63 9/84/63
f 67/8/64 68/7/64 7/85/64
f 3/87/65 66/91/65 67/8/65
f 65/88/66 66/91/66 3/87/66
f 98/90/67 97/92/67 130/91/67
f 97/92/68 100/93/68 131/8/68
f 100/93/69 101/94/69 132/7/69
f 101/94/70 102/95/70 133/10/70
f 102/95/71 103/96/71 134/14/71
f 103/96/72 104/97/72 135/18/72
f 104/97/73 105/98/73 136/19/73
f 105/98/74 106/99/74 137/21/74
f 106/99/75 107/100/75 138/24/75
f 107/100/76 108/101/76 139/25/76
f 108/101/77 109/162/77 140/27/77
f 140/27/78 109/162/78 110/102/78
f 110/102/79 111/103/79 142/33/79
f 111/103/80 112/104/80 143/35/80
f 112/104/81 113/105/81 144/39/81
f 113/105/82 114/106/82 145/71/82
f 114/106/83 115/107/83 146/69/83
f 115/107/84 116/108/84 147/67/84
f 116/108/85 117/109/85 148/65/85
f 117/109/86 118/110/86 149/63/86
f 118/110/87 119/111/87 150/61/87
f 119/111/88 120/112/88 151/59/88
f 120/112/89 121/113/89 152/57/89
f 121/113/90 122/114/90 153/55/90
f 122/114/91 123/115/91 154/53/91
f 123/115/92 124/116/92 155/51/92
f 124/116/93 125/117/93 156/49/93
f 125/117/94 126/118/94 157/3/94
f 126/118/95 127/119/95 158/4/95
f 127/119/96 128/120/96 159/9/96
f 128/120/97 129/121/97 160/13/97
f 129/121/98 98/163/98 99/16/98
f 66/91/99 130/91/99 131/8/99
f 4/122/100 97/122/100 98/31/100
f 93/3/101 92/49/101 156/49/101
f 56/123/102 125/123/102 124/11/102
f 65/88/103 99/88/103 130/91/103
f 91/51/104 155/51/104 156/49/104
f 22/37/105 108/37/105 107/6/105
f 91/51/106 90/53/106 154/53/106
f 38/1/107 40/124/107 117/124/107
f 89/55/108 153/55/108 154/53/108
f 58/125/109 126/125/109 125/123/109
f 89/55/110 88/57/110 152/57/110
f 4/122/111 6/38/111 100/38/111
f 24/126/112 109/126/112 108/37/112
f 87/59/113 151/59/113 152/57/113
f 42/127/114 118/127/114 117/124/114
f 86/61/115 150/61/115 151/59/115
f 60/128/116 127/128/116 126/125/116
f 6/38/117 8/129/117 101/129/117
f 86/61/118 85/63/118 149/63/118
f 26/130/119 110/130/119 109/126/119
f 84/65/120 148/65/120 149/63/120
f 42/127/121 44/131/121 119/131/121
f 83/67/122 147/67/122 148/65/122
f 62/132/123 128/132/123 127/128/123
f 10/40/124 102/40/124 101/129/124
f 82/69/125 146/69/125 147/67/125
f 26/130/126 28/36/126 111/36/126
f 82/69/127 81/71/127 145/71/127
f 44/131/128 46/34/128 120/34/128
f 81/71/129 80/39/129 144/39/129
f 64/32/130 129/32/130 128/132/130
