# Blender 4.4.1
# www.blender.org
mtllib playerCanonn.mtl
o playerCannon
v -1.000000 -0.985034 -1.509870
v -1.000000 -1.014867 1.489981
v -1.000000 1.014867 -1.489981
v -1.000000 0.985034 1.509870
v 1.000000 -0.985034 -1.509870
v 1.000000 -1.014867 1.489981
v 1.000000 1.014867 -1.489981
v 1.000000 0.985034 1.509870
v 0.000000 0.514617 -6.495203
v 0.000000 0.464894 -1.495451
v 0.172208 0.480364 -6.495544
v 0.172208 0.430642 -1.495791
v 0.318198 0.382821 -6.496514
v 0.318198 0.333099 -1.496762
v 0.415746 0.236838 -6.497966
v 0.415746 0.187116 -1.498213
v 0.450000 0.064639 -6.499679
v 0.450000 0.014917 -1.499926
v 0.415746 -0.107560 -6.501391
v 0.415746 -0.157282 -1.501638
v 0.318198 -0.253543 -6.502843
v 0.318198 -0.303266 -1.503090
v 0.172208 -0.351086 -6.503813
v 0.172208 -0.400809 -1.504060
v 0.000000 -0.385339 -6.504154
v 0.000000 -0.435061 -1.504401
v -0.172208 -0.351086 -6.503813
v -0.172208 -0.400809 -1.504060
v -0.318198 -0.253543 -6.502843
v -0.318198 -0.303266 -1.503090
v -0.415746 -0.107560 -6.501391
v -0.415746 -0.157282 -1.501638
v -0.450000 0.064639 -6.499679
v -0.450000 0.014917 -1.499926
v -0.415746 0.236838 -6.497966
v -0.415746 0.187116 -1.498213
v -0.318198 0.382821 -6.496514
v -0.318198 0.333099 -1.496762
v -0.172208 0.480364 -6.495544
v -0.172208 0.430642 -1.495791
vn -1.0000 -0.0000 -0.0000
vn -0.0000 1.0000 0.0099
vn 1.0000 -0.0000 -0.0000
vn -0.0000 -1.0000 -0.0099
vn -0.0000 0.0099 -1.0000
vn -0.0000 -0.0099 1.0000
vn 0.1951 0.9807 0.0098
vn 0.5556 0.8314 0.0083
vn 0.8315 0.5555 0.0055
vn 0.9808 0.1951 0.0019
vn 0.9808 -0.1951 -0.0019
vn 0.8315 -0.5555 -0.0055
vn 0.5556 -0.8314 -0.0083
vn 0.1951 -0.9807 -0.0098
vn -0.1951 -0.9807 -0.0098
vn -0.5556 -0.8314 -0.0083
vn -0.8315 -0.5555 -0.0055
vn -0.9808 -0.1951 -0.0019
vn -0.9808 0.1951 0.0019
vn -0.8315 0.5555 0.0055
vn -0.5556 0.8314 0.0083
vn -0.1951 0.9807 0.0098
vt 0.003075 0.003075
vt 0.003075 0.507593
vt 0.339420 0.507593
vt 0.339420 0.003075
vt 0.345570 0.003075
vt 0.681915 0.507593
vt 0.345570 0.507593
vt 0.763743 0.003075
vt 0.792703 0.843939
vt 0.763743 0.843939
vt 0.792703 0.003075
vt 0.817255 0.843939
vt 0.817255 0.003075
vt 0.833660 0.843939
vt 0.833660 0.003075
vt 0.839420 0.843939
vt 0.845570 0.003075
vt 0.851330 0.843939
vt 0.845570 0.843939
vt 0.851330 0.003075
vt 0.867735 0.843939
vt 0.867735 0.003075
vt 0.892287 0.843939
vt 0.892287 0.003075
vt 0.921248 0.843939
vt 0.921248 0.003075
vt 0.950208 0.843939
vt 0.950208 0.003075
vt 0.974760 0.843939
vt 0.974760 0.003075
vt 0.991165 0.843939
vt 0.991165 0.003075
vt 0.996925 0.843939
vt 0.688065 0.003075
vt 0.693825 0.843939
vt 0.688065 0.843939
vt 0.693825 0.003075
vt 0.710230 0.843939
vt 0.710230 0.003075
vt 0.734782 0.843939
vt 0.734782 0.003075
vt 0.681915 0.003075
vt 0.839420 0.003075
vt 0.996925 0.003075
s 0
usemtl Mtl_DarkMetal.008
f 2/1/1 3/2/1 1/2/1
f 4/1/2 7/3/2 3/2/2
f 8/4/3 5/3/3 7/3/3
f 6/5/4 1/6/4 5/7/4
f 7/3/5 1/2/5 3/2/5
f 4/1/6 6/4/6 8/4/6
f 2/1/1 4/1/1 3/2/1
f 4/1/2 8/4/2 7/3/2
f 4/1/6 2/1/6 6/4/6
f 8/4/3 6/4/3 5/3/3
f 6/5/4 2/42/4 1/6/4
f 7/3/5 5/3/5 1/2/5
usemtl Mtl_LightMetal.003
f 10/8/7 11/9/7 9/10/7
f 12/11/8 13/12/8 11/9/8
f 14/13/9 15/14/9 13/12/9
f 16/15/10 17/16/10 15/14/10
f 18/17/11 19/18/11 17/19/11
f 20/20/12 21/21/12 19/18/12
f 22/22/13 23/23/13 21/21/13
f 24/24/14 25/25/14 23/23/14
f 26/26/15 27/27/15 25/25/15
f 28/28/16 29/29/16 27/27/16
f 30/30/17 31/31/17 29/29/17
f 32/32/18 33/33/18 31/31/18
f 34/34/19 35/35/19 33/36/19
f 36/37/20 37/38/20 35/35/20
f 30/39/6 22/13/6 14/13/6
f 38/39/21 39/40/21 37/38/21
f 40/41/22 9/10/22 39/40/22
f 27/40/5 31/35/5 39/40/5
f 10/8/7 12/11/7 11/9/7
f 12/11/8 14/13/8 13/12/8
f 14/13/9 16/15/9 15/14/9
f 16/15/10 18/43/10 17/16/10
f 18/17/11 20/20/11 19/18/11
f 20/20/12 22/22/12 21/21/12
f 22/22/13 24/24/13 23/23/13
f 24/24/14 26/26/14 25/25/14
f 26/26/15 28/28/15 27/27/15
f 28/28/16 30/30/16 29/29/16
f 30/30/17 32/32/17 31/31/17
f 32/32/18 34/44/18 33/33/18
f 34/34/19 36/37/19 35/35/19
f 36/37/20 38/39/20 37/38/20
f 14/13/6 12/11/6 10/8/6
f 10/8/6 40/41/6 38/39/6
f 38/39/6 36/37/6 34/34/6
f 34/34/6 32/37/6 30/39/6
f 30/39/6 28/41/6 26/8/6
f 26/8/6 24/11/6 22/13/6
f 22/13/6 20/15/6 18/43/6
f 18/43/6 16/15/6 14/13/6
f 14/13/6 10/8/6 38/39/6
f 38/39/6 34/34/6 30/39/6
f 30/39/6 26/8/6 22/13/6
f 22/13/6 18/43/6 14/13/6
f 14/13/6 38/39/6 30/39/6
f 38/39/21 40/41/21 39/40/21
f 40/41/22 10/8/22 9/10/22
f 39/40/5 9/10/5 11/9/5
f 11/9/5 13/12/5 15/14/5
f 15/14/5 17/16/5 19/14/5
f 19/14/5 21/12/5 15/14/5
f 21/12/5 23/9/5 15/14/5
f 23/9/5 25/10/5 27/40/5
f 27/40/5 29/38/5 31/35/5
f 31/35/5 33/36/5 35/35/5
f 35/35/5 37/38/5 31/35/5
f 37/38/5 39/40/5 31/35/5
f 39/40/5 11/9/5 23/9/5
f 11/9/5 15/14/5 23/9/5
f 23/9/5 27/40/5 39/40/5
