# Blender 4.4.1
# www.blender.org
mtllib Player.mtl
o Hover_Tank_Chassis
v -1.200000 0.200000 2.100000
v -1.200000 1.000000 2.100000
v -0.780000 0.200000 -2.100000
v -0.780000 0.600000 -2.300000
v 1.200000 0.200000 2.100000
v 1.200000 1.000000 2.100000
v 0.780000 0.200000 -2.100000
v 0.780000 0.600000 -2.300000
v -0.550000 1.000000 1.100000
v -0.550000 1.500000 1.100000
v -0.330000 0.750000 -0.600000
v -0.330000 1.250000 -0.600000
v 0.550000 1.000000 1.100000
v 0.550000 1.500000 1.100000
v 0.330000 0.750000 -0.600000
v 0.330000 1.250000 -0.600000
v -0.600000 0.350000 2.600000
v -0.600000 0.420000 2.000000
v -0.551227 0.354804 2.600000
v -0.564884 0.423459 2.000000
v -0.504329 0.369030 2.600000
v -0.531117 0.433702 2.000000
v -0.461107 0.392133 2.600000
v -0.499997 0.450335 2.000000
v -0.423223 0.423223 2.600000
v -0.472721 0.472721 2.000000
v -0.392133 0.461107 2.600000
v -0.450336 0.499997 2.000000
v -0.369030 0.504329 2.600000
v -0.433702 0.531117 2.000000
v -0.354804 0.551227 2.600000
v -0.423459 0.564884 2.000000
v -0.350000 0.600000 2.600000
v -0.420000 0.600000 2.000000
v -0.354804 0.648773 2.600000
v -0.423459 0.635116 2.000000
v -0.369030 0.695671 2.600000
v -0.433702 0.668883 2.000000
v -0.392133 0.738893 2.600000
v -0.450336 0.700003 2.000000
v -0.423223 0.776777 2.600000
v -0.472721 0.727279 2.000000
v -0.461107 0.807867 2.600000
v -0.499997 0.749665 2.000000
v -0.504329 0.830970 2.600000
v -0.531117 0.766298 2.000000
v -0.551227 0.845196 2.600000
v -0.564884 0.776541 2.000000
v -0.600000 0.850000 2.600000
v -0.600000 0.780000 2.000000
v -0.648773 0.845196 2.600000
v -0.635116 0.776541 2.000000
v -0.695671 0.830970 2.600000
v -0.668883 0.766298 2.000000
v -0.738893 0.807867 2.600000
v -0.700003 0.749665 2.000000
v -0.776777 0.776777 2.600000
v -0.727279 0.727279 2.000000
v -0.807867 0.738893 2.600000
v -0.749665 0.700003 2.000000
v -0.830970 0.695671 2.600000
v -0.766298 0.668883 2.000000
v -0.845196 0.648773 2.600000
v -0.776541 0.635116 2.000000
v -0.850000 0.600000 2.600000
v -0.780000 0.600000 2.000000
v -0.845196 0.551227 2.600000
v -0.776541 0.564884 2.000000
v -0.830970 0.504329 2.600000
v -0.766298 0.531117 2.000000
v -0.807867 0.461107 2.600000
v -0.749665 0.499997 2.000000
v -0.776777 0.423223 2.600000
v -0.727279 0.472721 2.000000
v -0.738893 0.392133 2.600000
v -0.700003 0.450335 2.000000
v -0.695671 0.369030 2.600000
v -0.668883 0.433702 2.000000
v -0.648773 0.354804 2.600000
v -0.635116 0.423459 2.000000
v 0.600000 0.350000 2.600000
v 0.600000 0.420000 2.000000
v 0.648773 0.354804 2.600000
v 0.635116 0.423459 2.000000
v 0.695671 0.369030 2.600000
v 0.668883 0.433702 2.000000
v 0.738893 0.392133 2.600000
v 0.700003 0.450335 2.000000
v 0.776777 0.423223 2.600000
v 0.727279 0.472721 2.000000
v 0.807867 0.461107 2.600000
v 0.749665 0.499997 2.000000
v 0.830970 0.504329 2.600000
v 0.766298 0.531117 2.000000
v 0.845196 0.551227 2.600000
v 0.776541 0.564884 2.000000
v 0.850000 0.600000 2.600000
v 0.780000 0.600000 2.000000
v 0.845196 0.648773 2.600000
v 0.776541 0.635116 2.000000
v 0.830970 0.695671 2.600000
v 0.766298 0.668883 2.000000
v 0.807867 0.738893 2.600000
v 0.749665 0.700003 2.000000
v 0.776777 0.776777 2.600000
v 0.727279 0.727279 2.000000
v 0.738893 0.807867 2.600000
v 0.700003 0.749665 2.000000
v 0.695671 0.830970 2.600000
v 0.668883 0.766298 2.000000
v 0.648773 0.845196 2.600000
v 0.635116 0.776541 2.000000
v 0.600000 0.850000 2.600000
v 0.600000 0.780000 2.000000
v 0.551227 0.845196 2.600000
v 0.564884 0.776541 2.000000
v 0.504329 0.830970 2.600000
v 0.531117 0.766298 2.000000
v 0.461107 0.807867 2.600000
v 0.499997 0.749665 2.000000
v 0.423223 0.776777 2.600000
v 0.472721 0.727279 2.000000
v 0.392133 0.738893 2.600000
v 0.450336 0.700003 2.000000
v 0.369030 0.695671 2.600000
v 0.433702 0.668883 2.000000
v 0.354804 0.648773 2.600000
v 0.423459 0.635116 2.000000
v 0.350000 0.600000 2.600000
v 0.420000 0.600000 2.000000
v 0.354804 0.551227 2.600000
v 0.423459 0.564884 2.000000
v 0.369030 0.504329 2.600000
v 0.433702 0.531117 2.000000
v 0.392133 0.461107 2.600000
v 0.450336 0.499997 2.000000
v 0.423223 0.423223 2.600000
v 0.472721 0.472721 2.000000
v 0.461107 0.392133 2.600000
v 0.499997 0.450335 2.000000
v 0.504329 0.369030 2.600000
v 0.531117 0.433702 2.000000
v 0.551227 0.354804 2.600000
v 0.564884 0.423459 2.000000
v -1.005039 0.400000 -1.921419
v -1.005039 0.500000 -1.921419
v -0.970837 0.400000 -2.015389
v -0.970837 0.500000 -2.015389
v -0.629163 0.400000 -1.784611
v -0.629163 0.500000 -1.784611
v -0.594961 0.400000 -1.878581
v -0.594961 0.500000 -1.878581
v 0.629163 0.400000 -1.784611
v 0.629163 0.500000 -1.784611
v 0.594961 0.400000 -1.878581
v 0.594961 0.500000 -1.878581
v 1.005039 0.400000 -1.921419
v 1.005039 0.500000 -1.921419
v 0.970837 0.400000 -2.015389
v 0.970837 0.500000 -2.015389
v -0.450000 0.225000 -0.980000
v -0.450000 -0.025000 -1.050000
v -0.407080 0.225000 -0.984227
v -0.420736 -0.025000 -1.052882
v -0.365810 0.225000 -0.996747
v -0.392597 -0.025000 -1.061418
v -0.327775 0.225000 -1.017077
v -0.366664 -0.025000 -1.075280
v -0.294437 0.225000 -1.044437
v -0.343934 -0.025000 -1.093934
v -0.267077 0.225000 -1.077775
v -0.325280 -0.025000 -1.116665
v -0.246746 0.225000 -1.115810
v -0.311418 -0.025000 -1.142598
v -0.234227 0.225000 -1.157080
v -0.302882 -0.025000 -1.170737
v -0.230000 0.225000 -1.200000
v -0.300000 -0.025000 -1.200000
v -0.234227 0.225000 -1.242920
v -0.302882 -0.025000 -1.229264
v -0.246746 0.225000 -1.284190
v -0.311418 -0.025000 -1.257403
v -0.267077 0.225000 -1.322225
v -0.325280 -0.025000 -1.283336
v -0.294437 0.225000 -1.355564
v -0.343934 -0.025000 -1.306066
v -0.327775 0.225000 -1.382923
v -0.366664 -0.025000 -1.324721
v -0.365810 0.225000 -1.403254
v -0.392597 -0.025000 -1.338582
v -0.407080 0.225000 -1.415773
v -0.420736 -0.025000 -1.347118
v -0.450000 0.225000 -1.420000
v -0.450000 -0.025000 -1.350000
v -0.492920 0.225000 -1.415773
v -0.479264 -0.025000 -1.347118
v -0.534190 0.225000 -1.403254
v -0.507403 -0.025000 -1.338582
v -0.572225 0.225000 -1.382923
v -0.533336 -0.025000 -1.324721
v -0.605563 0.225000 -1.355564
v -0.556066 -0.025000 -1.306066
v -0.632923 0.225000 -1.322225
v -0.574720 -0.025000 -1.283336
v -0.653253 0.225000 -1.284190
v -0.588582 -0.025000 -1.257403
v -0.665773 0.225000 -1.242920
v -0.597118 -0.025000 -1.229264
v -0.670000 0.225000 -1.200000
v -0.600000 -0.025000 -1.200000
v -0.665773 0.225000 -1.157080
v -0.597118 -0.025000 -1.170737
v -0.653253 0.225000 -1.115810
v -0.588582 -0.025000 -1.142598
v -0.632923 0.225000 -1.077775
v -0.574720 -0.025000 -1.116665
v -0.605563 0.225000 -1.044437
v -0.556066 -0.025000 -1.093934
v -0.572225 0.225000 -1.017077
v -0.533336 -0.025000 -1.075280
v -0.534190 0.225000 -0.996747
v -0.507403 -0.025000 -1.061418
v -0.492920 0.225000 -0.984227
v -0.479264 -0.025000 -1.052882
v -0.800000 0.225000 1.420000
v -0.800000 -0.025000 1.350000
v -0.757080 0.225000 1.415773
v -0.770736 -0.025000 1.347118
v -0.715810 0.225000 1.403254
v -0.742597 -0.025000 1.338582
v -0.677775 0.225000 1.382923
v -0.716664 -0.025000 1.324721
v -0.644437 0.225000 1.355564
v -0.693934 -0.025000 1.306066
v -0.617077 0.225000 1.322226
v -0.675280 -0.025000 1.283336
v -0.596747 0.225000 1.284190
v -0.661418 -0.025000 1.257403
v -0.584227 0.225000 1.242920
v -0.652882 -0.025000 1.229264
v -0.580000 0.225000 1.200000
v -0.650000 -0.025000 1.200000
v -0.584227 0.225000 1.157080
v -0.652882 -0.025000 1.170736
v -0.596747 0.225000 1.115810
v -0.661418 -0.025000 1.142598
v -0.617077 0.225000 1.077775
v -0.675280 -0.025000 1.116665
v -0.644437 0.225000 1.044437
v -0.693934 -0.025000 1.093934
v -0.677775 0.225000 1.017077
v -0.716664 -0.025000 1.075280
v -0.715810 0.225000 0.996747
v -0.742597 -0.025000 1.061418
v -0.757080 0.225000 0.984227
v -0.770736 -0.025000 1.052882
v -0.800000 0.225000 0.980000
v -0.800000 -0.025000 1.050000
v -0.842920 0.225000 0.984227
v -0.829264 -0.025000 1.052882
v -0.884190 0.225000 0.996747
v -0.857403 -0.025000 1.061418
v -0.922225 0.225000 1.017077
v -0.883336 -0.025000 1.075280
v -0.955563 0.225000 1.044437
v -0.906066 -0.025000 1.093934
v -0.982923 0.225000 1.077775
v -0.924720 -0.025000 1.116665
v -1.003253 0.225000 1.115810
v -0.938582 -0.025000 1.142598
v -1.015773 0.225000 1.157080
v -0.947118 -0.025000 1.170736
v -1.020000 0.225000 1.200000
v -0.950000 -0.025000 1.200000
v -1.015773 0.225000 1.242920
v -0.947118 -0.025000 1.229264
v -1.003253 0.225000 1.284190
v -0.938582 -0.025000 1.257403
v -0.982923 0.225000 1.322226
v -0.924720 -0.025000 1.283336
v -0.955563 0.225000 1.355564
v -0.906066 -0.025000 1.306066
v -0.922225 0.225000 1.382923
v -0.883336 -0.025000 1.324721
v -0.884190 0.225000 1.403254
v -0.857403 -0.025000 1.338582
v -0.842920 0.225000 1.415773
v -0.829264 -0.025000 1.347118
v 0.450000 0.225000 -0.980000
v 0.450000 -0.025000 -1.050000
v 0.492920 0.225000 -0.984227
v 0.479264 -0.025000 -1.052882
v 0.534190 0.225000 -0.996747
v 0.507403 -0.025000 -1.061418
v 0.572225 0.225000 -1.017077
v 0.533336 -0.025000 -1.075280
v 0.605563 0.225000 -1.044437
v 0.556066 -0.025000 -1.093934
v 0.632923 0.225000 -1.077775
v 0.574720 -0.025000 -1.116665
v 0.653253 0.225000 -1.115810
v 0.588582 -0.025000 -1.142598
v 0.665773 0.225000 -1.157080
v 0.597118 -0.025000 -1.170737
v 0.670000 0.225000 -1.200000
v 0.600000 -0.025000 -1.200000
v 0.665773 0.225000 -1.242920
v 0.597118 -0.025000 -1.229264
v 0.653253 0.225000 -1.284190
v 0.588582 -0.025000 -1.257403
v 0.632923 0.225000 -1.322225
v 0.574720 -0.025000 -1.283336
v 0.605563 0.225000 -1.355564
v 0.556066 -0.025000 -1.306066
v 0.572225 0.225000 -1.382923
v 0.533336 -0.025000 -1.324721
v 0.534190 0.225000 -1.403254
v 0.507403 -0.025000 -1.338582
v 0.492920 0.225000 -1.415773
v 0.479264 -0.025000 -1.347118
v 0.450000 0.225000 -1.420000
v 0.450000 -0.025000 -1.350000
v 0.407080 0.225000 -1.415773
v 0.420736 -0.025000 -1.347118
v 0.365810 0.225000 -1.403254
v 0.392597 -0.025000 -1.338582
v 0.327775 0.225000 -1.382923
v 0.366664 -0.025000 -1.324721
v 0.294437 0.225000 -1.355564
v 0.343934 -0.025000 -1.306066
v 0.267077 0.225000 -1.322225
v 0.325280 -0.025000 -1.283336
v 0.246746 0.225000 -1.284190
v 0.311418 -0.025000 -1.257403
v 0.234227 0.225000 -1.242920
v 0.302882 -0.025000 -1.229264
v 0.230000 0.225000 -1.200000
v 0.300000 -0.025000 -1.200000
v 0.234227 0.225000 -1.157080
v 0.302882 -0.025000 -1.170737
v 0.246746 0.225000 -1.115810
v 0.311418 -0.025000 -1.142598
v 0.267077 0.225000 -1.077775
v 0.325280 -0.025000 -1.116665
v 0.294437 0.225000 -1.044437
v 0.343934 -0.025000 -1.093934
v 0.327775 0.225000 -1.017077
v 0.366664 -0.025000 -1.075280
v 0.365810 0.225000 -0.996747
v 0.392597 -0.025000 -1.061418
v 0.407080 0.225000 -0.984227
v 0.420736 -0.025000 -1.052882
v 0.800000 0.225000 1.420000
v 0.800000 -0.025000 1.350000
v 0.842920 0.225000 1.415773
v 0.829264 -0.025000 1.347118
v 0.884190 0.225000 1.403254
v 0.857403 -0.025000 1.338582
v 0.922225 0.225000 1.382923
v 0.883336 -0.025000 1.324721
v 0.955563 0.225000 1.355564
v 0.906066 -0.025000 1.306066
v 0.982923 0.225000 1.322226
v 0.924720 -0.025000 1.283336
v 1.003253 0.225000 1.284190
v 0.938582 -0.025000 1.257403
v 1.015773 0.225000 1.242920
v 0.947118 -0.025000 1.229264
v 1.020000 0.225000 1.200000
v 0.950000 -0.025000 1.200000
v 1.015773 0.225000 1.157080
v 0.947118 -0.025000 1.170736
v 1.003253 0.225000 1.115810
v 0.938582 -0.025000 1.142598
v 0.982923 0.225000 1.077775
v 0.924720 -0.025000 1.116665
v 0.955563 0.225000 1.044437
v 0.906066 -0.025000 1.093934
v 0.922225 0.225000 1.017077
v 0.883336 -0.025000 1.075280
v 0.884190 0.225000 0.996747
v 0.857403 -0.025000 1.061418
v 0.842920 0.225000 0.984227
v 0.829264 -0.025000 1.052882
v 0.800000 0.225000 0.980000
v 0.800000 -0.025000 1.050000
v 0.757080 0.225000 0.984227
v 0.770736 -0.025000 1.052882
v 0.715810 0.225000 0.996747
v 0.742597 -0.025000 1.061418
v 0.677775 0.225000 1.017077
v 0.716664 -0.025000 1.075280
v 0.644437 0.225000 1.044437
v 0.693934 -0.025000 1.093934
v 0.617077 0.225000 1.077775
v 0.675280 -0.025000 1.116665
v 0.596747 0.225000 1.115810
v 0.661418 -0.025000 1.142598
v 0.584227 0.225000 1.157080
v 0.652882 -0.025000 1.170736
v 0.580000 0.225000 1.200000
v 0.650000 -0.025000 1.200000
v 0.584227 0.225000 1.242920
v 0.652882 -0.025000 1.229264
v 0.596747 0.225000 1.284190
v 0.661418 -0.025000 1.257403
v 0.617077 0.225000 1.322226
v 0.675280 -0.025000 1.283336
v 0.644437 0.225000 1.355564
v 0.693934 -0.025000 1.306066
v 0.677775 0.225000 1.382923
v 0.716664 -0.025000 1.324721
v 0.715810 0.225000 1.403254
v 0.742597 -0.025000 1.338582
v 0.757080 0.225000 1.415773
v 0.770736 -0.025000 1.347118
vn -0.9950 -0.0000 -0.0995
vn -0.0000 -0.4472 -0.8944
vn 0.9950 -0.0000 -0.0995
vn -0.0000 -0.0000 1.0000
vn -0.0000 -1.0000 -0.0000
vn -0.0000 0.9959 -0.0905
vn -0.9917 -0.0000 -0.1283
vn -0.0000 -0.0000 -1.0000
vn 0.9917 -0.0000 -0.1283
vn -0.0000 -0.9894 0.1455
vn -0.0000 0.9894 -0.1455
vn 0.0974 -0.9885 -0.1153
vn 0.2883 -0.9506 -0.1153
vn 0.4683 -0.8760 -0.1153
vn 0.6302 -0.7679 -0.1153
vn 0.7679 -0.6302 -0.1153
vn 0.8760 -0.4683 -0.1153
vn 0.9506 -0.2883 -0.1153
vn 0.9885 -0.0974 -0.1153
vn 0.9885 0.0974 -0.1153
vn 0.9506 0.2883 -0.1153
vn 0.8760 0.4683 -0.1153
vn 0.7679 0.6302 -0.1153
vn 0.6302 0.7679 -0.1153
vn 0.4683 0.8760 -0.1153
vn 0.2883 0.9506 -0.1153
vn 0.0974 0.9885 -0.1153
vn -0.0974 0.9885 -0.1153
vn -0.2883 0.9506 -0.1153
vn -0.4683 0.8760 -0.1153
vn -0.6302 0.7679 -0.1153
vn -0.7679 0.6302 -0.1153
vn -0.8760 0.4683 -0.1153
vn -0.9506 0.2883 -0.1153
vn -0.9885 0.0974 -0.1153
vn -0.9885 -0.0974 -0.1153
vn -0.9506 -0.2883 -0.1153
vn -0.8760 -0.4683 -0.1153
vn -0.7679 -0.6302 -0.1153
vn -0.6302 -0.7679 -0.1153
vn -0.4683 -0.8760 -0.1153
vn -0.2883 -0.9506 -0.1153
vn -0.0974 -0.9885 -0.1153
vn -0.9397 -0.0000 -0.3420
vn 0.3420 -0.0000 -0.9397
vn 0.9397 -0.0000 0.3420
vn -0.3420 -0.0000 0.9397
vn -0.0000 1.0000 -0.0000
vn -0.9397 -0.0000 0.3420
vn -0.3420 -0.0000 -0.9397
vn 0.9397 -0.0000 -0.3420
vn 0.3420 -0.0000 0.9397
vn 0.0944 -0.2684 0.9587
vn 0.2796 -0.2684 0.9218
vn 0.4541 -0.2684 0.8496
vn 0.6111 -0.2684 0.7446
vn 0.7446 -0.2684 0.6111
vn 0.8496 -0.2684 0.4541
vn 0.9218 -0.2684 0.2796
vn 0.9587 -0.2684 0.0944
vn 0.9587 -0.2684 -0.0944
vn 0.9218 -0.2684 -0.2796
vn 0.8496 -0.2684 -0.4541
vn 0.7446 -0.2684 -0.6111
vn 0.6111 -0.2684 -0.7446
vn 0.4541 -0.2684 -0.8496
vn 0.2796 -0.2684 -0.9218
vn 0.0944 -0.2684 -0.9587
vn -0.0944 -0.2684 -0.9587
vn -0.2796 -0.2684 -0.9218
vn -0.4541 -0.2684 -0.8496
vn -0.6111 -0.2684 -0.7446
vn -0.7446 -0.2684 -0.6111
vn -0.8496 -0.2684 -0.4541
vn -0.9218 -0.2684 -0.2796
vn -0.9587 -0.2684 -0.0944
vn -0.9587 -0.2684 0.0944
vn -0.9218 -0.2684 0.2796
vn -0.8496 -0.2684 0.4541
vn -0.7446 -0.2684 0.6111
vn -0.6111 -0.2684 0.7446
vn -0.4541 -0.2684 0.8496
vn -0.2796 -0.2684 0.9218
vn -0.0944 -0.2684 0.9587
vn -0.9948 -0.0454 -0.0908
vn 0.9948 -0.0454 -0.0908
vn -0.4682 0.8760 -0.1153
vn 0.4682 0.8760 -0.1153
vn -0.4682 -0.8760 -0.1153
vt 0.410565 0.715242
vt 0.478861 0.044135
vt 0.410565 0.725120
vt 0.478861 0.006768
vt 0.732531 0.044135
vt 0.800826 0.715242
vt 0.800826 0.725120
vt 0.814362 0.697130
vt 0.940414 0.306869
vt 0.940414 0.697130
vt 0.075064 0.725195
vt 0.397029 0.006768
vt 0.328733 0.725195
vt 0.814362 0.014318
vt 0.850136 0.285783
vt 0.850136 0.293333
vt 0.957458 0.293333
vt 0.957458 0.285783
vt 0.993232 0.014318
vt 0.410565 0.917526
vt 0.489347 0.738656
vt 0.489347 0.917526
vt 0.957458 0.710666
vt 0.814362 0.983216
vt 0.850136 0.710666
vt 0.993232 0.006768
vt 0.733210 0.740878
vt 0.741141 0.838967
vt 0.733210 0.839026
vt 0.744411 0.740709
vt 0.748767 0.838791
vt 0.755795 0.838506
vt 0.749471 0.740504
vt 0.761955 0.838122
vt 0.757546 0.739891
vt 0.767011 0.837654
vt 0.770767 0.837121
vt 0.760251 0.739506
vt 0.773081 0.836542
vt 0.761917 0.739089
vt 0.773862 0.835939
vt 0.584184 0.742059
vt 0.573124 0.838778
vt 0.583397 0.741330
vt 0.581077 0.740643
vt 0.568744 0.837838
vt 0.577314 0.740025
vt 0.572254 0.739499
vt 0.565101 0.837459
vt 0.566089 0.739086
vt 0.560662 0.837162
vt 0.559058 0.738801
vt 0.555600 0.836957
vt 0.551431 0.738656
vt 0.550108 0.836853
vt 0.543499 0.738656
vt 0.538688 0.836957
vt 0.535570 0.738801
vt 0.533199 0.837162
vt 0.527946 0.739086
vt 0.520921 0.739499
vt 0.528141 0.837459
vt 0.514765 0.740025
vt 0.523709 0.837838
vt 0.509715 0.740643
vt 0.520073 0.838283
vt 0.505965 0.741330
vt 0.515712 0.839303
vt 0.503658 0.742059
vt 0.515154 0.839838
vt 0.502883 0.742803
vt 0.703940 0.738656
vt 0.693339 0.836542
vt 0.692558 0.835939
vt 0.704503 0.739089
vt 0.695652 0.837121
vt 0.706168 0.739506
vt 0.699409 0.837654
vt 0.712513 0.740227
vt 0.704464 0.838122
vt 0.716948 0.740504
vt 0.710625 0.838506
vt 0.722009 0.740709
vt 0.717653 0.838791
vt 0.555646 0.841979
vt 0.517391 0.840858
vt 0.725279 0.838967
vt 0.103115 0.790765
vt 0.129383 0.740239
vt 0.178527 0.767634
vt 0.047420 0.839101
vt 0.053130 0.740911
vt 0.055351 0.839042
vt 0.062977 0.838866
vt 0.058621 0.740784
vt 0.070005 0.838581
vt 0.068117 0.740303
vt 0.076166 0.838197
vt 0.081221 0.837730
vt 0.074462 0.739582
vt 0.084978 0.837196
vt 0.087291 0.836617
vt 0.076127 0.739165
vt 0.088072 0.836015
vt 0.666751 0.839838
vt 0.678247 0.742059
vt 0.679021 0.742802
vt 0.666193 0.839303
vt 0.675940 0.741330
vt 0.661832 0.838283
vt 0.672190 0.740643
vt 0.667140 0.740024
vt 0.658196 0.837838
vt 0.660984 0.739499
vt 0.648706 0.837162
vt 0.653959 0.739086
vt 0.646335 0.738801
vt 0.637507 0.836853
vt 0.638406 0.738656
vt 0.631797 0.836853
vt 0.630474 0.738656
vt 0.622847 0.738801
vt 0.626305 0.836957
vt 0.615816 0.739086
vt 0.621243 0.837162
vt 0.609651 0.739499
vt 0.616804 0.837459
vt 0.604591 0.740024
vt 0.613161 0.837838
vt 0.600828 0.740643
vt 0.610452 0.838283
vt 0.598508 0.741330
vt 0.608781 0.838778
vt 0.597721 0.742059
vt 0.006768 0.836015
vt 0.018713 0.739165
vt 0.007549 0.836617
vt 0.009863 0.837196
vt 0.020379 0.739582
vt 0.013619 0.837730
vt 0.023083 0.739966
vt 0.018675 0.838197
vt 0.026724 0.740303
vt 0.024835 0.838581
vt 0.031159 0.740579
vt 0.031863 0.838866
vt 0.664532 0.838778
vt 0.648660 0.842184
vt 0.036219 0.740784
vt 0.039489 0.839042
vt 0.041710 0.740911
vt 0.228921 0.738779
vt 0.257780 0.747630
vt 0.271996 0.774975
vt 0.239518 0.917946
vt 0.222794 0.923508
vt 0.238008 0.917946
vt 0.224304 0.923508
vt 0.244944 0.984629
vt 0.385718 0.738731
vt 0.373886 0.744600
vt 0.369967 0.739138
vt 0.389637 0.744193
vt 0.369967 0.805843
vt 0.389637 0.884430
vt 0.373418 0.819378
vt 0.389637 0.819409
vt 0.246454 0.984629
vt 0.261668 0.979067
vt 0.768493 0.858025
vt 0.788163 0.852969
vt 0.784244 0.858431
vt 0.977610 0.306869
vt 0.953950 0.367990
vt 0.976100 0.306869
vt 0.955460 0.367990
vt 0.969164 0.373552
vt 0.772412 0.919267
vt 0.788163 0.919674
vt 0.654754 0.920876
vt 0.670974 0.855824
vt 0.670974 0.920846
vt 0.970674 0.373552
vt 0.167053 0.953033
vt 0.209088 0.946054
vt 0.209258 0.953033
vt 0.166937 0.948274
vt 0.208585 0.939343
vt 0.166594 0.943699
vt 0.207768 0.933158
vt 0.166037 0.939482
vt 0.206668 0.927737
vt 0.164374 0.932752
vt 0.205328 0.923288
vt 0.203800 0.919982
vt 0.163332 0.930498
vt 0.202141 0.917946
vt 0.748901 0.873919
vt 0.749830 0.859744
vt 0.754957 0.864499
vt 0.745405 0.870676
vt 0.743872 0.856083
vt 0.741343 0.868180
vt 0.737311 0.853658
vt 0.732158 0.865780
vt 0.730400 0.852562
vt 0.723405 0.852837
vt 0.727388 0.865967
vt 0.716594 0.854472
vt 0.722744 0.867082
vt 0.710228 0.857405
vt 0.718404 0.869082
vt 0.704554 0.861523
vt 0.711286 0.875397
vt 0.699787 0.866667
vt 0.696113 0.872640
vt 0.707116 0.883950
vt 0.693672 0.879213
vt 0.692557 0.886132
vt 0.706356 0.888668
vt 0.692813 0.893132
vt 0.706530 0.893441
vt 0.694428 0.899944
vt 0.707631 0.898085
vt 0.697340 0.906306
vt 0.709617 0.902423
vt 0.701439 0.911974
vt 0.712412 0.906288
vt 0.706566 0.916729
vt 0.715907 0.909530
vt 0.712524 0.920390
vt 0.162201 0.976955
vt 0.203800 0.986083
vt 0.202141 0.988119
vt 0.163332 0.975567
vt 0.205328 0.982778
vt 0.164374 0.973313
vt 0.206668 0.978329
vt 0.166037 0.966584
vt 0.207768 0.972908
vt 0.166594 0.962367
vt 0.208585 0.966723
vt 0.724443 0.913679
vt 0.736870 0.866527
vt 0.209088 0.960012
vt 0.166937 0.957791
vt 0.286895 0.784690
vt 0.310641 0.740093
vt 0.355069 0.763979
vt 0.290385 0.943302
vt 0.332419 0.936323
vt 0.332589 0.943302
vt 0.290269 0.938544
vt 0.331916 0.929612
vt 0.289926 0.933968
vt 0.331099 0.923427
vt 0.289369 0.929751
vt 0.329999 0.918006
vt 0.288619 0.926055
vt 0.328659 0.913557
vt 0.287705 0.923022
vt 0.327131 0.910251
vt 0.286663 0.920768
vt 0.325472 0.908216
vt 0.537870 0.915287
vt 0.551274 0.919991
vt 0.545316 0.923651
vt 0.541933 0.912792
vt 0.556401 0.915236
vt 0.545428 0.909549
vt 0.560500 0.909568
vt 0.548223 0.905685
vt 0.563413 0.903206
vt 0.551310 0.896703
vt 0.565028 0.896394
vt 0.551484 0.891930
vt 0.565283 0.889394
vt 0.564168 0.882474
vt 0.550724 0.887212
vt 0.561727 0.875902
vt 0.549060 0.882731
vt 0.558053 0.869929
vt 0.546555 0.878658
vt 0.553287 0.864785
vt 0.539436 0.872343
vt 0.547612 0.860667
vt 0.541247 0.857734
vt 0.535096 0.870344
vt 0.534436 0.856099
vt 0.530452 0.869229
vt 0.527440 0.855824
vt 0.525682 0.869041
vt 0.520529 0.856920
vt 0.520970 0.869789
vt 0.513969 0.859345
vt 0.516497 0.871442
vt 0.508010 0.863006
vt 0.512435 0.873938
vt 0.502883 0.867761
vt 0.325472 0.978389
vt 0.286663 0.965837
vt 0.327131 0.976353
vt 0.287705 0.963583
vt 0.328659 0.973047
vt 0.329999 0.968598
vt 0.288619 0.960549
vt 0.331099 0.963177
vt 0.289369 0.956853
vt 0.331916 0.956992
vt 0.514932 0.914386
vt 0.289926 0.952636
vt 0.332419 0.950281
vt 0.286895 0.869432
vt 0.310641 0.824836
vt 0.355069 0.848721
vt 0.350977 0.943302
vt 0.393011 0.936323
vt 0.393181 0.943302
vt 0.350861 0.938544
vt 0.392508 0.929612
vt 0.350518 0.933968
vt 0.391691 0.923427
vt 0.349961 0.929751
vt 0.390592 0.918006
vt 0.348298 0.923022
vt 0.389252 0.913557
vt 0.387723 0.910251
vt 0.347256 0.920768
vt 0.386065 0.908216
vt 0.063112 0.873994
vt 0.064040 0.859819
vt 0.069167 0.864574
vt 0.059616 0.870751
vt 0.058082 0.856158
vt 0.055554 0.868255
vt 0.051522 0.853734
vt 0.051080 0.866602
vt 0.044611 0.852637
vt 0.046369 0.865855
vt 0.037615 0.852912
vt 0.041599 0.866042
vt 0.030804 0.854548
vt 0.032615 0.869157
vt 0.024439 0.857480
vt 0.018764 0.861598
vt 0.028746 0.871964
vt 0.013998 0.866742
vt 0.025496 0.875472
vt 0.010324 0.872715
vt 0.022991 0.879544
vt 0.007882 0.879288
vt 0.021327 0.884026
vt 0.006768 0.886207
vt 0.020567 0.888743
vt 0.007023 0.893207
vt 0.020741 0.893516
vt 0.008638 0.900019
vt 0.021842 0.898161
vt 0.011551 0.906381
vt 0.023828 0.902498
vt 0.015650 0.912049
vt 0.026622 0.906363
vt 0.020777 0.916804
vt 0.030118 0.909605
vt 0.026735 0.920465
vt 0.346125 0.967225
vt 0.387723 0.976353
vt 0.386065 0.978389
vt 0.347256 0.965837
vt 0.389252 0.973047
vt 0.348298 0.963583
vt 0.390592 0.968598
vt 0.349211 0.960549
vt 0.391691 0.963177
vt 0.349961 0.956853
vt 0.392508 0.956992
vt 0.068407 0.896331
vt 0.350518 0.952636
vt 0.393011 0.950281
vt 0.350861 0.948061
vt 0.256942 0.865271
vt 0.224984 0.904404
vt 0.186043 0.872343
vt 0.106461 0.953033
vt 0.148495 0.946054
vt 0.148665 0.953033
vt 0.106002 0.943699
vt 0.147992 0.939343
vt 0.147175 0.933158
vt 0.105445 0.939482
vt 0.146075 0.927737
vt 0.103782 0.932752
vt 0.144736 0.923288
vt 0.143207 0.919982
vt 0.102739 0.930498
vt 0.141548 0.917946
vt 0.635162 0.877180
vt 0.636091 0.863006
vt 0.641218 0.867761
vt 0.631667 0.873938
vt 0.630133 0.859345
vt 0.627604 0.871442
vt 0.623572 0.856920
vt 0.618419 0.869041
vt 0.616662 0.855824
vt 0.613650 0.869229
vt 0.609666 0.856099
vt 0.602855 0.857734
vt 0.609006 0.870344
vt 0.596490 0.860667
vt 0.604666 0.872343
vt 0.590815 0.864785
vt 0.600797 0.875151
vt 0.586049 0.869929
vt 0.597547 0.878658
vt 0.582375 0.875902
vt 0.593377 0.887212
vt 0.579933 0.882474
vt 0.578819 0.889394
vt 0.592617 0.891930
vt 0.579074 0.896394
vt 0.592791 0.896703
vt 0.580689 0.903206
vt 0.593893 0.901347
vt 0.583602 0.909568
vt 0.595879 0.905685
vt 0.587700 0.915236
vt 0.598673 0.909549
vt 0.592827 0.919991
vt 0.602169 0.912792
vt 0.598786 0.923652
vt 0.101609 0.976955
vt 0.143207 0.986083
vt 0.141548 0.988119
vt 0.102739 0.975567
vt 0.144736 0.982778
vt 0.103782 0.973313
vt 0.146075 0.978329
vt 0.104695 0.970280
vt 0.147175 0.972908
vt 0.105445 0.966584
vt 0.147992 0.966723
vt 0.623131 0.869789
vt 0.640458 0.899517
vt 0.106002 0.962367
vt 0.148495 0.960012
vt 0.102971 0.879162
vt 0.126718 0.834566
vt 0.171145 0.858452
vt 0.732531 0.006768
vt 0.814362 0.306869
vt 0.006768 0.006768
vt 0.814362 0.006768
vt 0.410565 0.738656
vt 0.993232 0.983216
vt 0.738920 0.740836
vt 0.753906 0.740227
vt 0.762479 0.738656
vt 0.573691 0.839303
vt 0.571453 0.838283
vt 0.544398 0.836853
vt 0.517372 0.838778
vt 0.708873 0.739891
vt 0.550157 0.842184
vt 0.544447 0.842288
vt 0.538737 0.842288
vt 0.533245 0.842184
vt 0.528182 0.841979
vt 0.523744 0.841681
vt 0.520100 0.841303
vt 0.515721 0.840363
vt 0.573133 0.839838
vt 0.571472 0.840363
vt 0.568772 0.840858
vt 0.565136 0.841303
vt 0.560704 0.841681
vt 0.727500 0.740836
vt 0.101609 0.782942
vt 0.101609 0.774975
vt 0.103115 0.767170
vt 0.106071 0.759828
vt 0.110363 0.753230
vt 0.115825 0.747630
vt 0.122247 0.743244
vt 0.136959 0.738731
vt 0.144684 0.738779
vt 0.152259 0.740379
vt 0.159396 0.743472
vt 0.165818 0.747938
vt 0.171280 0.753605
vt 0.175571 0.760255
vt 0.180034 0.775457
vt 0.175571 0.798571
vt 0.180034 0.783424
vt 0.178527 0.791228
vt 0.171280 0.805169
vt 0.165818 0.810768
vt 0.159396 0.815155
vt 0.152259 0.818160
vt 0.144684 0.819668
vt 0.122247 0.814927
vt 0.136959 0.819620
vt 0.129383 0.818019
vt 0.115825 0.810461
vt 0.110363 0.804794
vt 0.106071 0.798144
vt 0.047420 0.740954
vt 0.063682 0.740579
vt 0.071757 0.739966
vt 0.076690 0.738731
vt 0.653764 0.837459
vt 0.643217 0.836957
vt 0.608214 0.839303
vt 0.018151 0.738731
vt 0.643168 0.842288
vt 0.637458 0.842288
vt 0.631748 0.842184
vt 0.626259 0.841979
vt 0.621201 0.841681
vt 0.616769 0.841303
vt 0.613133 0.840858
vt 0.610433 0.840363
vt 0.608772 0.839838
vt 0.666184 0.840363
vt 0.664513 0.840858
vt 0.661804 0.841303
vt 0.658161 0.841681
vt 0.653723 0.841979
vt 0.271996 0.782942
vt 0.270489 0.790765
vt 0.267533 0.798144
vt 0.263242 0.804794
vt 0.257780 0.810461
vt 0.251358 0.814927
vt 0.244221 0.818019
vt 0.236645 0.819620
vt 0.228921 0.819668
vt 0.207787 0.810768
vt 0.221345 0.818160
vt 0.214209 0.815155
vt 0.202325 0.805169
vt 0.198033 0.798571
vt 0.195077 0.791229
vt 0.193570 0.783424
vt 0.193570 0.775457
vt 0.202325 0.753605
vt 0.195077 0.767634
vt 0.198033 0.760255
vt 0.207787 0.747938
vt 0.214209 0.743472
vt 0.221345 0.740380
vt 0.236646 0.738731
vt 0.244221 0.740239
vt 0.251358 0.743244
vt 0.263242 0.753230
vt 0.267533 0.759828
vt 0.270489 0.767170
vt 0.385718 0.805436
vt 0.373418 0.884400
vt 0.772412 0.852562
vt 0.654754 0.855854
vt 0.992824 0.312431
vt 0.165288 0.935785
vt 0.162201 0.929110
vt 0.714535 0.871889
vt 0.708780 0.879469
vt 0.719970 0.912026
vt 0.165288 0.970280
vt 0.754197 0.896256
vt 0.752532 0.900737
vt 0.750027 0.904809
vt 0.746778 0.908317
vt 0.742908 0.911124
vt 0.738569 0.913124
vt 0.733925 0.914239
vt 0.729155 0.914426
vt 0.751696 0.877783
vt 0.753682 0.882121
vt 0.754783 0.886765
vt 0.754957 0.891538
vt 0.356431 0.770858
vt 0.356431 0.777870
vt 0.355069 0.784747
vt 0.352396 0.791224
vt 0.348517 0.797051
vt 0.331322 0.808575
vt 0.343579 0.802006
vt 0.337773 0.805897
vt 0.324473 0.809937
vt 0.317490 0.809932
vt 0.310642 0.808558
vt 0.304190 0.805869
vt 0.298384 0.801968
vt 0.293446 0.797005
vt 0.289567 0.791171
vt 0.285532 0.777811
vt 0.285532 0.770798
vt 0.286895 0.763921
vt 0.289567 0.757445
vt 0.293446 0.751617
vt 0.298384 0.746663
vt 0.304190 0.742772
vt 0.317490 0.738731
vt 0.324473 0.738737
vt 0.331322 0.740111
vt 0.337773 0.742800
vt 0.343579 0.746701
vt 0.348517 0.751664
vt 0.352396 0.757498
vt 0.285532 0.919380
vt 0.550209 0.901347
vt 0.543305 0.875151
vt 0.508939 0.877180
vt 0.285532 0.967225
vt 0.511063 0.911579
vt 0.503643 0.899517
vt 0.507813 0.908071
vt 0.505308 0.903999
vt 0.502883 0.894800
vt 0.503057 0.890027
vt 0.504159 0.885382
vt 0.506145 0.881045
vt 0.533397 0.916941
vt 0.528685 0.917688
vt 0.523916 0.917501
vt 0.519272 0.916386
vt 0.290269 0.948061
vt 0.356431 0.855600
vt 0.356431 0.862613
vt 0.355069 0.869489
vt 0.352397 0.875966
vt 0.348517 0.881794
vt 0.331322 0.893317
vt 0.343579 0.886748
vt 0.337773 0.890639
vt 0.324473 0.894680
vt 0.304190 0.890611
vt 0.317490 0.894674
vt 0.310642 0.893300
vt 0.298384 0.886710
vt 0.293447 0.881747
vt 0.289567 0.875913
vt 0.285532 0.862553
vt 0.289567 0.842187
vt 0.285532 0.855541
vt 0.286895 0.848664
vt 0.293446 0.836360
vt 0.298384 0.831405
vt 0.304190 0.827514
vt 0.317490 0.823474
vt 0.324473 0.823479
vt 0.331322 0.824853
vt 0.337773 0.827542
vt 0.343579 0.831443
vt 0.348517 0.836406
vt 0.352396 0.842240
vt 0.349211 0.926055
vt 0.346125 0.919380
vt 0.036955 0.867157
vt 0.034180 0.912101
vt 0.066743 0.900812
vt 0.057119 0.911199
vt 0.064238 0.904885
vt 0.060988 0.908392
vt 0.052779 0.913199
vt 0.048135 0.914314
vt 0.043365 0.914501
vt 0.038654 0.913754
vt 0.065906 0.877858
vt 0.067892 0.882196
vt 0.068993 0.886840
vt 0.069167 0.891613
vt 0.186043 0.865330
vt 0.187406 0.858451
vt 0.190078 0.851970
vt 0.193957 0.846136
vt 0.198895 0.841173
vt 0.218001 0.833210
vt 0.204701 0.837273
vt 0.211152 0.834584
vt 0.224984 0.833204
vt 0.244090 0.841135
vt 0.231833 0.834566
vt 0.238284 0.837244
vt 0.249028 0.846090
vt 0.252907 0.851917
vt 0.255580 0.858394
vt 0.256942 0.872283
vt 0.255580 0.879162
vt 0.252907 0.885643
vt 0.249028 0.891477
vt 0.244090 0.896440
vt 0.238284 0.900341
vt 0.231833 0.903030
vt 0.218001 0.904410
vt 0.211152 0.903048
vt 0.204701 0.900370
vt 0.198895 0.896478
vt 0.193957 0.891524
vt 0.190078 0.885696
vt 0.187406 0.879220
vt 0.106345 0.948274
vt 0.104695 0.935785
vt 0.101609 0.929110
vt 0.595042 0.882731
vt 0.606231 0.915287
vt 0.638794 0.903999
vt 0.629170 0.914386
vt 0.636289 0.908071
vt 0.633039 0.911579
vt 0.624830 0.916386
vt 0.620186 0.917501
vt 0.615416 0.917688
vt 0.610704 0.916941
vt 0.637957 0.881045
vt 0.639943 0.885382
vt 0.641044 0.890027
vt 0.641218 0.894800
vt 0.106345 0.957791
vt 0.172507 0.865331
vt 0.172507 0.872343
vt 0.171145 0.879220
vt 0.168473 0.885697
vt 0.164593 0.891524
vt 0.159656 0.896479
vt 0.153849 0.900370
vt 0.147398 0.903048
vt 0.140549 0.904410
vt 0.120266 0.900341
vt 0.133566 0.904404
vt 0.126718 0.903030
vt 0.114460 0.896440
vt 0.109523 0.891478
vt 0.105643 0.885644
vt 0.101609 0.872283
vt 0.101609 0.865271
vt 0.102971 0.858394
vt 0.105643 0.851918
vt 0.109523 0.846090
vt 0.114460 0.841136
vt 0.120266 0.837244
vt 0.133566 0.833204
vt 0.140549 0.833210
vt 0.147398 0.834584
vt 0.153849 0.837273
vt 0.159655 0.841174
vt 0.164593 0.846136
vt 0.168473 0.851970
s 0
usemtl Mat_Chassis.002
f 2/1/1 3/2/1 1/3/1
f 4/4/2 7/5/2 3/2/2
f 7/5/3 6/6/3 5/7/3
f 6/8/4 1/9/4 5/10/4
f 7/5/5 1/3/5 3/2/5
f 4/11/6 6/12/6 8/13/6
f 9/14/7 12/15/7 11/16/7
f 12/15/8 15/17/8 11/16/8
f 16/18/9 13/19/9 15/17/9
f 14/20/4 9/21/4 13/22/4
f 15/23/10 9/24/10 11/25/10
f 12/15/11 14/26/11 16/18/11
f 18/27/12 19/28/12 17/29/12
f 19/28/13 22/30/13 21/31/13
f 22/30/14 23/32/14 21/31/14
f 24/33/15 25/34/15 23/32/15
f 25/34/16 28/35/16 27/36/16
f 28/35/17 29/37/17 27/36/17
f 30/38/18 31/39/18 29/37/18
f 32/40/19 33/41/19 31/39/19
f 33/42/20 36/43/20 35/44/20
f 36/43/21 37/45/21 35/44/21
f 37/45/22 40/46/22 39/47/22
f 40/46/23 41/48/23 39/47/23
f 42/49/24 43/50/24 41/48/24
f 44/51/25 45/52/25 43/50/25
f 46/53/26 47/54/26 45/52/26
f 48/55/27 49/56/27 47/54/27
f 49/56/28 52/57/28 51/58/28
f 51/58/29 54/59/29 53/60/29
f 54/59/30 55/61/30 53/60/30
f 56/62/31 57/63/31 55/61/31
f 58/64/32 59/65/32 57/63/32
f 60/66/33 61/67/33 59/65/33
f 61/67/34 64/68/34 63/69/34
f 63/69/35 66/70/35 65/71/35
f 66/72/36 67/73/36 65/74/36
f 68/75/37 69/76/37 67/73/37
f 70/77/38 71/78/38 69/76/38
f 71/78/39 74/79/39 73/80/39
f 73/80/40 76/81/40 75/82/40
f 75/82/41 78/83/41 77/84/41
f 22/85/8 70/86/8 54/59/8
f 78/83/42 79/87/42 77/84/42
f 79/87/43 18/27/43 17/29/43
f 79/88/4 31/89/4 47/90/4
f 81/91/12 84/92/12 83/93/12
f 84/92/13 85/94/13 83/93/13
f 86/95/14 87/96/14 85/94/14
f 87/96/15 90/97/15 89/98/15
f 90/97/16 91/99/16 89/98/16
f 91/99/17 94/100/17 93/101/17
f 94/100/18 95/102/18 93/101/18
f 96/103/19 97/104/19 95/102/19
f 98/105/20 99/106/20 97/107/20
f 100/108/21 101/109/21 99/106/21
f 101/109/22 104/110/22 103/111/22
f 104/110/23 105/112/23 103/111/23
f 106/113/24 107/114/24 105/112/24
f 107/114/25 110/115/25 109/116/25
f 110/115/26 111/117/26 109/116/26
f 111/117/27 114/118/27 113/119/27
f 113/119/28 116/120/28 115/121/28
f 116/120/29 117/122/29 115/121/29
f 118/123/30 119/124/30 117/122/30
f 120/125/31 121/126/31 119/124/31
f 122/127/32 123/128/32 121/126/32
f 124/129/33 125/130/33 123/128/33
f 126/131/34 127/132/34 125/130/34
f 128/133/35 129/134/35 127/132/35
f 129/135/36 132/136/36 131/137/36
f 132/136/37 133/138/37 131/137/37
f 134/139/38 135/140/38 133/138/38
f 136/141/39 137/142/39 135/140/39
f 138/143/40 139/144/40 137/142/40
f 140/145/41 141/146/41 139/144/41
f 110/115/8 102/147/8 86/148/8
f 142/149/42 143/150/42 141/146/42
f 144/151/43 81/91/43 143/150/43
f 127/152/4 135/153/4 143/154/4
f 146/155/44 147/156/44 145/157/44
f 148/158/45 151/159/45 147/156/45
f 152/160/46 149/161/46 151/162/46
f 150/163/47 145/164/47 149/161/47
f 151/165/5 145/166/5 147/167/5
f 152/168/48 146/155/48 150/169/48
f 154/170/49 155/171/49 153/172/49
f 156/173/50 159/174/50 155/175/50
f 160/176/51 157/177/51 159/174/51
f 158/178/52 153/172/52 157/179/52
f 155/180/5 157/181/5 153/182/5
f 156/173/48 158/183/48 160/176/48
f 162/184/53 163/185/53 161/186/53
f 164/187/54 165/188/54 163/185/54
f 166/189/55 167/190/55 165/188/55
f 168/191/56 169/192/56 167/190/56
f 169/192/57 172/193/57 171/194/57
f 172/193/58 173/195/58 171/194/58
f 174/196/59 175/197/59 173/195/59
f 176/198/60 177/199/60 175/200/60
f 178/201/61 179/202/61 177/199/61
f 180/203/62 181/204/62 179/202/62
f 181/204/63 184/205/63 183/206/63
f 184/205/64 185/207/64 183/206/64
f 186/208/65 187/209/65 185/207/65
f 188/210/66 189/211/66 187/209/66
f 190/212/67 191/213/67 189/211/67
f 191/213/68 194/214/68 193/215/68
f 194/214/69 195/216/69 193/215/69
f 195/216/70 198/217/70 197/218/70
f 198/217/71 199/219/71 197/218/71
f 200/220/72 201/221/72 199/219/72
f 202/222/73 203/223/73 201/221/73
f 204/224/74 205/225/74 203/223/74
f 206/226/75 207/227/75 205/225/75
f 208/228/76 209/229/76 207/227/76
f 210/230/77 211/231/77 209/229/77
f 212/232/78 213/233/78 211/234/78
f 214/235/79 215/236/79 213/233/79
f 216/237/80 217/238/80 215/236/80
f 217/238/81 220/239/81 219/240/81
f 219/240/82 222/241/82 221/242/82
f 214/243/5 198/217/5 182/244/5
f 222/241/83 223/245/83 221/242/83
f 224/246/84 161/186/84 223/245/84
f 191/247/48 207/248/48 223/249/48
f 226/250/53 227/251/53 225/252/53
f 228/253/54 229/254/54 227/251/54
f 230/255/55 231/256/55 229/254/55
f 232/257/56 233/258/56 231/256/56
f 234/259/57 235/260/57 233/258/57
f 236/261/58 237/262/58 235/260/58
f 238/263/59 239/264/59 237/262/59
f 240/265/60 241/266/60 239/267/60
f 242/268/61 243/269/61 241/266/61
f 244/270/62 245/271/62 243/269/62
f 246/272/63 247/273/63 245/271/63
f 247/273/64 250/274/64 249/275/64
f 249/275/65 252/276/65 251/277/65
f 252/276/66 253/278/66 251/277/66
f 254/279/67 255/280/67 253/278/67
f 256/281/68 257/282/68 255/280/68
f 258/283/69 259/284/69 257/282/69
f 259/284/70 262/285/70 261/286/70
f 262/285/71 263/287/71 261/286/71
f 264/288/72 265/289/72 263/287/72
f 266/290/73 267/291/73 265/289/73
f 268/292/74 269/293/74 267/291/74
f 270/294/75 271/295/75 269/293/75
f 272/296/76 273/297/76 271/295/76
f 274/298/77 275/299/77 273/297/77
f 275/300/78 278/301/78 277/302/78
f 277/302/79 280/303/79 279/304/79
f 280/303/80 281/305/80 279/304/80
f 282/306/81 283/307/81 281/305/81
f 284/308/82 285/309/82 283/307/82
f 262/285/5 246/272/5 230/310/5
f 286/311/83 287/312/83 285/309/83
f 287/312/84 226/250/84 225/252/84
f 255/313/48 271/314/48 287/315/48
f 290/316/53 291/317/53 289/318/53
f 292/319/54 293/320/54 291/317/54
f 294/321/55 295/322/55 293/320/55
f 296/323/56 297/324/56 295/322/56
f 297/324/57 300/325/57 299/326/57
f 300/325/58 301/327/58 299/326/58
f 302/328/59 303/329/59 301/327/59
f 304/330/60 305/331/60 303/332/60
f 306/333/61 307/334/61 305/331/61
f 308/335/62 309/336/62 307/334/62
f 310/337/63 311/338/63 309/336/63
f 312/339/64 313/340/64 311/338/64
f 314/341/65 315/342/65 313/340/65
f 315/342/66 318/343/66 317/344/66
f 318/343/67 319/345/67 317/344/67
f 320/346/68 321/347/68 319/345/68
f 322/348/69 323/349/69 321/347/69
f 324/350/70 325/351/70 323/349/70
f 326/352/71 327/353/71 325/351/71
f 328/354/72 329/355/72 327/353/72
f 330/356/73 331/357/73 329/355/73
f 332/358/74 333/359/74 331/357/74
f 334/360/75 335/361/75 333/359/75
f 336/362/76 337/363/76 335/361/76
f 338/364/77 339/365/77 337/363/77
f 340/366/78 341/367/78 339/368/78
f 342/369/79 343/370/79 341/367/79
f 344/371/80 345/372/80 343/370/80
f 346/373/81 347/374/81 345/372/81
f 348/375/82 349/376/82 347/374/82
f 326/352/5 310/337/5 294/377/5
f 350/378/83 351/379/83 349/376/83
f 352/380/84 289/318/84 351/379/84
f 319/381/48 335/382/48 351/383/48
f 354/384/53 355/385/53 353/386/53
f 355/385/54 358/387/54 357/388/54
f 358/387/55 359/389/55 357/388/55
f 360/390/56 361/391/56 359/389/56
f 361/391/57 364/392/57 363/393/57
f 364/392/58 365/394/58 363/393/58
f 366/395/59 367/396/59 365/394/59
f 368/397/60 369/398/60 367/399/60
f 370/400/61 371/401/61 369/398/61
f 372/402/62 373/403/62 371/401/62
f 373/403/63 376/404/63 375/405/63
f 375/405/64 378/406/64 377/407/64
f 378/406/65 379/408/65 377/407/65
f 380/409/66 381/410/66 379/408/66
f 382/411/67 383/412/67 381/410/67
f 384/413/68 385/414/68 383/412/68
f 386/415/69 387/416/69 385/414/69
f 387/416/70 390/417/70 389/418/70
f 390/417/71 391/419/71 389/418/71
f 392/420/72 393/421/72 391/419/72
f 394/422/73 395/423/73 393/421/73
f 396/424/74 397/425/74 395/423/74
f 398/426/75 399/427/75 397/425/75
f 400/428/76 401/429/76 399/427/76
f 402/430/77 403/431/77 401/429/77
f 404/432/78 405/433/78 403/434/78
f 406/435/79 407/436/79 405/433/79
f 408/437/80 409/438/80 407/436/80
f 410/439/81 411/440/81 409/438/81
f 412/441/82 413/442/82 411/440/82
f 390/417/5 374/443/5 358/444/5
f 414/445/83 415/446/83 413/442/83
f 415/446/84 354/384/84 353/386/84
f 383/447/48 399/448/48 415/449/48
f 2/1/85 4/4/85 3/2/85
f 4/4/2 8/450/2 7/5/2
f 7/5/86 8/450/86 6/6/86
f 6/8/4 2/451/4 1/9/4
f 7/5/5 5/7/5 1/3/5
f 4/11/6 2/452/6 6/12/6
f 9/14/7 10/453/7 12/15/7
f 12/15/8 16/18/8 15/17/8
f 16/18/9 14/26/9 13/19/9
f 14/20/4 10/454/4 9/21/4
f 15/23/10 13/455/10 9/24/10
f 12/15/11 10/453/11 14/26/11
f 18/27/12 20/456/12 19/28/12
f 19/28/13 20/456/13 22/30/13
f 22/30/14 24/33/14 23/32/14
f 24/33/15 26/457/15 25/34/15
f 25/34/16 26/457/16 28/35/16
f 28/35/17 30/38/17 29/37/17
f 30/38/18 32/40/18 31/39/18
f 32/40/19 34/458/19 33/41/19
f 33/42/20 34/459/20 36/43/20
f 36/43/21 38/460/21 37/45/21
f 37/45/22 38/460/22 40/46/22
f 40/46/23 42/49/23 41/48/23
f 42/49/24 44/51/24 43/50/24
f 44/51/25 46/53/25 45/52/25
f 46/53/26 48/55/26 47/54/26
f 48/55/27 50/461/27 49/56/27
f 49/56/28 50/461/28 52/57/28
f 51/58/29 52/57/29 54/59/29
f 54/59/87 56/62/87 55/61/87
f 56/62/31 58/64/31 57/63/31
f 58/64/32 60/66/32 59/65/32
f 60/66/33 62/462/33 61/67/33
f 61/67/34 62/462/34 64/68/34
f 63/69/35 64/68/35 66/70/35
f 66/72/36 68/75/36 67/73/36
f 68/75/37 70/77/37 69/76/37
f 70/77/38 72/463/38 71/78/38
f 71/78/39 72/463/39 74/79/39
f 73/80/40 74/79/40 76/81/40
f 75/82/41 76/81/41 78/83/41
f 22/85/8 20/464/8 18/465/8
f 18/465/8 80/466/8 78/467/8
f 78/467/8 76/468/8 74/469/8
f 74/469/8 72/470/8 70/86/8
f 70/86/8 68/471/8 62/462/8
f 68/471/8 66/70/8 62/462/8
f 66/70/8 64/68/8 62/462/8
f 62/462/8 60/66/8 54/59/8
f 60/66/8 58/64/8 54/59/8
f 58/64/8 56/62/8 54/59/8
f 54/59/8 52/57/8 46/53/8
f 52/57/8 50/461/8 46/53/8
f 50/461/8 48/55/8 46/53/8
f 46/53/8 44/51/8 42/49/8
f 42/49/8 40/46/8 46/53/8
f 40/46/8 38/460/8 46/53/8
f 38/460/8 36/43/8 34/459/8
f 34/459/8 32/472/8 30/473/8
f 30/473/8 28/474/8 22/85/8
f 28/474/8 26/475/8 22/85/8
f 26/475/8 24/476/8 22/85/8
f 22/85/8 18/465/8 78/467/8
f 78/467/8 74/469/8 22/85/8
f 74/469/8 70/86/8 22/85/8
f 38/460/8 34/459/8 22/85/8
f 34/459/8 30/473/8 22/85/8
f 70/86/8 62/462/8 54/59/8
f 54/59/8 46/53/8 22/85/8
f 46/53/8 38/460/8 22/85/8
f 78/83/42 80/477/42 79/87/42
f 79/87/43 80/477/43 18/27/43
f 79/88/4 17/478/4 19/479/4
f 19/479/4 21/480/4 23/481/4
f 23/481/4 25/482/4 27/483/4
f 27/483/4 29/484/4 31/89/4
f 31/89/4 33/485/4 35/486/4
f 35/486/4 37/487/4 39/488/4
f 39/488/4 41/489/4 43/490/4
f 43/490/4 45/491/4 47/90/4
f 47/90/4 49/492/4 55/493/4
f 49/492/4 51/494/4 55/493/4
f 51/494/4 53/495/4 55/493/4
f 55/493/4 57/496/4 59/497/4
f 59/497/4 61/498/4 63/499/4
f 63/499/4 65/500/4 71/501/4
f 65/500/4 67/502/4 71/501/4
f 67/502/4 69/503/4 71/501/4
f 71/501/4 73/504/4 75/505/4
f 75/505/4 77/506/4 79/88/4
f 79/88/4 19/479/4 23/481/4
f 23/481/4 27/483/4 79/88/4
f 27/483/4 31/89/4 79/88/4
f 31/89/4 35/486/4 39/488/4
f 39/488/4 43/490/4 31/89/4
f 43/490/4 47/90/4 31/89/4
f 55/493/4 59/497/4 63/499/4
f 71/501/4 75/505/4 79/88/4
f 47/90/4 55/493/4 79/88/4
f 55/493/4 63/499/4 79/88/4
f 63/499/4 71/501/4 79/88/4
f 81/91/12 82/507/12 84/92/12
f 84/92/13 86/95/13 85/94/13
f 86/95/14 88/508/14 87/96/14
f 87/96/15 88/508/15 90/97/15
f 90/97/16 92/509/16 91/99/16
f 91/99/17 92/509/17 94/100/17
f 94/100/18 96/103/18 95/102/18
f 96/103/19 98/510/19 97/104/19
f 98/105/20 100/108/20 99/106/20
f 100/108/21 102/147/21 101/109/21
f 101/109/22 102/147/22 104/110/22
f 104/110/23 106/113/23 105/112/23
f 106/113/24 108/511/24 107/114/24
f 107/114/88 108/511/88 110/115/88
f 110/115/26 112/512/26 111/117/26
f 111/117/27 112/512/27 114/118/27
f 113/119/28 114/118/28 116/120/28
f 116/120/29 118/123/29 117/122/29
f 118/123/87 120/125/87 119/124/87
f 120/125/31 122/127/31 121/126/31
f 122/127/32 124/129/32 123/128/32
f 124/129/33 126/131/33 125/130/33
f 126/131/34 128/133/34 127/132/34
f 128/133/35 130/513/35 129/134/35
f 129/135/36 130/514/36 132/136/36
f 132/136/37 134/139/37 133/138/37
f 134/139/38 136/141/38 135/140/38
f 136/141/39 138/143/39 137/142/39
f 138/143/40 140/145/40 139/144/40
f 140/145/89 142/149/89 141/146/89
f 86/148/8 84/515/8 82/516/8
f 82/516/8 144/517/8 142/518/8
f 142/518/8 140/519/8 138/520/8
f 138/520/8 136/521/8 142/518/8
f 136/521/8 134/522/8 142/518/8
f 134/522/8 132/523/8 130/513/8
f 130/513/8 128/133/8 126/131/8
f 126/131/8 124/129/8 118/123/8
f 124/129/8 122/127/8 118/123/8
f 122/127/8 120/125/8 118/123/8
f 118/123/8 116/120/8 114/118/8
f 114/118/8 112/512/8 118/123/8
f 112/512/8 110/115/8 118/123/8
f 110/115/8 108/511/8 106/113/8
f 106/113/8 104/110/8 110/115/8
f 104/110/8 102/147/8 110/115/8
f 102/147/8 100/108/8 98/105/8
f 98/105/8 96/524/8 102/147/8
f 96/524/8 94/525/8 102/147/8
f 94/525/8 92/526/8 90/527/8
f 90/527/8 88/528/8 86/148/8
f 86/148/8 82/516/8 142/518/8
f 134/522/8 130/513/8 118/123/8
f 130/513/8 126/131/8 118/123/8
f 94/525/8 90/527/8 102/147/8
f 90/527/8 86/148/8 102/147/8
f 86/148/8 142/518/8 118/123/8
f 142/518/8 134/522/8 118/123/8
f 118/123/8 110/115/8 86/148/8
f 142/149/42 144/151/42 143/150/42
f 144/151/43 82/507/43 81/91/43
f 143/154/4 81/529/4 83/530/4
f 83/530/4 85/531/4 87/532/4
f 87/532/4 89/533/4 91/534/4
f 91/534/4 93/535/4 95/536/4
f 95/536/4 97/537/4 103/538/4
f 97/537/4 99/539/4 103/538/4
f 99/539/4 101/540/4 103/538/4
f 103/538/4 105/541/4 107/542/4
f 107/542/4 109/543/4 111/544/4
f 111/544/4 113/545/4 119/546/4
f 113/545/4 115/547/4 119/546/4
f 115/547/4 117/548/4 119/546/4
f 119/546/4 121/549/4 123/550/4
f 123/550/4 125/551/4 127/152/4
f 127/152/4 129/552/4 131/553/4
f 131/553/4 133/554/4 135/153/4
f 135/153/4 137/555/4 139/556/4
f 139/556/4 141/557/4 135/153/4
f 141/557/4 143/154/4 135/153/4
f 143/154/4 83/530/4 87/532/4
f 87/532/4 91/534/4 143/154/4
f 91/534/4 95/536/4 143/154/4
f 103/538/4 107/542/4 111/544/4
f 119/546/4 123/550/4 127/152/4
f 127/152/4 131/553/4 135/153/4
f 95/536/4 103/538/4 143/154/4
f 103/538/4 111/544/4 143/154/4
f 111/544/4 119/546/4 143/154/4
f 119/546/4 127/152/4 143/154/4
f 146/155/44 148/158/44 147/156/44
f 148/158/45 152/168/45 151/159/45
f 152/160/46 150/163/46 149/161/46
f 150/163/47 146/558/47 145/164/47
f 151/165/5 149/559/5 145/166/5
f 152/168/48 148/158/48 146/155/48
f 154/170/49 156/560/49 155/171/49
f 156/173/50 160/176/50 159/174/50
f 160/176/51 158/183/51 157/177/51
f 158/178/52 154/170/52 153/172/52
f 155/180/5 159/561/5 157/181/5
f 156/173/48 154/562/48 158/183/48
f 162/184/53 164/187/53 163/185/53
f 164/187/54 166/189/54 165/188/54
f 166/189/55 168/191/55 167/190/55
f 168/191/56 170/563/56 169/192/56
f 169/192/57 170/563/57 172/193/57
f 172/193/58 174/196/58 173/195/58
f 174/196/59 176/564/59 175/197/59
f 176/198/60 178/201/60 177/199/60
f 178/201/61 180/203/61 179/202/61
f 180/203/62 182/244/62 181/204/62
f 181/204/63 182/244/63 184/205/63
f 184/205/64 186/208/64 185/207/64
f 186/208/65 188/210/65 187/209/65
f 188/210/66 190/212/66 189/211/66
f 190/212/67 192/565/67 191/213/67
f 191/213/68 192/565/68 194/214/68
f 194/214/69 196/566/69 195/216/69
f 195/216/70 196/566/70 198/217/70
f 198/217/71 200/220/71 199/219/71
f 200/220/72 202/222/72 201/221/72
f 202/222/73 204/224/73 203/223/73
f 204/224/74 206/226/74 205/225/74
f 206/226/75 208/228/75 207/227/75
f 208/228/76 210/230/76 209/229/76
f 210/230/77 212/567/77 211/231/77
f 212/232/78 214/235/78 213/233/78
f 214/235/79 216/237/79 215/236/79
f 216/237/80 218/568/80 217/238/80
f 217/238/81 218/568/81 220/239/81
f 219/240/82 220/239/82 222/241/82
f 166/569/5 164/570/5 162/571/5
f 162/571/5 224/572/5 166/569/5
f 224/572/5 222/573/5 166/569/5
f 222/573/5 220/574/5 218/575/5
f 218/575/5 216/576/5 222/573/5
f 216/576/5 214/243/5 222/573/5
f 214/243/5 212/567/5 206/226/5
f 212/567/5 210/230/5 206/226/5
f 210/230/5 208/228/5 206/226/5
f 206/226/5 204/224/5 202/222/5
f 202/222/5 200/220/5 206/226/5
f 200/220/5 198/217/5 206/226/5
f 198/217/5 196/566/5 194/214/5
f 194/214/5 192/565/5 190/212/5
f 190/212/5 188/210/5 186/208/5
f 186/208/5 184/205/5 182/244/5
f 182/244/5 180/203/5 178/201/5
f 178/201/5 176/198/5 182/244/5
f 176/198/5 174/577/5 182/244/5
f 174/577/5 172/578/5 170/579/5
f 170/579/5 168/580/5 166/569/5
f 198/217/5 194/214/5 182/244/5
f 194/214/5 190/212/5 182/244/5
f 190/212/5 186/208/5 182/244/5
f 174/577/5 170/579/5 166/569/5
f 166/569/5 222/573/5 214/243/5
f 214/243/5 206/226/5 198/217/5
f 182/244/5 174/577/5 166/569/5
f 166/569/5 214/243/5 182/244/5
f 222/241/83 224/246/83 223/245/83
f 224/246/84 162/184/84 161/186/84
f 223/249/48 161/581/48 163/582/48
f 163/582/48 165/583/48 167/584/48
f 167/584/48 169/585/48 175/586/48
f 169/585/48 171/587/48 175/586/48
f 171/587/48 173/588/48 175/586/48
f 175/586/48 177/589/48 179/590/48
f 179/590/48 181/591/48 183/592/48
f 183/592/48 185/593/48 191/247/48
f 185/593/48 187/594/48 191/247/48
f 187/594/48 189/595/48 191/247/48
f 191/247/48 193/596/48 195/597/48
f 195/597/48 197/598/48 199/599/48
f 199/599/48 201/600/48 207/248/48
f 201/600/48 203/601/48 207/248/48
f 203/601/48 205/602/48 207/248/48
f 207/248/48 209/603/48 211/604/48
f 211/604/48 213/605/48 215/606/48
f 215/606/48 217/607/48 223/249/48
f 217/607/48 219/608/48 223/249/48
f 219/608/48 221/609/48 223/249/48
f 223/249/48 163/582/48 175/586/48
f 163/582/48 167/584/48 175/586/48
f 175/586/48 179/590/48 183/592/48
f 191/247/48 195/597/48 207/248/48
f 195/597/48 199/599/48 207/248/48
f 207/248/48 211/604/48 223/249/48
f 211/604/48 215/606/48 223/249/48
f 175/586/48 183/592/48 223/249/48
f 183/592/48 191/247/48 223/249/48
f 226/250/53 228/253/53 227/251/53
f 228/253/54 230/255/54 229/254/54
f 230/255/55 232/257/55 231/256/55
f 232/257/56 234/259/56 233/258/56
f 234/259/57 236/261/57 235/260/57
f 236/261/58 238/263/58 237/262/58
f 238/263/59 240/610/59 239/264/59
f 240/265/60 242/268/60 241/266/60
f 242/268/61 244/270/61 243/269/61
f 244/270/62 246/272/62 245/271/62
f 246/272/63 248/611/63 247/273/63
f 247/273/64 248/611/64 250/274/64
f 249/275/65 250/274/65 252/276/65
f 252/276/66 254/279/66 253/278/66
f 254/279/67 256/281/67 255/280/67
f 256/281/68 258/283/68 257/282/68
f 258/283/69 260/612/69 259/284/69
f 259/284/70 260/612/70 262/285/70
f 262/285/71 264/288/71 263/287/71
f 264/288/72 266/290/72 265/289/72
f 266/290/73 268/292/73 267/291/73
f 268/292/74 270/294/74 269/293/74
f 270/294/75 272/296/75 271/295/75
f 272/296/76 274/298/76 273/297/76
f 274/298/77 276/613/77 275/299/77
f 275/300/78 276/614/78 278/301/78
f 277/302/79 278/301/79 280/303/79
f 280/303/80 282/306/80 281/305/80
f 282/306/81 284/308/81 283/307/81
f 284/308/82 286/311/82 285/309/82
f 230/310/5 228/615/5 286/616/5
f 228/615/5 226/617/5 286/616/5
f 226/617/5 288/618/5 286/616/5
f 286/616/5 284/619/5 282/620/5
f 282/620/5 280/621/5 286/616/5
f 280/621/5 278/622/5 286/616/5
f 278/622/5 276/613/5 270/294/5
f 276/613/5 274/298/5 270/294/5
f 274/298/5 272/296/5 270/294/5
f 270/294/5 268/292/5 266/290/5
f 266/290/5 264/288/5 270/294/5
f 264/288/5 262/285/5 270/294/5
f 262/285/5 260/612/5 258/283/5
f 258/283/5 256/281/5 254/279/5
f 254/279/5 252/276/5 246/272/5
f 252/276/5 250/274/5 246/272/5
f 250/274/5 248/611/5 246/272/5
f 246/272/5 244/270/5 242/268/5
f 242/268/5 240/265/5 246/272/5
f 240/265/5 238/623/5 246/272/5
f 238/623/5 236/624/5 234/625/5
f 234/625/5 232/626/5 230/310/5
f 262/285/5 258/283/5 246/272/5
f 258/283/5 254/279/5 246/272/5
f 238/623/5 234/625/5 230/310/5
f 230/310/5 286/616/5 278/622/5
f 278/622/5 270/294/5 230/310/5
f 270/294/5 262/285/5 230/310/5
f 246/272/5 238/623/5 230/310/5
f 286/311/83 288/627/83 287/312/83
f 287/312/84 288/627/84 226/250/84
f 287/315/48 225/628/48 227/629/48
f 227/629/48 229/630/48 231/631/48
f 231/631/48 233/632/48 239/633/48
f 233/632/48 235/634/48 239/633/48
f 235/634/48 237/635/48 239/633/48
f 239/633/48 241/636/48 247/637/48
f 241/636/48 243/638/48 247/637/48
f 243/638/48 245/639/48 247/637/48
f 247/637/48 249/640/48 255/313/48
f 249/640/48 251/641/48 255/313/48
f 251/641/48 253/642/48 255/313/48
f 255/313/48 257/643/48 263/644/48
f 257/643/48 259/645/48 263/644/48
f 259/645/48 261/646/48 263/644/48
f 263/644/48 265/647/48 267/648/48
f 267/648/48 269/649/48 271/314/48
f 271/314/48 273/650/48 275/651/48
f 275/651/48 277/652/48 271/314/48
f 277/652/48 279/653/48 271/314/48
f 279/653/48 281/654/48 287/315/48
f 281/654/48 283/655/48 287/315/48
f 283/655/48 285/656/48 287/315/48
f 287/315/48 227/629/48 239/633/48
f 227/629/48 231/631/48 239/633/48
f 263/644/48 267/648/48 255/313/48
f 267/648/48 271/314/48 255/313/48
f 239/633/48 247/637/48 287/315/48
f 247/637/48 255/313/48 287/315/48
f 271/314/48 279/653/48 287/315/48
f 290/316/53 292/319/53 291/317/53
f 292/319/54 294/321/54 293/320/54
f 294/321/55 296/323/55 295/322/55
f 296/323/56 298/657/56 297/324/56
f 297/324/57 298/657/57 300/325/57
f 300/325/58 302/328/58 301/327/58
f 302/328/59 304/658/59 303/329/59
f 304/330/60 306/333/60 305/331/60
f 306/333/61 308/335/61 307/334/61
f 308/335/62 310/337/62 309/336/62
f 310/337/63 312/339/63 311/338/63
f 312/339/64 314/341/64 313/340/64
f 314/341/65 316/659/65 315/342/65
f 315/342/66 316/659/66 318/343/66
f 318/343/67 320/346/67 319/345/67
f 320/346/68 322/348/68 321/347/68
f 322/348/69 324/350/69 323/349/69
f 324/350/70 326/352/70 325/351/70
f 326/352/71 328/354/71 327/353/71
f 328/354/72 330/356/72 329/355/72
f 330/356/73 332/358/73 331/357/73
f 332/358/74 334/360/74 333/359/74
f 334/360/75 336/362/75 335/361/75
f 336/362/76 338/364/76 337/363/76
f 338/364/77 340/660/77 339/365/77
f 340/366/78 342/369/78 341/367/78
f 342/369/79 344/371/79 343/370/79
f 344/371/80 346/373/80 345/372/80
f 346/373/81 348/375/81 347/374/81
f 348/375/82 350/378/82 349/376/82
f 294/377/5 292/661/5 350/662/5
f 292/661/5 290/663/5 350/662/5
f 290/663/5 352/664/5 350/662/5
f 350/662/5 348/665/5 346/666/5
f 346/666/5 344/667/5 342/668/5
f 342/668/5 340/660/5 334/360/5
f 340/660/5 338/364/5 334/360/5
f 338/364/5 336/362/5 334/360/5
f 334/360/5 332/358/5 330/356/5
f 330/356/5 328/354/5 326/352/5
f 326/352/5 324/350/5 322/348/5
f 322/348/5 320/346/5 318/343/5
f 318/343/5 316/659/5 310/337/5
f 316/659/5 314/341/5 310/337/5
f 314/341/5 312/339/5 310/337/5
f 310/337/5 308/335/5 306/333/5
f 306/333/5 304/330/5 310/337/5
f 304/330/5 302/669/5 310/337/5
f 302/669/5 300/670/5 298/671/5
f 298/671/5 296/672/5 294/377/5
f 350/662/5 346/666/5 342/668/5
f 334/360/5 330/356/5 326/352/5
f 326/352/5 322/348/5 310/337/5
f 322/348/5 318/343/5 310/337/5
f 302/669/5 298/671/5 294/377/5
f 294/377/5 350/662/5 342/668/5
f 342/668/5 334/360/5 294/377/5
f 334/360/5 326/352/5 294/377/5
f 310/337/5 302/669/5 294/377/5
f 350/378/83 352/380/83 351/379/83
f 352/380/84 290/316/84 289/318/84
f 351/383/48 289/673/48 291/674/48
f 291/674/48 293/675/48 295/676/48
f 295/676/48 297/677/48 303/678/48
f 297/677/48 299/679/48 303/678/48
f 299/679/48 301/680/48 303/678/48
f 303/678/48 305/681/48 311/682/48
f 305/681/48 307/683/48 311/682/48
f 307/683/48 309/684/48 311/682/48
f 311/682/48 313/685/48 319/381/48
f 313/685/48 315/686/48 319/381/48
f 315/686/48 317/687/48 319/381/48
f 319/381/48 321/688/48 323/689/48
f 323/689/48 325/690/48 327/691/48
f 327/691/48 329/692/48 335/382/48
f 329/692/48 331/693/48 335/382/48
f 331/693/48 333/694/48 335/382/48
f 335/382/48 337/695/48 339/696/48
f 339/696/48 341/697/48 343/698/48
f 343/698/48 345/699/48 351/383/48
f 345/699/48 347/700/48 351/383/48
f 347/700/48 349/701/48 351/383/48
f 351/383/48 291/674/48 303/678/48
f 291/674/48 295/676/48 303/678/48
f 319/381/48 323/689/48 335/382/48
f 323/689/48 327/691/48 335/382/48
f 335/382/48 339/696/48 351/383/48
f 339/696/48 343/698/48 351/383/48
f 303/678/48 311/682/48 351/383/48
f 311/682/48 319/381/48 351/383/48
f 354/384/53 356/702/53 355/385/53
f 355/385/54 356/702/54 358/387/54
f 358/387/55 360/390/55 359/389/55
f 360/390/56 362/703/56 361/391/56
f 361/391/57 362/703/57 364/392/57
f 364/392/58 366/395/58 365/394/58
f 366/395/59 368/704/59 367/396/59
f 368/397/60 370/400/60 369/398/60
f 370/400/61 372/402/61 371/401/61
f 372/402/62 374/443/62 373/403/62
f 373/403/63 374/443/63 376/404/63
f 375/405/64 376/404/64 378/406/64
f 378/406/65 380/409/65 379/408/65
f 380/409/66 382/411/66 381/410/66
f 382/411/67 384/413/67 383/412/67
f 384/413/68 386/415/68 385/414/68
f 386/415/69 388/705/69 387/416/69
f 387/416/70 388/705/70 390/417/70
f 390/417/71 392/420/71 391/419/71
f 392/420/72 394/422/72 393/421/72
f 394/422/73 396/424/73 395/423/73
f 396/424/74 398/426/74 397/425/74
f 398/426/75 400/428/75 399/427/75
f 400/428/76 402/430/76 401/429/76
f 402/430/77 404/706/77 403/431/77
f 404/432/78 406/435/78 405/433/78
f 406/435/79 408/437/79 407/436/79
f 408/437/80 410/439/80 409/438/80
f 410/439/81 412/441/81 411/440/81
f 412/441/82 414/445/82 413/442/82
f 358/444/5 356/707/5 414/708/5
f 356/707/5 354/709/5 414/708/5
f 354/709/5 416/710/5 414/708/5
f 414/708/5 412/711/5 410/712/5
f 410/712/5 408/713/5 414/708/5
f 408/713/5 406/714/5 414/708/5
f 406/714/5 404/706/5 398/426/5
f 404/706/5 402/430/5 398/426/5
f 402/430/5 400/428/5 398/426/5
f 398/426/5 396/424/5 394/422/5
f 394/422/5 392/420/5 398/426/5
f 392/420/5 390/417/5 398/426/5
f 390/417/5 388/705/5 386/415/5
f 386/415/5 384/413/5 382/411/5
f 382/411/5 380/409/5 374/443/5
f 380/409/5 378/406/5 374/443/5
f 378/406/5 376/404/5 374/443/5
f 374/443/5 372/402/5 370/400/5
f 370/400/5 368/397/5 374/443/5
f 368/397/5 366/715/5 374/443/5
f 366/715/5 364/716/5 362/717/5
f 362/717/5 360/718/5 358/444/5
f 390/417/5 386/415/5 374/443/5
f 386/415/5 382/411/5 374/443/5
f 366/715/5 362/717/5 358/444/5
f 358/444/5 414/708/5 406/714/5
f 406/714/5 398/426/5 358/444/5
f 398/426/5 390/417/5 358/444/5
f 374/443/5 366/715/5 358/444/5
f 414/445/83 416/719/83 415/446/83
f 415/446/84 416/719/84 354/384/84
f 415/449/48 353/720/48 355/721/48
f 355/721/48 357/722/48 359/723/48
f 359/723/48 361/724/48 363/725/48
f 363/725/48 365/726/48 359/723/48
f 365/726/48 367/727/48 359/723/48
f 367/727/48 369/728/48 375/729/48
f 369/728/48 371/730/48 375/729/48
f 371/730/48 373/731/48 375/729/48
f 375/729/48 377/732/48 383/447/48
f 377/732/48 379/733/48 383/447/48
f 379/733/48 381/734/48 383/447/48
f 383/447/48 385/735/48 387/736/48
f 387/736/48 389/737/48 391/738/48
f 391/738/48 393/739/48 399/448/48
f 393/739/48 395/740/48 399/448/48
f 395/740/48 397/741/48 399/448/48
f 399/448/48 401/742/48 403/743/48
f 403/743/48 405/744/48 407/745/48
f 407/745/48 409/746/48 415/449/48
f 409/746/48 411/747/48 415/449/48
f 411/747/48 413/748/48 415/449/48
f 415/449/48 355/721/48 367/727/48
f 355/721/48 359/723/48 367/727/48
f 383/447/48 387/736/48 399/448/48
f 387/736/48 391/738/48 399/448/48
f 399/448/48 403/743/48 415/449/48
f 403/743/48 407/745/48 415/449/48
f 367/727/48 375/729/48 415/449/48
f 375/729/48 383/447/48 415/449/48
