# Blender 4.4.3
# www.blender.org
mtllib playerMelee.mtl
o 円柱.001
v 0.000000 -1.600000 -0.200000
v 0.000000 0.000000 -0.200000
v 0.039018 -1.600000 -0.196157
v 0.039018 0.000000 -0.196157
v 0.076537 -1.600000 -0.184776
v 0.076537 0.000000 -0.184776
v 0.111114 -1.600000 -0.166294
v 0.111114 0.000000 -0.166294
v 0.141421 -1.600000 -0.141421
v 0.141421 0.000000 -0.141421
v 0.166294 -1.600000 -0.111114
v 0.166294 0.000000 -0.111114
v 0.184776 -1.600000 -0.076537
v 0.184776 0.000000 -0.076537
v 0.196157 -1.600000 -0.039018
v 0.196157 0.000000 -0.039018
v 0.200000 -1.600000 0.000000
v 0.200000 0.000000 0.000000
v 0.196157 -1.600000 0.039018
v 0.196157 0.000000 0.039018
v 0.184776 -1.600000 0.076537
v 0.184776 0.000000 0.076537
v 0.166294 -1.600000 0.111114
v 0.166294 0.000000 0.111114
v 0.141421 -1.600000 0.141421
v 0.141421 0.000000 0.141421
v 0.111114 -1.600000 0.166294
v 0.111114 0.000000 0.166294
v 0.076537 -1.600000 0.184776
v 0.076537 0.000000 0.184776
v 0.039018 -1.600000 0.196157
v 0.039018 0.000000 0.196157
v 0.000000 -1.600000 0.200000
v 0.000000 0.000000 0.200000
v -0.039018 -1.600000 0.196157
v -0.039018 0.000000 0.196157
v -0.076537 -1.600000 0.184776
v -0.076537 0.000000 0.184776
v -0.111114 -1.600000 0.166294
v -0.111114 0.000000 0.166294
v -0.141421 -1.600000 0.141421
v -0.141421 0.000000 0.141421
v -0.166294 -1.600000 0.111114
v -0.166294 0.000000 0.111114
v -0.184776 -1.600000 0.076537
v -0.184776 0.000000 0.076537
v -0.196157 -1.600000 0.039018
v -0.196157 0.000000 0.039018
v -0.200000 -1.600000 0.000000
v -0.200000 0.000000 0.000000
v -0.196157 -1.600000 -0.039018
v -0.196157 0.000000 -0.039018
v -0.184776 -1.600000 -0.076537
v -0.184776 0.000000 -0.076537
v -0.166294 -1.600000 -0.111114
v -0.166294 0.000000 -0.111114
v -0.141421 -1.600000 -0.141421
v -0.141421 0.000000 -0.141421
v -0.111114 -1.600000 -0.166294
v -0.111114 0.000000 -0.166294
v -0.076537 -1.600000 -0.184776
v -0.076537 0.000000 -0.184776
v -0.039018 -1.600000 -0.196157
v -0.039018 0.000000 -0.196157
v -1.400000 0.000000 -1.120000
v 1.400000 -0.000000 -1.120000
v -1.400000 -0.218501 -1.098480
v 1.400000 -0.218501 -1.098480
v -1.400000 -0.428605 -1.034745
v 1.400000 -0.428606 -1.034745
v -1.400000 -0.622239 -0.931246
v 1.400000 -0.622239 -0.931246
v -1.400000 -0.791960 -0.791960
v 1.400000 -0.791960 -0.791960
v -1.400000 -0.931246 -0.622239
v 1.400000 -0.931246 -0.622239
v -1.400000 -1.034745 -0.428605
v 1.400000 -1.034745 -0.428605
v -1.400000 -1.098480 -0.218501
v 1.400000 -1.098480 -0.218501
v -1.400000 -1.120000 0.000000
v 1.400000 -1.120000 0.000000
v -1.400000 -1.098480 0.218501
v 1.400000 -1.098480 0.218501
v -1.400000 -1.034745 0.428605
v 1.400000 -1.034745 0.428605
v -1.400000 -0.931246 0.622239
v 1.400000 -0.931246 0.622239
v -1.400000 -0.791960 0.791960
v 1.400000 -0.791960 0.791960
v -1.400000 -0.622239 0.931246
v 1.400000 -0.622239 0.931246
v -1.400000 -0.428605 1.034745
v 1.400000 -0.428606 1.034745
v -1.400000 -0.218501 1.098480
v 1.400000 -0.218501 1.098480
v -1.400000 0.000000 1.120000
v 1.400000 -0.000000 1.120000
v -1.400000 0.218501 1.098480
v 1.400000 0.218501 1.098480
v -1.400000 0.428605 1.034745
v 1.400000 0.428605 1.034745
v -1.400000 0.622239 0.931246
v 1.400000 0.622239 0.931246
v -1.400000 0.791960 0.791960
v 1.400000 0.791959 0.791960
v -1.400000 0.931246 0.622239
v 1.400000 0.931246 0.622239
v -1.400000 1.034745 0.428605
v 1.400000 1.034745 0.428605
v -1.400000 1.098480 0.218501
v 1.400000 1.098480 0.218501
v -1.400000 1.120000 0.000000
v 1.400000 1.120000 0.000000
v -1.400000 1.098480 -0.218501
v 1.400000 1.098480 -0.218501
v -1.400000 1.034745 -0.428605
v 1.400000 1.034745 -0.428605
v -1.400000 0.931246 -0.622239
v 1.400000 0.931246 -0.622239
v -1.400000 0.791960 -0.791960
v 1.400000 0.791959 -0.791960
v -1.400000 0.622239 -0.931246
v 1.400000 0.622239 -0.931246
v -1.400000 0.428605 -1.034745
v 1.400000 0.428605 -1.034745
v -1.400000 0.218501 -1.098480
v 1.400000 0.218501 -1.098480
v 0.000000 0.000000 -1.400000
v 0.000000 -0.273126 -1.373099
v 0.000000 -0.535757 -1.293431
v 0.000000 -0.777798 -1.164057
v -0.000000 -0.989950 -0.989950
v -0.000000 -1.164057 -0.777798
v -0.000000 -1.293431 -0.535757
v -0.000000 -1.373099 -0.273126
v -0.000000 -1.400000 0.000000
v -0.000000 -1.373099 0.273126
v -0.000000 -1.293431 0.535757
v -0.000000 -1.164057 0.777798
v -0.000000 -0.989950 0.989950
v 0.000000 -0.777798 1.164057
v 0.000000 -0.535757 1.293431
v 0.000000 -0.273126 1.373099
v 0.000000 0.000000 1.400000
v 0.000000 0.273126 1.373099
v 0.000000 0.535757 1.293431
v 0.000000 0.777798 1.164057
v 0.000000 0.989949 0.989950
v 0.000000 1.164057 0.777798
v 0.000000 1.293431 0.535757
v 0.000000 1.373099 0.273126
v 0.000000 1.400000 0.000000
v 0.000000 1.373099 -0.273126
v 0.000000 1.293431 -0.535757
v 0.000000 1.164057 -0.777798
v 0.000000 0.989949 -0.989950
v 0.000000 0.777798 -1.164057
v 0.000000 0.535757 -1.293431
v 0.000000 0.273126 -1.373099
vn 0.0980 -0.0000 -0.9952
vn 0.2903 -0.0000 -0.9569
vn 0.4714 -0.0000 -0.8819
vn 0.6344 -0.0000 -0.7730
vn 0.7730 -0.0000 -0.6344
vn 0.8819 -0.0000 -0.4714
vn 0.9569 -0.0000 -0.2903
vn 0.9952 -0.0000 -0.0980
vn 0.9952 -0.0000 0.0980
vn 0.9569 -0.0000 0.2903
vn 0.8819 -0.0000 0.4714
vn 0.7730 -0.0000 0.6344
vn 0.6344 -0.0000 0.7730
vn 0.4714 -0.0000 0.8819
vn 0.2903 -0.0000 0.9569
vn 0.0980 -0.0000 0.9952
vn -0.0980 -0.0000 0.9952
vn -0.2903 -0.0000 0.9569
vn -0.4714 -0.0000 0.8819
vn -0.6344 -0.0000 0.7730
vn -0.7730 -0.0000 0.6344
vn -0.8819 -0.0000 0.4714
vn -0.9569 -0.0000 0.2903
vn -0.9952 -0.0000 0.0980
vn -0.9952 -0.0000 -0.0980
vn -0.9569 -0.0000 -0.2903
vn -0.8819 -0.0000 -0.4714
vn -0.7730 -0.0000 -0.6344
vn -0.6344 -0.0000 -0.7730
vn -0.4714 -0.0000 -0.8819
vn -0.0000 1.0000 -0.0000
vn -0.2903 -0.0000 -0.9569
vn -0.0980 -0.0000 -0.9952
vn -0.0000 -1.0000 -0.0000
vn 0.1952 -0.0961 -0.9760
vn 0.1952 -0.2847 -0.9385
vn 0.1952 -0.4623 -0.8650
vn 0.1952 -0.6222 -0.7581
vn 0.1952 -0.7581 -0.6222
vn 0.1952 -0.8650 -0.4623
vn 0.1952 -0.9385 -0.2847
vn 0.1952 -0.9760 -0.0961
vn 0.1952 -0.9760 0.0961
vn 0.1952 -0.9385 0.2847
vn 0.1952 -0.8650 0.4623
vn 0.1952 -0.7581 0.6222
vn 0.1952 -0.6222 0.7581
vn 0.1952 -0.4623 0.8650
vn 0.1952 -0.2847 0.9385
vn 0.1952 -0.0961 0.9760
vn 0.1952 0.0961 0.9760
vn 0.1952 0.2847 0.9385
vn 0.1952 0.4623 0.8650
vn 0.1952 0.6222 0.7581
vn 0.1952 0.7581 0.6222
vn 0.1952 0.8650 0.4623
vn 0.1952 0.9385 0.2847
vn 0.1952 0.9760 0.0961
vn 0.1952 0.9760 -0.0961
vn 0.1952 0.9385 -0.2847
vn 0.1952 0.8650 -0.4623
vn 0.1952 0.7581 -0.6222
vn 0.1952 0.6222 -0.7581
vn 0.1952 0.4623 -0.8650
vn 1.0000 -0.0000 -0.0000
vn 0.1952 0.2847 -0.9385
vn 0.1952 0.0961 -0.9760
vn -1.0000 -0.0000 -0.0000
vn -0.1952 0.0961 -0.9760
vn -0.1952 0.2847 -0.9385
vn -0.1952 0.4623 -0.8650
vn -0.1952 0.6222 -0.7581
vn -0.1952 0.7581 -0.6222
vn -0.1952 0.8650 -0.4623
vn -0.1952 0.9385 -0.2847
vn -0.1952 0.9760 -0.0961
vn -0.1952 0.9760 0.0961
vn -0.1952 0.9385 0.2847
vn -0.1952 0.8650 0.4623
vn -0.1952 0.7581 0.6222
vn -0.1952 0.6222 0.7581
vn -0.1952 0.4623 0.8650
vn -0.1952 0.2847 0.9385
vn -0.1952 0.0961 0.9760
vn -0.1952 -0.0961 0.9760
vn -0.1952 -0.2847 0.9385
vn -0.1952 -0.4623 0.8650
vn -0.1952 -0.6222 0.7581
vn -0.1952 -0.7581 0.6222
vn -0.1952 -0.8650 0.4623
vn -0.1952 -0.9385 0.2847
vn -0.1952 -0.9760 0.0961
vn -0.1952 -0.9760 -0.0961
vn -0.1952 -0.9385 -0.2847
vn -0.1952 -0.8650 -0.4623
vn -0.1952 -0.7581 -0.6222
vn -0.1952 -0.6222 -0.7581
vn -0.1952 -0.4623 -0.8650
vn -0.1952 -0.2847 -0.9385
vn -0.1952 -0.0961 -0.9760
vt 1.000000 1.000000
vt 0.968750 0.500000
vt 1.000000 0.500000
vt 0.968750 1.000000
vt 0.937500 0.500000
vt 0.937500 1.000000
vt 0.906250 0.500000
vt 0.906250 1.000000
vt 0.875000 0.500000
vt 0.875000 1.000000
vt 0.843750 0.500000
vt 0.843750 1.000000
vt 0.812500 0.500000
vt 0.812500 1.000000
vt 0.781250 0.500000
vt 0.781250 1.000000
vt 0.750000 0.500000
vt 0.750000 1.000000
vt 0.718750 0.500000
vt 0.718750 1.000000
vt 0.687500 0.500000
vt 0.687500 1.000000
vt 0.656250 0.500000
vt 0.656250 1.000000
vt 0.625000 0.500000
vt 0.625000 1.000000
vt 0.593750 0.500000
vt 0.593750 1.000000
vt 0.562500 0.500000
vt 0.562500 1.000000
vt 0.531250 0.500000
vt 0.531250 1.000000
vt 0.500000 0.500000
vt 0.500000 1.000000
vt 0.468750 0.500000
vt 0.468750 1.000000
vt 0.437500 0.500000
vt 0.437500 1.000000
vt 0.406250 0.500000
vt 0.406250 1.000000
vt 0.375000 0.500000
vt 0.375000 1.000000
vt 0.343750 0.500000
vt 0.343750 1.000000
vt 0.312500 0.500000
vt 0.312500 1.000000
vt 0.281250 0.500000
vt 0.281250 1.000000
vt 0.250000 0.500000
vt 0.250000 1.000000
vt 0.218750 0.500000
vt 0.218750 1.000000
vt 0.187500 0.500000
vt 0.187500 1.000000
vt 0.156250 0.500000
vt 0.156250 1.000000
vt 0.125000 0.500000
vt 0.125000 1.000000
vt 0.093750 0.500000
vt 0.093750 1.000000
vt 0.062500 0.500000
vt 0.158156 0.028269
vt 0.471731 0.158156
vt 0.341844 0.471731
vt 0.062500 1.000000
vt 0.031250 0.500000
vt 0.031250 1.000000
vt 0.000000 0.500000
vt 0.796822 0.014612
vt 0.514612 0.203178
vt 0.703178 0.485388
vt 1.000000 0.750000
vt 0.968750 0.750000
vt 0.937500 0.750000
vt 0.906250 0.750000
vt 0.875000 0.750000
vt 0.843750 0.750000
vt 0.812500 0.750000
vt 0.781250 0.750000
vt 0.750000 0.750000
vt 0.718750 0.750000
vt 0.687500 0.750000
vt 0.656250 0.750000
vt 0.625000 0.750000
vt 0.593750 0.750000
vt 0.562500 0.750000
vt 0.531250 0.750000
vt 0.500000 0.750000
vt 0.468750 0.750000
vt 0.437500 0.750000
vt 0.406250 0.750000
vt 0.375000 0.750000
vt 0.343750 0.750000
vt 0.312500 0.750000
vt 0.281250 0.750000
vt 0.250000 0.750000
vt 0.218750 0.750000
vt 0.187500 0.750000
vt 0.156250 0.750000
vt 0.125000 0.750000
vt 0.093750 0.750000
vt 0.062500 0.750000
vt 0.031250 0.750000
vt 0.000000 0.750000
vt 0.296822 0.485388
vt 0.250000 0.490000
vt 0.203178 0.485388
vt 0.158156 0.471731
vt 0.116663 0.449553
vt 0.080294 0.419706
vt 0.050447 0.383337
vt 0.028269 0.341844
vt 0.014612 0.296822
vt 0.010000 0.250000
vt 0.014612 0.203178
vt 0.028269 0.158156
vt 0.050447 0.116663
vt 0.080294 0.080294
vt 0.116663 0.050447
vt 0.203178 0.014612
vt 0.250000 0.010000
vt 0.296822 0.014612
vt 0.341844 0.028269
vt 0.383337 0.050447
vt 0.419706 0.080294
vt 0.449553 0.116663
vt 0.485388 0.203178
vt 0.490000 0.250000
vt 0.485388 0.296822
vt 0.471731 0.341844
vt 0.449553 0.383337
vt 0.419706 0.419706
vt 0.383337 0.449553
vt 0.000000 1.000000
vt 0.750000 0.490000
vt 0.796822 0.485388
vt 0.841844 0.471731
vt 0.883337 0.449553
vt 0.919706 0.419706
vt 0.949553 0.383337
vt 0.971731 0.341844
vt 0.985388 0.296822
vt 0.990000 0.250000
vt 0.985388 0.203178
vt 0.971731 0.158156
vt 0.949553 0.116663
vt 0.919706 0.080294
vt 0.883337 0.050447
vt 0.841844 0.028269
vt 0.750000 0.010000
vt 0.703178 0.014612
vt 0.658156 0.028269
vt 0.616663 0.050447
vt 0.580294 0.080294
vt 0.550447 0.116663
vt 0.528269 0.158156
vt 0.510000 0.250000
vt 0.514612 0.296822
vt 0.528269 0.341844
vt 0.550447 0.383337
vt 0.580294 0.419706
vt 0.616663 0.449553
vt 0.658156 0.471731
s 0
f 2/1/1 3/2/1 1/3/1
f 4/4/2 5/5/2 3/2/2
f 6/6/3 7/7/3 5/5/3
f 8/8/4 9/9/4 7/7/4
f 10/10/5 11/11/5 9/9/5
f 12/12/6 13/13/6 11/11/6
f 14/14/7 15/15/7 13/13/7
f 16/16/8 17/17/8 15/15/8
f 18/18/9 19/19/9 17/17/9
f 20/20/10 21/21/10 19/19/10
f 22/22/11 23/23/11 21/21/11
f 24/24/12 25/25/12 23/23/12
f 26/26/13 27/27/13 25/25/13
f 28/28/14 29/29/14 27/27/14
f 30/30/15 31/31/15 29/29/15
f 32/32/16 33/33/16 31/31/16
f 34/34/17 35/35/17 33/33/17
f 36/36/18 37/37/18 35/35/18
f 38/38/19 39/39/19 37/37/19
f 40/40/20 41/41/20 39/39/20
f 42/42/21 43/43/21 41/41/21
f 44/44/22 45/45/22 43/43/22
f 46/46/23 47/47/23 45/45/23
f 48/48/24 49/49/24 47/47/24
f 50/50/25 51/51/25 49/49/25
f 52/52/26 53/53/26 51/51/26
f 54/54/27 55/55/27 53/53/27
f 56/56/28 57/57/28 55/55/28
f 58/58/29 59/59/29 57/57/29
f 60/60/30 61/61/30 59/59/30
f 38/62/31 22/63/31 6/64/31
f 62/65/32 63/66/32 61/61/32
f 64/67/33 1/68/33 63/66/33
f 31/69/34 47/70/34 63/71/34
f 129/72/35 68/4/35 130/73/35
f 68/4/36 131/74/36 130/73/36
f 70/6/37 132/75/37 131/74/37
f 72/8/38 133/76/38 132/75/38
f 74/10/39 134/77/39 133/76/39
f 76/12/40 135/78/40 134/77/40
f 78/14/41 136/79/41 135/78/41
f 136/79/42 82/18/42 137/80/42
f 137/80/43 84/20/43 138/81/43
f 84/20/44 139/82/44 138/81/44
f 139/82/45 88/24/45 140/83/45
f 140/83/46 90/26/46 141/84/46
f 90/26/47 142/85/47 141/84/47
f 142/85/48 94/30/48 143/86/48
f 94/30/49 144/87/49 143/86/49
f 96/32/50 145/88/50 144/87/50
f 98/34/51 146/89/51 145/88/51
f 100/36/52 147/90/52 146/89/52
f 102/38/53 148/91/53 147/90/53
f 148/91/54 106/42/54 149/92/54
f 149/92/55 108/44/55 150/93/55
f 108/44/56 151/94/56 150/93/56
f 151/94/57 112/48/57 152/95/57
f 152/95/58 114/50/58 153/96/58
f 153/96/59 116/52/59 154/97/59
f 154/97/60 118/54/60 155/98/60
f 155/98/61 120/56/61 156/99/61
f 156/99/62 122/58/62 157/100/62
f 122/58/63 158/101/63 157/100/63
f 158/101/64 126/65/64 159/102/64
f 102/62/65 86/63/65 70/64/65
f 126/65/66 160/103/66 159/102/66
f 128/67/67 129/104/67 160/103/67
f 95/69/68 111/70/68 127/71/68
f 160/103/69 65/68/69 127/66/69
f 159/102/70 127/66/70 125/61/70
f 158/101/71 125/61/71 123/59/71
f 121/57/72 158/101/72 123/59/72
f 156/99/73 121/57/73 119/55/73
f 155/98/74 119/55/74 117/53/74
f 115/51/75 155/98/75 117/53/75
f 113/49/76 154/97/76 115/51/76
f 152/95/77 113/49/77 111/47/77
f 109/45/78 152/95/78 111/47/78
f 150/93/79 109/45/79 107/43/79
f 105/41/80 150/93/80 107/43/80
f 148/91/81 105/41/81 103/39/81
f 101/37/82 148/91/82 103/39/82
f 146/89/83 101/37/83 99/35/83
f 145/88/84 99/35/84 97/33/84
f 144/87/85 97/33/85 95/31/85
f 143/86/86 95/31/86 93/29/86
f 142/85/87 93/29/87 91/27/87
f 141/84/88 91/27/88 89/25/88
f 140/83/89 89/25/89 87/23/89
f 139/82/90 87/23/90 85/21/90
f 138/81/91 85/21/91 83/19/91
f 137/80/92 83/19/92 81/17/92
f 136/79/93 81/17/93 79/15/93
f 135/78/94 79/15/94 77/13/94
f 134/77/95 77/13/95 75/11/95
f 73/9/96 134/77/96 75/11/96
f 132/75/97 73/9/97 71/7/97
f 131/74/98 71/7/98 69/5/98
f 130/73/99 69/5/99 67/2/99
f 129/72/100 67/2/100 65/3/100
f 2/1/1 4/4/1 3/2/1
f 4/4/2 6/6/2 5/5/2
f 6/6/3 8/8/3 7/7/3
f 8/8/4 10/10/4 9/9/4
f 10/10/5 12/12/5 11/11/5
f 12/12/6 14/14/6 13/13/6
f 14/14/7 16/16/7 15/15/7
f 16/16/8 18/18/8 17/17/8
f 18/18/9 20/20/9 19/19/9
f 20/20/10 22/22/10 21/21/10
f 22/22/11 24/24/11 23/23/11
f 24/24/12 26/26/12 25/25/12
f 26/26/13 28/28/13 27/27/13
f 28/28/14 30/30/14 29/29/14
f 30/30/15 32/32/15 31/31/15
f 32/32/16 34/34/16 33/33/16
f 34/34/17 36/36/17 35/35/17
f 36/36/18 38/38/18 37/37/18
f 38/38/19 40/40/19 39/39/19
f 40/40/20 42/42/20 41/41/20
f 42/42/21 44/44/21 43/43/21
f 44/44/22 46/46/22 45/45/22
f 46/46/23 48/48/23 47/47/23
f 48/48/24 50/50/24 49/49/24
f 50/50/25 52/52/25 51/51/25
f 52/52/26 54/54/26 53/53/26
f 54/54/27 56/56/27 55/55/27
f 56/56/28 58/58/28 57/57/28
f 58/58/29 60/60/29 59/59/29
f 60/60/30 62/65/30 61/61/30
f 6/64/31 4/105/31 2/106/31
f 2/106/31 64/107/31 62/108/31
f 62/108/31 60/109/31 58/110/31
f 58/110/31 56/111/31 54/112/31
f 54/112/31 52/113/31 50/114/31
f 50/114/31 48/115/31 46/116/31
f 46/116/31 44/117/31 42/118/31
f 42/118/31 40/119/31 38/62/31
f 38/62/31 36/120/31 34/121/31
f 34/121/31 32/122/31 30/123/31
f 30/123/31 28/124/31 26/125/31
f 26/125/31 24/126/31 22/63/31
f 22/63/31 20/127/31 18/128/31
f 18/128/31 16/129/31 14/130/31
f 14/130/31 12/131/31 10/132/31
f 10/132/31 8/133/31 6/64/31
f 6/64/31 2/106/31 62/108/31
f 62/108/31 58/110/31 54/112/31
f 54/112/31 50/114/31 46/116/31
f 46/116/31 42/118/31 38/62/31
f 38/62/31 34/121/31 30/123/31
f 30/123/31 26/125/31 22/63/31
f 22/63/31 18/128/31 14/130/31
f 14/130/31 10/132/31 6/64/31
f 6/64/31 62/108/31 54/112/31
f 54/112/31 46/116/31 38/62/31
f 38/62/31 30/123/31 22/63/31
f 22/63/31 14/130/31 6/64/31
f 6/64/31 54/112/31 38/62/31
f 62/65/32 64/67/32 63/66/32
f 64/67/33 2/134/33 1/68/33
f 63/71/34 1/135/34 3/136/34
f 3/136/34 5/137/34 7/138/34
f 7/138/34 9/139/34 11/140/34
f 11/140/34 13/141/34 15/142/34
f 15/142/34 17/143/34 19/144/34
f 19/144/34 21/145/34 23/146/34
f 23/146/34 25/147/34 27/148/34
f 27/148/34 29/149/34 31/69/34
f 31/69/34 33/150/34 35/151/34
f 35/151/34 37/152/34 39/153/34
f 39/153/34 41/154/34 43/155/34
f 43/155/34 45/156/34 47/70/34
f 47/70/34 49/157/34 51/158/34
f 51/158/34 53/159/34 55/160/34
f 55/160/34 57/161/34 59/162/34
f 59/162/34 61/163/34 63/71/34
f 63/71/34 3/136/34 7/138/34
f 7/138/34 11/140/34 15/142/34
f 15/142/34 19/144/34 23/146/34
f 23/146/34 27/148/34 31/69/34
f 31/69/34 35/151/34 39/153/34
f 39/153/34 43/155/34 47/70/34
f 47/70/34 51/158/34 55/160/34
f 55/160/34 59/162/34 63/71/34
f 63/71/34 7/138/34 15/142/34
f 15/142/34 23/146/34 31/69/34
f 31/69/34 39/153/34 47/70/34
f 47/70/34 55/160/34 63/71/34
f 63/71/34 15/142/34 31/69/34
f 129/72/35 66/1/35 68/4/35
f 68/4/36 70/6/36 131/74/36
f 70/6/37 72/8/37 132/75/37
f 72/8/38 74/10/38 133/76/38
f 74/10/39 76/12/39 134/77/39
f 76/12/40 78/14/40 135/78/40
f 78/14/41 80/16/41 136/79/41
f 136/79/42 80/16/42 82/18/42
f 137/80/43 82/18/43 84/20/43
f 84/20/44 86/22/44 139/82/44
f 139/82/45 86/22/45 88/24/45
f 140/83/46 88/24/46 90/26/46
f 90/26/47 92/28/47 142/85/47
f 142/85/48 92/28/48 94/30/48
f 94/30/49 96/32/49 144/87/49
f 96/32/50 98/34/50 145/88/50
f 98/34/51 100/36/51 146/89/51
f 100/36/52 102/38/52 147/90/52
f 102/38/53 104/40/53 148/91/53
f 148/91/54 104/40/54 106/42/54
f 149/92/55 106/42/55 108/44/55
f 108/44/56 110/46/56 151/94/56
f 151/94/57 110/46/57 112/48/57
f 152/95/58 112/48/58 114/50/58
f 153/96/59 114/50/59 116/52/59
f 154/97/60 116/52/60 118/54/60
f 155/98/61 118/54/61 120/56/61
f 156/99/62 120/56/62 122/58/62
f 122/58/63 124/60/63 158/101/63
f 158/101/64 124/60/64 126/65/64
f 70/64/65 68/105/65 66/106/65
f 66/106/65 128/107/65 126/108/65
f 126/108/65 124/109/65 122/110/65
f 122/110/65 120/111/65 118/112/65
f 118/112/65 116/113/65 114/114/65
f 114/114/65 112/115/65 110/116/65
f 110/116/65 108/117/65 106/118/65
f 106/118/65 104/119/65 102/62/65
f 102/62/65 100/120/65 98/121/65
f 98/121/65 96/122/65 94/123/65
f 94/123/65 92/124/65 90/125/65
f 90/125/65 88/126/65 86/63/65
f 86/63/65 84/127/65 82/128/65
f 82/128/65 80/129/65 78/130/65
f 78/130/65 76/131/65 74/132/65
f 74/132/65 72/133/65 70/64/65
f 70/64/65 66/106/65 126/108/65
f 126/108/65 122/110/65 118/112/65
f 118/112/65 114/114/65 110/116/65
f 110/116/65 106/118/65 102/62/65
f 102/62/65 98/121/65 94/123/65
f 94/123/65 90/125/65 86/63/65
f 86/63/65 82/128/65 78/130/65
f 78/130/65 74/132/65 70/64/65
f 70/64/65 126/108/65 118/112/65
f 118/112/65 110/116/65 102/62/65
f 102/62/65 94/123/65 86/63/65
f 86/63/65 78/130/65 70/64/65
f 70/64/65 118/112/65 102/62/65
f 126/65/66 128/67/66 160/103/66
f 128/67/67 66/134/67 129/104/67
f 127/71/68 65/135/68 67/136/68
f 67/136/68 69/137/68 71/138/68
f 71/138/68 73/139/68 75/140/68
f 75/140/68 77/141/68 79/142/68
f 79/142/68 81/143/68 83/144/68
f 83/144/68 85/145/68 87/146/68
f 87/146/68 89/147/68 91/148/68
f 91/148/68 93/149/68 95/69/68
f 95/69/68 97/150/68 99/151/68
f 99/151/68 101/152/68 103/153/68
f 103/153/68 105/154/68 107/155/68
f 107/155/68 109/156/68 111/70/68
f 111/70/68 113/157/68 115/158/68
f 115/158/68 117/159/68 119/160/68
f 119/160/68 121/161/68 123/162/68
f 123/162/68 125/163/68 127/71/68
f 127/71/68 67/136/68 71/138/68
f 71/138/68 75/140/68 79/142/68
f 79/142/68 83/144/68 87/146/68
f 87/146/68 91/148/68 95/69/68
f 95/69/68 99/151/68 103/153/68
f 103/153/68 107/155/68 111/70/68
f 111/70/68 115/158/68 119/160/68
f 119/160/68 123/162/68 127/71/68
f 127/71/68 71/138/68 79/142/68
f 79/142/68 87/146/68 95/69/68
f 95/69/68 103/153/68 111/70/68
f 111/70/68 119/160/68 127/71/68
f 127/71/68 79/142/68 95/69/68
f 160/103/69 129/104/69 65/68/69
f 159/102/70 160/103/70 127/66/70
f 158/101/71 159/102/71 125/61/71
f 121/57/72 157/100/72 158/101/72
f 156/99/73 157/100/73 121/57/73
f 155/98/74 156/99/74 119/55/74
f 115/51/75 154/97/75 155/98/75
f 113/49/76 153/96/76 154/97/76
f 152/95/77 153/96/77 113/49/77
f 109/45/78 151/94/78 152/95/78
f 150/93/79 151/94/79 109/45/79
f 105/41/80 149/92/80 150/93/80
f 148/91/81 149/92/81 105/41/81
f 101/37/82 147/90/82 148/91/82
f 146/89/83 147/90/83 101/37/83
f 145/88/84 146/89/84 99/35/84
f 144/87/85 145/88/85 97/33/85
f 143/86/86 144/87/86 95/31/86
f 142/85/87 143/86/87 93/29/87
f 141/84/88 142/85/88 91/27/88
f 140/83/89 141/84/89 89/25/89
f 139/82/90 140/83/90 87/23/90
f 138/81/91 139/82/91 85/21/91
f 137/80/92 138/81/92 83/19/92
f 136/79/93 137/80/93 81/17/93
f 135/78/94 136/79/94 79/15/94
f 134/77/95 135/78/95 77/13/95
f 73/9/96 133/76/96 134/77/96
f 132/75/97 133/76/97 73/9/97
f 131/74/98 132/75/98 71/7/98
f 130/73/99 131/74/99 69/5/99
f 129/72/100 130/73/100 67/2/100
