# Blender 4.4.1
# www.blender.org
mtllib playerBody.mtl
o Hover_Tank_Chassis
v -1.200000 0.200000 2.100000
v -1.200000 1.000000 2.100000
v -0.780000 0.200000 -2.100000
v -0.780000 0.600000 -2.300000
v 1.200000 0.200000 2.100000
v 1.200000 1.000000 2.100000
v 0.780000 0.200000 -2.100000
v 0.780000 0.600000 -2.300000
v -0.550000 1.000000 1.100000
v -0.550000 1.500000 1.100000
v -0.330000 0.750000 -0.600000
v -0.330000 1.250000 -0.600000
v 0.550000 1.000000 1.100000
v 0.550000 1.500000 1.100000
v 0.330000 0.750000 -0.600000
v 0.330000 1.250000 -0.600000
v -1.005039 0.400000 -1.921419
v -1.005039 0.500000 -1.921419
v -0.970837 0.400000 -2.015389
v -0.970837 0.500000 -2.015389
v -0.629163 0.400000 -1.784611
v -0.629163 0.500000 -1.784611
v -0.594961 0.400000 -1.878581
v -0.594961 0.500000 -1.878581
v 0.629163 0.400000 -1.784611
v 0.629163 0.500000 -1.784611
v 0.594961 0.400000 -1.878581
v 0.594961 0.500000 -1.878581
v 1.005039 0.400000 -1.921419
v 1.005039 0.500000 -1.921419
v 0.970837 0.400000 -2.015389
v 0.970837 0.500000 -2.015389
v -0.450000 0.225000 -0.980000
v -0.450000 -0.025000 -1.050000
v -0.407080 0.225000 -0.984227
v -0.420736 -0.025000 -1.052882
v -0.365810 0.225000 -0.996747
v -0.392597 -0.025000 -1.061418
v -0.327775 0.225000 -1.017077
v -0.366664 -0.025000 -1.075280
v -0.294437 0.225000 -1.044437
v -0.343934 -0.025000 -1.093934
v -0.267077 0.225000 -1.077775
v -0.325280 -0.025000 -1.116665
v -0.246746 0.225000 -1.115810
v -0.311418 -0.025000 -1.142598
v -0.234227 0.225000 -1.157080
v -0.302882 -0.025000 -1.170737
v -0.230000 0.225000 -1.200000
v -0.300000 -0.025000 -1.200000
v -0.234227 0.225000 -1.242920
v -0.302882 -0.025000 -1.229264
v -0.246746 0.225000 -1.284190
v -0.311418 -0.025000 -1.257403
v -0.267077 0.225000 -1.322225
v -0.325280 -0.025000 -1.283336
v -0.294437 0.225000 -1.355564
v -0.343934 -0.025000 -1.306066
v -0.327775 0.225000 -1.382923
v -0.366664 -0.025000 -1.324721
v -0.365810 0.225000 -1.403254
v -0.392597 -0.025000 -1.338582
v -0.407080 0.225000 -1.415773
v -0.420736 -0.025000 -1.347118
v -0.450000 0.225000 -1.420000
v -0.450000 -0.025000 -1.350000
v -0.492920 0.225000 -1.415773
v -0.479264 -0.025000 -1.347118
v -0.534190 0.225000 -1.403254
v -0.507403 -0.025000 -1.338582
v -0.572225 0.225000 -1.382923
v -0.533336 -0.025000 -1.324721
v -0.605563 0.225000 -1.355564
v -0.556066 -0.025000 -1.306066
v -0.632923 0.225000 -1.322225
v -0.574720 -0.025000 -1.283336
v -0.653253 0.225000 -1.284190
v -0.588582 -0.025000 -1.257403
v -0.665773 0.225000 -1.242920
v -0.597118 -0.025000 -1.229264
v -0.670000 0.225000 -1.200000
v -0.600000 -0.025000 -1.200000
v -0.665773 0.225000 -1.157080
v -0.597118 -0.025000 -1.170737
v -0.653253 0.225000 -1.115810
v -0.588582 -0.025000 -1.142598
v -0.632923 0.225000 -1.077775
v -0.574720 -0.025000 -1.116665
v -0.605563 0.225000 -1.044437
v -0.556066 -0.025000 -1.093934
v -0.572225 0.225000 -1.017077
v -0.533336 -0.025000 -1.075280
v -0.534190 0.225000 -0.996747
v -0.507403 -0.025000 -1.061418
v -0.492920 0.225000 -0.984227
v -0.479264 -0.025000 -1.052882
v -0.800000 0.225000 1.420000
v -0.800000 -0.025000 1.350000
v -0.757080 0.225000 1.415773
v -0.770736 -0.025000 1.347118
v -0.715810 0.225000 1.403254
v -0.742597 -0.025000 1.338582
v -0.677775 0.225000 1.382923
v -0.716664 -0.025000 1.324721
v -0.644437 0.225000 1.355564
v -0.693934 -0.025000 1.306066
v -0.617077 0.225000 1.322226
v -0.675280 -0.025000 1.283336
v -0.596747 0.225000 1.284190
v -0.661418 -0.025000 1.257403
v -0.584227 0.225000 1.242920
v -0.652882 -0.025000 1.229264
v -0.580000 0.225000 1.200000
v -0.650000 -0.025000 1.200000
v -0.584227 0.225000 1.157080
v -0.652882 -0.025000 1.170736
v -0.596747 0.225000 1.115810
v -0.661418 -0.025000 1.142598
v -0.617077 0.225000 1.077775
v -0.675280 -0.025000 1.116665
v -0.644437 0.225000 1.044437
v -0.693934 -0.025000 1.093934
v -0.677775 0.225000 1.017077
v -0.716664 -0.025000 1.075280
v -0.715810 0.225000 0.996747
v -0.742597 -0.025000 1.061418
v -0.757080 0.225000 0.984227
v -0.770736 -0.025000 1.052882
v -0.800000 0.225000 0.980000
v -0.800000 -0.025000 1.050000
v -0.842920 0.225000 0.984227
v -0.829264 -0.025000 1.052882
v -0.884190 0.225000 0.996747
v -0.857403 -0.025000 1.061418
v -0.922225 0.225000 1.017077
v -0.883336 -0.025000 1.075280
v -0.955563 0.225000 1.044437
v -0.906066 -0.025000 1.093934
v -0.982923 0.225000 1.077775
v -0.924720 -0.025000 1.116665
v -1.003253 0.225000 1.115810
v -0.938582 -0.025000 1.142598
v -1.015773 0.225000 1.157080
v -0.947118 -0.025000 1.170736
v -1.020000 0.225000 1.200000
v -0.950000 -0.025000 1.200000
v -1.015773 0.225000 1.242920
v -0.947118 -0.025000 1.229264
v -1.003253 0.225000 1.284190
v -0.938582 -0.025000 1.257403
v -0.982923 0.225000 1.322226
v -0.924720 -0.025000 1.283336
v -0.955563 0.225000 1.355564
v -0.906066 -0.025000 1.306066
v -0.922225 0.225000 1.382923
v -0.883336 -0.025000 1.324721
v -0.884190 0.225000 1.403254
v -0.857403 -0.025000 1.338582
v -0.842920 0.225000 1.415773
v -0.829264 -0.025000 1.347118
v 0.450000 0.225000 -0.980000
v 0.450000 -0.025000 -1.050000
v 0.492920 0.225000 -0.984227
v 0.479264 -0.025000 -1.052882
v 0.534190 0.225000 -0.996747
v 0.507403 -0.025000 -1.061418
v 0.572225 0.225000 -1.017077
v 0.533336 -0.025000 -1.075280
v 0.605563 0.225000 -1.044437
v 0.556066 -0.025000 -1.093934
v 0.632923 0.225000 -1.077775
v 0.574720 -0.025000 -1.116665
v 0.653253 0.225000 -1.115810
v 0.588582 -0.025000 -1.142598
v 0.665773 0.225000 -1.157080
v 0.597118 -0.025000 -1.170737
v 0.670000 0.225000 -1.200000
v 0.600000 -0.025000 -1.200000
v 0.665773 0.225000 -1.242920
v 0.597118 -0.025000 -1.229264
v 0.653253 0.225000 -1.284190
v 0.588582 -0.025000 -1.257403
v 0.632923 0.225000 -1.322225
v 0.574720 -0.025000 -1.283336
v 0.605563 0.225000 -1.355564
v 0.556066 -0.025000 -1.306066
v 0.572225 0.225000 -1.382923
v 0.533336 -0.025000 -1.324721
v 0.534190 0.225000 -1.403254
v 0.507403 -0.025000 -1.338582
v 0.492920 0.225000 -1.415773
v 0.479264 -0.025000 -1.347118
v 0.450000 0.225000 -1.420000
v 0.450000 -0.025000 -1.350000
v 0.407080 0.225000 -1.415773
v 0.420736 -0.025000 -1.347118
v 0.365810 0.225000 -1.403254
v 0.392597 -0.025000 -1.338582
v 0.327775 0.225000 -1.382923
v 0.366664 -0.025000 -1.324721
v 0.294437 0.225000 -1.355564
v 0.343934 -0.025000 -1.306066
v 0.267077 0.225000 -1.322225
v 0.325280 -0.025000 -1.283336
v 0.246746 0.225000 -1.284190
v 0.311418 -0.025000 -1.257403
v 0.234227 0.225000 -1.242920
v 0.302882 -0.025000 -1.229264
v 0.230000 0.225000 -1.200000
v 0.300000 -0.025000 -1.200000
v 0.234227 0.225000 -1.157080
v 0.302882 -0.025000 -1.170737
v 0.246746 0.225000 -1.115810
v 0.311418 -0.025000 -1.142598
v 0.267077 0.225000 -1.077775
v 0.325280 -0.025000 -1.116665
v 0.294437 0.225000 -1.044437
v 0.343934 -0.025000 -1.093934
v 0.327775 0.225000 -1.017077
v 0.366664 -0.025000 -1.075280
v 0.365810 0.225000 -0.996747
v 0.392597 -0.025000 -1.061418
v 0.407080 0.225000 -0.984227
v 0.420736 -0.025000 -1.052882
v 0.800000 0.225000 1.420000
v 0.800000 -0.025000 1.350000
v 0.842920 0.225000 1.415773
v 0.829264 -0.025000 1.347118
v 0.884190 0.225000 1.403254
v 0.857403 -0.025000 1.338582
v 0.922225 0.225000 1.382923
v 0.883336 -0.025000 1.324721
v 0.955563 0.225000 1.355564
v 0.906066 -0.025000 1.306066
v 0.982923 0.225000 1.322226
v 0.924720 -0.025000 1.283336
v 1.003253 0.225000 1.284190
v 0.938582 -0.025000 1.257403
v 1.015773 0.225000 1.242920
v 0.947118 -0.025000 1.229264
v 1.020000 0.225000 1.200000
v 0.950000 -0.025000 1.200000
v 1.015773 0.225000 1.157080
v 0.947118 -0.025000 1.170736
v 1.003253 0.225000 1.115810
v 0.938582 -0.025000 1.142598
v 0.982923 0.225000 1.077775
v 0.924720 -0.025000 1.116665
v 0.955563 0.225000 1.044437
v 0.906066 -0.025000 1.093934
v 0.922225 0.225000 1.017077
v 0.883336 -0.025000 1.075280
v 0.884190 0.225000 0.996747
v 0.857403 -0.025000 1.061418
v 0.842920 0.225000 0.984227
v 0.829264 -0.025000 1.052882
v 0.800000 0.225000 0.980000
v 0.800000 -0.025000 1.050000
v 0.757080 0.225000 0.984227
v 0.770736 -0.025000 1.052882
v 0.715810 0.225000 0.996747
v 0.742597 -0.025000 1.061418
v 0.677775 0.225000 1.017077
v 0.716664 -0.025000 1.075280
v 0.644437 0.225000 1.044437
v 0.693934 -0.025000 1.093934
v 0.617077 0.225000 1.077775
v 0.675280 -0.025000 1.116665
v 0.596747 0.225000 1.115810
v 0.661418 -0.025000 1.142598
v 0.584227 0.225000 1.157080
v 0.652882 -0.025000 1.170736
v 0.580000 0.225000 1.200000
v 0.650000 -0.025000 1.200000
v 0.584227 0.225000 1.242920
v 0.652882 -0.025000 1.229264
v 0.596747 0.225000 1.284190
v 0.661418 -0.025000 1.257403
v 0.617077 0.225000 1.322226
v 0.675280 -0.025000 1.283336
v 0.644437 0.225000 1.355564
v 0.693934 -0.025000 1.306066
v 0.677775 0.225000 1.382923
v 0.716664 -0.025000 1.324721
v 0.715810 0.225000 1.403254
v 0.742597 -0.025000 1.338582
v 0.757080 0.225000 1.415773
v 0.770736 -0.025000 1.347118
vn -0.9950 -0.0000 -0.0995
vn -0.0000 -0.4472 -0.8944
vn 0.9950 -0.0000 -0.0995
vn -0.0000 -0.0000 1.0000
vn -0.0000 -1.0000 -0.0000
vn -0.0000 0.9959 -0.0905
vn -0.9917 -0.0000 -0.1283
vn -0.0000 -0.0000 -1.0000
vn 0.9917 -0.0000 -0.1283
vn -0.0000 -0.9894 0.1455
vn -0.0000 0.9894 -0.1455
vn -0.9397 -0.0000 -0.3420
vn 0.3420 -0.0000 -0.9397
vn 0.9397 -0.0000 0.3420
vn -0.3420 -0.0000 0.9397
vn -0.0000 1.0000 -0.0000
vn -0.9397 -0.0000 0.3420
vn -0.3420 -0.0000 -0.9397
vn 0.9397 -0.0000 -0.3420
vn 0.3420 -0.0000 0.9397
vn 0.0944 -0.2684 0.9587
vn 0.2796 -0.2684 0.9218
vn 0.4541 -0.2684 0.8496
vn 0.6111 -0.2684 0.7446
vn 0.7446 -0.2684 0.6111
vn 0.8496 -0.2684 0.4541
vn 0.9218 -0.2684 0.2796
vn 0.9587 -0.2684 0.0944
vn 0.9587 -0.2684 -0.0944
vn 0.9218 -0.2684 -0.2796
vn 0.8496 -0.2684 -0.4541
vn 0.7446 -0.2684 -0.6111
vn 0.6111 -0.2684 -0.7446
vn 0.4541 -0.2684 -0.8496
vn 0.2796 -0.2684 -0.9218
vn 0.0944 -0.2684 -0.9587
vn -0.0944 -0.2684 -0.9587
vn -0.2796 -0.2684 -0.9218
vn -0.4541 -0.2684 -0.8496
vn -0.6111 -0.2684 -0.7446
vn -0.7446 -0.2684 -0.6111
vn -0.8496 -0.2684 -0.4541
vn -0.9218 -0.2684 -0.2796
vn -0.9587 -0.2684 -0.0944
vn -0.9587 -0.2684 0.0944
vn -0.9218 -0.2684 0.2796
vn -0.8496 -0.2684 0.4541
vn -0.7446 -0.2684 0.6111
vn -0.6111 -0.2684 0.7446
vn -0.4541 -0.2684 0.8496
vn -0.2796 -0.2684 0.9218
vn -0.0944 -0.2684 0.9587
vn -0.9948 -0.0454 -0.0908
vn 0.9948 -0.0454 -0.0908
vt 0.750000 0.050000
vt 0.689080 0.667906
vt 0.689080 0.697331
vt 0.462807 0.667906
vt 0.401887 0.050000
vt 0.110920 0.700000
vt 0.398113 0.050000
vt 0.337193 0.700000
vt 0.800000 0.030561
vt 0.817909 0.269439
vt 0.817909 0.280000
vt 0.871634 0.280000
vt 0.871634 0.269439
vt 0.889543 0.030561
vt 0.890457 0.020000
vt 0.980000 0.030561
vt 0.890457 0.030561
vt 0.908366 0.280000
vt 0.962091 0.280000
vt 0.889543 0.020000
vt 0.800000 0.020000
vt 0.889286 0.020000
vt 0.890714 0.280000
vt 0.980000 0.020000
vt 0.980000 0.280000
vt 0.800000 0.280000
vt 0.889286 0.280000
vt 0.889286 0.280000
vt 0.800000 0.280000
vt 0.890714 0.020000
vt 0.890714 0.020000
vt 0.800000 0.020000
vt 0.889286 0.020000
vt 0.889286 0.020000
vt 0.890714 0.280000
vt 0.980000 0.020000
vt 0.980000 0.280000
vt 0.800000 0.280000
vt 0.889286 0.280000
vt 0.980000 0.280000
vt 0.890714 0.020000
vt 0.193182 0.833145
vt 0.067293 0.844327
vt 0.050000 0.834706
vt 0.204973 0.839705
vt 0.101215 0.853390
vt 0.228101 0.845885
vt 0.150462 0.861547
vt 0.261679 0.851446
vt 0.213142 0.868484
vt 0.354667 0.859891
vt 0.286845 0.873934
vt 0.368740 0.877688
vt 0.410504 0.862451
vt 0.455679 0.879602
vt 0.469781 0.863756
vt 0.544321 0.879602
vt 0.530219 0.863756
vt 0.631260 0.877688
vt 0.589496 0.862451
vt 0.713155 0.873934
vt 0.695585 0.856175
vt 0.786858 0.868484
vt 0.849538 0.861547
vt 0.738321 0.851446
vt 0.898785 0.853390
vt 0.771899 0.845885
vt 0.932707 0.844327
vt 0.795027 0.839705
vt 0.950000 0.834706
vt 0.806818 0.826456
vt 0.950000 0.824896
vt 0.932707 0.815274
vt 0.771899 0.813717
vt 0.898785 0.806211
vt 0.849538 0.798055
vt 0.738321 0.808156
vt 0.786858 0.791118
vt 0.695585 0.803426
vt 0.713155 0.785668
vt 0.645333 0.799710
vt 0.631260 0.781914
vt 0.589496 0.797151
vt 0.544321 0.780000
vt 0.530219 0.795846
vt 0.455679 0.780000
vt 0.469781 0.795846
vt 0.368740 0.781914
vt 0.410504 0.797151
vt 0.286845 0.785668
vt 0.354667 0.799710
vt 0.213142 0.791118
vt 0.304415 0.803426
vt 0.150462 0.798055
vt 0.228101 0.813717
vt 0.101215 0.806211
vt 0.204973 0.819896
vt 0.067293 0.815274
vt 0.645333 0.859891
vt 0.050000 0.824896
vt 0.193182 0.826457
vt 0.932707 0.915673
vt 0.631260 0.978086
vt 0.067293 0.944726
vt 0.304415 0.856175
vt 0.806818 0.833145
vt 0.261679 0.808156
vt 0.795027 0.819896
vt 0.462807 0.697331
vt 0.050000 0.050000
vt 0.980000 0.020000
vt 0.980000 0.020000
vt 0.800000 0.020000
vt 0.890714 0.280000
vt 0.050000 0.935104
vt 0.050000 0.925294
vt 0.067293 0.915673
vt 0.101215 0.906610
vt 0.150462 0.898453
vt 0.368740 0.882312
vt 0.213142 0.891516
vt 0.286845 0.886066
vt 0.455679 0.880398
vt 0.544321 0.880398
vt 0.631260 0.882312
vt 0.713155 0.886066
vt 0.786858 0.891516
vt 0.849538 0.898453
vt 0.898785 0.906610
vt 0.950000 0.925294
vt 0.950000 0.935104
vt 0.932707 0.944726
vt 0.898785 0.953789
vt 0.849538 0.961945
vt 0.786858 0.968882
vt 0.713155 0.974332
vt 0.544321 0.980000
vt 0.455679 0.980000
vt 0.368740 0.978086
vt 0.286845 0.974332
vt 0.213142 0.968882
vt 0.150462 0.961945
vt 0.101215 0.953789
s 0
usemtl Mat_Chassis.001
f 2/1/1 3/2/1 1/1/1
f 4/3/2 7/4/2 3/2/2
f 7/4/3 6/5/3 5/5/3
f 6/5/4 1/1/4 5/5/4
f 7/4/5 1/1/5 3/2/5
f 4/6/6 6/7/6 8/8/6
f 9/9/7 12/10/7 11/11/7
f 12/10/8 15/12/8 11/11/8
f 16/13/9 13/14/9 15/12/9
f 14/15/4 9/16/4 13/17/4
f 15/18/10 9/16/10 11/19/10
f 12/10/11 14/20/11 16/13/11
f 18/21/12 19/22/12 17/22/12
f 20/23/13 23/24/13 19/25/13
f 24/26/14 21/27/14 23/28/14
f 22/29/15 17/22/15 21/27/15
f 23/24/5 17/25/5 19/25/5
f 24/30/16 18/23/16 22/31/16
f 26/32/17 27/33/17 25/34/17
f 28/35/18 31/36/18 27/37/18
f 32/38/19 29/39/19 31/39/19
f 30/38/20 25/34/20 29/39/20
f 27/37/5 29/36/5 25/40/5
f 28/35/16 30/41/16 32/41/16
f 34/42/21 35/43/21 33/44/21
f 36/45/22 37/46/22 35/43/22
f 38/47/23 39/48/23 37/46/23
f 40/49/24 41/50/24 39/48/24
f 41/50/25 44/51/25 43/52/25
f 44/51/26 45/53/26 43/52/26
f 46/54/27 47/55/27 45/53/27
f 48/56/28 49/57/28 47/55/28
f 50/58/29 51/59/29 49/57/29
f 52/60/30 53/61/30 51/59/30
f 53/61/31 56/62/31 55/63/31
f 56/62/32 57/64/32 55/63/32
f 58/65/33 59/66/33 57/64/33
f 60/67/34 61/68/34 59/66/34
f 62/69/35 63/70/35 61/68/35
f 63/70/36 66/71/36 65/72/36
f 66/71/37 67/73/37 65/72/37
f 67/73/38 70/74/38 69/75/38
f 70/74/39 71/76/39 69/75/39
f 72/77/40 73/78/40 71/76/40
f 74/79/41 75/80/41 73/78/41
f 76/81/42 77/82/42 75/80/42
f 78/83/43 79/84/43 77/82/43
f 80/85/44 81/86/44 79/84/44
f 82/87/45 83/88/45 81/86/45
f 84/89/46 85/90/46 83/88/46
f 86/91/47 87/92/47 85/90/47
f 88/93/48 89/94/48 87/92/48
f 89/94/49 92/95/49 91/96/49
f 91/96/50 94/97/50 93/98/50
f 86/91/5 70/74/5 54/99/5
f 94/97/51 95/100/51 93/98/51
f 96/101/52 33/44/52 95/100/52
f 63/102/16 79/103/16 95/104/16
f 98/42/21 99/43/21 97/44/21
f 100/45/22 101/46/22 99/43/22
f 102/47/23 103/48/23 101/46/23
f 104/49/24 105/50/24 103/48/24
f 106/105/25 107/52/25 105/50/25
f 108/51/26 109/53/26 107/52/26
f 110/54/27 111/55/27 109/53/27
f 112/56/28 113/57/28 111/55/28
f 114/58/29 115/59/29 113/57/29
f 116/60/30 117/61/30 115/59/30
f 118/99/31 119/63/31 117/61/31
f 119/63/32 122/65/32 121/64/32
f 121/64/33 124/67/33 123/66/33
f 124/67/34 125/68/34 123/66/34
f 126/69/35 127/70/35 125/68/35
f 128/106/36 129/72/36 127/70/36
f 130/71/37 131/73/37 129/72/37
f 131/73/38 134/74/38 133/75/38
f 134/74/39 135/76/39 133/75/39
f 136/77/40 137/78/40 135/76/40
f 138/79/41 139/80/41 137/78/41
f 140/81/42 141/82/42 139/80/42
f 142/83/43 143/84/43 141/82/43
f 144/85/44 145/86/44 143/84/44
f 146/87/45 147/88/45 145/86/45
f 147/88/46 150/91/46 149/90/46
f 149/90/47 152/93/47 151/92/47
f 152/93/48 153/94/48 151/92/48
f 154/107/49 155/96/49 153/94/49
f 156/95/50 157/98/50 155/96/50
f 134/74/5 118/99/5 102/47/5
f 158/97/51 159/100/51 157/98/51
f 159/100/52 98/42/52 97/44/52
f 127/102/16 143/103/16 159/104/16
f 162/42/21 163/43/21 161/44/21
f 164/45/22 165/46/22 163/43/22
f 166/47/23 167/48/23 165/46/23
f 168/49/24 169/50/24 167/48/24
f 169/50/25 172/51/25 171/52/25
f 172/51/26 173/53/26 171/52/26
f 174/54/27 175/55/27 173/53/27
f 176/56/28 177/57/28 175/55/28
f 178/58/29 179/59/29 177/57/29
f 180/60/30 181/61/30 179/59/30
f 182/99/31 183/63/31 181/61/31
f 184/62/32 185/64/32 183/63/32
f 186/65/33 187/66/33 185/64/33
f 187/66/34 190/69/34 189/68/34
f 190/69/35 191/70/35 189/68/35
f 192/106/36 193/72/36 191/70/36
f 194/71/37 195/73/37 193/72/37
f 196/108/38 197/75/38 195/73/38
f 198/74/39 199/76/39 197/75/39
f 200/77/40 201/78/40 199/76/40
f 202/79/41 203/80/41 201/78/41
f 204/81/42 205/82/42 203/80/42
f 206/83/43 207/84/43 205/82/43
f 208/85/44 209/86/44 207/84/44
f 210/87/45 211/88/45 209/86/45
f 212/89/46 213/90/46 211/88/46
f 214/91/47 215/92/47 213/90/47
f 216/93/48 217/94/48 215/92/48
f 218/107/49 219/96/49 217/94/49
f 220/95/50 221/98/50 219/96/50
f 198/74/5 182/99/5 166/47/5
f 222/97/51 223/100/51 221/98/51
f 224/101/52 161/44/52 223/100/52
f 191/102/16 207/103/16 223/104/16
f 226/42/21 227/43/21 225/44/21
f 227/43/22 230/47/22 229/46/22
f 230/47/23 231/48/23 229/46/23
f 232/49/24 233/50/24 231/48/24
f 233/50/25 236/51/25 235/52/25
f 236/51/26 237/53/26 235/52/26
f 238/54/27 239/55/27 237/53/27
f 240/56/28 241/57/28 239/55/28
f 242/58/29 243/59/29 241/57/29
f 244/60/30 245/61/30 243/59/30
f 245/61/31 248/62/31 247/63/31
f 247/63/32 250/65/32 249/64/32
f 250/65/33 251/66/33 249/64/33
f 252/67/34 253/68/34 251/66/34
f 254/69/35 255/70/35 253/68/35
f 256/106/36 257/72/36 255/70/36
f 258/71/37 259/73/37 257/72/37
f 259/73/38 262/74/38 261/75/38
f 262/74/39 263/76/39 261/75/39
f 264/77/40 265/78/40 263/76/40
f 266/79/41 267/80/41 265/78/41
f 268/81/42 269/82/42 267/80/42
f 270/83/43 271/84/43 269/82/43
f 272/85/44 273/86/44 271/84/44
f 274/87/45 275/88/45 273/86/45
f 276/89/46 277/90/46 275/88/46
f 278/91/47 279/92/47 277/90/47
f 280/93/48 281/94/48 279/92/48
f 282/107/49 283/96/49 281/94/49
f 284/95/50 285/98/50 283/96/50
f 262/74/5 246/99/5 230/47/5
f 286/97/51 287/100/51 285/98/51
f 287/100/52 226/42/52 225/44/52
f 255/102/16 271/103/16 287/104/16
f 2/1/53 4/3/53 3/2/53
f 4/3/2 8/109/2 7/4/2
f 7/4/54 8/109/54 6/5/54
f 6/5/4 2/1/4 1/1/4
f 7/4/5 5/5/5 1/1/5
f 4/6/6 2/110/6 6/7/6
f 9/9/7 10/21/7 12/10/7
f 12/10/8 16/13/8 15/12/8
f 16/13/9 14/20/9 13/14/9
f 14/15/4 10/111/4 9/16/4
f 15/18/10 13/17/10 9/16/10
f 12/10/11 10/21/11 14/20/11
f 18/21/12 20/21/12 19/22/12
f 20/23/13 24/30/13 23/24/13
f 24/26/14 22/29/14 21/27/14
f 22/29/15 18/21/15 17/22/15
f 23/24/5 21/112/5 17/25/5
f 24/30/16 20/23/16 18/23/16
f 26/32/17 28/113/17 27/33/17
f 28/35/18 32/41/18 31/36/18
f 32/38/19 30/38/19 29/39/19
f 30/38/20 26/32/20 25/34/20
f 27/37/5 31/36/5 29/36/5
f 28/35/16 26/114/16 30/41/16
f 34/42/21 36/45/21 35/43/21
f 36/45/22 38/47/22 37/46/22
f 38/47/23 40/49/23 39/48/23
f 40/49/24 42/105/24 41/50/24
f 41/50/25 42/105/25 44/51/25
f 44/51/26 46/54/26 45/53/26
f 46/54/27 48/56/27 47/55/27
f 48/56/28 50/58/28 49/57/28
f 50/58/29 52/60/29 51/59/29
f 52/60/30 54/99/30 53/61/30
f 53/61/31 54/99/31 56/62/31
f 56/62/32 58/65/32 57/64/32
f 58/65/33 60/67/33 59/66/33
f 60/67/34 62/69/34 61/68/34
f 62/69/35 64/106/35 63/70/35
f 63/70/36 64/106/36 66/71/36
f 66/71/37 68/108/37 67/73/37
f 67/73/38 68/108/38 70/74/38
f 70/74/39 72/77/39 71/76/39
f 72/77/40 74/79/40 73/78/40
f 74/79/41 76/81/41 75/80/41
f 76/81/42 78/83/42 77/82/42
f 78/83/43 80/85/43 79/84/43
f 80/85/44 82/87/44 81/86/44
f 82/87/45 84/89/45 83/88/45
f 84/89/46 86/91/46 85/90/46
f 86/91/47 88/93/47 87/92/47
f 88/93/48 90/107/48 89/94/48
f 89/94/49 90/107/49 92/95/49
f 91/96/50 92/95/50 94/97/50
f 38/47/5 36/45/5 34/42/5
f 34/42/5 96/101/5 38/47/5
f 96/101/5 94/97/5 38/47/5
f 94/97/5 92/95/5 90/107/5
f 90/107/5 88/93/5 94/97/5
f 88/93/5 86/91/5 94/97/5
f 86/91/5 84/89/5 78/83/5
f 84/89/5 82/87/5 78/83/5
f 82/87/5 80/85/5 78/83/5
f 78/83/5 76/81/5 74/79/5
f 74/79/5 72/77/5 78/83/5
f 72/77/5 70/74/5 78/83/5
f 70/74/5 68/108/5 66/71/5
f 66/71/5 64/106/5 62/69/5
f 62/69/5 60/67/5 58/65/5
f 58/65/5 56/62/5 54/99/5
f 54/99/5 52/60/5 50/58/5
f 50/58/5 48/56/5 54/99/5
f 48/56/5 46/54/5 54/99/5
f 46/54/5 44/51/5 42/105/5
f 42/105/5 40/49/5 38/47/5
f 70/74/5 66/71/5 54/99/5
f 66/71/5 62/69/5 54/99/5
f 62/69/5 58/65/5 54/99/5
f 46/54/5 42/105/5 38/47/5
f 38/47/5 94/97/5 86/91/5
f 86/91/5 78/83/5 70/74/5
f 54/99/5 46/54/5 38/47/5
f 38/47/5 86/91/5 54/99/5
f 94/97/51 96/101/51 95/100/51
f 96/101/52 34/42/52 33/44/52
f 95/104/16 33/115/16 35/116/16
f 35/116/16 37/117/16 39/118/16
f 39/118/16 41/119/16 47/120/16
f 41/119/16 43/121/16 47/120/16
f 43/121/16 45/122/16 47/120/16
f 47/120/16 49/123/16 51/124/16
f 51/124/16 53/125/16 55/126/16
f 55/126/16 57/127/16 63/102/16
f 57/127/16 59/128/16 63/102/16
f 59/128/16 61/129/16 63/102/16
f 63/102/16 65/130/16 67/131/16
f 67/131/16 69/132/16 71/133/16
f 71/133/16 73/134/16 79/103/16
f 73/134/16 75/135/16 79/103/16
f 75/135/16 77/136/16 79/103/16
f 79/103/16 81/137/16 83/138/16
f 83/138/16 85/139/16 87/140/16
f 87/140/16 89/141/16 95/104/16
f 89/141/16 91/142/16 95/104/16
f 91/142/16 93/143/16 95/104/16
f 95/104/16 35/116/16 47/120/16
f 35/116/16 39/118/16 47/120/16
f 47/120/16 51/124/16 55/126/16
f 63/102/16 67/131/16 79/103/16
f 67/131/16 71/133/16 79/103/16
f 79/103/16 83/138/16 95/104/16
f 83/138/16 87/140/16 95/104/16
f 47/120/16 55/126/16 95/104/16
f 55/126/16 63/102/16 95/104/16
f 98/42/21 100/45/21 99/43/21
f 100/45/22 102/47/22 101/46/22
f 102/47/23 104/49/23 103/48/23
f 104/49/24 106/105/24 105/50/24
f 106/105/25 108/51/25 107/52/25
f 108/51/26 110/54/26 109/53/26
f 110/54/27 112/56/27 111/55/27
f 112/56/28 114/58/28 113/57/28
f 114/58/29 116/60/29 115/59/29
f 116/60/30 118/99/30 117/61/30
f 118/99/31 120/62/31 119/63/31
f 119/63/32 120/62/32 122/65/32
f 121/64/33 122/65/33 124/67/33
f 124/67/34 126/69/34 125/68/34
f 126/69/35 128/106/35 127/70/35
f 128/106/36 130/71/36 129/72/36
f 130/71/37 132/108/37 131/73/37
f 131/73/38 132/108/38 134/74/38
f 134/74/39 136/77/39 135/76/39
f 136/77/40 138/79/40 137/78/40
f 138/79/41 140/81/41 139/80/41
f 140/81/42 142/83/42 141/82/42
f 142/83/43 144/85/43 143/84/43
f 144/85/44 146/87/44 145/86/44
f 146/87/45 148/89/45 147/88/45
f 147/88/46 148/89/46 150/91/46
f 149/90/47 150/91/47 152/93/47
f 152/93/48 154/107/48 153/94/48
f 154/107/49 156/95/49 155/96/49
f 156/95/50 158/97/50 157/98/50
f 102/47/5 100/45/5 158/97/5
f 100/45/5 98/42/5 158/97/5
f 98/42/5 160/101/5 158/97/5
f 158/97/5 156/95/5 154/107/5
f 154/107/5 152/93/5 158/97/5
f 152/93/5 150/91/5 158/97/5
f 150/91/5 148/89/5 142/83/5
f 148/89/5 146/87/5 142/83/5
f 146/87/5 144/85/5 142/83/5
f 142/83/5 140/81/5 138/79/5
f 138/79/5 136/77/5 142/83/5
f 136/77/5 134/74/5 142/83/5
f 134/74/5 132/108/5 130/71/5
f 130/71/5 128/106/5 126/69/5
f 126/69/5 124/67/5 118/99/5
f 124/67/5 122/65/5 118/99/5
f 122/65/5 120/62/5 118/99/5
f 118/99/5 116/60/5 114/58/5
f 114/58/5 112/56/5 118/99/5
f 112/56/5 110/54/5 118/99/5
f 110/54/5 108/51/5 106/105/5
f 106/105/5 104/49/5 102/47/5
f 134/74/5 130/71/5 118/99/5
f 130/71/5 126/69/5 118/99/5
f 110/54/5 106/105/5 102/47/5
f 102/47/5 158/97/5 150/91/5
f 150/91/5 142/83/5 102/47/5
f 142/83/5 134/74/5 102/47/5
f 118/99/5 110/54/5 102/47/5
f 158/97/51 160/101/51 159/100/51
f 159/100/52 160/101/52 98/42/52
f 159/104/16 97/115/16 99/116/16
f 99/116/16 101/117/16 103/118/16
f 103/118/16 105/119/16 111/120/16
f 105/119/16 107/121/16 111/120/16
f 107/121/16 109/122/16 111/120/16
f 111/120/16 113/123/16 119/126/16
f 113/123/16 115/124/16 119/126/16
f 115/124/16 117/125/16 119/126/16
f 119/126/16 121/127/16 127/102/16
f 121/127/16 123/128/16 127/102/16
f 123/128/16 125/129/16 127/102/16
f 127/102/16 129/130/16 135/133/16
f 129/130/16 131/131/16 135/133/16
f 131/131/16 133/132/16 135/133/16
f 135/133/16 137/134/16 139/135/16
f 139/135/16 141/136/16 143/103/16
f 143/103/16 145/137/16 147/138/16
f 147/138/16 149/139/16 143/103/16
f 149/139/16 151/140/16 143/103/16
f 151/140/16 153/141/16 159/104/16
f 153/141/16 155/142/16 159/104/16
f 155/142/16 157/143/16 159/104/16
f 159/104/16 99/116/16 111/120/16
f 99/116/16 103/118/16 111/120/16
f 135/133/16 139/135/16 127/102/16
f 139/135/16 143/103/16 127/102/16
f 111/120/16 119/126/16 159/104/16
f 119/126/16 127/102/16 159/104/16
f 143/103/16 151/140/16 159/104/16
f 162/42/21 164/45/21 163/43/21
f 164/45/22 166/47/22 165/46/22
f 166/47/23 168/49/23 167/48/23
f 168/49/24 170/105/24 169/50/24
f 169/50/25 170/105/25 172/51/25
f 172/51/26 174/54/26 173/53/26
f 174/54/27 176/56/27 175/55/27
f 176/56/28 178/58/28 177/57/28
f 178/58/29 180/60/29 179/59/29
f 180/60/30 182/99/30 181/61/30
f 182/99/31 184/62/31 183/63/31
f 184/62/32 186/65/32 185/64/32
f 186/65/33 188/67/33 187/66/33
f 187/66/34 188/67/34 190/69/34
f 190/69/35 192/106/35 191/70/35
f 192/106/36 194/71/36 193/72/36
f 194/71/37 196/108/37 195/73/37
f 196/108/38 198/74/38 197/75/38
f 198/74/39 200/77/39 199/76/39
f 200/77/40 202/79/40 201/78/40
f 202/79/41 204/81/41 203/80/41
f 204/81/42 206/83/42 205/82/42
f 206/83/43 208/85/43 207/84/43
f 208/85/44 210/87/44 209/86/44
f 210/87/45 212/89/45 211/88/45
f 212/89/46 214/91/46 213/90/46
f 214/91/47 216/93/47 215/92/47
f 216/93/48 218/107/48 217/94/48
f 218/107/49 220/95/49 219/96/49
f 220/95/50 222/97/50 221/98/50
f 166/47/5 164/45/5 222/97/5
f 164/45/5 162/42/5 222/97/5
f 162/42/5 224/101/5 222/97/5
f 222/97/5 220/95/5 218/107/5
f 218/107/5 216/93/5 214/91/5
f 214/91/5 212/89/5 206/83/5
f 212/89/5 210/87/5 206/83/5
f 210/87/5 208/85/5 206/83/5
f 206/83/5 204/81/5 202/79/5
f 202/79/5 200/77/5 198/74/5
f 198/74/5 196/108/5 194/71/5
f 194/71/5 192/106/5 190/69/5
f 190/69/5 188/67/5 182/99/5
f 188/67/5 186/65/5 182/99/5
f 186/65/5 184/62/5 182/99/5
f 182/99/5 180/60/5 178/58/5
f 178/58/5 176/56/5 182/99/5
f 176/56/5 174/54/5 182/99/5
f 174/54/5 172/51/5 170/105/5
f 170/105/5 168/49/5 166/47/5
f 222/97/5 218/107/5 214/91/5
f 206/83/5 202/79/5 198/74/5
f 198/74/5 194/71/5 182/99/5
f 194/71/5 190/69/5 182/99/5
f 174/54/5 170/105/5 166/47/5
f 166/47/5 222/97/5 214/91/5
f 214/91/5 206/83/5 166/47/5
f 206/83/5 198/74/5 166/47/5
f 182/99/5 174/54/5 166/47/5
f 222/97/51 224/101/51 223/100/51
f 224/101/52 162/42/52 161/44/52
f 223/104/16 161/115/16 163/116/16
f 163/116/16 165/117/16 167/118/16
f 167/118/16 169/119/16 175/120/16
f 169/119/16 171/121/16 175/120/16
f 171/121/16 173/122/16 175/120/16
f 175/120/16 177/123/16 183/126/16
f 177/123/16 179/124/16 183/126/16
f 179/124/16 181/125/16 183/126/16
f 183/126/16 185/127/16 191/102/16
f 185/127/16 187/128/16 191/102/16
f 187/128/16 189/129/16 191/102/16
f 191/102/16 193/130/16 195/131/16
f 195/131/16 197/132/16 199/133/16
f 199/133/16 201/134/16 207/103/16
f 201/134/16 203/135/16 207/103/16
f 203/135/16 205/136/16 207/103/16
f 207/103/16 209/137/16 211/138/16
f 211/138/16 213/139/16 215/140/16
f 215/140/16 217/141/16 223/104/16
f 217/141/16 219/142/16 223/104/16
f 219/142/16 221/143/16 223/104/16
f 223/104/16 163/116/16 175/120/16
f 163/116/16 167/118/16 175/120/16
f 191/102/16 195/131/16 207/103/16
f 195/131/16 199/133/16 207/103/16
f 207/103/16 211/138/16 223/104/16
f 211/138/16 215/140/16 223/104/16
f 175/120/16 183/126/16 223/104/16
f 183/126/16 191/102/16 223/104/16
f 226/42/21 228/45/21 227/43/21
f 227/43/22 228/45/22 230/47/22
f 230/47/23 232/49/23 231/48/23
f 232/49/24 234/105/24 233/50/24
f 233/50/25 234/105/25 236/51/25
f 236/51/26 238/54/26 237/53/26
f 238/54/27 240/56/27 239/55/27
f 240/56/28 242/58/28 241/57/28
f 242/58/29 244/60/29 243/59/29
f 244/60/30 246/99/30 245/61/30
f 245/61/31 246/99/31 248/62/31
f 247/63/32 248/62/32 250/65/32
f 250/65/33 252/67/33 251/66/33
f 252/67/34 254/69/34 253/68/34
f 254/69/35 256/106/35 255/70/35
f 256/106/36 258/71/36 257/72/36
f 258/71/37 260/108/37 259/73/37
f 259/73/38 260/108/38 262/74/38
f 262/74/39 264/77/39 263/76/39
f 264/77/40 266/79/40 265/78/40
f 266/79/41 268/81/41 267/80/41
f 268/81/42 270/83/42 269/82/42
f 270/83/43 272/85/43 271/84/43
f 272/85/44 274/87/44 273/86/44
f 274/87/45 276/89/45 275/88/45
f 276/89/46 278/91/46 277/90/46
f 278/91/47 280/93/47 279/92/47
f 280/93/48 282/107/48 281/94/48
f 282/107/49 284/95/49 283/96/49
f 284/95/50 286/97/50 285/98/50
f 230/47/5 228/45/5 286/97/5
f 228/45/5 226/42/5 286/97/5
f 226/42/5 288/101/5 286/97/5
f 286/97/5 284/95/5 282/107/5
f 282/107/5 280/93/5 286/97/5
f 280/93/5 278/91/5 286/97/5
f 278/91/5 276/89/5 270/83/5
f 276/89/5 274/87/5 270/83/5
f 274/87/5 272/85/5 270/83/5
f 270/83/5 268/81/5 266/79/5
f 266/79/5 264/77/5 270/83/5
f 264/77/5 262/74/5 270/83/5
f 262/74/5 260/108/5 258/71/5
f 258/71/5 256/106/5 254/69/5
f 254/69/5 252/67/5 246/99/5
f 252/67/5 250/65/5 246/99/5
f 250/65/5 248/62/5 246/99/5
f 246/99/5 244/60/5 242/58/5
f 242/58/5 240/56/5 246/99/5
f 240/56/5 238/54/5 246/99/5
f 238/54/5 236/51/5 234/105/5
f 234/105/5 232/49/5 230/47/5
f 262/74/5 258/71/5 246/99/5
f 258/71/5 254/69/5 246/99/5
f 238/54/5 234/105/5 230/47/5
f 230/47/5 286/97/5 278/91/5
f 278/91/5 270/83/5 230/47/5
f 270/83/5 262/74/5 230/47/5
f 246/99/5 238/54/5 230/47/5
f 286/97/51 288/101/51 287/100/51
f 287/100/52 288/101/52 226/42/52
f 287/104/16 225/115/16 227/116/16
f 227/116/16 229/117/16 231/118/16
f 231/118/16 233/119/16 235/121/16
f 235/121/16 237/122/16 231/118/16
f 237/122/16 239/120/16 231/118/16
f 239/120/16 241/123/16 247/126/16
f 241/123/16 243/124/16 247/126/16
f 243/124/16 245/125/16 247/126/16
f 247/126/16 249/127/16 255/102/16
f 249/127/16 251/128/16 255/102/16
f 251/128/16 253/129/16 255/102/16
f 255/102/16 257/130/16 259/131/16
f 259/131/16 261/132/16 263/133/16
f 263/133/16 265/134/16 271/103/16
f 265/134/16 267/135/16 271/103/16
f 267/135/16 269/136/16 271/103/16
f 271/103/16 273/137/16 275/138/16
f 275/138/16 277/139/16 279/140/16
f 279/140/16 281/141/16 287/104/16
f 281/141/16 283/142/16 287/104/16
f 283/142/16 285/143/16 287/104/16
f 287/104/16 227/116/16 239/120/16
f 227/116/16 231/118/16 239/120/16
f 255/102/16 259/131/16 271/103/16
f 259/131/16 263/133/16 271/103/16
f 271/103/16 275/138/16 287/104/16
f 275/138/16 279/140/16 287/104/16
f 239/120/16 247/126/16 287/104/16
f 247/126/16 255/102/16 287/104/16
