mtllib Debris_Archway.mtl
o tripo_node_f07cf94a-1535-4ed8-a8e9-55009b85c2e1
g tripo_node_f07cf94a-1535-4ed8-a8e9-55009b85c2e1
usemtl tripo_material_f07cf94a_1535_4ed8_a8e9_55009b85c2e1
v 0.344329804 0.108367890 -0.369247496
vt 0.722900391 0.118896484
vn 0.456976205 -0.504249752 -0.732737958
v 0.404418916 0.315368652 -0.376602232
vt 0.802734375 0.114990234
vn 0.694292188 0.157793701 -0.702182055
v 0.432617158 0.184020996 -0.386428893
vt 0.763671875 0.136230469
vn 0.892813504 -0.276535153 -0.355545342
v 0.430999726 0.243667603 -0.255630553
vt 0.777587891 0.193847656
vn 0.992402971 -0.094514526 -0.078762263
v 0.416320801 0.070648223 -0.198516890
vt 0.713134766 0.172363281
vn 0.763945341 -0.606430769 -0.220520377
v 0.416412324 0.425199509 -0.214477599
vt 0.852783203 0.170410156
vn 0.995215952 0.023695657 -0.094782598
v 0.420898438 0.126464874 -0.130386412
vt 0.779541016 0.235595703
vn 0.992864966 -0.118198164 -0.015759885
v 0.415100098 0.268997192 -0.028558791
vt 0.841796875 0.256591797
vn 0.998762369 0.015728582 -0.047185756
v 0.419860840 0.419147521 -0.039726324
vt 0.880615234 0.227050781
vn 0.998484433 0.000000041 -0.055034705
v 0.338897645 0.414409637 -0.392684996
vt 0.841796875 0.093994141
vn 0.496849030 0.023659468 -0.867514431
v 0.396179140 0.543426514 -0.389755309
vt 0.884765625 0.099365234
vn 0.629063666 -0.102222875 -0.770603240
v 0.283966035 0.278274536 -0.397811949
vt 0.784423828 0.075195312
vn 0.047098190 -0.062797800 -0.996914387
v 0.181076035 0.137847871 -0.381057799
vt 0.728271484 0.047119141
vn -0.023672119 -0.205157369 -0.978442669
v 0.235382065 0.010742188 -0.333358765
vt 0.684570312 0.080078125
vn -0.015757347 -0.858773768 -0.512112737
v 0.116699204 0.086822480 -0.361587524
vt 0.705078125 0.028076172
vn -0.464494973 -0.645569205 -0.606205225
v 0.132507294 0.252624512 -0.385360718
vt 0.770507812 0.021484375
vn 0.062978335 -0.110212356 -0.991910815
v 0.243530244 0.404926300 -0.393508971
vt 0.835693359 0.059326172
vn 0.015741557 0.023612490 -0.999597251
v 0.239837617 0.516891479 -0.382095397
vt 0.865966797 0.051025391
vn 0.015733765 -0.039334778 -0.999102235
vt 0.538085938 0.534423828
v 0.270996094 0.018585205 -0.208633453
vt 0.604492188 0.558349609
vn 0.197580665 -0.979999900 -0.023709659
vt 0.562011719 0.583984375
vt 0.607910156 0.499755859
v 0.190231323 0.046844482 -0.216293350
vt 0.609619141 0.594238281
vn -0.322954774 -0.945233583 -0.047261596
vt 0.552978516 0.634033203
v 0.066715226 0.123535156 -0.346054077
vt 0.562744141 0.655029297
vn 0.197021440 -0.788085938 -0.583183587
v 0.032547954 0.065460205 -0.202438354
vt 0.625244141 0.651855469
vn 0.180738568 -0.974416494 -0.133589342
v 0.139488250 0.066589355 -0.096916214
vt 0.658203125 0.604980469
vn -0.054992069 -0.997713923 -0.039280023
v 0.015354176 0.045959473 -0.086502075
vt 0.666503906 0.651367188
vn 0.023603812 -0.999225974 0.031471726
v 0.140182525 0.038085938 -0.076080337
vt 0.671875000 0.608154297
vn -0.062850013 -0.997744679 0.023568822
v 0.342590332 0.048980713 -0.128250167
vt 0.639160156 0.526855469
vn 0.149103373 -0.988790512 0.007847568
v 0.236557037 0.036773682 -0.037458442
vt 0.684814453 0.570556641
vn -0.078555286 -0.974085748 -0.212099269
v 0.187408492 0.022155762 0.098358124
vt 0.722412109 0.610351562
vn -0.244321793 -0.969406009 0.023644123
vt 0.633300781 0.478515625
vt 0.598388672 0.462646484
v 0.367980957 0.020813018 -0.067600295
vt 0.665527344 0.517822266
vn 0.363514334 -0.916688263 -0.165952176
v 0.292907745 0.015289307 0.081634492
vt 0.725341797 0.536376953
vn 0.125723436 -0.990071774 0.062861726
v 0.436645538 0.067108184 0.064170778
vt 0.702392578 0.473388672
vn 0.915431440 -0.402474135 -0.000000102
vt 0.651123047 0.414062500
v 0.429962188 0.144409209 0.134017885
vt 0.722656250 0.435791016
vn 0.990989983 -0.086514965 -0.102245115
v 0.430572540 0.311264038 0.062759340
vt 0.677978516 0.380126953
vn 0.995371222 0.015799582 -0.094797388
v 0.430664062 0.389953643 0.045242250
vt 0.673095703 0.354003906
vn 0.999102235 0.015733935 -0.039334863
vt 0.653564453 0.350097656
vt 0.818359375 0.491943359
vt 0.803955078 0.514892578
vt 0.808593750 0.458007812
vt 0.788330078 0.509277344
v -0.082931541 0.118377656 -0.421401978
vt 0.724121094 0.491699219
vn 0.236286327 -0.330801010 -0.913640857
v -0.077476509 0.015777588 -0.314773560
vt 0.733154297 0.546142578
vn 0.282755464 -0.918955266 -0.274901122
vt 0.778808594 0.563720703
v -0.099746704 0.033691406 -0.240386948
vt 0.729980469 0.572265625
vn 0.070654035 -0.997006476 -0.031401742
v 0.012852633 0.363616943 -0.400558472
vt 0.768066406 0.407226562
vn 0.133642867 0.031445377 -0.990530550
v 0.116081208 0.332534790 -0.393386841
vt 0.803955078 0.426757812
vn 0.031471554 -0.023603804 -0.999225974
vt 0.853271484 0.409912109
v -0.058197059 0.538536072 -0.399642944
vt 0.770996094 0.339111328
vn 0.031455975 0.039320089 -0.998731434
vt 0.866699219 0.371093750
v -0.024688676 0.055114746 0.106109619
vt 0.327392578 0.712402344
vn 0.015722258 -0.998361051 -0.055027734
vt 0.249511719 0.720703125
vt 0.238281250 0.670654297
v 0.157363936 0.076812744 0.082786545
vt 0.297851562 0.643066406
vn -0.118515044 -0.987625599 -0.102713004
v 0.043987341 0.013580322 0.250411987
vt 0.378173828 0.669677734
vn -0.047138963 -0.997775495 -0.047138948
v -0.097343393 0.061340332 0.151107788
vt 0.351074219 0.737548828
vn 0.007865037 -0.998854995 -0.047189955
v 0.198562682 0.020629883 0.194503754
vt 0.341796875 0.613525391
vn -0.063219853 -0.987810552 -0.142244652
v -0.141769335 0.041961670 0.252151549
vt 0.395019531 0.744628906
vn 0.118033461 -0.991480768 -0.055082235
v 0.136146620 0.018890381 0.298202515
vt 0.387695312 0.628173828
vn 0.055186678 -0.930288196 0.362654746
v -0.174972460 0.058319092 0.320694029
vt 0.425048828 0.752441406
vn -0.102043100 -0.667205572 0.737850964
v 0.095375136 0.082366973 0.332046509
vt 0.417236328 0.642822266
vn 0.172998026 -0.613356113 0.770626962
v 0.256683409 0.051239014 0.322586060
vt 0.400146484 0.577636719
vn -0.164899871 -0.753828645 0.636042893
v 0.124931410 0.154602081 0.361648560
vt 0.441162109 0.618896484
vn 0.031450413 -0.220151886 0.974958539
v -0.002983011 0.047882110 0.390914917
vt 0.435791016 0.687988281
vn 0.086838037 -0.552604735 0.828907251
v -0.118331820 0.115142852 0.385391235
vt 0.458251953 0.727783203
vn -0.251937151 -0.118095562 0.960510910
v -0.172073290 0.294754028 0.376815796
vt 0.520019531 0.770996094
vn -0.023608748 -0.023608839 0.999442518
v -0.017967150 0.232299820 0.382522583
vt 0.499267578 0.649169922
vn 0.007873658 0.007873571 0.999938011
v -0.084205560 0.435171157 0.370437622
vt 0.582031250 0.747802734
vn -0.007873397 0.007873571 0.999938011
v 0.138732985 0.282638550 0.391433716
vt 0.481445312 0.584228516
vn 0.015715074 -0.062859714 0.997898698
v 0.016905852 0.370842010 0.380783081
vt 0.537353516 0.605957031
vn -0.063125208 0.086797379 0.994224012
v 0.190399244 0.406085998 0.382644594
vt 0.511230469 0.538574219
vn -0.023603633 0.031471729 0.999225974
v 0.416717529 0.563377380 -0.045320582
vt 0.742919922 0.655273438
vn 0.999938011 -0.007873484 -0.007873659
vt 0.777343750 0.615722656
vt 0.820556641 0.662109375
v 0.423004150 0.552589417 0.041408464
vt 0.723144531 0.630126953
vn 0.993111670 0.086700268 0.078818254
vt 0.762451172 0.585937500
v 0.416259736 0.603317261 -0.251541197
vt 0.785888672 0.718750000
vn 0.993512928 -0.094620235 -0.063080303
v 0.425476044 0.765441895 -0.174835294
vt 0.725830078 0.742187500
vn 0.995744109 0.047416434 0.079027183
v 0.383392274 0.647201538 -0.370468199
vt 0.807128906 0.761962891
vn 0.865069628 -0.078642681 -0.495449126
v 0.443969667 0.716979980 -0.323654234
vt 0.770507812 0.766845703
vn 0.973605216 -0.102071472 -0.204143152
v 0.432006776 0.896148682 -0.339065671
vt 0.732666016 0.819335938
vn 0.922834694 0.378598899 -0.070987411
vt 0.837646484 0.738525391
v 0.383392274 0.763946533 -0.398147643
vt 0.788330078 0.801757812
vn 0.259128451 -0.000000031 -0.965842962
v 0.297576845 0.639556885 -0.403945982
vt 0.827880859 0.788574219
vn 0.063237526 -0.063237697 -0.995993078
vt 0.876464844 0.781250000
vt 0.887207031 0.729736328
v 0.157394364 0.740020752 -0.405075133
vt 0.825683594 0.852294922
vn 0.047167994 -0.031445455 -0.998391926
v 0.179611146 0.921081543 -0.397872984
vt 0.778076172 0.896240234
vn -0.157793805 0.694292188 -0.702181995
v 0.389648378 0.910491943 -0.391159177
vt 0.746826172 0.840087891
vn 0.220780537 0.756962240 -0.615031898
v 0.336761415 0.914398193 -0.229293898
vt 0.686035156 0.843994141
vn -0.007894385 0.994688690 0.102626562
v 0.400085479 0.059173614 0.141677812
vt 0.105712891 0.886474609
vn 0.481375694 -0.875945926 -0.031565644
vt 0.094726562 0.918457031
vt 0.062500000 0.897460938
v 0.440734923 0.030242950 0.283340394
vt 0.071533203 0.848388672
vn 0.843881249 -0.536298275 0.015773395
vt 0.160400391 0.895263672
v 0.279998839 0.039245605 0.199890107
vt 0.149169922 0.839111328
vn 0.062859803 -0.997898698 0.015714975
vt 0.147460938 0.774658203
vt 0.185302734 0.769531250
vt 0.183837891 0.830810547
vt 0.204101562 0.882080078
vt 0.195556641 0.924316406
vt 0.229248047 0.873779297
vt 0.279052734 0.902099609
v 0.431671202 0.188751280 0.370925844
vt 0.686035156 0.266601562
vn 0.776261806 -0.062728152 0.627282083
v 0.361389220 0.017517120 0.380722046
vt 0.720703125 0.323730469
vn 0.141640216 -0.794758379 0.590167165
vt 0.672851562 0.345703125
vt 0.737304688 0.390625000
vt 0.769287109 0.329101562
v 0.305358946 0.112213165 0.386703432
vt 0.743164062 0.289306641
vn -0.110414229 -0.126187801 0.985842526
vt 0.812988281 0.271728516
v 0.262756407 0.239624053 0.374404848
vt 0.753662109 0.234130859
vn 0.000000133 -0.047191415 0.998885930
v 0.372100890 0.257354766 0.374435365
vt 0.705810547 0.234375000
vn 0.078475565 0.023542678 0.996638060
v 0.291015685 0.370521575 0.381942689
vt 0.732421875 0.185302734
vn 0.070669375 -0.023556368 0.997221589
v 0.389129698 0.418544799 0.368972719
vt 0.683593750 0.173828125
vn 0.639981508 0.055307094 0.766397417
v 0.435516417 0.327980071 0.360946596
vt 0.674316406 0.213378906
vn 0.870943308 0.164773107 0.462933689
v 0.450988799 0.260376006 0.224243104
vt 0.613525391 0.236328125
vn 0.999845147 0.015745636 0.007872664
vt 0.599609375 0.318847656
vt 0.552001953 0.260253906
v 0.421997100 0.459462196 0.190322816
vt 0.549072266 0.216064453
vn 0.987286627 0.071084671 -0.142169401
vt 0.519775391 0.256347656
v 0.449859649 0.481468230 0.297164857
vt 0.376953125 0.829833984
vn 0.955008686 -0.126282066 0.268349379
vt 0.431884766 0.774414062
vt 0.442138672 0.824462891
v 0.462280303 0.613433838 0.211334169
vt 0.430664062 0.869873047
vn 0.957636237 0.086344287 -0.274731815
vt 0.368408203 0.794433594
v 0.345123351 0.498371154 0.384506166
vt 0.336425781 0.821533203
vn 0.196600810 -0.102232300 0.975139380
v 0.445770323 0.609512329 0.382705629
vt 0.354736328 0.880859375
vn 0.878168225 -0.007840728 0.478287905
vt 0.331787109 0.760986328
v 0.337432891 0.690521240 0.392990053
vt 0.295654297 0.905029297
vn 0.086946465 0.023712683 0.995930731
vt 0.285156250 0.759765625
v 0.237335265 0.581481934 0.415115297
vt 0.287353516 0.851806641
vn -0.078845195 -0.149806097 0.985566676
v 0.235916197 0.625762939 0.394699037
vt 0.267578125 0.860351562
vn -0.039320000 -0.031456064 0.998731434
v 0.270370543 0.510227203 0.360641420
vt 0.302978516 0.815673828
vn -0.094371118 -0.157285362 0.983033836
v 0.077297263 0.647979736 0.373519897
vt 0.195556641 0.833007812
vn -0.047185495 -0.015728500 0.998762369
v 0.005138457 0.497089416 0.370315552
vt 0.197753906 0.746337891
vn -0.062867388 0.000000041 0.998021960
vt 0.226562500 0.708984375
vt 0.843994141 0.852050781
vt 0.873779297 0.901123047
vt 0.811523438 0.900390625
v 0.379730225 0.613662720 0.146072328
vt 0.891113281 0.846679688
vn 0.989919007 0.047139037 -0.133560628
v 0.419464111 0.707336426 0.059974581
vt 0.875976562 0.806640625
vn 0.989552617 -0.125657424 0.070682205
vt 0.923095703 0.863281250
v 0.405181915 0.690017700 0.180480897
vt 0.915039062 0.825195312
vn 0.985658526 -0.102508448 -0.134049699
v 0.434875488 0.834991455 0.060256869
vt 0.888183594 0.758789062
vn 0.832583368 0.526255608 -0.172800481
vt 0.983398438 0.862060547
vt 0.972412109 0.901123047
v 0.452636749 0.810089111 0.309554935
vt 0.965087891 0.782470703
vn 0.985689163 0.165595815 0.031541914
v 0.458984375 0.844635010 0.174514681
vt 0.924804688 0.764892578
vn 0.977621377 0.204985172 -0.047304396
v 0.356689453 0.923645020 0.187469423
vt 0.937500000 0.718017578
vn 0.258777708 0.956693649 -0.133309841
vt 0.058349609 0.366455078
vt 0.057617188 0.425537109
vt 0.008544922 0.379882812
vt 0.011474609 0.432373047
vt 0.006103516 0.329833984
vt 0.062500000 0.626708984
v -0.246582061 0.005950928 -0.355514467
vt 0.143310547 0.619873047
vn 0.141859889 -0.977256954 -0.157622054
v -0.228332549 0.079376191 -0.429733217
vt 0.114746094 0.659667969
vn 0.110331915 -0.181259811 -0.977226615
vt 0.089355469 0.570068359
v -0.309143096 0.235885590 -0.427474976
vt 0.122558594 0.735351562
vn -0.039320268 0.031456064 -0.998731434
v -0.113952667 0.283432007 -0.427444458
vt 0.070312500 0.742919922
vn 0.070680007 0.015706660 -0.997375369
v -0.330963165 0.009887636 -0.433792055
vt 0.167236328 0.662353516
vn -0.054921065 -0.502134621 -0.863043845
v -0.441803008 0.186462343 -0.427383363
vt 0.190917969 0.742187500
vn -0.742000103 0.142085031 -0.655170083
v -0.425262481 0.046966493 -0.412124574
vt 0.207275391 0.681152344
vn -0.936253607 -0.291104108 -0.196691796
v -0.421051025 0.016082734 -0.274337709
vt 0.220947266 0.622314453
vn -0.677438378 -0.724701583 0.126035184
v -0.436676055 0.206634492 -0.216567934
vt 0.301025391 0.624267578
vn -0.999225974 0.039339561 0.000000129
v -0.162658677 0.051788330 -0.201324433
vt 0.142089844 0.543701172
vn 0.047168173 -0.998391926 0.031445451
vt 0.110351562 0.540039062
v -0.411224365 0.146942109 -0.142517030
vt 0.277832031 0.580810547
vn -0.916892946 -0.289957672 0.274284333
v -0.410858154 0.250534058 -0.122276254
vt 0.323242188 0.583496094
vn -0.966767251 -0.180777654 0.180777773
v -0.387817383 0.088409394 -0.060245458
vt 0.260986328 0.539550781
vn -0.779237747 -0.566718400 0.267617136
v -0.338592529 0.011871308 -0.168258622
vt 0.214355469 0.568359375
vn -0.361611038 -0.904027700 0.227972299
v -0.253875732 0.021026611 -0.137779191
vt 0.193115234 0.535888672
vn 0.102527678 -0.962182224 0.252375692
v -0.120025620 0.007324219 -0.124275178
vt 0.137451172 0.507080078
vn -0.015797015 -0.987317383 0.157970831
vt 0.081542969 0.489501953
vt 0.113525391 0.453857422
v -0.137084931 0.077575684 -0.002865769
vt 0.154541016 0.455322266
vn -0.110263526 -0.992372215 0.055131849
v -0.228515625 0.088043213 -0.102645844
vt 0.185302734 0.507568359
vn -0.102527522 -0.883314908 0.457430959
v -0.239837617 0.084777832 -0.001071893
vt 0.199951172 0.488037109
vn 0.133837536 -0.960481048 -0.244056627
vt 0.196533203 0.205566406
vt 0.250488281 0.173339844
vt 0.248535156 0.245361328
v -0.135116532 0.024322510 0.070152313
vt 0.204101562 0.240966797
vn 0.086716406 -0.969646931 -0.228615910
vt 0.229736328 0.271484375
vt 0.156738281 0.215820312
vt 0.163818359 0.184326172
v -0.195846498 0.032989502 0.152389556
vt 0.190673828 0.275634766
vn 0.078958347 -0.994874716 -0.063166611
vt 0.220458984 0.313720703
v -0.261413544 0.039794922 0.076721221
vt 0.159179688 0.253417969
vn -0.244763136 -0.931679010 -0.268449813
v -0.287689179 0.075988770 -0.006531671
vt 0.138916016 0.223876953
vn -0.243513852 -0.958345056 0.149250537
vt 0.124755859 0.176269531
vt 0.097412109 0.215576172
v -0.379608124 0.120086640 0.049385130
vt 0.106201172 0.256591797
vn -0.857576847 -0.511399090 -0.055073608
v -0.389068604 0.227355942 -0.015317746
vt 0.062744141 0.248779297
vn -0.983733654 -0.086568601 0.157397524
v -0.381561249 0.184356660 0.116821349
vt 0.080322266 0.285888672
vn -0.995744228 -0.079027362 -0.047416259
v -0.339202851 0.053771943 0.122207686
vt 0.136230469 0.280761719
vn -0.456127644 -0.888662577 -0.047185525
v -0.382903993 0.086791962 0.204452574
vt 0.120361328 0.313476562
vn -0.834749222 -0.527624547 0.157499984
v -0.400268495 0.192169189 0.329757750
vt 0.099853516 0.374755859
vn -0.897304118 -0.228261605 0.377812415
v -0.298126161 0.128723174 0.371505737
vt 0.150878906 0.375000000
vn -0.275573343 -0.433043987 0.858214557
v -0.333160341 0.320236206 0.386856139
vt 0.111816406 0.434326172
vn -0.268449724 -0.007895554 0.963261366
vt 0.202880859 0.439453125
vt 0.218505859 0.347656250
v -0.298919618 0.019683838 0.273666441
vt 0.166748047 0.327636719
vn -0.630488276 -0.709299445 0.315244287
v -0.193359300 0.000000000 0.290939391
vt 0.203125000 0.329101562
vn 0.015757876 -0.976983905 0.212730408
vt 0.211181641 0.021972656
vt 0.146484375 0.049072266
vt 0.131103516 0.000244141
v -0.380188018 0.327651948 -0.397201478
vt 0.184570312 0.094726562
vn -0.787377298 0.291329533 -0.543290198
vt 0.141113281 0.096191406
v -0.300872862 0.351768464 -0.436355591
vt 0.165527344 0.124511719
vn -0.078845464 0.149806097 -0.985566676
vt 0.106445312 0.133056641
v -0.285034239 0.458854645 -0.396926880
vt 0.188964844 0.149902344
vn -0.220009297 0.180721745 -0.958611369
v -0.118591338 0.349113464 -0.416152954
vt 0.154541016 0.170898438
vn 0.047088031 0.141264439 -0.988851488
v -0.398895293 0.426984757 -0.320907533
vt 0.229492188 0.106933594
vn -0.961106837 0.015755795 -0.275727212
v -0.417999327 0.623077393 -0.388320863
vt 0.240966797 0.171630859
vn -0.584073126 -0.189429134 -0.789287746
v -0.286132872 0.539291382 -0.356399536
vt 0.209228516 0.173339844
vn -0.039334863 0.015733849 -0.999102235
v -0.174545333 0.523200989 -0.400192261
vt 0.186767578 0.191162109
vn -0.063166782 0.078958265 -0.994874716
v -0.426696807 0.351608247 -0.192336991
vt 0.249511719 0.055419922
vn -0.989919007 0.141416952 -0.007856376
vt 0.248535156 0.011474609
v -0.403472900 0.412322968 -0.101837113
vt 0.286865234 0.055175781
vn -0.984374106 0.173249811 -0.031499848
v -0.390228301 0.569160461 -0.274978578
vt 0.271728516 0.108886719
vn -0.996392667 -0.070610546 0.047073804
v -0.400115967 0.554458618 -0.045492135
vt 0.330810547 0.053222656
vn -0.999938011 -0.007873571 -0.007873396
v -0.429046631 0.370559663 -0.113471940
vt 0.278076172 0.043212891
vn -0.942750871 0.086418763 -0.322106391
v -0.467742920 0.334907532 -0.075271554
vt 0.283203125 0.020751953
vn -0.992864966 0.015759723 0.118198335
vt 0.026367188 0.257812500
vt 0.000244141 0.178222656
vt 0.050292969 0.209472656
vt 0.009765625 0.124267578
vt 0.354736328 0.920166016
vt 0.293212891 0.912109375
vt 0.344970703 0.898681641
vt 0.391357422 0.857177734
vt 0.306884766 0.976806641
vt 0.353271484 0.992187500
vt 0.385009766 0.996826172
vt 0.507324219 0.208007812
vt 0.497314453 0.274658203
vt 0.469726562 0.226318359
v -0.412902832 0.385139465 0.037178084
vt 0.438964844 0.169921875
vn -0.879710734 -0.243491411 0.408437252
vt 0.489257812 0.169189453
v -0.379852295 0.357185364 0.055030867
vt 0.430664062 0.185791016
vn -0.996515274 -0.054926079 0.062772751
vt 0.426757812 0.256347656
v -0.412689209 0.380081177 -0.018343762
vt 0.456787109 0.158691406
vn -0.960153878 0.275453925 0.047220800
vt 0.477050781 0.131103516
vt 0.490966797 0.144287109
vt 0.431396484 0.095947266
v -0.393280029 0.471250534 0.041561171
vt 0.418457031 0.143066406
vn -0.997375369 -0.054973487 0.047120228
v -0.393096894 0.373077393 0.156082213
vt 0.393310547 0.195068359
vn -0.996392667 0.070610456 -0.047073543
v -0.386077881 0.582519531 0.130096480
vt 0.371826172 0.116943359
vn -0.995993078 -0.063237697 0.063237786
v -0.393920869 0.240997300 0.150650084
vt 0.408203125 0.239257812
vn -0.981789827 -0.023563007 -0.188503519
v -0.385314912 0.383079529 0.301803648
vt 0.341796875 0.213378906
vn -0.935501099 0.188672483 0.298731595
v -0.416931123 0.267303467 0.256881773
vt 0.366455078 0.240966797
vn -0.991757214 -0.086582020 0.094453208
vt 0.349853516 0.278076172
vt 0.305419922 0.239257812
v -0.411254823 0.347518921 0.359054625
vt 0.321289062 0.221679688
vn -0.883177459 0.212908834 0.417932332
v -0.295288026 0.460795403 0.354995728
vt 0.333984375 0.163818359
vn -0.267129123 0.392837137 0.879955173
vt 0.260009766 0.187744141
v -0.196548402 0.491065979 0.371353149
vt 0.310302734 0.131835938
vn -0.276164621 0.205150977 0.938960195
vt 0.264160156 0.124023438
v -0.133529603 0.627609253 0.327407837
vt 0.490478516 0.342529297
vn -0.284311831 -0.189541280 0.939809024
v -0.238342255 0.493412018 0.309005737
vt 0.443847656 0.352539062
vn -0.283394158 0.165313363 0.944647729
vt 0.447021484 0.314453125
vt 0.419189453 0.356933594
v -0.165389955 0.652053833 0.362472534
vt 0.511718750 0.335205078
vn -0.031477395 -0.125910074 0.991542220
vt 0.442871094 0.269287109
v -0.269622773 0.582778931 0.367691040
vt 0.492919922 0.385742188
vn -0.134003609 -0.362598360 0.922261059
v -0.277801484 0.547630310 0.282302856
vt 0.454345703 0.380126953
vn -0.062818915 -0.180604726 0.981547654
vt 0.396728516 0.414062500
v -0.323272675 0.711669922 0.396041930
vt 0.544433594 0.401611328
vn -0.094327368 -0.267261237 0.958996296
v -0.013183545 0.767181396 0.384109497
vt 0.563720703 0.286621094
vn 0.039320264 0.031456154 0.998731434
v -0.190490663 0.819061279 0.403945923
vt 0.590087891 0.367919922
vn 0.102473579 0.055178065 0.993204236
v -0.334472626 0.887390137 0.410202026
vt 0.609130859 0.405273438
vn -0.126609758 0.356090277 0.925834596
v -0.387939423 0.525474548 0.336288512
vt 0.456542969 0.424316406
vn -0.824677944 -0.243476361 0.510515034
vt 0.454345703 0.508056641
v -0.409606904 0.774566650 0.400222838
vt 0.565185547 0.430908203
vn -0.385194302 -0.322305530 0.864722252
v -0.446166962 0.800415039 0.374343872
vt 0.573242188 0.446289062
vn -0.959114730 -0.000000030 0.283017576
v -0.426147431 0.655303955 0.281692564
vt 0.505126953 0.459472656
vn -0.898780882 -0.268057466 0.346898049
v -0.438690186 0.882934570 0.189788848
vt 0.575927734 0.508789062
vn -0.809769511 0.479572177 -0.338059008
v -0.397766083 0.635833740 0.204589874
vt 0.487304688 0.489746094
vn -0.987440705 -0.126392454 -0.094794177
v -0.423614502 0.616989136 0.083251983
vt 0.469726562 0.527099609
vn -0.991757095 -0.094453096 0.086582109
vt 0.413085938 0.554687500
v -0.411621094 0.717620850 -0.036149949
vt 0.461669922 0.592529297
vn -0.996914387 -0.062797800 -0.047098182
vt 0.413574219 0.581542969
vt 0.860351562 0.173339844
vt 0.897705078 0.108154297
v -0.070777833 0.485698700 0.343032837
vt 0.902343750 0.136474609
vn -0.055296551 0.078995295 0.995340228
vt 0.917236328 0.145019531
vt 0.911621094 0.047607422
vt 0.979248047 0.043212891
vt 0.999511719 0.117187500
v 0.063877150 0.692031860 0.352005005
vt 0.933349609 0.039306641
vn -0.157778844 -0.220890522 0.962451756
v 0.060752921 0.826049805 0.411941469
vt 0.973876953 0.010009766
vn -0.299286723 0.047255840 0.952992320
v 0.065238990 0.862548828 0.332015932
vt 1.000000000 0.002441406
vn -0.015792632 0.908077240 0.418505162
v 0.159317076 0.707824707 0.399307191
vt 0.915039062 0.016845703
vn -0.078958176 -0.063166603 0.994874716
vt 0.886230469 0.000000000
vt 0.239501953 0.268554688
vt 0.354248047 0.283447266
v 0.080856279 0.627899170 -0.402053833
vt 0.294433594 0.325683594
vn -0.023615589 -0.000000045 -0.999721110
vt 0.262207031 0.364257812
v -0.111221358 0.643157959 -0.382614136
vt 0.375244141 0.331054688
vn -0.086927466 -0.031609990 -0.995713115
vt 0.395996094 0.274902344
v -0.166702315 0.697845459 -0.364120483
vt 0.403564453 0.349365234
vn -0.000000127 -0.078497238 -0.996914387
v 0.037262872 0.676620483 -0.364913940
vt 0.313232422 0.346191406
vn -0.110332154 -0.181259811 -0.977226615
v -0.121841490 0.817382812 -0.413619995
vt 0.383789062 0.406005859
vn -0.000000138 0.227726012 -0.973725259
v 0.051086370 0.760925293 -0.423019409
vt 0.296875000 0.388183594
vn -0.141500115 0.212249950 -0.966916621
vt 0.229980469 0.431396484
v 0.123641931 0.891540527 -0.251663268
vt 0.277343750 0.482177734
vn -0.110414408 0.985842407 -0.126187861
v 0.003309198 0.842376709 -0.367111266
vt 0.327392578 0.428955078
vn 0.267616898 0.779237807 -0.566718459
v -0.091140799 0.907775879 -0.370346069
vt 0.371337891 0.446533203
vn 0.055157360 0.914037824 -0.401861489
v -0.221847579 0.900573730 -0.285568237
vt 0.428222656 0.479248047
vn 0.007867610 0.983459711 -0.180956617
v -0.134246856 0.905456543 -0.208114639
vt 0.376953125 0.515380859
vn -0.039328691 0.998947680 0.023597153
v -0.067779571 0.908020020 -0.223938003
vt 0.352050781 0.502685547
vn 0.133688390 0.983003378 -0.125824496
v -0.064041153 0.900665283 -0.071132682
vt 0.338867188 0.570312500
vn -0.007873815 0.999969006 -0.000000043
v -0.149719238 0.896942139 0.003427491
vt 0.366699219 0.606445312
v 0.120857216 0.904418945 -0.129852355
vt 0.265869141 0.534179688
vn 0.197481945 0.979510665 0.039496329
vt 0.681152344 0.685302734
vt 0.708251953 0.634521484
vt 0.725585938 0.666748047
v 0.417419404 0.811157227 -0.048805319
vt 0.672607422 0.735351562
vn 0.984374106 0.173249885 -0.031500109
vt 0.710449219 0.748535156
v 0.467742920 0.804382324 0.014446169
vt 0.660156250 0.710693359
vn 0.983947039 -0.118073612 -0.133816928
vt 0.637695312 0.703125000
v 0.349212617 0.833038330 -0.038267210
vt 0.642333984 0.749267578
vn 0.291981936 0.946968555 0.134153783
v 0.348876953 0.860076904 0.095558092
vt 0.605468750 0.713623047
vn 0.307649791 0.930837989 -0.197211534
v 0.384979218 0.900085449 -0.098175131
vt 0.660888672 0.775146484
vn 0.629316807 0.723714352 0.283192426
vt 0.711914062 0.823242188
v 0.276443481 0.887603760 -0.149917662
vt 0.631835938 0.807617188
vn 0.094234362 0.989461064 0.109940059
vt 0.667724609 0.828613281
v 0.231109619 0.900634766 0.025798738
vt 0.579589844 0.766601562
vn -0.071024902 0.994347930 -0.078916535
vt 0.703369141 0.880371094
vt 0.656494141 0.908935547
vt 0.611816406 0.866699219
vt 0.580566406 0.840820312
v 0.239242539 0.877716064 -0.104103155
vt 0.604980469 0.804199219
vn -0.324184120 0.909296930 0.260928690
v 0.224945068 0.847625732 0.032844484
vt 0.563964844 0.777587891
vn -0.268157542 0.962212205 -0.047321919
v 0.120521531 0.863555908 -0.106536910
vt 0.573486328 0.825439453
vn 0.102109276 0.958256423 0.267055035
v 0.113204964 0.849121094 0.043697312
vt 0.527099609 0.802001953
vn 0.417932153 0.883177519 -0.212908968
v 0.106018081 0.904510498 0.106880143
vt 0.495117188 0.811279297
vn 0.071104549 0.995464504 -0.063204147
vt 0.520507812 0.872802734
v 0.414062530 0.772216856 0.376541078
vt 0.672119141 0.922851562
vn 0.355611950 0.063219935 0.932493150
vt 0.698974609 0.994140625
vt 0.644287109 0.936279297
vt 0.707275391 0.943847656
v 0.246109053 0.913513184 0.395523012
vt 0.736083984 0.856933594
vn 0.031586297 0.900208950 0.434311330
v 0.403625518 0.908630431 0.378433108
vt 0.626708984 0.903564453
vn 0.541797578 0.730248988 0.416163325
vt 0.563720703 0.925781250
vt 0.931396484 0.706298828
v 0.182601973 0.860321045 0.395095766
vt 0.921142578 0.642578125
vn 0.000000130 0.015746122 0.999876022
vt 0.976318359 0.691406250
vt 0.964843750 0.657714844
vt 0.887695312 0.644531250
v 0.124412581 0.916717529 0.387405336
vt 0.920898438 0.610839844
vn -0.251190990 0.832070291 0.494532347
vt 0.959472656 0.603271484
vt 0.934814453 0.573730469
vt 0.870117188 0.528808594
v 0.027898205 0.939910889 0.159301728
vt 0.903564453 0.516601562
vn 0.244359732 0.969556570 -0.015765222
v -0.060951218 0.903167725 0.134658799
vt 0.902099609 0.488281250
vn -0.039514955 0.987872243 -0.150156632
v -0.040420495 0.937042236 0.324874818
vt 0.959472656 0.541992188
vn 0.142298087 0.798450172 0.585003078
v -0.135498017 0.934906006 0.219680786
vt 0.947509766 0.490478516
vn -0.204946935 0.969556451 -0.134003744
vt 0.983154297 0.583007812
vt 0.851074219 0.697998047
vt 0.841308594 0.672119141
vt 0.810546875 0.612304688
v 0.224395767 0.885559082 0.109603822
vt 0.833496094 0.559570312
vn -0.015797142 0.987317383 -0.157970831
vt 0.848388672 0.512207031
vt 0.791748047 0.574218750
vt 0.765869141 0.580078125
vt 0.810546875 0.537597656
vt 0.810546875 0.519287109
vt 0.111816406 0.083251953
vt 0.094238281 0.160888672
v -0.302612364 0.673568726 -0.382827759
vt 0.048583984 0.081298828
vn 0.039218269 0.078436755 -0.996147394
vt 0.048583984 0.162841797
vt 0.007568359 0.110351562
v -0.426147521 0.666961670 -0.398788393
vt 0.000976562 0.091796875
vn -0.220499933 0.362249643 -0.905624151
v -0.394012511 0.826904297 -0.356979370
vt 0.000000000 0.005615234
vn -0.442263156 0.189541250 -0.876628458
v -0.351135314 0.678115845 -0.357955873
vt 0.040527344 0.046630859
vn -0.251750201 0.015734326 -0.967664361
v -0.316223204 0.825714052 -0.377029419
vt 0.063476562 0.006103516
vn -0.393749744 -0.102374956 -0.913499117
v -0.256500304 0.786010742 -0.408523560
vt 0.079833984 0.039550781
vn -0.078884691 -0.228765294 -0.970280230
vt 0.130615234 0.029541016
v -0.261047423 0.887298584 -0.420913696
vt 0.087646484 0.000244141
vn -0.086797453 0.757503986 -0.647034705
vt 0.582763672 0.091796875
vt 0.657226562 0.075439453
vt 0.633789062 0.121826172
vt 0.632812500 0.153076172
vt 0.601562500 0.175048828
v -0.400634825 0.904022217 -0.269424438
vt 0.555908203 0.161621094
vn -0.636042893 0.753828645 -0.164899930
v -0.413391143 0.847595215 -0.123573273
vt 0.498046875 0.171142578
vn -0.993945599 0.102549888 -0.039442159
v -0.399597228 0.714904785 -0.282058656
vt 0.526367188 0.234619141
vn -0.975773275 0.133775309 -0.173120931
v -0.394897491 0.907226562 -0.103744492
vt 0.497314453 0.140625000
vn -0.401226729 0.912594080 0.078671917
v -0.278350860 0.898162842 -0.196228012
vt 0.542236328 0.104736328
vn 0.015745550 0.999845147 0.007872751
vt 0.560302734 0.049316406
v -0.321075439 0.901367188 0.065643311
vt 0.441406250 0.086181641
vn -0.125875086 0.991266012 0.039335921
vt 0.481933594 0.021240234
v -0.148101807 0.896575928 0.007575974
vt 0.647216797 0.949707031
vn -0.268249184 -0.867865324 0.418153346
v -0.303588897 0.854125977 -0.020105116
vt 0.549804688 0.999755859
vn 0.321868390 0.259064734 0.910651624
v -0.203308105 0.851867676 0.039806366
vt 0.591064453 0.957275391
vn -0.141930521 0.851582527 -0.504641533
v -0.324035645 0.902618408 0.067504883
vt 0.528564453 0.926025391
vn 0.306205064 -0.777289808 -0.549598873
vt 0.401611328 0.949462891
v -0.425811797 0.632598877 -0.214492768
vt 0.496582031 0.870605469
vn -0.997775495 -0.047139041 0.047139134
vt 0.469726562 0.959716797
vt 0.490722656 0.964355469
vt 0.452392578 0.888427734
vt 0.524658203 0.918701172
v -0.354126036 0.673019409 -0.356368959
vt 0.520019531 0.961914062
vn -0.172955260 0.283017427 -0.943391621
vt 0.592529297 0.909179688
v -0.408508331 0.648406982 -0.103965722
vt 0.478759766 0.831054688
vn -0.974356353 -0.220015988 0.047146410
vt 0.488769531 0.793945312
vt 0.446289062 0.797607422
vt 0.040771484 0.461181641
vt 0.006835938 0.502197266
vt 0.008544922 0.436767578
vt 0.039062500 0.538085938
vt 0.045410156 0.825195312
vt 0.018554688 0.845458984
vt 0.001220703 0.778808594
v -0.427307129 0.774017334 0.055961639
vt 0.927734375 0.305908203
vn -0.999195039 0.039338343 -0.007867548
vt 0.978027344 0.287353516
vt 0.979492188 0.366699219
vt 0.955078125 0.211669922
v -0.408050537 0.833374023 0.087204009
vt 0.893798828 0.301269531
vn -0.925468862 0.337247103 0.172545150
vt 0.925048828 0.199707031
vt 0.934326172 0.410156250
vt 0.854736328 0.259277344
v -0.395080566 0.845336914 0.178955108
vt 0.861083984 0.334472656
vn -0.820527256 0.512829423 -0.252469808
vt 0.832519531 0.338623047
v -0.269012451 0.902801514 0.172653198
vt 0.805664062 0.291992188
vn -0.110089630 0.990806222 -0.078635439
vt 0.000000000 0.647216797
vt 0.049804688 0.610107422
vt 0.054443359 0.704589844
vt 0.002929688 0.674560547
vt 0.057373047 0.715332031
vt 0.018554688 0.755859375
vt 0.811279297 0.963867188
vt 0.714111328 0.992919922
vt 0.736816406 0.940185547
vt 0.741455078 0.847900391
vt 0.054199219 0.236328125
vt 0.052978516 0.268066406
vt 0.016845703 0.278320312
vt 0.021728516 0.328613281
vt 0.052978516 0.354492188
vt 0.981933594 0.974121094
vt 0.917724609 1.000000000
v -0.160064667 0.877166748 0.295211792
vt 0.937011719 0.968017578
vn -0.212335363 0.975169599 -0.062914178
v -0.250610322 0.916412354 0.313858032
vt 0.909423828 0.944091797
vn -0.015733933 0.999102235 0.039334692
vt 0.843750000 0.994628906
vt 0.988037109 0.930664062
v -0.436645478 0.918334961 0.345657349
vt 0.851806641 0.938232422
vn -0.457260311 0.867217839 0.197094977
vt 0.816894531 0.914550781
vt 0.875488281 0.907714844
v -0.172347963 0.882751465 0.436355591
vt 0.920166016 0.902587891
vn 0.266857624 0.737782717 0.620051324
v -0.172882035 0.879180908 0.350936890
vt 0.941650391 0.915771484
vn 0.236359805 0.732715249 0.638171196
vt 0.926513672 0.876220703
vt 0.056884766 0.812500000
vt 0.004150391 0.773193359
vt 0.058105469 0.738037109
vt 0.002929688 0.532470703
vt 0.050537109 0.548339844
vt 0.020019531 0.625000000
f 1/1/1 2/2/2 3/3/3
f 3/3/3 2/2/2 4/4/4
f 3/3/3 4/4/4 1/1/1
f 1/1/1 4/4/4 5/5/5
f 4/4/4 2/2/2 6/6/6
f 4/4/4 6/6/6 7/7/7
f 7/7/7 6/6/6 8/8/8
f 8/8/8 6/6/6 9/9/9
f 6/6/6 2/2/2 10/10/10
f 6/6/6 10/10/10 11/11/11
f 12/12/12 2/2/2 1/1/1
f 2/2/2 12/12/12 10/10/10
f 12/12/12 1/1/1 13/13/13
f 13/13/13 1/1/1 14/14/14
f 13/13/13 14/14/14 15/15/15
f 12/12/12 13/13/13 16/16/16
f 12/12/12 16/16/16 17/17/17
f 12/12/12 17/17/17 10/10/10
f 10/10/10 17/17/17 18/18/18
f 1/19/1 19/20/19 14/21/14
f 19/20/19 1/19/1 5/22/5
f 14/21/14 19/20/19 20/23/20
f 14/21/14 20/23/20 15/24/15
f 15/24/15 20/23/20 21/25/21
f 21/25/21 20/23/20 22/26/22
f 22/26/22 20/23/20 23/27/23
f 23/27/23 20/23/20 19/20/19
f 22/26/22 23/27/23 24/28/24
f 24/28/24 23/27/23 25/29/25
f 23/27/23 19/20/19 26/30/26
f 26/30/26 19/20/19 5/22/5
f 25/29/25 23/27/23 27/31/27
f 27/31/27 23/27/23 26/30/26
f 25/29/25 27/31/27 28/32/28
f 26/30/26 5/22/5 7/33/7
f 7/33/7 5/22/5 4/34/4
f 27/31/27 26/30/26 29/35/29
f 29/35/29 26/30/26 7/33/7
f 27/31/27 29/35/29 30/36/30
f 30/36/30 29/35/29 31/37/31
f 31/37/31 29/35/29 7/33/7
f 31/37/31 7/33/7 8/38/8
f 31/37/31 8/38/8 32/39/32
f 32/39/32 8/38/8 33/40/33
f 33/40/33 8/38/8 34/41/34
f 34/41/34 8/38/8 9/42/9
f 13/43/13 15/44/15 16/45/16
f 16/45/16 15/44/15 21/46/21
f 16/45/16 21/46/21 35/47/35
f 35/47/35 21/46/21 36/48/36
f 36/48/36 21/46/21 22/49/22
f 36/48/36 22/49/22 37/50/37
f 16/45/16 35/47/35 38/51/38
f 16/45/16 38/51/38 39/52/39
f 16/45/16 39/52/39 17/53/17
f 39/52/39 38/51/38 40/54/40
f 39/52/39 40/54/40 17/53/17
f 17/53/17 40/54/40 18/55/18
f 41/56/41 24/57/24 25/58/25
f 41/56/41 25/58/25 42/59/42
f 41/56/41 42/59/42 43/60/43
f 41/56/41 43/60/43 44/61/44
f 43/60/43 42/59/42 45/62/45
f 44/61/44 43/60/43 46/63/46
f 43/60/43 45/62/45 47/64/47
f 46/63/46 43/60/43 48/65/48
f 43/60/43 47/64/47 49/66/49
f 49/66/49 47/64/47 50/67/50
f 49/66/49 50/67/50 51/68/51
f 43/60/43 49/66/49 52/69/52
f 43/60/43 52/69/52 48/65/48
f 52/69/52 49/66/49 51/68/51
f 48/65/48 52/69/52 53/70/53
f 48/65/48 53/70/53 54/71/54
f 52/69/52 51/68/51 55/72/55
f 52/69/52 55/72/55 53/70/53
f 53/70/53 55/72/55 54/71/54
f 54/71/54 55/72/55 56/73/56
f 55/72/55 51/68/51 57/74/57
f 56/73/56 55/72/55 58/75/58
f 58/75/58 55/72/55 57/74/57
f 58/75/58 57/74/57 59/76/59
f 60/77/60 9/78/9 6/79/6
f 9/78/9 60/77/60 61/80/61
f 9/78/9 61/80/61 34/81/34
f 60/77/60 6/79/6 62/82/62
f 60/77/60 62/82/62 63/83/63
f 62/82/62 6/79/6 64/84/64
f 63/83/63 62/82/62 65/85/65
f 65/85/65 62/82/62 64/84/64
f 63/83/63 65/85/65 66/86/66
f 64/84/64 6/79/6 11/87/11
f 65/85/65 64/84/64 67/88/67
f 65/85/65 67/88/67 66/86/66
f 64/84/64 11/87/11 68/89/68
f 64/84/64 68/89/68 67/88/67
f 68/89/68 11/87/11 18/90/18
f 18/90/18 11/87/11 10/91/10
f 68/89/68 18/90/18 69/92/69
f 68/89/68 69/92/69 67/88/67
f 67/88/67 69/92/69 70/93/70
f 67/88/67 70/93/70 71/94/71
f 67/88/67 71/94/71 66/86/66
f 66/86/66 71/94/71 72/95/72
f 73/96/73 31/97/31 32/98/32
f 73/96/73 32/98/32 74/99/74
f 31/97/31 73/96/73 30/100/30
f 73/96/73 74/99/74 75/101/75
f 73/96/73 75/101/75 30/100/30
f 50/102/50 47/103/47 75/101/75
f 75/101/75 47/103/47 45/104/45
f 30/100/30 75/101/75 28/105/28
f 28/105/28 75/101/75 45/104/45
f 30/100/30 28/105/28 27/106/27
f 28/105/28 45/104/45 42/107/42
f 28/105/28 42/107/42 25/108/25
f 76/109/76 77/110/77 74/111/74
f 74/111/74 77/110/77 75/112/75
f 75/112/75 77/110/77 50/113/50
f 50/113/50 77/110/77 78/114/78
f 78/114/78 77/110/77 76/109/76
f 50/113/50 78/114/78 51/115/51
f 51/115/51 78/114/78 79/116/79
f 79/116/79 78/114/78 80/117/80
f 80/117/80 78/114/78 76/109/76
f 79/116/79 80/117/80 81/118/81
f 81/118/81 80/117/80 82/119/82
f 82/119/82 80/117/80 83/120/83
f 83/120/83 80/117/80 76/109/76
f 82/119/82 83/120/83 84/121/84
f 84/121/84 83/120/83 76/109/76
f 84/121/84 76/109/76 74/111/74
f 84/121/84 74/111/74 32/122/32
f 84/121/84 32/122/32 33/123/33
f 84/121/84 33/123/33 85/124/85
f 85/124/85 33/123/33 34/125/34
f 86/126/86 84/127/84 85/128/85
f 86/126/86 85/128/85 87/129/87
f 84/127/84 86/126/86 82/130/82
f 82/130/82 86/126/86 88/131/88
f 88/131/88 86/126/86 89/132/89
f 82/130/82 88/131/88 81/133/81
f 88/131/88 89/132/89 90/134/90
f 81/133/81 88/131/88 59/135/59
f 88/131/88 90/134/90 91/136/91
f 91/136/91 90/134/90 92/137/92
f 88/131/88 91/136/91 93/138/93
f 93/138/93 91/136/91 92/137/92
f 88/131/88 93/138/93 59/135/59
f 59/135/59 93/138/93 92/137/92
f 59/135/59 92/137/92 94/139/94
f 59/135/59 94/139/94 95/140/95
f 59/135/59 95/140/95 58/141/58
f 61/142/61 85/143/85 34/144/34
f 85/143/85 61/142/61 96/145/96
f 96/145/96 61/142/61 97/146/97
f 85/143/85 96/145/96 87/147/87
f 96/145/96 97/146/97 98/148/98
f 96/145/96 98/148/98 87/147/87
f 98/148/98 97/146/97 99/149/99
f 87/147/87 98/148/98 89/150/89
f 87/147/87 89/150/89 86/151/86
f 89/150/89 98/148/98 100/152/100
f 98/148/98 99/149/99 101/153/101
f 98/148/98 101/153/101 100/152/100
f 101/153/101 99/149/99 102/154/102
f 101/153/101 102/154/102 100/152/100
f 79/155/79 81/156/81 57/157/57
f 57/157/57 81/156/81 59/158/59
f 79/155/79 57/157/57 51/159/51
f 35/160/35 103/161/103 104/162/104
f 103/161/103 35/160/35 36/163/36
f 105/164/105 106/165/106 104/162/104
f 105/164/105 104/162/104 107/166/107
f 107/166/107 104/162/104 103/161/103
f 105/164/105 107/166/107 108/167/108
f 108/167/108 107/166/107 109/168/109
f 109/168/109 107/166/107 110/169/110
f 110/169/110 107/166/107 103/161/103
f 109/168/109 110/169/110 111/170/111
f 112/171/112 103/161/103 36/163/36
f 112/171/112 36/163/36 37/172/37
f 111/170/111 110/169/110 113/173/113
f 111/170/111 113/173/113 114/174/114
f 114/174/114 113/173/113 115/175/115
f 113/173/113 110/169/110 116/176/116
f 113/173/113 116/176/116 115/175/115
f 116/176/116 110/169/110 103/161/103
f 115/175/115 116/176/116 117/177/117
f 117/177/117 116/176/116 103/161/103
f 117/177/117 103/161/103 112/171/112
f 118/178/118 112/171/112 37/172/37
f 112/171/112 118/178/118 117/177/117
f 118/178/118 37/172/37 22/179/22
f 118/178/118 22/179/22 24/180/24
f 118/178/118 24/180/24 119/181/119
f 118/178/118 119/181/119 120/182/120
f 118/178/118 120/182/120 117/177/117
f 117/177/117 120/182/120 121/183/121
f 119/184/119 24/185/24 41/186/41
f 119/184/119 41/186/41 122/187/122
f 122/187/122 41/186/41 44/188/44
f 119/184/119 122/187/122 121/189/121
f 119/184/119 121/189/121 120/190/120
f 122/187/122 44/188/44 123/191/123
f 123/191/123 44/188/44 46/192/46
f 121/189/121 122/187/122 124/193/124
f 124/193/124 122/187/122 123/191/123
f 121/189/121 124/193/124 125/194/125
f 121/189/121 125/194/125 117/195/117
f 117/195/117 125/194/125 115/196/115
f 115/196/115 125/194/125 126/197/126
f 126/197/126 125/194/125 124/193/124
f 115/196/115 126/197/126 127/198/127
f 127/198/127 126/197/126 128/199/128
f 126/197/126 124/193/124 129/200/129
f 129/200/129 124/193/124 123/191/123
f 128/199/128 126/197/126 130/201/130
f 130/201/130 126/197/126 129/200/129
f 128/199/128 130/201/130 131/202/131
f 131/202/131 130/201/130 132/203/132
f 132/203/132 130/201/130 129/200/129
f 131/202/131 132/203/132 133/204/133
f 133/204/133 132/203/132 54/205/54
f 54/205/54 132/203/132 48/206/48
f 132/203/132 129/200/129 134/207/134
f 48/206/48 132/203/132 135/208/135
f 135/208/135 132/203/132 134/207/134
f 135/208/135 134/207/134 129/200/129
f 135/208/135 129/200/129 123/191/123
f 48/206/48 135/208/135 46/192/46
f 46/192/46 135/208/135 123/191/123
f 111/209/111 108/210/108 109/211/109
f 108/210/108 111/209/111 136/212/136
f 108/210/108 136/212/136 105/213/105
f 105/213/105 136/212/136 137/214/137
f 105/213/105 137/214/137 106/215/106
f 137/214/137 136/212/136 138/216/138
f 137/214/137 138/216/138 139/217/139
f 136/212/136 111/209/111 140/218/140
f 136/212/136 140/218/140 138/216/138
f 138/216/138 140/218/140 141/219/141
f 138/216/138 141/219/141 142/220/142
f 138/216/138 142/220/142 143/221/143
f 140/218/140 111/209/111 144/222/144
f 144/222/144 111/209/111 114/223/114
f 140/218/140 144/222/144 145/224/145
f 140/218/140 145/224/145 146/225/146
f 146/225/146 145/224/145 147/226/147
f 145/224/145 144/222/144 148/227/148
f 148/227/148 144/222/144 114/223/114
f 148/227/148 114/223/114 149/228/149
f 104/229/104 106/230/106 35/231/35
f 35/231/35 106/230/106 38/232/38
f 139/233/139 38/234/38 106/235/106
f 139/233/139 106/235/106 137/236/137
f 38/234/38 139/233/139 40/237/40
f 40/237/40 139/233/139 143/238/143
f 143/238/143 139/233/139 138/239/138
f 114/240/114 115/241/115 127/242/127
f 114/240/114 127/242/127 150/243/150
f 114/240/114 150/243/150 149/244/149
f 150/243/150 127/242/127 151/245/151
f 151/245/151 127/242/127 128/246/128
f 149/244/149 150/243/150 152/247/152
f 149/244/149 152/247/152 145/248/145
f 149/244/149 145/248/145 148/249/148
f 145/248/145 152/247/152 147/250/147
f 147/250/147 152/247/152 153/251/153
f 153/251/153 152/247/152 150/243/150
f 153/251/153 150/243/150 151/245/151
f 153/251/153 151/245/151 154/252/154
f 153/251/153 154/252/154 155/253/155
f 156/254/156 151/245/151 128/246/128
f 151/245/151 156/254/156 154/252/154
f 155/253/155 154/252/154 157/255/157
f 156/254/156 128/246/128 158/256/158
f 156/254/156 158/256/158 154/252/154
f 158/256/158 128/246/128 131/257/131
f 158/256/158 131/257/131 133/258/133
f 154/252/154 158/256/158 159/259/159
f 154/252/154 159/259/159 157/255/157
f 159/259/159 158/256/158 133/258/133
f 157/255/157 159/259/159 160/260/160
f 160/260/160 159/259/159 133/258/133
f 160/260/160 133/258/133 54/261/54
f 160/260/160 54/261/54 161/262/161
f 161/262/161 54/261/54 56/263/56
f 162/264/162 163/265/163 161/266/161
f 161/266/161 163/265/163 160/267/160
f 162/264/162 161/266/161 164/268/164
f 164/268/164 161/266/161 56/269/56
f 163/265/163 162/264/162 165/270/165
f 165/270/165 162/264/162 164/268/164
f 160/267/160 163/265/163 166/271/166
f 166/271/166 163/265/163 165/270/165
f 160/267/160 166/271/166 157/272/157
f 165/270/165 164/268/164 167/273/167
f 167/273/167 164/268/164 168/274/168
f 167/273/167 168/274/168 169/275/169
f 167/273/167 169/275/169 170/276/170
f 157/272/157 166/271/166 171/277/171
f 171/277/171 166/271/166 165/270/165
f 157/272/157 171/277/171 155/278/155
f 167/273/167 170/276/170 172/279/172
f 172/279/172 170/276/170 173/280/173
f 174/281/174 165/270/165 167/273/167
f 174/281/174 167/273/167 172/279/172
f 174/281/174 172/279/172 173/280/173
f 165/270/165 174/281/174 171/277/171
f 174/281/174 173/280/173 175/282/175
f 174/281/174 175/282/175 176/283/176
f 174/281/174 176/283/176 171/277/171
f 171/277/171 176/283/176 155/278/155
f 155/278/155 176/283/176 177/284/177
f 155/278/155 177/284/177 153/285/153
f 153/285/153 177/284/177 178/286/178
f 153/285/153 178/286/178 147/287/147
f 58/288/58 95/289/95 179/290/179
f 58/288/58 179/290/179 56/291/56
f 56/291/56 179/290/179 95/289/95
f 56/291/56 95/289/95 94/292/94
f 56/291/56 94/292/94 168/293/168
f 56/291/56 168/293/168 164/294/164
f 168/293/168 94/292/94 180/295/180
f 168/293/168 180/295/180 181/296/181
f 168/293/168 181/296/181 182/297/182
f 181/296/181 180/295/180 183/298/183
f 183/298/183 180/295/180 94/292/94
f 183/298/183 94/292/94 92/299/92
f 18/300/18 40/301/40 184/302/184
f 18/300/18 184/302/184 69/303/69
f 184/302/184 40/301/40 185/304/185
f 185/304/185 40/301/40 143/305/143
f 185/304/185 143/305/143 186/306/186
f 184/302/184 185/304/185 187/307/187
f 185/304/185 186/306/186 188/308/188
f 69/303/69 184/302/184 189/309/189
f 189/309/189 184/302/184 187/307/187
f 189/309/189 187/307/187 185/304/185
f 189/309/189 185/304/185 188/308/188
f 69/303/69 189/309/189 70/310/70
f 70/310/70 189/309/189 190/311/190
f 189/309/189 188/308/188 191/312/191
f 189/309/189 191/312/191 190/311/190
f 191/312/191 188/308/188 192/313/192
f 192/313/192 188/308/188 193/314/193
f 192/313/192 193/314/193 194/315/194
f 191/312/191 192/313/192 195/316/195
f 195/316/195 192/313/192 194/315/194
f 191/312/191 195/316/195 190/311/190
f 195/316/195 194/315/194 196/317/196
f 195/316/195 196/317/196 190/311/190
f 196/317/196 194/315/194 197/318/196
f 190/311/190 196/317/196 198/319/197
f 97/320/97 61/321/61 60/322/60
f 97/320/97 60/322/60 199/323/198
f 199/323/198 60/322/60 63/324/63
f 97/320/97 199/323/198 200/325/199
f 97/320/97 200/325/199 99/326/99
f 99/326/99 200/325/199 199/323/198
f 99/326/99 199/323/198 201/327/200
f 99/326/99 201/327/200 202/328/201
f 199/323/198 63/324/63 203/329/202
f 199/323/198 203/329/202 201/327/200
f 203/329/202 63/324/63 66/330/66
f 202/328/201 201/327/200 204/331/203
f 204/331/203 201/327/200 203/329/202
f 203/329/202 66/330/66 72/332/72
f 203/329/202 72/332/72 204/331/203
f 202/328/201 204/331/203 205/333/204
f 71/334/71 70/335/70 72/332/72
f 72/332/72 70/335/70 190/336/190
f 72/332/72 190/336/190 204/331/203
f 204/331/203 190/336/190 198/337/197
f 205/333/204 204/331/203 206/338/205
f 206/338/205 204/331/203 198/337/197
f 205/333/204 206/338/205 207/339/206
f 207/339/206 206/338/205 208/340/207
f 208/340/207 206/338/205 198/337/197
f 207/339/206 208/340/207 209/341/208
f 209/341/208 208/340/207 198/337/197
f 209/341/208 198/337/197 210/342/209
f 210/342/209 198/337/197 196/343/196
f 211/344/210 89/345/89 100/346/100
f 89/345/89 211/344/210 90/347/90
f 90/347/90 211/344/210 212/348/211
f 211/344/210 100/346/100 213/349/212
f 213/349/212 100/346/100 102/350/102
f 90/351/90 214/352/213 92/353/92
f 92/353/92 214/352/213 183/354/183
f 214/352/213 90/351/90 212/355/211
f 183/354/183 214/352/213 215/356/214
f 215/356/214 214/352/213 212/355/211
f 183/354/183 215/356/214 181/357/181
f 181/357/181 215/356/214 182/358/182
f 182/358/182 215/356/214 210/359/209
f 210/359/209 215/356/214 212/355/211
f 182/358/182 210/359/209 216/360/215
f 216/360/215 210/359/209 217/361/216
f 182/358/182 216/360/215 218/362/217
f 218/362/217 216/360/215 219/363/218
f 182/358/182 218/362/217 168/364/168
f 211/365/210 213/366/212 212/355/211
f 212/355/211 213/366/212 102/367/102
f 220/368/219 210/359/209 212/355/211
f 220/368/219 212/355/211 102/367/102
f 210/359/209 220/368/219 209/369/208
f 220/368/219 102/367/102 202/370/201
f 202/370/201 102/367/102 99/371/99
f 220/368/219 202/370/201 205/372/204
f 220/368/219 205/372/204 209/369/208
f 209/369/208 205/372/204 207/373/206
f 186/374/186 143/375/143 221/376/220
f 142/377/142 141/378/141 143/375/143
f 143/375/143 141/378/141 221/376/220
f 221/376/220 141/378/141 222/379/221
f 221/376/220 222/379/221 223/380/222
f 221/376/220 223/380/222 224/381/223
f 224/381/223 223/380/222 225/382/224
f 224/381/223 225/382/224 221/376/220
f 226/383/225 186/374/186 221/376/220
f 226/383/225 221/376/220 225/382/224
f 186/374/186 226/383/225 188/384/188
f 226/383/225 225/382/224 227/385/226
f 226/383/225 227/385/226 188/384/188
f 193/386/193 188/387/188 227/388/226
f 225/389/224 223/390/222 227/388/226
f 227/388/226 223/390/222 228/391/227
f 227/388/226 228/391/227 193/386/193
f 229/392/228 228/391/227 230/393/229
f 228/391/227 229/392/228 231/394/230
f 193/386/193 228/391/227 232/395/231
f 232/395/231 228/391/227 231/394/230
f 193/386/193 232/395/231 194/396/194
f 232/395/231 231/394/230 233/397/232
f 194/396/194 232/395/231 197/398/196
f 197/398/196 232/395/231 233/397/232
f 234/399/233 235/400/234 236/401/235
f 236/401/235 235/400/234 237/402/236
f 236/401/235 237/402/236 234/399/233
f 140/403/140 238/404/237 141/405/141
f 141/405/141 238/404/237 222/406/221
f 238/404/237 140/403/140 146/407/146
f 222/406/221 238/404/237 230/408/229
f 222/406/221 230/408/229 239/409/238
f 230/408/229 238/404/237 229/410/228
f 238/404/237 146/407/146 240/411/239
f 238/404/237 240/411/239 178/412/178
f 240/411/239 146/407/146 147/413/147
f 240/411/239 147/413/147 178/412/178
f 230/414/229 223/415/222 239/416/238
f 223/415/222 230/414/229 228/417/227
f 239/418/238 222/419/221 223/420/222
f 241/421/240 178/422/178 177/423/177
f 178/422/178 241/421/240 229/424/228
f 241/421/240 177/423/177 242/425/241
f 241/421/240 242/425/241 229/424/228
f 229/424/228 242/425/241 231/426/230
f 242/425/241 177/423/177 176/427/176
f 231/426/230 242/425/241 233/428/232
f 242/425/241 176/427/176 243/429/242
f 242/425/241 243/429/242 233/428/232
f 243/429/242 176/427/176 175/430/175
f 233/428/232 243/429/242 244/431/243
f 244/431/243 243/429/242 175/430/175
f 178/432/178 229/433/228 238/434/237
f 196/435/196 217/436/216 210/437/209
f 217/438/216 196/439/196 197/440/196
f 217/438/216 197/440/196 233/441/232
f 216/442/215 217/443/216 219/444/218
f 219/444/218 217/443/216 244/445/243
f 244/445/243 217/443/216 233/446/232
f 219/447/218 244/448/243 245/449/244
f 245/449/244 244/448/243 246/450/245
f 245/449/244 246/450/245 219/447/218
f 246/450/245 244/448/243 175/451/175
f 219/447/218 246/450/245 218/452/217
f 246/450/245 175/451/175 247/453/246
f 247/453/246 175/451/175 173/454/173
f 247/453/246 173/454/173 170/455/170
f 247/453/246 170/455/170 246/450/245
f 246/450/245 170/455/170 248/456/247
f 218/452/217 246/450/245 249/457/248
f 249/457/248 246/450/245 248/456/247
f 218/452/217 249/457/248 169/458/169
f 248/456/247 170/455/170 169/458/169
f 248/456/247 169/458/169 249/457/248
f 169/459/169 168/460/168 218/461/217
f 237/462/236 235/463/234 234/464/233
