# Blender 4.4.3
# www.blender.org
mtllib tube.mtl
o 円柱
v 0.000000 10.000005 -50.000000
v 0.000000 8.000004 -50.000000
v 0.000000 9.999996 50.000000
v 0.000000 7.999996 50.000000
v 1.950903 9.807857 -50.000000
v 1.560723 7.846286 -50.000000
v 1.950903 9.807848 50.000000
v 1.560723 7.846278 50.000000
v 3.826835 9.238799 -50.000000
v 3.061468 7.391040 -50.000000
v 3.826835 9.238791 50.000000
v 3.061468 7.391032 50.000000
v 5.555702 8.314700 -50.000000
v 4.444562 6.651761 -50.000000
v 5.555702 8.314692 50.000000
v 4.444562 6.651752 50.000000
v 7.071068 7.071072 -50.000000
v 5.656855 5.656858 -50.000000
v 7.071068 7.071064 50.000000
v 5.656855 5.656850 50.000000
v 8.314696 5.555707 -50.000000
v 6.651757 4.444566 -50.000000
v 8.314696 5.555698 50.000000
v 6.651757 4.444557 50.000000
v 9.238795 3.826839 -50.000000
v 7.391036 3.061472 -50.000000
v 9.238795 3.826830 50.000000
v 7.391036 3.061463 50.000000
v 9.807853 1.950908 -50.000000
v 7.846282 1.560727 -50.000000
v 9.807853 1.950899 50.000000
v 7.846282 1.560718 50.000000
v 10.000000 0.000004 -50.000000
v 8.000000 0.000004 -50.000000
v 10.000000 -0.000004 50.000000
v 8.000000 -0.000004 50.000000
v 9.807853 -1.950899 -50.000000
v 7.846282 -1.560718 -50.000000
v 9.807853 -1.950908 50.000000
v 7.846282 -1.560727 50.000000
v 9.238795 -3.826830 -50.000000
v 7.391036 -3.061463 -50.000000
v 9.238795 -3.826839 50.000000
v 7.391036 -3.061472 50.000000
v 6.651757 -4.444557 -50.000000
v 8.314696 -5.555698 -50.000000
v 6.651757 -4.444566 50.000000
v 8.314696 -5.555707 50.000000
v 5.656855 -5.656850 -50.000000
v 7.071068 -7.071064 -50.000000
v 7.071068 -7.071072 50.000000
v 5.656855 -5.656858 50.000000
v 4.444562 -6.651752 -50.000000
v 5.555702 -8.314692 -50.000000
v 4.444562 -6.651761 50.000000
v 5.555702 -8.314700 50.000000
v 3.826835 -9.238791 -50.000000
v 3.061468 -7.391032 -50.000000
v 3.826835 -9.238799 50.000000
v 3.061468 -7.391040 50.000000
v 1.560723 -7.846278 -50.000000
v 1.950903 -9.807848 -50.000000
v 1.950903 -9.807857 50.000000
v 1.560723 -7.846286 50.000000
v 0.000000 -7.999996 -50.000000
v 0.000000 -9.999996 -50.000000
v 0.000000 -8.000004 50.000000
v 0.000000 -10.000005 50.000000
v -1.950903 -9.807848 -50.000000
v -1.560723 -7.846278 -50.000000
v -1.560723 -7.846286 50.000000
v -1.950903 -9.807857 50.000000
v -3.826835 -9.238791 -50.000000
v -3.061468 -7.391032 -50.000000
v -3.826835 -9.238799 50.000000
v -3.061468 -7.391040 50.000000
v -5.555702 -8.314692 -50.000000
v -4.444562 -6.651752 -50.000000
v -4.444562 -6.651761 50.000000
v -5.555702 -8.314700 50.000000
v -7.071068 -7.071064 -50.000000
v -5.656855 -5.656850 -50.000000
v -5.656855 -5.656858 50.000000
v -7.071068 -7.071072 50.000000
v -8.314696 -5.555698 -50.000000
v -6.651757 -4.444557 -50.000000
v -6.651757 -4.444566 50.000000
v -8.314696 -5.555707 50.000000
v -9.238795 -3.826830 -50.000000
v -7.391036 -3.061463 -50.000000
v -7.391036 -3.061472 50.000000
v -9.238795 -3.826839 50.000000
v -7.846282 -1.560718 -50.000000
v -9.807853 -1.950899 -50.000000
v -9.807853 -1.950908 50.000000
v -7.846282 -1.560727 50.000000
v -10.000000 0.000004 -50.000000
v -8.000000 0.000004 -50.000000
v -8.000000 -0.000004 50.000000
v -10.000000 -0.000004 50.000000
v -9.807853 1.950908 -50.000000
v -7.846282 1.560727 -50.000000
v -9.807853 1.950899 50.000000
v -7.846282 1.560718 50.000000
v -7.391036 3.061472 -50.000000
v -9.238795 3.826839 -50.000000
v -9.238795 3.826830 50.000000
v -7.391036 3.061463 50.000000
v -8.314696 5.555707 -50.000000
v -6.651757 4.444566 -50.000000
v -8.314696 5.555698 50.000000
v -6.651757 4.444557 50.000000
v -5.656855 5.656858 -50.000000
v -7.071068 7.071072 -50.000000
v -5.656855 5.656850 50.000000
v -7.071068 7.071064 50.000000
v -4.444562 6.651761 -50.000000
v -5.555702 8.314700 -50.000000
v -4.444562 6.651752 50.000000
v -5.555702 8.314692 50.000000
v -3.061468 7.391040 -50.000000
v -3.826835 9.238799 -50.000000
v -3.061468 7.391032 50.000000
v -3.826835 9.238791 50.000000
v -1.560723 7.846286 -50.000000
v -1.950903 9.807857 -50.000000
v -1.560723 7.846278 50.000000
v -1.950903 9.807848 50.000000
vn 0.0980 0.9952 -0.0000
vn 0.2903 0.9569 -0.0000
vn 0.4714 0.8819 -0.0000
vn 0.6344 0.7730 -0.0000
vn 0.7730 0.6344 -0.0000
vn 0.8819 0.4714 -0.0000
vn 0.9569 0.2903 -0.0000
vn 0.9952 0.0980 -0.0000
vn 0.9952 -0.0980 -0.0000
vn 0.9569 -0.2903 -0.0000
vn 0.8819 -0.4714 -0.0000
vn 0.7730 -0.6344 -0.0000
vn 0.6344 -0.7730 -0.0000
vn 0.4714 -0.8819 -0.0000
vn 0.2903 -0.9569 -0.0000
vn 0.0980 -0.9952 -0.0000
vn -0.0980 -0.9952 -0.0000
vn -0.2903 -0.9569 -0.0000
vn -0.4714 -0.8819 -0.0000
vn -0.6344 -0.7730 -0.0000
vn -0.7730 -0.6344 -0.0000
vn -0.8819 -0.4714 -0.0000
vn -0.9569 -0.2903 -0.0000
vn -0.9952 -0.0980 -0.0000
vn -0.9952 0.0980 -0.0000
vn -0.9569 0.2903 -0.0000
vn -0.8819 0.4714 -0.0000
vn -0.7730 0.6344 -0.0000
vn -0.6344 0.7730 -0.0000
vn -0.4714 0.8819 -0.0000
vn -0.0000 -0.0000 1.0000
vn -0.2903 0.9569 -0.0000
vn -0.0980 0.9952 -0.0000
vn -0.0000 -0.0000 -1.0000
vt 1.000000 1.000000
vt 0.968750 0.500000
vt 1.000000 0.500000
vt 0.968750 1.000000
vt 0.937500 0.500000
vt 0.937500 1.000000
vt 0.906250 0.500000
vt 0.875000 1.000000
vt 0.875000 0.500000
vt 0.843750 0.500000
vt 0.843750 1.000000
vt 0.812500 0.500000
vt 0.812500 1.000000
vt 0.781250 0.500000
vt 0.781250 1.000000
vt 0.750000 0.500000
vt 0.750000 1.000000
vt 0.718750 0.500000
vt 0.718750 1.000000
vt 0.687500 0.500000
vt 0.687500 1.000000
vt 0.656250 0.500000
vt 0.656250 1.000000
vt 0.625000 0.500000
vt 0.593750 1.000000
vt 0.593750 0.500000
vt 0.562500 0.500000
vt 0.562500 1.000000
vt 0.531250 0.500000
vt 0.531250 1.000000
vt 0.500000 0.500000
vt 0.500000 1.000000
vt 0.468750 0.500000
vt 0.468750 1.000000
vt 0.437500 0.500000
vt 0.437500 1.000000
vt 0.406250 0.500000
vt 0.406250 1.000000
vt 0.375000 0.500000
vt 0.375000 1.000000
vt 0.343750 0.500000
vt 0.343750 1.000000
vt 0.312500 0.500000
vt 0.312500 1.000000
vt 0.281250 0.500000
vt 0.281250 1.000000
vt 0.250000 0.500000
vt 0.218750 1.000000
vt 0.218750 0.500000
vt 0.187500 0.500000
vt 0.187500 1.000000
vt 0.156250 0.500000
vt 0.156250 1.000000
vt 0.125000 0.500000
vt 0.125000 1.000000
vt 0.093750 0.500000
vt 0.093750 1.000000
vt 0.062500 0.500000
vt 0.341844 0.028269
vt 0.323475 0.072615
vt 0.287457 0.061689
vt 0.203178 0.485388
vt 0.143330 0.409642
vt 0.176525 0.427385
vt 0.062500 1.000000
vt 0.031250 0.500000
vt 0.031250 1.000000
vt 0.000000 0.500000
vt 0.883337 0.449553
vt 0.856669 0.409642
vt 0.823475 0.427385
vt 0.658156 0.028269
vt 0.614235 0.114235
vt 0.643331 0.090358
vt 0.906250 1.000000
vt 0.625000 1.000000
vt 0.250000 1.000000
vt 0.212543 0.061689
vt 0.176525 0.072615
vt 0.158156 0.028269
vt 0.203178 0.014612
vt 0.250000 0.010000
vt 0.296822 0.014612
vt 0.383337 0.050447
vt 0.419706 0.080294
vt 0.449553 0.116663
vt 0.471731 0.158156
vt 0.427385 0.176525
vt 0.409642 0.143330
vt 0.385764 0.114235
vt 0.250000 0.058000
vt 0.356669 0.090358
vt 0.485388 0.203178
vt 0.490000 0.250000
vt 0.485388 0.296822
vt 0.471731 0.341844
vt 0.449553 0.383337
vt 0.419706 0.419706
vt 0.383337 0.449553
vt 0.341844 0.471731
vt 0.296822 0.485388
vt 0.250000 0.490000
vt 0.158156 0.471731
vt 0.116663 0.449553
vt 0.080294 0.419706
vt 0.050447 0.383337
vt 0.028269 0.341844
vt 0.014612 0.296822
vt 0.010000 0.250000
vt 0.014612 0.203178
vt 0.028269 0.158156
vt 0.050447 0.116663
vt 0.080294 0.080294
vt 0.116663 0.050447
vt 0.143330 0.090358
vt 0.438311 0.212543
vt 0.114235 0.114235
vt 0.090358 0.143330
vt 0.442000 0.250000
vt 0.438311 0.287457
vt 0.072615 0.176525
vt 0.427385 0.323475
vt 0.409642 0.356669
vt 0.061689 0.212543
vt 0.058000 0.250000
vt 0.385764 0.385765
vt 0.061689 0.287457
vt 0.356669 0.409642
vt 0.323475 0.427385
vt 0.072615 0.323475
vt 0.090358 0.356669
vt 0.287457 0.438311
vt 0.114235 0.385764
vt 0.250000 0.442000
vt 0.212543 0.438311
vt 0.000000 1.000000
vt 0.558000 0.250000
vt 0.561689 0.212543
vt 0.514612 0.203178
vt 0.510000 0.250000
vt 0.514612 0.296822
vt 0.528269 0.341844
vt 0.550447 0.383337
vt 0.580294 0.419706
vt 0.616663 0.449553
vt 0.658156 0.471731
vt 0.703178 0.485388
vt 0.750000 0.490000
vt 0.796822 0.485388
vt 0.841844 0.471731
vt 0.919706 0.419706
vt 0.949553 0.383337
vt 0.971731 0.341844
vt 0.985388 0.296822
vt 0.990000 0.250000
vt 0.985388 0.203178
vt 0.971731 0.158156
vt 0.949553 0.116663
vt 0.919706 0.080294
vt 0.883337 0.050447
vt 0.841844 0.028269
vt 0.796822 0.014612
vt 0.787457 0.061689
vt 0.823475 0.072615
vt 0.856669 0.090358
vt 0.561689 0.287457
vt 0.572615 0.323475
vt 0.885764 0.114235
vt 0.590358 0.356669
vt 0.909642 0.143330
vt 0.927385 0.176525
vt 0.614236 0.385765
vt 0.643330 0.409642
vt 0.938310 0.212543
vt 0.676525 0.427385
vt 0.942000 0.250000
vt 0.938310 0.287457
vt 0.712543 0.438311
vt 0.750000 0.442000
vt 0.927385 0.323475
vt 0.909642 0.356669
vt 0.787457 0.438311
vt 0.885764 0.385764
vt 0.750000 0.010000
vt 0.703178 0.014612
vt 0.616663 0.050447
vt 0.580294 0.080294
vt 0.550447 0.116663
vt 0.528269 0.158156
vt 0.572615 0.176525
vt 0.750000 0.058000
vt 0.590358 0.143331
vt 0.712543 0.061689
vt 0.676525 0.072615
s 0
usemtl マテリアル
f 3/1/1 5/2/1 1/3/1
f 7/4/2 9/5/2 5/2/2
f 11/6/3 13/7/3 9/5/3
f 13/7/4 19/8/4 17/9/4
f 19/8/5 21/10/5 17/9/5
f 23/11/6 25/12/6 21/10/6
f 27/13/7 29/14/7 25/12/7
f 31/15/8 33/16/8 29/14/8
f 35/17/9 37/18/9 33/16/9
f 39/19/10 41/20/10 37/18/10
f 43/21/11 46/22/11 41/20/11
f 48/23/12 50/24/12 46/22/12
f 50/24/13 56/25/13 54/26/13
f 56/25/14 57/27/14 54/26/14
f 59/28/15 62/29/15 57/27/15
f 63/30/16 66/31/16 62/29/16
f 68/32/17 69/33/17 66/31/17
f 72/34/18 73/35/18 69/33/18
f 75/36/19 77/37/19 73/35/19
f 80/38/20 81/39/20 77/37/20
f 84/40/21 85/41/21 81/39/21
f 88/42/22 89/43/22 85/41/22
f 92/44/23 94/45/23 89/43/23
f 95/46/24 97/47/24 94/45/24
f 97/47/25 103/48/25 101/49/25
f 103/48/26 106/50/26 101/49/26
f 107/51/27 109/52/27 106/50/27
f 111/53/28 114/54/28 109/52/28
f 116/55/29 118/56/29 114/54/29
f 120/57/30 122/58/30 118/56/30
f 59/59/31 60/60/31 64/61/31
f 128/62/31 119/63/31 123/64/31
f 124/65/32 126/66/32 122/58/32
f 128/67/33 1/68/33 126/66/33
f 13/69/34 14/70/34 10/71/34
f 73/72/34 82/73/34 78/74/34
f 6/2/17 4/1/17 2/3/17
f 6/2/18 12/6/18 8/4/18
f 12/6/19 14/7/19 16/75/19
f 14/7/20 20/8/20 16/75/20
f 20/8/21 22/10/21 24/11/21
f 24/11/22 26/12/22 28/13/22
f 28/13/23 30/14/23 32/15/23
f 32/15/24 34/16/24 36/17/24
f 36/17/25 38/18/25 40/19/25
f 40/19/26 42/20/26 44/21/26
f 44/21/27 45/22/27 47/23/27
f 49/24/28 47/23/28 45/22/28
f 52/76/29 53/26/29 55/25/29
f 55/25/30 58/27/30 60/28/30
f 60/28/32 61/29/32 64/30/32
f 64/30/33 65/31/33 67/32/33
f 67/32/1 70/33/1 71/34/1
f 74/35/2 71/34/2 70/33/2
f 79/38/3 74/35/3 78/37/3
f 78/37/4 83/40/4 79/38/4
f 82/39/5 87/42/5 83/40/5
f 91/44/6 86/41/6 90/43/6
f 90/43/7 96/46/7 91/44/7
f 93/45/8 99/77/8 96/46/8
f 104/48/9 98/47/9 102/49/9
f 102/49/10 108/51/10 104/48/10
f 105/50/11 112/53/11 108/51/11
f 110/52/12 115/55/12 112/53/12
f 113/54/13 119/57/13 115/55/13
f 123/65/14 117/56/14 121/58/14
f 127/67/15 121/58/15 125/66/15
f 2/68/16 127/67/16 125/66/16
f 3/1/1 7/4/1 5/2/1
f 7/4/2 11/6/2 9/5/2
f 11/6/3 15/75/3 13/7/3
f 13/7/4 15/75/4 19/8/4
f 19/8/5 23/11/5 21/10/5
f 23/11/6 27/13/6 25/12/6
f 27/13/7 31/15/7 29/14/7
f 31/15/8 35/17/8 33/16/8
f 35/17/9 39/19/9 37/18/9
f 39/19/10 43/21/10 41/20/10
f 43/21/11 48/23/11 46/22/11
f 48/23/12 51/76/12 50/24/12
f 50/24/13 51/76/13 56/25/13
f 56/25/14 59/28/14 57/27/14
f 59/28/15 63/30/15 62/29/15
f 63/30/16 68/32/16 66/31/16
f 68/32/17 72/34/17 69/33/17
f 72/34/18 75/36/18 73/35/18
f 75/36/19 80/38/19 77/37/19
f 80/38/20 84/40/20 81/39/20
f 84/40/21 88/42/21 85/41/21
f 88/42/22 92/44/22 89/43/22
f 92/44/23 95/46/23 94/45/23
f 95/46/24 100/77/24 97/47/24
f 97/47/25 100/77/25 103/48/25
f 103/48/26 107/51/26 106/50/26
f 107/51/27 111/53/27 109/52/27
f 111/53/28 116/55/28 114/54/28
f 116/55/29 120/57/29 118/56/29
f 120/57/30 124/65/30 122/58/30
f 71/78/31 76/79/31 75/80/31
f 75/80/31 72/81/31 68/82/31
f 68/82/31 63/83/31 59/59/31
f 59/59/31 56/84/31 51/85/31
f 51/85/31 48/86/31 43/87/31
f 43/87/31 44/88/31 47/89/31
f 43/87/31 47/89/31 52/90/31
f 59/59/31 51/85/31 43/87/31
f 75/80/31 68/82/31 59/59/31
f 67/91/31 71/78/31 75/80/31
f 64/61/31 67/91/31 75/80/31
f 59/59/31 43/87/31 52/90/31
f 59/59/31 52/90/31 55/92/31
f 64/61/31 75/80/31 59/59/31
f 59/59/31 55/92/31 60/60/31
f 44/88/31 43/87/31 39/93/31
f 39/93/31 35/94/31 31/95/31
f 31/95/31 27/96/31 23/97/31
f 23/97/31 19/98/31 15/99/31
f 15/99/31 11/100/31 7/101/31
f 7/101/31 3/102/31 128/62/31
f 128/62/31 124/103/31 120/104/31
f 120/104/31 116/105/31 111/106/31
f 111/106/31 107/107/31 103/108/31
f 103/108/31 100/109/31 95/110/31
f 95/110/31 92/111/31 88/112/31
f 88/112/31 84/113/31 80/114/31
f 80/114/31 75/80/31 76/79/31
f 80/114/31 76/79/31 79/115/31
f 95/110/31 88/112/31 80/114/31
f 111/106/31 103/108/31 95/110/31
f 128/62/31 120/104/31 111/106/31
f 15/99/31 7/101/31 128/62/31
f 31/95/31 23/97/31 15/99/31
f 44/88/31 39/93/31 31/95/31
f 40/116/31 44/88/31 31/95/31
f 80/114/31 79/115/31 83/117/31
f 80/114/31 83/117/31 87/118/31
f 36/119/31 40/116/31 31/95/31
f 32/120/31 36/119/31 31/95/31
f 95/110/31 80/114/31 87/118/31
f 95/110/31 87/118/31 91/121/31
f 28/122/31 32/120/31 31/95/31
f 24/123/31 28/122/31 31/95/31
f 95/110/31 91/121/31 96/124/31
f 95/110/31 96/124/31 99/125/31
f 24/123/31 31/95/31 15/99/31
f 20/126/31 24/123/31 15/99/31
f 111/106/31 95/110/31 99/125/31
f 111/106/31 99/125/31 104/127/31
f 16/128/31 20/126/31 15/99/31
f 12/129/31 16/128/31 15/99/31
f 111/106/31 104/127/31 108/130/31
f 111/106/31 108/130/31 112/131/31
f 12/129/31 15/99/31 128/62/31
f 8/132/31 12/129/31 128/62/31
f 111/106/31 112/131/31 115/133/31
f 111/106/31 115/133/31 119/63/31
f 4/134/31 8/132/31 128/62/31
f 127/135/31 4/134/31 128/62/31
f 128/62/31 111/106/31 119/63/31
f 123/64/31 127/135/31 128/62/31
f 124/65/32 128/67/32 126/66/32
f 128/67/33 3/136/33 1/68/33
f 98/137/34 93/138/34 94/139/34
f 94/139/34 97/140/34 101/141/34
f 101/141/34 106/142/34 109/143/34
f 109/143/34 114/144/34 118/145/34
f 118/145/34 122/146/34 126/147/34
f 126/147/34 1/148/34 5/149/34
f 5/149/34 9/150/34 13/69/34
f 13/69/34 17/151/34 21/152/34
f 21/152/34 25/153/34 29/154/34
f 29/154/34 33/155/34 37/156/34
f 37/156/34 41/157/34 46/158/34
f 46/158/34 50/159/34 54/160/34
f 54/160/34 57/161/34 62/162/34
f 62/162/34 61/163/34 58/164/34
f 62/162/34 58/164/34 53/165/34
f 46/158/34 54/160/34 62/162/34
f 29/154/34 37/156/34 46/158/34
f 13/69/34 21/152/34 29/154/34
f 126/147/34 5/149/34 13/69/34
f 109/143/34 118/145/34 126/147/34
f 94/139/34 101/141/34 109/143/34
f 102/166/34 98/137/34 94/139/34
f 105/167/34 102/166/34 94/139/34
f 46/158/34 62/162/34 53/165/34
f 46/158/34 53/165/34 49/168/34
f 105/167/34 94/139/34 109/143/34
f 110/169/34 105/167/34 109/143/34
f 46/158/34 49/168/34 45/170/34
f 46/158/34 45/170/34 42/171/34
f 113/172/34 110/169/34 109/143/34
f 117/173/34 113/172/34 109/143/34
f 29/154/34 46/158/34 42/171/34
f 29/154/34 42/171/34 38/174/34
f 117/173/34 109/143/34 126/147/34
f 121/175/34 117/173/34 126/147/34
f 29/154/34 38/174/34 34/176/34
f 29/154/34 34/176/34 30/177/34
f 125/178/34 121/175/34 126/147/34
f 2/179/34 125/178/34 126/147/34
f 29/154/34 30/177/34 26/180/34
f 29/154/34 26/180/34 22/181/34
f 2/179/34 126/147/34 13/69/34
f 6/182/34 2/179/34 13/69/34
f 13/69/34 29/154/34 22/181/34
f 13/69/34 22/181/34 18/183/34
f 10/71/34 6/182/34 13/69/34
f 13/69/34 18/183/34 14/70/34
f 61/163/34 62/162/34 66/184/34
f 66/184/34 69/185/34 73/72/34
f 73/72/34 77/186/34 81/187/34
f 81/187/34 85/188/34 89/189/34
f 89/189/34 94/139/34 93/138/34
f 89/189/34 93/138/34 90/190/34
f 73/72/34 81/187/34 89/189/34
f 61/163/34 66/184/34 73/72/34
f 65/191/34 61/163/34 73/72/34
f 89/189/34 90/190/34 86/192/34
f 89/189/34 86/192/34 82/73/34
f 70/193/34 65/191/34 73/72/34
f 74/194/34 70/193/34 73/72/34
f 73/72/34 89/189/34 82/73/34
f 78/74/34 74/194/34 73/72/34
f 6/2/17 8/4/17 4/1/17
f 6/2/18 10/5/18 12/6/18
f 12/6/19 10/5/19 14/7/19
f 14/7/20 18/9/20 20/8/20
f 20/8/21 18/9/21 22/10/21
f 24/11/22 22/10/22 26/12/22
f 28/13/23 26/12/23 30/14/23
f 32/15/24 30/14/24 34/16/24
f 36/17/25 34/16/25 38/18/25
f 40/19/26 38/18/26 42/20/26
f 44/21/27 42/20/27 45/22/27
f 49/24/28 52/76/28 47/23/28
f 52/76/29 49/24/29 53/26/29
f 55/25/30 53/26/30 58/27/30
f 60/28/32 58/27/32 61/29/32
f 64/30/33 61/29/33 65/31/33
f 67/32/1 65/31/1 70/33/1
f 74/35/2 76/36/2 71/34/2
f 79/38/3 76/36/3 74/35/3
f 78/37/4 82/39/4 83/40/4
f 82/39/5 86/41/5 87/42/5
f 91/44/6 87/42/6 86/41/6
f 90/43/7 93/45/7 96/46/7
f 93/45/8 98/47/8 99/77/8
f 104/48/9 99/77/9 98/47/9
f 102/49/10 105/50/10 108/51/10
f 105/50/11 110/52/11 112/53/11
f 110/52/12 113/54/12 115/55/12
f 113/54/13 117/56/13 119/57/13
f 123/65/14 119/57/14 117/56/14
f 127/67/15 123/65/15 121/58/15
f 2/68/16 4/136/16 127/67/16
