# Blender 4.4.1
# www.blender.org
mtllib body.mtl
o 円柱
v 0.000000 0.800000 -3.000000
v 0.585271 0.800000 -2.942356
v 1.148050 0.800000 -2.771638
v 1.666711 0.800000 -2.494409
v 2.121320 0.800000 -2.121320
v 2.494409 0.800000 -1.666711
v 2.771638 0.800000 -1.148050
v 2.942356 0.800000 -0.585271
v 3.000000 0.800000 0.000000
v 2.942356 0.800000 0.585271
v 2.771638 0.800000 1.148050
v 2.494409 0.800000 1.666711
v 2.121320 0.800000 2.121320
v 1.666711 0.800000 2.494409
v 1.148050 0.800000 2.771638
v 0.585271 0.800000 2.942356
v 0.000000 0.800000 3.000000
v -0.585271 0.800000 2.942356
v -1.148050 0.800000 2.771638
v -1.666711 0.800000 2.494409
v -2.121320 0.800000 2.121320
v -2.494409 0.800000 1.666711
v -2.771638 0.800000 1.148050
v -2.942356 0.800000 0.585271
v -3.000000 0.800000 0.000000
v -2.942356 0.800000 -0.585271
v -2.771638 0.800000 -1.148050
v -2.494409 0.800000 -1.666711
v -2.121320 0.800000 -2.121320
v -1.666711 0.800000 -2.494409
v -1.148050 0.800000 -2.771638
v -0.585271 0.800000 -2.942356
v -0.000000 -0.800000 -1.740120
v 0.000000 -0.465650 -3.000000
v 0.339480 -0.800000 -1.706684
v 0.585271 -0.465650 -2.942356
v 0.665916 -0.800000 -1.607661
v 1.148050 -0.465650 -2.771638
v 0.966759 -0.800000 -1.446857
v 1.666711 -0.465650 -2.494409
v 1.230451 -0.800000 -1.230451
v 2.121320 -0.465650 -2.121320
v 1.446856 -0.800000 -0.966759
v 2.494409 -0.465650 -1.666711
v 1.607661 -0.800000 -0.665916
v 2.771638 -0.465650 -1.148050
v 1.706684 -0.800000 -0.339480
v 2.942356 -0.465650 -0.585271
v 1.740120 -0.800000 -0.000000
v 3.000000 -0.465650 0.000000
v 1.706684 -0.800000 0.339480
v 2.942356 -0.465650 0.585271
v 1.607661 -0.800000 0.665916
v 2.771638 -0.465650 1.148050
v 1.446857 -0.800000 0.966759
v 2.494409 -0.465650 1.666711
v 1.230451 -0.800000 1.230451
v 2.121320 -0.465650 2.121320
v 0.966759 -0.800000 1.446856
v 1.666711 -0.465650 2.494409
v 0.665916 -0.800000 1.607661
v 1.148050 -0.465650 2.771638
v 0.339480 -0.800000 1.706684
v 0.585271 -0.465650 2.942356
v 0.000000 -0.800000 1.740120
v 0.000000 -0.465650 3.000000
v -0.339480 -0.800000 1.706684
v -0.585271 -0.465650 2.942356
v -0.665916 -0.800000 1.607661
v -1.148050 -0.465650 2.771638
v -0.966759 -0.800000 1.446857
v -1.666711 -0.465650 2.494409
v -1.230451 -0.800000 1.230451
v -2.121320 -0.465650 2.121320
v -1.446856 -0.800000 0.966759
v -2.494409 -0.465650 1.666711
v -1.607661 -0.800000 0.665916
v -2.771638 -0.465650 1.148050
v -1.706684 -0.800000 0.339480
v -2.942356 -0.465650 0.585271
v -1.740120 -0.800000 0.000000
v -3.000000 -0.465650 0.000000
v -1.706684 -0.800000 -0.339480
v -2.942356 -0.465650 -0.585271
v -1.607661 -0.800000 -0.665916
v -2.771638 -0.465650 -1.148050
v -1.446857 -0.800000 -0.966759
v -2.494409 -0.465650 -1.666711
v -1.230451 -0.800000 -1.230451
v -2.121320 -0.465650 -2.121320
v -0.966759 -0.800000 -1.446856
v -1.666711 -0.465650 -2.494409
v -0.665916 -0.800000 -1.607661
v -1.148050 -0.465650 -2.771638
v -0.339480 -0.800000 -1.706684
v -0.585271 -0.465650 -2.942356
vn -0.0980 -0.0000 -0.9952
vn 0.4714 -0.0000 -0.8819
vn 0.6344 -0.0000 -0.7730
vn 0.7730 -0.0000 -0.6344
vn 0.8819 -0.0000 -0.4714
vn 0.9569 -0.0000 -0.2903
vn 0.9952 -0.0000 -0.0980
vn 0.9952 -0.0000 0.0980
vn 0.9569 -0.0000 0.2903
vn 0.8819 -0.0000 0.4714
vn 0.7730 -0.0000 0.6344
vn 0.6344 -0.0000 0.7730
vn 0.4714 -0.0000 0.8819
vn 0.2903 -0.0000 0.9569
vn 0.0980 -0.0000 0.9952
vn -0.0980 -0.0000 0.9952
vn -0.2903 -0.0000 0.9569
vn -0.4714 -0.0000 0.8819
vn -0.6344 -0.0000 0.7730
vn -0.7730 -0.0000 0.6344
vn -0.8819 -0.0000 0.4714
vn -0.9569 -0.0000 0.2903
vn -0.9952 -0.0000 0.0980
vn -0.9952 -0.0000 -0.0980
vn -0.9569 -0.0000 -0.2903
vn -0.8819 -0.0000 -0.4714
vn -0.7730 -0.0000 -0.6344
vn -0.6344 -0.0000 -0.7730
vn -0.4714 -0.0000 -0.8819
vn -0.2903 -0.0000 -0.9569
vn -0.0000 1.0000 -0.0000
vn 0.2903 -0.0000 -0.9569
vn 0.0980 -0.0000 -0.9952
vn 0.0253 -0.9662 -0.2564
vn 0.0748 -0.9662 -0.2466
vn 0.1215 -0.9662 -0.2272
vn 0.1635 -0.9662 -0.1992
vn 0.1992 -0.9662 -0.1635
vn 0.2272 -0.9662 -0.1215
vn 0.2466 -0.9662 -0.0748
vn 0.2564 -0.9662 -0.0253
vn 0.2564 -0.9662 0.0253
vn 0.2466 -0.9662 0.0748
vn 0.2272 -0.9662 0.1215
vn 0.1992 -0.9662 0.1635
vn 0.1635 -0.9662 0.1992
vn 0.1215 -0.9662 0.2272
vn 0.0748 -0.9662 0.2466
vn 0.0253 -0.9662 0.2564
vn -0.0253 -0.9662 0.2564
vn -0.0748 -0.9662 0.2466
vn -0.1215 -0.9662 0.2272
vn -0.1635 -0.9662 0.1992
vn -0.1992 -0.9662 0.1635
vn -0.2272 -0.9662 0.1215
vn -0.2466 -0.9662 0.0748
vn -0.2564 -0.9662 0.0253
vn -0.2564 -0.9662 -0.0253
vn -0.2466 -0.9662 -0.0748
vn -0.2272 -0.9662 -0.1215
vn -0.1992 -0.9662 -0.1635
vn -0.1635 -0.9662 -0.1992
vn -0.1215 -0.9662 -0.2272
vn -0.0748 -0.9662 -0.2466
vn -0.0253 -0.9662 -0.2564
vn -0.0000 -1.0000 -0.0000
vt 0.031250 1.000000
vt 0.000000 0.604484
vt 0.031250 0.604484
vt 0.937500 1.000000
vt 0.906250 0.604484
vt 0.937500 0.604484
vt 0.906250 1.000000
vt 0.875000 0.604484
vt 0.875000 1.000000
vt 0.843750 0.604484
vt 0.875000 0.604484
vt 0.843750 1.000000
vt 0.812500 0.604484
vt 0.812500 1.000000
vt 0.781250 0.604484
vt 0.781250 1.000000
vt 0.750000 0.604484
vt 0.750000 1.000000
vt 0.718750 0.604484
vt 0.718750 1.000000
vt 0.687500 0.604484
vt 0.687500 1.000000
vt 0.656250 0.604484
vt 0.656250 1.000000
vt 0.625000 0.604484
vt 0.625000 1.000000
vt 0.593750 0.604484
vt 0.593750 1.000000
vt 0.562500 0.604484
vt 0.562500 1.000000
vt 0.531250 0.604484
vt 0.531250 1.000000
vt 0.500000 0.604484
vt 0.500000 1.000000
vt 0.468750 0.604484
vt 0.468750 1.000000
vt 0.437500 0.604484
vt 0.437500 1.000000
vt 0.406250 0.604484
vt 0.406250 1.000000
vt 0.375000 0.604484
vt 0.375000 1.000000
vt 0.343750 0.604484
vt 0.343750 1.000000
vt 0.312500 0.604484
vt 0.312500 1.000000
vt 0.281250 0.604484
vt 0.281250 1.000000
vt 0.250000 0.604484
vt 0.250000 1.000000
vt 0.218750 0.604484
vt 0.218750 1.000000
vt 0.187500 0.604484
vt 0.187500 1.000000
vt 0.156250 0.604484
vt 0.156250 1.000000
vt 0.125000 0.604484
vt 0.125000 1.000000
vt 0.093750 0.604484
vt 0.093750 1.000000
vt 0.062500 0.604484
vt 0.062500 1.000000
vt 0.158156 0.028269
vt 0.471731 0.158156
vt 0.341844 0.471731
vt 0.968750 1.000000
vt 0.968750 0.604484
vt 1.000000 1.000000
vt 1.000000 0.604484
vt 0.796822 0.485388
vt 0.750000 0.389210
vt 0.750000 0.490000
vt 0.841844 0.471731
vt 0.777158 0.386535
vt 0.883337 0.449553
vt 0.803273 0.378613
vt 0.919706 0.419706
vt 0.827341 0.365749
vt 0.949553 0.383337
vt 0.848436 0.348436
vt 0.971731 0.341844
vt 0.865749 0.327341
vt 0.985388 0.296822
vt 0.878613 0.303273
vt 0.990000 0.250000
vt 0.886535 0.277158
vt 0.985388 0.203178
vt 0.889210 0.250000
vt 0.971731 0.158156
vt 0.886535 0.222842
vt 0.949553 0.116663
vt 0.878613 0.196727
vt 0.919706 0.080294
vt 0.865748 0.172659
vt 0.883337 0.050447
vt 0.848436 0.151564
vt 0.841844 0.028269
vt 0.827341 0.134252
vt 0.796822 0.014612
vt 0.803273 0.121387
vt 0.750000 0.010000
vt 0.777158 0.113465
vt 0.703178 0.014612
vt 0.750000 0.110790
vt 0.658156 0.028269
vt 0.722842 0.113465
vt 0.616663 0.050447
vt 0.696727 0.121387
vt 0.580294 0.080294
vt 0.672659 0.134251
vt 0.550447 0.116663
vt 0.651564 0.151564
vt 0.528269 0.158156
vt 0.634252 0.172659
vt 0.514612 0.203178
vt 0.621387 0.196727
vt 0.510000 0.250000
vt 0.613465 0.222842
vt 0.514612 0.296822
vt 0.610791 0.250000
vt 0.528269 0.341844
vt 0.613465 0.277158
vt 0.550447 0.383337
vt 0.621387 0.303273
vt 0.580294 0.419706
vt 0.634252 0.327341
vt 0.616663 0.449553
vt 0.651564 0.348436
vt 0.658156 0.471731
vt 0.672659 0.365749
vt 0.703178 0.485388
vt 0.696727 0.378613
vt 0.722842 0.386535
vt 0.000000 1.000000
vt 0.296822 0.485388
vt 0.250000 0.490000
vt 0.203178 0.485388
vt 0.158156 0.471731
vt 0.116663 0.449553
vt 0.080294 0.419706
vt 0.050447 0.383337
vt 0.028269 0.341844
vt 0.014612 0.296822
vt 0.010000 0.250000
vt 0.014612 0.203178
vt 0.028269 0.158156
vt 0.050447 0.116663
vt 0.080294 0.080294
vt 0.116663 0.050447
vt 0.203178 0.014612
vt 0.250000 0.010000
vt 0.296822 0.014612
vt 0.341844 0.028269
vt 0.383337 0.050447
vt 0.419706 0.080294
vt 0.449553 0.116663
vt 0.485388 0.203178
vt 0.490000 0.250000
vt 0.485388 0.296822
vt 0.471731 0.341844
vt 0.449553 0.383337
vt 0.419706 0.419706
vt 0.383337 0.449553
s 0
f 32/1/1 34/2/1 96/3/1
f 3/4/2 40/5/2 38/6/2
f 4/7/3 42/8/3 40/5/3
f 5/9/4 44/10/4 42/11/4
f 6/12/5 46/13/5 44/10/5
f 7/14/6 48/15/6 46/13/6
f 8/16/7 50/17/7 48/15/7
f 9/18/8 52/19/8 50/17/8
f 10/20/9 54/21/9 52/19/9
f 11/22/10 56/23/10 54/21/10
f 12/24/11 58/25/11 56/23/11
f 13/26/12 60/27/12 58/25/12
f 14/28/13 62/29/13 60/27/13
f 15/30/14 64/31/14 62/29/14
f 16/32/15 66/33/15 64/31/15
f 17/34/16 68/35/16 66/33/16
f 18/36/17 70/37/17 68/35/17
f 19/38/18 72/39/18 70/37/18
f 20/40/19 74/41/19 72/39/19
f 21/42/20 76/43/20 74/41/20
f 22/44/21 78/45/21 76/43/21
f 23/46/22 80/47/22 78/45/22
f 24/48/23 82/49/23 80/47/23
f 25/50/24 84/51/24 82/49/24
f 26/52/25 86/53/25 84/51/25
f 27/54/26 88/55/26 86/53/26
f 28/56/27 90/57/27 88/55/27
f 29/58/28 92/59/28 90/57/28
f 30/60/29 94/61/29 92/59/29
f 31/62/30 96/3/30 94/61/30
f 19/63/31 11/64/31 3/65/31
f 2/66/32 38/6/32 36/67/32
f 1/68/33 36/67/33 34/69/33
f 36/70/34 33/71/34 34/72/34
f 38/73/35 35/74/35 36/70/35
f 40/75/36 37/76/36 38/73/36
f 42/77/37 39/78/37 40/75/37
f 44/79/38 41/80/38 42/77/38
f 46/81/39 43/82/39 44/79/39
f 48/83/40 45/84/40 46/81/40
f 50/85/41 47/86/41 48/83/41
f 52/87/42 49/88/42 50/85/42
f 54/89/43 51/90/43 52/87/43
f 56/91/44 53/92/44 54/89/44
f 58/93/45 55/94/45 56/91/45
f 60/95/46 57/96/46 58/93/46
f 62/97/47 59/98/47 60/95/47
f 64/99/48 61/100/48 62/97/48
f 66/101/49 63/102/49 64/99/49
f 68/103/50 65/104/50 66/101/50
f 70/105/51 67/106/51 68/103/51
f 72/107/52 69/108/52 70/105/52
f 74/109/53 71/110/53 72/107/53
f 76/111/54 73/112/54 74/109/54
f 78/113/55 75/114/55 76/111/55
f 80/115/56 77/116/56 78/113/56
f 82/117/57 79/118/57 80/115/57
f 84/119/58 81/120/58 82/117/58
f 86/121/59 83/122/59 84/119/59
f 88/123/60 85/124/60 86/121/60
f 90/125/61 87/126/61 88/123/61
f 92/127/62 89/128/62 90/125/62
f 94/129/63 91/130/63 92/127/63
f 96/131/64 93/132/64 94/129/64
f 34/72/65 95/133/65 96/131/65
f 63/102/66 79/118/66 95/133/66
f 32/1/1 1/134/1 34/2/1
f 3/4/2 4/7/2 40/5/2
f 4/7/3 5/9/3 42/8/3
f 5/9/4 6/12/4 44/10/4
f 6/12/5 7/14/5 46/13/5
f 7/14/6 8/16/6 48/15/6
f 8/16/7 9/18/7 50/17/7
f 9/18/8 10/20/8 52/19/8
f 10/20/9 11/22/9 54/21/9
f 11/22/10 12/24/10 56/23/10
f 12/24/11 13/26/11 58/25/11
f 13/26/12 14/28/12 60/27/12
f 14/28/13 15/30/13 62/29/13
f 15/30/14 16/32/14 64/31/14
f 16/32/15 17/34/15 66/33/15
f 17/34/16 18/36/16 68/35/16
f 18/36/17 19/38/17 70/37/17
f 19/38/18 20/40/18 72/39/18
f 20/40/19 21/42/19 74/41/19
f 21/42/20 22/44/20 76/43/20
f 22/44/21 23/46/21 78/45/21
f 23/46/22 24/48/22 80/47/22
f 24/48/23 25/50/23 82/49/23
f 25/50/24 26/52/24 84/51/24
f 26/52/25 27/54/25 86/53/25
f 27/54/26 28/56/26 88/55/26
f 28/56/27 29/58/27 90/57/27
f 29/58/28 30/60/28 92/59/28
f 30/60/29 31/62/29 94/61/29
f 31/62/30 32/1/30 96/3/30
f 3/65/31 2/135/31 1/136/31
f 1/136/31 32/137/31 31/138/31
f 31/138/31 30/139/31 29/140/31
f 29/140/31 28/141/31 27/142/31
f 27/142/31 26/143/31 25/144/31
f 25/144/31 24/145/31 23/146/31
f 23/146/31 22/147/31 21/148/31
f 21/148/31 20/149/31 19/63/31
f 19/63/31 18/150/31 17/151/31
f 17/151/31 16/152/31 15/153/31
f 15/153/31 14/154/31 13/155/31
f 13/155/31 12/156/31 11/64/31
f 11/64/31 10/157/31 9/158/31
f 9/158/31 8/159/31 7/160/31
f 7/160/31 6/161/31 5/162/31
f 5/162/31 4/163/31 3/65/31
f 3/65/31 1/136/31 31/138/31
f 31/138/31 29/140/31 27/142/31
f 27/142/31 25/144/31 23/146/31
f 23/146/31 21/148/31 19/63/31
f 19/63/31 17/151/31 15/153/31
f 15/153/31 13/155/31 11/64/31
f 11/64/31 9/158/31 7/160/31
f 7/160/31 5/162/31 3/65/31
f 3/65/31 31/138/31 27/142/31
f 27/142/31 23/146/31 19/63/31
f 19/63/31 15/153/31 11/64/31
f 11/64/31 7/160/31 3/65/31
f 3/65/31 27/142/31 19/63/31
f 2/66/32 3/4/32 38/6/32
f 1/68/33 2/66/33 36/67/33
f 36/70/34 35/74/34 33/71/34
f 38/73/35 37/76/35 35/74/35
f 40/75/36 39/78/36 37/76/36
f 42/77/37 41/80/37 39/78/37
f 44/79/38 43/82/38 41/80/38
f 46/81/39 45/84/39 43/82/39
f 48/83/40 47/86/40 45/84/40
f 50/85/41 49/88/41 47/86/41
f 52/87/42 51/90/42 49/88/42
f 54/89/43 53/92/43 51/90/43
f 56/91/44 55/94/44 53/92/44
f 58/93/45 57/96/45 55/94/45
f 60/95/46 59/98/46 57/96/46
f 62/97/47 61/100/47 59/98/47
f 64/99/48 63/102/48 61/100/48
f 66/101/49 65/104/49 63/102/49
f 68/103/50 67/106/50 65/104/50
f 70/105/51 69/108/51 67/106/51
f 72/107/52 71/110/52 69/108/52
f 74/109/53 73/112/53 71/110/53
f 76/111/54 75/114/54 73/112/54
f 78/113/55 77/116/55 75/114/55
f 80/115/56 79/118/56 77/116/56
f 82/117/57 81/120/57 79/118/57
f 84/119/58 83/122/58 81/120/58
f 86/121/59 85/124/59 83/122/59
f 88/123/60 87/126/60 85/124/60
f 90/125/61 89/128/61 87/126/61
f 92/127/62 91/130/62 89/128/62
f 94/129/63 93/132/63 91/130/63
f 96/131/64 95/133/64 93/132/64
f 34/72/65 33/71/65 95/133/65
f 95/133/66 33/71/66 35/74/66
f 35/74/66 37/76/66 39/78/66
f 39/78/66 41/80/66 43/82/66
f 43/82/66 45/84/66 47/86/66
f 47/86/66 49/88/66 51/90/66
f 51/90/66 53/92/66 55/94/66
f 55/94/66 57/96/66 59/98/66
f 59/98/66 61/100/66 63/102/66
f 63/102/66 65/104/66 67/106/66
f 67/106/66 69/108/66 71/110/66
f 71/110/66 73/112/66 75/114/66
f 75/114/66 77/116/66 79/118/66
f 79/118/66 81/120/66 83/122/66
f 83/122/66 85/124/66 87/126/66
f 87/126/66 89/128/66 91/130/66
f 91/130/66 93/132/66 95/133/66
f 95/133/66 35/74/66 39/78/66
f 39/78/66 43/82/66 47/86/66
f 47/86/66 51/90/66 55/94/66
f 55/94/66 59/98/66 63/102/66
f 63/102/66 67/106/66 71/110/66
f 71/110/66 75/114/66 79/118/66
f 79/118/66 83/122/66 87/126/66
f 87/126/66 91/130/66 95/133/66
f 95/133/66 39/78/66 47/86/66
f 47/86/66 55/94/66 63/102/66
f 63/102/66 71/110/66 79/118/66
f 79/118/66 87/126/66 95/133/66
f 95/133/66 47/86/66 63/102/66
