mtllib Debris_Pillar.mtl
o tripo_node_d05c8c3f-20e2-49ec-b620-aa98764917e3
g tripo_node_d05c8c3f-20e2-49ec-b620-aa98764917e3
usemtl tripo_material_d05c8c3f_20e2_49ec_b620_aa98764917e3
v 0.218368530 0.000000000 -0.242752060
vt 0.771972656 0.095214844
vn 0.149806201 -0.961912990 0.228651464
v 0.338928223 0.029235810 -0.366607636
vt 0.732666016 0.032714844
vn 0.464624465 -0.692999363 -0.551249444
v 0.380462646 0.052337676 -0.188171387
vt 0.812255859 0.037353516
vn 0.424094111 -0.620433748 0.659701645
v 0.389404297 0.110778838 -0.209350586
vt 0.806152344 0.013183594
vn 0.976771712 -0.173298165 -0.126035184
v 0.412750244 0.150390655 -0.196716323
vt 0.809326172 0.000000000
vn 0.637065053 -0.007864937 0.770769835
v 0.186126694 0.023895234 -0.375610322
vt 0.720458984 0.083984375
vn 0.054910764 -0.698152065 -0.713840723
v 0.160461426 0.012786865 -0.226455659
vt 0.762695312 0.121582031
vn 0.000000054 -0.996914387 0.078497238
v 0.314575195 0.102813721 -0.175033569
vt 0.827636719 0.068603516
vn 0.503812134 -0.818694592 0.275522202
v 0.341827393 0.201095596 -0.180664062
vt 0.845703125 0.036621094
vn 0.994224131 -0.102578633 0.031562544
v 0.364074707 0.057342559 -0.034763336
vt 0.882080078 0.094238281
vn 0.849656582 -0.527101696 0.015734291
v 0.230453506 0.070129395 -0.086677536
vt 0.830322266 0.122314453
vn 0.189565033 -0.971520424 0.142173722
v 0.312744200 0.099700928 0.002101902
vt 0.883056641 0.123291016
vn 0.345398396 -0.894895613 0.282598555
v 0.157714859 0.054687500 -0.142181367
vt 0.794189453 0.142089844
vn 0.086394913 -0.966051340 0.243476391
v 0.118484519 0.048980713 -0.106704682
vt 0.794921875 0.166259766
vn -0.078936107 -0.986702085 0.142085150
v 0.008945473 0.018341064 -0.203369096
vt 0.753662109 0.164306641
vn -0.473498970 -0.860189915 0.189399719
v 0.192535430 0.057983398 0.000871680
vt 0.850097656 0.157470703
vn 0.323306084 -0.946261644 0.007885512
v 0.239303619 0.092651367 0.035446182
vt 0.879638672 0.150878906
vn 0.291546583 -0.937676728 -0.189111277
v 0.184188887 0.041900635 0.091293357
vt 0.881835938 0.176513672
vn 0.268408060 -0.939428151 -0.213147566
v 0.115882926 0.023986816 0.120407134
vt 0.875000000 0.210449219
vn 0.007878679 -0.984832287 -0.173330441
v 0.085273772 0.073822021 0.002178228
vt 0.821044922 0.218750000
v 0.014212621 0.070556641 -0.150558427
vt 0.781738281 0.203613281
vn 0.259553015 -0.943829119 -0.204496279
v 0.026794480 0.013488770 0.088836722
vt 0.806884766 0.254638672
vn 0.292382836 -0.956170738 -0.015804473
v -0.019950848 0.002136230 -0.129630983
vt 0.765625000 0.220703125
vn 0.023672018 -0.978442788 -0.205157310
vt 0.543212891 0.698974609
vt 0.562988281 0.767822266
v 0.381835938 0.166534424 -0.400543243
vt 0.508544922 0.768798828
vn 0.714302421 -0.274731696 -0.643657267
v 0.396697998 0.263107300 -0.402130157
vt 0.473144531 0.764648438
vn 0.883974850 -0.173637897 -0.434094936
v 0.233123749 0.198486298 -0.419067383
vt 0.504150391 0.830078125
vn 0.094584882 -0.189170048 -0.977378368
vt 0.576904297 0.836425781
v 0.122413605 0.167785615 -0.426116943
vt 0.519531250 0.874511719
vn -0.031555910 -0.205112681 -0.978229523
v 0.115348786 0.261016846 -0.438568115
vt 0.481201172 0.880615234
vn -0.039252341 -0.188410714 -0.981305599
v 0.011415467 0.015350312 -0.384765565
vt 0.562988281 0.927490234
vn -0.282703191 -0.738169372 -0.612523377
v 0.008144351 0.241516098 -0.409637421
vt 0.505126953 0.912597656
vn -0.409296691 -0.165292904 -0.897303998
v -0.036514312 0.269744873 -0.413391083
vt 0.506347656 0.929443359
vn -0.267385304 -0.259520948 -0.927983820
v 0.371093690 0.265411377 -0.451812774
vt 0.457275391 0.785156250
vn 0.125859350 -0.180923030 -0.975410879
v 0.381683290 0.460819244 -0.439788848
vt 0.383789062 0.775146484
vn 0.860163033 0.071022652 -0.505050004
v 0.377471924 0.296203613 -0.380889922
vt 0.458251953 0.753417969
vn 0.987533152 0.150105089 0.047401454
v 0.378540039 0.341659546 -0.260635376
vt 0.428466797 0.717285156
vn 0.997991085 0.007858238 -0.062865712
v 0.240798905 0.430486679 -0.453460693
vt 0.403076172 0.837158203
vn 0.023589030 0.047178283 -0.998607934
v 0.321624696 0.519836426 -0.408355713
vt 0.364746094 0.807128906
vn 0.149264157 0.699185252 -0.699185371
v -0.012941402 0.430318803 -0.452423066
vt 0.410644531 0.928222656
vn -0.173330605 0.007878607 -0.984832168
v 0.112968400 0.514579773 -0.452026337
vt 0.361816406 0.881591797
vn -0.007847678 0.517937839 -0.855382264
vt 0.909423828 0.516113281
v 0.398376465 0.277160645 -0.209030166
vt 0.951171875 0.481445312
vn 0.942809045 0.047140479 -0.329983294
vt 0.927246094 0.517578125
vt 0.899414062 0.446533203
vt 0.913330078 0.433349609
vt 0.948974609 0.445800781
v 0.385742188 0.443949223 -0.235610977
vt 0.990478516 0.450195312
vn 0.967305183 -0.125828281 -0.220199689
vt 0.999755859 0.399658203
v 0.429321289 0.442555428 -0.219802886
vt 1.000000000 0.464843750
vn 0.997713923 -0.039280035 -0.054992236
v 0.355651855 0.352142334 -0.179031387
vt 0.997558594 0.527099609
vn 0.873528600 -0.275436848 0.401350826
vt 0.915771484 0.553710938
vt 0.965820312 0.557861328
vt 0.438232422 0.618652344
vt 0.451660156 0.551025391
vt 0.518066406 0.611816406
vt 0.454345703 0.673583984
vt 0.525146484 0.537109375
v -0.015036596 0.089111328 -0.346923769
vt 0.562988281 0.589599609
vn -0.622781336 -0.512414992 -0.591248035
vt 0.588378906 0.660156250
v -0.018356342 0.176574677 -0.360992402
vt 0.589355469 0.627441406
vn -0.126325503 -0.544778347 -0.829010546
v -0.105804458 0.037536591 -0.378082216
vt 0.649414062 0.683105469
vn -0.015718443 -0.353662610 -0.935240984
v -0.098327659 0.212814316 -0.373596162
vt 0.593994141 0.667724609
vn -0.015687481 -0.196092054 -0.980460048
v -0.190353408 0.178466767 -0.359222353
vt 0.642578125 0.627685547
vn 0.252351999 -0.315440148 -0.914776444
v -0.178619400 0.078277588 -0.340850741
vt 0.624023438 0.580810547
vn 0.385814786 -0.826746047 -0.409436136
v -0.108947761 0.092926025 -0.319702089
vt 0.596191406 0.569824219
vn 0.023614774 -0.999690175 0.007871618
v -0.184509262 0.093444824 -0.169601366
vt 0.621582031 0.499023438
vn 0.007871618 -0.999690175 -0.023614688
v -0.131500229 0.077362061 -0.156265199
vt 0.600830078 0.489990234
vn -0.165369734 -0.874097109 -0.456735373
v -0.006735318 0.092102051 -0.195037797
vt 0.555175781 0.524169922
vn -0.291972846 -0.954830170 -0.055238031
vt 0.544189453 0.506591797
vt 0.518066406 0.483398438
vt 0.554931641 0.469726562
v -0.254302919 0.014648438 0.016702734
vt 0.638916016 0.396728516
vn -0.549328089 -0.808297098 -0.211883605
vt 0.295654297 0.917724609
vt 0.310058594 0.880859375
vt 0.315917969 0.899902344
vt 0.275146484 0.896240234
vt 0.240234375 0.905029297
v -0.204879791 0.280868500 -0.411407411
vt 0.235107422 0.853271484
vn 0.063117355 -0.197242156 -0.978320897
v -0.360595703 0.260864228 -0.382873446
vt 0.169189453 0.847900391
vn -0.675388157 -0.102093600 -0.730361462
v -0.211868331 0.428096741 -0.441558778
vt 0.235839844 0.808837891
vn 0.180760756 -0.047155052 -0.982396126
v -0.064193763 0.380638123 -0.413879365
vt 0.300292969 0.829101562
vn -0.047190130 -0.007865045 -0.998854995
vt 0.334716797 0.818359375
vt 0.359863281 0.894042969
v 0.071800195 0.511737823 -0.410278291
vt 0.357177734 0.775634766
vn -0.110110134 0.228084952 -0.967395008
vt 0.376220703 0.773925781
vt 0.935791016 0.145996094
vt 0.887207031 0.193847656
v 0.410217226 0.519767761 -0.350891143
vt 0.902343750 0.158203125
vn 0.912848294 0.361991644 -0.188865319
v 0.397155762 0.545059204 -0.181655899
vt 0.937500000 0.106445312
vn 0.888882399 0.440508157 -0.125859603
vt 0.948730469 0.141845703
v 0.425872803 0.536170959 -0.023149520
vt 0.998046875 0.104003906
vn 0.983459711 0.102279857 0.149485737
v 0.387451172 0.522392273 -0.016904378
vt 0.994873047 0.091796875
vn 0.996147394 0.086280532 -0.015687494
v 0.336761415 0.542953491 -0.348083496
vt 0.887939453 0.135986328
vn 0.472221315 -0.000000018 -0.881480038
v 0.380554199 0.654327393 -0.071746856
vt 0.957519531 0.062744141
vn 0.994936705 0.071066946 -0.071067028
v 0.360260010 0.560928345 -0.214996353
vt 0.921630859 0.104980469
vn 0.897526622 -0.440890253 -0.007873138
v 0.408325195 0.569198608 -0.283782989
vt 0.895996094 0.103271484
vn 0.959085166 -0.283008695 0.007861240
v 0.369964600 0.608840942 -0.189697281
vt 0.925292969 0.084960938
vn 0.976832390 0.023633095 0.212697238
v 0.404815674 0.774536133 -0.215728804
vt 0.896728516 0.034423828
vn 0.897443056 0.362126201 0.251913697
v 0.359649658 0.713562012 -0.186019927
vt 0.920166016 0.048828125
vn 0.967874110 0.236066908 -0.086557977
v 0.372283936 0.776367188 -0.114982642
vt 0.941894531 0.023681641
vn 0.958848119 0.188625902 -0.212204248
vt 0.996093750 0.806152344
v 0.409301758 0.343406677 -0.112358108
vt 0.953857422 0.774902344
vn 0.968924582 -0.244200453 -0.039387293
vt 0.989501953 0.765136719
vt 0.934082031 0.847412109
v 0.367614746 0.220565811 -0.018582828
vt 0.936279297 0.718261719
vn 0.965634465 -0.235520557 -0.109909728
vt 0.993652344 0.711181641
vt 0.878662109 0.988769531
v 0.391571045 0.445504695 -0.009205601
vt 0.868408203 0.954589844
vn 0.993605673 0.023657328 0.110400505
vt 0.904541016 0.915527344
v 0.402862608 0.312911987 0.147277802
vt 0.810058594 0.907958984
vn 0.997775495 -0.047138952 0.047138873
vt 0.009277344 0.876220703
vt 0.029296875 0.862060547
vt 0.013427734 0.888671875
v 0.402282774 0.418262511 0.149063081
vt 0.012451172 0.813964844
vn 0.997375369 -0.070680097 0.015706573
vt 0.915771484 0.637451172
vt 0.915283203 0.720947266
vt 0.850585938 0.684082031
vt 0.768066406 0.659423828
vt 0.816894531 0.743408203
v 0.390747130 0.201232925 0.119766235
vt 0.808349609 0.624755859
vn 0.950753927 -0.267153949 -0.157149494
v 0.332763731 0.200195312 0.063125603
vt 0.843017578 0.636474609
vn 0.910707772 -0.408248276 0.062807329
vt 0.891601562 0.609863281
v 0.320709288 0.080413818 0.083763123
vt 0.857910156 0.581542969
vn 0.538108766 -0.767596364 -0.348188043
v 0.354553282 0.043334991 0.246063232
vt 0.801025391 0.531738281
vn 0.560132802 -0.781030178 0.276121736
vt 0.901855469 0.575683594
vt 0.905517578 0.538818359
vt 0.655761719 0.936035156
vt 0.620117188 0.856689453
v -0.176650941 0.011444092 0.168380812
vt 0.712646484 0.922851562
vn -0.071137853 -0.995930731 0.055329539
vt 0.681884766 0.847900391
vt 0.634521484 0.998291016
vt 0.619873047 0.998046875
v -0.188827485 0.085815430 0.014219355
vt 0.674072266 0.958007812
vn -0.860484660 -0.497344375 -0.110520832
v -0.251159668 0.102539062 -0.021421354
vt 0.677978516 0.979736328
vn -0.071031407 -0.962871253 0.260448813
v -0.333740175 0.119842529 0.115280241
vt 0.728271484 0.968505859
vn -0.550907969 -0.653219402 -0.519427419
v -0.239349291 0.049957275 0.285736173
vt 0.746826172 0.905029297
vn -0.157033041 -0.981456876 0.109923236
v -0.131927416 0.033111572 0.310638517
vt 0.734619141 0.892822266
vn 0.062865622 -0.997991085 -0.007858162
v -0.297759950 0.049438477 0.154815763
vt 0.733398438 0.944824219
vn -0.260149121 -0.953880250 -0.149782777
v -0.371887147 0.066497803 0.379089475
vt 0.797607422 0.919433594
vn -0.568074882 -0.694313884 0.441836208
v -0.395416200 0.085632294 0.172973722
vt 0.752441406 0.963623047
vn -0.944764793 -0.299175531 -0.133841529
v -0.396331728 0.268707275 0.157608122
vt 0.764160156 1.000000000
vn -0.993760109 -0.015774019 -0.110417664
v -0.214035019 0.038085938 -0.147109911
vt 0.765380859 0.865722656
vn 0.157164007 -0.982274711 0.102156587
v -0.310211182 0.058807343 -0.383880526
vt 0.715087891 0.765136719
vn -0.181411982 -0.843959987 -0.504798412
vt 0.787841797 0.758056641
vt 0.801513672 0.848632812
v -0.370178223 0.052276582 -0.234176546
vt 0.664550781 0.837646484
vn -0.810521245 -0.582316339 -0.062952980
v -0.207885772 0.148773164 -0.414001405
vt 0.748779297 0.716064453
vn 0.110301092 -0.133937225 -0.984832287
vt 0.780517578 0.698730469
vt 0.726806641 0.664062500
vt 0.640869141 0.691894531
v -0.382324219 0.198577821 -0.382964998
vt 0.654052734 0.723876953
vn -0.724050522 -0.196752906 -0.661089420
v -0.395477295 0.246124238 -0.311981112
vt 0.614501953 0.733154297
vn -0.998453617 -0.039309241 -0.039309066
v -0.390228271 0.431442231 -0.245986864
vt 0.556396484 0.661865234
vn -0.991480768 0.055082217 -0.118033297
v -0.374633789 0.168640107 -0.088638209
vt 0.582031250 0.860107422
vn -0.988577425 -0.117687829 0.094150364
vt 0.294189453 0.928955078
vt 0.253662109 0.945312500
vt 0.247314453 0.929687500
v -0.375762939 0.074340791 -0.102867030
vt 0.294433594 0.968750000
vn -0.464768589 -0.811375797 0.354484707
vt 0.269531250 0.995849609
vt 0.318603516 0.977539062
v -0.338867128 0.134155273 0.003074734
vt 0.315917969 0.939941406
vn -0.864321649 -0.440018356 0.243581712
vt 0.334228516 0.893066406
v -0.389038086 0.263824463 -0.037898928
vt 0.346679688 0.971679688
vn -0.989461064 -0.141351610 0.031411599
v -0.336669862 0.230682358 0.154647917
vt 0.357910156 0.921142578
vn -0.926181257 -0.376751751 -0.015697850
vt 0.382324219 0.924804688
vt 0.568359375 0.872558594
vt 0.615722656 0.856933594
vt 0.609130859 0.945800781
vt 0.840332031 0.855224609
v -0.193222076 0.470191926 -0.374755800
vt 0.888427734 0.861572266
vn 0.118503846 0.268608987 -0.955932140
vt 0.855468750 0.906738281
v -0.133331344 0.553283691 -0.415161073
vt 0.900878906 0.901855469
vn -0.078916624 -0.071024895 -0.994347930
v -0.283355772 0.518554688 -0.437774599
vt 0.905761719 0.820800781
vn 0.141225204 0.305988222 -0.941502333
v -0.376190245 0.323516816 -0.449462801
vt 0.840576172 0.791503906
vn -0.600064516 -0.063164741 -0.797453940
v -0.342132628 0.544288635 -0.411590487
vt 0.916503906 0.793701172
vn -0.582876086 0.228424296 -0.779793441
vt 0.806152344 0.767578125
v -0.368621886 0.549842834 -0.327972323
vt 0.919433594 0.756835938
vn -0.994224131 -0.063125394 -0.086797215
vt 0.883056641 0.709960938
vt 0.489746094 0.962402344
vt 0.442871094 0.999023438
vt 0.425292969 0.926513672
vt 0.399658203 0.945556641
v -0.407775879 0.507392883 -0.120635904
vt 0.494384766 0.919921875
vn -0.984374106 0.078749873 -0.157499716
v -0.396392822 0.485889405 -0.040567316
vt 0.477294922 0.896972656
vn -0.985413551 -0.165549517 -0.039416403
vt 0.261718750 0.339843750
vt 0.227294922 0.361328125
vt 0.218994141 0.313964844
vt 0.202148438 0.344726562
v 0.160049409 0.547279358 -0.374786377
vt 0.184570312 0.424316406
vn 0.181728661 0.260741264 -0.948150218
vt 0.212890625 0.457519531
vt 0.189453125 0.470214844
v 0.164215043 0.661712646 -0.419677734
vt 0.129638672 0.414550781
vn 0.164904952 -0.157052502 -0.973725259
v 0.172271669 0.789306641 -0.412719727
vt 0.073974609 0.398437500
vn 0.015787099 0.102616973 -0.994595706
v 0.265991151 0.636779785 -0.397857666
vt 0.150146484 0.370361328
vn 0.086458743 -0.165057868 -0.982487082
v 0.404540956 0.703948975 -0.407257110
vt 0.129638672 0.302978516
vn 0.788404286 -0.015768079 -0.614955485
vt 0.212402344 0.300537109
vt 0.074218750 0.228759766
v 0.332519472 0.857269287 -0.400634795
vt 0.056152344 0.324951172
vn 0.450991064 0.577585220 -0.680442870
v 0.197830155 0.890533447 -0.352081329
vt 0.023681641 0.383544922
vn 0.015730882 0.912396491 -0.409005344
v 0.015486665 0.884613037 -0.381378174
vt 0.026367188 0.467773438
vn -0.220151991 0.912057877 -0.345953017
v 0.268371522 0.892944336 -0.236557022
vt 0.000488281 0.265380859
vn 0.463461995 0.809094667 0.361343175
v 0.320312500 0.730285645 -0.188110381
vt 0.042480469 0.196533203
vn 0.519347131 0.684593856 0.511478066
vt 0.061767578 0.193847656
v 0.319488525 0.829589844 -0.139205962
vt 0.019042969 0.151855469
vn 0.157110468 0.518464923 -0.840541780
vt 0.484863281 0.020263672
vt 0.497314453 0.000000000
vt 0.510253906 0.031250000
v 0.337463379 0.882324219 -0.098907508
vt 0.497558594 0.045898438
vn 0.394631594 0.891867518 -0.220993817
v 0.385131836 0.823364258 0.077964745
vt 0.435546875 0.061279297
vn 0.971490085 0.236948848 -0.007898430
vt 0.444335938 0.008056641
vt 0.396972656 0.001220703
v 0.384429932 0.708374023 0.142623872
vt 0.395263672 0.066162109
vn 0.992002964 0.125968680 0.007872904
v 0.403045714 0.597488403 0.217285126
vt 0.349853516 0.057617188
vn 0.999597251 -0.015741648 -0.023612663
v 0.330932617 0.882843018 0.104080163
vt 0.463623047 0.091308594
vn 0.015738228 0.999380589 -0.031476602
v 0.294738770 0.857788086 0.141113251
vt 0.451416016 0.093994141
vn 0.204902321 0.953584015 0.220663995
v 0.210205063 0.825927734 -0.112403885
vt 0.540771484 0.059570312
vn 0.023568720 0.997744679 -0.062850103
vt 0.531738281 0.010986328
v 0.116394058 0.879638672 0.136291504
vt 0.518066406 0.147705078
vn -0.070978500 0.993698299 -0.086751476
vt 0.577880859 0.018066406
v 0.075538620 0.834350586 -0.095764153
vt 0.573974609 0.092773438
vn 0.031507764 0.992495358 0.118154161
v 0.074531570 0.850738525 0.105209358
vt 0.536621094 0.153808594
vn -0.118212938 0.992988288 -0.000000028
v 0.191528291 0.886810303 -0.202194229
vt 0.579345703 0.041748047
vn 0.023671988 0.978442788 0.205157310
vt 0.612304688 0.003173828
vt 0.650390625 0.028320312
v 0.040904973 0.885406494 -0.167312607
vt 0.604003906 0.075927734
vn -0.157110602 0.966230154 0.204243720
v -0.008432410 0.845275879 -0.156646714
vt 0.607177734 0.089111328
vn -0.440562695 0.896859705 -0.039335933
v 0.035568234 0.832122803 -0.031061165
vt 0.576660156 0.120117188
vn 0.645269334 0.763306439 0.031476434
v 0.016157139 0.890136719 -0.058242790
vt 0.592529297 0.112792969
vn 0.126187772 0.985842407 -0.110414408
v 0.017126108 0.883209229 0.200225845
vt 0.621826172 0.180664062
vn 0.393603176 0.834438801 0.385731041
vt 0.581787109 0.302490234
vt 0.566406250 0.240234375
vt 0.645996094 0.378906250
vt 0.628417969 0.249023438
v -0.022060446 0.783416748 -0.411560029
vt 0.677001953 0.320800781
vn -0.078650132 0.165164948 -0.983125031
vt 0.701416016 0.349609375
v -0.036094710 0.824768066 -0.349365234
vt 0.702392578 0.320800781
vn 0.086772949 0.930837989 -0.354980648
v -0.121490531 0.699630737 -0.426177919
vt 0.669433594 0.277099609
vn 0.110181458 0.141662002 -0.983764231
v -0.129638717 0.893371582 -0.372344941
vt 0.732910156 0.294677734
vn 0.290573865 0.895281911 -0.337694108
v -0.234008849 0.902526855 -0.412322968
vt 0.747802734 0.277343750
vn -0.165678352 0.591707885 -0.788943887
v -0.291900694 0.712005615 -0.421142519
vt 0.701171875 0.228515625
vn -0.118033551 -0.055082314 -0.991480768
v -0.394897521 0.771453798 -0.387481600
vt 0.737060547 0.207031250
vn -0.800967693 0.172757670 -0.573241413
v -0.233184859 0.563835144 -0.375060976
vt 0.646484375 0.217285156
vn 0.015714811 -0.062859803 -0.997898698
vt 0.612304688 0.215332031
vt 0.640625000 0.186523438
vt 0.662353516 0.180908203
v -0.392547667 0.619995117 -0.405944735
vt 0.693115234 0.182617188
vn -0.702181995 -0.157793760 -0.694292188
v -0.399200439 0.618743896 -0.211547762
vt 0.729980469 0.128173828
vn -0.995713115 -0.086927384 0.031610075
vt 0.672119141 0.152832031
v -0.362640381 0.566162109 -0.176650926
vt 0.718994141 0.106201172
vn -0.994719684 0.039472952 -0.094735079
vt 0.668457031 0.095214844
vt 0.713867188 0.074951172
vt 0.529541016 0.449462891
vt 0.458740234 0.500000000
vt 0.459472656 0.470947266
vt 0.533935547 0.469970703
v -0.061588310 0.829437256 -0.175735444
vt 0.514648438 0.436523438
vn 0.316217840 0.948653638 -0.007905529
v -0.073638931 0.838775635 -0.083282448
vt 0.538818359 0.418212891
vn 0.126093671 0.961464882 -0.244306713
vt 0.565185547 0.439697266
v -0.125732452 0.884307861 -0.186218232
vt 0.500244141 0.413085938
vn 0.251400203 0.966319680 0.054993726
vt 0.432617188 0.434570312
v -0.210678115 0.883789062 -0.046062432
vt 0.540527344 0.366943359
vn -0.212099358 0.974085748 0.078555286
v -0.315734923 0.875976562 -0.238891542
vt 0.460693359 0.358398438
vn -0.220254108 0.975410879 0.007866203
vt 0.406250000 0.396728516
v -0.394958556 0.830749512 -0.324340761
vt 0.422851562 0.331054688
vn -0.870862842 0.486427844 -0.070610404
vt 0.395507812 0.318359375
vt 0.446533203 0.248291016
v -0.383544922 0.808288574 -0.168945253
vt 0.473632812 0.311035156
vn -0.952608287 0.299166203 -0.055109456
v -0.399475098 0.865051270 -0.066303194
vt 0.511230469 0.316650391
vn -0.833638489 0.519057810 0.188748404
v -0.338653564 0.815093994 -0.026448190
vt 0.543945312 0.314453125
vn -0.542752147 0.778731346 0.314638972
v -0.382934570 0.674438477 -0.025697637
vt 0.528564453 0.260498047
vn -0.996239424 0.086288407 -0.007844278
v -0.184494019 0.803710938 -0.004273376
vt 0.562011719 0.355468750
vn -0.432200879 0.880118132 0.196454942
v -0.279632568 0.820343018 0.090065055
vt 0.573486328 0.323486328
vn -0.055116482 0.944852650 -0.322824657
vt 0.458496094 0.226806641
vt 0.488769531 0.206054688
v -0.416320801 0.658218384 0.026668627
vt 0.550781250 0.252441406
vn -0.951900661 0.228141397 -0.204540506
v -0.394897461 0.790130615 0.109352179
vt 0.570800781 0.283203125
vn -0.917851865 0.376554579 -0.125518098
v -0.429321289 0.506870270 -0.050605692
vt 0.519775391 0.205078125
vn -0.993389487 -0.031536222 -0.110376477
v -0.421997011 0.648712158 0.168258741
vt 0.573974609 0.218994141
vn -0.996086299 0.086959876 0.015811021
vt 0.513916016 0.192138672
v -0.398010254 0.404396057 0.065086447
vt 0.522705078 0.155273438
vn -0.984740555 -0.173314393 0.015755985
v 0.184631407 0.016204834 0.212860122
vt 0.333007812 0.708496094
vn 0.188346893 -0.980973184 0.047086731
vt 0.352294922 0.742187500
vt 0.316650391 0.768310547
vt 0.365966797 0.722656250
vt 0.282226562 0.728027344
vt 0.395019531 0.716796875
vt 0.392089844 0.754638672
v 0.015242632 0.015563965 0.153167769
vt 0.387695312 0.697753906
vn -0.337236702 -0.941125870 0.023528231
v -0.004554695 0.053253174 0.153945968
vt 0.399414062 0.691406250
vn 0.047238324 -0.936891675 0.346413791
vt 0.453857422 0.683105469
v -0.007043766 0.092590332 0.307861388
vt 0.380126953 0.643798828
vn -0.078487478 -0.996791542 -0.015697451
vt 0.387939453 0.601318359
vt 0.407958984 0.572753906
v -0.175445467 0.055664092 0.431610197
vt 0.358642578 0.573486328
vn -0.125413939 -0.846544743 0.517332971
v 0.006055438 0.029724151 0.370575011
vt 0.354248047 0.633789062
vn 0.204496399 -0.943829238 0.259553045
v 0.055126276 0.011230499 0.370880187
vt 0.342773438 0.645507812
vn 0.015731066 -0.912396491 0.409005344
v 0.102531515 0.148162872 0.369598418
vt 0.298095703 0.648925781
vn 0.440712839 -0.385623574 0.810596526
v 0.166198805 0.083862305 0.310577422
vt 0.316650391 0.674804688
vn 0.260254443 -0.654579043 0.709784508
v 0.273193419 0.159362823 0.370727539
vt 0.272216797 0.669921875
vn 0.157110721 -0.416343033 0.895530343
v 0.359191954 0.177337706 0.353790253
vt 0.249267578 0.685791016
vn 0.868541479 -0.189499885 0.457958072
v 0.385192931 0.171203643 0.281066865
vt 0.244384766 0.709472656
vn 0.977621377 -0.047304213 0.204984993
vt 0.225585938 0.757324219
v 0.356170714 0.351844817 0.195465073
vt 0.181884766 0.714111328
vn 0.986671269 -0.039466798 0.157867268
v 0.387298644 0.283477813 0.246063203
vt 0.208007812 0.713623047
vn 0.966438949 0.102143995 0.235716686
vt 0.949218750 0.650146484
vt 0.968750000 0.609130859
vt 0.992431641 0.706298828
vt 0.924072266 0.612304688
vt 0.930175781 0.573974609
vt 0.994140625 0.555664062
vt 0.290771484 0.616699219
vt 0.229248047 0.616943359
v 0.167678908 0.201263443 0.362243652
vt 0.267089844 0.601562500
vn -0.047255691 -0.582821727 0.811224878
v 0.109123312 0.261459351 0.434783965
vt 0.281250000 0.564941406
vn 0.220009297 -0.180721745 0.958611369
v -0.015748886 0.076293975 0.449615538
vt 0.333251953 0.625244141
vn 0.173686758 -0.205265939 0.963171303
v 0.169021681 0.201629654 0.412414551
vt 0.260742188 0.588134766
vn 0.243184164 -0.313785821 0.917823493
v 0.260131896 0.292236358 0.377105713
vt 0.218505859 0.573486328
vn 0.370297045 -0.204845056 0.906045675
v 0.157745436 0.367752105 0.437988281
vt 0.258789062 0.523437500
vn 0.078762278 -0.094514526 0.992402971
v -0.064880289 0.306945801 0.443511993
vt 0.317871094 0.552734375
vn 0.007873658 0.007873571 0.999938011
v 0.273284972 0.398723632 0.425079346
vt 0.214843750 0.536865234
vn 0.370792240 -0.102559462 0.923035622
v 0.377533019 0.327842742 0.356140107
vt 0.170410156 0.571777344
vn 0.900180876 -0.165822715 0.402712345
vt 0.195312500 0.623046875
vt 0.121826172 0.600097656
vt 0.091796875 0.583984375
vt 0.081542969 0.510009766
vt 0.020263672 0.570556641
v 0.337066710 0.439729720 0.366210938
vt 0.184326172 0.527099609
vn 0.510846019 -0.330084980 0.793775916
v 0.402923644 0.532676697 0.380981416
vt 0.150390625 0.498046875
vn 0.900630295 -0.007900207 0.434514493
v 0.401001036 0.633941650 0.370758027
vt 0.129638672 0.473632812
vn 0.876273394 -0.015788650 0.481555521
v 0.241745070 0.531517029 0.449707031
vt 0.214599609 0.474853516
vn 0.125957057 0.015744664 0.991910815
v 0.374939024 0.499797851 0.437255830
vt 0.182861328 0.500000000
vn 0.418714195 -0.331811070 0.845328331
v 0.097549506 0.543525696 0.439758331
vt 0.257812500 0.457275391
vn -0.007861711 0.055032920 0.998453617
v -0.160324022 0.354362488 0.441772521
vt 0.328613281 0.445556641
vn -0.125832081 -0.047187041 0.990928710
vt 0.232666016 0.156738281
vt 0.268554688 0.196777344
vt 0.237060547 0.189453125
vt 0.257812500 0.253662109
vt 0.339355469 0.159179688
vt 0.361572266 0.212646484
v -0.211440951 0.150665313 0.446777403
vt 0.295898438 0.263916016
vn -0.070610367 -0.133375347 0.988547087
v -0.112243570 0.295242310 0.434722930
vt 0.355712891 0.229492188
vn 0.000000130 0.023615502 0.999721110
vt 0.382080078 0.242919922
vt 0.413085938 0.146240234
v -0.169708177 0.311035156 0.417480528
vt 0.369384766 0.252929688
vn -0.172997817 0.613356233 0.770626962
v -0.247650087 0.387886047 0.362640440
vt 0.396484375 0.287841797
vn -0.197481871 0.039496429 0.979510665
v -0.174087450 0.314132690 0.450347960
vt 0.358398438 0.252929688
vn 0.023680961 0.268382967 0.963021159
v -0.372741640 0.315246582 0.413635343
vt 0.360351562 0.326416016
vn -0.332309157 0.609233677 0.720003426
v -0.374877870 0.382934570 0.374450773
vt 0.385742188 0.335449219
vn -0.709983110 0.118330531 0.694205940
v -0.388946474 0.351409912 0.308624357
vt 0.378662109 0.363281250
vn -0.999938011 0.007873484 -0.007873396
v -0.375854433 0.253219604 0.451233000
vt 0.336914062 0.320068359
vn -0.306006968 -0.070616990 0.949406683
v -0.398162782 0.257995605 0.384338468
vt 0.338134766 0.344238281
vn -0.996086299 -0.015810933 0.086960047
vt 0.266845703 0.328613281
vt 0.224609375 0.295898438
vt 0.265869141 0.411132812
vt 0.350830078 0.421142578
v -0.367797792 0.421955109 0.171569899
vt 0.399169922 0.415771484
vn -0.990989983 -0.133705035 0.007865136
vt 0.394042969 0.456542969
vt 0.367187500 0.488037109
vt 0.412841797 0.500000000
v 0.012120318 0.542854309 0.441925079
vt 0.052734375 0.632324219
vn 0.062819183 -0.039261855 0.997252405
vt 0.000000000 0.561523438
vt 0.082031250 0.635253906
v 0.100631781 0.599334717 0.407684356
vt 0.081298828 0.657470703
vn 0.023614861 -0.007871532 0.999690175
vt 0.131835938 0.634033203
v -0.070968561 0.694168091 0.446167022
vt 0.010742188 0.674316406
vn -0.023579555 -0.055019230 0.998206854
v -0.086723261 0.640930176 0.444671661
vt 0.010742188 0.655273438
v 0.124694891 0.701873779 0.448333740
vt 0.074462891 0.696044922
vn 0.110428229 -0.007887673 0.993852854
v -0.065330446 0.777526855 0.446105987
vt 0.004638672 0.702636719
vn 0.015734015 0.180939823 0.983368337
v 0.117263846 0.854522705 0.428009003
vt 0.063232422 0.748046875
vn 0.023697119 0.892590702 0.450244844
v 0.177002013 0.851531982 0.410125703
vt 0.084472656 0.751464844
vn 0.125723451 0.754340470 0.644332409
v 0.182830870 0.649246216 0.436126709
vt 0.111083984 0.674804688
vn -0.165672928 -0.007889158 0.986149251
v 0.244690001 0.722778320 0.453460693
vt 0.133056641 0.700195312
vn 0.000000126 0.102629848 0.994719684
v 0.351776183 0.797027647 0.424102724
vt 0.147460938 0.750976562
vn 0.355113268 0.536615551 0.765466213
v 0.369690001 0.701782286 0.426910371
vt 0.177001953 0.692626953
vn 0.841633141 0.117986009 0.527003765
vt 0.194824219 0.665771484
v 0.408905089 0.682723999 0.216018632
vt 0.249267578 0.677490234
vn 0.963171303 0.268424809 0.015789555
vt 0.246093750 0.648193359
v -0.424255311 0.472982407 0.196670622
vt 0.779052734 0.423583984
vn -0.982638836 -0.149361148 0.110055685
vt 0.803955078 0.341552734
vt 0.821289062 0.387451172
vt 0.722167969 0.397949219
vt 0.812255859 0.418945312
vt 0.819335938 0.474609375
v -0.406494081 0.707763672 0.388000578
vt 0.677001953 0.473876953
vn -0.914264917 0.244329408 0.323145479
vt 0.800781250 0.497558594
v -0.422607362 0.553329468 0.402923673
vt 0.727783203 0.486083984
vn -0.726869643 -0.268625766 0.632060766
v -0.322357118 0.525177002 0.408691466
vt 0.749267578 0.512939453
vn -0.393213421 -0.235928103 0.888662636
v -0.312530458 0.653503418 0.400573790
vt 0.690917969 0.518310547
vn -0.306924790 0.118048072 0.944384396
v -0.271850526 0.895721436 0.356018096
vt 0.609130859 0.485107422
vn -0.458558917 0.814337373 0.355778515
vt 0.794189453 0.544921875
v -0.252502382 0.668685913 0.422790587
vt 0.693847656 0.542236328
vn -0.189023122 -0.102387555 0.976620197
v -0.233230516 0.514129639 0.408294737
vt 0.749023438 0.549316406
vn -0.439218968 -0.188236713 0.878438234
vt 0.797851562 0.593017578
v -0.201843187 0.598098755 0.450531065
vt 0.718505859 0.564208984
vn -0.236948669 -0.007898262 0.971490145
vt 0.699462891 0.604003906
vt 0.684570312 0.608886719
vt 0.730224609 0.651123047
vt 0.327148438 0.097656250
vt 0.354492188 0.106201172
vt 0.302978516 0.114746094
vt 0.293457031 0.000000000
v 0.359985411 0.843078613 0.316009462
vt 0.239013672 0.058349609
vn 0.721529782 0.682316244 0.117640607
vt 0.236083984 0.010986328
vt 0.171142578 0.029541016
v 0.363433838 0.844696045 0.225051850
vt 0.245849609 0.100097656
vn 0.646070004 0.756374598 0.102425613
vt 0.264892578 0.157958984
v 0.193359405 0.840393066 0.286498994
vt 0.184326172 0.088623047
vn 0.039261870 0.997252405 0.062818997
vt 0.220947266 0.148193359
v 0.262603819 0.862487793 0.240814179
vt 0.211181641 0.108886719
vn 0.015744589 0.991910815 0.125956878
v 0.185760513 0.857116699 0.150268540
vt 0.174560547 0.146728516
vn -0.007906221 0.996179819 0.086968035
vt 0.133544922 0.031982422
vt 0.151123047 0.166748047
vt 0.226806641 0.163330078
vt 0.126220703 0.163818359
v 0.019935662 0.852966309 0.424316406
vt 0.090820312 0.033691406
vn -0.094485283 0.984221458 0.149601638
vt 0.068847656 0.006347656
v 0.030698795 0.850036621 0.150527969
vt 0.100097656 0.149414062
vn 0.462705940 0.886199594 -0.023527522
vt 0.099609375 0.210693359
vt 0.077636719 0.137207031
v -0.024745917 0.832672119 0.179306045
vt 0.053222656 0.132568359
vn -0.346542686 0.913612485 0.212651193
v -0.042671148 0.841949463 0.420806885
vt 0.067871094 0.025390625
vn -0.235520631 0.965634465 0.109909594
v -0.095809907 0.826324463 0.216293365
vt 0.029541016 0.112060547
vn 0.417258114 0.866007507 -0.275547922
v -0.082908578 0.824798584 0.396697998
vt 0.040039062 0.029541016
vn 0.677585602 0.732737958 0.063031100
v -0.095672555 0.891540527 0.409973145
vt 0.019042969 0.024169922
vn 0.371034682 0.836801589 0.402611971
vt 0.040527344 0.000244141
v -0.074256875 0.888763428 0.196670562
vt 0.842285156 0.901611328
vn 0.023550602 0.965574980 0.259056658
vt 0.803710938 0.901611328
vt 0.808593750 0.792236328
vt 0.038330078 0.865234375
vt 0.037841797 0.887207031
vt 0.015136719 0.897949219
vt 0.038574219 0.904541016
vt 0.154541016 0.814453125
vt 0.167724609 0.865478516
v -0.212203950 0.832580566 0.175186202
vt 0.148437500 0.908691406
vn -0.615031838 0.756962240 0.220780700
vt 0.117431641 0.798339844
vt 0.230468750 0.858398438
vt 0.212402344 0.888671875
v -0.386962891 0.872222900 0.197036803
vt 0.212402344 0.926757812
vn -0.714919448 0.699206829 0.000000063
v -0.271057129 0.891052246 0.182601973
vt 0.165283203 0.918457031
vn 0.055255234 0.947234035 -0.315744698
v -0.214691132 0.884979248 0.230499312
vt 0.146972656 0.924072266
vn 0.094523281 0.960987449 -0.259939253
v -0.208877534 0.890106201 0.195846602
vt 0.118896484 0.896972656
vn -0.172800377 0.981820107 0.078545585
vt 0.076416016 0.927490234
vt 0.012939453 0.800781250
vt 0.895507812 0.195800781
vt 0.938476562 0.291992188
vt 0.865478516 0.231445312
vt 0.849365234 0.304931641
vt 0.821777344 0.242675781
vt 0.959472656 0.205810547
vt 0.936279297 0.156250000
vt 0.890625000 0.465087891
vt 0.898437500 0.483642578
vt 0.827148438 0.466552734
vt 0.903076172 0.511230469
vt 0.863525391 0.503906250
vt 0.839355469 0.425292969
v -0.110527009 0.890380859 0.225189239
vt 0.877441406 0.435302734
vn 0.392958313 0.872367680 -0.290789306
vt 0.905029297 0.375488281
vt 0.836669922 0.369384766
vt 0.817871094 0.424072266
v -0.244537294 0.894348145 0.436767608
vt 0.856445312 0.341796875
vn -0.148942798 0.423311442 0.893657386
v -0.174911439 0.727508545 0.451843321
vt 0.926757812 0.309326172
vn 0.015734022 0.039334778 0.999102235
v -0.293914735 0.745697021 0.445709288
vt 0.806640625 0.312500000
vn -0.627282083 0.062728226 0.776261806
vt 0.939208984 0.927978516
vt 0.976562500 0.938720703
vt 0.961669922 0.964599609
vt 0.928955078 0.892822266
vt 0.928955078 0.993896484
vt 0.930175781 0.872558594
vt 0.972412109 0.876953125
vt 0.931152344 0.885986328
vt 0.999755859 0.940673828
vt 0.948242188 0.846191406
vt 0.999023438 0.819091797
f 1/1/1 2/2/2 3/3/3
f 3/3/3 2/2/2 4/4/4
f 3/3/3 4/4/4 5/5/5
f 2/2/2 1/1/1 6/6/6
f 6/6/6 1/1/1 7/7/7
f 1/1/1 3/3/3 8/8/8
f 8/8/8 3/3/3 9/9/9
f 8/8/8 9/9/9 10/10/10
f 8/8/8 10/10/10 11/11/11
f 8/8/8 11/11/11 1/1/1
f 11/11/11 10/10/10 12/12/12
f 7/7/7 1/1/1 13/13/13
f 13/13/13 1/1/1 11/11/11
f 7/7/7 13/13/13 14/14/14
f 7/7/7 14/14/14 15/15/15
f 13/13/13 11/11/11 16/16/16
f 16/16/16 11/11/11 12/12/12
f 13/13/13 16/16/16 14/14/14
f 16/16/16 12/12/12 17/17/17
f 16/16/16 17/17/17 18/18/18
f 16/16/16 18/18/18 14/14/14
f 14/14/14 18/18/18 19/19/19
f 14/14/14 19/19/19 20/20/19
f 14/14/14 20/20/19 21/21/20
f 21/21/20 20/20/19 22/22/21
f 21/21/20 22/22/21 23/23/22
f 4/24/4 2/25/2 24/26/23
f 4/24/4 24/26/23 25/27/24
f 24/26/23 2/25/2 26/28/25
f 24/26/23 26/28/25 25/27/24
f 26/28/25 2/25/2 6/29/6
f 26/28/25 6/29/6 27/30/26
f 25/27/24 26/28/25 28/31/27
f 28/31/27 26/28/25 27/30/26
f 29/32/28 30/33/29 27/30/26
f 27/30/26 30/33/29 28/31/27
f 28/31/27 30/33/29 31/34/30
f 25/27/24 28/31/27 32/35/31
f 25/27/24 32/35/31 33/36/32
f 25/27/24 33/36/32 34/37/33
f 34/37/33 33/36/32 35/38/34
f 33/36/32 32/35/31 36/39/35
f 36/39/35 32/35/31 28/31/27
f 33/36/32 36/39/35 37/40/36
f 36/39/35 28/31/27 38/41/37
f 37/40/36 36/39/35 39/42/38
f 39/42/38 36/39/35 38/41/37
f 4/43/4 40/44/39 5/45/5
f 40/44/39 4/43/4 25/46/24
f 40/44/39 25/46/24 34/47/33
f 40/44/39 34/47/33 35/48/34
f 40/44/39 35/48/34 41/49/40
f 41/49/40 35/48/34 33/50/32
f 40/44/39 41/49/40 42/51/41
f 40/44/39 42/51/41 5/45/5
f 5/45/5 42/51/41 43/52/42
f 5/45/5 43/52/42 3/53/3
f 3/53/3 43/52/42 9/54/9
f 6/55/6 7/56/7 29/57/28
f 6/55/6 29/57/28 27/58/26
f 29/57/28 7/56/7 15/59/15
f 29/57/28 15/59/15 44/60/43
f 29/57/28 44/60/43 30/61/29
f 30/61/29 44/60/43 45/62/44
f 46/63/45 47/64/46 45/62/44
f 46/63/45 45/62/44 48/65/47
f 48/65/47 45/62/44 44/60/43
f 48/65/47 44/60/43 49/66/48
f 49/66/48 44/60/43 50/67/49
f 49/66/48 50/67/49 51/68/50
f 51/68/50 50/67/49 52/69/51
f 50/67/49 44/60/43 53/70/52
f 50/67/49 53/70/52 52/69/51
f 53/70/52 44/60/43 15/59/15
f 53/70/52 15/59/15 21/71/20
f 53/70/52 21/71/20 52/69/51
f 21/71/20 15/59/15 14/72/14
f 52/69/51 21/71/20 23/73/22
f 52/69/51 23/73/22 54/74/53
f 45/75/44 31/76/30 30/77/29
f 31/76/30 45/75/44 47/78/46
f 48/79/47 55/80/54 47/78/46
f 56/81/55 57/82/56 55/80/54
f 55/80/54 57/82/56 58/83/57
f 55/80/54 58/83/57 47/78/46
f 47/78/46 58/83/57 31/76/30
f 31/76/30 58/83/57 38/84/37
f 31/76/30 38/84/37 28/85/27
f 38/84/37 58/83/57 59/86/58
f 38/84/37 59/86/58 39/87/38
f 41/88/40 33/89/32 60/90/59
f 41/88/40 60/90/59 61/91/60
f 41/88/40 61/91/60 42/92/41
f 42/92/41 61/91/60 62/93/61
f 62/93/61 61/91/60 63/94/62
f 61/91/60 60/90/59 64/95/63
f 63/94/62 61/91/60 65/96/64
f 61/91/60 64/95/63 66/97/65
f 66/97/65 64/95/63 67/98/66
f 61/91/60 66/97/65 68/99/67
f 68/99/67 66/97/65 67/98/66
f 61/91/60 68/99/67 65/96/64
f 68/99/67 67/98/66 69/100/68
f 68/99/67 69/100/68 70/101/69
f 68/99/67 70/101/69 65/96/64
f 65/96/64 70/101/69 71/102/70
f 42/103/41 72/104/71 43/105/42
f 72/104/71 42/103/41 62/106/61
f 43/105/42 72/104/71 73/107/72
f 43/105/42 73/107/72 9/108/9
f 62/109/61 74/110/73 72/111/71
f 72/111/71 74/110/73 75/112/74
f 63/113/62 74/114/73 62/115/61
f 74/114/73 63/113/62 76/116/75
f 10/117/10 9/118/9 73/119/72
f 75/120/74 73/119/72 72/121/71
f 73/119/72 75/120/74 77/122/76
f 10/117/10 73/119/72 78/123/77
f 78/123/77 73/119/72 77/122/76
f 10/117/10 78/123/77 12/124/12
f 78/123/77 77/122/76 79/125/78
f 78/123/77 79/125/78 12/124/12
f 79/125/78 77/122/76 80/126/79
f 12/124/12 79/125/78 17/127/17
f 17/127/17 79/125/78 18/128/18
f 54/129/53 23/130/22 81/131/80
f 81/131/80 23/130/22 22/132/21
f 51/133/50 52/134/51 54/129/53
f 51/133/50 54/129/53 82/135/81
f 82/135/81 54/129/53 81/131/80
f 51/133/50 82/135/81 83/136/82
f 83/136/82 82/135/81 84/137/83
f 84/137/83 82/135/81 81/131/80
f 85/138/84 81/131/80 86/139/85
f 81/131/80 85/138/84 87/140/86
f 81/131/80 87/140/86 84/137/83
f 87/140/86 85/138/84 88/141/87
f 87/140/86 88/141/87 89/142/88
f 87/140/86 89/142/88 84/137/83
f 84/137/83 89/142/88 90/143/89
f 91/144/90 92/145/91 49/146/48
f 91/144/90 49/146/48 51/147/50
f 92/145/91 91/144/90 93/148/92
f 49/146/48 92/145/91 94/149/93
f 49/146/48 94/149/93 48/150/47
f 48/150/47 94/149/93 55/151/54
f 55/151/54 94/149/93 56/152/55
f 94/149/93 92/145/91 95/153/94
f 94/149/93 95/153/94 56/152/55
f 95/153/94 92/145/91 93/148/92
f 56/152/55 95/153/94 96/154/95
f 96/154/95 95/153/94 93/148/92
f 56/152/55 96/154/95 97/155/96
f 96/154/95 93/148/92 98/156/97
f 83/157/82 91/158/90 51/159/50
f 91/158/90 83/157/82 99/160/98
f 91/158/90 99/160/98 93/161/92
f 93/161/92 99/160/98 98/162/97
f 99/160/98 83/157/82 100/163/99
f 99/160/98 100/163/99 98/162/97
f 100/163/99 83/157/82 84/164/83
f 98/162/97 100/163/99 101/165/100
f 100/163/99 84/164/83 102/166/101
f 100/163/99 102/166/101 101/165/100
f 102/166/101 84/164/83 90/167/89
f 102/166/101 90/167/89 101/165/100
f 48/168/47 47/169/46 46/170/45
f 57/171/56 103/172/102 58/173/57
f 58/173/57 103/172/102 104/174/103
f 103/172/102 57/171/56 105/175/104
f 105/175/104 57/171/56 106/176/105
f 105/175/104 106/176/105 107/177/106
f 106/176/105 57/171/56 56/178/55
f 107/177/106 106/176/105 108/179/107
f 108/179/107 106/176/105 56/178/55
f 108/179/107 56/178/55 97/180/96
f 97/181/96 96/182/95 101/183/100
f 101/183/100 96/182/95 98/184/97
f 97/181/96 101/183/100 109/185/108
f 109/185/108 101/183/100 110/186/109
f 33/187/32 37/188/36 60/189/59
f 60/189/59 37/188/36 64/190/63
f 64/190/63 37/188/36 111/191/110
f 111/191/110 37/188/36 39/192/38
f 111/191/110 39/192/38 59/193/58
f 111/191/110 59/193/58 112/194/111
f 112/194/111 59/193/58 113/195/112
f 111/191/110 112/194/111 114/196/113
f 114/196/113 112/194/111 113/195/112
f 111/191/110 114/196/113 64/190/63
f 64/190/63 114/196/113 115/197/114
f 64/190/63 115/197/114 67/198/66
f 67/198/66 115/197/114 69/199/68
f 115/197/114 114/196/113 116/200/115
f 116/200/115 114/196/113 113/195/112
f 115/197/114 116/200/115 69/199/68
f 116/200/115 113/195/112 117/201/116
f 117/201/116 113/195/112 118/202/117
f 116/200/115 117/201/116 119/203/118
f 116/200/115 119/203/118 69/199/68
f 69/199/68 119/203/118 120/204/119
f 69/199/68 120/204/119 70/205/69
f 70/205/69 120/204/119 121/206/120
f 71/207/70 70/208/69 121/209/120
f 71/207/70 121/209/120 122/210/121
f 71/207/70 122/210/121 123/211/122
f 71/207/70 123/211/122 65/212/64
f 65/212/64 123/211/122 63/213/62
f 63/213/62 123/211/122 124/214/123
f 63/213/62 124/214/123 125/215/124
f 123/211/122 122/210/121 126/216/125
f 123/211/122 126/216/125 127/217/126
f 128/218/127 122/210/121 121/209/120
f 122/210/121 128/218/127 126/216/125
f 128/218/127 121/209/120 120/219/119
f 126/216/125 128/218/127 129/220/128
f 128/218/127 120/219/119 119/221/118
f 129/220/128 128/218/127 130/222/129
f 129/220/128 130/222/129 131/223/130
f 128/218/127 119/221/118 132/224/131
f 128/218/127 132/224/131 130/222/129
f 132/224/131 119/221/118 117/225/116
f 132/224/131 117/225/116 118/226/117
f 132/224/131 118/226/117 133/227/132
f 132/224/131 133/227/132 130/222/129
f 130/222/129 133/227/132 134/228/133
f 135/229/134 131/223/130 130/222/129
f 130/222/129 134/228/133 136/230/135
f 130/222/129 136/230/135 135/229/134
f 135/229/134 136/230/135 137/231/136
f 59/232/58 58/233/57 113/234/112
f 113/234/112 58/233/57 104/235/103
f 113/234/112 104/235/103 138/236/137
f 113/234/112 138/236/137 118/237/117
f 118/237/117 138/236/137 139/238/138
f 139/238/138 138/236/137 140/239/139
f 140/239/139 138/236/137 104/235/103
f 139/238/138 140/239/139 141/240/140
f 141/240/140 140/239/139 142/241/141
f 142/241/141 140/239/139 143/242/142
f 143/242/142 140/239/139 104/235/103
f 142/241/141 143/242/142 144/243/143
f 143/242/142 104/235/103 145/244/144
f 145/244/144 104/235/103 103/245/102
f 145/244/144 103/245/102 105/246/104
f 145/244/144 105/246/104 107/247/106
f 143/242/142 145/244/144 146/248/145
f 143/242/142 146/248/145 144/243/143
f 146/248/145 145/244/144 107/247/106
f 144/243/143 146/248/145 147/249/146
f 146/248/145 107/247/106 108/250/107
f 146/248/145 108/250/107 147/249/146
f 147/249/146 108/250/107 148/251/147
f 148/251/147 108/250/107 97/252/96
f 148/251/147 97/252/96 109/253/108
f 134/254/133 118/255/117 139/256/138
f 118/255/117 134/254/133 133/257/132
f 134/254/133 139/256/138 149/258/148
f 134/254/133 149/258/148 150/259/149
f 134/254/133 150/259/149 136/260/135
f 149/258/148 139/256/138 151/261/150
f 149/258/148 151/261/150 150/259/149
f 151/261/150 139/256/138 141/262/140
f 136/260/135 150/259/149 152/263/151
f 152/263/151 150/259/149 151/261/150
f 151/261/150 141/262/140 153/264/152
f 151/261/150 153/264/152 152/263/151
f 153/264/152 141/262/140 142/265/141
f 153/264/152 142/265/141 154/266/153
f 154/266/153 142/265/141 144/267/143
f 154/266/153 144/267/143 147/268/146
f 153/264/152 154/266/153 155/269/154
f 155/269/154 154/266/153 147/268/146
f 153/264/152 155/269/154 156/270/155
f 153/264/152 156/270/155 152/263/151
f 156/270/155 155/269/154 147/268/146
f 152/263/151 156/270/155 157/271/156
f 156/270/155 147/268/146 158/272/157
f 152/263/151 157/271/156 159/273/158
f 159/273/158 157/271/156 160/274/159
f 156/270/155 158/272/157 157/271/156
f 158/272/157 147/268/146 148/275/147
f 158/272/157 148/275/147 109/276/108
f 157/271/156 158/272/157 161/277/160
f 157/271/156 161/277/160 162/278/161
f 158/272/157 109/276/108 163/279/162
f 158/272/157 163/279/162 161/277/160
f 161/277/160 163/279/162 164/280/163
f 163/279/162 109/276/108 110/281/109
f 163/279/162 110/281/109 165/282/164
f 166/283/165 18/284/18 79/285/78
f 18/284/18 166/283/165 19/286/19
f 166/283/165 79/285/78 80/287/79
f 22/288/21 20/289/19 19/286/19
f 19/286/19 166/283/165 167/290/166
f 19/286/19 167/290/166 22/288/21
f 22/288/21 167/290/166 168/291/167
f 22/288/21 168/291/167 81/292/80
f 81/292/80 168/291/167 169/293/168
f 169/293/168 168/291/167 167/290/166
f 81/292/80 169/293/168 86/294/85
f 85/295/84 86/294/85 170/296/169
f 170/296/169 86/294/85 171/297/170
f 171/297/170 86/294/85 169/293/168
f 169/293/168 167/290/166 172/298/171
f 169/293/168 172/298/171 171/297/170
f 172/298/171 167/290/166 166/283/165
f 171/297/170 172/298/171 173/299/172
f 172/298/171 166/283/165 174/300/173
f 172/298/171 174/300/173 173/299/172
f 174/300/173 166/283/165 80/287/79
f 173/299/172 174/300/173 175/301/174
f 175/301/174 174/300/173 80/287/79
f 175/301/174 80/287/79 176/302/175
f 176/302/175 80/287/79 177/303/176
f 177/303/176 80/287/79 77/304/76
f 176/302/175 177/303/176 178/305/177
f 177/303/176 77/304/76 179/306/178
f 177/303/176 179/306/178 178/305/177
f 76/307/75 75/308/74 74/309/73
f 75/308/74 76/307/75 178/310/177
f 75/308/74 178/310/177 179/311/178
f 75/308/74 179/311/178 77/312/76
f 173/313/172 175/314/174 180/315/179
f 173/313/172 180/315/179 181/316/180
f 173/313/172 181/316/180 182/317/181
f 180/315/179 175/314/174 183/318/182
f 180/315/179 183/318/182 181/316/180
f 183/318/182 175/314/174 184/319/183
f 181/316/180 183/318/182 185/320/184
f 181/316/180 185/320/184 186/321/185
f 183/318/182 184/319/183 187/322/186
f 183/318/182 187/322/186 185/320/184
f 184/319/183 175/314/174 188/323/187
f 184/319/183 188/323/187 187/322/186
f 188/323/187 175/314/174 176/324/175
f 188/323/187 176/324/175 178/325/177
f 188/323/187 178/325/177 76/326/75
f 188/323/187 76/326/75 125/327/124
f 125/327/124 76/326/75 63/328/62
f 187/322/186 188/323/187 189/329/188
f 187/322/186 189/329/188 185/320/184
f 188/323/187 125/327/124 190/330/189
f 188/323/187 190/330/189 189/329/188
f 190/330/189 125/327/124 191/331/190
f 190/330/189 191/331/190 192/332/191
f 189/329/188 190/330/189 193/333/192
f 193/333/192 190/330/189 192/332/191
f 189/329/188 193/333/192 185/320/184
f 185/320/184 193/333/192 192/332/191
f 185/320/184 192/332/191 194/334/193
f 185/320/184 194/334/193 195/335/194
f 173/336/172 182/337/181 171/338/170
f 171/338/170 182/337/181 170/339/169
f 181/340/180 186/341/185 182/337/181
f 170/339/169 182/337/181 196/342/195
f 182/337/181 186/341/185 197/343/196
f 182/337/181 197/343/196 196/342/195
f 197/343/196 186/341/185 195/344/194
f 195/344/194 186/341/185 185/345/184
f 197/343/196 195/344/194 198/346/197
f 198/346/197 195/344/194 199/347/198
f 196/342/195 197/343/196 200/348/199
f 200/348/199 197/343/196 198/346/197
f 198/346/197 199/347/198 201/349/200
f 198/346/197 201/349/200 200/348/199
f 201/349/200 199/347/198 202/350/201
f 201/349/200 202/350/201 203/351/202
f 200/348/199 201/349/200 204/352/203
f 200/348/199 204/352/203 196/342/195
f 201/349/200 203/351/202 205/353/204
f 201/349/200 205/353/204 204/352/203
f 196/342/195 204/352/203 88/354/87
f 88/354/87 204/352/203 205/353/204
f 196/342/195 88/354/87 170/339/169
f 170/339/169 88/354/87 85/355/84
f 88/354/87 205/353/204 89/356/88
f 89/356/88 205/353/204 90/357/89
f 90/357/89 205/353/204 203/351/202
f 90/357/89 203/351/202 206/358/205
f 90/357/89 206/358/205 165/359/164
f 90/357/89 165/359/164 101/360/100
f 101/360/100 165/359/164 110/361/109
f 207/362/206 195/363/194 194/364/193
f 207/362/206 194/364/193 208/365/207
f 208/365/207 194/364/193 192/366/191
f 209/367/208 210/368/196 207/362/206
f 209/367/208 207/362/206 211/369/209
f 211/369/209 207/362/206 208/365/207
f 209/367/208 211/369/209 212/370/210
f 212/370/210 211/369/209 213/371/211
f 213/371/211 211/369/209 214/372/212
f 211/369/209 208/365/207 215/373/213
f 211/369/209 215/373/213 214/372/212
f 215/373/213 208/365/207 192/366/191
f 214/372/212 215/373/213 216/374/214
f 216/374/214 215/373/213 192/366/191
f 214/372/212 216/374/214 217/375/215
f 217/375/215 216/374/214 218/376/216
f 218/376/216 216/374/214 192/366/191
f 218/376/216 192/366/191 191/377/190
f 218/376/216 191/377/190 219/378/217
f 219/378/217 191/377/190 125/379/124
f 220/380/218 163/381/162 165/382/164
f 163/381/162 220/380/218 164/383/163
f 220/380/218 165/382/164 206/384/205
f 220/380/218 206/384/205 203/385/202
f 164/383/163 220/380/218 221/386/219
f 220/380/218 203/385/202 202/387/201
f 221/386/219 220/380/218 222/388/220
f 220/380/218 202/387/201 223/389/221
f 220/380/218 223/389/221 222/388/220
f 221/386/219 222/388/220 224/390/222
f 224/390/222 222/388/220 223/389/221
f 221/386/219 224/390/222 225/391/223
f 223/389/221 202/387/201 199/392/198
f 224/390/222 223/389/221 226/393/224
f 223/389/221 199/392/198 227/394/225
f 223/389/221 227/394/225 226/393/224
f 227/394/225 199/392/198 195/395/194
f 226/393/224 227/394/225 228/396/226
f 228/396/226 227/394/225 195/395/194
f 226/393/224 228/396/226 210/397/196
f 210/397/196 228/396/226 195/395/194
f 226/393/224 210/397/196 209/398/208
f 210/397/196 195/395/194 207/399/206
f 219/400/217 125/401/124 124/402/123
f 219/400/217 124/402/123 218/403/216
f 218/403/216 124/402/123 229/404/227
f 218/403/216 229/404/227 217/405/215
f 217/405/215 229/404/227 214/406/212
f 229/404/227 124/402/123 230/407/228
f 230/407/228 124/402/123 123/408/122
f 214/406/212 229/404/227 231/409/229
f 231/409/229 229/404/227 230/407/228
f 230/407/228 123/408/122 127/410/126
f 231/409/229 230/407/228 232/411/230
f 232/411/230 230/407/228 127/410/126
f 214/406/212 231/409/229 233/412/231
f 233/412/231 231/409/229 232/411/230
f 233/412/231 232/411/230 127/410/126
f 214/406/212 233/412/231 213/413/211
f 233/412/231 127/410/126 129/414/128
f 129/414/128 127/410/126 126/415/125
f 233/412/231 129/414/128 131/416/130
f 233/412/231 131/416/130 213/413/211
f 213/413/211 131/416/130 234/417/232
f 213/413/211 234/417/232 212/418/210
f 234/417/232 131/416/130 235/419/233
f 235/419/233 131/416/130 135/420/134
f 235/419/233 135/420/134 137/421/136
f 235/419/233 137/421/136 234/417/232
f 234/417/232 137/421/136 236/422/234
f 234/417/232 236/422/234 237/423/235
f 237/423/235 236/422/234 238/424/236
f 237/423/235 238/424/236 239/425/237
f 239/425/237 238/424/236 240/426/238
f 239/425/237 240/426/238 212/427/210
f 241/428/239 137/429/136 136/430/135
f 234/431/232 237/432/235 212/433/210
f 212/433/210 237/432/235 239/434/237
f 159/435/158 160/436/159 242/437/240
f 159/435/158 242/437/240 152/438/151
f 157/439/156 162/440/161 160/436/159
f 160/436/159 162/440/161 243/441/241
f 160/436/159 243/441/241 244/442/242
f 160/436/159 244/442/242 242/437/240
f 242/437/240 244/442/242 245/443/243
f 152/438/151 242/437/240 246/444/244
f 246/444/244 242/437/240 241/445/239
f 152/438/151 246/444/244 136/446/135
f 136/446/135 246/444/244 241/445/239
f 162/447/161 221/448/219 243/449/241
f 243/449/241 221/448/219 225/450/223
f 243/449/241 225/450/223 244/451/242
f 221/448/219 162/447/161 164/452/163
f 164/452/163 162/447/161 161/453/160
f 238/454/236 236/455/234 242/456/240
f 242/456/240 236/455/234 137/457/136
f 242/456/240 137/457/136 241/458/239
f 238/454/236 242/456/240 245/459/243
f 238/454/236 245/459/243 247/460/245
f 238/454/236 247/460/245 240/461/238
f 240/461/238 247/460/245 245/459/243
f 240/461/238 245/459/243 225/462/223
f 225/462/223 245/459/243 244/463/242
f 240/461/238 225/462/223 248/464/246
f 240/461/238 248/464/246 249/465/247
f 248/464/246 225/462/223 250/466/248
f 249/467/247 209/468/208 212/469/210
f 209/468/208 249/467/247 226/470/224
f 249/467/247 212/469/210 240/471/238
f 226/472/224 250/473/248 224/474/222
f 224/474/222 250/473/248 225/475/223
f 250/473/248 226/472/224 249/476/247
f 250/473/248 249/476/247 248/477/246
