# Blender 4.4.3
# www.blender.org
mtllib text_e.mtl
o text_e
v 0.152923 0.119538 -0.050000
v 0.152923 -0.086154 -0.050000
v 0.144173 -0.088196 -0.050000
v 0.135872 -0.090372 -0.050000
v 0.128019 -0.092683 -0.050000
v 0.120615 -0.095128 -0.050000
v 0.113660 -0.097708 -0.050000
v 0.107154 -0.100423 -0.050000
v 0.101096 -0.103272 -0.050000
v 0.095487 -0.106256 -0.050000
v 0.090327 -0.109375 -0.050000
v 0.085615 -0.112628 -0.050000
v 0.081353 -0.116016 -0.050000
v 0.077538 -0.119538 -0.050000
v 0.051692 -0.145385 -0.050000
v 0.051692 -0.098000 -0.050000
v -0.052769 -0.098000 -0.050000
v -0.052657 -0.119329 -0.050000
v -0.052321 -0.139162 -0.050000
v -0.051760 -0.157500 -0.050000
v -0.050974 -0.174342 -0.050000
v -0.049965 -0.189688 -0.050000
v -0.048731 -0.203538 -0.050000
v -0.047272 -0.215893 -0.050000
v -0.045590 -0.226752 -0.050000
v -0.043683 -0.236115 -0.050000
v -0.041551 -0.243983 -0.050000
v -0.039196 -0.250355 -0.050000
v -0.036615 -0.255231 -0.050000
v -0.032214 -0.261767 -0.050000
v -0.027626 -0.267735 -0.050000
v -0.022851 -0.273135 -0.050000
v -0.017889 -0.277966 -0.050000
v -0.012740 -0.282229 -0.050000
v -0.007404 -0.285923 -0.050000
v -0.001881 -0.289049 -0.050000
v 0.003829 -0.291607 -0.050000
v 0.009726 -0.293596 -0.050000
v 0.015810 -0.295017 -0.050000
v 0.022081 -0.295870 -0.050000
v 0.028538 -0.296154 -0.050000
v 0.035004 -0.295974 -0.050000
v 0.041297 -0.295436 -0.050000
v 0.047418 -0.294538 -0.050000
v 0.053368 -0.293282 -0.050000
v 0.059145 -0.291667 -0.050000
v 0.064750 -0.289692 -0.050000
v 0.070183 -0.287359 -0.050000
v 0.075444 -0.284667 -0.050000
v 0.080534 -0.281615 -0.050000
v 0.085451 -0.278205 -0.050000
v 0.090196 -0.274436 -0.050000
v 0.094769 -0.270308 -0.050000
v 0.099092 -0.266269 -0.050000
v 0.103085 -0.262410 -0.050000
v 0.106750 -0.258731 -0.050000
v 0.110085 -0.255231 -0.050000
v 0.113092 -0.251910 -0.050000
v 0.115769 -0.248769 -0.050000
v 0.118118 -0.245808 -0.050000
v 0.120137 -0.243026 -0.050000
v 0.121827 -0.240423 -0.050000
v 0.123188 -0.238000 -0.050000
v 0.124220 -0.235756 -0.050000
v 0.124923 -0.233692 -0.050000
v 0.140000 -0.184154 -0.050000
v 0.140000 -0.313385 -0.050000
v 0.025846 -0.313385 -0.050000
v 0.014456 -0.313138 -0.050000
v 0.003261 -0.312397 -0.050000
v -0.007740 -0.311163 -0.050000
v -0.018547 -0.309436 -0.050000
v -0.029159 -0.307215 -0.050000
v -0.039577 -0.304500 -0.050000
v -0.049800 -0.301292 -0.050000
v -0.059829 -0.297590 -0.050000
v -0.069663 -0.293394 -0.050000
v -0.079303 -0.288705 -0.050000
v -0.088749 -0.283522 -0.050000
v -0.098000 -0.277846 -0.050000
v -0.106772 -0.271198 -0.050000
v -0.114782 -0.263098 -0.050000
v -0.122029 -0.253548 -0.050000
v -0.128513 -0.242547 -0.050000
v -0.134234 -0.230095 -0.050000
v -0.139192 -0.216192 -0.050000
v -0.143388 -0.200839 -0.050000
v -0.146820 -0.184034 -0.050000
v -0.149490 -0.165779 -0.050000
v -0.151397 -0.146073 -0.050000
v -0.152542 -0.124916 -0.050000
v -0.152923 -0.102308 -0.050000
v -0.152474 -0.079446 -0.050000
v -0.151128 -0.057885 -0.050000
v -0.148885 -0.037625 -0.050000
v -0.145744 -0.018667 -0.050000
v -0.141705 -0.001010 -0.050000
v -0.136769 0.015346 -0.050000
v -0.130936 0.030401 -0.050000
v -0.124205 0.044154 -0.050000
v -0.116577 0.056606 -0.050000
v -0.108051 0.067756 -0.050000
v -0.098628 0.077606 -0.050000
v -0.088308 0.086154 -0.050000
v -0.080620 0.091486 -0.050000
v -0.072632 0.096355 -0.050000
v -0.064346 0.100760 -0.050000
v -0.055761 0.104701 -0.050000
v -0.046876 0.108178 -0.050000
v -0.037692 0.111192 -0.050000
v -0.028209 0.113743 -0.050000
v -0.018427 0.115829 -0.050000
v -0.008346 0.117452 -0.050000
v 0.002034 0.118611 -0.050000
v 0.012714 0.119307 -0.050000
v 0.023692 0.119538 -0.050000
v -0.052769 -0.074308 -0.050000
v 0.051692 -0.074308 -0.050000
v 0.051692 0.102308 -0.050000
v 0.006462 0.102308 -0.050000
v -0.002341 0.101081 -0.050000
v -0.010440 0.097402 -0.050000
v -0.017837 0.091269 -0.050000
v -0.024530 0.082684 -0.050000
v -0.030520 0.071645 -0.050000
v -0.035808 0.058154 -0.050000
v -0.040392 0.042209 -0.050000
v -0.044273 0.023812 -0.050000
v -0.047452 0.002962 -0.050000
v -0.049927 -0.020342 -0.050000
v -0.051700 -0.046098 -0.050000
v 0.152923 0.119538 0.050000
v 0.152923 -0.086154 0.050000
v 0.144173 -0.088196 0.050000
v 0.135872 -0.090372 0.050000
v 0.128019 -0.092683 0.050000
v 0.120615 -0.095128 0.050000
v 0.113660 -0.097708 0.050000
v 0.107154 -0.100423 0.050000
v 0.101096 -0.103272 0.050000
v 0.095487 -0.106256 0.050000
v 0.090327 -0.109375 0.050000
v 0.085615 -0.112628 0.050000
v 0.081353 -0.116016 0.050000
v 0.077538 -0.119538 0.050000
v 0.051692 -0.145385 0.050000
v 0.051692 -0.098000 0.050000
v -0.052769 -0.098000 0.050000
v -0.052657 -0.119329 0.050000
v -0.052321 -0.139162 0.050000
v -0.051760 -0.157500 0.050000
v -0.050974 -0.174342 0.050000
v -0.049965 -0.189688 0.050000
v -0.048731 -0.203538 0.050000
v -0.047272 -0.215893 0.050000
v -0.045590 -0.226752 0.050000
v -0.043683 -0.236115 0.050000
v -0.041551 -0.243983 0.050000
v -0.039196 -0.250355 0.050000
v -0.036615 -0.255231 0.050000
v -0.032214 -0.261767 0.050000
v -0.027626 -0.267735 0.050000
v -0.022851 -0.273135 0.050000
v -0.017889 -0.277966 0.050000
v -0.012740 -0.282229 0.050000
v -0.007404 -0.285923 0.050000
v -0.001881 -0.289049 0.050000
v 0.003829 -0.291607 0.050000
v 0.009726 -0.293596 0.050000
v 0.015810 -0.295017 0.050000
v 0.022081 -0.295870 0.050000
v 0.028538 -0.296154 0.050000
v 0.035004 -0.295974 0.050000
v 0.041297 -0.295436 0.050000
v 0.047418 -0.294538 0.050000
v 0.053368 -0.293282 0.050000
v 0.059145 -0.291667 0.050000
v 0.064750 -0.289692 0.050000
v 0.070183 -0.287359 0.050000
v 0.075444 -0.284667 0.050000
v 0.080534 -0.281615 0.050000
v 0.085451 -0.278205 0.050000
v 0.090196 -0.274436 0.050000
v 0.094769 -0.270308 0.050000
v 0.099092 -0.266269 0.050000
v 0.103085 -0.262410 0.050000
v 0.106750 -0.258731 0.050000
v 0.110085 -0.255231 0.050000
v 0.113092 -0.251910 0.050000
v 0.115769 -0.248769 0.050000
v 0.118118 -0.245808 0.050000
v 0.120137 -0.243026 0.050000
v 0.121827 -0.240423 0.050000
v 0.123188 -0.238000 0.050000
v 0.124220 -0.235756 0.050000
v 0.124923 -0.233692 0.050000
v 0.140000 -0.184154 0.050000
v 0.140000 -0.313385 0.050000
v 0.025846 -0.313385 0.050000
v 0.014456 -0.313138 0.050000
v 0.003261 -0.312397 0.050000
v -0.007740 -0.311163 0.050000
v -0.018547 -0.309436 0.050000
v -0.029159 -0.307215 0.050000
v -0.039577 -0.304500 0.050000
v -0.049800 -0.301292 0.050000
v -0.059829 -0.297590 0.050000
v -0.069663 -0.293394 0.050000
v -0.079303 -0.288705 0.050000
v -0.088749 -0.283522 0.050000
v -0.098000 -0.277846 0.050000
v -0.106772 -0.271198 0.050000
v -0.114782 -0.263098 0.050000
v -0.122029 -0.253548 0.050000
v -0.128513 -0.242547 0.050000
v -0.134234 -0.230095 0.050000
v -0.139192 -0.216192 0.050000
v -0.143388 -0.200839 0.050000
v -0.146820 -0.184034 0.050000
v -0.149490 -0.165779 0.050000
v -0.151397 -0.146073 0.050000
v -0.152542 -0.124916 0.050000
v -0.152923 -0.102308 0.050000
v -0.152474 -0.079446 0.050000
v -0.151128 -0.057885 0.050000
v -0.148885 -0.037625 0.050000
v -0.145744 -0.018667 0.050000
v -0.141705 -0.001010 0.050000
v -0.136769 0.015346 0.050000
v -0.130936 0.030401 0.050000
v -0.124205 0.044154 0.050000
v -0.116577 0.056606 0.050000
v -0.108051 0.067756 0.050000
v -0.098628 0.077606 0.050000
v -0.088308 0.086154 0.050000
v -0.080620 0.091486 0.050000
v -0.072632 0.096355 0.050000
v -0.064346 0.100760 0.050000
v -0.055761 0.104701 0.050000
v -0.046876 0.108178 0.050000
v -0.037692 0.111192 0.050000
v -0.028209 0.113743 0.050000
v -0.018427 0.115829 0.050000
v -0.008346 0.117452 0.050000
v 0.002034 0.118611 0.050000
v 0.012714 0.119307 0.050000
v 0.023692 0.119538 0.050000
v -0.052769 -0.074308 0.050000
v 0.051692 -0.074308 0.050000
v 0.051692 0.102308 0.050000
v 0.006462 0.102308 0.050000
v -0.002341 0.101081 0.050000
v -0.010440 0.097402 0.050000
v -0.017837 0.091269 0.050000
v -0.024530 0.082684 0.050000
v -0.030520 0.071645 0.050000
v -0.035808 0.058154 0.050000
v -0.040392 0.042209 0.050000
v -0.044273 0.023812 0.050000
v -0.047452 0.002962 0.050000
v -0.049927 -0.020342 0.050000
v -0.051700 -0.046098 0.050000
vn -0.0000 -0.0000 -1.0000
vn -0.0000 -0.0000 1.0000
vn -0.5699 0.8217 -0.0000
vn -0.0278 0.9996 -0.0000
vn 0.2536 -0.9673 -0.0000
vn 0.7491 0.6625 -0.0000
vn -0.6701 0.7423 -0.0000
vn 0.9931 0.1172 -0.0000
vn 0.2823 -0.9593 -0.0000
vn 0.7886 -0.6148 -0.0000
vn -0.3463 -0.9381 -0.0000
vn -0.6040 -0.7970 -0.0000
vn -0.6379 0.7701 -0.0000
vn 0.9882 0.1531 -0.0000
vn 0.3136 -0.9495 -0.0000
vn -0.9419 -0.3359 -0.0000
vn -0.2994 -0.9541 -0.0000
vn 0.3478 -0.9376 -0.0000
vn 0.6976 0.7165 -0.0000
vn 0.8789 -0.4770 -0.0000
vn -0.2522 -0.9677 -0.0000
vn -0.0000 -1.0000 -0.0000
vn -0.6220 0.7830 -0.0000
vn -0.7226 0.6913 -0.0000
vn 0.9799 0.1996 -0.0000
vn -0.9087 -0.4175 -0.0000
vn -0.2049 -0.9788 -0.0000
vn -0.5230 -0.8523 -0.0000
vn 0.3851 -0.9229 -0.0000
vn 0.9311 -0.3649 -0.0000
vn -0.9466 0.3224 -0.0000
vn -0.1579 -0.9875 -0.0000
vn -0.7944 0.6074 -0.0000
vn 1.0000 0.0053 -0.0000
vn 0.6377 0.7703 -0.0000
vn -0.9085 0.4179 -0.0000
vn -0.1115 -0.9938 -0.0000
vn -1.0000 -0.0000 -0.0000
vn -0.0211 0.9998 -0.0000
vn 0.7071 -0.7071 -0.0000
vn 0.9611 -0.2763 -0.0000
vn -0.0660 -0.9978 -0.0000
vn -0.5142 0.8577 -0.0000
vn -0.8527 0.5224 -0.0000
vn 0.9652 0.2615 -0.0000
vn -0.0000 1.0000 -0.0000
vn 0.6785 -0.7346 -0.0000
vn -0.8719 0.4897 -0.0000
vn -0.0217 -0.9998 -0.0000
vn -0.8982 0.4396 -0.0000
vn 0.6222 -0.7829 -0.0000
vn 0.5692 0.8222 -0.0000
vn -0.8387 0.5446 -0.0000
vn -0.4810 -0.8767 -0.0000
vn 1.0000 -0.0000 -0.0000
vn 0.5682 -0.8229 -0.0000
vn 0.9785 -0.2064 -0.0000
vn -0.8615 -0.5078 -0.0000
vn -0.0650 0.9979 -0.0000
vn -0.4555 0.8902 -0.0000
vn -0.9324 0.3613 -0.0000
vn 0.5172 -0.8558 -0.0000
vn -0.8093 0.5874 -0.0000
vn -0.1110 0.9938 -0.0000
vn 0.4697 -0.8828 -0.0000
vn 0.4926 0.8703 -0.0000
vn 0.9886 -0.1507 -0.0000
vn -0.1589 0.9873 -0.0000
vn -0.3946 0.9189 -0.0000
vn -0.9574 0.2889 -0.0000
vn 0.9379 0.3468 -0.0000
vn 0.4256 -0.9049 -0.0000
vn -0.7836 0.6213 -0.0000
vn -0.2086 0.9780 -0.0000
vn -0.9999 -0.0169 -0.0000
vn -0.4374 -0.8993 -0.0000
vn 0.9944 -0.1056 -0.0000
vn -0.7610 0.6487 -0.0000
vn -0.2597 0.9657 -0.0000
vn -0.9748 0.2230 -0.0000
vn 0.9999 0.0170 -0.0000
vn 0.4088 0.9126 -0.0000
vn -0.3118 0.9501 -0.0000
vn -0.9985 -0.0540 -0.0000
vn -0.3322 0.9432 -0.0000
vn -0.9866 0.1635 -0.0000
vn 0.8839 0.4677 -0.0000
vn -0.7413 0.6712 -0.0000
vn -0.3645 0.9312 -0.0000
vn 0.9995 0.0306 -0.0000
vn 0.3196 0.9475 -0.0000
vn 0.9976 -0.0687 -0.0000
vn -0.7966 -0.6045 -0.0000
vn -0.4172 0.9088 -0.0000
vn -0.9954 -0.0963 -0.0000
vn -0.2693 0.9631 -0.0000
vn -0.9939 0.1101 -0.0000
vn -0.2066 0.9784 -0.0000
vn 0.8295 0.5585 -0.0000
vn 0.9989 0.0466 -0.0000
vn 0.9993 -0.0379 -0.0000
vn -0.7239 0.6899 -0.0000
vn -0.9895 -0.1447 -0.0000
vn -0.3924 -0.9198 -0.0000
vn -0.9981 0.0623 -0.0000
vn 0.1380 -0.9904 -0.0000
vn -0.7085 0.7057 -0.0000
vn 0.9978 0.0656 -0.0000
vn 0.2274 0.9738 -0.0000
vn -0.9798 -0.2001 -0.0000
vn -0.1451 0.9894 -0.0000
vn 0.7928 0.6095 -0.0000
vn 0.4136 -0.9105 -0.0000
vn -0.9998 0.0196 -0.0000
vn -0.6949 0.7191 -0.0000
vn -0.4694 0.8830 -0.0000
vn -0.9567 0.2912 -0.0000
vn 0.1347 0.9909 -0.0000
vn -0.7110 -0.7032 -0.0000
vn -0.0853 0.9964 -0.0000
vn 0.2272 -0.9738 -0.0000
vn 0.6383 -0.7698 -0.0000
vn -0.6827 0.7307 -0.0000
vn -0.5205 0.8539 -0.0000
vn 0.9961 0.0887 -0.0000
vn -0.9646 -0.2636 -0.0000
vn 0.0440 0.9990 -0.0000
vt 0.876923 0.000000
vt 0.884615 0.000000
vt 0.915385 0.000000
vt 0.292308 0.000000
vt 0.523077 0.000000
vt 0.284615 0.000000
vt 0.907692 0.000000
vt 0.000000 0.000000
vt 0.015385 0.000000
vt 0.869231 0.000000
vt 0.861538 0.000000
vt 0.923077 0.000000
vt 0.853846 0.000000
vt 0.930769 0.000000
vt 0.846154 0.000000
vt 0.200000 0.000000
vt 0.607692 0.000000
vt 0.192308 0.000000
vt 0.623077 0.000000
vt 0.184615 0.000000
vt 0.823077 0.000000
vt 0.953846 0.000000
vt 0.815385 0.000000
vt 0.630769 0.000000
vt 0.176923 0.000000
vt 0.669231 0.000000
vt 0.146154 0.000000
vt 0.153846 0.000000
vt 0.938462 0.000000
vt 0.838462 0.000000
vt 0.615385 0.000000
vt 0.800000 0.000000
vt 0.807692 0.000000
vt 0.961538 0.000000
vt 0.946154 0.000000
vt 0.784615 0.000000
vt 0.792308 0.000000
vt 0.969231 0.000000
vt 0.776923 0.000000
vt 0.515385 0.000000
vt 0.346154 0.000000
vt 0.507692 0.000000
vt 0.769231 0.000000
vt 0.976923 0.000000
vt 0.653846 0.000000
vt 0.161538 0.000000
vt 0.169231 0.000000
vt 0.761538 0.000000
vt 0.753846 0.000000
vt 0.984615 0.000000
vt 0.223077 0.000000
vt 0.584615 0.000000
vt 0.215385 0.000000
vt 0.746154 0.000000
vt 0.592308 0.000000
vt 0.207692 0.000000
vt 0.738462 0.000000
vt 0.992308 0.000000
vt 0.730769 0.000000
vt 0.723077 0.000000
vt 1.000000 0.000000
vt 0.123077 0.000000
vt 0.707692 0.000000
vt 0.892308 0.000000
vt 0.715385 0.000000
vt 0.700000 0.000000
vt 0.646154 0.000000
vt 0.638462 0.000000
vt 0.569231 0.000000
vt 0.230769 0.000000
vt 0.238462 0.000000
vt 0.023077 0.000000
vt 0.030769 0.000000
vt 0.900000 0.000000
vt 0.038462 0.000000
vt 0.046154 0.000000
vt 0.053846 0.000000
vt 0.130769 0.000000
vt 0.107692 0.000000
vt 0.115385 0.000000
vt 0.100000 0.000000
vt 0.092308 0.000000
vt 0.084615 0.000000
vt 0.076923 0.000000
vt 0.069231 0.000000
vt 0.061538 0.000000
vt 0.692308 0.000000
vt 0.138462 0.000000
vt 0.684615 0.000000
vt 0.676923 0.000000
vt 0.661538 0.000000
vt 0.538462 0.000000
vt 0.261538 0.000000
vt 0.269231 0.000000
vt 0.492308 0.000000
vt 0.500000 0.000000
vt 0.600000 0.000000
vt 0.830769 0.000000
vt 0.484615 0.000000
vt 0.476923 0.000000
vt 0.253846 0.000000
vt 0.546154 0.000000
vt 0.553846 0.000000
vt 0.469231 0.000000
vt 0.461538 0.000000
vt 0.453846 0.000000
vt 0.446154 0.000000
vt 0.438462 0.000000
vt 0.430769 0.000000
vt 0.576923 0.000000
vt 0.423077 0.000000
vt 0.415385 0.000000
vt 0.407692 0.000000
vt 0.400000 0.000000
vt 0.392308 0.000000
vt 0.384615 0.000000
vt 0.530769 0.000000
vt 0.376923 0.000000
vt 0.369231 0.000000
vt 0.007692 0.000000
vt 0.361538 0.000000
vt 0.353846 0.000000
vt 0.561538 0.000000
vt 0.246154 0.000000
vt 0.338462 0.000000
vt 0.330769 0.000000
vt 0.276923 0.000000
vt 0.323077 0.000000
vt 0.315385 0.000000
vt 0.307692 0.000000
vt 0.300000 0.000000
s 0
f 115/1/1 116/2/1 120/3/1
f 39/4/1 69/5/1 38/6/1
f 119/7/1 1/8/1 3/9/1
f 114/10/1 115/1/1 120/3/1
f 113/11/1 114/10/1 121/12/1
f 112/13/1 113/11/1 122/14/1
f 111/15/1 112/13/1 122/14/1
f 27/16/1 80/17/1 26/18/1
f 26/18/1 82/19/1 25/20/1
f 121/12/1 114/10/1 120/3/1
f 108/21/1 125/22/1 107/23/1
f 120/3/1 116/2/1 119/7/1
f 25/20/1 83/24/1 24/25/1
f 88/26/1 20/27/1 21/28/1
f 111/15/1 123/29/1 110/30/1
f 122/14/1 113/11/1 121/12/1
f 26/18/1 81/31/1 82/19/1
f 105/32/1 106/33/1 126/34/1
f 124/35/1 125/22/1 108/21/1
f 123/29/1 124/35/1 110/30/1
f 103/36/1 104/37/1 127/38/1
f 107/23/1 125/22/1 106/33/1
f 102/39/1 103/36/1 127/38/1
f 68/40/1 46/41/1 67/42/1
f 101/43/1 102/39/1 128/44/1
f 86/45/1 22/46/1 23/47/1
f 100/48/1 101/43/1 128/44/1
f 99/49/1 100/48/1 129/50/1
f 30/51/1 77/52/1 29/53/1
f 98/54/1 99/49/1 129/50/1
f 29/53/1 78/55/1 28/56/1
f 97/57/1 98/54/1 130/58/1
f 26/18/1 80/17/1 81/31/1
f 96/59/1 97/57/1 130/58/1
f 95/60/1 96/59/1 131/61/1
f 17/62/1 93/63/1 117/64/1
f 94/65/1 95/60/1 131/61/1
f 94/65/1 131/61/1 117/64/1
f 93/63/1 94/65/1 117/64/1
f 92/66/1 93/63/1 17/62/1
f 119/7/1 116/2/1 1/8/1
f 85/67/1 23/47/1 24/25/1
f 85/67/1 24/25/1 84/68/1
f 75/69/1 31/70/1 32/71/1
f 3/9/1 4/72/1 119/7/1
f 4/72/1 5/73/1 118/74/1
f 5/73/1 6/75/1 118/74/1
f 6/75/1 7/76/1 118/74/1
f 129/50/1 100/48/1 128/44/1
f 7/76/1 8/77/1 118/74/1
f 92/66/1 17/62/1 18/78/1
f 15/79/1 16/80/1 14/81/1
f 14/81/1 16/80/1 13/82/1
f 13/82/1 16/80/1 12/83/1
f 12/83/1 16/80/1 11/84/1
f 10/85/1 11/84/1 118/74/1
f 9/86/1 10/85/1 118/74/1
f 8/77/1 9/86/1 118/74/1
f 91/87/1 92/66/1 18/78/1
f 91/87/1 18/78/1 19/88/1
f 90/89/1 91/87/1 19/88/1
f 90/89/1 19/88/1 20/27/1
f 89/90/1 90/89/1 20/27/1
f 89/90/1 20/27/1 88/26/1
f 246/1/2 251/3/2 247/2/2
f 88/26/1 21/28/1 87/91/1
f 71/92/1 35/93/1 36/94/1
f 65/95/1 66/96/1 67/42/1
f 87/91/1 22/46/1 86/45/1
f 25/20/1 82/19/1 83/24/1
f 86/45/1 23/47/1 85/67/1
f 28/56/1 78/55/1 79/97/1
f 109/98/1 124/35/1 108/21/1
f 127/38/1 104/37/1 126/34/1
f 110/30/1 124/35/1 109/98/1
f 64/99/1 65/95/1 67/42/1
f 63/100/1 64/99/1 67/42/1
f 34/101/1 72/102/1 73/103/1
f 62/104/1 63/100/1 67/42/1
f 61/105/1 62/104/1 67/42/1
f 118/74/1 11/84/1 16/80/1
f 60/106/1 61/105/1 67/42/1
f 28/56/1 79/97/1 27/16/1
f 59/107/1 60/106/1 67/42/1
f 58/108/1 59/107/1 67/42/1
f 131/61/1 96/59/1 130/58/1
f 57/109/1 58/108/1 67/42/1
f 35/93/1 72/102/1 34/101/1
f 76/110/1 30/51/1 31/70/1
f 56/111/1 57/109/1 67/42/1
f 55/112/1 56/111/1 67/42/1
f 87/91/1 21/28/1 22/46/1
f 54/113/1 55/112/1 67/42/1
f 29/53/1 77/52/1 78/55/1
f 53/114/1 54/113/1 67/42/1
f 27/16/1 79/97/1 80/17/1
f 52/115/1 53/114/1 67/42/1
f 105/32/1 126/34/1 104/37/1
f 130/58/1 98/54/1 129/50/1
f 51/116/1 52/115/1 67/42/1
f 38/6/1 69/5/1 70/117/1
f 126/34/1 106/33/1 125/22/1
f 50/118/1 51/116/1 67/42/1
f 49/119/1 50/118/1 67/42/1
f 77/52/1 30/51/1 76/110/1
f 3/9/1 1/8/1 2/120/1
f 48/121/1 49/119/1 67/42/1
f 76/110/1 31/70/1 75/69/1
f 47/122/1 48/121/1 67/42/1
f 74/123/1 32/71/1 33/124/1
f 75/69/1 32/71/1 74/123/1
f 46/41/1 47/122/1 67/42/1
f 33/124/1 73/103/1 74/123/1
f 45/125/1 46/41/1 68/40/1
f 44/126/1 45/125/1 68/40/1
f 37/127/1 70/117/1 71/92/1
f 119/7/1 4/72/1 118/74/1
f 43/128/1 44/126/1 68/40/1
f 34/101/1 73/103/1 33/124/1
f 42/129/1 43/128/1 68/40/1
f 24/25/1 83/24/1 84/68/1
f 41/130/1 42/129/1 68/40/1
f 37/127/1 71/92/1 36/94/1
f 128/44/1 102/39/1 127/38/1
f 72/102/1 35/93/1 71/92/1
f 40/131/1 69/5/1 39/4/1
f 40/131/1 68/40/1 69/5/1
f 38/6/1 70/117/1 37/127/1
f 41/130/1 68/40/1 40/131/1
f 17/62/1 117/64/1 118/74/1
f 122/14/1 123/29/1 111/15/1
f 118/74/1 16/80/1 17/62/1
f 170/4/2 169/6/2 200/5/2
f 250/7/2 134/9/2 132/8/2
f 245/10/2 251/3/2 246/1/2
f 244/11/2 252/12/2 245/10/2
f 243/13/2 253/14/2 244/11/2
f 242/15/2 253/14/2 243/13/2
f 158/16/2 157/18/2 211/17/2
f 157/18/2 156/20/2 213/19/2
f 252/12/2 251/3/2 245/10/2
f 239/21/2 238/23/2 256/22/2
f 251/3/2 250/7/2 247/2/2
f 156/20/2 155/25/2 214/24/2
f 219/26/2 152/28/2 151/27/2
f 242/15/2 241/30/2 254/29/2
f 253/14/2 252/12/2 244/11/2
f 157/18/2 213/19/2 212/31/2
f 236/32/2 257/34/2 237/33/2
f 255/35/2 239/21/2 256/22/2
f 254/29/2 241/30/2 255/35/2
f 234/36/2 258/38/2 235/37/2
f 238/23/2 237/33/2 256/22/2
f 233/39/2 258/38/2 234/36/2
f 199/40/2 198/42/2 177/41/2
f 232/43/2 259/44/2 233/39/2
f 217/45/2 154/47/2 153/46/2
f 231/48/2 259/44/2 232/43/2
f 230/49/2 260/50/2 231/48/2
f 161/51/2 160/53/2 208/52/2
f 229/54/2 260/50/2 230/49/2
f 160/53/2 159/56/2 209/55/2
f 228/57/2 261/58/2 229/54/2
f 157/18/2 212/31/2 211/17/2
f 227/59/2 261/58/2 228/57/2
f 226/60/2 262/61/2 227/59/2
f 148/62/2 248/64/2 224/63/2
f 225/65/2 262/61/2 226/60/2
f 225/65/2 248/64/2 262/61/2
f 224/63/2 248/64/2 225/65/2
f 223/66/2 148/62/2 224/63/2
f 250/7/2 132/8/2 247/2/2
f 216/67/2 155/25/2 154/47/2
f 216/67/2 215/68/2 155/25/2
f 206/69/2 163/71/2 162/70/2
f 134/9/2 250/7/2 135/72/2
f 135/72/2 249/74/2 136/73/2
f 136/73/2 249/74/2 137/75/2
f 137/75/2 249/74/2 138/76/2
f 260/50/2 259/44/2 231/48/2
f 138/76/2 249/74/2 139/77/2
f 223/66/2 149/78/2 148/62/2
f 146/79/2 145/81/2 147/80/2
f 145/81/2 144/82/2 147/80/2
f 144/82/2 143/83/2 147/80/2
f 143/83/2 142/84/2 147/80/2
f 141/85/2 249/74/2 142/84/2
f 140/86/2 249/74/2 141/85/2
f 139/77/2 249/74/2 140/86/2
f 222/87/2 149/78/2 223/66/2
f 222/87/2 150/88/2 149/78/2
f 221/89/2 150/88/2 222/87/2
f 221/89/2 151/27/2 150/88/2
f 220/90/2 151/27/2 221/89/2
f 220/90/2 219/26/2 151/27/2
f 219/26/2 218/91/2 152/28/2
f 202/92/2 167/94/2 166/93/2
f 196/95/2 198/42/2 197/96/2
f 218/91/2 217/45/2 153/46/2
f 156/20/2 214/24/2 213/19/2
f 217/45/2 216/67/2 154/47/2
f 159/56/2 210/97/2 209/55/2
f 240/98/2 239/21/2 255/35/2
f 258/38/2 257/34/2 235/37/2
f 241/30/2 240/98/2 255/35/2
f 195/99/2 198/42/2 196/95/2
f 194/100/2 198/42/2 195/99/2
f 165/101/2 204/103/2 203/102/2
f 193/104/2 198/42/2 194/100/2
f 192/105/2 198/42/2 193/104/2
f 249/74/2 147/80/2 142/84/2
f 191/106/2 198/42/2 192/105/2
f 159/56/2 158/16/2 210/97/2
f 190/107/2 198/42/2 191/106/2
f 189/108/2 198/42/2 190/107/2
f 262/61/2 261/58/2 227/59/2
f 188/109/2 198/42/2 189/108/2
f 166/93/2 165/101/2 203/102/2
f 207/110/2 162/70/2 161/51/2
f 187/111/2 198/42/2 188/109/2
f 186/112/2 198/42/2 187/111/2
f 218/91/2 153/46/2 152/28/2
f 185/113/2 198/42/2 186/112/2
f 160/53/2 209/55/2 208/52/2
f 184/114/2 198/42/2 185/113/2
f 158/16/2 211/17/2 210/97/2
f 183/115/2 198/42/2 184/114/2
f 236/32/2 235/37/2 257/34/2
f 261/58/2 260/50/2 229/54/2
f 182/116/2 198/42/2 183/115/2
f 169/6/2 201/117/2 200/5/2
f 257/34/2 256/22/2 237/33/2
f 181/118/2 198/42/2 182/116/2
f 180/119/2 198/42/2 181/118/2
f 208/52/2 207/110/2 161/51/2
f 134/9/2 133/120/2 132/8/2
f 179/121/2 198/42/2 180/119/2
f 207/110/2 206/69/2 162/70/2
f 178/122/2 198/42/2 179/121/2
f 205/123/2 164/124/2 163/71/2
f 206/69/2 205/123/2 163/71/2
f 177/41/2 198/42/2 178/122/2
f 164/124/2 205/123/2 204/103/2
f 176/125/2 199/40/2 177/41/2
f 175/126/2 199/40/2 176/125/2
f 168/127/2 202/92/2 201/117/2
f 250/7/2 249/74/2 135/72/2
f 174/128/2 199/40/2 175/126/2
f 165/101/2 164/124/2 204/103/2
f 173/129/2 199/40/2 174/128/2
f 155/25/2 215/68/2 214/24/2
f 172/130/2 199/40/2 173/129/2
f 168/127/2 167/94/2 202/92/2
f 259/44/2 258/38/2 233/39/2
f 203/102/2 202/92/2 166/93/2
f 171/131/2 170/4/2 200/5/2
f 171/131/2 200/5/2 199/40/2
f 169/6/2 168/127/2 201/117/2
f 172/130/2 171/131/2 199/40/2
f 148/62/2 249/74/2 248/64/2
f 253/14/2 242/15/2 254/29/2
f 249/74/2 148/62/2 147/80/2
f 105/32/3 104/37/3 235/37/3 236/32/3
f 42/129/4 41/130/4 172/130/4 173/129/4
f 4/72/5 3/9/5 134/9/5 135/72/5
f 32/71/6 31/70/6 162/70/6 163/71/6
f 53/114/7 52/115/7 183/115/7 184/114/7
f 24/25/8 23/47/8 154/47/8 155/25/8
f 5/73/9 4/72/9 135/72/9 136/73/9
f 124/35/10 123/29/10 254/29/10 255/35/10
f 76/110/11 75/69/11 206/69/11 207/110/11
f 81/31/12 80/17/12 211/17/12 212/31/12
f 104/37/13 103/36/13 234/36/13 235/37/13
f 25/20/14 24/25/14 155/25/14 156/20/14
f 6/75/15 5/73/15 136/73/15 137/75/15
f 86/45/16 85/67/16 216/67/16 217/45/16
f 75/69/17 74/123/17 205/123/17 206/69/17
f 7/76/18 6/75/18 137/75/18 138/76/18
f 33/124/19 32/71/19 163/71/19 164/124/19
f 125/22/20 124/35/20 255/35/20 256/22/20
f 74/123/21 73/103/21 204/103/21 205/123/21
f 17/62/22 16/80/22 147/80/22 148/62/22
f 52/115/23 51/116/23 182/116/23 183/115/23
f 103/36/24 102/39/24 233/39/24 234/36/24
f 26/18/25 25/20/25 156/20/25 157/18/25
f 85/67/26 84/68/26 215/68/26 216/67/26
f 73/103/27 72/102/27 203/102/27 204/103/27
f 80/17/28 79/97/28 210/97/28 211/17/28
f 8/77/29 7/76/29 138/76/29 139/77/29
f 126/34/30 125/22/30 256/22/30 257/34/30
f 65/95/31 64/99/31 195/99/31 196/95/31
f 72/102/32 71/92/32 202/92/32 203/102/32
f 102/39/33 101/43/33 232/43/33 233/39/33
f 18/78/34 17/62/34 148/62/34 149/78/34
f 34/101/35 33/124/35 164/124/35 165/101/35
f 64/99/36 63/100/36 194/100/36 195/99/36
f 71/92/37 70/117/37 201/117/37 202/92/37
f 16/80/38 15/79/38 146/79/38 147/80/38
f 51/116/3 50/118/3 181/118/3 182/116/3
f 116/2/39 115/1/39 246/1/39 247/2/39
f 15/79/40 14/81/40 145/81/40 146/79/40
f 127/38/41 126/34/41 257/34/41 258/38/41
f 70/117/42 69/5/42 200/5/42 201/117/42
f 50/118/43 49/119/43 180/119/43 181/118/43
f 101/43/44 100/48/44 231/48/44 232/43/44
f 27/16/45 26/18/45 157/18/45 158/16/45
f 1/8/46 116/2/46 247/2/46 132/8/46
f 14/81/47 13/82/47 144/82/47 145/81/47
f 63/100/48 62/104/48 193/104/48 194/100/48
f 69/5/49 68/40/49 199/40/49 200/5/49
f 100/48/50 99/49/50 230/49/50 231/48/50
f 68/40/22 67/42/22 198/42/22 199/40/22
f 13/82/51 12/83/51 143/83/51 144/82/51
f 35/93/52 34/101/52 165/101/52 166/93/52
f 62/104/53 61/105/53 192/105/53 193/104/53
f 79/97/54 78/55/54 209/55/54 210/97/54
f 2/120/55 1/8/55 132/8/55 133/120/55
f 12/83/56 11/84/56 142/84/56 143/83/56
f 128/44/57 127/38/57 258/38/57 259/44/57
f 84/68/58 83/24/58 214/24/58 215/68/58
f 115/1/59 114/10/59 245/10/59 246/1/59
f 49/119/60 48/121/60 179/121/60 180/119/60
f 99/49/61 98/54/61 229/54/61 230/49/61
f 11/84/62 10/85/62 141/85/62 142/84/62
f 61/105/63 60/106/63 191/106/63 192/105/63
f 114/10/64 113/11/64 244/11/64 245/10/64
f 10/85/65 9/86/65 140/86/65 141/85/65
f 36/94/66 35/93/66 166/93/66 167/94/66
f 129/50/67 128/44/67 259/44/67 260/50/67
f 113/11/68 112/13/68 243/13/68 244/11/68
f 48/121/69 47/122/69 178/122/69 179/121/69
f 98/54/70 97/57/70 228/57/70 229/54/70
f 28/56/71 27/16/71 158/16/71 159/56/71
f 9/86/72 8/77/72 139/77/72 140/86/72
f 60/106/73 59/107/73 190/107/73 191/106/73
f 112/13/74 111/15/74 242/15/74 243/13/74
f 92/66/75 91/87/75 222/87/75 223/66/75
f 78/55/76 77/52/76 208/52/76 209/55/76
f 130/58/77 129/50/77 260/50/77 261/58/77
f 59/107/78 58/108/78 189/108/78 190/107/78
f 111/15/79 110/30/79 241/30/79 242/15/79
f 97/57/80 96/59/80 227/59/80 228/57/80
f 19/88/81 18/78/81 149/78/81 150/88/81
f 37/127/82 36/94/82 167/94/82 168/127/82
f 110/30/83 109/98/83 240/98/83 241/30/83
f 91/87/84 90/89/84 221/89/84 222/87/84
f 47/122/85 46/41/85 177/41/85 178/122/85
f 96/59/86 95/60/86 226/60/86 227/59/86
f 29/53/87 28/56/87 159/56/87 160/53/87
f 58/108/88 57/109/88 188/109/88 189/108/88
f 109/98/89 108/21/89 239/21/89 240/98/89
f 20/27/90 19/88/90 150/88/90 151/27/90
f 38/6/91 37/127/91 168/127/91 169/6/91
f 131/61/92 130/58/92 261/58/92 262/61/92
f 83/24/93 82/19/93 213/19/93 214/24/93
f 108/21/94 107/23/94 238/23/94 239/21/94
f 90/89/95 89/90/95 220/90/95 221/89/95
f 46/41/96 45/125/96 176/125/96 177/41/96
f 95/60/97 94/65/97 225/65/97 226/60/97
f 45/125/98 44/126/98 175/126/98 176/125/98
f 30/51/99 29/53/99 160/53/99 161/51/99
f 120/3/22 119/7/22 250/7/22 251/3/22
f 21/28/100 20/27/100 151/27/100 152/28/100
f 117/64/101 131/61/101 262/61/101 248/64/101
f 57/109/102 56/111/102 187/111/102 188/109/102
f 89/90/103 88/26/103 219/26/103 220/90/103
f 77/52/104 76/110/104 207/110/104 208/52/104
f 94/65/105 93/63/105 224/63/105 225/65/105
f 121/12/106 120/3/106 251/3/106 252/12/106
f 56/111/107 55/112/107 186/112/107 187/111/107
f 119/7/38 118/74/38 249/74/38 250/7/38
f 22/46/108 21/28/108 152/28/108 153/46/108
f 39/4/109 38/6/109 169/6/109 170/4/109
f 118/74/46 117/64/46 248/64/46 249/74/46
f 88/26/110 87/91/110 218/91/110 219/26/110
f 44/126/111 43/128/111 174/128/111 175/126/111
f 31/70/112 30/51/112 161/51/112 162/70/112
f 122/14/113 121/12/113 252/12/113 253/14/113
f 93/63/114 92/66/114 223/66/114 224/63/114
f 55/112/115 54/113/115 185/113/115 186/112/115
f 107/23/116 106/33/116 237/33/116 238/23/116
f 66/96/117 65/95/117 196/95/117 197/96/117
f 40/131/118 39/4/118 170/4/118 171/131/118
f 82/19/119 81/31/119 212/31/119 213/19/119
f 67/42/55 66/96/55 197/96/55 198/42/55
f 43/128/120 42/129/120 173/129/120 174/128/120
f 3/9/121 2/120/121 133/120/121 134/9/121
f 123/29/122 122/14/122 253/14/122 254/29/122
f 54/113/123 53/114/123 184/114/123 185/113/123
f 106/33/124 105/32/124 236/32/124 237/33/124
f 23/47/125 22/46/125 153/46/125 154/47/125
f 87/91/126 86/45/126 217/45/126 218/91/126
f 41/130/127 40/131/127 171/131/127 172/130/127
