# Blender 4.4.3
# www.blender.org
mtllib text_l.mtl
o text_l
v 0.051154 0.350000 -0.050000
v 0.051154 -0.317692 -0.050000
v 0.045522 -0.318964 -0.050000
v 0.040115 -0.320265 -0.050000
v 0.034933 -0.321596 -0.050000
v 0.029974 -0.322957 -0.050000
v 0.025240 -0.324348 -0.050000
v 0.020731 -0.325769 -0.050000
v 0.016446 -0.327220 -0.050000
v 0.012385 -0.328701 -0.050000
v 0.008548 -0.330212 -0.050000
v 0.004936 -0.331752 -0.050000
v 0.001548 -0.333323 -0.050000
v -0.001615 -0.334923 -0.050000
v -0.003418 -0.335858 -0.050000
v -0.005235 -0.336868 -0.050000
v -0.007067 -0.337952 -0.050000
v -0.008915 -0.339111 -0.050000
v -0.010777 -0.340345 -0.050000
v -0.012654 -0.341654 -0.050000
v -0.014546 -0.343037 -0.050000
v -0.016453 -0.344496 -0.050000
v -0.018375 -0.346029 -0.050000
v -0.020312 -0.347637 -0.050000
v -0.022264 -0.349319 -0.050000
v -0.024231 -0.351077 -0.050000
v -0.025024 -0.352027 -0.050000
v -0.025966 -0.353081 -0.050000
v -0.027058 -0.354240 -0.050000
v -0.028299 -0.355504 -0.050000
v -0.029690 -0.356873 -0.050000
v -0.031231 -0.358346 -0.050000
v -0.032921 -0.359924 -0.050000
v -0.034761 -0.361607 -0.050000
v -0.036750 -0.363394 -0.050000
v -0.038889 -0.365286 -0.050000
v -0.041177 -0.367283 -0.050000
v -0.043615 -0.369385 -0.050000
v -0.051154 -0.376923 -0.050000
v -0.051154 0.312308 -0.050000
v -0.051296 0.317311 -0.050000
v -0.051722 0.321910 -0.050000
v -0.052433 0.326106 -0.050000
v -0.053427 0.329897 -0.050000
v -0.054706 0.333285 -0.050000
v -0.056269 0.336269 -0.050000
v -0.058116 0.338849 -0.050000
v -0.060248 0.341026 -0.050000
v -0.062663 0.342798 -0.050000
v -0.065363 0.344167 -0.050000
v -0.068347 0.345131 -0.050000
v -0.071615 0.345692 -0.050000
v -0.127615 0.352154 -0.050000
v -0.120885 0.353979 -0.050000
v -0.114333 0.355863 -0.050000
v -0.107962 0.357808 -0.050000
v -0.101769 0.359812 -0.050000
v -0.095756 0.361876 -0.050000
v -0.089923 0.364000 -0.050000
v -0.084269 0.366184 -0.050000
v -0.078795 0.368427 -0.050000
v -0.073500 0.370731 -0.050000
v -0.068385 0.373094 -0.050000
v -0.063449 0.375517 -0.050000
v -0.058692 0.378000 -0.050000
v -0.003769 0.408154 -0.050000
v 0.000381 0.402979 -0.050000
v 0.004218 0.398222 -0.050000
v 0.007740 0.393885 -0.050000
v 0.010949 0.389966 -0.050000
v 0.013843 0.386466 -0.050000
v 0.016423 0.383385 -0.050000
v 0.018689 0.380722 -0.050000
v 0.020641 0.378479 -0.050000
v 0.022279 0.376654 -0.050000
v 0.023603 0.375248 -0.050000
v 0.024612 0.374261 -0.050000
v 0.025308 0.373692 -0.050000
v 0.051154 0.350000 0.050000
v 0.051154 -0.317692 0.050000
v 0.045522 -0.318964 0.050000
v 0.040115 -0.320265 0.050000
v 0.034933 -0.321596 0.050000
v 0.029974 -0.322957 0.050000
v 0.025240 -0.324348 0.050000
v 0.020731 -0.325769 0.050000
v 0.016446 -0.327220 0.050000
v 0.012385 -0.328701 0.050000
v 0.008548 -0.330212 0.050000
v 0.004936 -0.331752 0.050000
v 0.001548 -0.333323 0.050000
v -0.001615 -0.334923 0.050000
v -0.003418 -0.335858 0.050000
v -0.005235 -0.336868 0.050000
v -0.007067 -0.337952 0.050000
v -0.008915 -0.339111 0.050000
v -0.010777 -0.340345 0.050000
v -0.012654 -0.341654 0.050000
v -0.014546 -0.343037 0.050000
v -0.016453 -0.344496 0.050000
v -0.018375 -0.346029 0.050000
v -0.020312 -0.347637 0.050000
v -0.022264 -0.349319 0.050000
v -0.024231 -0.351077 0.050000
v -0.025024 -0.352027 0.050000
v -0.025966 -0.353081 0.050000
v -0.027058 -0.354240 0.050000
v -0.028299 -0.355504 0.050000
v -0.029690 -0.356873 0.050000
v -0.031231 -0.358346 0.050000
v -0.032921 -0.359924 0.050000
v -0.034761 -0.361607 0.050000
v -0.036750 -0.363394 0.050000
v -0.038889 -0.365286 0.050000
v -0.041177 -0.367283 0.050000
v -0.043615 -0.369385 0.050000
v -0.051154 -0.376923 0.050000
v -0.051154 0.312308 0.050000
v -0.051296 0.317311 0.050000
v -0.051722 0.321910 0.050000
v -0.052433 0.326106 0.050000
v -0.053427 0.329897 0.050000
v -0.054706 0.333285 0.050000
v -0.056269 0.336269 0.050000
v -0.058116 0.338849 0.050000
v -0.060248 0.341026 0.050000
v -0.062663 0.342798 0.050000
v -0.065363 0.344167 0.050000
v -0.068347 0.345131 0.050000
v -0.071615 0.345692 0.050000
v -0.127615 0.352154 0.050000
v -0.120885 0.353979 0.050000
v -0.114333 0.355863 0.050000
v -0.107962 0.357808 0.050000
v -0.101769 0.359812 0.050000
v -0.095756 0.361876 0.050000
v -0.089923 0.364000 0.050000
v -0.084269 0.366184 0.050000
v -0.078795 0.368427 0.050000
v -0.073500 0.370731 0.050000
v -0.068385 0.373094 0.050000
v -0.063449 0.375517 0.050000
v -0.058692 0.378000 0.050000
v -0.003769 0.408154 0.050000
v 0.000381 0.402979 0.050000
v 0.004218 0.398222 0.050000
v 0.007740 0.393885 0.050000
v 0.010949 0.389966 0.050000
v 0.013843 0.386466 0.050000
v 0.016423 0.383385 0.050000
v 0.018689 0.380722 0.050000
v 0.020641 0.378479 0.050000
v 0.022279 0.376654 0.050000
v 0.023603 0.375248 0.050000
v 0.024612 0.374261 0.050000
v 0.025308 0.373692 0.050000
vn -0.0000 -0.0000 -1.0000
vn -0.0000 -0.0000 1.0000
vn -0.0000 0.0001 -1.0000
vn -0.0000 -0.0001 -1.0000
vn -0.0000 0.0001 1.0000
vn -0.5916 -0.8062 -0.0000
vn -0.3989 0.9170 -0.0000
vn 0.7134 -0.7007 -0.0000
vn 0.3923 -0.9198 -0.0000
vn 0.6529 -0.7574 -0.0000
vn 0.7738 0.6335 -0.0000
vn -0.7144 -0.6997 -0.0000
vn -0.3792 0.9253 -0.0000
vn 0.7013 -0.7128 -0.0000
vn 0.3664 -0.9305 -0.0000
vn 0.6387 -0.7694 -0.0000
vn 0.7706 0.6373 -0.0000
vn -0.8131 -0.5821 -0.0000
vn -0.3603 0.9328 -0.0000
vn 0.6911 -0.7227 -0.0000
vn 0.3426 -0.9395 -0.0000
vn 0.6236 -0.7818 -0.0000
vn 0.7667 0.6420 -0.0000
vn -0.8858 -0.4640 -0.0000
vn -0.3421 0.9397 -0.0000
vn 0.6824 -0.7309 -0.0000
vn 0.3207 -0.9472 -0.0000
vn 0.6075 -0.7944 -0.0000
vn 0.7615 0.6481 -0.0000
vn -0.9356 -0.3532 -0.0000
vn -0.3247 0.9458 -0.0000
vn 0.6749 -0.7379 -0.0000
vn 0.3005 -0.9538 -0.0000
vn 0.5903 -0.8072 -0.0000
vn 0.7544 0.6564 -0.0000
vn -0.9673 -0.2537 -0.0000
vn -0.3079 0.9514 -0.0000
vn 0.6683 -0.7438 -0.0000
vn 0.2819 -0.9594 -0.0000
vn 0.5719 -0.8203 -0.0000
vn 0.7442 0.6680 -0.0000
vn -0.9860 -0.1670 -0.0000
vn -0.2919 0.9565 -0.0000
vn 0.6626 -0.7490 -0.0000
vn -0.4628 0.8865 -0.0000
vn 0.2647 -0.9643 -0.0000
vn 0.5524 -0.8336 -0.0000
vn -0.2765 0.9610 -0.0000
vn 0.6575 -0.7535 -0.0000
vn 0.2488 -0.9686 -0.0000
vn 0.5315 -0.8470 -0.0000
vn 1.0000 -0.0000 -0.0000
vn 0.7281 0.6855 -0.0000
vn -0.9957 -0.0923 -0.0000
vn -0.2617 0.9652 -0.0000
vn -0.4407 0.8977 -0.0000
vn 0.2340 -0.9722 -0.0000
vn 0.5093 -0.8606 -0.0000
vn -0.9996 -0.0284 -0.0000
vn -0.1146 -0.9934 -0.0000
vn 0.2202 -0.9755 -0.0000
vn 0.4856 -0.8742 -0.0000
vn 0.6991 0.7150 -0.0000
vn -0.4813 0.8766 -0.0000
vn -1.0000 -0.0000 -0.0000
vn -0.1692 -0.9856 -0.0000
vn 0.7677 -0.6408 -0.0000
vn 0.4604 -0.8877 -0.0000
vn 0.7071 -0.7071 -0.0000
vn 0.6328 0.7743 -0.0000
vn 0.7801 0.6257 -0.0000
vn -0.3076 -0.9515 -0.0000
vn 0.7457 -0.6663 -0.0000
vn 0.4514 -0.8923 -0.0000
vn 0.6757 0.7372 -0.0000
vn 0.7784 0.6278 -0.0000
vn -0.4522 -0.8919 -0.0000
vn -0.4194 0.9078 -0.0000
vn 0.7279 -0.6857 -0.0000
vn 0.4206 -0.9073 -0.0000
vn 0.6663 -0.7457 -0.0000
vn 0.7763 0.6304 -0.0000
vt 0.831169 0.000000
vt 0.844156 0.000000
vt 0.857143 0.000000
vt 0.870130 0.000000
vt 0.883117 0.000000
vt 0.896104 0.000000
vt 0.909091 0.000000
vt 0.597403 0.000000
vt 0.584416 0.000000
vt 0.818182 0.000000
vt 0.636364 0.000000
vt 0.805195 0.000000
vt 0.623377 0.000000
vt 1.000000 0.000000
vt 0.519481 0.000000
vt 0.532468 0.000000
vt 0.610390 0.000000
vt 0.922078 0.000000
vt 0.571429 0.000000
vt 0.987013 0.000000
vt 0.545455 0.000000
vt 0.558442 0.000000
vt 0.961039 0.000000
vt 0.662338 0.000000
vt 0.792208 0.000000
vt 0.649351 0.000000
vt 0.779221 0.000000
vt 0.766234 0.000000
vt 0.753247 0.000000
vt 0.740260 0.000000
vt 0.727273 0.000000
vt 0.714286 0.000000
vt 0.701299 0.000000
vt 0.688312 0.000000
vt 0.675325 0.000000
vt 0.935065 0.000000
vt 0.974026 0.000000
vt 0.324675 0.000000
vt 0.467532 0.000000
vt 0.480519 0.000000
vt 0.948052 0.000000
vt 0.350649 0.000000
vt 0.337662 0.000000
vt 0.000000 0.000000
vt 0.506494 0.000000
vt 0.012987 0.000000
vt 0.493506 0.000000
vt 0.311688 0.000000
vt 0.298701 0.000000
vt 0.285714 0.000000
vt 0.272727 0.000000
vt 0.259740 0.000000
vt 0.246753 0.000000
vt 0.233766 0.000000
vt 0.220779 0.000000
vt 0.207792 0.000000
vt 0.194805 0.000000
vt 0.181818 0.000000
vt 0.168831 0.000000
vt 0.155844 0.000000
vt 0.142857 0.000000
vt 0.129870 0.000000
vt 0.116883 0.000000
vt 0.103896 0.000000
vt 0.090909 0.000000
vt 0.077922 0.000000
vt 0.064935 0.000000
vt 0.051948 0.000000
vt 0.038961 0.000000
vt 0.025974 0.000000
vt 0.363636 0.000000
vt 0.376623 0.000000
vt 0.389610 0.000000
vt 0.402597 0.000000
vt 0.415584 0.000000
vt 0.428571 0.000000
vt 0.441558 0.000000
vt 0.454545 0.000000
s 0
f 65/1/1 66/2/1 67/3/1
f 65/1/1 67/3/1 68/4/1
f 65/1/1 68/4/1 69/5/1
f 65/1/1 69/5/1 70/6/1
f 65/1/1 70/6/1 71/7/1
f 47/8/1 65/1/1 46/9/1
f 64/10/1 50/11/1 63/12/1
f 65/1/1 49/13/1 64/10/1
f 46/9/1 65/1/1 71/7/1
f 78/14/1 41/15/1 42/16/1
f 48/17/1 65/1/1 47/8/1
f 46/9/1 72/18/1 45/19/1
f 77/20/1 43/21/1 44/22/1
f 46/9/1 71/7/1 72/18/1
f 45/19/1 75/23/1 44/22/1
f 52/24/1 62/25/1 51/26/1
f 61/27/1 62/25/1 52/24/1
f 60/28/1 61/27/1 52/24/1
f 59/29/1 60/28/1 52/24/1
f 58/30/1 59/29/1 52/24/1
f 57/31/1 58/30/1 52/24/1
f 56/32/1 57/31/1 52/24/1
f 55/33/1 56/32/1 52/24/1
f 54/34/1 55/33/1 52/24/1
f 53/35/1 54/34/1 52/24/1
f 78/14/1 42/16/1 43/21/1
f 49/13/1 50/11/1 64/10/1
f 48/17/1 49/13/1 65/1/1
f 51/26/1 62/25/1 63/12/1
f 45/19/1 72/18/1 73/36/1
f 44/22/1 76/37/1 77/20/1
f 143/1/2 145/3/2 144/2/2
f 78/14/1 43/21/1 77/20/1
f 26/38/1 37/39/1 38/40/1
f 45/19/1 74/41/1 75/23/1
f 28/42/1 26/38/1 27/43/1
f 1/44/1 41/15/1 78/14/1
f 1/44/1 40/45/1 41/15/1
f 2/46/1 40/45/1 1/44/1
f 39/47/1 40/45/1 38/40/1
f 38/40/1 40/45/1 26/38/1
f 26/38/1 40/45/1 25/48/1
f 25/48/1 40/45/1 24/49/1
f 24/49/1 40/45/1 23/50/1
f 23/50/1 40/45/1 22/51/1
f 22/51/1 40/45/1 21/52/1
f 21/52/1 40/45/1 20/53/1
f 20/53/1 40/45/1 19/54/1
f 19/54/1 40/45/1 18/55/1
f 18/55/1 40/45/1 17/56/1
f 17/56/1 40/45/1 16/57/1
f 16/57/1 40/45/1 15/58/1
f 15/58/1 40/45/1 14/59/1
f 14/59/1 40/45/1 13/60/1
f 13/60/1 40/45/1 12/61/1
f 12/61/1 40/45/1 11/62/1
f 11/62/1 40/45/1 10/63/1
f 10/63/1 40/45/1 9/64/1
f 9/64/1 40/45/1 8/65/1
f 8/65/1 40/45/1 7/66/1
f 7/66/1 40/45/1 6/67/1
f 6/67/1 40/45/1 5/68/1
f 5/68/1 40/45/1 4/69/1
f 4/69/1 40/45/1 3/70/1
f 3/70/1 40/45/1 2/46/1
f 44/22/1 75/23/1 76/37/1
f 45/19/1 73/36/1 74/41/1
f 28/42/1 29/71/1 26/38/1
f 29/71/3 30/72/3 26/38/3
f 30/72/4 31/73/4 26/38/4
f 31/73/1 32/74/1 26/38/1
f 32/74/1 33/75/1 26/38/1
f 33/75/1 34/76/1 26/38/1
f 34/76/1 35/77/1 26/38/1
f 35/77/1 36/78/1 26/38/1
f 36/78/1 37/39/1 26/38/1
f 51/26/1 63/12/1 50/11/1
f 143/1/2 146/4/2 145/3/2
f 143/1/2 147/5/2 146/4/2
f 143/1/2 148/6/2 147/5/2
f 143/1/2 149/7/2 148/6/2
f 125/8/2 124/9/2 143/1/2
f 142/10/2 141/12/2 128/11/2
f 143/1/2 142/10/2 127/13/2
f 124/9/2 149/7/2 143/1/2
f 156/14/2 120/16/2 119/15/2
f 126/17/2 125/8/2 143/1/2
f 124/9/2 123/19/2 150/18/2
f 155/20/2 122/22/2 121/21/2
f 124/9/2 150/18/2 149/7/2
f 123/19/2 122/22/2 153/23/2
f 130/24/2 129/26/2 140/25/2
f 139/27/2 130/24/2 140/25/2
f 138/28/2 130/24/2 139/27/2
f 137/29/2 130/24/2 138/28/2
f 136/30/2 130/24/2 137/29/2
f 135/31/2 130/24/2 136/30/2
f 134/32/2 130/24/2 135/31/2
f 133/33/2 130/24/2 134/32/2
f 132/34/2 130/24/2 133/33/2
f 131/35/2 130/24/2 132/34/2
f 156/14/2 121/21/2 120/16/2
f 127/13/2 142/10/2 128/11/2
f 126/17/2 143/1/2 127/13/2
f 129/26/2 141/12/2 140/25/2
f 123/19/2 151/36/2 150/18/2
f 122/22/2 155/20/2 154/37/2
f 156/14/2 155/20/2 121/21/2
f 104/38/2 116/40/2 115/39/2
f 123/19/2 153/23/2 152/41/2
f 106/42/2 105/43/2 104/38/2
f 79/44/2 156/14/2 119/15/2
f 79/44/2 119/15/2 118/45/2
f 80/46/2 79/44/2 118/45/2
f 117/47/2 116/40/2 118/45/2
f 116/40/2 104/38/2 118/45/2
f 104/38/2 103/48/2 118/45/2
f 103/48/2 102/49/2 118/45/2
f 102/49/2 101/50/2 118/45/2
f 101/50/2 100/51/2 118/45/2
f 100/51/2 99/52/2 118/45/2
f 99/52/2 98/53/2 118/45/2
f 98/53/2 97/54/2 118/45/2
f 97/54/2 96/55/2 118/45/2
f 96/55/2 95/56/2 118/45/2
f 95/56/2 94/57/2 118/45/2
f 94/57/2 93/58/2 118/45/2
f 93/58/2 92/59/2 118/45/2
f 92/59/2 91/60/2 118/45/2
f 91/60/2 90/61/2 118/45/2
f 90/61/2 89/62/2 118/45/2
f 89/62/2 88/63/2 118/45/2
f 88/63/2 87/64/2 118/45/2
f 87/64/2 86/65/2 118/45/2
f 86/65/2 85/66/2 118/45/2
f 85/66/2 84/67/2 118/45/2
f 84/67/2 83/68/2 118/45/2
f 83/68/2 82/69/2 118/45/2
f 82/69/2 81/70/2 118/45/2
f 81/70/2 80/46/2 118/45/2
f 122/22/2 154/37/2 153/23/2
f 123/19/2 152/41/2 151/36/2
f 106/42/2 104/38/2 107/71/2
f 107/71/2 104/38/2 108/72/2
f 108/72/2 104/38/2 109/73/2
f 109/73/5 104/38/5 110/74/5
f 110/74/2 104/38/2 111/75/2
f 111/75/2 104/38/2 112/76/2
f 112/76/2 104/38/2 113/77/2
f 113/77/2 104/38/2 114/78/2
f 114/78/2 104/38/2 115/39/2
f 129/26/2 128/11/2 141/12/2
f 49/13/6 48/17/6 126/17/6 127/13/6
f 62/25/7 61/27/7 139/27/7 140/25/7
f 30/72/8 29/71/8 107/71/8 108/72/8
f 12/61/9 11/62/9 89/62/9 90/61/9
f 25/48/10 24/49/10 102/49/10 103/48/10
f 70/6/11 69/5/11 147/5/11 148/6/11
f 48/17/12 47/8/12 125/8/12 126/17/12
f 61/27/13 60/28/13 138/28/13 139/27/13
f 31/73/14 30/72/14 108/72/14 109/73/14
f 11/62/15 10/63/15 88/63/15 89/62/15
f 24/49/16 23/50/16 101/50/16 102/49/16
f 71/7/17 70/6/17 148/6/17 149/7/17
f 47/8/18 46/9/18 124/9/18 125/8/18
f 60/28/19 59/29/19 137/29/19 138/28/19
f 32/74/20 31/73/20 109/73/20 110/74/20
f 10/63/21 9/64/21 87/64/21 88/63/21
f 23/50/22 22/51/22 100/51/22 101/50/22
f 72/18/23 71/7/23 149/7/23 150/18/23
f 46/9/24 45/19/24 123/19/24 124/9/24
f 59/29/25 58/30/25 136/30/25 137/29/25
f 33/75/26 32/74/26 110/74/26 111/75/26
f 9/64/27 8/65/27 86/65/27 87/64/27
f 22/51/28 21/52/28 99/52/28 100/51/28
f 73/36/29 72/18/29 150/18/29 151/36/29
f 45/19/30 44/22/30 122/22/30 123/19/30
f 58/30/31 57/31/31 135/31/31 136/30/31
f 34/76/32 33/75/32 111/75/32 112/76/32
f 8/65/33 7/66/33 85/66/33 86/65/33
f 21/52/34 20/53/34 98/53/34 99/52/34
f 74/41/35 73/36/35 151/36/35 152/41/35
f 44/22/36 43/21/36 121/21/36 122/22/36
f 57/31/37 56/32/37 134/32/37 135/31/37
f 35/77/38 34/76/38 112/76/38 113/77/38
f 7/66/39 6/67/39 84/67/39 85/66/39
f 20/53/40 19/54/40 97/54/40 98/53/40
f 75/23/41 74/41/41 152/41/41 153/23/41
f 43/21/42 42/16/42 120/16/42 121/21/42
f 56/32/43 55/33/43 133/33/43 134/32/43
f 36/78/44 35/77/44 113/77/44 114/78/44
f 65/1/45 64/10/45 142/10/45 143/1/45
f 6/67/46 5/68/46 83/68/46 84/67/46
f 19/54/47 18/55/47 96/55/47 97/54/47
f 38/40/10 37/39/10 115/39/10 116/40/10
f 55/33/48 54/34/48 132/34/48 133/33/48
f 37/39/49 36/78/49 114/78/49 115/39/49
f 5/68/50 4/69/50 82/69/50 83/68/50
f 18/55/51 17/56/51 95/56/51 96/55/51
f 2/46/52 1/44/52 79/44/52 80/46/52
f 76/37/53 75/23/53 153/23/53 154/37/53
f 42/16/54 41/15/54 119/15/54 120/16/54
f 54/34/55 53/35/55 131/35/55 132/34/55
f 64/10/56 63/12/56 141/12/56 142/10/56
f 4/69/57 3/70/57 81/70/57 82/69/57
f 17/56/58 16/57/58 94/57/58 95/56/58
f 41/15/59 40/45/59 118/45/59 119/15/59
f 53/35/60 52/24/60 130/24/60 131/35/60
f 3/70/61 2/46/61 80/46/61 81/70/61
f 16/57/62 15/58/62 93/58/62 94/57/62
f 77/20/63 76/37/63 154/37/63 155/20/63
f 66/2/64 65/1/64 143/1/64 144/2/64
f 40/45/65 39/47/65 117/47/65 118/45/65
f 52/24/66 51/26/66 129/26/66 130/24/66
f 27/43/67 26/38/67 104/38/67 105/43/67
f 15/58/68 14/59/68 92/59/68 93/58/68
f 39/47/69 38/40/69 116/40/69 117/47/69
f 78/14/70 77/20/70 155/20/70 156/14/70
f 67/3/71 66/2/71 144/2/71 145/3/71
f 51/26/72 50/11/72 128/11/72 129/26/72
f 28/42/73 27/43/73 105/43/73 106/42/73
f 14/59/74 13/60/74 91/60/74 92/59/74
f 1/44/75 78/14/75 156/14/75 79/44/75
f 68/4/76 67/3/76 145/3/76 146/4/76
f 50/11/77 49/13/77 127/13/77 128/11/77
f 63/12/78 62/25/78 140/25/78 141/12/78
f 29/71/79 28/42/79 106/42/79 107/71/79
f 13/60/80 12/61/80 90/61/80 91/60/80
f 26/38/81 25/48/81 103/48/81 104/38/81
f 69/5/82 68/4/82 146/4/82 147/5/82
