# Blender 4.5.8 LTS
# www.blender.org
mtllib text_bi.mtl
o text_bi.001
v 0.266304 0.326667 -0.025000
v 0.343406 0.326667 -0.025000
v 0.343406 0.486957 -0.025000
v 0.266304 0.486957 -0.025000
v 0.145580 0.326667 -0.025000
v 0.222681 0.326667 -0.025000
v 0.222681 0.486957 -0.025000
v 0.145580 0.486957 -0.025000
v -0.342391 0.158261 -0.025000
v -0.200362 0.158261 -0.025000
v -0.218338 0.139069 -0.025000
v -0.235198 0.118602 -0.025000
v -0.250881 0.096979 -0.025000
v -0.265327 0.074321 -0.025000
v -0.278478 0.050747 -0.025000
v -0.290272 0.026377 -0.025000
v -0.300650 0.001330 -0.025000
v -0.309552 -0.024273 -0.025000
v -0.316918 -0.050312 -0.025000
v -0.322689 -0.076669 -0.025000
v -0.326804 -0.103223 -0.025000
v -0.329203 -0.129855 -0.025000
v -0.329517 -0.165230 -0.025000
v -0.326728 -0.201842 -0.025000
v -0.320564 -0.238897 -0.025000
v -0.310754 -0.275604 -0.025000
v -0.297027 -0.311169 -0.025000
v -0.279112 -0.344801 -0.025000
v -0.256738 -0.375706 -0.025000
v -0.229632 -0.403092 -0.025000
v -0.197525 -0.426166 -0.025000
v -0.160144 -0.444137 -0.025000
v -0.117219 -0.456210 -0.025000
v -0.068478 -0.461594 -0.025000
v -0.013380 -0.458817 -0.025000
v 0.034986 -0.447659 -0.025000
v 0.076991 -0.429210 -0.025000
v 0.113003 -0.404557 -0.025000
v 0.143394 -0.374790 -0.025000
v 0.168533 -0.340996 -0.025000
v 0.188789 -0.304265 -0.025000
v 0.204533 -0.265684 -0.025000
v 0.216135 -0.226343 -0.025000
v 0.223963 -0.187329 -0.025000
v 0.228389 -0.149731 -0.025000
v 0.229783 -0.114638 -0.025000
v 0.229638 -0.104087 -0.025000
v 0.229214 -0.093723 -0.025000
v 0.228530 -0.083521 -0.025000
v 0.227603 -0.073457 -0.025000
v 0.226451 -0.063505 -0.025000
v 0.225091 -0.053641 -0.025000
v 0.223540 -0.043841 -0.025000
v 0.221817 -0.034079 -0.025000
v 0.219939 -0.024332 -0.025000
v 0.217923 -0.014574 -0.025000
v 0.215788 -0.004781 -0.025000
v 0.213551 0.005072 -0.025000
v 0.221084 -0.007646 -0.025000
v 0.229012 -0.019994 -0.025000
v 0.237391 -0.032067 -0.025000
v 0.246278 -0.043961 -0.025000
v 0.255727 -0.055771 -0.025000
v 0.265797 -0.067591 -0.025000
v 0.276543 -0.079516 -0.025000
v 0.288022 -0.091643 -0.025000
v 0.300290 -0.104065 -0.025000
v 0.313403 -0.116878 -0.025000
v 0.327418 -0.130177 -0.025000
v 0.342391 -0.144058 -0.025000
v 0.342391 0.062899 -0.025000
v 0.329636 0.074770 -0.025000
v 0.317701 0.086096 -0.025000
v 0.306519 0.096963 -0.025000
v 0.296025 0.107461 -0.025000
v 0.286151 0.117677 -0.025000
v 0.276830 0.127699 -0.025000
v 0.267995 0.137616 -0.025000
v 0.259579 0.147515 -0.025000
v 0.251515 0.157484 -0.025000
v 0.243737 0.167612 -0.025000
v 0.236177 0.177987 -0.025000
v 0.228768 0.188696 -0.025000
v 0.224371 0.195239 -0.025000
v 0.219375 0.203086 -0.025000
v 0.213899 0.212061 -0.025000
v 0.208065 0.221986 -0.025000
v 0.201991 0.232686 -0.025000
v 0.195797 0.243986 -0.025000
v 0.189603 0.255707 -0.025000
v 0.183529 0.267676 -0.025000
v 0.177695 0.279715 -0.025000
v 0.172220 0.291648 -0.025000
v 0.167223 0.303299 -0.025000
v 0.162826 0.314493 -0.025000
v 0.028913 0.314493 -0.025000
v 0.033074 0.302685 -0.025000
v 0.038278 0.284955 -0.025000
v 0.044257 0.261977 -0.025000
v 0.050743 0.234423 -0.025000
v 0.057469 0.202966 -0.025000
v 0.064167 0.168279 -0.025000
v 0.070568 0.131035 -0.025000
v 0.076406 0.091906 -0.025000
v 0.081413 0.051565 -0.025000
v 0.085321 0.010685 -0.025000
v 0.087862 -0.030061 -0.025000
v 0.088768 -0.070000 -0.025000
v 0.087519 -0.115065 -0.025000
v 0.083846 -0.154579 -0.025000
v 0.077862 -0.188822 -0.025000
v 0.069681 -0.218078 -0.025000
v 0.059414 -0.242628 -0.025000
v 0.047174 -0.262754 -0.025000
v 0.033074 -0.278737 -0.025000
v 0.017228 -0.290859 -0.025000
v -0.000254 -0.299402 -0.025000
v -0.019257 -0.304648 -0.025000
v -0.039669 -0.306879 -0.025000
v -0.061377 -0.306377 -0.025000
v -0.081695 -0.303814 -0.025000
v -0.100491 -0.299144 -0.025000
v -0.117681 -0.292332 -0.025000
v -0.133180 -0.283344 -0.025000
v -0.146904 -0.272144 -0.025000
v -0.158768 -0.258696 -0.025000
v -0.168688 -0.242965 -0.025000
v -0.176578 -0.224917 -0.025000
v -0.182355 -0.204515 -0.025000
v -0.185934 -0.181726 -0.025000
v -0.187230 -0.156513 -0.025000
v -0.186159 -0.128841 -0.025000
v -0.184462 -0.111653 -0.025000
v -0.181881 -0.094564 -0.025000
v -0.178376 -0.077545 -0.025000
v -0.173910 -0.060569 -0.025000
v -0.168444 -0.043607 -0.025000
v -0.161938 -0.026630 -0.025000
v -0.154355 -0.009612 -0.025000
v -0.145655 0.007477 -0.025000
v -0.135799 0.024665 -0.025000
v -0.124750 0.041979 -0.025000
v -0.112467 0.059449 -0.025000
v -0.098913 0.077101 -0.025000
v -0.092572 0.084859 -0.025000
v -0.086227 0.092413 -0.025000
v -0.079875 0.099769 -0.025000
v -0.073513 0.106935 -0.025000
v -0.067137 0.113918 -0.025000
v -0.060743 0.120725 -0.025000
v -0.054328 0.127362 -0.025000
v -0.047888 0.133838 -0.025000
v -0.041420 0.140158 -0.025000
v -0.034920 0.146331 -0.025000
v -0.028385 0.152363 -0.025000
v -0.021812 0.158261 -0.025000
v -0.021812 0.315507 -0.025000
v -0.342391 0.315507 -0.025000
v 0.266304 0.326667 0.025000
v 0.343406 0.326667 0.025000
v 0.343406 0.486957 0.025000
v 0.266304 0.486957 0.025000
v 0.145580 0.326667 0.025000
v 0.222681 0.326667 0.025000
v 0.222681 0.486957 0.025000
v 0.145580 0.486957 0.025000
v -0.342391 0.158261 0.025000
v -0.200362 0.158261 0.025000
v -0.218338 0.139069 0.025000
v -0.235198 0.118602 0.025000
v -0.250881 0.096979 0.025000
v -0.265327 0.074321 0.025000
v -0.278478 0.050747 0.025000
v -0.290272 0.026377 0.025000
v -0.300650 0.001330 0.025000
v -0.309552 -0.024273 0.025000
v -0.316918 -0.050313 0.025000
v -0.322689 -0.076669 0.025000
v -0.326804 -0.103223 0.025000
v -0.329203 -0.129855 0.025000
v -0.329517 -0.165230 0.025000
v -0.326728 -0.201842 0.025000
v -0.320564 -0.238897 0.025000
v -0.310754 -0.275604 0.025000
v -0.297027 -0.311169 0.025000
v -0.279112 -0.344801 0.025000
v -0.256738 -0.375706 0.025000
v -0.229632 -0.403092 0.025000
v -0.197525 -0.426166 0.025000
v -0.160144 -0.444137 0.025000
v -0.117219 -0.456210 0.025000
v -0.068478 -0.461594 0.025000
v -0.013380 -0.458817 0.025000
v 0.034986 -0.447659 0.025000
v 0.076991 -0.429210 0.025000
v 0.113003 -0.404557 0.025000
v 0.143394 -0.374790 0.025000
v 0.168533 -0.340996 0.025000
v 0.188789 -0.304265 0.025000
v 0.204533 -0.265684 0.025000
v 0.216135 -0.226343 0.025000
v 0.223963 -0.187329 0.025000
v 0.228389 -0.149731 0.025000
v 0.229783 -0.114638 0.025000
v 0.229638 -0.104087 0.025000
v 0.229214 -0.093723 0.025000
v 0.228530 -0.083521 0.025000
v 0.227603 -0.073457 0.025000
v 0.226451 -0.063505 0.025000
v 0.225091 -0.053641 0.025000
v 0.223540 -0.043841 0.025000
v 0.221817 -0.034079 0.025000
v 0.219939 -0.024332 0.025000
v 0.217923 -0.014574 0.025000
v 0.215788 -0.004781 0.025000
v 0.213551 0.005072 0.025000
v 0.221084 -0.007646 0.025000
v 0.229012 -0.019994 0.025000
v 0.237391 -0.032067 0.025000
v 0.246278 -0.043961 0.025000
v 0.255727 -0.055771 0.025000
v 0.265797 -0.067591 0.025000
v 0.276543 -0.079516 0.025000
v 0.288022 -0.091643 0.025000
v 0.300290 -0.104065 0.025000
v 0.313403 -0.116878 0.025000
v 0.327418 -0.130177 0.025000
v 0.342391 -0.144058 0.025000
v 0.342391 0.062899 0.025000
v 0.329636 0.074770 0.025000
v 0.317701 0.086096 0.025000
v 0.306519 0.096963 0.025000
v 0.296025 0.107461 0.025000
v 0.286151 0.117677 0.025000
v 0.276830 0.127699 0.025000
v 0.267995 0.137616 0.025000
v 0.259579 0.147515 0.025000
v 0.251515 0.157484 0.025000
v 0.243737 0.167612 0.025000
v 0.236177 0.177987 0.025000
v 0.228768 0.188696 0.025000
v 0.224371 0.195239 0.025000
v 0.219375 0.203086 0.025000
v 0.213899 0.212061 0.025000
v 0.208065 0.221986 0.025000
v 0.201991 0.232686 0.025000
v 0.195797 0.243986 0.025000
v 0.189603 0.255707 0.025000
v 0.183529 0.267676 0.025000
v 0.177695 0.279715 0.025000
v 0.172220 0.291648 0.025000
v 0.167223 0.303299 0.025000
v 0.162826 0.314493 0.025000
v 0.028913 0.314493 0.025000
v 0.033074 0.302685 0.025000
v 0.038278 0.284955 0.025000
v 0.044257 0.261977 0.025000
v 0.050743 0.234423 0.025000
v 0.057469 0.202966 0.025000
v 0.064167 0.168279 0.025000
v 0.070568 0.131035 0.025000
v 0.076406 0.091906 0.025000
v 0.081413 0.051565 0.025000
v 0.085321 0.010685 0.025000
v 0.087862 -0.030061 0.025000
v 0.088768 -0.070000 0.025000
v 0.087519 -0.115065 0.025000
v 0.083846 -0.154579 0.025000
v 0.077862 -0.188822 0.025000
v 0.069681 -0.218078 0.025000
v 0.059414 -0.242628 0.025000
v 0.047174 -0.262754 0.025000
v 0.033074 -0.278737 0.025000
v 0.017228 -0.290859 0.025000
v -0.000254 -0.299402 0.025000
v -0.019257 -0.304648 0.025000
v -0.039669 -0.306879 0.025000
v -0.061377 -0.306377 0.025000
v -0.081695 -0.303814 0.025000
v -0.100491 -0.299144 0.025000
v -0.117681 -0.292332 0.025000
v -0.133180 -0.283344 0.025000
v -0.146904 -0.272144 0.025000
v -0.158768 -0.258696 0.025000
v -0.168688 -0.242965 0.025000
v -0.176578 -0.224917 0.025000
v -0.182355 -0.204515 0.025000
v -0.185934 -0.181726 0.025000
v -0.187230 -0.156513 0.025000
v -0.186159 -0.128841 0.025000
v -0.184462 -0.111653 0.025000
v -0.181881 -0.094564 0.025000
v -0.178376 -0.077545 0.025000
v -0.173910 -0.060569 0.025000
v -0.168444 -0.043607 0.025000
v -0.161938 -0.026630 0.025000
v -0.154355 -0.009612 0.025000
v -0.145655 0.007477 0.025000
v -0.135799 0.024665 0.025000
v -0.124750 0.041979 0.025000
v -0.112467 0.059449 0.025000
v -0.098913 0.077101 0.025000
v -0.092572 0.084859 0.025000
v -0.086227 0.092413 0.025000
v -0.079875 0.099769 0.025000
v -0.073513 0.106935 0.025000
v -0.067137 0.113918 0.025000
v -0.060743 0.120725 0.025000
v -0.054328 0.127362 0.025000
v -0.047888 0.133838 0.025000
v -0.041420 0.140158 0.025000
v -0.034920 0.146331 0.025000
v -0.028385 0.152363 0.025000
v -0.021812 0.158261 0.025000
v -0.021812 0.315507 0.025000
v -0.342391 0.315507 0.025000
vn -0.0000 -0.0000 -1.0000
vn -0.0000 -0.0000 1.0000
vn -0.0000 1.0000 -0.0000
vn 0.9993 -0.0387 -0.0000
vn 0.6678 -0.7443 -0.0000
vn 0.2411 0.9705 -0.0000
vn 1.0000 -0.0000 -0.0000
vn 0.6813 0.7320 -0.0000
vn -1.0000 0.0089 -0.0000
vn 0.9518 -0.3067 -0.0000
vn -0.2661 0.9639 -0.0000
vn -0.9431 -0.3324 -0.0000
vn -0.8733 0.4872 -0.0000
vn 0.7775 0.6289 -0.0000
vn 0.9877 0.1563 -0.0000
vn 0.9931 -0.1169 -0.0000
vn 0.6783 -0.7348 -0.0000
vn -0.7808 -0.6248 -0.0000
vn 0.1252 0.9921 -0.0000
vn -0.9851 0.1721 -0.0000
vn 0.9308 0.3656 -0.0000
vn 0.7619 0.6477 -0.0000
vn -0.9769 0.2139 -0.0000
vn 0.8757 -0.4829 -0.0000
vn -0.1086 0.9941 -0.0000
vn 0.9191 0.3941 -0.0000
vn 0.9987 0.0513 -0.0000
vn 0.6886 -0.7251 -0.0000
vn -0.9595 -0.2816 -0.0000
vn 0.8180 -0.5752 -0.0000
vn -0.9971 -0.0760 -0.0000
vn 0.9906 0.1366 -0.0000
vn -0.9955 -0.0952 -0.0000
vn 0.6989 -0.7152 -0.0000
vn -0.7612 -0.6485 -0.0000
vn 0.0231 0.9997 -0.0000
vn -0.7719 0.6358 -0.0000
vn 0.9089 0.4170 -0.0000
vn -0.9001 0.4356 -0.0000
vn 0.9879 0.1551 -0.0000
vn -0.8826 -0.4701 -0.0000
vn -0.9678 -0.2518 -0.0000
vn 0.9671 -0.2544 -0.0000
vn 0.9805 -0.1967 -0.0000
vn 0.7466 0.6652 -0.0000
vn 0.8430 -0.5380 -0.0000
vn -0.9630 0.2693 -0.0000
vn 0.9934 0.1150 -0.0000
vn 0.8023 -0.5969 -0.0000
vn 0.8999 0.4361 -0.0000
vn -0.9238 0.3828 -0.0000
vn 0.7091 -0.7051 -0.0000
vn -0.7429 -0.6694 -0.0000
vn -0.8100 -0.5864 -0.0000
vn -0.9864 -0.1641 -0.0000
vn -0.9891 -0.1476 -0.0000
vn 0.8917 0.4526 -0.0000
vn -0.9996 0.0277 -0.0000
vn -0.9734 -0.2291 -0.0000
vn 0.8675 -0.4974 -0.0000
vn 0.6997 -0.7144 -0.0000
vn -0.9981 -0.0622 -0.0000
vn 0.9622 0.2725 -0.0000
vn 0.7323 0.6810 -0.0000
vn -0.7107 -0.7035 -0.0000
vn -0.9226 0.3858 -0.0000
vn 0.9958 0.0917 -0.0000
vn 0.8842 0.4672 -0.0000
vn 0.7191 -0.6950 -0.0000
vn -0.9882 0.1531 -0.0000
vn -0.5836 -0.8120 -0.0000
vn 0.8912 -0.4537 -0.0000
vn 0.8769 0.4807 -0.0000
vn 0.9163 0.4006 -0.0000
vn 0.7289 -0.6847 -0.0000
vn -0.9779 -0.2091 -0.0000
vn 0.9752 0.2214 -0.0000
vn -0.8095 0.5871 -0.0000
vn 0.9795 -0.2017 -0.0000
vn 0.5649 -0.8252 -0.0000
vn -0.8604 -0.5096 -0.0000
vn 0.9592 -0.2828 -0.0000
vn -0.7262 -0.6874 -0.0000
vn -0.4333 -0.9013 -0.0000
vn -0.9661 -0.2582 -0.0000
vn 0.8697 0.4937 -0.0000
vn -0.9445 0.3284 -0.0000
vn 0.7190 0.6950 -0.0000
vn -0.8544 0.5196 -0.0000
vn 0.9978 0.0669 -0.0000
vn 0.4021 -0.9156 -0.0000
vn 0.8621 0.5068 -0.0000
vn 0.7384 -0.6743 -0.0000
vn -0.7115 -0.7027 -0.0000
vn -0.2708 -0.9626 -0.0000
vn 0.9770 0.2130 -0.0000
vn 0.8537 0.5208 -0.0000
vn -0.8415 -0.5403 -0.0000
vn 0.8459 0.5334 -0.0000
vn 0.7072 0.7070 -0.0000
vn 0.9992 0.0408 -0.0000
vn 0.2248 -0.9744 -0.0000
vn 0.8435 0.5371 -0.0000
vn 0.7499 0.6616 -0.0000
vn 0.7478 -0.6639 -0.0000
vn -0.1098 -0.9940 -0.0000
vn -0.9819 -0.1896 -0.0000
vn 0.9134 -0.4070 -0.0000
vn -0.7499 0.6615 -0.0000
vn 0.9888 -0.1494 -0.0000
vn 0.0503 -0.9987 -0.0000
vn 0.7569 -0.6535 -0.0000
vn -0.9960 0.0897 -0.0000
vn -1.0000 -0.0000 -0.0000
vn 0.9793 0.2023 -0.0000
vn -0.8432 0.5376 -0.0000
vn 0.8300 0.5578 -0.0000
vn -0.8215 -0.5701 -0.0000
vn 0.9259 -0.3778 -0.0000
vn -0.6989 -0.7152 -0.0000
vn -0.0000 -1.0000 -0.0000
vn 0.8224 0.5689 -0.0000
vn -0.9622 0.2722 -0.0000
vn 0.6323 0.7747 -0.0000
vn 0.6970 0.7171 -0.0000
vn -0.9329 -0.3601 -0.0000
vn 0.9999 0.0137 -0.0000
vn 0.8082 0.5889 -0.0000
vn 0.7657 -0.6432 -0.0000
vn -0.9855 -0.1694 -0.0000
vn 0.9819 0.1892 -0.0000
vn -0.6076 0.7943 -0.0000
vn -0.9924 -0.1232 -0.0000
vn 0.9952 -0.0983 -0.0000
vn 0.9338 -0.3578 -0.0000
vn 0.9992 -0.0397 -0.0000
vn 0.7931 0.6091 -0.0000
vn -0.9997 -0.0227 -0.0000
vn 0.5017 0.8651 -0.0000
vn 0.6883 0.7254 -0.0000
vn -0.9957 0.0926 -0.0000
vn -0.4391 0.8984 -0.0000
vn -0.8011 -0.5985 -0.0000
vn 0.7743 -0.6329 -0.0000
vn -0.6883 -0.7254 -0.0000
vn -0.7298 0.6836 -0.0000
vn -0.6798 -0.7334 -0.0000
vn 0.3684 0.9297 -0.0000
vn 0.7932 -0.6090 -0.0000
vn 0.9848 0.1738 -0.0000
vn -0.1087 0.9941 -0.0000
vt 1.000000 0.000000
vt 0.987261 0.000000
vt 0.050955 0.000000
vt 0.070064 0.000000
vt 0.949045 0.000000
vt 0.955414 0.000000
vt 0.140127 0.000000
vt 0.821656 0.000000
vt 0.146497 0.000000
vt 0.656051 0.000000
vt 0.477707 0.000000
vt 0.484076 0.000000
vt 0.095541 0.000000
vt 0.885350 0.000000
vt 0.101911 0.000000
vt 0.624204 0.000000
vt 0.573248 0.000000
vt 0.579618 0.000000
vt 0.872611 0.000000
vt 0.108280 0.000000
vt 0.636943 0.000000
vt 0.547771 0.000000
vt 0.554140 0.000000
vt 0.630573 0.000000
vt 0.566879 0.000000
vt 0.643312 0.000000
vt 0.522293 0.000000
vt 0.528662 0.000000
vt 0.649682 0.000000
vt 0.515924 0.000000
vt 0.509554 0.000000
vt 0.617834 0.000000
vt 0.592357 0.000000
vt 0.611465 0.000000
vt 0.560510 0.000000
vt 0.707006 0.000000
vt 0.261146 0.000000
vt 0.713376 0.000000
vt 0.535032 0.000000
vt 0.541401 0.000000
vt 0.585987 0.000000
vt 0.503185 0.000000
vt 0.057325 0.000000
vt 0.063694 0.000000
vt 0.980892 0.000000
vt 0.496815 0.000000
vt 0.974522 0.000000
vt 0.490446 0.000000
vt 0.968153 0.000000
vt 0.961783 0.000000
vt 0.598726 0.000000
vt 0.942675 0.000000
vt 0.076433 0.000000
vt 0.471338 0.000000
vt 0.936306 0.000000
vt 0.464968 0.000000
vt 0.929936 0.000000
vt 0.923567 0.000000
vt 0.082803 0.000000
vt 0.458599 0.000000
vt 0.917197 0.000000
vt 0.662420 0.000000
vt 0.452229 0.000000
vt 0.910828 0.000000
vt 0.904459 0.000000
vt 0.445860 0.000000
vt 0.165605 0.000000
vt 0.242038 0.000000
vt 0.171975 0.000000
vt 0.363057 0.000000
vt 0.439490 0.000000
vt 0.668790 0.000000
vt 0.898089 0.000000
vt 0.089172 0.000000
vt 0.891720 0.000000
vt 0.159236 0.000000
vt 0.808917 0.000000
vt 0.802548 0.000000
vt 0.878981 0.000000
vt 0.369427 0.000000
vt 0.866242 0.000000
vt 0.114650 0.000000
vt 0.675159 0.000000
vt 0.356688 0.000000
vt 0.350318 0.000000
vt 0.375796 0.000000
vt 0.343949 0.000000
vt 0.382166 0.000000
vt 0.337580 0.000000
vt 0.681529 0.000000
vt 0.305732 0.000000
vt 0.687898 0.000000
vt 0.388535 0.000000
vt 0.859873 0.000000
vt 0.331210 0.000000
vt 0.324841 0.000000
vt 0.394904 0.000000
vt 0.121019 0.000000
vt 0.847134 0.000000
vt 0.127389 0.000000
vt 0.318471 0.000000
vt 0.401274 0.000000
vt 0.312102 0.000000
vt 0.407643 0.000000
vt 0.414013 0.000000
vt 0.299363 0.000000
vt 0.420382 0.000000
vt 0.292994 0.000000
vt 0.840764 0.000000
vt 0.280255 0.000000
vt 0.694268 0.000000
vt 0.426752 0.000000
vt 0.286624 0.000000
vt 0.433121 0.000000
vt 0.700637 0.000000
vt 0.273885 0.000000
vt 0.267516 0.000000
vt 0.834395 0.000000
vt 0.133758 0.000000
vt 0.815287 0.000000
vt 0.152866 0.000000
vt 0.828025 0.000000
vt 0.605096 0.000000
vt 0.853503 0.000000
vt 0.719745 0.000000
vt 0.796178 0.000000
vt 0.789809 0.000000
vt 0.726115 0.000000
vt 0.254777 0.000000
vt 0.783440 0.000000
vt 0.732484 0.000000
vt 0.777070 0.000000
vt 0.738854 0.000000
vt 0.770701 0.000000
vt 0.764331 0.000000
vt 0.745223 0.000000
vt 0.757962 0.000000
vt 0.248408 0.000000
vt 0.751592 0.000000
vt 0.178344 0.000000
vt 0.235669 0.000000
vt 0.184713 0.000000
vt 0.191083 0.000000
vt 0.229299 0.000000
vt 0.197452 0.000000
vt 0.222930 0.000000
vt 0.203822 0.000000
vt 0.216561 0.000000
vt 0.210191 0.000000
vt 0.044586 0.000000
vt 0.031847 0.000000
vt 0.025478 0.000000
vt 0.019108 0.000000
vt 0.006369 0.000000
vt 0.000000 0.000000
vt 0.993631 0.000000
vt 0.012739 0.000000
vt 0.038217 0.000000
s 0
f 158/1/1 156/2/1 9/3/1
f 170/4/2 308/5/2 309/6/2
f 23/7/1 130/8/1 24/9/1
f 262/10/2 234/11/2 235/12/2
f 16/13/1 140/14/1 17/15/1
f 257/16/2 249/17/2 250/18/2
f 17/15/1 138/19/1 18/20/1
f 259/21/2 245/22/2 246/23/2
f 100/24/1 91/17/1 90/25/1
f 260/26/2 241/27/2 242/28/2
f 99/16/1 92/18/1 91/17/1
f 103/29/1 82/30/1 81/31/1
f 256/32/2 252/33/2 255/34/2
f 100/24/1 90/25/1 89/35/1
f 112/36/1 42/37/1 113/38/1
f 260/26/2 243/39/2 259/21/2
f 101/21/1 88/23/1 87/22/1
f 101/21/1 87/22/1 86/40/1
f 101/21/1 86/40/1 85/39/1
f 98/32/1 94/33/1 93/41/1
f 259/21/2 244/40/2 245/22/2
f 102/26/1 84/28/1 83/27/1
f 102/26/1 83/27/1 82/30/1
f 102/26/1 85/39/1 84/28/1
f 259/21/2 243/39/2 244/40/2
f 103/29/1 81/31/1 80/42/1
f 10/43/3 9/3/3 156/2/3
f 11/44/1 10/43/1 156/2/1
f 11/44/1 156/2/1 155/45/1
f 103/29/1 80/42/1 79/46/1
f 11/44/1 155/45/1 154/47/1
f 103/29/1 79/46/1 78/48/1
f 11/44/1 154/47/1 153/49/1
f 11/44/1 153/49/1 152/50/1
f 12/4/1 11/44/1 152/50/1
f 97/34/1 95/51/1 94/33/1
f 12/4/1 152/50/1 151/6/1
f 261/29/2 240/30/2 260/26/2
f 104/10/1 77/12/1 76/11/1
f 12/4/1 151/6/1 150/5/1
f 12/4/1 150/5/1 149/52/1
f 13/53/1 12/4/1 149/52/1
f 104/10/1 76/11/1 75/54/1
f 13/53/1 149/52/1 148/55/1
f 104/10/1 75/54/1 74/56/1
f 13/53/1 148/55/1 147/57/1
f 13/53/1 147/57/1 146/58/1
f 14/59/1 13/53/1 146/58/1
f 104/10/1 74/56/1 73/60/1
f 14/59/1 146/58/1 145/61/1
f 105/62/1 104/10/1 73/60/1
f 105/62/1 73/60/1 72/63/1
f 14/59/1 145/61/1 144/64/1
f 14/59/1 144/64/1 143/65/1
f 105/62/1 72/63/1 71/66/1
f 27/67/1 39/68/1 28/69/1
f 105/62/1 71/66/1 58/70/1
f 58/70/1 71/66/1 70/71/1
f 298/14/2 174/13/2 175/15/2
f 106/72/1 105/62/1 58/70/1
f 14/59/1 142/73/1 15/74/1
f 296/19/2 175/15/2 176/20/2
f 15/74/1 141/75/1 16/13/1
f 258/24/2 249/17/2 257/16/2
f 26/76/1 128/77/1 127/78/1
f 17/15/1 140/14/1 139/79/1
f 169/44/2 313/45/2 314/2/2
f 59/80/1 58/70/1 70/71/1
f 18/20/1 137/81/1 19/82/1
f 107/83/1 57/84/1 56/85/1
f 60/86/1 59/80/1 70/71/1
f 200/37/2 270/36/2 271/38/2
f 107/83/1 56/85/1 55/87/1
f 61/88/1 60/86/1 70/71/1
f 104/10/1 78/48/1 77/12/1
f 107/83/1 55/87/1 54/89/1
f 258/24/2 247/35/2 248/25/2
f 108/90/1 49/91/1 109/92/1
f 62/93/1 61/88/1 70/71/1
f 169/44/2 312/47/2 313/45/2
f 19/82/1 137/81/1 136/94/1
f 108/90/1 53/95/1 52/96/1
f 63/97/1 62/93/1 70/71/1
f 20/98/1 134/99/1 21/100/1
f 108/90/1 52/96/1 51/101/1
f 64/102/1 63/97/1 70/71/1
f 168/43/3 314/2/3 167/3/3
f 108/90/1 51/101/1 50/103/1
f 65/104/1 64/102/1 70/71/1
f 107/83/1 58/70/1 57/84/1
f 261/29/2 237/46/2 238/42/2
f 101/21/1 89/35/1 88/23/1
f 261/29/2 238/42/2 239/31/2
f 66/105/1 65/104/1 70/71/1
f 109/92/1 49/91/1 48/106/1
f 67/107/1 66/105/1 70/71/1
f 109/92/1 48/106/1 47/108/1
f 21/100/1 134/99/1 133/109/1
f 109/92/1 45/110/1 110/111/1
f 68/112/1 67/107/1 70/71/1
f 109/92/1 47/108/1 46/113/1
f 169/44/2 311/49/2 312/47/2
f 108/90/1 54/89/1 53/95/1
f 261/29/2 236/48/2 237/46/2
f 69/114/1 68/112/1 70/71/1
f 111/115/1 44/116/1 43/117/1
f 170/4/2 310/50/2 169/44/2
f 110/111/1 45/110/1 44/116/1
f 21/100/1 132/118/1 22/119/1
f 24/9/1 129/120/1 25/121/1
f 170/4/2 309/6/2 310/50/2
f 22/119/1 131/122/1 23/7/1
f 169/44/2 310/50/2 311/49/2
f 112/36/1 111/115/1 43/117/1
f 255/34/2 253/51/2 254/123/2
f 25/121/1 129/120/1 128/77/1
f 99/16/1 93/41/1 92/18/1
f 19/82/1 135/124/1 20/98/1
f 260/26/2 240/30/2 241/27/2
f 169/44/2 314/2/2 168/43/2
f 114/125/1 113/38/1 42/37/1
f 26/76/1 127/78/1 126/126/1
f 26/76/1 126/126/1 125/127/1
f 115/128/1 114/125/1 42/37/1
f 115/128/1 42/37/1 41/129/1
f 26/76/1 125/127/1 124/130/1
f 27/67/1 26/76/1 124/130/1
f 116/131/1 115/128/1 41/129/1
f 27/67/1 124/130/1 123/132/1
f 117/133/1 116/131/1 41/129/1
f 27/67/1 123/132/1 122/134/1
f 27/67/1 122/134/1 121/135/1
f 118/136/1 117/133/1 41/129/1
f 27/67/1 121/135/1 120/137/1
f 118/136/1 41/129/1 40/138/1
f 119/139/1 118/136/1 40/138/1
f 27/67/1 120/137/1 119/139/1
f 27/67/1 119/139/1 40/138/1
f 314/2/2 316/1/2 167/3/2
f 288/8/2 181/7/2 182/9/2
f 29/140/1 28/69/1 39/68/1
f 29/140/1 39/68/1 38/141/1
f 30/142/1 29/140/1 38/141/1
f 31/143/1 30/142/1 38/141/1
f 31/143/1 38/141/1 37/144/1
f 32/145/1 31/143/1 37/144/1
f 32/145/1 37/144/1 36/146/1
f 33/147/1 32/145/1 36/146/1
f 33/147/1 36/146/1 35/148/1
f 34/149/1 33/147/1 35/148/1
f 8/150/1 6/151/1 5/152/1
f 170/4/2 307/52/2 308/5/2
f 4/153/1 2/154/1 1/155/1
f 171/53/2 307/52/2 170/4/2
f 262/10/2 233/54/2 234/11/2
f 171/53/2 306/55/2 307/52/2
f 262/10/2 232/56/2 233/54/2
f 171/53/2 305/57/2 306/55/2
f 171/53/2 304/58/2 305/57/2
f 172/59/2 304/58/2 171/53/2
f 262/10/2 231/60/2 232/56/2
f 172/59/2 303/61/2 304/58/2
f 263/62/2 231/60/2 262/10/2
f 263/62/2 230/63/2 231/60/2
f 172/59/2 302/64/2 303/61/2
f 172/59/2 301/65/2 302/64/2
f 263/62/2 229/66/2 230/63/2
f 197/68/2 185/67/2 186/69/2
f 263/62/2 216/70/2 229/66/2
f 216/70/2 228/71/2 229/66/2
f 264/72/2 216/70/2 263/62/2
f 300/73/2 172/59/2 173/74/2
f 299/75/2 173/74/2 174/13/2
f 184/76/2 286/77/2 183/121/2
f 175/15/2 297/79/2 298/14/2
f 217/80/2 228/71/2 216/70/2
f 295/81/2 176/20/2 177/82/2
f 265/83/2 214/85/2 215/84/2
f 218/86/2 228/71/2 217/80/2
f 265/83/2 213/87/2 214/85/2
f 219/88/2 228/71/2 218/86/2
f 262/10/2 236/48/2 261/29/2
f 265/83/2 212/89/2 213/87/2
f 207/91/2 266/90/2 267/92/2
f 220/93/2 228/71/2 219/88/2
f 177/82/2 294/94/2 295/81/2
f 266/90/2 210/96/2 211/95/2
f 221/97/2 228/71/2 220/93/2
f 292/99/2 178/98/2 179/100/2
f 266/90/2 209/101/2 210/96/2
f 222/102/2 228/71/2 221/97/2
f 266/90/2 208/103/2 209/101/2
f 223/104/2 228/71/2 222/102/2
f 265/83/2 216/70/2 264/72/2
f 259/21/2 247/35/2 258/24/2
f 224/105/2 228/71/2 223/104/2
f 267/92/2 206/106/2 207/91/2
f 225/107/2 228/71/2 224/105/2
f 267/92/2 205/108/2 206/106/2
f 179/100/2 291/109/2 292/99/2
f 203/110/2 267/92/2 268/111/2
f 226/112/2 228/71/2 225/107/2
f 267/92/2 204/113/2 205/108/2
f 266/90/2 212/89/2 265/83/2
f 227/114/2 228/71/2 226/112/2
f 269/115/2 202/116/2 268/111/2
f 268/111/2 202/116/2 203/110/2
f 290/118/2 179/100/2 180/119/2
f 287/120/2 182/9/2 183/121/2
f 289/122/2 180/119/2 181/7/2
f 270/36/2 201/117/2 269/115/2
f 183/121/2 286/77/2 287/120/2
f 257/16/2 251/41/2 256/32/2
f 293/124/2 177/82/2 178/98/2
f 272/125/2 200/37/2 271/38/2
f 184/76/2 284/126/2 285/78/2
f 184/76/2 283/127/2 284/126/2
f 273/128/2 200/37/2 272/125/2
f 273/128/2 199/129/2 200/37/2
f 184/76/2 282/130/2 283/127/2
f 185/67/2 282/130/2 184/76/2
f 274/131/2 199/129/2 273/128/2
f 185/67/2 281/132/2 282/130/2
f 275/133/2 199/129/2 274/131/2
f 185/67/2 280/134/2 281/132/2
f 185/67/2 279/135/2 280/134/2
f 276/136/2 199/129/2 275/133/2
f 185/67/2 278/137/2 279/135/2
f 276/136/2 198/138/2 199/129/2
f 277/139/2 198/138/2 276/136/2
f 185/67/2 277/139/2 278/137/2
f 185/67/2 198/138/2 277/139/2
f 187/140/2 197/68/2 186/69/2
f 187/140/2 196/141/2 197/68/2
f 188/142/2 196/141/2 187/140/2
f 189/143/2 196/141/2 188/142/2
f 189/143/2 195/144/2 196/141/2
f 190/145/2 195/144/2 189/143/2
f 190/145/2 194/146/2 195/144/2
f 191/147/2 194/146/2 190/145/2
f 191/147/2 193/148/2 194/146/2
f 192/149/2 193/148/2 191/147/2
f 164/151/2 166/150/2 163/152/2
f 160/154/2 162/153/2 159/155/2
f 131/122/4 290/118/4 289/122/4
f 156/2/5 313/45/5 155/45/5
f 122/134/6 279/135/6 121/135/6
f 157/156/7 314/2/7 156/2/7
f 72/63/8 229/66/8 71/66/8
f 23/7/9 180/119/9 22/119/9
f 137/81/10 294/94/10 136/94/10
f 118/136/11 275/133/11 117/133/11
f 97/34/12 254/123/12 96/123/12
f 15/74/13 172/59/13 14/59/13
f 80/42/14 237/46/14 79/46/14
f 53/95/15 210/96/15 52/96/15
f 96/123/3 253/51/3 95/51/3
f 45/110/16 202/116/16 44/116/16
f 155/45/17 312/47/17 154/47/17
f 63/97/18 220/93/18 62/93/18
f 121/135/19 278/137/19 120/137/19
f 111/115/20 268/111/20 110/111/20
f 95/51/21 252/33/21 94/33/21
f 79/46/22 236/48/22 78/48/22
f 20/98/23 177/82/23 19/82/23
f 40/138/24 199/129/24 198/138/24
f 71/66/7 228/71/7 70/71/7
f 119/139/25 276/136/25 118/136/25
f 94/33/26 251/41/26 93/41/26
f 131/122/27 288/8/27 130/8/27
f 154/47/28 311/49/28 153/49/28
f 97/34/29 256/32/29 255/34/29
f 142/73/30 301/65/30 300/73/30
f 24/9/31 181/7/31 23/7/31
f 52/96/32 209/101/32 51/101/32
f 106/72/33 263/62/33 105/62/33
f 153/49/34 310/50/34 152/50/34
f 64/102/35 221/97/35 63/97/35
f 120/137/36 277/139/36 119/139/36
f 11/44/37 170/4/37 169/44/37
f 93/41/38 250/18/38 92/18/38
f 16/13/39 173/74/39 15/74/39
f 130/8/40 287/120/40 129/120/40
f 28/69/41 185/67/41 27/67/41
f 98/32/42 257/16/42 256/32/42
f 136/94/43 293/124/43 135/124/43
f 44/116/44 201/117/44 43/117/44
f 78/48/45 235/12/45 77/12/45
f 142/73/46 299/75/46 141/75/46
f 112/36/47 269/115/47 111/115/47
f 51/101/48 208/103/48 50/103/48
f 40/138/49 197/68/49 39/68/49
f 91/17/50 250/18/50 249/17/50
f 17/15/51 174/13/51 16/13/51
f 152/50/52 309/6/52 151/6/52
f 65/104/53 222/102/53 64/102/53
f 28/69/54 187/140/54 186/69/54
f 24/9/55 183/121/55 182/9/55
f 104/10/56 261/29/56 103/29/56
f 91/17/57 248/25/57 90/25/57
f 109/92/58 266/90/58 108/90/58
f 100/24/59 257/16/59 99/16/59
f 140/14/60 299/75/60 298/14/60
f 39/68/61 196/141/61 38/141/61
f 107/83/62 264/72/62 106/72/62
f 129/120/63 286/77/63 128/77/63
f 77/12/64 234/11/64 76/11/64
f 29/140/65 188/142/65 187/140/65
f 113/38/66 270/36/66 112/36/66
f 50/103/67 207/91/67 49/91/67
f 90/25/68 247/35/68 89/35/68
f 151/6/69 308/5/69 150/5/69
f 21/100/70 178/98/70 20/98/70
f 30/142/71 189/143/71 188/142/71
f 140/14/72 297/79/72 139/79/72
f 88/23/73 247/35/73 246/23/73
f 127/78/74 286/77/74 285/78/74
f 150/5/75 307/52/75 149/52/75
f 100/24/76 259/21/76 258/24/76
f 58/70/77 215/84/77 57/84/77
f 12/4/78 171/53/78 170/4/78
f 135/124/79 292/99/79 134/99/79
f 37/144/80 196/141/80 195/144/80
f 59/80/81 216/70/81 58/70/81
f 43/117/82 200/37/82 42/37/82
f 66/105/83 223/104/83 65/104/83
f 32/145/84 189/143/84 31/143/84
f 26/76/85 183/121/85 25/121/85
f 88/23/86 245/22/86 87/22/86
f 18/20/87 175/15/87 17/15/87
f 76/11/88 233/54/88 75/54/88
f 114/125/89 271/38/89 113/38/89
f 49/91/90 206/106/90 48/106/90
f 36/146/91 195/144/91 194/146/91
f 87/22/92 244/40/92 86/40/92
f 149/52/93 306/55/93 148/55/93
f 67/107/94 224/105/94 66/105/94
f 33/147/95 190/145/95 32/145/95
f 56/85/96 215/84/96 214/85/96
f 86/40/97 243/39/97 85/39/97
f 60/86/98 217/80/98 59/80/98
f 127/78/99 284/126/99 126/126/99
f 75/54/100 232/56/100 74/56/100
f 48/106/101 205/108/101 47/108/101
f 36/146/102 193/148/102 35/148/102
f 85/39/103 242/28/103 84/28/103
f 126/126/104 283/127/104 125/127/104
f 148/55/105 305/57/105 147/57/105
f 34/149/106 191/147/106 33/147/106
f 101/21/107 260/26/107 259/21/107
f 139/79/108 296/19/108 138/19/108
f 115/128/109 272/125/109 114/125/109
f 134/99/110 291/109/110 133/109/110
f 35/148/111 192/149/111 34/149/111
f 147/57/112 304/58/112 146/58/112
f 21/100/113 180/119/113 179/100/113
f 1/155/114 162/153/114 4/153/114
f 56/85/115 213/87/115 55/87/115
f 14/59/116 171/53/116 13/53/116
f 84/28/117 241/27/117 83/27/117
f 61/88/118 218/86/118 60/86/118
f 42/37/119 199/129/119 41/129/119
f 68/112/120 225/107/120 67/107/120
f 4/153/3 161/157/3 3/157/3
f 2/154/121 159/155/121 1/155/121
f 83/27/122 240/30/122 82/30/122
f 18/20/123 177/82/123 176/20/123
f 125/127/124 282/130/124 124/130/124
f 74/56/125 231/60/125 73/60/125
f 3/157/7 160/154/7 2/154/7
f 26/76/126 185/67/126 184/76/126
f 47/108/127 204/113/127 46/113/127
f 82/30/128 239/31/128 81/31/128
f 146/58/129 303/61/129 145/61/129
f 102/26/130 261/29/130 260/26/130
f 55/87/131 212/89/131 54/89/131
f 116/131/132 273/128/132 115/128/132
f 5/152/114 166/150/114 8/150/114
f 105/62/133 262/10/133 104/10/133
f 133/109/134 290/118/134 132/118/134
f 138/19/135 295/81/135 137/81/135
f 8/150/3 165/158/3 7/158/3
f 46/113/136 203/110/136 45/110/136
f 81/31/137 238/42/137 80/42/137
f 108/90/138 265/83/138 107/83/138
f 124/130/139 281/132/139 123/132/139
f 6/151/121 163/152/121 5/152/121
f 73/60/140 230/63/140 72/63/140
f 110/111/141 267/92/141 109/92/141
f 10/43/121 167/3/121 9/3/121
f 117/133/142 274/131/142 116/131/142
f 7/158/7 164/151/7 6/151/7
f 62/93/143 219/88/143 61/88/143
f 158/1/114 167/3/114 316/1/114
f 145/61/144 302/64/144 144/64/144
f 69/114/145 226/112/145 68/112/145
f 11/44/146 168/43/146 10/43/146
f 70/71/147 227/114/147 69/114/147
f 123/132/148 280/134/148 122/134/148
f 158/1/3 315/156/3 157/156/3
f 144/64/149 301/65/149 143/65/149
f 54/89/150 211/95/150 53/95/150
f 158/1/1 157/156/1 156/2/1
f 23/7/1 131/122/1 130/8/1
f 16/13/1 141/75/1 140/14/1
f 17/15/1 139/79/1 138/19/1
f 100/24/1 99/16/1 91/17/1
f 103/29/1 102/26/1 82/30/1
f 256/32/2 251/41/2 252/33/2
f 112/36/1 43/117/1 42/37/1
f 260/26/2 242/28/2 243/39/2
f 98/32/1 97/34/1 94/33/1
f 102/26/1 101/21/1 85/39/1
f 97/34/1 96/123/1 95/51/1
f 261/29/2 239/31/2 240/30/2
f 27/67/1 40/138/1 39/68/1
f 298/14/2 299/75/2 174/13/2
f 14/59/1 143/65/1 142/73/1
f 296/19/2 297/79/2 175/15/2
f 15/74/1 142/73/1 141/75/1
f 258/24/2 248/25/2 249/17/2
f 26/76/1 25/121/1 128/77/1
f 18/20/1 138/19/1 137/81/1
f 200/37/2 201/117/2 270/36/2
f 104/10/1 103/29/1 78/48/1
f 108/90/1 50/103/1 49/91/1
f 20/98/1 135/124/1 134/99/1
f 107/83/1 106/72/1 58/70/1
f 101/21/1 100/24/1 89/35/1
f 109/92/1 46/113/1 45/110/1
f 108/90/1 107/83/1 54/89/1
f 111/115/1 110/111/1 44/116/1
f 21/100/1 133/109/1 132/118/1
f 24/9/1 130/8/1 129/120/1
f 22/119/1 132/118/1 131/122/1
f 255/34/2 252/33/2 253/51/2
f 99/16/1 98/32/1 93/41/1
f 19/82/1 136/94/1 135/124/1
f 314/2/2 315/156/2 316/1/2
f 288/8/2 289/122/2 181/7/2
f 8/150/1 7/158/1 6/151/1
f 4/153/1 3/157/1 2/154/1
f 197/68/2 198/138/2 185/67/2
f 300/73/2 301/65/2 172/59/2
f 299/75/2 300/73/2 173/74/2
f 184/76/2 285/78/2 286/77/2
f 295/81/2 296/19/2 176/20/2
f 262/10/2 235/12/2 236/48/2
f 207/91/2 208/103/2 266/90/2
f 292/99/2 293/124/2 178/98/2
f 265/83/2 215/84/2 216/70/2
f 259/21/2 246/23/2 247/35/2
f 203/110/2 204/113/2 267/92/2
f 266/90/2 211/95/2 212/89/2
f 269/115/2 201/117/2 202/116/2
f 290/118/2 291/109/2 179/100/2
f 287/120/2 288/8/2 182/9/2
f 289/122/2 290/118/2 180/119/2
f 257/16/2 250/18/2 251/41/2
f 293/124/2 294/94/2 177/82/2
f 164/151/2 165/158/2 166/150/2
f 160/154/2 161/157/2 162/153/2
f 131/122/4 132/118/4 290/118/4
f 156/2/5 314/2/5 313/45/5
f 122/134/6 280/134/6 279/135/6
f 157/156/7 315/156/7 314/2/7
f 72/63/8 230/63/8 229/66/8
f 23/7/9 181/7/9 180/119/9
f 137/81/10 295/81/10 294/94/10
f 118/136/11 276/136/11 275/133/11
f 97/34/12 255/34/12 254/123/12
f 15/74/13 173/74/13 172/59/13
f 80/42/14 238/42/14 237/46/14
f 53/95/15 211/95/15 210/96/15
f 96/123/3 254/123/3 253/51/3
f 45/110/16 203/110/16 202/116/16
f 155/45/17 313/45/17 312/47/17
f 63/97/18 221/97/18 220/93/18
f 121/135/19 279/135/19 278/137/19
f 111/115/20 269/115/20 268/111/20
f 95/51/21 253/51/21 252/33/21
f 79/46/22 237/46/22 236/48/22
f 20/98/23 178/98/23 177/82/23
f 40/138/24 41/129/24 199/129/24
f 71/66/7 229/66/7 228/71/7
f 119/139/151 277/139/151 276/136/151
f 94/33/26 252/33/26 251/41/26
f 131/122/27 289/122/27 288/8/27
f 154/47/28 312/47/28 311/49/28
f 97/34/29 98/32/29 256/32/29
f 142/73/30 143/65/30 301/65/30
f 24/9/31 182/9/31 181/7/31
f 52/96/32 210/96/32 209/101/32
f 106/72/33 264/72/33 263/62/33
f 153/49/34 311/49/34 310/50/34
f 64/102/35 222/102/35 221/97/35
f 120/137/36 278/137/36 277/139/36
f 11/44/37 12/4/37 170/4/37
f 93/41/38 251/41/38 250/18/38
f 16/13/39 174/13/39 173/74/39
f 130/8/40 288/8/40 287/120/40
f 28/69/41 186/69/41 185/67/41
f 98/32/42 99/16/42 257/16/42
f 136/94/43 294/94/43 293/124/43
f 44/116/44 202/116/44 201/117/44
f 78/48/45 236/48/45 235/12/45
f 142/73/46 300/73/46 299/75/46
f 112/36/47 270/36/47 269/115/47
f 51/101/48 209/101/48 208/103/48
f 40/138/49 198/138/49 197/68/49
f 91/17/50 92/18/50 250/18/50
f 17/15/51 175/15/51 174/13/51
f 152/50/52 310/50/52 309/6/52
f 65/104/53 223/104/53 222/102/53
f 28/69/54 29/140/54 187/140/54
f 24/9/55 25/121/55 183/121/55
f 104/10/56 262/10/56 261/29/56
f 91/17/57 249/17/57 248/25/57
f 109/92/58 267/92/58 266/90/58
f 100/24/59 258/24/59 257/16/59
f 140/14/60 141/75/60 299/75/60
f 39/68/61 197/68/61 196/141/61
f 107/83/62 265/83/62 264/72/62
f 129/120/63 287/120/63 286/77/63
f 77/12/64 235/12/64 234/11/64
f 29/140/65 30/142/65 188/142/65
f 113/38/66 271/38/66 270/36/66
f 50/103/67 208/103/67 207/91/67
f 90/25/68 248/25/68 247/35/68
f 151/6/69 309/6/69 308/5/69
f 21/100/70 179/100/70 178/98/70
f 30/142/71 31/143/71 189/143/71
f 140/14/72 298/14/72 297/79/72
f 88/23/73 89/35/73 247/35/73
f 127/78/74 128/77/74 286/77/74
f 150/5/75 308/5/75 307/52/75
f 100/24/76 101/21/76 259/21/76
f 58/70/77 216/70/77 215/84/77
f 12/4/78 13/53/78 171/53/78
f 135/124/79 293/124/79 292/99/79
f 37/144/80 38/141/80 196/141/80
f 59/80/81 217/80/81 216/70/81
f 43/117/82 201/117/82 200/37/82
f 66/105/83 224/105/83 223/104/83
f 32/145/84 190/145/84 189/143/84
f 26/76/85 184/76/85 183/121/85
f 88/23/86 246/23/86 245/22/86
f 18/20/87 176/20/87 175/15/87
f 76/11/88 234/11/88 233/54/88
f 114/125/89 272/125/89 271/38/89
f 49/91/90 207/91/90 206/106/90
f 36/146/91 37/144/91 195/144/91
f 87/22/92 245/22/92 244/40/92
f 149/52/93 307/52/93 306/55/93
f 67/107/94 225/107/94 224/105/94
f 33/147/95 191/147/95 190/145/95
f 56/85/96 57/84/96 215/84/96
f 86/40/97 244/40/97 243/39/97
f 60/86/98 218/86/98 217/80/98
f 127/78/99 285/78/99 284/126/99
f 75/54/100 233/54/100 232/56/100
f 48/106/101 206/106/101 205/108/101
f 36/146/102 194/146/102 193/148/102
f 85/39/103 243/39/103 242/28/103
f 126/126/104 284/126/104 283/127/104
f 148/55/105 306/55/105 305/57/105
f 34/149/106 192/149/106 191/147/106
f 101/21/107 102/26/107 260/26/107
f 139/79/108 297/79/108 296/19/108
f 115/128/109 273/128/109 272/125/109
f 134/99/110 292/99/110 291/109/110
f 35/148/111 193/148/111 192/149/111
f 147/57/112 305/57/112 304/58/112
f 21/100/113 22/119/113 180/119/113
f 1/155/114 159/155/114 162/153/114
f 56/85/115 214/85/115 213/87/115
f 14/59/116 172/59/116 171/53/116
f 84/28/117 242/28/117 241/27/117
f 61/88/118 219/88/118 218/86/118
f 42/37/119 200/37/119 199/129/119
f 68/112/120 226/112/120 225/107/120
f 4/153/3 162/153/3 161/157/3
f 2/154/121 160/154/121 159/155/121
f 83/27/122 241/27/122 240/30/122
f 18/20/123 19/82/123 177/82/123
f 125/127/124 283/127/124 282/130/124
f 74/56/125 232/56/125 231/60/125
f 3/157/7 161/157/7 160/154/7
f 26/76/126 27/67/126 185/67/126
f 47/108/127 205/108/127 204/113/127
f 82/30/128 240/30/128 239/31/128
f 146/58/129 304/58/129 303/61/129
f 102/26/130 103/29/130 261/29/130
f 55/87/131 213/87/131 212/89/131
f 116/131/132 274/131/132 273/128/132
f 5/152/114 163/152/114 166/150/114
f 105/62/133 263/62/133 262/10/133
f 133/109/134 291/109/134 290/118/134
f 138/19/135 296/19/135 295/81/135
f 8/150/3 166/150/3 165/158/3
f 46/113/136 204/113/136 203/110/136
f 81/31/137 239/31/137 238/42/137
f 108/90/138 266/90/138 265/83/138
f 124/130/139 282/130/139 281/132/139
f 6/151/121 164/151/121 163/152/121
f 73/60/140 231/60/140 230/63/140
f 110/111/141 268/111/141 267/92/141
f 10/43/121 168/43/121 167/3/121
f 117/133/142 275/133/142 274/131/142
f 7/158/7 165/158/7 164/151/7
f 62/93/143 220/93/143 219/88/143
f 158/1/114 9/3/114 167/3/114
f 145/61/144 303/61/144 302/64/144
f 69/114/145 227/114/145 226/112/145
f 11/44/146 169/44/146 168/43/146
f 70/71/147 228/71/147 227/114/147
f 123/132/148 281/132/148 280/134/148
f 158/1/3 316/1/3 315/156/3
f 144/64/149 302/64/149 301/65/149
f 54/89/150 212/89/150 211/95/150
