# Blender 4.5.8 LTS
# www.blender.org
mtllib text_hati.mtl
o text_hati.001
v -0.070000 0.161304 -0.025000
v -0.234348 0.184638 -0.025000
v -0.240989 0.134639 -0.025000
v -0.249349 0.083419 -0.025000
v -0.259583 0.031529 -0.025000
v -0.271846 -0.020478 -0.025000
v -0.286294 -0.072047 -0.025000
v -0.303080 -0.122627 -0.025000
v -0.322360 -0.171664 -0.025000
v -0.344289 -0.218604 -0.025000
v -0.369022 -0.262896 -0.025000
v -0.396714 -0.303986 -0.025000
v -0.427519 -0.341321 -0.025000
v -0.461594 -0.374348 -0.025000
v -0.452302 -0.380978 -0.025000
v -0.442295 -0.388584 -0.025000
v -0.431746 -0.397000 -0.025000
v -0.420827 -0.406060 -0.025000
v -0.409710 -0.415600 -0.025000
v -0.398569 -0.425453 -0.025000
v -0.387576 -0.435454 -0.025000
v -0.376903 -0.445438 -0.025000
v -0.366723 -0.455238 -0.025000
v -0.357210 -0.464689 -0.025000
v -0.348534 -0.473627 -0.025000
v -0.340870 -0.481884 -0.025000
v -0.303302 -0.443442 -0.025000
v -0.269094 -0.400495 -0.025000
v -0.238057 -0.353567 -0.025000
v -0.210000 -0.303183 -0.025000
v -0.184733 -0.249869 -0.025000
v -0.162065 -0.194149 -0.025000
v -0.141807 -0.136547 -0.025000
v -0.123768 -0.077590 -0.025000
v -0.107758 -0.017801 -0.025000
v -0.093587 0.042294 -0.025000
v -0.081064 0.102171 -0.025000
v -0.259710 0.258696 -0.025000
v 0.067971 0.258696 -0.025000
v 0.074549 0.189337 -0.025000
v 0.082808 0.120025 -0.025000
v 0.093032 0.051184 -0.025000
v 0.105507 -0.016758 -0.025000
v 0.120519 -0.083376 -0.025000
v 0.138351 -0.148243 -0.025000
v 0.159291 -0.210933 -0.025000
v 0.183623 -0.271020 -0.025000
v 0.211633 -0.328077 -0.025000
v 0.243605 -0.381679 -0.025000
v 0.279826 -0.431400 -0.025000
v 0.320580 -0.476812 -0.025000
v 0.329765 -0.466802 -0.025000
v 0.339958 -0.456165 -0.025000
v 0.350983 -0.445077 -0.025000
v 0.362662 -0.433714 -0.025000
v 0.374821 -0.422253 -0.025000
v 0.387283 -0.410870 -0.025000
v 0.399871 -0.399740 -0.025000
v 0.412410 -0.389039 -0.025000
v 0.424724 -0.378945 -0.025000
v 0.436636 -0.369632 -0.025000
v 0.447970 -0.361278 -0.025000
v 0.458551 -0.354058 -0.025000
v 0.415355 -0.311377 -0.025000
v 0.377344 -0.262852 -0.025000
v 0.344167 -0.209065 -0.025000
v 0.315470 -0.150596 -0.025000
v 0.290901 -0.088027 -0.025000
v 0.270109 -0.021938 -0.025000
v 0.252740 0.047088 -0.025000
v 0.238443 0.118470 -0.025000
v 0.226866 0.191628 -0.025000
v 0.217656 0.265980 -0.025000
v 0.210460 0.340945 -0.025000
v 0.204928 0.415942 -0.025000
v -0.259710 0.415942 -0.025000
v -0.070000 0.161304 0.025000
v -0.234348 0.184638 0.025000
v -0.240989 0.134639 0.025000
v -0.249349 0.083419 0.025000
v -0.259583 0.031529 0.025000
v -0.271846 -0.020478 0.025000
v -0.286294 -0.072047 0.025000
v -0.303080 -0.122627 0.025000
v -0.322360 -0.171664 0.025000
v -0.344289 -0.218604 0.025000
v -0.369022 -0.262896 0.025000
v -0.396714 -0.303986 0.025000
v -0.427519 -0.341321 0.025000
v -0.461594 -0.374348 0.025000
v -0.452302 -0.380978 0.025000
v -0.442295 -0.388584 0.025000
v -0.431746 -0.397000 0.025000
v -0.420827 -0.406060 0.025000
v -0.409710 -0.415600 0.025000
v -0.398569 -0.425453 0.025000
v -0.387576 -0.435454 0.025000
v -0.376903 -0.445438 0.025000
v -0.366723 -0.455238 0.025000
v -0.357210 -0.464689 0.025000
v -0.348534 -0.473627 0.025000
v -0.340870 -0.481884 0.025000
v -0.303302 -0.443442 0.025000
v -0.269094 -0.400495 0.025000
v -0.238057 -0.353567 0.025000
v -0.210000 -0.303183 0.025000
v -0.184733 -0.249869 0.025000
v -0.162065 -0.194149 0.025000
v -0.141807 -0.136547 0.025000
v -0.123768 -0.077590 0.025000
v -0.107758 -0.017801 0.025000
v -0.093587 0.042294 0.025000
v -0.081064 0.102171 0.025000
v -0.259710 0.258696 0.025000
v 0.067971 0.258696 0.025000
v 0.074549 0.189337 0.025000
v 0.082808 0.120025 0.025000
v 0.093032 0.051184 0.025000
v 0.105507 -0.016758 0.025000
v 0.120519 -0.083376 0.025000
v 0.138351 -0.148243 0.025000
v 0.159291 -0.210933 0.025000
v 0.183623 -0.271020 0.025000
v 0.211633 -0.328077 0.025000
v 0.243605 -0.381679 0.025000
v 0.279826 -0.431400 0.025000
v 0.320580 -0.476812 0.025000
v 0.329765 -0.466802 0.025000
v 0.339958 -0.456165 0.025000
v 0.350983 -0.445077 0.025000
v 0.362662 -0.433714 0.025000
v 0.374821 -0.422253 0.025000
v 0.387283 -0.410870 0.025000
v 0.399871 -0.399740 0.025000
v 0.412410 -0.389039 0.025000
v 0.424724 -0.378945 0.025000
v 0.436636 -0.369632 0.025000
v 0.447970 -0.361278 0.025000
v 0.458551 -0.354058 0.025000
v 0.415355 -0.311377 0.025000
v 0.377344 -0.262852 0.025000
v 0.344167 -0.209065 0.025000
v 0.315470 -0.150596 0.025000
v 0.290901 -0.088027 0.025000
v 0.270109 -0.021938 0.025000
v 0.252740 0.047088 0.025000
v 0.238443 0.118470 0.025000
v 0.226866 0.191628 0.025000
v 0.217656 0.265980 0.025000
v 0.210460 0.340945 0.025000
v 0.204928 0.415942 0.025000
v -0.259710 0.415942 0.025000
vn -0.0000 -0.0000 -1.0000
vn -0.0000 -0.0000 1.0000
vn 0.8977 0.4406 -0.0000
vn 0.9733 -0.2295 -0.0000
vn -0.7175 -0.6965 -0.0000
vn -0.9955 -0.0944 -0.0000
vn -0.6960 0.7181 -0.0000
vn -0.9060 0.4233 -0.0000
vn -0.9733 0.2295 -0.0000
vn 0.7822 -0.6230 -0.0000
vn -0.7329 -0.6803 -0.0000
vn -0.6512 -0.7589 -0.0000
vn -0.9755 -0.2198 -0.0000
vn 0.7152 -0.6989 -0.0000
vn 0.9877 0.1563 -0.0000
vn 0.8341 -0.5516 -0.0000
vn 0.9263 -0.3768 -0.0000
vn -0.9930 -0.1183 -0.0000
vn 0.6745 -0.7383 -0.0000
vn 0.5637 -0.8260 -0.0000
vn 0.8511 0.5250 -0.0000
vn 0.9660 -0.2587 -0.0000
vn -0.9913 0.1317 -0.0000
vn -0.6625 -0.7491 -0.0000
vn -0.9269 -0.3753 -0.0000
vn -0.9629 0.2698 -0.0000
vn 0.5933 -0.8050 -0.0000
vn 0.1406 0.9901 -0.0000
vn -0.8731 0.4875 -0.0000
vn 0.6859 -0.7277 -0.0000
vn 0.6159 -0.7878 -0.0000
vn 0.9539 0.3001 -0.0000
vn 0.9829 -0.1839 -0.0000
vn -0.6729 -0.7397 -0.0000
vn -0.5808 -0.8140 -0.0000
vn -0.9491 0.3150 -0.0000
vn -0.9869 0.1611 -0.0000
vn 0.9037 -0.4283 -0.0000
vn -0.7442 -0.6679 -0.0000
vn -0.9892 -0.1469 -0.0000
vn 0.7368 -0.6761 -0.0000
vn 0.6340 -0.7734 -0.0000
vn 0.7872 0.6167 -0.0000
vn 0.9562 -0.2926 -0.0000
vn -0.6051 -0.7961 -0.0000
vn -0.8293 0.5589 -0.0000
vn -0.9642 -0.2651 -0.0000
vn 0.7220 -0.6919 -0.0000
vn -1.0000 -0.0000 -0.0000
vn 0.9805 0.1964 -0.0000
vn -0.8083 -0.5888 -0.0000
vn -0.8977 -0.4407 -0.0000
vn 0.7091 -0.7051 -0.0000
vn -0.0000 1.0000 -0.0000
vn 0.9308 0.3655 -0.0000
vn 0.9788 -0.2047 -0.0000
vn -0.6236 -0.7817 -0.0000
vn -0.9307 0.3659 -0.0000
vn -0.9811 0.1935 -0.0000
vn 0.6973 -0.7168 -0.0000
vn 0.9973 0.0736 -0.0000
vn 0.8737 -0.4865 -0.0000
vn -0.6831 -0.7303 -0.0000
vn -0.7713 0.6364 -0.0000
vn -0.9836 -0.1806 -0.0000
vn 0.9954 0.0955 -0.0000
vn 0.6491 -0.7607 -0.0000
vn 0.9434 -0.3318 -0.0000
vn -0.6936 -0.7204 -0.0000
vn -0.0000 -1.0000 -0.0000
vn -0.6386 -0.7696 -0.0000
vn -0.9485 -0.3168 -0.0000
vn 0.7029 0.7113 -0.0000
vn 0.9698 0.2440 -0.0000
vn -0.7048 -0.7094 -0.0000
vn -0.8588 -0.5123 -0.0000
vn 0.9924 0.1229 -0.0000
vn 0.6624 -0.7492 -0.0000
vt 0.066667 0.000000
vt 0.453333 0.000000
vt 0.440000 0.000000
vt 0.533333 0.000000
vt 0.946667 0.000000
vt 0.520000 0.000000
vt 0.493333 0.000000
vt 0.973333 0.000000
vt 0.960000 0.000000
vt 0.506667 0.000000
vt 1.000000 0.000000
vt 0.386667 0.000000
vt 0.120000 0.000000
vt 0.133333 0.000000
vt 0.560000 0.000000
vt 0.906667 0.000000
vt 0.573333 0.000000
vt 0.546667 0.000000
vt 0.933333 0.000000
vt 0.040000 0.000000
vt 0.480000 0.000000
vt 0.466667 0.000000
vt 0.600000 0.000000
vt 0.866667 0.000000
vt 0.880000 0.000000
vt 0.053333 0.000000
vt 0.093333 0.000000
vt 0.413333 0.000000
vt 0.106667 0.000000
vt 0.400000 0.000000
vt 0.920000 0.000000
vt 0.026667 0.000000
vt 0.000000 0.000000
vt 0.013333 0.000000
vt 0.893333 0.000000
vt 0.586667 0.000000
vt 0.080000 0.000000
vt 0.426667 0.000000
vt 0.626667 0.000000
vt 0.853333 0.000000
vt 0.840000 0.000000
vt 0.373333 0.000000
vt 0.146667 0.000000
vt 0.613333 0.000000
vt 0.160000 0.000000
vt 0.826667 0.000000
vt 0.640000 0.000000
vt 0.173333 0.000000
vt 0.360000 0.000000
vt 0.813333 0.000000
vt 0.800000 0.000000
vt 0.786667 0.000000
vt 0.186667 0.000000
vt 0.773333 0.000000
vt 0.200000 0.000000
vt 0.653333 0.000000
vt 0.213333 0.000000
vt 0.760000 0.000000
vt 0.226667 0.000000
vt 0.746667 0.000000
vt 0.346667 0.000000
vt 0.240000 0.000000
vt 0.733333 0.000000
vt 0.253333 0.000000
vt 0.720000 0.000000
vt 0.266667 0.000000
vt 0.666667 0.000000
vt 0.680000 0.000000
vt 0.693333 0.000000
vt 0.706667 0.000000
vt 0.280000 0.000000
vt 0.293333 0.000000
vt 0.306667 0.000000
vt 0.320000 0.000000
vt 0.333333 0.000000
vt 0.986667 0.000000
s 0
f 6/1/1 35/2/1 34/3/1
f 117/4/2 148/5/2 116/6/2
f 38/7/1 74/8/1 73/9/1
f 38/7/1 73/9/1 39/10/1
f 76/11/1 74/8/1 38/7/1
f 106/12/2 86/13/2 87/14/2
f 43/15/1 69/16/1 44/17/1
f 118/18/2 147/19/2 117/4/2
f 4/20/1 37/21/1 36/22/1
f 122/23/2 142/24/2 143/25/2
f 5/26/1 36/22/1 35/2/1
f 8/27/1 32/28/1 9/29/1
f 116/6/2 149/9/2 115/10/2
f 107/30/2 85/29/2 86/13/2
f 40/6/1 73/9/1 72/5/1
f 43/15/1 42/18/1 70/31/1
f 42/18/1 71/19/1 70/31/1
f 79/32/2 77/33/2 78/34/2
f 44/17/1 68/35/1 45/36/1
f 119/15/2 146/31/2 118/18/2
f 83/37/2 110/3/2 82/1/2
f 7/37/1 6/1/1 34/3/1
f 41/4/1 72/5/1 71/19/1
f 10/13/1 30/12/1 11/14/1
f 80/20/2 113/21/2 79/32/2
f 144/35/2 120/17/2 121/36/2
f 3/32/1 1/33/1 37/21/1
f 9/29/1 31/30/1 10/13/1
f 108/28/2 84/27/2 85/29/2
f 109/38/2 83/37/2 84/27/2
f 46/23/1 67/25/1 66/24/1
f 7/37/1 33/38/1 8/27/1
f 81/26/2 112/22/2 80/20/2
f 48/39/1 65/40/1 64/41/1
f 114/7/2 115/10/2 149/9/2
f 11/14/1 29/42/1 12/43/1
f 145/16/2 119/15/2 120/17/2
f 82/1/2 111/2/2 81/26/2
f 47/44/1 66/24/1 65/40/1
f 114/7/2 149/9/2 150/8/2
f 150/8/2 152/11/2 114/7/2
f 13/45/1 12/43/1 29/42/1
f 48/39/1 64/41/1 63/46/1
f 49/47/1 48/39/1 63/46/1
f 14/48/1 13/45/1 29/42/1
f 14/48/1 29/42/1 28/49/1
f 49/47/1 63/46/1 62/50/1
f 49/47/1 62/50/1 61/51/1
f 49/47/1 61/51/1 60/52/1
f 15/53/1 14/48/1 28/49/1
f 49/47/1 60/52/1 59/54/1
f 16/55/1 15/53/1 28/49/1
f 50/56/1 49/47/1 59/54/1
f 17/57/1 16/55/1 28/49/1
f 50/56/1 59/54/1 58/58/1
f 18/59/1 17/57/1 28/49/1
f 50/56/1 58/58/1 57/60/1
f 18/59/1 28/49/1 27/61/1
f 19/62/1 18/59/1 27/61/1
f 50/56/1 57/60/1 56/63/1
f 20/64/1 19/62/1 27/61/1
f 50/56/1 56/63/1 55/65/1
f 21/66/1 20/64/1 27/61/1
f 51/67/1 50/56/1 52/68/1
f 52/68/1 50/56/1 53/69/1
f 53/69/1 50/56/1 54/70/1
f 54/70/1 50/56/1 55/65/1
f 22/71/1 21/66/1 27/61/1
f 22/71/1 27/61/1 23/72/1
f 23/72/1 27/61/1 24/73/1
f 24/73/1 27/61/1 25/74/1
f 25/74/1 27/61/1 26/75/1
f 45/36/1 67/25/1 46/23/1
f 124/39/2 141/40/2 123/44/2
f 105/42/2 87/14/2 88/43/2
f 123/44/2 142/24/2 122/23/2
f 89/45/2 105/42/2 88/43/2
f 124/39/2 139/46/2 140/41/2
f 125/47/2 139/46/2 124/39/2
f 90/48/2 105/42/2 89/45/2
f 90/48/2 104/49/2 105/42/2
f 125/47/2 138/50/2 139/46/2
f 125/47/2 137/51/2 138/50/2
f 125/47/2 136/52/2 137/51/2
f 91/53/2 104/49/2 90/48/2
f 125/47/2 135/54/2 136/52/2
f 92/55/2 104/49/2 91/53/2
f 126/56/2 135/54/2 125/47/2
f 93/57/2 104/49/2 92/55/2
f 126/56/2 134/58/2 135/54/2
f 94/59/2 104/49/2 93/57/2
f 126/56/2 133/60/2 134/58/2
f 94/59/2 103/61/2 104/49/2
f 95/62/2 103/61/2 94/59/2
f 126/56/2 132/63/2 133/60/2
f 96/64/2 103/61/2 95/62/2
f 126/56/2 131/65/2 132/63/2
f 97/66/2 103/61/2 96/64/2
f 127/67/2 128/68/2 126/56/2
f 128/68/2 129/69/2 126/56/2
f 129/69/2 130/70/2 126/56/2
f 130/70/2 131/65/2 126/56/2
f 98/71/2 103/61/2 97/66/2
f 98/71/2 99/72/2 103/61/2
f 99/72/2 100/73/2 103/61/2
f 100/73/2 101/74/2 103/61/2
f 101/74/2 102/75/2 103/61/2
f 143/25/2 121/36/2 122/23/2
f 67/25/3 142/24/3 66/24/3
f 35/2/4 112/22/4 111/2/4
f 24/73/5 101/74/5 100/73/5
f 40/6/6 115/10/6 39/10/6
f 14/48/7 89/45/7 13/45/7
f 9/29/8 86/13/8 85/29/8
f 6/1/9 81/26/9 5/26/9
f 28/49/10 103/61/10 27/61/10
f 26/75/11 101/74/11 25/74/11
f 19/62/12 94/59/12 18/59/12
f 43/15/13 120/17/13 119/15/13
f 26/75/14 103/61/14 102/75/14
f 72/5/15 147/19/15 71/19/15
f 29/42/16 104/49/16 28/49/16
f 32/28/17 107/30/17 31/30/17
f 41/4/18 116/6/18 40/6/18
f 57/60/19 132/63/19 56/63/19
f 63/46/20 138/50/20 62/50/20
f 66/24/21 141/40/21 65/40/21
f 35/2/22 110/3/22 34/3/22
f 3/32/23 78/34/23 2/34/23
f 20/64/24 95/62/24 19/62/24
f 47/44/25 122/23/25 46/23/25
f 6/1/26 83/37/26 82/1/26
f 62/50/27 137/51/27 61/51/27
f 2/34/28 77/33/28 1/33/28
f 11/14/29 86/13/29 10/13/29
f 56/63/30 131/65/30 55/65/30
f 61/51/31 136/52/31 60/52/31
f 69/16/32 144/35/32 68/35/32
f 1/33/33 113/21/33 37/21/33
f 21/66/34 96/64/34 20/64/34
f 15/53/35 90/48/35 14/48/35
f 8/27/36 83/37/36 7/37/36
f 4/20/37 79/32/37 3/32/37
f 30/12/38 107/30/38 106/12/38
f 51/67/39 126/56/39 50/56/39
f 42/18/40 117/4/40 41/4/40
f 52/68/41 127/67/41 51/67/41
f 60/52/42 135/54/42 59/54/42
f 65/40/43 140/41/43 64/41/43
f 33/38/44 110/3/44 109/38/44
f 16/55/45 91/53/45 15/53/45
f 12/43/46 87/14/46 11/14/46
f 45/36/47 120/17/47 44/17/47
f 53/69/48 128/68/48 52/68/48
f 38/7/49 152/11/49 76/11/49
f 71/19/50 146/31/50 70/31/50
f 50/56/51 125/47/51 49/47/51
f 48/39/52 123/44/52 47/44/52
f 54/70/53 129/69/53 53/69/53
f 76/11/54 151/76/54 75/76/54
f 68/35/55 143/25/55 67/25/55
f 37/21/56 112/22/56 36/22/56
f 17/57/57 92/55/57 16/55/57
f 9/29/58 84/27/58 8/27/58
f 4/20/59 81/26/59 80/20/59
f 55/65/60 130/70/60 54/70/60
f 75/76/61 150/8/61 74/8/61
f 29/42/62 106/12/62 105/42/62
f 22/71/63 97/66/63 21/66/63
f 13/45/64 88/43/64 12/43/64
f 43/15/65 118/18/65 42/18/65
f 74/8/66 149/9/66 73/9/66
f 59/54/67 134/58/67 58/58/67
f 33/38/68 108/28/68 32/28/68
f 22/71/69 99/72/69 98/71/69
f 39/10/70 114/7/70 38/7/70
f 18/59/71 93/57/71 17/57/71
f 46/23/72 121/36/72 45/36/72
f 64/41/73 139/46/73 63/46/73
f 70/31/74 145/16/74 69/16/74
f 24/73/75 99/72/75 23/72/75
f 49/47/76 124/39/76 48/39/76
f 73/9/77 148/5/77 72/5/77
f 58/58/78 133/60/78 57/60/78
f 6/1/1 5/26/1 35/2/1
f 117/4/2 147/19/2 148/5/2
f 76/11/1 75/76/1 74/8/1
f 106/12/2 107/30/2 86/13/2
f 43/15/1 70/31/1 69/16/1
f 118/18/2 146/31/2 147/19/2
f 4/20/1 3/32/1 37/21/1
f 5/26/1 4/20/1 36/22/1
f 8/27/1 33/38/1 32/28/1
f 116/6/2 148/5/2 149/9/2
f 107/30/2 108/28/2 85/29/2
f 40/6/1 39/10/1 73/9/1
f 42/18/1 41/4/1 71/19/1
f 79/32/2 113/21/2 77/33/2
f 44/17/1 69/16/1 68/35/1
f 41/4/1 40/6/1 72/5/1
f 10/13/1 31/30/1 30/12/1
f 80/20/2 112/22/2 113/21/2
f 144/35/2 145/16/2 120/17/2
f 3/32/1 2/34/1 1/33/1
f 9/29/1 32/28/1 31/30/1
f 108/28/2 109/38/2 84/27/2
f 109/38/2 110/3/2 83/37/2
f 7/37/1 34/3/1 33/38/1
f 81/26/2 111/2/2 112/22/2
f 48/39/1 47/44/1 65/40/1
f 11/14/1 30/12/1 29/42/1
f 145/16/2 146/31/2 119/15/2
f 82/1/2 110/3/2 111/2/2
f 47/44/1 46/23/1 66/24/1
f 150/8/2 151/76/2 152/11/2
f 45/36/1 68/35/1 67/25/1
f 124/39/2 140/41/2 141/40/2
f 105/42/2 106/12/2 87/14/2
f 123/44/2 141/40/2 142/24/2
f 143/25/2 144/35/2 121/36/2
f 67/25/3 143/25/3 142/24/3
f 35/2/4 36/22/4 112/22/4
f 24/73/5 25/74/5 101/74/5
f 40/6/6 116/6/6 115/10/6
f 14/48/7 90/48/7 89/45/7
f 9/29/8 10/13/8 86/13/8
f 6/1/9 82/1/9 81/26/9
f 28/49/10 104/49/10 103/61/10
f 26/75/11 102/75/11 101/74/11
f 19/62/12 95/62/12 94/59/12
f 43/15/13 44/17/13 120/17/13
f 26/75/14 27/61/14 103/61/14
f 72/5/15 148/5/15 147/19/15
f 29/42/16 105/42/16 104/49/16
f 32/28/17 108/28/17 107/30/17
f 41/4/18 117/4/18 116/6/18
f 57/60/19 133/60/19 132/63/19
f 63/46/20 139/46/20 138/50/20
f 66/24/21 142/24/21 141/40/21
f 35/2/22 111/2/22 110/3/22
f 3/32/23 79/32/23 78/34/23
f 20/64/24 96/64/24 95/62/24
f 47/44/25 123/44/25 122/23/25
f 6/1/26 7/37/26 83/37/26
f 62/50/27 138/50/27 137/51/27
f 2/34/28 78/34/28 77/33/28
f 11/14/29 87/14/29 86/13/29
f 56/63/30 132/63/30 131/65/30
f 61/51/31 137/51/31 136/52/31
f 69/16/32 145/16/32 144/35/32
f 1/33/33 77/33/33 113/21/33
f 21/66/34 97/66/34 96/64/34
f 15/53/35 91/53/35 90/48/35
f 8/27/36 84/27/36 83/37/36
f 4/20/37 80/20/37 79/32/37
f 30/12/38 31/30/38 107/30/38
f 51/67/39 127/67/39 126/56/39
f 42/18/40 118/18/40 117/4/40
f 52/68/41 128/68/41 127/67/41
f 60/52/42 136/52/42 135/54/42
f 65/40/43 141/40/43 140/41/43
f 33/38/44 34/3/44 110/3/44
f 16/55/45 92/55/45 91/53/45
f 12/43/46 88/43/46 87/14/46
f 45/36/47 121/36/47 120/17/47
f 53/69/48 129/69/48 128/68/48
f 38/7/49 114/7/49 152/11/49
f 71/19/50 147/19/50 146/31/50
f 50/56/51 126/56/51 125/47/51
f 48/39/52 124/39/52 123/44/52
f 54/70/53 130/70/53 129/69/53
f 76/11/54 152/11/54 151/76/54
f 68/35/55 144/35/55 143/25/55
f 37/21/56 113/21/56 112/22/56
f 17/57/57 93/57/57 92/55/57
f 9/29/58 85/29/58 84/27/58
f 4/20/59 5/26/59 81/26/59
f 55/65/60 131/65/60 130/70/60
f 75/76/61 151/76/61 150/8/61
f 29/42/62 30/12/62 106/12/62
f 22/71/63 98/71/63 97/66/63
f 13/45/64 89/45/64 88/43/64
f 43/15/65 119/15/65 118/18/65
f 74/8/66 150/8/66 149/9/66
f 59/54/67 135/54/67 134/58/67
f 33/38/68 109/38/68 108/28/68
f 22/71/69 23/72/69 99/72/69
f 39/10/70 115/10/70 114/7/70
f 18/59/71 94/59/71 93/57/71
f 46/23/72 122/23/72 121/36/72
f 64/41/73 140/41/73 139/46/73
f 70/31/74 146/31/74 145/16/74
f 24/73/75 100/73/75 99/72/75
f 49/47/76 125/47/76 124/39/76
f 73/9/77 149/9/77 148/5/77
f 58/58/78 134/58/78 133/60/78
