# Blender 4.4.3
# www.blender.org
mtllib text_nana.mtl
o text_nana
v 0.217538 -0.315538 -0.050000
v 0.217538 -0.339231 -0.050000
v -0.149692 -0.339231 -0.050000
v -0.149692 0.233692 -0.050000
v -0.234769 0.233692 -0.050000
v -0.234769 0.256308 -0.050000
v -0.149692 0.256308 -0.050000
v -0.149692 0.446923 -0.050000
v -0.149790 0.451186 -0.050000
v -0.150081 0.455359 -0.050000
v -0.150567 0.459442 -0.050000
v -0.151248 0.463436 -0.050000
v -0.152123 0.467340 -0.050000
v -0.153192 0.471154 -0.050000
v -0.154456 0.474878 -0.050000
v -0.155914 0.478513 -0.050000
v -0.157567 0.482058 -0.050000
v -0.159414 0.485513 -0.050000
v -0.161456 0.488878 -0.050000
v -0.163692 0.492154 -0.050000
v -0.166108 0.495250 -0.050000
v -0.168688 0.498077 -0.050000
v -0.171433 0.500635 -0.050000
v -0.174342 0.502923 -0.050000
v -0.177416 0.504942 -0.050000
v -0.180654 0.506692 -0.050000
v -0.184057 0.508173 -0.050000
v -0.187624 0.509385 -0.050000
v -0.191356 0.510327 -0.050000
v -0.195252 0.511000 -0.050000
v -0.199313 0.511404 -0.050000
v -0.203538 0.511539 -0.050000
v -0.198528 0.513004 -0.050000
v -0.193547 0.514530 -0.050000
v -0.188596 0.516115 -0.050000
v -0.183675 0.517761 -0.050000
v -0.178784 0.519466 -0.050000
v -0.173923 0.521231 -0.050000
v -0.169092 0.523056 -0.050000
v -0.164291 0.524940 -0.050000
v -0.159519 0.526885 -0.050000
v -0.154778 0.528889 -0.050000
v -0.150066 0.530953 -0.050000
v -0.145385 0.533077 -0.050000
v -0.140980 0.535223 -0.050000
v -0.136739 0.537355 -0.050000
v -0.132663 0.539471 -0.050000
v -0.128752 0.541573 -0.050000
v -0.125005 0.543659 -0.050000
v -0.121423 0.545731 -0.050000
v -0.118005 0.547787 -0.050000
v -0.114752 0.549829 -0.050000
v -0.111663 0.551856 -0.050000
v -0.108739 0.553867 -0.050000
v -0.105980 0.555864 -0.050000
v -0.103385 0.557846 -0.050000
v -0.090462 0.566462 -0.050000
v -0.035538 0.506154 -0.050000
v -0.035538 0.256308 -0.050000
v 0.245538 0.256308 -0.050000
v 0.245538 0.233692 -0.050000
v -0.035538 0.233692 -0.050000
v -0.035538 -0.263846 -0.050000
v -0.034439 -0.268049 -0.050000
v -0.033295 -0.272043 -0.050000
v -0.032106 -0.275827 -0.050000
v -0.030872 -0.279402 -0.050000
v -0.029593 -0.282767 -0.050000
v -0.028269 -0.285923 -0.050000
v -0.026901 -0.288870 -0.050000
v -0.025487 -0.291607 -0.050000
v -0.024029 -0.294135 -0.050000
v -0.022526 -0.296453 -0.050000
v -0.020978 -0.298562 -0.050000
v -0.019385 -0.300462 -0.050000
v -0.018465 -0.301348 -0.050000
v -0.017500 -0.302212 -0.050000
v -0.016490 -0.303053 -0.050000
v -0.015436 -0.303872 -0.050000
v -0.014337 -0.304668 -0.050000
v -0.013192 -0.305442 -0.050000
v -0.012003 -0.306194 -0.050000
v -0.010769 -0.306923 -0.050000
v -0.009490 -0.307630 -0.050000
v -0.008167 -0.308314 -0.050000
v -0.006798 -0.308976 -0.050000
v -0.005385 -0.309615 -0.050000
v -0.003964 -0.310225 -0.050000
v -0.002573 -0.310797 -0.050000
v -0.001212 -0.311332 -0.050000
v 0.000120 -0.311829 -0.050000
v 0.001421 -0.312289 -0.050000
v 0.002692 -0.312712 -0.050000
v 0.003934 -0.313097 -0.050000
v 0.005145 -0.313444 -0.050000
v 0.006327 -0.313755 -0.050000
v 0.007479 -0.314028 -0.050000
v 0.008600 -0.314263 -0.050000
v 0.009692 -0.314462 -0.050000
v 0.016154 -0.315538 -0.050000
v 0.217538 -0.315538 0.050000
v 0.217538 -0.339231 0.050000
v -0.149692 -0.339231 0.050000
v -0.149692 0.233692 0.050000
v -0.234769 0.233692 0.050000
v -0.234769 0.256308 0.050000
v -0.149692 0.256308 0.050000
v -0.149692 0.446923 0.050000
v -0.149790 0.451186 0.050000
v -0.150081 0.455359 0.050000
v -0.150567 0.459442 0.050000
v -0.151248 0.463436 0.050000
v -0.152123 0.467340 0.050000
v -0.153192 0.471154 0.050000
v -0.154456 0.474878 0.050000
v -0.155914 0.478513 0.050000
v -0.157567 0.482058 0.050000
v -0.159414 0.485513 0.050000
v -0.161456 0.488878 0.050000
v -0.163692 0.492154 0.050000
v -0.166108 0.495250 0.050000
v -0.168688 0.498077 0.050000
v -0.171433 0.500635 0.050000
v -0.174342 0.502923 0.050000
v -0.177416 0.504942 0.050000
v -0.180654 0.506692 0.050000
v -0.184057 0.508173 0.050000
v -0.187624 0.509385 0.050000
v -0.191356 0.510327 0.050000
v -0.195252 0.511000 0.050000
v -0.199313 0.511404 0.050000
v -0.203538 0.511539 0.050000
v -0.198528 0.513004 0.050000
v -0.193547 0.514530 0.050000
v -0.188596 0.516115 0.050000
v -0.183675 0.517761 0.050000
v -0.178784 0.519466 0.050000
v -0.173923 0.521231 0.050000
v -0.169092 0.523056 0.050000
v -0.164291 0.524940 0.050000
v -0.159519 0.526885 0.050000
v -0.154778 0.528889 0.050000
v -0.150066 0.530953 0.050000
v -0.145385 0.533077 0.050000
v -0.140980 0.535223 0.050000
v -0.136739 0.537355 0.050000
v -0.132663 0.539471 0.050000
v -0.128752 0.541573 0.050000
v -0.125005 0.543659 0.050000
v -0.121423 0.545731 0.050000
v -0.118005 0.547787 0.050000
v -0.114752 0.549829 0.050000
v -0.111663 0.551856 0.050000
v -0.108739 0.553867 0.050000
v -0.105980 0.555864 0.050000
v -0.103385 0.557846 0.050000
v -0.090462 0.566462 0.050000
v -0.035538 0.506154 0.050000
v -0.035538 0.256308 0.050000
v 0.245538 0.256308 0.050000
v 0.245538 0.233692 0.050000
v -0.035538 0.233692 0.050000
v -0.035538 -0.263846 0.050000
v -0.034439 -0.268049 0.050000
v -0.033295 -0.272043 0.050000
v -0.032106 -0.275827 0.050000
v -0.030872 -0.279402 0.050000
v -0.029593 -0.282767 0.050000
v -0.028269 -0.285923 0.050000
v -0.026901 -0.288870 0.050000
v -0.025487 -0.291607 0.050000
v -0.024029 -0.294135 0.050000
v -0.022526 -0.296453 0.050000
v -0.020978 -0.298562 0.050000
v -0.019385 -0.300462 0.050000
v -0.018465 -0.301348 0.050000
v -0.017500 -0.302212 0.050000
v -0.016490 -0.303053 0.050000
v -0.015436 -0.303872 0.050000
v -0.014337 -0.304668 0.050000
v -0.013192 -0.305442 0.050000
v -0.012003 -0.306194 0.050000
v -0.010769 -0.306923 0.050000
v -0.009490 -0.307630 0.050000
v -0.008167 -0.308314 0.050000
v -0.006798 -0.308976 0.050000
v -0.005385 -0.309615 0.050000
v -0.003964 -0.310225 0.050000
v -0.002573 -0.310797 0.050000
v -0.001212 -0.311332 0.050000
v 0.000120 -0.311829 0.050000
v 0.001421 -0.312289 0.050000
v 0.002692 -0.312712 0.050000
v 0.003934 -0.313097 0.050000
v 0.005145 -0.313444 0.050000
v 0.006327 -0.313755 0.050000
v 0.007479 -0.314028 0.050000
v 0.008600 -0.314263 0.050000
v 0.009692 -0.314462 0.050000
v 0.016154 -0.315538 0.050000
vn -0.0000 -0.0000 -1.0000
vn -0.0000 -0.0000 1.0000
vn -0.2929 0.9561 -0.0000
vn 0.5867 0.8098 -0.0000
vn -1.0000 -0.0000 -0.0000
vn -0.2808 0.9598 -0.0000
vn -0.0318 -0.9995 -0.0000
vn 0.5603 0.8283 -0.0000
vn -0.5547 0.8320 -0.0000
vn 0.5343 0.8453 -0.0000
vn -0.0000 1.0000 -0.0000
vn -0.0990 -0.9951 -0.0000
vn 0.7393 0.6733 -0.0000
vn 0.5087 0.8609 -0.0000
vn -0.6070 0.7947 -0.0000
vn -0.1702 -0.9854 -0.0000
vn 0.4837 0.8752 -0.0000
vn -0.5862 0.8102 -0.0000
vn -0.2448 -0.9696 -0.0000
vn 1.0000 -0.0000 -0.0000
vn 0.4592 0.8883 -0.0000
vn -0.5668 0.8239 -0.0000
vn -0.0000 -1.0000 -0.0000
vn -0.3216 -0.9469 -0.0000
vn 0.4354 0.9003 -0.0000
vn -0.5486 0.8361 -0.0000
vn -0.3990 -0.9169 -0.0000
vn 0.4122 0.9111 -0.0000
vn -0.5316 0.8470 -0.0000
vn -0.4754 -0.8798 -0.0000
vn -0.5491 -0.8358 -0.0000
vn 0.3942 0.9190 -0.0000
vn -0.5156 0.8568 -0.0000
vn -0.6183 -0.7860 -0.0000
vn 0.3804 0.9248 -0.0000
vn -0.5006 0.8657 -0.0000
vn 0.9675 0.2531 -0.0000
vn -0.6818 -0.7316 -0.0000
vn 0.3656 0.9308 -0.0000
vn -0.4865 0.8737 -0.0000
vn 0.9613 0.2754 -0.0000
vn -0.7386 -0.6741 -0.0000
vn 0.3500 0.9368 -0.0000
vn -0.4733 0.8809 -0.0000
vn 0.9540 0.2998 -0.0000
vn -0.7884 -0.6151 -0.0000
vn 0.3332 0.9428 -0.0000
vn -0.4608 0.8875 -0.0000
vn 0.9453 0.3263 -0.0000
vn -0.8259 -0.5638 -0.0000
vn 0.3154 0.9490 -0.0000
vn -0.4491 0.8935 -0.0000
vn 0.9348 0.3552 -0.0000
vn -0.8550 -0.5187 -0.0000
vn 0.2963 0.9551 -0.0000
vn -0.4380 0.8990 -0.0000
vn 0.9222 0.3868 -0.0000
vn 0.2759 0.9612 -0.0000
vn -0.4131 0.9107 -0.0000
vn 0.9069 0.4212 -0.0000
vn -0.8819 -0.4715 -0.0000
vn 0.2540 0.9672 -0.0000
vn -0.4013 0.9160 -0.0000
vn 0.8885 0.4588 -0.0000
vn -0.9063 -0.4226 -0.0000
vn 0.2306 0.9731 -0.0000
vn -0.3894 0.9211 -0.0000
vn 0.8662 0.4997 -0.0000
vn -0.9281 -0.3724 -0.0000
vn 0.2055 0.9787 -0.0000
vn -0.3774 0.9261 -0.0000
vn 0.8391 0.5440 -0.0000
vn -0.9470 -0.3214 -0.0000
vn 0.1786 0.9839 -0.0000
vn -0.3654 0.9309 -0.0000
vn 0.8061 0.5918 -0.0000
vn -0.9629 -0.2700 -0.0000
vn 0.1644 0.9864 -0.0000
vn -0.3534 0.9355 -0.0000
vn 0.7662 0.6426 -0.0000
vn -0.9758 -0.2187 -0.0000
vn -0.3413 0.9400 -0.0000
vn 0.6938 0.7202 -0.0000
vn -0.9858 -0.1680 -0.0000
vn -0.3292 0.9443 -0.0000
vn 0.6670 0.7450 -0.0000
vn -0.9930 -0.1182 -0.0000
vn -0.3171 0.9484 -0.0000
vn 0.6402 0.7682 -0.0000
vn -0.9976 -0.0697 -0.0000
vn -0.3050 0.9524 -0.0000
vn 0.6134 0.7898 -0.0000
vn -0.9997 -0.0228 -0.0000
vn -0.2929 0.9562 -0.0000
vn -0.5547 0.8321 -0.0000
vn 0.5088 0.8609 -0.0000
vn 0.4354 0.9002 -0.0000
vn -0.5490 -0.8358 -0.0000
vn 0.3657 0.9308 -0.0000
vn 0.3333 0.9428 -0.0000
vn 0.2541 0.9672 -0.0000
vn 0.2306 0.9730 -0.0000
vn 0.2056 0.9786 -0.0000
vn 0.8061 0.5917 -0.0000
vn -0.3533 0.9355 -0.0000
vn 0.6671 0.7450 -0.0000
vt 0.555556 0.000000
vt 0.565657 0.000000
vt 0.575758 0.000000
vt 0.545455 0.000000
vt 0.535354 0.000000
vt 0.525253 0.000000
vt 0.515152 0.000000
vt 0.505050 0.000000
vt 0.494949 0.000000
vt 0.484848 0.000000
vt 0.141414 0.000000
vt 0.474747 0.000000
vt 0.131313 0.000000
vt 0.151515 0.000000
vt 0.464646 0.000000
vt 0.161616 0.000000
vt 0.454545 0.000000
vt 0.171717 0.000000
vt 0.444444 0.000000
vt 0.181818 0.000000
vt 0.434343 0.000000
vt 0.191919 0.000000
vt 0.424242 0.000000
vt 0.202020 0.000000
vt 0.414141 0.000000
vt 0.212121 0.000000
vt 0.404040 0.000000
vt 0.222222 0.000000
vt 0.393939 0.000000
vt 0.232323 0.000000
vt 0.383838 0.000000
vt 0.242424 0.000000
vt 0.373737 0.000000
vt 0.252525 0.000000
vt 0.363636 0.000000
vt 0.262626 0.000000
vt 0.353535 0.000000
vt 0.343434 0.000000
vt 0.272727 0.000000
vt 0.333333 0.000000
vt 0.282828 0.000000
vt 0.323232 0.000000
vt 0.292929 0.000000
vt 0.313131 0.000000
vt 0.303030 0.000000
vt 0.121212 0.000000
vt 0.111111 0.000000
vt 0.101010 0.000000
vt 0.090909 0.000000
vt 0.080808 0.000000
vt 0.070707 0.000000
vt 0.585859 0.000000
vt 0.060606 0.000000
vt 0.040404 0.000000
vt 0.050505 0.000000
vt 0.030303 0.000000
vt 0.616162 0.000000
vt 0.595960 0.000000
vt 0.020202 0.000000
vt 0.626263 0.000000
vt 0.606061 0.000000
vt 0.010101 0.000000
vt 1.000000 0.000000
vt 0.000000 0.000000
vt 0.636364 0.000000
vt 0.646465 0.000000
vt 0.656566 0.000000
vt 0.666667 0.000000
vt 0.676768 0.000000
vt 0.686869 0.000000
vt 0.696970 0.000000
vt 0.707071 0.000000
vt 0.717172 0.000000
vt 0.727273 0.000000
vt 0.737374 0.000000
vt 0.747475 0.000000
vt 0.757576 0.000000
vt 0.767677 0.000000
vt 0.777778 0.000000
vt 0.787879 0.000000
vt 0.797980 0.000000
vt 0.808081 0.000000
vt 0.818182 0.000000
vt 0.828283 0.000000
vt 0.838384 0.000000
vt 0.848485 0.000000
vt 0.858586 0.000000
vt 0.868687 0.000000
vt 0.878788 0.000000
vt 0.888889 0.000000
vt 0.898990 0.000000
vt 0.909091 0.000000
vt 0.919192 0.000000
vt 0.929293 0.000000
vt 0.939394 0.000000
vt 0.949495 0.000000
vt 0.959596 0.000000
vt 0.969697 0.000000
vt 0.979798 0.000000
vt 0.989899 0.000000
s 0
f 56/1/1 57/2/1 58/3/1
f 55/4/1 56/1/1 58/3/1
f 54/5/1 55/4/1 58/3/1
f 53/6/1 54/5/1 58/3/1
f 52/7/1 53/6/1 58/3/1
f 51/8/1 52/7/1 58/3/1
f 50/9/1 51/8/1 58/3/1
f 49/10/1 50/9/1 58/3/1
f 15/11/1 48/12/1 14/13/1
f 16/14/1 47/15/1 15/11/1
f 17/16/1 46/17/1 16/14/1
f 18/18/1 45/19/1 17/16/1
f 19/20/1 44/21/1 18/18/1
f 20/22/1 43/23/1 19/20/1
f 21/24/1 42/25/1 20/22/1
f 22/26/1 41/27/1 21/24/1
f 23/28/1 40/29/1 22/26/1
f 24/30/1 39/31/1 23/28/1
f 25/32/1 38/33/1 24/30/1
f 26/34/1 37/35/1 25/32/1
f 27/36/1 36/37/1 26/34/1
f 35/38/1 36/37/1 28/39/1
f 34/40/1 35/38/1 29/41/1
f 33/42/1 34/40/1 30/43/1
f 32/44/1 33/42/1 31/45/1
f 31/45/1 33/42/1 30/43/1
f 24/30/1 38/33/1 39/31/1
f 35/38/1 28/39/1 29/41/1
f 36/37/1 27/36/1 28/39/1
f 23/28/1 39/31/1 40/29/1
f 25/32/1 37/35/1 38/33/1
f 21/24/1 41/27/1 42/25/1
f 26/34/1 36/37/1 37/35/1
f 20/22/1 42/25/1 43/23/1
f 19/20/1 43/23/1 44/21/1
f 18/18/1 44/21/1 45/19/1
f 17/16/1 45/19/1 46/17/1
f 16/14/1 46/17/1 47/15/1
f 15/11/1 47/15/1 48/12/1
f 14/13/1 48/12/1 49/10/1
f 58/3/1 14/13/1 49/10/1
f 58/3/1 13/46/1 14/13/1
f 58/3/1 12/47/1 13/46/1
f 58/3/1 11/48/1 12/47/1
f 58/3/1 10/49/1 11/48/1
f 58/3/1 9/50/1 10/49/1
f 58/3/1 8/51/1 9/50/1
f 34/40/1 29/41/1 30/43/1
f 59/52/1 8/51/1 58/3/1
f 7/53/1 8/51/1 59/52/1
f 5/54/1 6/55/1 7/53/1
f 5/54/1 7/53/1 4/56/1
f 22/26/1 40/29/1 41/27/1
f 59/52/1 62/57/1 4/56/1
f 60/58/1 62/57/1 59/52/1
f 3/59/1 4/56/1 63/60/1
f 61/61/1 62/57/1 60/58/1
f 2/62/1 100/63/1 1/64/1
f 3/59/1 63/60/1 64/65/1
f 3/59/1 64/65/1 65/66/1
f 3/59/1 65/66/1 66/67/1
f 3/59/1 66/67/1 67/68/1
f 3/59/1 67/68/1 68/69/1
f 3/59/1 68/69/1 69/70/1
f 3/59/1 69/70/1 70/71/1
f 3/59/1 70/71/1 71/72/1
f 3/59/1 71/72/1 72/73/1
f 3/59/1 72/73/1 73/74/1
f 3/59/1 73/74/1 74/75/1
f 3/59/1 74/75/1 75/76/1
f 3/59/1 75/76/1 76/77/1
f 3/59/1 76/77/1 77/78/1
f 3/59/1 77/78/1 78/79/1
f 3/59/1 78/79/1 79/80/1
f 3/59/1 79/80/1 80/81/1
f 3/59/1 80/81/1 81/82/1
f 3/59/1 81/82/1 82/83/1
f 3/59/1 82/83/1 83/84/1
f 3/59/1 83/84/1 84/85/1
f 3/59/1 84/85/1 85/86/1
f 3/59/1 85/86/1 86/87/1
f 3/59/1 86/87/1 87/88/1
f 3/59/1 87/88/1 88/89/1
f 3/59/1 88/89/1 89/90/1
f 3/59/1 89/90/1 90/91/1
f 3/59/1 90/91/1 91/92/1
f 3/59/1 91/92/1 92/93/1
f 3/59/1 92/93/1 93/94/1
f 3/59/1 93/94/1 94/95/1
f 3/59/1 94/95/1 95/96/1
f 3/59/1 95/96/1 96/97/1
f 3/59/1 96/97/1 97/98/1
f 3/59/1 97/98/1 98/99/1
f 3/59/1 98/99/1 99/100/1
f 3/59/1 99/100/1 100/63/1
f 3/59/1 100/63/1 2/62/1
f 4/56/1 7/53/1 59/52/1
f 63/60/1 4/56/1 62/57/1
f 156/1/2 158/3/2 157/2/2
f 155/4/2 158/3/2 156/1/2
f 154/5/2 158/3/2 155/4/2
f 153/6/2 158/3/2 154/5/2
f 152/7/2 158/3/2 153/6/2
f 151/8/2 158/3/2 152/7/2
f 150/9/2 158/3/2 151/8/2
f 149/10/2 158/3/2 150/9/2
f 115/11/2 114/13/2 148/12/2
f 116/14/2 115/11/2 147/15/2
f 117/16/2 116/14/2 146/17/2
f 118/18/2 117/16/2 145/19/2
f 119/20/2 118/18/2 144/21/2
f 120/22/2 119/20/2 143/23/2
f 121/24/2 120/22/2 142/25/2
f 122/26/2 121/24/2 141/27/2
f 123/28/2 122/26/2 140/29/2
f 124/30/2 123/28/2 139/31/2
f 125/32/2 124/30/2 138/33/2
f 126/34/2 125/32/2 137/35/2
f 127/36/2 126/34/2 136/37/2
f 135/38/2 128/39/2 136/37/2
f 134/40/2 129/41/2 135/38/2
f 133/42/2 130/43/2 134/40/2
f 132/44/2 131/45/2 133/42/2
f 131/45/2 130/43/2 133/42/2
f 124/30/2 139/31/2 138/33/2
f 135/38/2 129/41/2 128/39/2
f 136/37/2 128/39/2 127/36/2
f 123/28/2 140/29/2 139/31/2
f 125/32/2 138/33/2 137/35/2
f 121/24/2 142/25/2 141/27/2
f 126/34/2 137/35/2 136/37/2
f 120/22/2 143/23/2 142/25/2
f 119/20/2 144/21/2 143/23/2
f 118/18/2 145/19/2 144/21/2
f 117/16/2 146/17/2 145/19/2
f 116/14/2 147/15/2 146/17/2
f 115/11/2 148/12/2 147/15/2
f 114/13/2 149/10/2 148/12/2
f 158/3/2 149/10/2 114/13/2
f 158/3/2 114/13/2 113/46/2
f 158/3/2 113/46/2 112/47/2
f 158/3/2 112/47/2 111/48/2
f 158/3/2 111/48/2 110/49/2
f 158/3/2 110/49/2 109/50/2
f 158/3/2 109/50/2 108/51/2
f 134/40/2 130/43/2 129/41/2
f 159/52/2 158/3/2 108/51/2
f 107/53/2 159/52/2 108/51/2
f 105/54/2 107/53/2 106/55/2
f 105/54/2 104/56/2 107/53/2
f 122/26/2 141/27/2 140/29/2
f 159/52/2 104/56/2 162/57/2
f 160/58/2 159/52/2 162/57/2
f 103/59/2 163/60/2 104/56/2
f 161/61/2 160/58/2 162/57/2
f 102/62/2 101/64/2 200/63/2
f 103/59/2 164/65/2 163/60/2
f 103/59/2 165/66/2 164/65/2
f 103/59/2 166/67/2 165/66/2
f 103/59/2 167/68/2 166/67/2
f 103/59/2 168/69/2 167/68/2
f 103/59/2 169/70/2 168/69/2
f 103/59/2 170/71/2 169/70/2
f 103/59/2 171/72/2 170/71/2
f 103/59/2 172/73/2 171/72/2
f 103/59/2 173/74/2 172/73/2
f 103/59/2 174/75/2 173/74/2
f 103/59/2 175/76/2 174/75/2
f 103/59/2 176/77/2 175/76/2
f 103/59/2 177/78/2 176/77/2
f 103/59/2 178/79/2 177/78/2
f 103/59/2 179/80/2 178/79/2
f 103/59/2 180/81/2 179/80/2
f 103/59/2 181/82/2 180/81/2
f 103/59/2 182/83/2 181/82/2
f 103/59/2 183/84/2 182/83/2
f 103/59/2 184/85/2 183/84/2
f 103/59/2 185/86/2 184/85/2
f 103/59/2 186/87/2 185/86/2
f 103/59/2 187/88/2 186/87/2
f 103/59/2 188/89/2 187/88/2
f 103/59/2 189/90/2 188/89/2
f 103/59/2 190/91/2 189/90/2
f 103/59/2 191/92/2 190/91/2
f 103/59/2 192/93/2 191/92/2
f 103/59/2 193/94/2 192/93/2
f 103/59/2 194/95/2 193/94/2
f 103/59/2 195/96/2 194/95/2
f 103/59/2 196/97/2 195/96/2
f 103/59/2 197/98/2 196/97/2
f 103/59/2 198/99/2 197/98/2
f 103/59/2 199/100/2 198/99/2
f 103/59/2 200/63/2 199/100/2
f 103/59/2 102/62/2 200/63/2
f 104/56/2 159/52/2 107/53/2
f 163/60/2 162/57/2 104/56/2
f 33/42/3 134/40/3 34/40/3
f 79/80/4 180/81/4 80/81/4
f 7/53/5 108/51/5 8/51/5
f 32/44/6 133/42/6 33/42/6
f 31/45/7 132/44/7 32/44/7
f 80/81/8 181/82/8 81/82/8
f 5/54/5 106/55/5 6/55/5
f 56/1/9 157/2/9 57/2/9
f 81/82/10 182/83/10 82/83/10
f 6/55/11 107/53/11 7/53/11
f 30/43/12 131/45/12 31/45/12
f 57/2/13 158/3/13 58/3/13
f 82/83/14 183/84/14 83/84/14
f 55/4/15 156/1/15 56/1/15
f 29/41/16 130/43/16 30/43/16
f 59/52/11 160/58/11 60/58/11
f 83/84/17 184/85/17 84/85/17
f 54/5/18 155/4/18 55/4/18
f 28/39/19 129/41/19 29/41/19
f 60/58/20 161/61/20 61/61/20
f 84/85/21 185/86/21 85/86/21
f 53/6/22 154/5/22 54/5/22
f 4/56/23 105/54/23 5/54/23
f 27/36/24 128/39/24 28/39/24
f 85/86/25 186/87/25 86/87/25
f 52/7/26 153/6/26 53/6/26
f 3/59/5 104/56/5 4/56/5
f 26/34/27 127/36/27 27/36/27
f 86/87/28 187/88/28 87/88/28
f 51/8/29 152/7/29 52/7/29
f 25/32/30 126/34/30 26/34/30
f 61/61/23 162/57/23 62/57/23
f 24/30/31 125/32/31 25/32/31
f 87/88/32 188/89/32 88/89/32
f 50/9/33 151/8/33 51/8/33
f 62/57/20 163/60/20 63/60/20
f 23/28/34 124/30/34 24/30/34
f 88/89/35 189/90/35 89/90/35
f 49/10/36 150/9/36 50/9/36
f 63/60/37 164/65/37 64/65/37
f 22/26/38 123/28/38 23/28/38
f 89/90/39 190/91/39 90/91/39
f 48/12/40 149/10/40 49/10/40
f 64/65/41 165/66/41 65/66/41
f 21/24/42 122/26/42 22/26/42
f 90/91/43 191/92/43 91/92/43
f 47/15/44 148/12/44 48/12/44
f 65/66/45 166/67/45 66/67/45
f 20/22/46 121/24/46 21/24/46
f 91/92/47 192/93/47 92/93/47
f 46/17/48 147/15/48 47/15/48
f 66/67/49 167/68/49 67/68/49
f 19/20/50 120/22/50 20/22/50
f 92/93/51 193/94/51 93/94/51
f 45/19/52 146/17/52 46/17/52
f 67/68/53 168/69/53 68/69/53
f 18/18/54 119/20/54 19/20/54
f 93/94/55 194/95/55 94/95/55
f 44/21/56 145/19/56 45/19/56
f 68/69/57 169/70/57 69/70/57
f 94/95/58 195/96/58 95/96/58
f 43/23/59 144/21/59 44/21/59
f 58/3/20 159/52/20 59/52/20
f 69/70/60 170/71/60 70/71/60
f 17/16/61 118/18/61 18/18/61
f 95/96/62 196/97/62 96/97/62
f 42/25/63 143/23/63 43/23/63
f 70/71/64 171/72/64 71/72/64
f 16/14/65 117/16/65 17/16/65
f 96/97/66 197/98/66 97/98/66
f 41/27/67 142/25/67 42/25/67
f 71/72/68 172/73/68 72/73/68
f 15/11/69 116/14/69 16/14/69
f 97/98/70 198/99/70 98/99/70
f 40/29/71 141/27/71 41/27/71
f 72/73/72 173/74/72 73/74/72
f 14/13/73 115/11/73 15/11/73
f 98/99/74 199/100/74 99/100/74
f 39/31/75 140/29/75 40/29/75
f 73/74/76 174/75/76 74/75/76
f 13/46/77 114/13/77 14/13/77
f 99/100/78 200/63/78 100/63/78
f 38/33/79 139/31/79 39/31/79
f 74/75/80 175/76/80 75/76/80
f 12/47/81 113/46/81 13/46/81
f 100/63/11 101/64/11 1/64/11
f 37/35/82 138/33/82 38/33/82
f 2/62/23 103/59/23 3/59/23
f 75/76/83 176/77/83 76/77/83
f 11/48/84 112/47/84 12/47/84
f 1/64/20 102/62/20 2/62/20
f 36/37/85 137/35/85 37/35/85
f 76/77/86 177/78/86 77/78/86
f 10/49/87 111/48/87 11/48/87
f 35/38/88 136/37/88 36/37/88
f 77/78/89 178/79/89 78/79/89
f 9/50/90 110/49/90 10/49/90
f 34/40/91 135/38/91 35/38/91
f 78/79/92 179/80/92 79/80/92
f 8/51/93 109/50/93 9/50/93
f 33/42/94 133/42/94 134/40/94
f 79/80/4 179/80/4 180/81/4
f 7/53/5 107/53/5 108/51/5
f 32/44/6 132/44/6 133/42/6
f 31/45/7 131/45/7 132/44/7
f 80/81/8 180/81/8 181/82/8
f 5/54/5 105/54/5 106/55/5
f 56/1/95 156/1/95 157/2/95
f 81/82/10 181/82/10 182/83/10
f 6/55/11 106/55/11 107/53/11
f 30/43/12 130/43/12 131/45/12
f 57/2/13 157/2/13 158/3/13
f 82/83/96 182/83/96 183/84/96
f 55/4/15 155/4/15 156/1/15
f 29/41/16 129/41/16 130/43/16
f 59/52/11 159/52/11 160/58/11
f 83/84/17 183/84/17 184/85/17
f 54/5/18 154/5/18 155/4/18
f 28/39/19 128/39/19 129/41/19
f 60/58/20 160/58/20 161/61/20
f 84/85/21 184/85/21 185/86/21
f 53/6/22 153/6/22 154/5/22
f 4/56/23 104/56/23 105/54/23
f 27/36/24 127/36/24 128/39/24
f 85/86/97 185/86/97 186/87/97
f 52/7/26 152/7/26 153/6/26
f 3/59/5 103/59/5 104/56/5
f 26/34/27 126/34/27 127/36/27
f 86/87/28 186/87/28 187/88/28
f 51/8/29 151/8/29 152/7/29
f 25/32/30 125/32/30 126/34/30
f 61/61/23 161/61/23 162/57/23
f 24/30/98 124/30/98 125/32/98
f 87/88/32 187/88/32 188/89/32
f 50/9/33 150/9/33 151/8/33
f 62/57/20 162/57/20 163/60/20
f 23/28/34 123/28/34 124/30/34
f 88/89/35 188/89/35 189/90/35
f 49/10/36 149/10/36 150/9/36
f 63/60/37 163/60/37 164/65/37
f 22/26/38 122/26/38 123/28/38
f 89/90/99 189/90/99 190/91/99
f 48/12/40 148/12/40 149/10/40
f 64/65/41 164/65/41 165/66/41
f 21/24/42 121/24/42 122/26/42
f 90/91/43 190/91/43 191/92/43
f 47/15/44 147/15/44 148/12/44
f 65/66/45 165/66/45 166/67/45
f 20/22/46 120/22/46 121/24/46
f 91/92/100 191/92/100 192/93/100
f 46/17/48 146/17/48 147/15/48
f 66/67/49 166/67/49 167/68/49
f 19/20/50 119/20/50 120/22/50
f 92/93/51 192/93/51 193/94/51
f 45/19/52 145/19/52 146/17/52
f 67/68/53 167/68/53 168/69/53
f 18/18/54 118/18/54 119/20/54
f 93/94/55 193/94/55 194/95/55
f 44/21/56 144/21/56 145/19/56
f 68/69/57 168/69/57 169/70/57
f 94/95/58 194/95/58 195/96/58
f 43/23/59 143/23/59 144/21/59
f 58/3/20 158/3/20 159/52/20
f 69/70/60 169/70/60 170/71/60
f 17/16/61 117/16/61 118/18/61
f 95/96/101 195/96/101 196/97/101
f 42/25/63 142/25/63 143/23/63
f 70/71/64 170/71/64 171/72/64
f 16/14/65 116/14/65 117/16/65
f 96/97/102 196/97/102 197/98/102
f 41/27/67 141/27/67 142/25/67
f 71/72/68 171/72/68 172/73/68
f 15/11/69 115/11/69 116/14/69
f 97/98/103 197/98/103 198/99/103
f 40/29/71 140/29/71 141/27/71
f 72/73/72 172/73/72 173/74/72
f 14/13/73 114/13/73 115/11/73
f 98/99/74 198/99/74 199/100/74
f 39/31/75 139/31/75 140/29/75
f 73/74/104 173/74/104 174/75/104
f 13/46/77 113/46/77 114/13/77
f 99/100/78 199/100/78 200/63/78
f 38/33/105 138/33/105 139/31/105
f 74/75/80 174/75/80 175/76/80
f 12/47/81 112/47/81 113/46/81
f 100/63/11 200/63/11 101/64/11
f 37/35/82 137/35/82 138/33/82
f 2/62/23 102/62/23 103/59/23
f 75/76/83 175/76/83 176/77/83
f 11/48/84 111/48/84 112/47/84
f 1/64/20 101/64/20 102/62/20
f 36/37/85 136/37/85 137/35/85
f 76/77/106 176/77/106 177/78/106
f 10/49/87 110/49/87 111/48/87
f 35/38/88 135/38/88 136/37/88
f 77/78/89 177/78/89 178/79/89
f 9/50/90 109/50/90 110/49/90
f 34/40/91 134/40/91 135/38/91
f 78/79/92 178/79/92 179/80/92
f 8/51/93 108/51/93 109/50/93
