# Blender 4.4.3
# www.blender.org
mtllib text_koro.mtl
o text_koro
v 0.240154 0.507231 -0.050000
v 0.240154 0.483538 -0.050000
v 0.030154 0.483538 -0.050000
v 0.030154 0.507231 -0.050000
v 0.170154 -0.334923 -0.050000
v 0.059231 -0.334923 -0.050000
v 0.055589 -0.340076 -0.050000
v 0.051842 -0.345124 -0.050000
v 0.047990 -0.350067 -0.050000
v 0.044034 -0.354906 -0.050000
v 0.039973 -0.359640 -0.050000
v 0.035808 -0.364269 -0.050000
v 0.031537 -0.368794 -0.050000
v 0.027162 -0.373214 -0.050000
v 0.022683 -0.377529 -0.050000
v 0.018098 -0.381739 -0.050000
v 0.013409 -0.385845 -0.050000
v 0.008615 -0.389846 -0.050000
v 0.007538 -0.386615 -0.050000
v 0.012246 -0.374844 -0.050000
v 0.016677 -0.363222 -0.050000
v 0.020832 -0.351750 -0.050000
v 0.024709 -0.340427 -0.050000
v 0.028310 -0.329254 -0.050000
v 0.031635 -0.318231 -0.050000
v 0.034682 -0.307357 -0.050000
v 0.037453 -0.296632 -0.050000
v 0.039947 -0.286058 -0.050000
v 0.042165 -0.275632 -0.050000
v 0.044105 -0.265357 -0.050000
v 0.045769 -0.255231 -0.050000
v 0.047231 -0.244708 -0.050000
v 0.048566 -0.233244 -0.050000
v 0.049774 -0.220837 -0.050000
v 0.050855 -0.207487 -0.050000
v 0.051808 -0.193195 -0.050000
v 0.052635 -0.177962 -0.050000
v 0.053334 -0.161785 -0.050000
v 0.053906 -0.144667 -0.050000
v 0.054351 -0.126606 -0.050000
v 0.054669 -0.107603 -0.050000
v 0.054860 -0.087657 -0.050000
v 0.054923 -0.066769 -0.050000
v 0.054923 0.187385 -0.050000
v 0.017231 0.187385 -0.050000
v 0.017231 -0.065692 -0.050000
v -0.086154 -0.065692 -0.050000
v -0.086154 -0.164769 -0.050000
v 0.037692 -0.164769 -0.050000
v 0.037692 -0.188462 -0.050000
v -0.086154 -0.188462 -0.050000
v -0.086154 -0.334923 -0.050000
v -0.090192 -0.336194 -0.050000
v -0.094051 -0.337496 -0.050000
v -0.097731 -0.338827 -0.050000
v -0.101231 -0.340188 -0.050000
v -0.104551 -0.341579 -0.050000
v -0.107692 -0.343000 -0.050000
v -0.110654 -0.344451 -0.050000
v -0.113436 -0.345932 -0.050000
v -0.116038 -0.347442 -0.050000
v -0.118462 -0.348983 -0.050000
v -0.120705 -0.350553 -0.050000
v -0.122769 -0.352154 -0.050000
v -0.123869 -0.353089 -0.050000
v -0.125013 -0.354098 -0.050000
v -0.126202 -0.355183 -0.050000
v -0.127436 -0.356342 -0.050000
v -0.128715 -0.357576 -0.050000
v -0.130038 -0.358885 -0.050000
v -0.131407 -0.360268 -0.050000
v -0.132821 -0.361727 -0.050000
v -0.134279 -0.363260 -0.050000
v -0.135782 -0.364868 -0.050000
v -0.137330 -0.366550 -0.050000
v -0.138923 -0.368308 -0.050000
v -0.139686 -0.369257 -0.050000
v -0.140538 -0.370312 -0.050000
v -0.141481 -0.371471 -0.050000
v -0.142513 -0.372735 -0.050000
v -0.143635 -0.374104 -0.050000
v -0.144846 -0.375577 -0.050000
v -0.146147 -0.377155 -0.050000
v -0.147538 -0.378838 -0.050000
v -0.149019 -0.380625 -0.050000
v -0.150590 -0.382517 -0.050000
v -0.152250 -0.384514 -0.050000
v -0.154000 -0.386615 -0.050000
v -0.159385 -0.394154 -0.050000
v -0.159385 -0.188462 -0.050000
v -0.277846 -0.188462 -0.050000
v -0.277846 -0.164769 -0.050000
v -0.159385 -0.164769 -0.050000
v -0.159385 -0.066769 -0.050000
v -0.258462 -0.066769 -0.050000
v -0.258462 0.285385 -0.050000
v -0.159385 0.285385 -0.050000
v -0.159385 0.379077 -0.050000
v -0.277846 0.379077 -0.050000
v -0.277846 0.401692 -0.050000
v -0.159385 0.401692 -0.050000
v -0.159385 0.476000 -0.050000
v -0.159486 0.480345 -0.050000
v -0.159788 0.484406 -0.050000
v -0.160293 0.488183 -0.050000
v -0.161000 0.491675 -0.050000
v -0.161909 0.494884 -0.050000
v -0.163019 0.497808 -0.050000
v -0.164332 0.500448 -0.050000
v -0.165846 0.502803 -0.050000
v -0.167562 0.504875 -0.050000
v -0.169481 0.506662 -0.050000
v -0.171601 0.508166 -0.050000
v -0.173923 0.509385 -0.050000
v -0.176410 0.510417 -0.050000
v -0.179024 0.511359 -0.050000
v -0.181764 0.512212 -0.050000
v -0.184632 0.512974 -0.050000
v -0.187628 0.513647 -0.050000
v -0.190750 0.514231 -0.050000
v -0.193999 0.514724 -0.050000
v -0.197376 0.515128 -0.050000
v -0.200880 0.515442 -0.050000
v -0.204511 0.515667 -0.050000
v -0.208269 0.515801 -0.050000
v -0.212154 0.515846 -0.050000
v -0.210348 0.516190 -0.050000
v -0.208160 0.516863 -0.050000
v -0.205591 0.517865 -0.050000
v -0.202641 0.519197 -0.050000
v -0.199309 0.520857 -0.050000
v -0.195596 0.522846 -0.050000
v -0.191502 0.525165 -0.050000
v -0.187026 0.527812 -0.050000
v -0.182168 0.530789 -0.050000
v -0.176929 0.534094 -0.050000
v -0.171309 0.537729 -0.050000
v -0.165308 0.541692 -0.050000
v -0.159351 0.545686 -0.050000
v -0.153865 0.549410 -0.050000
v -0.148851 0.552865 -0.050000
v -0.144308 0.556051 -0.050000
v -0.140236 0.558968 -0.050000
v -0.136635 0.561615 -0.050000
v -0.133505 0.563994 -0.050000
v -0.130846 0.566103 -0.050000
v -0.128659 0.567942 -0.050000
v -0.126942 0.569513 -0.050000
v -0.125697 0.570814 -0.050000
v -0.124923 0.571846 -0.050000
v -0.124631 0.570979 -0.050000
v -0.124115 0.569812 -0.050000
v -0.123375 0.568346 -0.050000
v -0.122410 0.566581 -0.050000
v -0.121221 0.564517 -0.050000
v -0.119808 0.562154 -0.050000
v -0.118170 0.559491 -0.050000
v -0.116308 0.556530 -0.050000
v -0.114221 0.553269 -0.050000
v -0.111910 0.549709 -0.050000
v -0.109375 0.545850 -0.050000
v -0.106615 0.541692 -0.050000
v -0.103841 0.537549 -0.050000
v -0.101261 0.533735 -0.050000
v -0.098875 0.530250 -0.050000
v -0.096684 0.527094 -0.050000
v -0.094687 0.524267 -0.050000
v -0.092885 0.521769 -0.050000
v -0.091277 0.519600 -0.050000
v -0.089863 0.517761 -0.050000
v -0.088644 0.516250 -0.050000
v -0.087620 0.515068 -0.050000
v -0.086790 0.514216 -0.050000
v -0.086154 0.513692 -0.050000
v -0.086154 0.401692 -0.050000
v 0.037692 0.401692 -0.050000
v 0.037692 0.379077 -0.050000
v -0.086154 0.379077 -0.050000
v -0.086154 0.285385 -0.050000
v 0.017231 0.285385 -0.050000
v 0.017231 0.210000 -0.050000
v 0.269231 0.210000 -0.050000
v 0.269231 0.187385 -0.050000
v 0.137846 0.187385 -0.050000
v 0.137846 -0.028000 -0.050000
v 0.137839 -0.030161 -0.050000
v 0.137816 -0.032338 -0.050000
v 0.137779 -0.034529 -0.050000
v 0.137726 -0.036735 -0.050000
v 0.137659 -0.038956 -0.050000
v 0.137577 -0.041192 -0.050000
v 0.137480 -0.043443 -0.050000
v 0.137368 -0.045709 -0.050000
v 0.137240 -0.047990 -0.050000
v 0.137098 -0.050286 -0.050000
v 0.136941 -0.052597 -0.050000
v 0.136769 -0.054923 -0.050000
v 0.139835 -0.053629 -0.050000
v 0.142932 -0.052261 -0.050000
v 0.146058 -0.050817 -0.050000
v 0.149214 -0.049299 -0.050000
v 0.152400 -0.047706 -0.050000
v 0.155615 -0.046038 -0.050000
v 0.158861 -0.044296 -0.050000
v 0.162137 -0.042479 -0.050000
v 0.165442 -0.040587 -0.050000
v 0.168778 -0.038620 -0.050000
v 0.172143 -0.036578 -0.050000
v 0.175538 -0.034462 -0.050000
v 0.179368 -0.032166 -0.050000
v 0.182957 -0.029944 -0.050000
v 0.186308 -0.027798 -0.050000
v 0.189419 -0.025726 -0.050000
v 0.192291 -0.023730 -0.050000
v 0.194923 -0.021808 -0.050000
v 0.197316 -0.019960 -0.050000
v 0.199470 -0.018188 -0.050000
v 0.201385 -0.016490 -0.050000
v 0.203060 -0.014868 -0.050000
v 0.204496 -0.013319 -0.050000
v 0.205692 -0.011846 -0.050000
v 0.215385 -0.002154 -0.050000
v 0.254154 -0.063538 -0.050000
v 0.254154 -0.328462 -0.050000
v 0.251035 -0.328566 -0.050000
v 0.247782 -0.328880 -0.050000
v 0.244394 -0.329404 -0.050000
v 0.240872 -0.330137 -0.050000
v 0.237215 -0.331079 -0.050000
v 0.233423 -0.332231 -0.050000
v 0.229497 -0.333592 -0.050000
v 0.225436 -0.335162 -0.050000
v 0.221240 -0.336942 -0.050000
v 0.216910 -0.338932 -0.050000
v 0.212445 -0.341130 -0.050000
v 0.207846 -0.343538 -0.050000
v 0.206066 -0.344645 -0.050000
v 0.204316 -0.345812 -0.050000
v 0.202596 -0.347038 -0.050000
v 0.200906 -0.348325 -0.050000
v 0.199246 -0.349671 -0.050000
v 0.197615 -0.351077 -0.050000
v 0.196015 -0.352543 -0.050000
v 0.194444 -0.354068 -0.050000
v 0.192904 -0.355654 -0.050000
v 0.191393 -0.357299 -0.050000
v 0.189912 -0.359004 -0.050000
v 0.188462 -0.360769 -0.050000
v 0.186554 -0.363050 -0.050000
v 0.184782 -0.365226 -0.050000
v 0.183144 -0.367298 -0.050000
v 0.181641 -0.369265 -0.050000
v 0.180272 -0.371127 -0.050000
v 0.179038 -0.372885 -0.050000
v 0.177939 -0.374537 -0.050000
v 0.176974 -0.376085 -0.050000
v 0.176144 -0.377529 -0.050000
v 0.175449 -0.378868 -0.050000
v 0.174888 -0.380102 -0.050000
v 0.174462 -0.381231 -0.050000
v 0.170154 -0.389846 -0.050000
v 0.136769 -0.057077 -0.050000
v 0.135498 -0.082213 -0.050000
v 0.133479 -0.106645 -0.050000
v 0.130712 -0.130375 -0.050000
v 0.127197 -0.153402 -0.050000
v 0.122934 -0.175725 -0.050000
v 0.117923 -0.197346 -0.050000
v 0.112165 -0.218264 -0.050000
v 0.105658 -0.238479 -0.050000
v 0.098404 -0.257990 -0.050000
v 0.090402 -0.276799 -0.050000
v 0.081652 -0.294905 -0.050000
v 0.072154 -0.312308 -0.050000
v 0.170154 -0.312308 -0.050000
v 0.170154 -0.121692 -0.050000
v 0.170087 -0.117429 -0.050000
v 0.169885 -0.113256 -0.050000
v 0.169548 -0.109173 -0.050000
v 0.169077 -0.105179 -0.050000
v 0.168471 -0.101276 -0.050000
v 0.167731 -0.097462 -0.050000
v 0.166856 -0.093737 -0.050000
v 0.165846 -0.090103 -0.050000
v 0.164702 -0.086558 -0.050000
v 0.163423 -0.083103 -0.050000
v 0.162010 -0.079737 -0.050000
v 0.160462 -0.076462 -0.050000
v 0.158981 -0.073694 -0.050000
v 0.157410 -0.071137 -0.050000
v 0.155750 -0.068788 -0.050000
v 0.154000 -0.066650 -0.050000
v 0.152160 -0.064720 -0.050000
v 0.150231 -0.063000 -0.050000
v 0.148212 -0.061489 -0.050000
v 0.146103 -0.060188 -0.050000
v 0.143904 -0.059096 -0.050000
v 0.141615 -0.058214 -0.050000
v 0.139237 -0.057541 -0.050000
v -0.159385 -0.044154 -0.050000
v -0.159385 0.096923 -0.050000
v -0.179846 0.096923 -0.050000
v -0.179846 -0.015077 -0.050000
v -0.179801 -0.017014 -0.050000
v -0.179667 -0.018876 -0.050000
v -0.179442 -0.020663 -0.050000
v -0.179128 -0.022376 -0.050000
v -0.178724 -0.024014 -0.050000
v -0.178231 -0.025577 -0.050000
v -0.177647 -0.027065 -0.050000
v -0.176974 -0.028479 -0.050000
v -0.176212 -0.029817 -0.050000
v -0.175359 -0.031081 -0.050000
v -0.174417 -0.032270 -0.050000
v -0.173385 -0.033385 -0.050000
v -0.160462 -0.044154 -0.050000
v -0.086154 -0.042000 -0.050000
v -0.084000 -0.042000 -0.050000
v -0.082751 -0.041933 -0.050000
v -0.081517 -0.041731 -0.050000
v -0.080298 -0.041394 -0.050000
v -0.079094 -0.040923 -0.050000
v -0.077905 -0.040317 -0.050000
v -0.076731 -0.039577 -0.050000
v -0.075572 -0.038702 -0.050000
v -0.074427 -0.037692 -0.050000
v -0.073298 -0.036548 -0.050000
v -0.072184 -0.035269 -0.050000
v -0.071084 -0.033856 -0.050000
v -0.070000 -0.032308 -0.050000
v -0.062462 -0.014000 -0.050000
v -0.062462 0.098000 -0.050000
v -0.086154 0.098000 -0.050000
v -0.159385 0.120615 -0.050000
v -0.159385 0.262769 -0.050000
v -0.160462 0.262769 -0.050000
v -0.161868 0.262694 -0.050000
v -0.163214 0.262470 -0.050000
v -0.164500 0.262096 -0.050000
v -0.165726 0.261573 -0.050000
v -0.166893 0.260900 -0.050000
v -0.168000 0.260077 -0.050000
v -0.169047 0.259105 -0.050000
v -0.170034 0.257983 -0.050000
v -0.170962 0.256712 -0.050000
v -0.171829 0.255291 -0.050000
v -0.172637 0.253720 -0.050000
v -0.173385 0.252000 -0.050000
v -0.179846 0.235846 -0.050000
v -0.179846 0.120615 -0.050000
v -0.062462 0.235846 -0.050000
v -0.062506 0.237611 -0.050000
v -0.062641 0.239316 -0.050000
v -0.062865 0.240962 -0.050000
v -0.063179 0.242547 -0.050000
v -0.063583 0.244073 -0.050000
v -0.064077 0.245538 -0.050000
v -0.064660 0.246944 -0.050000
v -0.065333 0.248291 -0.050000
v -0.066096 0.249577 -0.050000
v -0.066949 0.250803 -0.050000
v -0.067891 0.251970 -0.050000
v -0.068923 0.253077 -0.050000
v -0.080769 0.263846 -0.050000
v -0.086154 0.263846 -0.050000
v -0.086154 0.121692 -0.050000
v -0.062462 0.121692 -0.050000
v 0.240154 0.507231 0.050000
v 0.240154 0.483538 0.050000
v 0.030154 0.483538 0.050000
v 0.030154 0.507231 0.050000
v 0.170154 -0.334923 0.050000
v 0.059231 -0.334923 0.050000
v 0.055589 -0.340076 0.050000
v 0.051842 -0.345124 0.050000
v 0.047990 -0.350067 0.050000
v 0.044034 -0.354906 0.050000
v 0.039973 -0.359640 0.050000
v 0.035808 -0.364269 0.050000
v 0.031537 -0.368794 0.050000
v 0.027162 -0.373214 0.050000
v 0.022683 -0.377529 0.050000
v 0.018098 -0.381739 0.050000
v 0.013409 -0.385845 0.050000
v 0.008615 -0.389846 0.050000
v 0.007538 -0.386615 0.050000
v 0.012246 -0.374844 0.050000
v 0.016677 -0.363222 0.050000
v 0.020832 -0.351750 0.050000
v 0.024709 -0.340427 0.050000
v 0.028310 -0.329254 0.050000
v 0.031635 -0.318231 0.050000
v 0.034682 -0.307357 0.050000
v 0.037453 -0.296632 0.050000
v 0.039947 -0.286058 0.050000
v 0.042165 -0.275632 0.050000
v 0.044105 -0.265357 0.050000
v 0.045769 -0.255231 0.050000
v 0.047231 -0.244708 0.050000
v 0.048566 -0.233244 0.050000
v 0.049774 -0.220837 0.050000
v 0.050855 -0.207487 0.050000
v 0.051808 -0.193195 0.050000
v 0.052635 -0.177962 0.050000
v 0.053334 -0.161785 0.050000
v 0.053906 -0.144667 0.050000
v 0.054351 -0.126606 0.050000
v 0.054669 -0.107603 0.050000
v 0.054860 -0.087657 0.050000
v 0.054923 -0.066769 0.050000
v 0.054923 0.187385 0.050000
v 0.017231 0.187385 0.050000
v 0.017231 -0.065692 0.050000
v -0.086154 -0.065692 0.050000
v -0.086154 -0.164769 0.050000
v 0.037692 -0.164769 0.050000
v 0.037692 -0.188462 0.050000
v -0.086154 -0.188462 0.050000
v -0.086154 -0.334923 0.050000
v -0.090192 -0.336194 0.050000
v -0.094051 -0.337496 0.050000
v -0.097731 -0.338827 0.050000
v -0.101231 -0.340188 0.050000
v -0.104551 -0.341579 0.050000
v -0.107692 -0.343000 0.050000
v -0.110654 -0.344451 0.050000
v -0.113436 -0.345932 0.050000
v -0.116038 -0.347442 0.050000
v -0.118462 -0.348983 0.050000
v -0.120705 -0.350553 0.050000
v -0.122769 -0.352154 0.050000
v -0.123869 -0.353089 0.050000
v -0.125013 -0.354098 0.050000
v -0.126202 -0.355183 0.050000
v -0.127436 -0.356342 0.050000
v -0.128715 -0.357576 0.050000
v -0.130038 -0.358885 0.050000
v -0.131407 -0.360268 0.050000
v -0.132821 -0.361727 0.050000
v -0.134279 -0.363260 0.050000
v -0.135782 -0.364868 0.050000
v -0.137330 -0.366550 0.050000
v -0.138923 -0.368308 0.050000
v -0.139686 -0.369257 0.050000
v -0.140538 -0.370312 0.050000
v -0.141481 -0.371471 0.050000
v -0.142513 -0.372735 0.050000
v -0.143635 -0.374104 0.050000
v -0.144846 -0.375577 0.050000
v -0.146147 -0.377155 0.050000
v -0.147538 -0.378838 0.050000
v -0.149019 -0.380625 0.050000
v -0.150590 -0.382517 0.050000
v -0.152250 -0.384514 0.050000
v -0.154000 -0.386615 0.050000
v -0.159385 -0.394154 0.050000
v -0.159385 -0.188462 0.050000
v -0.277846 -0.188462 0.050000
v -0.277846 -0.164769 0.050000
v -0.159385 -0.164769 0.050000
v -0.159385 -0.066769 0.050000
v -0.258462 -0.066769 0.050000
v -0.258462 0.285385 0.050000
v -0.159385 0.285385 0.050000
v -0.159385 0.379077 0.050000
v -0.277846 0.379077 0.050000
v -0.277846 0.401692 0.050000
v -0.159385 0.401692 0.050000
v -0.159385 0.476000 0.050000
v -0.159486 0.480345 0.050000
v -0.159788 0.484406 0.050000
v -0.160293 0.488183 0.050000
v -0.161000 0.491675 0.050000
v -0.161909 0.494884 0.050000
v -0.163019 0.497808 0.050000
v -0.164332 0.500448 0.050000
v -0.165846 0.502803 0.050000
v -0.167562 0.504875 0.050000
v -0.169481 0.506662 0.050000
v -0.171601 0.508166 0.050000
v -0.173923 0.509385 0.050000
v -0.176410 0.510417 0.050000
v -0.179024 0.511359 0.050000
v -0.181764 0.512212 0.050000
v -0.184632 0.512974 0.050000
v -0.187628 0.513647 0.050000
v -0.190750 0.514231 0.050000
v -0.193999 0.514724 0.050000
v -0.197376 0.515128 0.050000
v -0.200880 0.515442 0.050000
v -0.204511 0.515667 0.050000
v -0.208269 0.515801 0.050000
v -0.212154 0.515846 0.050000
v -0.210348 0.516190 0.050000
v -0.208160 0.516863 0.050000
v -0.205591 0.517865 0.050000
v -0.202641 0.519197 0.050000
v -0.199309 0.520857 0.050000
v -0.195596 0.522846 0.050000
v -0.191502 0.525165 0.050000
v -0.187026 0.527812 0.050000
v -0.182168 0.530789 0.050000
v -0.176929 0.534094 0.050000
v -0.171309 0.537729 0.050000
v -0.165308 0.541692 0.050000
v -0.159351 0.545686 0.050000
v -0.153865 0.549410 0.050000
v -0.148851 0.552865 0.050000
v -0.144308 0.556051 0.050000
v -0.140236 0.558968 0.050000
v -0.136635 0.561615 0.050000
v -0.133505 0.563994 0.050000
v -0.130846 0.566103 0.050000
v -0.128659 0.567942 0.050000
v -0.126942 0.569513 0.050000
v -0.125697 0.570814 0.050000
v -0.124923 0.571846 0.050000
v -0.124631 0.570979 0.050000
v -0.124115 0.569812 0.050000
v -0.123375 0.568346 0.050000
v -0.122410 0.566581 0.050000
v -0.121221 0.564517 0.050000
v -0.119808 0.562154 0.050000
v -0.118170 0.559491 0.050000
v -0.116308 0.556530 0.050000
v -0.114221 0.553269 0.050000
v -0.111910 0.549709 0.050000
v -0.109375 0.545850 0.050000
v -0.106615 0.541692 0.050000
v -0.103841 0.537549 0.050000
v -0.101261 0.533735 0.050000
v -0.098875 0.530250 0.050000
v -0.096684 0.527094 0.050000
v -0.094687 0.524267 0.050000
v -0.092885 0.521769 0.050000
v -0.091277 0.519600 0.050000
v -0.089863 0.517761 0.050000
v -0.088644 0.516250 0.050000
v -0.087620 0.515068 0.050000
v -0.086790 0.514216 0.050000
v -0.086154 0.513692 0.050000
v -0.086154 0.401692 0.050000
v 0.037692 0.401692 0.050000
v 0.037692 0.379077 0.050000
v -0.086154 0.379077 0.050000
v -0.086154 0.285385 0.050000
v 0.017231 0.285385 0.050000
v 0.017231 0.210000 0.050000
v 0.269231 0.210000 0.050000
v 0.269231 0.187385 0.050000
v 0.137846 0.187385 0.050000
v 0.137846 -0.028000 0.050000
v 0.137839 -0.030161 0.050000
v 0.137816 -0.032338 0.050000
v 0.137779 -0.034529 0.050000
v 0.137726 -0.036735 0.050000
v 0.137659 -0.038956 0.050000
v 0.137577 -0.041192 0.050000
v 0.137480 -0.043443 0.050000
v 0.137368 -0.045709 0.050000
v 0.137240 -0.047990 0.050000
v 0.137098 -0.050286 0.050000
v 0.136941 -0.052597 0.050000
v 0.136769 -0.054923 0.050000
v 0.139835 -0.053629 0.050000
v 0.142932 -0.052261 0.050000
v 0.146058 -0.050817 0.050000
v 0.149214 -0.049299 0.050000
v 0.152400 -0.047706 0.050000
v 0.155615 -0.046038 0.050000
v 0.158861 -0.044296 0.050000
v 0.162137 -0.042479 0.050000
v 0.165442 -0.040587 0.050000
v 0.168778 -0.038620 0.050000
v 0.172143 -0.036578 0.050000
v 0.175538 -0.034462 0.050000
v 0.179368 -0.032166 0.050000
v 0.182957 -0.029944 0.050000
v 0.186308 -0.027798 0.050000
v 0.189419 -0.025726 0.050000
v 0.192291 -0.023730 0.050000
v 0.194923 -0.021808 0.050000
v 0.197316 -0.019960 0.050000
v 0.199470 -0.018188 0.050000
v 0.201385 -0.016490 0.050000
v 0.203060 -0.014868 0.050000
v 0.204496 -0.013319 0.050000
v 0.205692 -0.011846 0.050000
v 0.215385 -0.002154 0.050000
v 0.254154 -0.063538 0.050000
v 0.254154 -0.328462 0.050000
v 0.251035 -0.328566 0.050000
v 0.247782 -0.328880 0.050000
v 0.244394 -0.329404 0.050000
v 0.240872 -0.330137 0.050000
v 0.237215 -0.331079 0.050000
v 0.233423 -0.332231 0.050000
v 0.229497 -0.333592 0.050000
v 0.225436 -0.335162 0.050000
v 0.221240 -0.336942 0.050000
v 0.216910 -0.338932 0.050000
v 0.212445 -0.341130 0.050000
v 0.207846 -0.343538 0.050000
v 0.206066 -0.344645 0.050000
v 0.204316 -0.345812 0.050000
v 0.202596 -0.347038 0.050000
v 0.200906 -0.348325 0.050000
v 0.199246 -0.349671 0.050000
v 0.197615 -0.351077 0.050000
v 0.196015 -0.352543 0.050000
v 0.194444 -0.354068 0.050000
v 0.192904 -0.355654 0.050000
v 0.191393 -0.357299 0.050000
v 0.189912 -0.359004 0.050000
v 0.188462 -0.360769 0.050000
v 0.186554 -0.363050 0.050000
v 0.184782 -0.365226 0.050000
v 0.183144 -0.367298 0.050000
v 0.181641 -0.369265 0.050000
v 0.180272 -0.371127 0.050000
v 0.179038 -0.372885 0.050000
v 0.177939 -0.374537 0.050000
v 0.176974 -0.376085 0.050000
v 0.176144 -0.377529 0.050000
v 0.175449 -0.378868 0.050000
v 0.174888 -0.380102 0.050000
v 0.174462 -0.381231 0.050000
v 0.170154 -0.389846 0.050000
v 0.136769 -0.057077 0.050000
v 0.135498 -0.082213 0.050000
v 0.133479 -0.106645 0.050000
v 0.130712 -0.130375 0.050000
v 0.127197 -0.153402 0.050000
v 0.122934 -0.175725 0.050000
v 0.117923 -0.197346 0.050000
v 0.112165 -0.218264 0.050000
v 0.105658 -0.238479 0.050000
v 0.098404 -0.257990 0.050000
v 0.090402 -0.276799 0.050000
v 0.081652 -0.294905 0.050000
v 0.072154 -0.312308 0.050000
v 0.170154 -0.312308 0.050000
v 0.170154 -0.121692 0.050000
v 0.170087 -0.117429 0.050000
v 0.169885 -0.113256 0.050000
v 0.169548 -0.109173 0.050000
v 0.169077 -0.105179 0.050000
v 0.168471 -0.101276 0.050000
v 0.167731 -0.097462 0.050000
v 0.166856 -0.093737 0.050000
v 0.165846 -0.090103 0.050000
v 0.164702 -0.086558 0.050000
v 0.163423 -0.083103 0.050000
v 0.162010 -0.079737 0.050000
v 0.160462 -0.076462 0.050000
v 0.158981 -0.073694 0.050000
v 0.157410 -0.071137 0.050000
v 0.155750 -0.068788 0.050000
v 0.154000 -0.066650 0.050000
v 0.152160 -0.064720 0.050000
v 0.150231 -0.063000 0.050000
v 0.148212 -0.061489 0.050000
v 0.146103 -0.060188 0.050000
v 0.143904 -0.059096 0.050000
v 0.141615 -0.058214 0.050000
v 0.139237 -0.057541 0.050000
v -0.159385 -0.044154 0.050000
v -0.159385 0.096923 0.050000
v -0.179846 0.096923 0.050000
v -0.179846 -0.015077 0.050000
v -0.179801 -0.017014 0.050000
v -0.179667 -0.018876 0.050000
v -0.179442 -0.020663 0.050000
v -0.179128 -0.022376 0.050000
v -0.178724 -0.024014 0.050000
v -0.178231 -0.025577 0.050000
v -0.177647 -0.027065 0.050000
v -0.176974 -0.028479 0.050000
v -0.176212 -0.029817 0.050000
v -0.175359 -0.031081 0.050000
v -0.174417 -0.032270 0.050000
v -0.173385 -0.033385 0.050000
v -0.160462 -0.044154 0.050000
v -0.086154 -0.042000 0.050000
v -0.084000 -0.042000 0.050000
v -0.082751 -0.041933 0.050000
v -0.081517 -0.041731 0.050000
v -0.080298 -0.041394 0.050000
v -0.079094 -0.040923 0.050000
v -0.077905 -0.040317 0.050000
v -0.076731 -0.039577 0.050000
v -0.075572 -0.038702 0.050000
v -0.074427 -0.037692 0.050000
v -0.073298 -0.036548 0.050000
v -0.072184 -0.035269 0.050000
v -0.071084 -0.033856 0.050000
v -0.070000 -0.032308 0.050000
v -0.062462 -0.014000 0.050000
v -0.062462 0.098000 0.050000
v -0.086154 0.098000 0.050000
v -0.159385 0.120615 0.050000
v -0.159385 0.262769 0.050000
v -0.160462 0.262769 0.050000
v -0.161868 0.262694 0.050000
v -0.163214 0.262470 0.050000
v -0.164500 0.262096 0.050000
v -0.165726 0.261573 0.050000
v -0.166893 0.260900 0.050000
v -0.168000 0.260077 0.050000
v -0.169047 0.259105 0.050000
v -0.170034 0.257983 0.050000
v -0.170962 0.256712 0.050000
v -0.171829 0.255291 0.050000
v -0.172637 0.253720 0.050000
v -0.173385 0.252000 0.050000
v -0.179846 0.235846 0.050000
v -0.179846 0.120615 0.050000
v -0.062462 0.235846 0.050000
v -0.062506 0.237611 0.050000
v -0.062641 0.239316 0.050000
v -0.062865 0.240962 0.050000
v -0.063179 0.242547 0.050000
v -0.063583 0.244073 0.050000
v -0.064077 0.245538 0.050000
v -0.064660 0.246944 0.050000
v -0.065333 0.248291 0.050000
v -0.066096 0.249577 0.050000
v -0.066949 0.250803 0.050000
v -0.067891 0.251970 0.050000
v -0.068923 0.253077 0.050000
v -0.080769 0.263846 0.050000
v -0.086154 0.263846 0.050000
v -0.086154 0.121692 0.050000
v -0.062462 0.121692 0.050000
vn -0.0000 -0.0000 -1.0000
vn -0.0000 -0.0000 1.0000
vn -0.5674 0.8235 -0.0000
vn 0.9997 -0.0237 -0.0000
vn 0.6754 -0.7374 -0.0000
vn -0.9801 -0.1983 -0.0000
vn 0.3864 -0.9223 -0.0000
vn -0.7539 0.6569 -0.0000
vn -0.0000 1.0000 -0.0000
vn 1.0000 -0.0000 -0.0000
vn 0.6531 -0.7573 -0.0000
vn -0.9912 -0.1325 -0.0000
vn 0.3625 -0.9320 -0.0000
vn 0.8358 0.5491 -0.0000
vn -1.0000 -0.0000 -0.0000
vn -0.7117 0.7024 -0.0000
vn -0.5617 0.8273 -0.0000
vn 0.6298 -0.7768 -0.0000
vn -0.9972 -0.0744 -0.0000
vn 0.3402 -0.9404 -0.0000
vn -1.0000 0.0030 -0.0000
vn -0.5187 0.8550 -0.0000
vn -0.0000 -1.0000 -0.0000
vn 0.6056 -0.7958 -0.0000
vn -0.9997 -0.0232 -0.0000
vn 0.3195 -0.9476 -0.0000
vn 0.8332 0.5530 -0.0000
vn -0.5569 0.8306 -0.0000
vn 0.9966 -0.0824 -0.0000
vn 0.9995 -0.0303 -0.0000
vn 0.5806 -0.8142 -0.0000
vn 0.3003 -0.9538 -0.0000
vn -0.9517 -0.3072 -0.0000
vn -0.6616 0.7498 -0.0000
vn -0.5511 0.8344 -0.0000
vn 0.5547 -0.8321 -0.0000
vn -0.9978 0.0666 -0.0000
vn -1.0000 0.0096 -0.0000
vn -0.5079 0.8614 -0.0000
vn 0.5281 -0.8492 -0.0000
vn 0.8309 0.5564 -0.0000
vn -0.9635 -0.2676 -0.0000
vn -0.6025 0.7981 -0.0000
vn 0.9641 -0.2654 -0.0000
vn -0.5430 0.8397 -0.0000
vn 0.4638 -0.8859 -0.0000
vn -0.9967 0.0807 -0.0000
vn -0.9735 -0.2287 -0.0000
vn 0.9993 -0.0368 -0.0000
vn 0.4418 -0.8971 -0.0000
vn 0.8283 0.5603 -0.0000
vn -0.9817 -0.1906 -0.0000
vn -0.5334 0.8459 -0.0000
vn 0.9519 -0.3064 -0.0000
vn -0.5336 0.8457 -0.0000
vn 0.4175 -0.9087 -0.0000
vn -0.9953 0.0969 -0.0000
vn -0.9882 -0.1533 -0.0000
vn -0.4539 0.8910 -0.0000
vn 0.3905 -0.9206 -0.0000
vn -0.9933 0.1157 -0.0000
vn 0.8252 0.5649 -0.0000
vn -0.9931 -0.1172 -0.0000
vn -0.4968 0.8679 -0.0000
vn -0.5225 0.8527 -0.0000
vn 0.8030 -0.5960 -0.0000
vn -0.3644 0.9312 -0.0000
vn -0.9461 0.3240 -0.0000
vn 0.9373 -0.3485 -0.0000
vn 0.9933 -0.1158 -0.0000
vn -0.9905 0.1376 -0.0000
vn 0.8214 0.5703 -0.0000
vn -0.9999 0.0167 -0.0000
vn -0.5091 0.8607 -0.0000
vn 0.9991 -0.0431 -0.0000
vn 0.7888 -0.6146 -0.0000
vn -0.9868 0.1622 -0.0000
vn -0.9966 -0.0821 -0.0000
vn -0.2661 0.9639 -0.0000
vn 0.7742 -0.6330 -0.0000
vn 0.8168 0.5769 -0.0000
vn -0.9988 -0.0483 -0.0000
vn -0.1615 0.9869 -0.0000
vn -0.9402 0.3405 -0.0000
vn 0.9285 -0.3714 -0.0000
vn 0.9202 -0.3915 -0.0000
vn -0.4927 0.8702 -0.0000
vn -0.9826 0.1856 -0.0000
vn -0.9999 -0.0158 -0.0000
vn -0.0538 0.9986 -0.0000
vn 0.7590 -0.6511 -0.0000
vn -0.9781 0.2080 -0.0000
vn 0.8109 0.5852 -0.0000
vn 0.7672 -0.6414 -0.0000
vn 0.9171 -0.3987 -0.0000
vn -0.4723 0.8815 -0.0000
vn 0.7725 -0.6350 -0.0000
vn -0.9997 0.0246 -0.0000
vn 0.8893 -0.4573 -0.0000
vn 0.9004 -0.4351 -0.0000
vn -0.4851 0.8744 -0.0000
vn -0.7071 0.7071 -0.0000
vn 0.7434 -0.6689 -0.0000
vn -0.9733 0.2296 -0.0000
vn 0.8033 0.5956 -0.0000
vn -0.9344 0.3563 -0.0000
vn 0.8535 -0.5211 -0.0000
vn -0.4460 0.8950 -0.0000
vn 0.9885 -0.1509 -0.0000
vn 0.8455 0.5340 -0.0000
vn -0.9994 0.0334 -0.0000
vn 0.9988 -0.0494 -0.0000
vn -0.7762 0.6304 -0.0000
vn 0.8079 -0.5893 -0.0000
vn 0.8778 -0.4791 -0.0000
vn 0.7272 -0.6864 -0.0000
vn -0.9682 0.2502 -0.0000
vn 0.7930 0.6092 -0.0000
vn -0.7332 0.6800 -0.0000
vn 0.7507 -0.6606 -0.0000
vn -0.4113 0.9115 -0.0000
vn 0.9823 -0.1876 -0.0000
vn 0.7797 -0.6262 -0.0000
vn -0.9629 0.2699 -0.0000
vn -0.9991 0.0432 -0.0000
vn -0.9247 0.3808 -0.0000
vn 0.6804 -0.7328 -0.0000
vn -0.3634 0.9316 -0.0000
vn 0.7107 -0.7035 -0.0000
vn -0.4730 0.8811 -0.0000
vn -0.6958 0.7182 -0.0000
vn 0.5965 -0.8026 -0.0000
vn 0.7776 -0.6287 -0.0000
vn 0.7782 0.6280 -0.0000
vn 0.4997 -0.8662 -0.0000
vn -0.9574 0.2887 -0.0000
vn -0.2941 0.9558 -0.0000
vn 0.9985 -0.0557 -0.0000
vn 0.9997 0.0232 -0.0000
vn 0.7760 -0.6308 -0.0000
vn -0.4604 0.8877 -0.0000
vn -0.6635 0.7482 -0.0000
vn 0.3926 -0.9197 -0.0000
vn 0.7746 -0.6325 -0.0000
vn 0.0336 -0.9994 -0.0000
vn 0.7555 0.6551 -0.0000
vn -0.4472 0.8944 -0.0000
vn -0.1871 0.9823 -0.0000
vn 0.9974 0.0721 -0.0000
vn 0.7734 -0.6339 -0.0000
vn 0.2792 -0.9602 -0.0000
vn 0.0961 -0.9954 -0.0000
vn -0.6354 0.7722 -0.0000
vn -0.0115 -0.9999 -0.0000
vn 0.9742 -0.2258 -0.0000
vn 0.9981 -0.0618 -0.0000
vn 0.6938 -0.7202 -0.0000
vn 0.1644 -0.9864 -0.0000
vn 0.1527 -0.9883 -0.0000
vn -0.9985 0.0542 -0.0000
vn -0.4335 0.9012 -0.0000
vn -0.9518 0.3068 -0.0000
vn -0.0358 -0.9994 -0.0000
vn 0.9922 0.1245 -0.0000
vn 0.7724 -0.6352 -0.0000
vn -0.6110 0.7916 -0.0000
vn -0.9285 0.3713 -0.0000
vn -0.0617 -0.9981 -0.0000
vn 0.9977 -0.0678 -0.0000
vn 0.0531 -0.9986 -0.0000
vn -0.4192 0.9079 -0.0000
vn -0.0893 -0.9960 -0.0000
vn 0.9836 0.1804 -0.0000
vn 0.7715 -0.6362 -0.0000
vn 0.2037 -0.9790 -0.0000
vn -0.4043 0.9146 -0.0000
vn -0.5897 0.8076 -0.0000
vn -0.1187 -0.9929 -0.0000
vn 0.7707 -0.6371 -0.0000
vn 0.2495 -0.9684 -0.0000
vn 0.8137 -0.5812 -0.0000
vn 0.9973 -0.0738 -0.0000
vn 0.9709 0.2394 -0.0000
vn 0.6764 -0.7365 -0.0000
vn 0.2907 -0.9568 -0.0000
vn 0.7165 0.6976 -0.0000
vn -0.3888 0.9213 -0.0000
vn -0.5709 0.8210 -0.0000
vn -0.1502 -0.9887 -0.0000
vn 0.7701 -0.6380 -0.0000
vn 0.3275 -0.9448 -0.0000
vn 0.7410 -0.6716 -0.0000
vn -0.8000 0.6000 -0.0000
vn -0.1836 -0.9830 -0.0000
vn 0.9536 0.3011 -0.0000
vn 0.9104 -0.4138 -0.0000
vn 0.7359 -0.6771 -0.0000
vn 0.9479 0.3186 -0.0000
vn 0.8944 -0.4472 -0.0000
vn 0.9310 0.3649 -0.0000
vn 0.9356 -0.3532 -0.0000
vn -0.6727 -0.7399 -0.0000
vn 0.3607 -0.9327 -0.0000
vn 0.6357 0.7719 -0.0000
vn 0.7305 -0.6829 -0.0000
vn 0.9145 0.4045 -0.0000
vn 0.9987 -0.0505 -0.0000
vn -0.5542 0.8324 -0.0000
vn -0.2192 -0.9757 -0.0000
vn -0.7225 0.6914 -0.0000
vn -0.1847 -0.9828 -0.0000
vn 0.7695 -0.6387 -0.0000
vn 0.8166 -0.5772 -0.0000
vn 0.7245 -0.6892 -0.0000
vn -0.2570 -0.9664 -0.0000
vn -0.2723 -0.9622 -0.0000
vn 0.9029 0.4299 -0.0000
vn 0.6588 -0.7523 -0.0000
vn -0.7314 -0.6820 -0.0000
vn 0.7181 -0.6960 -0.0000
vn 0.8926 0.4509 -0.0000
vn -0.5394 0.8420 -0.0000
vn 0.7684 -0.6399 -0.0000
vn -0.2970 -0.9549 -0.0000
vn -0.6751 0.7378 -0.0000
vn -0.3598 -0.9330 -0.0000
vn 0.7689 -0.6393 -0.0000
vn -0.7779 -0.6283 -0.0000
vn 0.8874 -0.4610 -0.0000
vn 0.7109 -0.7032 -0.0000
vn -0.9487 -0.3162 -0.0000
vn -0.3391 -0.9407 -0.0000
vn -0.4448 -0.8956 -0.0000
vn 1.0000 -0.0035 -0.0000
vn 0.6408 -0.7677 -0.0000
vn -0.8211 -0.5708 -0.0000
vn 0.8668 -0.4986 -0.0000
vn 0.7031 -0.7111 -0.0000
vn 0.8775 0.4796 -0.0000
vn -0.3833 -0.9236 -0.0000
vn -0.6437 0.7653 -0.0000
vn -0.5251 -0.8510 -0.0000
vn 0.8688 0.4951 -0.0000
vn -0.8601 -0.5101 -0.0000
vn 0.8487 -0.5289 -0.0000
vn 0.6944 -0.7196 -0.0000
vn -0.4648 -0.8854 -0.0000
vn -0.5991 -0.8007 -0.0000
vn 0.8290 0.5592 -0.0000
vn -0.8944 -0.4472 -0.0000
vn 0.8326 -0.5538 -0.0000
vn 0.6847 -0.7289 -0.0000
vn 0.8665 0.4992 -0.0000
vn -0.5262 0.8504 -0.0000
vn -0.5784 -0.8158 -0.0000
vn -0.6214 0.7835 -0.0000
vn -0.6654 -0.7465 -0.0000
vn -0.9237 -0.3832 -0.0000
vn 0.8184 -0.5746 -0.0000
vn 0.6738 -0.7389 -0.0000
vn -0.6817 -0.7317 -0.0000
vn -0.7237 -0.6901 -0.0000
vn 0.9999 -0.0103 -0.0000
vn -0.9477 -0.3191 -0.0000
vn 0.8058 -0.5922 -0.0000
vn 0.6617 -0.7498 -0.0000
vn 0.8582 0.5133 -0.0000
vn -0.7700 -0.6380 -0.0000
vn -0.6050 0.7962 -0.0000
vn -0.7740 -0.6332 -0.0000
vn 0.7837 0.6211 -0.0000
vn -0.9667 -0.2559 -0.0000
vn 0.7945 -0.6072 -0.0000
vn 0.6478 -0.7618 -0.0000
vn -0.8165 -0.5773 -0.0000
vn -0.5142 0.8576 -0.0000
vn -0.9809 -0.1943 -0.0000
vn 0.7845 -0.6202 -0.0000
vn 0.6127 -0.7903 -0.0000
vn 0.8517 0.5240 -0.0000
vn -0.8522 -0.5233 -0.0000
vn -0.5923 0.8057 -0.0000
vn 0.7337 0.6795 -0.0000
vn -0.9908 -0.1351 -0.0000
vn 0.7754 -0.6315 -0.0000
vn 0.5735 -0.8192 -0.0000
vn -0.8817 -0.4718 -0.0000
vn -0.8190 0.5737 -0.0000
vn -0.9969 -0.0787 -0.0000
vn 0.5365 -0.8439 -0.0000
vn 0.8465 0.5323 -0.0000
vn -0.9041 -0.4273 -0.0000
vn -0.5823 0.8130 -0.0000
vn 0.9999 -0.0171 -0.0000
vn -0.9997 -0.0254 -0.0000
vn 0.7550 -0.6557 -0.0000
vn -0.8412 -0.5408 -0.0000
vn 0.5020 -0.8649 -0.0000
vn -0.9220 -0.3872 -0.0000
vn 0.6402 0.7682 -0.0000
vn 0.7366 -0.6763 -0.0000
vn -0.8954 -0.4452 -0.0000
vn 0.4699 -0.8827 -0.0000
vn 0.8423 0.5390 -0.0000
vn -0.9378 -0.3471 -0.0000
vn -0.7894 0.6139 -0.0000
vn -0.5741 0.8188 -0.0000
vn 0.7172 -0.6969 -0.0000
vn -0.9348 -0.3551 -0.0000
vn 0.4399 -0.8980 -0.0000
vn -0.5290 0.8486 -0.0000
vn 0.6968 -0.7173 -0.0000
vn -0.9622 -0.2725 -0.0000
vn 0.4122 -0.9111 -0.0000
vn 0.8388 0.5445 -0.0000
vn 0.3624 -0.9320 -0.0000
vn 0.5547 -0.8320 -0.0000
vn 0.3906 -0.9206 -0.0000
vn -0.5225 0.8526 -0.0000
vn 0.8109 0.5851 -0.0000
vn -0.4722 0.8815 -0.0000
vn 0.7796 -0.6262 -0.0000
vn -0.9247 0.3807 -0.0000
vn -0.3635 0.9316 -0.0000
vn 0.0335 -0.9994 -0.0000
vn 0.2791 -0.9603 -0.0000
vn -0.0116 -0.9999 -0.0000
vn -0.1188 -0.9929 -0.0000
vn 0.2906 -0.9568 -0.0000
vn 0.7409 -0.6716 -0.0000
vn -0.1837 -0.9830 -0.0000
vn 0.9479 0.3187 -0.0000
vn -0.2193 -0.9757 -0.0000
vn -0.1846 -0.9828 -0.0000
vn 0.7246 -0.6892 -0.0000
vn 0.6588 -0.7524 -0.0000
vn 0.7685 -0.6399 -0.0000
vn -0.6751 0.7377 -0.0000
vn -0.3392 -0.9407 -0.0000
vn 0.8669 -0.4986 -0.0000
vn -0.3834 -0.9236 -0.0000
vn -0.5990 -0.8007 -0.0000
vn 0.6847 -0.7288 -0.0000
vn -0.6215 0.7834 -0.0000
vn -0.6817 -0.7316 -0.0000
vn 0.6616 -0.7499 -0.0000
vn 0.7844 -0.6202 -0.0000
vn 0.6128 -0.7903 -0.0000
vn -0.5924 0.8057 -0.0000
vn 0.8466 0.5323 -0.0000
vn 0.4698 -0.8828 -0.0000
vn 0.4400 -0.8980 -0.0000
vt 0.404372 0.000000
vt 0.407104 0.000000
vt 0.409836 0.000000
vt 0.412568 0.000000
vt 0.401639 0.000000
vt 0.415301 0.000000
vt 0.398907 0.000000
vt 0.418033 0.000000
vt 0.396175 0.000000
vt 0.420765 0.000000
vt 0.393443 0.000000
vt 0.423497 0.000000
vt 0.292350 0.000000
vt 0.448087 0.000000
vt 0.289617 0.000000
vt 0.390710 0.000000
vt 0.426230 0.000000
vt 0.330601 0.000000
vt 0.357924 0.000000
vt 0.327869 0.000000
vt 0.387978 0.000000
vt 0.428962 0.000000
vt 0.489071 0.000000
vt 0.964481 0.000000
vt 0.967213 0.000000
vt 0.385246 0.000000
vt 0.431694 0.000000
vt 0.704918 0.000000
vt 0.010929 0.000000
vt 0.702186 0.000000
vt 0.707650 0.000000
vt 0.710383 0.000000
vt 0.748634 0.000000
vt 0.644809 0.000000
vt 0.308743 0.000000
vt 0.368852 0.000000
vt 0.371585 0.000000
vt 0.434426 0.000000
vt 0.303279 0.000000
vt 0.374317 0.000000
vt 0.355191 0.000000
vt 0.311475 0.000000
vt 0.243169 0.000000
vt 0.234973 0.000000
vt 0.237705 0.000000
vt 0.336066 0.000000
vt 0.338798 0.000000
vt 0.349727 0.000000
vt 0.322404 0.000000
vt 0.363388 0.000000
vt 0.319672 0.000000
vt 0.437158 0.000000
vt 0.439891 0.000000
vt 0.382514 0.000000
vt 0.316940 0.000000
vt 0.366120 0.000000
vt 0.147541 0.000000
vt 0.150273 0.000000
vt 0.325137 0.000000
vt 0.360656 0.000000
vt 0.314208 0.000000
vt 0.724044 0.000000
vt 0.106557 0.000000
vt 0.721311 0.000000
vt 0.333333 0.000000
vt 0.800546 0.000000
vt 0.546448 0.000000
vt 0.549180 0.000000
vt 0.352459 0.000000
vt 0.450820 0.000000
vt 0.346995 0.000000
vt 0.344262 0.000000
vt 0.341530 0.000000
vt 0.612022 0.000000
vt 0.751366 0.000000
vt 0.609290 0.000000
vt 0.306011 0.000000
vt 0.792350 0.000000
vt 0.554645 0.000000
vt 0.557377 0.000000
vt 0.786885 0.000000
vt 0.560109 0.000000
vt 0.562842 0.000000
vt 0.453552 0.000000
vt 0.445355 0.000000
vt 0.300546 0.000000
vt 0.295082 0.000000
vt 0.442623 0.000000
vt 0.284153 0.000000
vt 0.464481 0.000000
vt 0.281421 0.000000
vt 0.286885 0.000000
vt 0.297814 0.000000
vt 0.379781 0.000000
vt 0.459016 0.000000
vt 0.784153 0.000000
vt 0.565574 0.000000
vt 0.467213 0.000000
vt 0.278689 0.000000
vt 0.789617 0.000000
vt 0.005464 0.000000
vt 0.008197 0.000000
vt 0.000000 0.000000
vt 0.002732 0.000000
vt 0.024590 0.000000
vt 0.027322 0.000000
vt 0.060109 0.000000
vt 0.125683 0.000000
vt 0.863388 0.000000
vt 0.866120 0.000000
vt 0.021858 0.000000
vt 0.019126 0.000000
vt 0.743169 0.000000
vt 0.076503 0.000000
vt 0.740437 0.000000
vt 0.461749 0.000000
vt 0.475410 0.000000
vt 0.275956 0.000000
vt 0.472678 0.000000
vt 0.273224 0.000000
vt 0.267760 0.000000
vt 0.270492 0.000000
vt 0.265027 0.000000
vt 0.904372 0.000000
vt 0.997268 0.000000
vt 1.000000 0.000000
vt 0.483607 0.000000
vt 0.478142 0.000000
vt 0.262295 0.000000
vt 0.480874 0.000000
vt 0.486339 0.000000
vt 0.256831 0.000000
vt 0.259563 0.000000
vt 0.953552 0.000000
vt 0.950820 0.000000
vt 0.948087 0.000000
vt 0.945355 0.000000
vt 0.191257 0.000000
vt 0.193989 0.000000
vt 0.377049 0.000000
vt 0.937158 0.000000
vt 0.934426 0.000000
vt 0.931694 0.000000
vt 0.928962 0.000000
vt 0.926230 0.000000
vt 0.923497 0.000000
vt 0.920765 0.000000
vt 0.918033 0.000000
vt 0.915301 0.000000
vt 0.153005 0.000000
vt 0.155738 0.000000
vt 0.994536 0.000000
vt 0.989071 0.000000
vt 0.991803 0.000000
vt 0.912568 0.000000
vt 0.491803 0.000000
vt 0.500000 0.000000
vt 0.117486 0.000000
vt 0.909836 0.000000
vt 0.196721 0.000000
vt 0.188525 0.000000
vt 0.183060 0.000000
vt 0.185792 0.000000
vt 0.737705 0.000000
vt 0.087432 0.000000
vt 0.734973 0.000000
vt 0.939891 0.000000
vt 0.942623 0.000000
vt 0.890710 0.000000
vt 0.122951 0.000000
vt 0.961749 0.000000
vt 0.959016 0.000000
vt 0.956284 0.000000
vt 0.199454 0.000000
vt 0.202186 0.000000
vt 0.120219 0.000000
vt 0.251366 0.000000
vt 0.128415 0.000000
vt 0.494536 0.000000
vt 0.114754 0.000000
vt 0.502732 0.000000
vt 0.497268 0.000000
vt 0.907104 0.000000
vt 0.469945 0.000000
vt 0.822404 0.000000
vt 0.819672 0.000000
vt 0.901639 0.000000
vt 0.825137 0.000000
vt 0.816940 0.000000
vt 0.601093 0.000000
vt 0.603825 0.000000
vt 0.606557 0.000000
vt 0.598361 0.000000
vt 0.595628 0.000000
vt 0.898907 0.000000
vt 0.592896 0.000000
vt 0.827869 0.000000
vt 0.590164 0.000000
vt 0.830601 0.000000
vt 0.587432 0.000000
vt 0.833333 0.000000
vt 0.584699 0.000000
vt 0.836066 0.000000
vt 0.581967 0.000000
vt 0.838798 0.000000
vt 0.579235 0.000000
vt 0.841530 0.000000
vt 0.844262 0.000000
vt 0.576503 0.000000
vt 0.846995 0.000000
vt 0.573770 0.000000
vt 0.505464 0.000000
vt 0.849727 0.000000
vt 0.852459 0.000000
vt 0.571038 0.000000
vt 0.778689 0.000000
vt 0.508197 0.000000
vt 0.855191 0.000000
vt 0.568306 0.000000
vt 0.781421 0.000000
vt 0.857924 0.000000
vt 0.896175 0.000000
vt 0.510929 0.000000
vt 0.254098 0.000000
vt 0.893443 0.000000
vt 0.513661 0.000000
vt 0.887978 0.000000
vt 0.516393 0.000000
vt 0.885246 0.000000
vt 0.882514 0.000000
vt 0.519126 0.000000
vt 0.879781 0.000000
vt 0.877049 0.000000
vt 0.874317 0.000000
vt 0.521858 0.000000
vt 0.871585 0.000000
vt 0.868852 0.000000
vt 0.795082 0.000000
vt 0.524590 0.000000
vt 0.051913 0.000000
vt 0.043716 0.000000
vt 0.049180 0.000000
vt 0.860656 0.000000
vt 0.797814 0.000000
vt 0.551913 0.000000
vt 0.527322 0.000000
vt 0.803279 0.000000
vt 0.530055 0.000000
vt 0.543716 0.000000
vt 0.806011 0.000000
vt 0.532787 0.000000
vt 0.540984 0.000000
vt 0.808743 0.000000
vt 0.538251 0.000000
vt 0.811475 0.000000
vt 0.535519 0.000000
vt 0.713115 0.000000
vt 0.814208 0.000000
vt 0.969945 0.000000
vt 0.972678 0.000000
vt 0.715847 0.000000
vt 0.775956 0.000000
vt 0.456284 0.000000
vt 0.016393 0.000000
vt 0.062842 0.000000
vt 0.013661 0.000000
vt 0.975410 0.000000
vt 0.978142 0.000000
vt 0.674863 0.000000
vt 0.672131 0.000000
vt 0.773224 0.000000
vt 0.112022 0.000000
vt 0.718579 0.000000
vt 0.770492 0.000000
vt 0.109290 0.000000
vt 0.765027 0.000000
vt 0.767760 0.000000
vt 0.762295 0.000000
vt 0.759563 0.000000
vt 0.040984 0.000000
vt 0.038251 0.000000
vt 0.754098 0.000000
vt 0.756831 0.000000
vt 0.030055 0.000000
vt 0.032787 0.000000
vt 0.057377 0.000000
vt 0.103825 0.000000
vt 0.101093 0.000000
vt 0.726776 0.000000
vt 0.098361 0.000000
vt 0.245902 0.000000
vt 0.248634 0.000000
vt 0.136612 0.000000
vt 0.729508 0.000000
vt 0.095628 0.000000
vt 0.131148 0.000000
vt 0.240437 0.000000
vt 0.133880 0.000000
vt 0.745902 0.000000
vt 0.983607 0.000000
vt 0.986339 0.000000
vt 0.073770 0.000000
vt 0.980874 0.000000
vt 0.068306 0.000000
vt 0.180328 0.000000
vt 0.177596 0.000000
vt 0.169399 0.000000
vt 0.172131 0.000000
vt 0.166667 0.000000
vt 0.163934 0.000000
vt 0.161202 0.000000
vt 0.158470 0.000000
vt 0.144809 0.000000
vt 0.142077 0.000000
vt 0.139344 0.000000
vt 0.092896 0.000000
vt 0.732240 0.000000
vt 0.174863 0.000000
vt 0.090164 0.000000
vt 0.084699 0.000000
vt 0.081967 0.000000
vt 0.079235 0.000000
vt 0.625683 0.000000
vt 0.628415 0.000000
vt 0.071038 0.000000
vt 0.065574 0.000000
vt 0.614754 0.000000
vt 0.617486 0.000000
vt 0.204918 0.000000
vt 0.054645 0.000000
vt 0.620219 0.000000
vt 0.622951 0.000000
vt 0.631148 0.000000
vt 0.699454 0.000000
vt 0.696721 0.000000
vt 0.693989 0.000000
vt 0.691257 0.000000
vt 0.688525 0.000000
vt 0.685792 0.000000
vt 0.683060 0.000000
vt 0.680328 0.000000
vt 0.677596 0.000000
vt 0.669399 0.000000
vt 0.666667 0.000000
vt 0.663934 0.000000
vt 0.661202 0.000000
vt 0.658470 0.000000
vt 0.655738 0.000000
vt 0.653005 0.000000
vt 0.650273 0.000000
vt 0.647541 0.000000
vt 0.642076 0.000000
vt 0.639344 0.000000
vt 0.636612 0.000000
vt 0.633880 0.000000
vt 0.207650 0.000000
vt 0.035519 0.000000
vt 0.210383 0.000000
vt 0.213115 0.000000
vt 0.215847 0.000000
vt 0.218579 0.000000
vt 0.221311 0.000000
vt 0.224044 0.000000
vt 0.226776 0.000000
vt 0.229508 0.000000
vt 0.232240 0.000000
vt 0.046448 0.000000
s 0
f 149/1/1 150/2/1 151/3/1
f 149/1/1 151/3/1 152/4/1
f 148/5/1 149/1/1 152/4/1
f 148/5/1 152/4/1 153/6/1
f 147/7/1 148/5/1 153/6/1
f 147/7/1 153/6/1 154/8/1
f 146/9/1 147/7/1 154/8/1
f 146/9/1 154/8/1 155/10/1
f 145/11/1 146/9/1 156/12/1
f 108/13/1 165/14/1 107/15/1
f 144/16/1 145/11/1 157/17/1
f 122/18/1 132/19/1 121/20/1
f 143/21/1 144/16/1 158/22/1
f 180/23/1 354/24/1 355/25/1
f 142/26/1 143/21/1 159/27/1
f 259/28/1 5/29/1 258/30/1
f 5/29/1 260/31/1 261/32/1
f 275/33/1 237/34/1 5/29/1
f 114/35/1 136/36/1 137/37/1
f 160/38/1 142/26/1 159/27/1
f 112/39/1 137/37/1 138/40/1
f 122/18/1 131/41/1 132/19/1
f 115/42/1 136/36/1 114/35/1
f 90/43/1 87/44/1 88/45/1
f 124/46/1 125/47/1 129/48/1
f 119/49/1 134/50/1 118/51/1
f 161/52/1 162/53/1 141/54/1
f 117/55/1 134/50/1 135/56/1
f 90/43/1 55/57/1 56/58/1
f 120/59/1 132/19/1 133/60/1
f 119/49/1 133/60/1 134/50/1
f 118/51/1 134/50/1 117/55/1
f 157/17/1 145/11/1 156/12/1
f 116/61/1 135/56/1 115/42/1
f 266/62/1 40/63/1 265/64/1
f 123/65/1 131/41/1 122/18/1
f 294/66/1 201/67/1 202/68/1
f 130/69/1 131/41/1 123/65/1
f 121/20/1 132/19/1 120/59/1
f 129/48/1 130/69/1 124/46/1
f 107/15/1 165/14/1 166/70/1
f 124/46/1 130/69/1 123/65/1
f 117/55/1 135/56/1 116/61/1
f 128/71/1 125/47/1 127/72/1
f 126/73/1 127/72/1 125/47/1
f 225/74/1 276/75/1 224/76/1
f 113/77/1 137/37/1 112/39/1
f 156/12/1 146/9/1 155/10/1
f 291/78/1 204/79/1 205/80/1
f 289/81/1 206/82/1 207/83/1
f 107/15/1 166/70/1 167/84/1
f 108/13/1 164/85/1 165/14/1
f 112/39/1 138/40/1 111/86/1
f 109/87/1 163/88/1 164/85/1
f 105/89/1 171/90/1 104/91/1
f 107/15/1 167/84/1 106/92/1
f 110/93/1 140/94/1 109/87/1
f 109/87/1 140/94/1 163/88/1
f 109/87/1 164/85/1 108/13/1
f 106/92/1 169/95/1 105/89/1
f 288/96/1 207/83/1 208/97/1
f 115/42/1 135/56/1 136/36/1
f 104/91/1 172/98/1 103/99/1
f 290/100/1 205/80/1 206/82/1
f 3/101/1 4/102/1 1/103/1
f 3/101/1 1/103/1 2/104/1
f 129/48/1 125/47/1 128/71/1
f 142/26/1 161/52/1 141/54/1
f 10/105/1 11/106/1 23/107/1
f 47/108/1 317/109/1 318/110/1
f 9/111/1 23/107/1 8/112/1
f 273/113/1 29/114/1 272/115/1
f 105/89/1 169/95/1 170/116/1
f 175/117/1 102/118/1 174/119/1
f 101/120/1 102/118/1 175/117/1
f 99/121/1 100/122/1 101/120/1
f 99/121/1 101/120/1 98/123/1
f 332/124/1 366/125/1 367/126/1
f 175/117/1 178/127/1 98/123/1
f 176/128/1 178/127/1 175/117/1
f 97/129/1 98/123/1 178/127/1
f 177/130/1 178/127/1 176/128/1
f 97/129/1 178/127/1 179/131/1
f 95/132/1 96/133/1 350/134/1
f 349/135/1 96/133/1 348/136/1
f 348/136/1 96/133/1 347/137/1
f 90/43/1 71/138/1 72/139/1
f 158/22/1 144/16/1 157/17/1
f 110/93/1 139/140/1 140/94/1
f 97/129/1 344/141/1 96/133/1
f 344/141/1 97/129/1 343/142/1
f 343/142/1 97/129/1 342/143/1
f 342/143/1 97/129/1 341/144/1
f 341/144/1 97/129/1 340/145/1
f 340/145/1 97/129/1 339/146/1
f 339/146/1 97/129/1 338/147/1
f 97/129/1 337/148/1 338/147/1
f 337/148/1 97/129/1 336/149/1
f 90/43/1 57/150/1 58/151/1
f 179/131/1 365/152/1 97/129/1
f 179/131/1 363/153/1 364/154/1
f 97/129/1 335/155/1 336/149/1
f 180/23/1 363/153/1 179/131/1
f 365/152/1 335/155/1 97/129/1
f 335/155/1 365/152/1 366/125/1
f 181/156/1 184/157/1 44/158/1
f 334/159/1 335/155/1 366/125/1
f 90/43/1 72/139/1 73/160/1
f 90/43/1 70/161/1 71/138/1
f 90/43/1 68/162/1 69/163/1
f 271/164/1 33/165/1 270/166/1
f 179/131/1 364/154/1 365/152/1
f 96/133/1 345/167/1 346/168/1
f 47/108/1 327/169/1 46/170/1
f 163/88/1 140/94/1 162/53/1
f 181/156/1 354/24/1 180/23/1
f 353/171/1 354/24/1 181/156/1
f 352/172/1 353/171/1 181/156/1
f 351/173/1 352/172/1 181/156/1
f 90/43/1 74/174/1 75/175/1
f 367/126/1 351/173/1 45/176/1
f 120/59/1 133/60/1 119/49/1
f 45/176/1 181/156/1 44/158/1
f 90/43/1 93/177/1 48/178/1
f 367/126/1 45/176/1 332/124/1
f 182/179/1 184/157/1 181/156/1
f 43/180/1 44/158/1 185/181/1
f 183/182/1 184/157/1 182/179/1
f 332/124/1 45/176/1 46/170/1
f 185/181/1 44/158/1 184/157/1
f 366/125/1 333/183/1 334/159/1
f 103/99/1 172/98/1 173/184/1
f 95/132/1 350/134/1 302/185/1
f 302/185/1 350/134/1 334/159/1
f 302/185/1 334/159/1 301/186/1
f 332/124/1 333/183/1 366/125/1
f 98/123/1 101/120/1 175/117/1
f 301/186/1 333/183/1 317/109/1
f 331/187/1 332/124/1 46/170/1
f 95/132/1 302/185/1 303/188/1
f 300/189/1 301/186/1 317/109/1
f 221/190/1 222/191/1 223/192/1
f 220/193/1 221/190/1 223/192/1
f 219/194/1 220/193/1 223/192/1
f 330/195/1 331/187/1 46/170/1
f 218/196/1 219/194/1 223/192/1
f 95/132/1 303/188/1 304/197/1
f 217/198/1 218/196/1 223/192/1
f 95/132/1 304/197/1 305/199/1
f 216/200/1 217/198/1 223/192/1
f 95/132/1 305/199/1 306/201/1
f 215/202/1 216/200/1 223/192/1
f 95/132/1 306/201/1 307/203/1
f 214/204/1 215/202/1 223/192/1
f 95/132/1 307/203/1 308/205/1
f 213/206/1 214/204/1 223/192/1
f 95/132/1 308/205/1 309/207/1
f 95/132/1 309/207/1 310/208/1
f 212/209/1 213/206/1 223/192/1
f 95/132/1 310/208/1 311/210/1
f 211/211/1 212/209/1 223/192/1
f 43/180/1 185/181/1 186/212/1
f 95/132/1 311/210/1 312/213/1
f 95/132/1 312/213/1 313/214/1
f 210/215/1 211/211/1 286/216/1
f 43/180/1 186/212/1 187/217/1
f 95/132/1 313/214/1 314/218/1
f 209/219/1 210/215/1 287/220/1
f 95/132/1 314/218/1 315/221/1
f 329/222/1 330/195/1 46/170/1
f 43/180/1 187/217/1 188/223/1
f 95/132/1 315/221/1 94/224/1
f 328/225/1 329/222/1 46/170/1
f 288/96/1 208/97/1 287/220/1
f 43/180/1 188/223/1 189/226/1
f 327/169/1 328/225/1 46/170/1
f 326/227/1 327/169/1 47/108/1
f 289/81/1 207/83/1 288/96/1
f 43/180/1 189/226/1 190/228/1
f 325/229/1 326/227/1 47/108/1
f 290/100/1 206/82/1 289/81/1
f 324/230/1 325/229/1 47/108/1
f 43/180/1 190/228/1 191/231/1
f 323/232/1 324/230/1 47/108/1
f 322/233/1 323/232/1 47/108/1
f 291/78/1 205/80/1 290/100/1
f 321/234/1 322/233/1 47/108/1
f 43/180/1 191/231/1 192/235/1
f 320/236/1 321/234/1 47/108/1
f 319/237/1 320/236/1 47/108/1
f 318/110/1 319/237/1 47/108/1
f 300/189/1 317/109/1 47/108/1
f 104/91/1 171/90/1 172/98/1
f 292/238/1 204/79/1 291/78/1
f 43/180/1 192/235/1 193/239/1
f 20/240/1 17/241/1 19/242/1
f 94/224/1 315/221/1 316/243/1
f 94/224/1 300/189/1 47/108/1
f 293/244/1 203/245/1 292/238/1
f 43/180/1 193/239/1 194/246/1
f 294/66/1 202/68/1 293/244/1
f 295/247/1 201/67/1 294/66/1
f 43/180/1 194/246/1 195/248/1
f 200/249/1 201/67/1 296/250/1
f 43/180/1 195/248/1 196/251/1
f 199/252/1 200/249/1 297/253/1
f 198/254/1 199/252/1 298/255/1
f 43/180/1 196/251/1 197/256/1
f 262/257/1 197/256/1 299/258/1
f 43/180/1 197/256/1 262/257/1
f 180/23/1 356/259/1 357/260/1
f 43/180/1 262/257/1 263/261/1
f 94/224/1 316/243/1 300/189/1
f 199/252/1 297/253/1 298/255/1
f 200/249/1 296/250/1 297/253/1
f 201/67/1 295/247/1 296/250/1
f 111/86/1 138/40/1 139/140/1
f 211/211/1 285/262/1 286/216/1
f 114/35/1 137/37/1 113/77/1
f 141/54/1 162/53/1 140/94/1
f 106/92/1 168/263/1 169/95/1
f 7/264/1 24/265/1 6/266/1
f 106/92/1 167/84/1 168/263/1
f 24/265/1 8/112/1 23/107/1
f 180/23/1 358/267/1 359/268/1
f 248/269/1 5/29/1 247/270/1
f 223/192/1 285/262/1 211/211/1
f 285/262/1 223/192/1 284/271/1
f 45/176/1 351/173/1 181/156/1
f 94/224/1 47/108/1 48/178/1
f 93/177/1 94/224/1 48/178/1
f 42/272/1 43/180/1 263/261/1
f 42/272/1 263/261/1 264/273/1
f 223/192/1 283/274/1 284/271/1
f 41/275/1 42/272/1 264/273/1
f 223/192/1 281/276/1 282/277/1
f 223/192/1 280/278/1 281/276/1
f 223/192/1 279/279/1 280/278/1
f 16/280/1 20/240/1 15/281/1
f 223/192/1 277/282/1 278/283/1
f 41/275/1 264/273/1 265/64/1
f 40/63/1 41/275/1 265/64/1
f 12/284/1 13/285/1 22/286/1
f 292/238/1 203/245/1 204/79/1
f 224/76/1 276/75/1 223/192/1
f 180/23/1 355/25/1 356/259/1
f 39/287/1 40/63/1 266/62/1
f 293/244/1 202/68/1 203/245/1
f 38/288/1 39/287/1 266/62/1
f 38/288/1 266/62/1 267/289/1
f 37/290/1 38/288/1 267/289/1
f 91/291/1 92/292/1 93/177/1
f 91/291/1 93/177/1 90/43/1
f 301/186/1 334/159/1 333/183/1
f 48/178/1 51/293/1 90/43/1
f 37/290/1 267/289/1 268/294/1
f 36/295/1 37/290/1 268/294/1
f 49/296/1 51/293/1 48/178/1
f 89/297/1 90/43/1 88/45/1
f 50/298/1 51/293/1 49/296/1
f 96/133/1 344/141/1 345/167/1
f 6/266/1 274/299/1 5/29/1
f 90/43/1 69/163/1 70/161/1
f 180/23/1 361/300/1 362/301/1
f 274/299/1 28/302/1 273/113/1
f 180/23/1 360/303/1 361/300/1
f 6/266/1 26/304/1 274/299/1
f 180/23/1 359/268/1 360/303/1
f 90/43/1 67/305/1 68/162/1
f 90/43/1 66/306/1 67/305/1
f 96/133/1 346/168/1 347/137/1
f 90/43/1 56/58/1 57/150/1
f 90/43/1 63/307/1 64/308/1
f 90/43/1 62/309/1 63/307/1
f 90/43/1 61/310/1 62/309/1
f 90/43/1 60/311/1 61/310/1
f 90/43/1 59/312/1 60/311/1
f 90/43/1 58/151/1 59/312/1
f 210/215/1 286/216/1 287/220/1
f 299/258/1 197/256/1 198/254/1
f 160/38/1 161/52/1 142/26/1
f 159/27/1 143/21/1 158/22/1
f 105/89/1 170/116/1 171/90/1
f 51/293/1 54/313/1 90/43/1
f 54/313/1 51/293/1 53/314/1
f 53/314/1 51/293/1 52/315/1
f 35/316/1 36/295/1 269/317/1
f 90/43/1 64/308/1 65/318/1
f 34/319/1 35/316/1 269/317/1
f 34/319/1 269/317/1 270/166/1
f 33/165/1 34/319/1 270/166/1
f 32/320/1 33/165/1 271/164/1
f 90/43/1 65/318/1 66/306/1
f 31/321/1 32/320/1 271/164/1
f 30/322/1 31/321/1 272/115/1
f 230/323/1 231/324/1 275/33/1
f 29/114/1 30/322/1 272/115/1
f 28/302/1 29/114/1 273/113/1
f 111/86/1 139/140/1 110/93/1
f 27/325/1 28/302/1 274/299/1
f 180/23/1 357/260/1 358/267/1
f 26/304/1 27/325/1 274/299/1
f 25/326/1 26/304/1 6/266/1
f 24/265/1 25/326/1 6/266/1
f 223/192/1 282/277/1 283/274/1
f 5/29/1 274/299/1 275/33/1
f 269/317/1 36/295/1 268/294/1
f 225/74/1 226/327/1 276/75/1
f 226/327/1 227/328/1 275/33/1
f 90/43/1 75/175/1 76/329/1
f 21/330/1 15/281/1 20/240/1
f 227/328/1 228/331/1 275/33/1
f 228/331/1 229/332/1 275/33/1
f 229/332/1 230/323/1 275/33/1
f 180/23/1 362/301/1 363/153/1
f 90/43/1 73/160/1 74/174/1
f 231/324/1 232/333/1 275/33/1
f 174/119/1 102/118/1 103/99/1
f 287/220/1 208/97/1 209/219/1
f 258/30/1 5/29/1 257/334/1
f 257/334/1 5/29/1 256/335/1
f 256/335/1 5/29/1 255/336/1
f 255/336/1 5/29/1 254/337/1
f 254/337/1 5/29/1 253/338/1
f 253/338/1 5/29/1 252/339/1
f 252/339/1 5/29/1 251/340/1
f 251/340/1 5/29/1 250/341/1
f 250/341/1 5/29/1 249/342/1
f 249/342/1 5/29/1 248/269/1
f 247/270/1 5/29/1 246/343/1
f 246/343/1 5/29/1 245/344/1
f 245/344/1 5/29/1 244/345/1
f 244/345/1 5/29/1 243/346/1
f 243/346/1 5/29/1 242/347/1
f 242/347/1 5/29/1 241/348/1
f 241/348/1 5/29/1 240/349/1
f 240/349/1 5/29/1 239/350/1
f 239/350/1 5/29/1 238/351/1
f 238/351/1 5/29/1 237/34/1
f 236/352/1 237/34/1 275/33/1
f 235/353/1 236/352/1 275/33/1
f 234/354/1 235/353/1 275/33/1
f 233/355/1 234/354/1 275/33/1
f 232/333/1 233/355/1 275/33/1
f 7/264/1 8/112/1 24/265/1
f 272/115/1 31/321/1 271/164/1
f 174/119/1 103/99/1 173/184/1
f 9/111/1 10/105/1 23/107/1
f 198/254/1 298/255/1 299/258/1
f 23/107/1 11/106/1 22/286/1
f 276/75/1 226/327/1 275/33/1
f 11/106/1 12/284/1 22/286/1
f 90/43/1 54/313/1 55/57/1
f 223/192/1 276/75/1 277/282/1
f 76/329/1 77/356/1 90/43/1
f 13/285/1 14/357/1 21/330/1
f 77/356/1 78/358/1 90/43/1
f 78/358/1 79/359/1 90/43/1
f 79/359/1 80/360/1 90/43/1
f 80/360/1 81/361/1 90/43/1
f 14/357/1 15/281/1 21/330/1
f 81/361/1 82/362/1 90/43/1
f 82/362/1 83/363/1 90/43/1
f 83/363/1 84/364/1 90/43/1
f 223/192/1 278/283/1 279/279/1
f 84/364/1 85/365/1 90/43/1
f 22/286/1 13/285/1 21/330/1
f 259/28/1 260/31/1 5/29/1
f 85/365/1 86/366/1 90/43/1
f 16/280/1 17/241/1 20/240/1
f 86/366/1 87/44/1 90/43/1
f 19/242/1 17/241/1 18/367/1
f 350/134/1 96/133/1 349/135/1
f 516/1/2 518/3/2 517/2/2
f 516/1/2 519/4/2 518/3/2
f 515/5/2 519/4/2 516/1/2
f 515/5/2 520/6/2 519/4/2
f 514/7/2 520/6/2 515/5/2
f 514/7/2 521/8/2 520/6/2
f 513/9/2 521/8/2 514/7/2
f 513/9/2 522/10/2 521/8/2
f 512/11/2 523/12/2 513/9/2
f 475/13/2 474/15/2 532/14/2
f 511/16/2 524/17/2 512/11/2
f 489/18/2 488/20/2 499/19/2
f 510/21/2 525/22/2 511/16/2
f 547/23/2 722/25/2 721/24/2
f 509/26/2 526/27/2 510/21/2
f 626/28/2 625/30/2 372/29/2
f 372/29/2 628/32/2 627/31/2
f 642/33/2 372/29/2 604/34/2
f 481/35/2 504/37/2 503/36/2
f 527/38/2 526/27/2 509/26/2
f 479/39/2 505/40/2 504/37/2
f 489/18/2 499/19/2 498/41/2
f 482/42/2 481/35/2 503/36/2
f 457/43/2 455/45/2 454/44/2
f 491/46/2 496/48/2 492/47/2
f 486/49/2 485/51/2 501/50/2
f 528/52/2 508/54/2 529/53/2
f 484/55/2 502/56/2 501/50/2
f 457/43/2 423/58/2 422/57/2
f 487/59/2 500/60/2 499/19/2
f 486/49/2 501/50/2 500/60/2
f 485/51/2 484/55/2 501/50/2
f 524/17/2 523/12/2 512/11/2
f 483/61/2 482/42/2 502/56/2
f 633/62/2 632/64/2 407/63/2
f 490/65/2 489/18/2 498/41/2
f 661/66/2 569/68/2 568/67/2
f 497/69/2 490/65/2 498/41/2
f 488/20/2 487/59/2 499/19/2
f 496/48/2 491/46/2 497/69/2
f 474/15/2 533/70/2 532/14/2
f 491/46/2 490/65/2 497/69/2
f 484/55/2 483/61/2 502/56/2
f 495/71/2 494/72/2 492/47/2
f 493/73/2 492/47/2 494/72/2
f 592/74/2 591/76/2 643/75/2
f 480/77/2 479/39/2 504/37/2
f 523/12/2 522/10/2 513/9/2
f 658/78/2 572/80/2 571/79/2
f 656/81/2 574/83/2 573/82/2
f 474/15/2 534/84/2 533/70/2
f 475/13/2 532/14/2 531/85/2
f 479/39/2 478/86/2 505/40/2
f 476/87/2 531/85/2 530/88/2
f 472/89/2 471/91/2 538/90/2
f 474/15/2 473/92/2 534/84/2
f 477/93/2 476/87/2 507/94/2
f 476/87/2 530/88/2 507/94/2
f 476/87/2 475/13/2 531/85/2
f 473/92/2 472/89/2 536/95/2
f 655/96/2 575/97/2 574/83/2
f 482/42/2 503/36/2 502/56/2
f 471/91/2 470/99/2 539/98/2
f 657/100/2 573/82/2 572/80/2
f 370/101/2 368/103/2 371/102/2
f 370/101/2 369/104/2 368/103/2
f 496/48/2 495/71/2 492/47/2
f 509/26/2 508/54/2 528/52/2
f 377/105/2 390/107/2 378/106/2
f 414/108/2 685/110/2 684/109/2
f 376/111/2 375/112/2 390/107/2
f 640/113/2 639/115/2 396/114/2
f 472/89/2 537/116/2 536/95/2
f 542/117/2 541/119/2 469/118/2
f 468/120/2 542/117/2 469/118/2
f 466/121/2 468/120/2 467/122/2
f 466/121/2 465/123/2 468/120/2
f 699/124/2 734/126/2 733/125/2
f 542/117/2 465/123/2 545/127/2
f 543/128/2 542/117/2 545/127/2
f 464/129/2 545/127/2 465/123/2
f 544/130/2 543/128/2 545/127/2
f 464/129/2 546/131/2 545/127/2
f 462/132/2 717/134/2 463/133/2
f 716/135/2 715/136/2 463/133/2
f 715/136/2 714/137/2 463/133/2
f 457/43/2 439/139/2 438/138/2
f 525/22/2 524/17/2 511/16/2
f 477/93/2 507/94/2 506/140/2
f 464/129/2 463/133/2 711/141/2
f 711/141/2 710/142/2 464/129/2
f 710/142/2 709/143/2 464/129/2
f 709/143/2 708/144/2 464/129/2
f 708/144/2 707/145/2 464/129/2
f 707/145/2 706/146/2 464/129/2
f 706/146/2 705/147/2 464/129/2
f 464/129/2 705/147/2 704/148/2
f 704/148/2 703/149/2 464/129/2
f 457/43/2 425/151/2 424/150/2
f 546/131/2 464/129/2 732/152/2
f 546/131/2 731/154/2 730/153/2
f 464/129/2 703/149/2 702/155/2
f 547/23/2 546/131/2 730/153/2
f 732/152/2 464/129/2 702/155/2
f 702/155/2 733/125/2 732/152/2
f 548/156/2 411/158/2 551/157/2
f 701/159/2 733/125/2 702/155/2
f 457/43/2 440/160/2 439/139/2
f 457/43/2 438/138/2 437/161/2
f 457/43/2 436/163/2 435/162/2
f 638/164/2 637/166/2 400/165/2
f 546/131/2 732/152/2 731/154/2
f 463/133/2 713/168/2 712/167/2
f 414/108/2 413/170/2 694/169/2
f 530/88/2 529/53/2 507/94/2
f 548/156/2 547/23/2 721/24/2
f 720/171/2 548/156/2 721/24/2
f 719/172/2 548/156/2 720/171/2
f 718/173/2 548/156/2 719/172/2
f 457/43/2 442/175/2 441/174/2
f 734/126/2 412/176/2 718/173/2
f 487/59/2 486/49/2 500/60/2
f 412/176/2 411/158/2 548/156/2
f 457/43/2 415/178/2 460/177/2
f 734/126/2 699/124/2 412/176/2
f 549/179/2 548/156/2 551/157/2
f 410/180/2 552/181/2 411/158/2
f 550/182/2 549/179/2 551/157/2
f 699/124/2 413/170/2 412/176/2
f 552/181/2 551/157/2 411/158/2
f 733/125/2 701/159/2 700/183/2
f 470/99/2 540/184/2 539/98/2
f 462/132/2 669/185/2 717/134/2
f 669/185/2 701/159/2 717/134/2
f 669/185/2 668/186/2 701/159/2
f 699/124/2 733/125/2 700/183/2
f 465/123/2 542/117/2 468/120/2
f 668/186/2 684/109/2 700/183/2
f 698/187/2 413/170/2 699/124/2
f 462/132/2 670/188/2 669/185/2
f 667/189/2 684/109/2 668/186/2
f 588/190/2 590/192/2 589/191/2
f 587/193/2 590/192/2 588/190/2
f 586/194/2 590/192/2 587/193/2
f 697/195/2 413/170/2 698/187/2
f 585/196/2 590/192/2 586/194/2
f 462/132/2 671/197/2 670/188/2
f 584/198/2 590/192/2 585/196/2
f 462/132/2 672/199/2 671/197/2
f 583/200/2 590/192/2 584/198/2
f 462/132/2 673/201/2 672/199/2
f 582/202/2 590/192/2 583/200/2
f 462/132/2 674/203/2 673/201/2
f 581/204/2 590/192/2 582/202/2
f 462/132/2 675/205/2 674/203/2
f 580/206/2 590/192/2 581/204/2
f 462/132/2 676/207/2 675/205/2
f 462/132/2 677/208/2 676/207/2
f 579/209/2 590/192/2 580/206/2
f 462/132/2 678/210/2 677/208/2
f 578/211/2 590/192/2 579/209/2
f 410/180/2 553/212/2 552/181/2
f 462/132/2 679/213/2 678/210/2
f 462/132/2 680/214/2 679/213/2
f 577/215/2 653/216/2 578/211/2
f 410/180/2 554/217/2 553/212/2
f 462/132/2 681/218/2 680/214/2
f 576/219/2 654/220/2 577/215/2
f 462/132/2 682/221/2 681/218/2
f 696/222/2 413/170/2 697/195/2
f 410/180/2 555/223/2 554/217/2
f 462/132/2 461/224/2 682/221/2
f 695/225/2 413/170/2 696/222/2
f 655/96/2 654/220/2 575/97/2
f 410/180/2 556/226/2 555/223/2
f 694/169/2 413/170/2 695/225/2
f 693/227/2 414/108/2 694/169/2
f 656/81/2 655/96/2 574/83/2
f 410/180/2 557/228/2 556/226/2
f 692/229/2 414/108/2 693/227/2
f 657/100/2 656/81/2 573/82/2
f 691/230/2 414/108/2 692/229/2
f 410/180/2 558/231/2 557/228/2
f 690/232/2 414/108/2 691/230/2
f 689/233/2 414/108/2 690/232/2
f 658/78/2 657/100/2 572/80/2
f 688/234/2 414/108/2 689/233/2
f 410/180/2 559/235/2 558/231/2
f 687/236/2 414/108/2 688/234/2
f 686/237/2 414/108/2 687/236/2
f 685/110/2 414/108/2 686/237/2
f 667/189/2 414/108/2 684/109/2
f 471/91/2 539/98/2 538/90/2
f 659/238/2 658/78/2 571/79/2
f 410/180/2 560/239/2 559/235/2
f 387/240/2 386/242/2 384/241/2
f 461/224/2 683/243/2 682/221/2
f 461/224/2 414/108/2 667/189/2
f 660/244/2 659/238/2 570/245/2
f 410/180/2 561/246/2 560/239/2
f 661/66/2 660/244/2 569/68/2
f 662/247/2 661/66/2 568/67/2
f 410/180/2 562/248/2 561/246/2
f 567/249/2 663/250/2 568/67/2
f 410/180/2 563/251/2 562/248/2
f 566/252/2 664/253/2 567/249/2
f 565/254/2 665/255/2 566/252/2
f 410/180/2 564/256/2 563/251/2
f 629/257/2 666/258/2 564/256/2
f 410/180/2 629/257/2 564/256/2
f 547/23/2 724/260/2 723/259/2
f 410/180/2 630/261/2 629/257/2
f 461/224/2 667/189/2 683/243/2
f 566/252/2 665/255/2 664/253/2
f 567/249/2 664/253/2 663/250/2
f 568/67/2 663/250/2 662/247/2
f 478/86/2 506/140/2 505/40/2
f 578/211/2 653/216/2 652/262/2
f 481/35/2 480/77/2 504/37/2
f 508/54/2 507/94/2 529/53/2
f 473/92/2 536/95/2 535/263/2
f 374/264/2 373/266/2 391/265/2
f 473/92/2 535/263/2 534/84/2
f 391/265/2 390/107/2 375/112/2
f 547/23/2 726/268/2 725/267/2
f 615/269/2 614/270/2 372/29/2
f 590/192/2 578/211/2 652/262/2
f 652/262/2 651/271/2 590/192/2
f 412/176/2 548/156/2 718/173/2
f 461/224/2 415/178/2 414/108/2
f 460/177/2 415/178/2 461/224/2
f 409/272/2 630/261/2 410/180/2
f 409/272/2 631/273/2 630/261/2
f 590/192/2 651/271/2 650/274/2
f 408/275/2 631/273/2 409/272/2
f 590/192/2 649/277/2 648/276/2
f 590/192/2 648/276/2 647/278/2
f 590/192/2 647/278/2 646/279/2
f 383/280/2 382/281/2 387/240/2
f 590/192/2 645/283/2 644/282/2
f 408/275/2 632/64/2 631/273/2
f 407/63/2 632/64/2 408/275/2
f 379/284/2 389/286/2 380/285/2
f 659/238/2 571/79/2 570/245/2
f 591/76/2 590/192/2 643/75/2
f 547/23/2 723/259/2 722/25/2
f 406/287/2 633/62/2 407/63/2
f 660/244/2 570/245/2 569/68/2
f 405/288/2 633/62/2 406/287/2
f 405/288/2 634/289/2 633/62/2
f 404/290/2 634/289/2 405/288/2
f 458/291/2 460/177/2 459/292/2
f 458/291/2 457/43/2 460/177/2
f 668/186/2 700/183/2 701/159/2
f 415/178/2 457/43/2 418/293/2
f 404/290/2 635/294/2 634/289/2
f 403/295/2 635/294/2 404/290/2
f 416/296/2 415/178/2 418/293/2
f 456/297/2 455/45/2 457/43/2
f 417/298/2 416/296/2 418/293/2
f 463/133/2 712/167/2 711/141/2
f 373/266/2 372/29/2 641/299/2
f 457/43/2 437/161/2 436/163/2
f 547/23/2 729/301/2 728/300/2
f 641/299/2 640/113/2 395/302/2
f 547/23/2 728/300/2 727/303/2
f 373/266/2 641/299/2 393/304/2
f 547/23/2 727/303/2 726/268/2
f 457/43/2 435/162/2 434/305/2
f 457/43/2 434/305/2 433/306/2
f 463/133/2 714/137/2 713/168/2
f 457/43/2 424/150/2 423/58/2
f 457/43/2 431/308/2 430/307/2
f 457/43/2 430/307/2 429/309/2
f 457/43/2 429/309/2 428/310/2
f 457/43/2 428/310/2 427/311/2
f 457/43/2 427/311/2 426/312/2
f 457/43/2 426/312/2 425/151/2
f 577/215/2 654/220/2 653/216/2
f 666/258/2 565/254/2 564/256/2
f 527/38/2 509/26/2 528/52/2
f 526/27/2 525/22/2 510/21/2
f 472/89/2 538/90/2 537/116/2
f 418/293/2 457/43/2 421/313/2
f 421/313/2 420/314/2 418/293/2
f 420/314/2 419/315/2 418/293/2
f 402/316/2 636/317/2 403/295/2
f 457/43/2 432/318/2 431/308/2
f 401/319/2 636/317/2 402/316/2
f 401/319/2 637/166/2 636/317/2
f 400/165/2 637/166/2 401/319/2
f 399/320/2 638/164/2 400/165/2
f 457/43/2 433/306/2 432/318/2
f 398/321/2 638/164/2 399/320/2
f 397/322/2 639/115/2 398/321/2
f 597/323/2 642/33/2 598/324/2
f 396/114/2 639/115/2 397/322/2
f 395/302/2 640/113/2 396/114/2
f 478/86/2 477/93/2 506/140/2
f 394/325/2 641/299/2 395/302/2
f 547/23/2 725/267/2 724/260/2
f 393/304/2 641/299/2 394/325/2
f 392/326/2 373/266/2 393/304/2
f 391/265/2 373/266/2 392/326/2
f 590/192/2 650/274/2 649/277/2
f 372/29/2 642/33/2 641/299/2
f 636/317/2 635/294/2 403/295/2
f 592/74/2 643/75/2 593/327/2
f 593/327/2 642/33/2 594/328/2
f 457/43/2 443/329/2 442/175/2
f 388/330/2 387/240/2 382/281/2
f 594/328/2 642/33/2 595/331/2
f 595/331/2 642/33/2 596/332/2
f 596/332/2 642/33/2 597/323/2
f 547/23/2 730/153/2 729/301/2
f 457/43/2 441/174/2 440/160/2
f 598/324/2 642/33/2 599/333/2
f 541/119/2 470/99/2 469/118/2
f 654/220/2 576/219/2 575/97/2
f 625/30/2 624/334/2 372/29/2
f 624/334/2 623/335/2 372/29/2
f 623/335/2 622/336/2 372/29/2
f 622/336/2 621/337/2 372/29/2
f 621/337/2 620/338/2 372/29/2
f 620/338/2 619/339/2 372/29/2
f 619/339/2 618/340/2 372/29/2
f 618/340/2 617/341/2 372/29/2
f 617/341/2 616/342/2 372/29/2
f 616/342/2 615/269/2 372/29/2
f 614/270/2 613/343/2 372/29/2
f 613/343/2 612/344/2 372/29/2
f 612/344/2 611/345/2 372/29/2
f 611/345/2 610/346/2 372/29/2
f 610/346/2 609/347/2 372/29/2
f 609/347/2 608/348/2 372/29/2
f 608/348/2 607/349/2 372/29/2
f 607/349/2 606/350/2 372/29/2
f 606/350/2 605/351/2 372/29/2
f 605/351/2 604/34/2 372/29/2
f 603/352/2 642/33/2 604/34/2
f 602/353/2 642/33/2 603/352/2
f 601/354/2 642/33/2 602/353/2
f 600/355/2 642/33/2 601/354/2
f 599/333/2 642/33/2 600/355/2
f 374/264/2 391/265/2 375/112/2
f 639/115/2 638/164/2 398/321/2
f 541/119/2 540/184/2 470/99/2
f 376/111/2 390/107/2 377/105/2
f 565/254/2 666/258/2 665/255/2
f 390/107/2 389/286/2 378/106/2
f 643/75/2 642/33/2 593/327/2
f 378/106/2 389/286/2 379/284/2
f 457/43/2 422/57/2 421/313/2
f 590/192/2 644/282/2 643/75/2
f 443/329/2 457/43/2 444/356/2
f 380/285/2 388/330/2 381/357/2
f 444/356/2 457/43/2 445/358/2
f 445/358/2 457/43/2 446/359/2
f 446/359/2 457/43/2 447/360/2
f 447/360/2 457/43/2 448/361/2
f 381/357/2 388/330/2 382/281/2
f 448/361/2 457/43/2 449/362/2
f 449/362/2 457/43/2 450/363/2
f 450/363/2 457/43/2 451/364/2
f 590/192/2 646/279/2 645/283/2
f 451/364/2 457/43/2 452/365/2
f 389/286/2 388/330/2 380/285/2
f 626/28/2 372/29/2 627/31/2
f 452/365/2 457/43/2 453/366/2
f 383/280/2 387/240/2 384/241/2
f 453/366/2 457/43/2 454/44/2
f 386/242/2 385/367/2 384/241/2
f 717/134/2 716/135/2 463/133/2
f 140/94/3 508/54/3 141/54/3
f 188/223/4 556/226/4 189/226/4
f 242/347/5 610/346/5 243/346/5
f 105/89/6 473/92/6 106/92/6
f 56/58/7 424/150/7 57/150/7
f 327/169/8 695/225/8 328/225/8
f 181/156/9 549/179/9 182/179/9
f 47/108/10 415/178/10 48/178/10
f 241/348/11 609/347/11 242/347/11
f 104/91/12 472/89/12 105/89/12
f 55/57/13 423/58/13 56/58/13
f 160/38/14 528/52/14 161/52/14
f 93/177/15 461/224/15 94/224/15
f 327/169/16 693/227/16 694/169/16
f 182/179/10 550/182/10 183/182/10
f 139/140/17 507/94/17 140/94/17
f 240/349/18 608/348/18 241/348/18
f 103/99/19 471/91/19 104/91/19
f 54/313/20 422/57/20 55/57/20
f 42/272/21 410/180/21 43/180/21
f 207/83/22 575/97/22 208/97/22
f 45/176/10 413/170/10 46/170/10
f 44/158/23 412/176/23 45/176/23
f 239/350/24 607/349/24 240/349/24
f 102/118/25 470/99/25 103/99/25
f 53/314/26 421/313/26 54/313/26
f 161/52/27 529/53/27 162/53/27
f 138/40/28 506/140/28 139/140/28
f 263/261/29 631/273/29 264/273/29
f 189/226/30 557/228/30 190/228/30
f 43/180/15 411/158/15 44/158/15
f 238/351/31 606/350/31 239/350/31
f 101/120/15 469/118/15 102/118/15
f 52/315/32 420/314/32 53/314/32
f 284/271/33 652/262/33 285/262/33
f 325/229/34 693/227/34 326/227/34
f 51/293/10 419/315/10 52/315/10
f 137/37/35 505/40/35 138/40/35
f 237/34/36 605/351/36 238/351/36
f 99/121/15 467/122/15 100/122/15
f 35/316/37 403/295/37 36/295/37
f 41/275/38 409/272/38 42/272/38
f 206/82/39 574/83/39 207/83/39
f 183/182/23 551/157/23 184/157/23
f 236/352/40 604/34/40 237/34/40
f 100/122/9 468/120/9 101/120/9
f 162/53/41 530/88/41 163/88/41
f 283/274/42 651/271/42 284/271/42
f 324/230/43 692/229/43 325/229/43
f 184/157/10 552/181/10 185/181/10
f 268/294/44 636/317/44 269/317/44
f 136/36/45 504/37/45 137/37/45
f 235/353/46 603/352/46 236/352/46
f 34/319/47 402/316/47 35/316/47
f 282/277/48 650/274/48 283/274/48
f 366/125/9 734/126/9 367/126/9
f 175/117/9 543/128/9 176/128/9
f 190/228/49 558/231/49 191/231/49
f 234/354/50 602/353/50 235/353/50
f 163/88/51 531/85/51 164/85/51
f 281/276/52 649/277/52 282/277/52
f 323/232/53 691/230/53 324/230/53
f 176/128/10 544/130/10 177/130/10
f 269/317/54 637/166/54 270/166/54
f 135/56/55 503/36/55 136/36/55
f 233/355/56 601/354/56 234/354/56
f 98/123/23 466/121/23 99/121/23
f 33/165/57 401/319/57 34/319/57
f 280/278/58 648/276/58 281/276/58
f 322/233/59 690/232/59 323/232/59
f 232/333/60 600/355/60 233/355/60
f 97/129/15 465/123/15 98/123/15
f 32/320/61 400/165/61 33/165/61
f 164/85/62 532/14/62 165/14/62
f 279/279/63 647/278/63 280/278/63
f 205/80/64 573/82/64 206/82/64
f 134/50/65 502/56/65 135/56/65
f 350/134/9 701/159/9 334/159/9
f 7/264/66 375/112/66 8/112/66
f 321/234/67 689/233/67 322/233/67
f 22/286/68 390/107/68 23/107/68
f 177/130/23 545/127/23 178/127/23
f 270/166/69 638/164/69 271/164/69
f 264/273/70 632/64/70 265/64/70
f 31/321/71 399/320/71 32/320/71
f 165/14/72 533/70/72 166/70/72
f 40/63/73 408/275/73 41/275/73
f 332/124/23 700/183/23 333/183/23
f 178/127/10 546/131/10 179/131/10
f 133/60/74 501/50/74 134/50/74
f 191/231/75 559/235/75 192/235/75
f 301/186/23 669/185/23 302/185/23
f 8/112/76 376/111/76 9/111/76
f 95/132/15 463/133/15 96/133/15
f 30/322/77 398/321/77 31/321/77
f 278/283/78 646/279/78 279/279/78
f 320/236/79 688/234/79 321/234/79
f 9/111/80 377/105/80 10/105/80
f 166/70/81 534/84/81 167/84/81
f 277/282/82 645/283/82 278/283/82
f 319/237/83 687/236/83 320/236/83
f 333/183/10 684/109/10 317/109/10
f 21/330/84 389/286/84 22/286/84
f 348/136/85 716/135/85 349/135/85
f 271/164/86 639/115/86 272/115/86
f 132/19/87 500/60/87 133/60/87
f 331/187/15 699/124/15 332/124/15
f 29/114/88 397/322/88 30/322/88
f 276/75/89 644/282/89 277/282/89
f 318/110/90 686/237/90 319/237/90
f 10/105/91 378/106/91 11/106/91
f 96/133/9 464/129/9 97/129/9
f 28/302/92 396/114/92 29/114/92
f 167/84/93 535/263/93 168/263/93
f 276/75/15 642/33/15 643/75/15
f 302/185/10 670/188/10 303/188/10
f 248/269/94 616/342/94 249/342/94
f 347/137/95 715/136/95 348/136/95
f 131/41/96 499/19/96 132/19/96
f 317/109/9 685/110/9 318/110/9
f 300/189/15 668/186/15 301/186/15
f 247/270/97 615/269/97 248/269/97
f 39/287/98 407/63/98 40/63/98
f 346/168/99 714/137/99 347/137/99
f 272/115/100 640/113/100 273/113/100
f 204/79/101 572/80/101 205/80/101
f 221/190/102 589/191/102 222/191/102
f 11/106/103 379/284/103 12/284/103
f 27/325/104 395/302/104 28/302/104
f 168/263/105 536/95/105 169/95/105
f 20/240/106 388/330/106 21/330/106
f 345/167/107 713/168/107 346/168/107
f 130/69/108 498/41/108 131/41/108
f 265/64/109 633/62/109 266/62/109
f 222/191/110 590/192/110 223/192/110
f 38/288/111 406/287/111 39/287/111
f 192/235/112 560/239/112 193/239/112
f 220/193/113 588/190/113 221/190/113
f 344/141/114 712/167/114 345/167/114
f 273/113/115 641/299/115 274/299/115
f 12/284/116 380/285/116 13/285/116
f 26/304/117 394/325/117 27/325/117
f 169/95/118 537/116/118 170/116/118
f 316/243/9 667/189/9 300/189/9
f 219/194/119 587/193/119 220/193/119
f 343/142/120 711/141/120 344/141/120
f 129/48/121 497/69/121 130/69/121
f 266/62/122 634/289/122 267/289/122
f 76/329/123 444/356/123 77/356/123
f 25/326/124 393/304/124 26/304/124
f 37/290/125 405/288/125 38/288/125
f 330/195/126 698/187/126 331/187/126
f 342/143/127 710/142/127 343/142/127
f 128/71/128 496/48/128 129/48/128
f 46/170/23 414/108/23 47/108/23
f 13/285/129 381/357/129 14/357/129
f 91/291/15 459/292/15 92/292/15
f 203/245/130 571/79/130 204/79/130
f 218/196/131 586/194/131 219/194/131
f 341/144/132 709/143/132 342/143/132
f 274/299/9 642/33/9 275/33/9
f 77/356/133 445/358/133 78/358/133
f 170/116/134 538/90/134 171/90/134
f 92/292/9 460/177/9 93/177/9
f 340/145/135 708/144/135 341/144/135
f 24/265/136 392/326/136 25/326/136
f 127/72/137 495/71/137 128/71/137
f 193/239/138 561/246/138 194/246/138
f 303/188/139 671/197/139 304/197/139
f 78/358/140 446/359/140 79/359/140
f 202/68/141 570/245/141 203/245/141
f 217/198/142 585/196/142 218/196/142
f 339/146/143 707/145/143 340/145/143
f 48/178/9 416/296/9 49/296/9
f 79/359/144 447/360/144 80/360/144
f 224/76/145 592/74/145 225/74/145
f 171/90/146 539/98/146 172/98/146
f 201/67/147 569/68/147 202/68/147
f 126/73/148 494/72/148 127/72/148
f 49/296/10 417/298/10 50/298/10
f 305/199/149 671/197/149 672/199/149
f 80/360/150 448/361/150 81/361/150
f 338/147/151 706/146/151 339/146/151
f 225/74/152 593/327/152 226/327/152
f 216/200/153 584/198/153 217/198/153
f 125/47/154 493/73/154 126/73/154
f 267/289/155 635/294/155 268/294/155
f 194/246/156 562/248/156 195/248/156
f 14/357/157 382/281/157 15/281/157
f 337/148/158 705/147/158 338/147/158
f 226/327/159 594/328/159 227/328/159
f 36/295/160 404/290/160 37/290/160
f 200/249/161 568/67/161 201/67/161
f 23/107/162 391/265/162 24/265/162
f 124/46/163 492/47/163 125/47/163
f 306/201/164 672/199/164 673/201/164
f 81/361/165 449/362/165 82/362/165
f 90/43/23 458/291/23 91/291/23
f 215/202/166 583/200/166 216/200/166
f 19/242/167 387/240/167 20/240/167
f 179/131/9 547/23/9 180/23/9
f 123/65/168 491/46/168 124/46/168
f 196/251/169 562/248/169 563/251/169
f 336/149/170 704/148/170 337/148/170
f 89/297/15 457/43/15 90/43/15
f 199/252/171 567/249/171 200/249/171
f 122/18/172 490/65/172 123/65/172
f 306/201/173 674/203/173 307/203/173
f 82/362/174 450/363/174 83/363/174
f 227/328/175 595/331/175 228/331/175
f 198/254/176 566/252/176 199/252/176
f 214/204/177 582/202/177 215/202/177
f 121/20/178 489/18/178 122/18/178
f 50/298/23 418/293/23 51/293/23
f 83/363/179 451/364/179 84/364/179
f 364/154/23 732/152/23 365/152/23
f 228/331/180 596/332/180 229/332/180
f 88/45/181 456/297/181 89/297/181
f 196/251/182 564/256/182 197/256/182
f 307/203/183 675/205/183 308/205/183
f 15/281/184 383/280/184 16/280/184
f 229/332/185 597/323/185 230/323/185
f 172/98/186 540/184/186 173/184/186
f 197/256/187 565/254/187 198/254/187
f 213/206/188 581/204/188 214/204/188
f 180/23/10 548/156/10 181/156/10
f 120/59/189 488/20/189 121/20/189
f 84/364/190 452/365/190 85/365/190
f 335/155/23 703/149/23 336/149/23
f 230/323/191 598/324/191 231/324/191
f 75/175/192 443/329/192 76/329/192
f 149/1/193 517/2/193 150/2/193
f 5/29/23 373/266/23 6/266/23
f 119/49/194 487/59/194 120/59/194
f 308/205/195 676/207/195 309/207/195
f 258/30/196 626/28/196 259/28/196
f 74/174/197 442/175/197 75/175/197
f 150/2/198 518/3/198 151/3/198
f 260/31/199 628/32/199 261/32/199
f 365/152/10 733/125/10 366/125/10
f 309/207/200 677/208/200 310/208/200
f 259/28/201 627/31/201 260/31/201
f 363/153/202 731/154/202 364/154/202
f 231/324/203 599/333/203 232/333/203
f 173/184/204 541/119/204 174/119/204
f 73/160/205 441/174/205 74/174/205
f 151/3/206 519/4/206 152/4/206
f 262/257/207 630/261/207 263/261/207
f 212/209/208 580/206/208 213/206/208
f 118/51/209 486/49/209 119/49/209
f 148/5/210 516/1/210 149/1/210
f 299/258/211 629/257/211 262/257/211
f 85/365/212 453/366/212 86/366/212
f 334/159/15 702/155/15 335/155/15
f 6/266/213 374/264/213 7/264/213
f 72/139/214 440/160/214 73/160/214
f 261/32/15 372/29/15 5/29/15
f 117/55/215 485/51/215 118/51/215
f 298/255/216 666/258/216 299/258/216
f 310/208/217 678/210/217 311/210/217
f 16/280/218 384/241/218 17/241/218
f 362/301/219 730/153/219 363/153/219
f 71/138/220 439/139/220 72/139/220
f 152/4/221 520/6/221 153/6/221
f 211/211/222 579/209/222 212/209/222
f 87/44/223 455/45/223 88/45/223
f 116/61/224 484/55/224 117/55/224
f 147/7/225 515/5/225 148/5/225
f 297/253/226 665/255/226 298/255/226
f 86/366/227 454/44/227 87/44/227
f 361/300/228 729/301/228 362/301/228
f 257/334/229 625/30/229 258/30/229
f 70/161/230 438/138/230 71/138/230
f 18/367/231 386/242/231 19/242/231
f 115/42/232 483/61/232 116/61/232
f 296/250/233 664/253/233 297/253/233
f 185/181/234 553/212/234 186/212/234
f 17/241/235 385/367/235 18/367/235
f 360/303/236 728/300/236 361/300/236
f 256/335/237 624/334/237 257/334/237
f 69/163/238 437/161/238 70/161/238
f 153/6/239 521/8/239 154/8/239
f 114/35/240 482/42/240 115/42/240
f 146/9/241 514/7/241 147/7/241
f 295/247/242 663/250/242 296/250/242
f 311/210/243 679/213/243 312/213/243
f 359/268/244 727/303/244 360/303/244
f 255/336/245 623/335/245 256/335/245
f 68/162/246 436/163/246 69/163/246
f 113/77/247 481/35/247 114/35/247
f 294/66/248 662/247/248 295/247/248
f 312/213/249 680/214/249 313/214/249
f 358/267/250 726/268/250 359/268/250
f 254/337/251 622/336/251 255/336/251
f 67/305/252 435/162/252 68/162/252
f 154/8/253 522/10/253 155/10/253
f 210/215/254 578/211/254 211/211/254
f 112/39/255 480/77/255 113/77/255
f 145/11/256 513/9/256 146/9/256
f 293/244/257 661/66/257 294/66/257
f 357/260/258 725/267/258 358/267/258
f 253/338/259 621/337/259 254/337/259
f 66/306/260 434/305/260 67/305/260
f 111/86/261 479/39/261 112/39/261
f 292/238/262 660/244/262 293/244/262
f 186/212/263 554/217/263 187/217/263
f 356/259/264 724/260/264 357/260/264
f 252/339/265 620/338/265 253/338/265
f 65/318/266 433/306/266 66/306/266
f 155/10/267 523/12/267 156/12/267
f 110/93/268 478/86/268 111/86/268
f 144/16/269 512/11/269 145/11/269
f 291/78/270 659/238/270 292/238/270
f 313/214/271 681/218/271 314/218/271
f 355/25/272 723/259/272 356/259/272
f 251/340/273 619/339/273 252/339/273
f 64/308/274 432/318/274 65/318/274
f 290/100/275 658/78/275 291/78/275
f 209/219/276 577/215/276 210/215/276
f 354/24/277 722/25/277 355/25/277
f 250/341/278 618/340/278 251/340/278
f 174/119/10 542/117/10 175/117/10
f 63/307/279 431/308/279 64/308/279
f 156/12/280 524/17/280 157/17/280
f 289/81/281 657/100/281 290/100/281
f 3/101/15 371/102/15 4/102/15
f 143/21/282 511/16/282 144/16/282
f 314/218/283 682/221/283 315/221/283
f 353/171/284 721/24/284 354/24/284
f 249/342/285 617/341/285 250/341/285
f 62/309/286 430/307/286 63/307/286
f 288/96/287 656/81/287 289/81/287
f 329/222/288 697/195/288 330/195/288
f 4/102/9 368/103/9 1/103/9
f 352/172/289 720/171/289 353/171/289
f 2/104/23 370/101/23 3/101/23
f 61/310/290 429/309/290 62/309/290
f 157/17/291 525/22/291 158/22/291
f 287/220/292 655/96/292 288/96/292
f 1/103/10 369/104/10 2/104/10
f 142/26/293 510/21/293 143/21/293
f 187/217/294 555/223/294 188/223/294
f 351/173/295 719/172/295 352/172/295
f 246/343/296 614/270/296 247/270/296
f 109/87/297 477/93/297 110/93/297
f 60/311/298 428/310/298 61/310/298
f 286/216/299 654/220/299 287/220/299
f 315/221/300 683/243/300 316/243/300
f 245/344/301 613/343/301 246/343/301
f 108/13/302 476/87/302 109/87/302
f 59/312/303 427/311/303 60/311/303
f 158/22/304 526/27/304 159/27/304
f 285/262/305 653/216/305 286/216/305
f 328/225/306 696/222/306 329/222/306
f 349/135/10 717/134/10 350/134/10
f 141/54/307 509/26/307 142/26/307
f 367/126/15 718/173/15 351/173/15
f 244/345/308 612/344/308 245/344/308
f 107/15/309 475/13/309 108/13/309
f 58/151/310 426/312/310 59/312/310
f 208/97/311 576/219/311 209/219/311
f 223/192/10 591/76/10 224/76/10
f 243/346/312 611/345/312 244/345/312
f 106/92/313 474/15/313 107/15/313
f 57/150/314 425/151/314 58/151/314
f 159/27/315 527/38/315 160/38/315
f 94/224/23 462/132/23 95/132/23
f 140/94/3 507/94/3 508/54/3
f 188/223/4 555/223/4 556/226/4
f 242/347/5 609/347/5 610/346/5
f 105/89/6 472/89/6 473/92/6
f 56/58/7 423/58/7 424/150/7
f 327/169/8 694/169/8 695/225/8
f 181/156/9 548/156/9 549/179/9
f 47/108/10 414/108/10 415/178/10
f 241/348/11 608/348/11 609/347/11
f 104/91/12 471/91/12 472/89/12
f 55/57/316 422/57/316 423/58/316
f 160/38/14 527/38/14 528/52/14
f 93/177/15 460/177/15 461/224/15
f 327/169/16 326/227/16 693/227/16
f 182/179/10 549/179/10 550/182/10
f 139/140/17 506/140/17 507/94/17
f 240/349/18 607/349/18 608/348/18
f 103/99/19 470/99/19 471/91/19
f 54/313/20 421/313/20 422/57/20
f 42/272/21 409/272/21 410/180/21
f 207/83/22 574/83/22 575/97/22
f 45/176/10 412/176/10 413/170/10
f 44/158/23 411/158/23 412/176/23
f 239/350/24 606/350/24 607/349/24
f 102/118/25 469/118/25 470/99/25
f 53/314/26 420/314/26 421/313/26
f 161/52/27 528/52/27 529/53/27
f 138/40/28 505/40/28 506/140/28
f 263/261/29 630/261/29 631/273/29
f 189/226/30 556/226/30 557/228/30
f 43/180/15 410/180/15 411/158/15
f 238/351/31 605/351/31 606/350/31
f 101/120/15 468/120/15 469/118/15
f 52/315/32 419/315/32 420/314/32
f 284/271/33 651/271/33 652/262/33
f 325/229/34 692/229/34 693/227/34
f 51/293/10 418/293/10 419/315/10
f 137/37/35 504/37/35 505/40/35
f 237/34/317 604/34/317 605/351/317
f 99/121/15 466/121/15 467/122/15
f 35/316/37 402/316/37 403/295/37
f 41/275/38 408/275/38 409/272/38
f 206/82/39 573/82/39 574/83/39
f 183/182/23 550/182/23 551/157/23
f 236/352/40 603/352/40 604/34/40
f 100/122/9 467/122/9 468/120/9
f 162/53/41 529/53/41 530/88/41
f 283/274/42 650/274/42 651/271/42
f 324/230/43 691/230/43 692/229/43
f 184/157/10 551/157/10 552/181/10
f 268/294/44 635/294/44 636/317/44
f 136/36/45 503/36/45 504/37/45
f 235/353/46 602/353/46 603/352/46
f 34/319/47 401/319/47 402/316/47
f 282/277/48 649/277/48 650/274/48
f 366/125/9 733/125/9 734/126/9
f 175/117/9 542/117/9 543/128/9
f 190/228/49 557/228/49 558/231/49
f 234/354/50 601/354/50 602/353/50
f 163/88/51 530/88/51 531/85/51
f 281/276/52 648/276/52 649/277/52
f 323/232/53 690/232/53 691/230/53
f 176/128/10 543/128/10 544/130/10
f 269/317/54 636/317/54 637/166/54
f 135/56/55 502/56/55 503/36/55
f 233/355/56 600/355/56 601/354/56
f 98/123/23 465/123/23 466/121/23
f 33/165/57 400/165/57 401/319/57
f 280/278/58 647/278/58 648/276/58
f 322/233/59 689/233/59 690/232/59
f 232/333/318 599/333/318 600/355/318
f 97/129/15 464/129/15 465/123/15
f 32/320/61 399/320/61 400/165/61
f 164/85/62 531/85/62 532/14/62
f 279/279/63 646/279/63 647/278/63
f 205/80/64 572/80/64 573/82/64
f 134/50/319 501/50/319 502/56/319
f 350/134/9 717/134/9 701/159/9
f 7/264/66 374/264/66 375/112/66
f 321/234/67 688/234/67 689/233/67
f 22/286/68 389/286/68 390/107/68
f 177/130/23 544/130/23 545/127/23
f 270/166/69 637/166/69 638/164/69
f 264/273/70 631/273/70 632/64/70
f 31/321/71 398/321/71 399/320/71
f 165/14/72 532/14/72 533/70/72
f 40/63/73 407/63/73 408/275/73
f 332/124/23 699/124/23 700/183/23
f 178/127/10 545/127/10 546/131/10
f 133/60/74 500/60/74 501/50/74
f 191/231/75 558/231/75 559/235/75
f 301/186/23 668/186/23 669/185/23
f 8/112/76 375/112/76 376/111/76
f 95/132/15 462/132/15 463/133/15
f 30/322/77 397/322/77 398/321/77
f 278/283/78 645/283/78 646/279/78
f 320/236/79 687/236/79 688/234/79
f 9/111/80 376/111/80 377/105/80
f 166/70/81 533/70/81 534/84/81
f 277/282/82 644/282/82 645/283/82
f 319/237/83 686/237/83 687/236/83
f 333/183/10 700/183/10 684/109/10
f 21/330/84 388/330/84 389/286/84
f 348/136/85 715/136/85 716/135/85
f 271/164/86 638/164/86 639/115/86
f 132/19/87 499/19/87 500/60/87
f 331/187/15 698/187/15 699/124/15
f 29/114/88 396/114/88 397/322/88
f 276/75/89 643/75/89 644/282/89
f 318/110/90 685/110/90 686/237/90
f 10/105/91 377/105/91 378/106/91
f 96/133/9 463/133/9 464/129/9
f 28/302/92 395/302/92 396/114/92
f 167/84/320 534/84/320 535/263/320
f 276/75/15 275/33/15 642/33/15
f 302/185/10 669/185/10 670/188/10
f 248/269/94 615/269/94 616/342/94
f 347/137/95 714/137/95 715/136/95
f 131/41/321 498/41/321 499/19/321
f 317/109/9 684/109/9 685/110/9
f 300/189/15 667/189/15 668/186/15
f 247/270/97 614/270/97 615/269/97
f 39/287/98 406/287/98 407/63/98
f 346/168/99 713/168/99 714/137/99
f 272/115/100 639/115/100 640/113/100
f 204/79/101 571/79/101 572/80/101
f 221/190/102 588/190/102 589/191/102
f 11/106/103 378/106/103 379/284/103
f 27/325/104 394/325/104 395/302/104
f 168/263/105 535/263/105 536/95/105
f 20/240/106 387/240/106 388/330/106
f 345/167/107 712/167/107 713/168/107
f 130/69/108 497/69/108 498/41/108
f 265/64/109 632/64/109 633/62/109
f 222/191/110 589/191/110 590/192/110
f 38/288/111 405/288/111 406/287/111
f 192/235/112 559/235/112 560/239/112
f 220/193/113 587/193/113 588/190/113
f 344/141/114 711/141/114 712/167/114
f 273/113/115 640/113/115 641/299/115
f 12/284/116 379/284/116 380/285/116
f 26/304/117 393/304/117 394/325/117
f 169/95/118 536/95/118 537/116/118
f 316/243/9 683/243/9 667/189/9
f 219/194/119 586/194/119 587/193/119
f 343/142/120 710/142/120 711/141/120
f 129/48/121 496/48/121 497/69/121
f 266/62/122 633/62/122 634/289/122
f 76/329/322 443/329/322 444/356/322
f 25/326/124 392/326/124 393/304/124
f 37/290/125 404/290/125 405/288/125
f 330/195/323 697/195/323 698/187/323
f 342/143/127 709/143/127 710/142/127
f 128/71/324 495/71/324 496/48/324
f 46/170/23 413/170/23 414/108/23
f 13/285/129 380/285/129 381/357/129
f 91/291/15 458/291/15 459/292/15
f 203/245/130 570/245/130 571/79/130
f 218/196/131 585/196/131 586/194/131
f 341/144/132 708/144/132 709/143/132
f 274/299/9 641/299/9 642/33/9
f 77/356/133 444/356/133 445/358/133
f 170/116/134 537/116/134 538/90/134
f 92/292/9 459/292/9 460/177/9
f 340/145/135 707/145/135 708/144/135
f 24/265/136 391/265/136 392/326/136
f 127/72/137 494/72/137 495/71/137
f 193/239/138 560/239/138 561/246/138
f 303/188/139 670/188/139 671/197/139
f 78/358/140 445/358/140 446/359/140
f 202/68/141 569/68/141 570/245/141
f 217/198/142 584/198/142 585/196/142
f 339/146/143 706/146/143 707/145/143
f 48/178/9 415/178/9 416/296/9
f 79/359/144 446/359/144 447/360/144
f 224/76/325 591/76/325 592/74/325
f 171/90/146 538/90/146 539/98/146
f 201/67/147 568/67/147 569/68/147
f 126/73/148 493/73/148 494/72/148
f 49/296/10 416/296/10 417/298/10
f 305/199/149 304/197/149 671/197/149
f 80/360/150 447/360/150 448/361/150
f 338/147/326 705/147/326 706/146/326
f 225/74/152 592/74/152 593/327/152
f 216/200/153 583/200/153 584/198/153
f 125/47/327 492/47/327 493/73/327
f 267/289/155 634/289/155 635/294/155
f 194/246/156 561/246/156 562/248/156
f 14/357/157 381/357/157 382/281/157
f 337/148/158 704/148/158 705/147/158
f 226/327/159 593/327/159 594/328/159
f 36/295/160 403/295/160 404/290/160
f 200/249/161 567/249/161 568/67/161
f 23/107/162 390/107/162 391/265/162
f 124/46/163 491/46/163 492/47/163
f 306/201/164 305/199/164 672/199/164
f 81/361/165 448/361/165 449/362/165
f 90/43/23 457/43/23 458/291/23
f 215/202/166 582/202/166 583/200/166
f 19/242/167 386/242/167 387/240/167
f 179/131/9 546/131/9 547/23/9
f 123/65/168 490/65/168 491/46/168
f 196/251/169 195/248/169 562/248/169
f 336/149/170 703/149/170 704/148/170
f 89/297/15 456/297/15 457/43/15
f 199/252/171 566/252/171 567/249/171
f 122/18/172 489/18/172 490/65/172
f 306/201/173 673/201/173 674/203/173
f 82/362/174 449/362/174 450/363/174
f 227/328/175 594/328/175 595/331/175
f 198/254/176 565/254/176 566/252/176
f 214/204/177 581/204/177 582/202/177
f 121/20/328 488/20/328 489/18/328
f 50/298/23 417/298/23 418/293/23
f 83/363/179 450/363/179 451/364/179
f 364/154/23 731/154/23 732/152/23
f 228/331/180 595/331/180 596/332/180
f 88/45/181 455/45/181 456/297/181
f 196/251/182 563/251/182 564/256/182
f 307/203/183 674/203/183 675/205/183
f 15/281/184 382/281/184 383/280/184
f 229/332/329 596/332/329 597/323/329
f 172/98/186 539/98/186 540/184/186
f 197/256/187 564/256/187 565/254/187
f 213/206/188 580/206/188 581/204/188
f 180/23/10 547/23/10 548/156/10
f 120/59/189 487/59/189 488/20/189
f 84/364/190 451/364/190 452/365/190
f 335/155/23 702/155/23 703/149/23
f 230/323/191 597/323/191 598/324/191
f 75/175/330 442/175/330 443/329/330
f 149/1/193 516/1/193 517/2/193
f 5/29/23 372/29/23 373/266/23
f 119/49/331 486/49/331 487/59/331
f 308/205/195 675/205/195 676/207/195
f 258/30/196 625/30/196 626/28/196
f 74/174/197 441/174/197 442/175/197
f 150/2/332 517/2/332 518/3/332
f 260/31/199 627/31/199 628/32/199
f 365/152/10 732/152/10 733/125/10
f 309/207/200 676/207/200 677/208/200
f 259/28/201 626/28/201 627/31/201
f 363/153/202 730/153/202 731/154/202
f 231/324/203 598/324/203 599/333/203
f 173/184/204 540/184/204 541/119/204
f 73/160/205 440/160/205 441/174/205
f 151/3/206 518/3/206 519/4/206
f 262/257/207 629/257/207 630/261/207
f 212/209/208 579/209/208 580/206/208
f 118/51/333 485/51/333 486/49/333
f 148/5/210 515/5/210 516/1/210
f 299/258/334 666/258/334 629/257/334
f 85/365/212 452/365/212 453/366/212
f 334/159/15 701/159/15 702/155/15
f 6/266/213 373/266/213 374/264/213
f 72/139/335 439/139/335 440/160/335
f 261/32/15 628/32/15 372/29/15
f 117/55/215 484/55/215 485/51/215
f 298/255/216 665/255/216 666/258/216
f 310/208/217 677/208/217 678/210/217
f 16/280/336 383/280/336 384/241/336
f 362/301/219 729/301/219 730/153/219
f 71/138/220 438/138/220 439/139/220
f 152/4/221 519/4/221 520/6/221
f 211/211/222 578/211/222 579/209/222
f 87/44/337 454/44/337 455/45/337
f 116/61/224 483/61/224 484/55/224
f 147/7/338 514/7/338 515/5/338
f 297/253/226 664/253/226 665/255/226
f 86/366/227 453/366/227 454/44/227
f 361/300/228 728/300/228 729/301/228
f 257/334/229 624/334/229 625/30/229
f 70/161/230 437/161/230 438/138/230
f 18/367/231 385/367/231 386/242/231
f 115/42/339 482/42/339 483/61/339
f 296/250/233 663/250/233 664/253/233
f 185/181/234 552/181/234 553/212/234
f 17/241/235 384/241/235 385/367/235
f 360/303/236 727/303/236 728/300/236
f 256/335/340 623/335/340 624/334/340
f 69/163/238 436/163/238 437/161/238
f 153/6/239 520/6/239 521/8/239
f 114/35/341 481/35/341 482/42/341
f 146/9/241 513/9/241 514/7/241
f 295/247/242 662/247/242 663/250/242
f 311/210/243 678/210/243 679/213/243
f 359/268/244 726/268/244 727/303/244
f 255/336/245 622/336/245 623/335/245
f 68/162/246 435/162/246 436/163/246
f 113/77/247 480/77/247 481/35/247
f 294/66/342 661/66/342 662/247/342
f 312/213/249 679/213/249 680/214/249
f 358/267/250 725/267/250 726/268/250
f 254/337/251 621/337/251 622/336/251
f 67/305/343 434/305/343 435/162/343
f 154/8/253 521/8/253 522/10/253
f 210/215/254 577/215/254 578/211/254
f 112/39/255 479/39/255 480/77/255
f 145/11/344 512/11/344 513/9/344
f 293/244/257 660/244/257 661/66/257
f 357/260/258 724/260/258 725/267/258
f 253/338/259 620/338/259 621/337/259
f 66/306/260 433/306/260 434/305/260
f 111/86/345 478/86/345 479/39/345
f 292/238/262 659/238/262 660/244/262
f 186/212/263 553/212/263 554/217/263
f 356/259/264 723/259/264 724/260/264
f 252/339/265 619/339/265 620/338/265
f 65/318/346 432/318/346 433/306/346
f 155/10/267 522/10/267 523/12/267
f 110/93/268 477/93/268 478/86/268
f 144/16/269 511/16/269 512/11/269
f 291/78/270 658/78/270 659/238/270
f 313/214/271 680/214/271 681/218/271
f 355/25/272 722/25/272 723/259/272
f 251/340/273 618/340/273 619/339/273
f 64/308/274 431/308/274 432/318/274
f 290/100/275 657/100/275 658/78/275
f 209/219/276 576/219/276 577/215/276
f 354/24/277 721/24/277 722/25/277
f 250/341/347 617/341/347 618/340/347
f 174/119/10 541/119/10 542/117/10
f 63/307/348 430/307/348 431/308/348
f 156/12/280 523/12/280 524/17/280
f 289/81/281 656/81/281 657/100/281
f 3/101/15 370/101/15 371/102/15
f 143/21/349 510/21/349 511/16/349
f 314/218/283 681/218/283 682/221/283
f 353/171/284 720/171/284 721/24/284
f 249/342/285 616/342/285 617/341/285
f 62/309/286 429/309/286 430/307/286
f 288/96/287 655/96/287 656/81/287
f 329/222/288 696/222/288 697/195/288
f 4/102/9 371/102/9 368/103/9
f 352/172/289 719/172/289 720/171/289
f 2/104/23 369/104/23 370/101/23
f 61/310/290 428/310/290 429/309/290
f 157/17/350 524/17/350 525/22/350
f 287/220/292 654/220/292 655/96/292
f 1/103/10 368/103/10 369/104/10
f 142/26/293 509/26/293 510/21/293
f 187/217/294 554/217/294 555/223/294
f 351/173/295 718/173/295 719/172/295
f 246/343/296 613/343/296 614/270/296
f 109/87/297 476/87/297 477/93/297
f 60/311/298 427/311/298 428/310/298
f 286/216/299 653/216/299 654/220/299
f 315/221/300 682/221/300 683/243/300
f 245/344/301 612/344/301 613/343/301
f 108/13/302 475/13/302 476/87/302
f 59/312/351 426/312/351 427/311/351
f 158/22/304 525/22/304 526/27/304
f 285/262/305 652/262/305 653/216/305
f 328/225/306 695/225/306 696/222/306
f 349/135/10 716/135/10 717/134/10
f 141/54/307 508/54/307 509/26/307
f 367/126/15 734/126/15 718/173/15
f 244/345/308 611/345/308 612/344/308
f 107/15/309 474/15/309 475/13/309
f 58/151/352 425/151/352 426/312/352
f 208/97/311 575/97/311 576/219/311
f 223/192/10 590/192/10 591/76/10
f 243/346/312 610/346/312 611/345/312
f 106/92/313 473/92/313 474/15/313
f 57/150/314 424/150/314 425/151/314
f 159/27/315 526/27/315 527/38/315
f 94/224/23 461/224/23 462/132/23
