# Blender 4.4.3
# www.blender.org
mtllib text_bi.mtl
o text_bi
v 0.288615 0.444769 -0.050000
v 0.285340 0.432272 -0.050000
v 0.281974 0.420269 -0.050000
v 0.278519 0.408760 -0.050000
v 0.274974 0.397744 -0.050000
v 0.271340 0.387221 -0.050000
v 0.267615 0.377192 -0.050000
v 0.263801 0.367657 -0.050000
v 0.259897 0.358615 -0.050000
v 0.255904 0.350067 -0.050000
v 0.251820 0.342013 -0.050000
v 0.247647 0.334452 -0.050000
v 0.243385 0.327385 -0.050000
v 0.241530 0.324479 -0.050000
v 0.239556 0.321506 -0.050000
v 0.237462 0.318466 -0.050000
v 0.235248 0.315359 -0.050000
v 0.232915 0.312184 -0.050000
v 0.230462 0.308942 -0.050000
v 0.227889 0.305633 -0.050000
v 0.225197 0.302256 -0.050000
v 0.222385 0.298813 -0.050000
v 0.219453 0.295301 -0.050000
v 0.216402 0.291723 -0.050000
v 0.213231 0.288077 -0.050000
v 0.210030 0.284461 -0.050000
v 0.206889 0.280972 -0.050000
v 0.203808 0.277611 -0.050000
v 0.200786 0.274376 -0.050000
v 0.197825 0.271269 -0.050000
v 0.194923 0.268288 -0.050000
v 0.192081 0.265435 -0.050000
v 0.189299 0.262709 -0.050000
v 0.186577 0.260111 -0.050000
v 0.183915 0.257639 -0.050000
v 0.181312 0.255294 -0.050000
v 0.178769 0.253077 -0.050000
v 0.164769 0.240154 -0.050000
v 0.169997 0.247431 -0.050000
v 0.174910 0.254543 -0.050000
v 0.179510 0.261490 -0.050000
v 0.183795 0.268274 -0.050000
v 0.187766 0.274892 -0.050000
v 0.191423 0.281346 -0.050000
v 0.194766 0.287636 -0.050000
v 0.197795 0.293761 -0.050000
v 0.200510 0.299721 -0.050000
v 0.202910 0.305517 -0.050000
v 0.204997 0.311148 -0.050000
v 0.206769 0.316615 -0.050000
v 0.209798 0.326076 -0.050000
v 0.212423 0.335073 -0.050000
v 0.214644 0.343606 -0.050000
v 0.216462 0.351675 -0.050000
v 0.217875 0.359281 -0.050000
v 0.218885 0.366423 -0.050000
v 0.219490 0.373101 -0.050000
v 0.219692 0.379316 -0.050000
v 0.219490 0.385067 -0.050000
v 0.218885 0.390355 -0.050000
v 0.217875 0.395178 -0.050000
v 0.216462 0.399538 -0.050000
v 0.216233 0.399905 -0.050000
v 0.215908 0.400286 -0.050000
v 0.215486 0.400683 -0.050000
v 0.214966 0.401094 -0.050000
v 0.214349 0.401520 -0.050000
v 0.213635 0.401962 -0.050000
v 0.212823 0.402418 -0.050000
v 0.211915 0.402889 -0.050000
v 0.210909 0.403375 -0.050000
v 0.209806 0.403876 -0.050000
v 0.208605 0.404392 -0.050000
v 0.207308 0.404923 -0.050000
v 0.206010 0.405439 -0.050000
v 0.204810 0.405910 -0.050000
v 0.203707 0.406337 -0.050000
v 0.202701 0.406718 -0.050000
v 0.201792 0.407055 -0.050000
v 0.200981 0.407346 -0.050000
v 0.200267 0.407593 -0.050000
v 0.199650 0.407795 -0.050000
v 0.199130 0.407952 -0.050000
v 0.198707 0.408064 -0.050000
v 0.198382 0.408131 -0.050000
v 0.198154 0.408154 -0.050000
v 0.203090 0.409590 -0.050000
v 0.207846 0.411026 -0.050000
v 0.212423 0.412462 -0.050000
v 0.216820 0.413897 -0.050000
v 0.221038 0.415333 -0.050000
v 0.225077 0.416769 -0.050000
v 0.228936 0.418205 -0.050000
v 0.232615 0.419641 -0.050000
v 0.236115 0.421077 -0.050000
v 0.239436 0.422513 -0.050000
v 0.242577 0.423949 -0.050000
v 0.245538 0.425385 -0.050000
v 0.180923 0.444769 -0.050000
v 0.179450 0.432953 -0.050000
v 0.177902 0.421556 -0.050000
v 0.176279 0.410577 -0.050000
v 0.174581 0.400017 -0.050000
v 0.172809 0.389876 -0.050000
v 0.170962 0.380154 -0.050000
v 0.169040 0.370850 -0.050000
v 0.167043 0.361966 -0.050000
v 0.164971 0.353500 -0.050000
v 0.162825 0.345453 -0.050000
v 0.160604 0.337825 -0.050000
v 0.158308 0.330615 -0.050000
v 0.157362 0.327710 -0.050000
v 0.156318 0.324737 -0.050000
v 0.155178 0.321697 -0.050000
v 0.153940 0.318590 -0.050000
v 0.152605 0.315415 -0.050000
v 0.151173 0.312173 -0.050000
v 0.149644 0.308864 -0.050000
v 0.148017 0.305487 -0.050000
v 0.146293 0.302043 -0.050000
v 0.144472 0.298532 -0.050000
v 0.142554 0.294954 -0.050000
v 0.140538 0.291308 -0.050000
v 0.138501 0.287692 -0.050000
v 0.136515 0.284203 -0.050000
v 0.134582 0.280841 -0.050000
v 0.132701 0.277607 -0.050000
v 0.130872 0.274499 -0.050000
v 0.129096 0.271519 -0.050000
v 0.127372 0.268666 -0.050000
v 0.125701 0.265940 -0.050000
v 0.124082 0.263341 -0.050000
v 0.122515 0.260870 -0.050000
v 0.121001 0.258525 -0.050000
v 0.119538 0.256308 -0.050000
v 0.109846 0.241231 -0.050000
v 0.112239 0.253810 -0.050000
v 0.114393 0.266419 -0.050000
v 0.116308 0.279058 -0.050000
v 0.117983 0.291727 -0.050000
v 0.119419 0.304425 -0.050000
v 0.120615 0.317154 -0.050000
v 0.121573 0.329912 -0.050000
v 0.122291 0.342701 -0.050000
v 0.122769 0.355519 -0.050000
v 0.123009 0.368368 -0.050000
v 0.123009 0.381246 -0.050000
v 0.122769 0.394154 -0.050000
v 0.122709 0.395223 -0.050000
v 0.122530 0.396278 -0.050000
v 0.122231 0.397317 -0.050000
v 0.121812 0.398342 -0.050000
v 0.121274 0.399352 -0.050000
v 0.120615 0.400346 -0.050000
v 0.119838 0.401326 -0.050000
v 0.118940 0.402291 -0.050000
v 0.117923 0.403240 -0.050000
v 0.116786 0.404175 -0.050000
v 0.115530 0.405095 -0.050000
v 0.114154 0.406000 -0.050000
v 0.102308 0.408154 -0.050000
v 0.106369 0.409403 -0.050000
v 0.110295 0.410637 -0.050000
v 0.114087 0.411856 -0.050000
v 0.117744 0.413060 -0.050000
v 0.121266 0.414249 -0.050000
v 0.124654 0.415423 -0.050000
v 0.127907 0.416582 -0.050000
v 0.131026 0.417727 -0.050000
v 0.134010 0.418856 -0.050000
v 0.136859 0.419970 -0.050000
v 0.139574 0.421069 -0.050000
v 0.142154 0.422154 -0.050000
v -0.163692 0.354308 -0.050000
v -0.045231 0.354308 -0.050000
v -0.045231 -0.178769 -0.050000
v -0.045208 -0.181776 -0.050000
v -0.045141 -0.184692 -0.050000
v -0.045029 -0.187519 -0.050000
v -0.044872 -0.190256 -0.050000
v -0.044670 -0.192904 -0.050000
v -0.044423 -0.195462 -0.050000
v -0.044131 -0.197929 -0.050000
v -0.043795 -0.200308 -0.050000
v -0.043413 -0.202596 -0.050000
v -0.042987 -0.204795 -0.050000
v -0.042516 -0.206904 -0.050000
v -0.042000 -0.208923 -0.050000
v -0.039689 -0.220014 -0.050000
v -0.037064 -0.230312 -0.050000
v -0.034125 -0.239817 -0.050000
v -0.030872 -0.248530 -0.050000
v -0.027304 -0.256450 -0.050000
v -0.023423 -0.263577 -0.050000
v -0.019228 -0.269911 -0.050000
v -0.014718 -0.275453 -0.050000
v -0.009894 -0.280202 -0.050000
v -0.004756 -0.284158 -0.050000
v 0.000696 -0.287322 -0.050000
v 0.006462 -0.289692 -0.050000
v 0.067846 -0.289692 -0.050000
v 0.073612 -0.287322 -0.050000
v 0.079064 -0.284158 -0.050000
v 0.084202 -0.280202 -0.050000
v 0.089026 -0.275453 -0.050000
v 0.093535 -0.269911 -0.050000
v 0.097731 -0.263577 -0.050000
v 0.101612 -0.256450 -0.050000
v 0.105180 -0.248530 -0.050000
v 0.108433 -0.239817 -0.050000
v 0.111372 -0.230312 -0.050000
v 0.113997 -0.220014 -0.050000
v 0.116308 -0.208923 -0.050000
v 0.116659 -0.206739 -0.050000
v 0.116996 -0.204496 -0.050000
v 0.117317 -0.202192 -0.050000
v 0.117624 -0.199829 -0.050000
v 0.117916 -0.197406 -0.050000
v 0.118192 -0.194923 -0.050000
v 0.118454 -0.192380 -0.050000
v 0.118701 -0.189778 -0.050000
v 0.118933 -0.187115 -0.050000
v 0.119150 -0.184393 -0.050000
v 0.119351 -0.181611 -0.050000
v 0.119538 -0.178769 -0.050000
v 0.119538 -0.099077 -0.050000
v 0.119456 -0.084090 -0.050000
v 0.119209 -0.069641 -0.050000
v 0.118798 -0.055731 -0.050000
v 0.118222 -0.042359 -0.050000
v 0.117482 -0.029526 -0.050000
v 0.116577 -0.017231 -0.050000
v 0.115507 -0.005474 -0.050000
v 0.114274 0.005744 -0.050000
v 0.112875 0.016423 -0.050000
v 0.111312 0.026564 -0.050000
v 0.109584 0.036167 -0.050000
v 0.107692 0.045231 -0.050000
v 0.105882 0.054904 -0.050000
v 0.104043 0.064182 -0.050000
v 0.102173 0.073062 -0.050000
v 0.100274 0.081547 -0.050000
v 0.098344 0.089635 -0.050000
v 0.096385 0.097327 -0.050000
v 0.094395 0.104622 -0.050000
v 0.092376 0.111521 -0.050000
v 0.090327 0.118024 -0.050000
v 0.088248 0.124130 -0.050000
v 0.086139 0.129840 -0.050000
v 0.084000 0.135154 -0.050000
v 0.081719 0.140430 -0.050000
v 0.079184 0.146028 -0.050000
v 0.076394 0.151947 -0.050000
v 0.073350 0.158188 -0.050000
v 0.070052 0.164751 -0.050000
v 0.066500 0.171635 -0.050000
v 0.062693 0.178840 -0.050000
v 0.058632 0.186368 -0.050000
v 0.054317 0.194216 -0.050000
v 0.049748 0.202387 -0.050000
v 0.044924 0.210879 -0.050000
v 0.039846 0.219692 -0.050000
v 0.043077 0.224000 -0.050000
v 0.174462 0.224000 -0.050000
v 0.180130 0.225152 -0.050000
v 0.185650 0.226453 -0.050000
v 0.191019 0.227904 -0.050000
v 0.196239 0.229504 -0.050000
v 0.201310 0.231254 -0.050000
v 0.206231 0.233154 -0.050000
v 0.211002 0.235203 -0.050000
v 0.215624 0.237402 -0.050000
v 0.220096 0.239750 -0.050000
v 0.224419 0.242248 -0.050000
v 0.228592 0.244895 -0.050000
v 0.232615 0.247692 -0.050000
v 0.237110 0.251409 -0.050000
v 0.241261 0.255021 -0.050000
v 0.245067 0.258529 -0.050000
v 0.248530 0.261932 -0.050000
v 0.251649 0.265230 -0.050000
v 0.254423 0.268423 -0.050000
v 0.256854 0.271512 -0.050000
v 0.258940 0.274496 -0.050000
v 0.260683 0.277375 -0.050000
v 0.262081 0.280150 -0.050000
v 0.263136 0.282819 -0.050000
v 0.263846 0.285385 -0.050000
v 0.277846 0.334923 -0.050000
v 0.277846 0.205692 -0.050000
v 0.071077 0.205692 -0.050000
v 0.083319 0.196718 -0.050000
v 0.094919 0.187385 -0.050000
v 0.105875 0.177692 -0.050000
v 0.116188 0.167641 -0.050000
v 0.125858 0.157231 -0.050000
v 0.134885 0.146462 -0.050000
v 0.143268 0.135333 -0.050000
v 0.151009 0.123846 -0.050000
v 0.158106 0.112000 -0.050000
v 0.164560 0.099795 -0.050000
v 0.170371 0.087231 -0.050000
v 0.175538 0.074308 -0.050000
v 0.182927 0.053749 -0.050000
v 0.189658 0.033714 -0.050000
v 0.195731 0.014202 -0.050000
v 0.201145 -0.004786 -0.050000
v 0.205902 -0.023251 -0.050000
v 0.210000 -0.041192 -0.050000
v 0.213440 -0.058610 -0.050000
v 0.216222 -0.075504 -0.050000
v 0.218346 -0.091875 -0.050000
v 0.219812 -0.107722 -0.050000
v 0.220620 -0.123046 -0.050000
v 0.220769 -0.137846 -0.050000
v 0.220769 -0.163692 -0.050000
v 0.220605 -0.175965 -0.050000
v 0.220111 -0.187654 -0.050000
v 0.219288 -0.198760 -0.050000
v 0.218137 -0.209282 -0.050000
v 0.216656 -0.219221 -0.050000
v 0.214846 -0.228577 -0.050000
v 0.212707 -0.237349 -0.050000
v 0.210239 -0.245538 -0.050000
v 0.207442 -0.253144 -0.050000
v 0.204316 -0.260167 -0.050000
v 0.200861 -0.266606 -0.050000
v 0.197077 -0.272462 -0.050000
v 0.190114 -0.281406 -0.050000
v 0.182509 -0.289573 -0.050000
v 0.174260 -0.296962 -0.050000
v 0.165368 -0.303573 -0.050000
v 0.155832 -0.309406 -0.050000
v 0.145654 -0.314462 -0.050000
v 0.134832 -0.318739 -0.050000
v 0.123368 -0.322239 -0.050000
v 0.111260 -0.324962 -0.050000
v 0.098509 -0.326906 -0.050000
v 0.085114 -0.328073 -0.050000
v 0.071077 -0.328462 -0.050000
v 0.003231 -0.328462 -0.050000
v -0.010642 -0.328073 -0.050000
v -0.023902 -0.326906 -0.050000
v -0.036548 -0.324962 -0.050000
v -0.048581 -0.322239 -0.050000
v -0.060001 -0.318739 -0.050000
v -0.070808 -0.314462 -0.050000
v -0.081001 -0.309406 -0.050000
v -0.090581 -0.303573 -0.050000
v -0.099548 -0.296962 -0.050000
v -0.107902 -0.289573 -0.050000
v -0.115642 -0.281406 -0.050000
v -0.122769 -0.272462 -0.050000
v -0.126725 -0.266441 -0.050000
v -0.130338 -0.259868 -0.050000
v -0.133606 -0.252740 -0.050000
v -0.136530 -0.245060 -0.050000
v -0.139110 -0.236826 -0.050000
v -0.141346 -0.228038 -0.050000
v -0.143238 -0.218698 -0.050000
v -0.144786 -0.208803 -0.050000
v -0.145990 -0.198356 -0.050000
v -0.146850 -0.187355 -0.050000
v -0.147366 -0.175800 -0.050000
v -0.147538 -0.163692 -0.050000
v -0.147538 0.303692 -0.050000
v -0.148944 0.306631 -0.050000
v -0.150291 0.309346 -0.050000
v -0.151577 0.311837 -0.050000
v -0.152803 0.314103 -0.050000
v -0.153970 0.316144 -0.050000
v -0.155077 0.317962 -0.050000
v -0.156124 0.319555 -0.050000
v -0.157111 0.320923 -0.050000
v -0.158038 0.322067 -0.050000
v -0.158906 0.322987 -0.050000
v -0.159714 0.323683 -0.050000
v -0.160462 0.324154 -0.050000
v -0.179846 0.336000 -0.050000
v -0.290769 0.336000 -0.050000
v -0.283507 0.338775 -0.050000
v -0.276799 0.341355 -0.050000
v -0.270644 0.343740 -0.050000
v -0.265043 0.345932 -0.050000
v -0.259995 0.347928 -0.050000
v -0.255500 0.349731 -0.050000
v -0.251559 0.351339 -0.050000
v -0.248171 0.352752 -0.050000
v -0.245337 0.353971 -0.050000
v -0.243056 0.354996 -0.050000
v -0.241328 0.355826 -0.050000
v -0.240154 0.356462 -0.050000
v -0.201385 0.382308 -0.050000
v -0.200136 0.379369 -0.050000
v -0.198902 0.376654 -0.050000
v -0.197683 0.374163 -0.050000
v -0.196479 0.371897 -0.050000
v -0.195290 0.369856 -0.050000
v -0.194115 0.368038 -0.050000
v -0.192956 0.366446 -0.050000
v -0.191812 0.365077 -0.050000
v -0.190683 0.363933 -0.050000
v -0.189568 0.363013 -0.050000
v -0.188469 0.362317 -0.050000
v -0.187385 0.361846 -0.050000
v 0.288615 0.444769 0.050002
v 0.285340 0.432272 0.050002
v 0.281974 0.420269 0.050002
v 0.278519 0.408760 0.050002
v 0.274974 0.397744 0.050002
v 0.271340 0.387221 0.050002
v 0.267615 0.377192 0.050002
v 0.263801 0.367657 0.050002
v 0.259897 0.358615 0.050002
v 0.255904 0.350067 0.050002
v 0.251820 0.342013 0.050002
v 0.247647 0.334452 0.050002
v 0.243385 0.327385 0.050002
v 0.241530 0.324479 0.050002
v 0.239556 0.321506 0.050002
v 0.237462 0.318466 0.050002
v 0.235248 0.315359 0.050002
v 0.232915 0.312184 0.050002
v 0.230462 0.308942 0.050002
v 0.227889 0.305633 0.050002
v 0.225197 0.302256 0.050002
v 0.222385 0.298813 0.050002
v 0.219453 0.295301 0.050002
v 0.216402 0.291723 0.050002
v 0.213231 0.288077 0.050002
v 0.210030 0.284461 0.050002
v 0.206889 0.280972 0.050002
v 0.203808 0.277611 0.050002
v 0.200786 0.274376 0.050002
v 0.197825 0.271269 0.050002
v 0.194923 0.268288 0.050002
v 0.192081 0.265435 0.050002
v 0.189299 0.262709 0.050002
v 0.186577 0.260111 0.050002
v 0.183915 0.257639 0.050002
v 0.181312 0.255294 0.050002
v 0.178769 0.253077 0.050002
v 0.164769 0.240154 0.050002
v 0.169997 0.247431 0.050002
v 0.174910 0.254543 0.050002
v 0.179510 0.261490 0.050002
v 0.183795 0.268274 0.050002
v 0.187766 0.274892 0.050002
v 0.191423 0.281346 0.050002
v 0.194766 0.287636 0.050002
v 0.197795 0.293761 0.050002
v 0.200510 0.299721 0.050002
v 0.202910 0.305517 0.050002
v 0.204997 0.311148 0.050002
v 0.206769 0.316615 0.050002
v 0.209798 0.326076 0.050002
v 0.212423 0.335073 0.050002
v 0.214644 0.343606 0.050002
v 0.216462 0.351675 0.050002
v 0.217875 0.359281 0.050002
v 0.218885 0.366423 0.050002
v 0.219490 0.373101 0.050002
v 0.219692 0.379316 0.050002
v 0.219490 0.385067 0.050002
v 0.218885 0.390355 0.050002
v 0.217875 0.395178 0.050002
v 0.216462 0.399538 0.050002
v 0.216233 0.399905 0.050002
v 0.215908 0.400286 0.050002
v 0.215486 0.400683 0.050002
v 0.214966 0.401094 0.050002
v 0.214349 0.401520 0.050002
v 0.213635 0.401962 0.050002
v 0.212823 0.402418 0.050002
v 0.211915 0.402889 0.050002
v 0.210909 0.403375 0.050002
v 0.209806 0.403876 0.050002
v 0.208605 0.404392 0.050002
v 0.207308 0.404923 0.050002
v 0.206010 0.405439 0.050002
v 0.204810 0.405910 0.050002
v 0.203707 0.406337 0.050002
v 0.202701 0.406718 0.050002
v 0.201792 0.407055 0.050002
v 0.200981 0.407346 0.050002
v 0.200267 0.407593 0.050002
v 0.199650 0.407795 0.050002
v 0.199130 0.407952 0.050002
v 0.198707 0.408064 0.050002
v 0.198382 0.408131 0.050002
v 0.198154 0.408154 0.050002
v 0.203090 0.409590 0.050002
v 0.207846 0.411026 0.050002
v 0.212423 0.412462 0.050002
v 0.216820 0.413897 0.050002
v 0.221038 0.415333 0.050002
v 0.225077 0.416769 0.050002
v 0.228936 0.418205 0.050002
v 0.232615 0.419641 0.050002
v 0.236115 0.421077 0.050002
v 0.239436 0.422513 0.050002
v 0.242577 0.423949 0.050002
v 0.245538 0.425385 0.050002
v 0.180923 0.444769 0.050002
v 0.179450 0.432953 0.050002
v 0.177902 0.421556 0.050002
v 0.176279 0.410577 0.050002
v 0.174581 0.400017 0.050002
v 0.172809 0.389876 0.050002
v 0.170962 0.380154 0.050002
v 0.169040 0.370850 0.050002
v 0.167043 0.361966 0.050002
v 0.164971 0.353500 0.050002
v 0.162825 0.345453 0.050002
v 0.160604 0.337825 0.050002
v 0.158308 0.330615 0.050002
v 0.157362 0.327710 0.050002
v 0.156318 0.324737 0.050002
v 0.155178 0.321697 0.050002
v 0.153940 0.318590 0.050002
v 0.152605 0.315415 0.050002
v 0.151173 0.312173 0.050002
v 0.149644 0.308864 0.050002
v 0.148017 0.305487 0.050002
v 0.146293 0.302043 0.050002
v 0.144472 0.298532 0.050002
v 0.142554 0.294954 0.050002
v 0.140538 0.291308 0.050002
v 0.138501 0.287692 0.050002
v 0.136515 0.284203 0.050002
v 0.134582 0.280841 0.050002
v 0.132701 0.277607 0.050002
v 0.130872 0.274499 0.050002
v 0.129096 0.271519 0.050002
v 0.127372 0.268666 0.050002
v 0.125701 0.265940 0.050002
v 0.124082 0.263341 0.050002
v 0.122515 0.260870 0.050002
v 0.121001 0.258525 0.050002
v 0.119538 0.256308 0.050002
v 0.109846 0.241231 0.050002
v 0.112239 0.253810 0.050002
v 0.114393 0.266419 0.050002
v 0.116308 0.279058 0.050002
v 0.117983 0.291727 0.050002
v 0.119419 0.304425 0.050002
v 0.120615 0.317154 0.050002
v 0.121573 0.329912 0.050002
v 0.122291 0.342701 0.050002
v 0.122769 0.355519 0.050002
v 0.123009 0.368368 0.050002
v 0.123009 0.381246 0.050002
v 0.122769 0.394154 0.050002
v 0.122709 0.395223 0.050002
v 0.122530 0.396278 0.050002
v 0.122231 0.397317 0.050002
v 0.121812 0.398342 0.050002
v 0.121274 0.399352 0.050002
v 0.120615 0.400346 0.050002
v 0.119838 0.401326 0.050002
v 0.118940 0.402291 0.050002
v 0.117923 0.403240 0.050002
v 0.116786 0.404175 0.050002
v 0.115530 0.405095 0.050002
v 0.114154 0.406000 0.050002
v 0.102308 0.408154 0.050002
v 0.106369 0.409403 0.050002
v 0.110295 0.410637 0.050002
v 0.114087 0.411856 0.050002
v 0.117744 0.413060 0.050002
v 0.121266 0.414249 0.050002
v 0.124654 0.415423 0.050002
v 0.127907 0.416582 0.050002
v 0.131026 0.417727 0.050002
v 0.134010 0.418856 0.050002
v 0.136859 0.419970 0.050002
v 0.139574 0.421069 0.050002
v 0.142154 0.422154 0.050002
v -0.163692 0.354308 0.050002
v -0.045231 0.354308 0.050002
v -0.045231 -0.178769 0.050002
v -0.045208 -0.181776 0.050002
v -0.045141 -0.184692 0.050002
v -0.045029 -0.187519 0.050002
v -0.044872 -0.190256 0.050002
v -0.044670 -0.192904 0.050002
v -0.044423 -0.195462 0.050002
v -0.044131 -0.197929 0.050002
v -0.043795 -0.200308 0.050002
v -0.043413 -0.202596 0.050002
v -0.042987 -0.204795 0.050002
v -0.042516 -0.206904 0.050002
v -0.042000 -0.208923 0.050002
v -0.039689 -0.220014 0.050002
v -0.037064 -0.230312 0.050002
v -0.034125 -0.239817 0.050002
v -0.030872 -0.248530 0.050002
v -0.027304 -0.256450 0.050002
v -0.023423 -0.263577 0.050002
v -0.019228 -0.269911 0.050002
v -0.014718 -0.275453 0.050002
v -0.009894 -0.280202 0.050002
v -0.004756 -0.284158 0.050002
v 0.000696 -0.287322 0.050002
v 0.006462 -0.289692 0.050002
v 0.067846 -0.289692 0.050002
v 0.073612 -0.287322 0.050002
v 0.079064 -0.284158 0.050002
v 0.084202 -0.280202 0.050002
v 0.089026 -0.275453 0.050002
v 0.093535 -0.269911 0.050002
v 0.097731 -0.263577 0.050002
v 0.101612 -0.256450 0.050002
v 0.105180 -0.248530 0.050002
v 0.108433 -0.239817 0.050002
v 0.111372 -0.230312 0.050002
v 0.113997 -0.220014 0.050002
v 0.116308 -0.208923 0.050002
v 0.116659 -0.206739 0.050002
v 0.116996 -0.204496 0.050002
v 0.117317 -0.202192 0.050002
v 0.117624 -0.199829 0.050002
v 0.117916 -0.197406 0.050002
v 0.118192 -0.194923 0.050002
v 0.118454 -0.192380 0.050002
v 0.118701 -0.189778 0.050002
v 0.118933 -0.187115 0.050002
v 0.119150 -0.184393 0.050002
v 0.119351 -0.181611 0.050002
v 0.119538 -0.178769 0.050002
v 0.119538 -0.099077 0.050002
v 0.119456 -0.084090 0.050002
v 0.119209 -0.069641 0.050002
v 0.118798 -0.055731 0.050002
v 0.118222 -0.042359 0.050002
v 0.117482 -0.029526 0.050002
v 0.116577 -0.017231 0.050002
v 0.115507 -0.005474 0.050002
v 0.114274 0.005744 0.050002
v 0.112875 0.016423 0.050002
v 0.111312 0.026564 0.050002
v 0.109584 0.036167 0.050002
v 0.107692 0.045231 0.050002
v 0.105882 0.054904 0.050002
v 0.104043 0.064182 0.050002
v 0.102173 0.073062 0.050002
v 0.100274 0.081547 0.050002
v 0.098344 0.089635 0.050002
v 0.096385 0.097327 0.050002
v 0.094395 0.104622 0.050002
v 0.092376 0.111521 0.050002
v 0.090327 0.118024 0.050002
v 0.088248 0.124130 0.050002
v 0.086139 0.129840 0.050002
v 0.084000 0.135154 0.050002
v 0.081719 0.140430 0.050002
v 0.079184 0.146028 0.050002
v 0.076394 0.151947 0.050002
v 0.073350 0.158188 0.050002
v 0.070052 0.164751 0.050002
v 0.066500 0.171635 0.050002
v 0.062693 0.178840 0.050002
v 0.058632 0.186368 0.050002
v 0.054317 0.194216 0.050002
v 0.049748 0.202387 0.050002
v 0.044924 0.210879 0.050002
v 0.039846 0.219692 0.050002
v 0.043077 0.224000 0.050002
v 0.174462 0.224000 0.050002
v 0.180130 0.225152 0.050002
v 0.185650 0.226453 0.050002
v 0.191019 0.227904 0.050002
v 0.196239 0.229504 0.050002
v 0.201310 0.231254 0.050002
v 0.206231 0.233154 0.050002
v 0.211002 0.235203 0.050002
v 0.215624 0.237402 0.050002
v 0.220096 0.239750 0.050002
v 0.224419 0.242248 0.050002
v 0.228592 0.244895 0.050002
v 0.232615 0.247692 0.050002
v 0.237110 0.251409 0.050002
v 0.241261 0.255021 0.050002
v 0.245067 0.258529 0.050002
v 0.248530 0.261932 0.050002
v 0.251649 0.265230 0.050002
v 0.254423 0.268423 0.050002
v 0.256854 0.271512 0.050002
v 0.258940 0.274496 0.050002
v 0.260683 0.277375 0.050002
v 0.262081 0.280150 0.050002
v 0.263136 0.282819 0.050002
v 0.263846 0.285385 0.050002
v 0.277846 0.334923 0.050002
v 0.277846 0.205692 0.050002
v 0.071077 0.205692 0.050002
v 0.083319 0.196718 0.050002
v 0.094919 0.187385 0.050002
v 0.105875 0.177692 0.050002
v 0.116188 0.167641 0.050002
v 0.125858 0.157231 0.050002
v 0.134885 0.146462 0.050002
v 0.143268 0.135333 0.050002
v 0.151009 0.123846 0.050002
v 0.158106 0.112000 0.050002
v 0.164560 0.099795 0.050002
v 0.170371 0.087231 0.050002
v 0.175538 0.074308 0.050002
v 0.182927 0.053749 0.050002
v 0.189658 0.033714 0.050002
v 0.195731 0.014202 0.050002
v 0.201145 -0.004786 0.050002
v 0.205902 -0.023251 0.050002
v 0.210000 -0.041192 0.050002
v 0.213440 -0.058610 0.050002
v 0.216222 -0.075504 0.050002
v 0.218346 -0.091875 0.050002
v 0.219812 -0.107722 0.050002
v 0.220620 -0.123046 0.050002
v 0.220769 -0.137846 0.050002
v 0.220769 -0.163692 0.050002
v 0.220605 -0.175965 0.050002
v 0.220111 -0.187654 0.050002
v 0.219288 -0.198760 0.050002
v 0.218137 -0.209282 0.050002
v 0.216656 -0.219221 0.050002
v 0.214846 -0.228577 0.050002
v 0.212707 -0.237349 0.050002
v 0.210239 -0.245538 0.050002
v 0.207442 -0.253144 0.050002
v 0.204316 -0.260167 0.050002
v 0.200861 -0.266606 0.050002
v 0.197077 -0.272462 0.050002
v 0.190114 -0.281406 0.050002
v 0.182509 -0.289573 0.050002
v 0.174260 -0.296962 0.050002
v 0.165368 -0.303573 0.050002
v 0.155832 -0.309406 0.050002
v 0.145654 -0.314462 0.050002
v 0.134832 -0.318739 0.050002
v 0.123368 -0.322239 0.050002
v 0.111260 -0.324962 0.050002
v 0.098509 -0.326906 0.050002
v 0.085114 -0.328073 0.050002
v 0.071077 -0.328462 0.050002
v 0.003231 -0.328462 0.050002
v -0.010642 -0.328073 0.050002
v -0.023902 -0.326906 0.050002
v -0.036548 -0.324962 0.050002
v -0.048581 -0.322239 0.050002
v -0.060001 -0.318739 0.050002
v -0.070808 -0.314462 0.050002
v -0.081001 -0.309406 0.050002
v -0.090581 -0.303573 0.050002
v -0.099548 -0.296962 0.050002
v -0.107902 -0.289573 0.050002
v -0.115642 -0.281406 0.050002
v -0.122769 -0.272462 0.050002
v -0.126725 -0.266441 0.050002
v -0.130338 -0.259868 0.050002
v -0.133606 -0.252740 0.050002
v -0.136530 -0.245060 0.050002
v -0.139110 -0.236826 0.050002
v -0.141346 -0.228038 0.050002
v -0.143238 -0.218698 0.050002
v -0.144786 -0.208803 0.050002
v -0.145990 -0.198356 0.050002
v -0.146850 -0.187355 0.050002
v -0.147366 -0.175800 0.050002
v -0.147538 -0.163692 0.050002
v -0.147538 0.303692 0.050002
v -0.148944 0.306631 0.050002
v -0.150291 0.309346 0.050002
v -0.151577 0.311837 0.050002
v -0.152803 0.314103 0.050002
v -0.153970 0.316144 0.050002
v -0.155077 0.317962 0.050002
v -0.156124 0.319555 0.050002
v -0.157111 0.320923 0.050002
v -0.158038 0.322067 0.050002
v -0.158906 0.322987 0.050002
v -0.159714 0.323683 0.050002
v -0.160462 0.324154 0.050002
v -0.179846 0.336000 0.050002
v -0.290769 0.336000 0.050002
v -0.283507 0.338775 0.050002
v -0.276799 0.341355 0.050002
v -0.270644 0.343740 0.050002
v -0.265043 0.345932 0.050002
v -0.259995 0.347928 0.050002
v -0.255500 0.349731 0.050002
v -0.251559 0.351339 0.050002
v -0.248171 0.352752 0.050002
v -0.245337 0.353971 0.050002
v -0.243056 0.354996 0.050002
v -0.241328 0.355826 0.050002
v -0.240154 0.356462 0.050002
v -0.201385 0.382308 0.050002
v -0.200136 0.379369 0.050002
v -0.198902 0.376654 0.050002
v -0.197683 0.374163 0.050002
v -0.196479 0.371897 0.050002
v -0.195290 0.369856 0.050002
v -0.194115 0.368038 0.050002
v -0.192956 0.366446 0.050002
v -0.191812 0.365077 0.050002
v -0.190683 0.363933 0.050002
v -0.189568 0.363013 0.050002
v -0.188469 0.362317 0.050002
v -0.187385 0.361846 0.050002
vn -0.0000 -0.0000 -1.0000
vn -0.0000 -0.0000 1.0000
vn -0.9801 -0.1985 -0.0000
vn -0.2295 0.9733 -0.0000
vn -0.2793 0.9602 -0.0000
vn -0.1991 0.9800 -0.0000
vn 0.9601 -0.2796 -0.0000
vn -0.2940 0.9558 -0.0000
vn 0.9818 -0.1899 -0.0000
vn -0.3614 0.9324 -0.0000
vn -0.8000 0.6000 -0.0000
vn -0.0982 -0.9952 -0.0000
vn 0.9690 0.2470 -0.0000
vn -0.9678 0.2519 -0.0000
vn -0.9690 0.2470 -0.0000
vn -0.0000 1.0000 -0.0000
vn -0.9984 0.0561 -0.0000
vn 0.9519 -0.3063 -0.0000
vn -0.9691 -0.2466 -0.0000
vn -0.8665 -0.4992 -0.0000
vn -0.1789 -0.9839 -0.0000
vn -0.8695 -0.4939 -0.0000
vn 0.8755 -0.4832 -0.0000
vn -0.2025 -0.9793 -0.0000
vn 0.9715 -0.2369 -0.0000
vn -0.3590 0.9333 -0.0000
vn -0.2566 -0.9665 -0.0000
vn 0.9554 0.2954 -0.0000
vn -0.0000 -1.0000 -0.0000
vn -0.3569 0.9341 -0.0000
vn -0.9554 0.2954 -0.0000
vn -0.2894 -0.9572 -0.0000
vn 0.5912 0.8065 -0.0000
vn -0.9542 -0.2990 -0.0000
vn -0.8728 -0.4881 -0.0000
vn 0.9528 -0.3034 -0.0000
vn -0.3110 -0.9504 -0.0000
vn -0.9600 0.2801 -0.0000
vn -0.3266 -0.9451 -0.0000
vn 0.9575 -0.2886 -0.0000
vn 0.6269 0.7791 -0.0000
vn -0.9623 0.2720 -0.0000
vn -0.8763 -0.4818 -0.0000
vn -0.3383 -0.9410 -0.0000
vn 0.9368 0.3498 -0.0000
vn 1.0000 -0.0000 -0.0000
vn -0.9368 0.3498 -0.0000
vn -0.3473 -0.9378 -0.0000
vn 0.6626 0.7490 -0.0000
vn 0.8563 -0.5165 -0.0000
vn -0.9346 -0.3558 -0.0000
vn -0.8801 -0.4748 -0.0000
vn -0.3546 -0.9350 -0.0000
vn 0.9509 -0.3096 -0.0000
vn -0.8842 -0.4671 -0.0000
vn -0.9972 0.0748 -0.0000
vn -0.3605 -0.9328 -0.0000
vn 0.9385 -0.3451 -0.0000
vn -0.5494 -0.8355 -0.0000
vn 0.9118 0.4107 -0.0000
vn 0.6980 0.7161 -0.0000
vn 0.9436 -0.3311 -0.0000
vn -0.9118 0.4107 -0.0000
vn -0.8887 -0.4586 -0.0000
vn -0.3654 -0.9308 -0.0000
vn 0.8429 -0.5381 -0.0000
vn -0.9090 -0.4168 -0.0000
vn -0.9524 0.3049 -0.0000
vn -0.3695 -0.9292 -0.0000
vn 0.7327 0.6806 -0.0000
vn -0.8935 -0.4490 -0.0000
vn -0.5907 -0.8069 -0.0000
vn 0.9136 -0.4067 -0.0000
vn 0.9363 -0.3512 -0.0000
vn -0.8988 -0.4384 -0.0000
vn -0.3787 -0.9255 -0.0000
vn 0.8782 0.4783 -0.0000
vn 0.8330 -0.5532 -0.0000
vn -0.8782 0.4783 -0.0000
vn -0.3949 -0.9187 -0.0000
vn 0.7664 0.6424 -0.0000
vn 0.9290 -0.3700 -0.0000
vn -0.8764 -0.4816 -0.0000
vn -0.9046 -0.4263 -0.0000
vn -0.6352 -0.7724 -0.0000
vn 0.8235 -0.5673 -0.0000
vn -0.4136 -0.9105 -0.0000
vn 0.8812 -0.4728 -0.0000
vn 0.7987 0.6017 -0.0000
vn 0.9218 -0.3876 -0.0000
vn -0.9109 -0.4126 -0.0000
vn -0.4351 -0.9004 -0.0000
vn 0.8337 0.5522 -0.0000
vn 0.8145 -0.5802 -0.0000
vn -0.8337 0.5522 -0.0000
vn -0.9179 -0.3968 -0.0000
vn -0.9956 0.0936 -0.0000
vn -0.6825 -0.7309 -0.0000
vn -0.8357 -0.5492 -0.0000
vn -0.9513 0.3084 -0.0000
vn -0.4603 -0.8878 -0.0000
vn 0.8293 0.5588 -0.0000
vn -0.9277 -0.3734 -0.0000
vn -0.4901 -0.8717 -0.0000
vn 0.8399 -0.5428 -0.0000
vn 0.9147 -0.4041 -0.0000
vn -0.9381 -0.3465 -0.0000
vn -0.7322 -0.6811 -0.0000
vn 0.7756 0.6312 -0.0000
vn 0.8058 -0.5922 -0.0000
vn -0.7756 0.6312 -0.0000
vn -0.9466 -0.3223 -0.0000
vn -0.5256 -0.8507 -0.0000
vn 0.7975 -0.6034 -0.0000
vn -0.7821 -0.6232 -0.0000
vn -0.5685 -0.8227 -0.0000
vn 0.8578 0.5139 -0.0000
vn 0.9077 -0.4195 -0.0000
vn -0.9538 -0.3006 -0.0000
vn -0.9377 0.3474 -0.0000
vn -0.7832 -0.6218 -0.0000
vn 0.7891 -0.6143 -0.0000
vn -0.6206 -0.7842 -0.0000
vn 0.7016 0.7126 -0.0000
vn 0.8840 0.4675 -0.0000
vn 0.7895 -0.6138 -0.0000
vn -0.7016 0.7126 -0.0000
vn -0.9597 -0.2809 -0.0000
vn -0.6842 -0.7293 -0.0000
vn 0.9009 -0.4340 -0.0000
vn -0.9648 -0.2631 -0.0000
vn -0.8340 -0.5518 -0.0000
vn 0.6101 0.7923 -0.0000
vn 0.7819 -0.6234 -0.0000
vn -0.6101 0.7923 -0.0000
vn -0.9239 0.3827 -0.0000
vn -0.7608 -0.6490 -0.0000
vn 0.9076 0.4198 -0.0000
vn -0.7258 -0.6879 -0.0000
vn -0.9691 -0.2469 -0.0000
vn 0.8942 -0.4476 -0.0000
vn 0.9851 -0.1722 -0.0000
vn -0.9727 -0.2320 -0.0000
vn -0.9937 0.1124 -0.0000
vn -0.8489 -0.5285 -0.0000
vn 0.7318 -0.6815 -0.0000
vn -1.0000 -0.0000 -0.0000
vn -0.9513 -0.3084 -0.0000
vn 0.5019 0.8649 -0.0000
vn 0.9285 0.3713 -0.0000
vn -0.5019 0.8649 -0.0000
vn -0.9758 -0.2185 -0.0000
vn -0.8823 -0.4706 -0.0000
vn 0.7746 -0.6325 -0.0000
vn -0.9256 -0.3784 -0.0000
vn 0.3803 0.9249 -0.0000
vn 0.9411 0.3382 -0.0000
vn 0.8877 -0.4604 -0.0000
vn -0.3803 0.9249 -0.0000
vn -0.9785 -0.2060 -0.0000
vn -0.9101 0.4145 -0.0000
vn 0.9452 -0.3265 -0.0000
vn -0.6625 -0.7490 -0.0000
vn -0.9809 -0.1945 -0.0000
vn -0.9610 -0.2766 -0.0000
vn 0.7676 -0.6409 -0.0000
vn -0.9829 -0.1839 -0.0000
vn -0.9858 -0.1678 -0.0000
vn 0.6672 -0.7449 -0.0000
vn 0.8814 -0.4725 -0.0000
vn -0.9984 -0.0559 -0.0000
vn 0.9479 0.3185 -0.0000
vn 0.7609 -0.6488 -0.0000
vn -0.9789 -0.2043 -0.0000
vn -0.9788 -0.2049 -0.0000
vn -0.5934 -0.8049 -0.0000
vn 0.8752 -0.4838 -0.0000
vn -0.9842 -0.1771 -0.0000
vn -0.8964 0.4433 -0.0000
vn -0.9998 -0.0185 -0.0000
vn 0.5966 -0.8025 -0.0000
vn -0.9914 0.1311 -0.0000
vn -0.9935 -0.1138 -0.0000
vn -0.5201 -0.8541 -0.0000
vn 0.9548 0.2972 -0.0000
vn -0.9883 -0.1523 -0.0000
vn 0.7545 -0.6563 -0.0000
vn 0.9824 -0.1867 -0.0000
vn 0.5219 -0.8530 -0.0000
vn -0.9915 -0.1298 -0.0000
vn -0.4443 -0.8959 -0.0000
vn 0.8712 -0.4910 -0.0000
vn 0.9374 -0.3481 -0.0000
vn -0.9994 -0.0351 -0.0000
vn 0.9617 0.2742 -0.0000
vn 0.7488 -0.6628 -0.0000
vn 0.4448 -0.8956 -0.0000
vn -0.9940 -0.1093 -0.0000
vn -0.5547 0.8320 -0.0000
vn -0.3681 -0.9298 -0.0000
vn 0.8691 -0.4946 -0.0000
vn -0.8830 0.4693 -0.0000
vn 0.9204 0.3911 -0.0000
vn 0.9684 0.2495 -0.0000
vn 0.3676 -0.9300 -0.0000
vn -0.9959 -0.0906 -0.0000
vn -0.9637 0.2669 -0.0000
vn -0.2930 -0.9561 -0.0000
vn -0.9973 -0.0734 -0.0000
vn 0.9793 -0.2023 -0.0000
vn 0.7432 -0.6691 -0.0000
vn 0.2920 -0.9564 -0.0000
vn 0.9104 0.4138 -0.0000
vn -0.2207 -0.9754 -0.0000
vn 0.9749 0.2227 -0.0000
vn 0.8669 -0.4985 -0.0000
vn -0.9995 0.0325 -0.0000
vn -0.9983 -0.0576 -0.0000
vn -0.9301 0.3673 -0.0000
vn 0.2193 -0.9756 -0.0000
vn -0.8700 0.4930 -0.0000
vn 0.9285 -0.3714 -0.0000
vn -0.1520 -0.9884 -0.0000
vn 0.9810 0.1938 -0.0000
vn -0.9991 -0.0430 -0.0000
vn 0.8982 0.4396 -0.0000
vn 0.7372 -0.6757 -0.0000
vn 0.1508 -0.9886 -0.0000
vn -0.9996 -0.0296 -0.0000
vn 0.8831 0.4692 -0.0000
vn -0.0876 -0.9962 -0.0000
vn 0.8645 -0.5027 -0.0000
vn -0.9959 0.0903 -0.0000
vn -0.8930 0.4501 -0.0000
vn 0.9867 0.1625 -0.0000
vn 0.0868 -0.9962 -0.0000
vn -0.9999 -0.0171 -0.0000
vn -0.9887 0.1498 -0.0000
vn 0.8641 0.5033 -0.0000
vn -0.0280 -0.9996 -0.0000
vn 0.9757 -0.2193 -0.0000
vn 0.9917 0.1287 -0.0000
vn 0.7308 -0.6826 -0.0000
vn 0.0277 -0.9996 -0.0000
vn -1.0000 -0.0055 -0.0000
vn 0.8399 0.5427 -0.0000
vn 0.8619 -0.5072 -0.0000
vn -0.9998 0.0186 -0.0000
vn -0.8555 0.5178 -0.0000
vn 0.9957 0.0921 -0.0000
vn -0.8575 0.5145 -0.0000
vn 0.8086 0.5884 -0.0000
vn 0.9181 -0.3964 -0.0000
vn 0.9986 0.0526 -0.0000
vn 0.8590 -0.5120 -0.0000
vn -0.8195 0.5730 -0.0000
vn 0.7672 0.6414 -0.0000
vn 0.9999 0.0101 -0.0000
vn -0.9902 0.1400 -0.0000
vn 0.7239 -0.6899 -0.0000
vn -0.9999 -0.0142 -0.0000
vn 0.7117 0.7024 -0.0000
vn 0.8559 -0.5171 -0.0000
vn -0.7859 0.6184 -0.0000
vn 0.6366 0.7712 -0.0000
vn 0.9999 -0.0134 -0.0000
vn -0.9990 -0.0446 -0.0000
vn 0.5346 0.8451 -0.0000
vn 0.7165 -0.6976 -0.0000
vn 0.3985 0.9172 -0.0000
vn 0.9991 -0.0422 -0.0000
vn 0.8525 -0.5227 -0.0000
vn -0.7549 0.6559 -0.0000
vn 0.9713 -0.2377 -0.0000
vn 1.0000 0.0075 -0.0000
vn -0.9978 0.0656 -0.0000
vn 0.3032 0.9529 -0.0000
vn 0.7085 -0.7057 -0.0000
vn -0.9832 0.1827 -0.0000
vn -0.9974 0.0724 -0.0000
vn -0.8454 0.5341 -0.0000
vn -0.5039 0.8638 -0.0000
vn -0.9857 0.1684 -0.0000
vn 0.9060 -0.4233 -0.0000
vn 0.9997 0.0231 -0.0000
vn -0.4761 0.8794 -0.0000
vn 0.9923 -0.1237 -0.0000
vn -0.9968 0.0794 -0.0000
vn -0.4104 0.9119 -0.0000
vn 0.8488 -0.5288 -0.0000
vn -0.4331 0.9013 -0.0000
vn 0.9673 -0.2536 -0.0000
vn 0.9992 0.0397 -0.0000
vn 0.6999 -0.7143 -0.0000
vn -0.9993 0.0373 -0.0000
vn -0.9962 0.0868 -0.0000
vn -0.7266 0.6871 -0.0000
vn 0.9909 -0.1346 -0.0000
vn -0.4097 0.9122 -0.0000
vn -0.9970 -0.0779 -0.0000
vn 0.9629 -0.2700 -0.0000
vn 0.8446 -0.5354 -0.0000
vn -0.4363 0.8998 -0.0000
vn 0.9984 0.0573 -0.0000
vn 0.6905 -0.7233 -0.0000
vn -0.4157 0.9095 -0.0000
vn -0.7009 0.7132 -0.0000
vn 0.9973 -0.0739 -0.0000
vn -0.5214 -0.8533 -0.0000
vn -0.3969 0.9179 -0.0000
vn -0.9955 0.0944 -0.0000
vn -0.8338 0.5520 -0.0000
vn -0.5331 -0.8461 -0.0000
vn -0.3874 0.9219 -0.0000
vn 0.9971 0.0761 -0.0000
vn 0.8400 -0.5426 -0.0000
vn -0.6525 -0.7578 -0.0000
vn -0.9947 0.1024 -0.0000
vn 0.9893 -0.1462 -0.0000
vn 0.6804 -0.7329 -0.0000
vn -0.7275 -0.6861 -0.0000
vn -0.3796 0.9252 -0.0000
vn -0.6776 0.7354 -0.0000
vn 0.9954 0.0960 -0.0000
vn -0.7769 -0.6296 -0.0000
vn -0.3754 0.9269 -0.0000
vn -0.9938 0.1108 -0.0000
vn 0.8349 -0.5505 -0.0000
vn -0.8110 -0.5850 -0.0000
vn 0.9578 -0.2875 -0.0000
vn 0.9931 0.1174 -0.0000
vn 0.6693 -0.7430 -0.0000
vn -0.3642 0.9313 -0.0000
vn -0.9928 0.1195 -0.0000
vn -0.9824 0.1869 -0.0000
vn 0.8412 -0.5408 -0.0000
vn -0.8541 -0.5202 -0.0000
vn -0.3635 0.9316 -0.0000
vn -0.3539 0.9353 -0.0000
vn 0.9901 0.1401 -0.0000
vn 0.6573 -0.7537 -0.0000
vn -0.8682 -0.4961 -0.0000
vn -0.9934 -0.1145 -0.0000
vn -0.6565 0.7543 -0.0000
vn -0.3487 0.9372 -0.0000
vn -0.8794 -0.4760 -0.0000
vn -0.8228 0.5684 -0.0000
vn -0.3445 0.9388 -0.0000
vn 0.9941 -0.1088 -0.0000
vn -0.8885 -0.4589 -0.0000
vn -0.9917 0.1287 -0.0000
vn -0.8122 0.5834 -0.0000
vn -0.3350 0.9422 -0.0000
vn 0.6783 -0.7348 -0.0000
vn -0.8959 -0.4443 -0.0000
vn -0.6373 0.7706 -0.0000
vn -0.3357 0.9420 -0.0000
vn 0.9864 0.1644 -0.0000
vn -0.9021 -0.4315 -0.0000
vn -0.9904 0.1383 -0.0000
vn -0.5708 0.8211 -0.0000
vn -0.3275 0.9449 -0.0000
vn -0.5357 0.8444 -0.0000
vn -0.3223 0.9466 -0.0000
vn 0.9817 0.1903 -0.0000
vn -0.3951 0.9186 -0.0000
vn -0.9889 0.1483 -0.0000
vn -0.5003 0.8658 -0.0000
vn -0.3198 0.9475 -0.0000
vn -0.4649 0.8854 -0.0000
vn 0.9662 -0.2577 -0.0000
vn -0.3104 0.9506 -0.0000
vn 0.9759 0.2180 -0.0000
vn -0.3851 0.9229 -0.0000
vn -0.9873 0.1589 -0.0000
vn -0.4296 0.9030 -0.0000
vn -0.3127 0.9498 -0.0000
vn -0.9756 0.2197 -0.0000
vn -0.3946 0.9188 -0.0000
vn -0.2993 0.9541 -0.0000
vn 0.9689 0.2476 -0.0000
vn -0.3777 0.9259 -0.0000
vn -0.9880 -0.1546 -0.0000
vn -0.3601 0.9329 -0.0000
vn -0.3061 0.9520 -0.0000
vn -0.3263 0.9453 -0.0000
vn 0.8919 -0.4522 -0.0000
vn -0.2890 0.9573 -0.0000
vn 0.9790 0.2040 -0.0000
vn -0.3722 0.9282 -0.0000
vn -0.9790 0.2040 -0.0000
vn -0.2931 0.9561 -0.0000
vn -0.2998 0.9540 -0.0000
vn -0.3678 0.9299 -0.0000
vn -0.2608 0.9654 -0.0000
vn 0.9891 -0.1474 -0.0000
vn -0.3643 0.9313 -0.0000
vn 0.9873 -0.1587 -0.0000
vn -0.2939 0.9558 -0.0000
vn -0.0978 -0.9952 -0.0000
vn -0.2565 -0.9665 -0.0000
vn -0.2892 -0.9573 -0.0000
vn -0.3266 -0.9452 -0.0000
vn -0.3382 -0.9411 -0.0000
vn -0.3545 -0.9350 -0.0000
vn -0.3604 -0.9328 -0.0000
vn -0.5495 -0.8355 -0.0000
vn -0.3654 -0.9309 -0.0000
vn -0.3696 -0.9292 -0.0000
vn -0.5908 -0.8069 -0.0000
vn 0.9363 -0.3513 -0.0000
vn 0.8330 -0.5533 -0.0000
vn -0.4135 -0.9105 -0.0000
vn -0.4900 -0.8717 -0.0000
vn -0.5256 -0.8508 -0.0000
vn -0.7609 -0.6489 -0.0000
vn -0.8490 -0.5284 -0.0000
vn -0.8824 -0.4706 -0.0000
vn -0.9257 -0.3783 -0.0000
vn -0.9610 -0.2765 -0.0000
vn -0.2206 -0.9754 -0.0000
vn 0.2194 -0.9756 -0.0000
vn 0.5347 0.8451 -0.0000
vn -0.4158 0.9095 -0.0000
vn -0.3875 0.9219 -0.0000
vn -0.6526 -0.7577 -0.0000
vn -0.3753 0.9269 -0.0000
vn -0.8356 -0.5493 -0.0000
vn -0.3488 0.9372 -0.0000
vn -0.8959 -0.4442 -0.0000
vn -0.3199 0.9475 -0.0000
vn -0.2994 0.9541 -0.0000
vn -0.3262 0.9453 -0.0000
vt 0.425743 0.000000
vt 0.242574 0.000000
vt 0.245050 0.000000
vt 0.240099 0.000000
vt 0.000000 0.000000
vt 0.002475 0.000000
vt 0.247525 0.000000
vt 0.004950 0.000000
vt 0.237624 0.000000
vt 0.009901 0.000000
vt 0.235149 0.000000
vt 0.232673 0.000000
vt 0.012376 0.000000
vt 0.423267 0.000000
vt 0.252475 0.000000
vt 0.742574 0.000000
vt 0.596535 0.000000
vt 0.740099 0.000000
vt 0.121287 0.000000
vt 0.049505 0.000000
vt 0.118812 0.000000
vt 0.888614 0.000000
vt 0.455446 0.000000
vt 0.457921 0.000000
vt 0.485149 0.000000
vt 0.846535 0.000000
vt 0.849010 0.000000
vt 0.420792 0.000000
vt 0.368812 0.000000
vt 0.418317 0.000000
vt 0.467822 0.000000
vt 0.868812 0.000000
vt 0.871287 0.000000
vt 0.128713 0.000000
vt 0.029703 0.000000
vt 0.126238 0.000000
vt 0.227723 0.000000
vt 0.148515 0.000000
vt 0.225248 0.000000
vt 0.735148 0.000000
vt 0.606436 0.000000
vt 0.608911 0.000000
vt 0.146040 0.000000
vt 0.230198 0.000000
vt 0.413366 0.000000
vt 0.376238 0.000000
vt 0.378713 0.000000
vt 0.410891 0.000000
vt 0.381188 0.000000
vt 0.212871 0.000000
vt 0.185644 0.000000
vt 0.188119 0.000000
vt 0.393564 0.000000
vt 0.405941 0.000000
vt 0.391089 0.000000
vt 0.366337 0.000000
vt 0.403465 0.000000
vt 0.215347 0.000000
vt 0.400990 0.000000
vt 0.195545 0.000000
vt 0.193069 0.000000
vt 0.398515 0.000000
vt 0.747525 0.000000
vt 0.586634 0.000000
vt 0.589109 0.000000
vt 0.210396 0.000000
vt 0.207921 0.000000
vt 0.396040 0.000000
vt 0.202970 0.000000
vt 0.205446 0.000000
vt 0.084158 0.000000
vt 0.099010 0.000000
vt 0.081683 0.000000
vt 0.200495 0.000000
vt 0.198020 0.000000
vt 0.787129 0.000000
vt 0.549505 0.000000
vt 0.784653 0.000000
vt 0.190594 0.000000
vt 0.165842 0.000000
vt 0.220297 0.000000
vt 0.163366 0.000000
vt 0.183168 0.000000
vt 0.891089 0.000000
vt 0.450495 0.000000
vt 0.408416 0.000000
vt 0.386139 0.000000
vt 0.175743 0.000000
vt 0.217822 0.000000
vt 0.173267 0.000000
vt 0.180693 0.000000
vt 0.886139 0.000000
vt 0.460396 0.000000
vt 0.150990 0.000000
vt 0.170792 0.000000
vt 0.801980 0.000000
vt 0.804455 0.000000
vt 0.522277 0.000000
vt 0.222772 0.000000
vt 0.155941 0.000000
vt 0.732673 0.000000
vt 0.611386 0.000000
vt 0.730198 0.000000
vt 0.373762 0.000000
vt 0.415842 0.000000
vt 0.254950 0.000000
vt 0.113861 0.000000
vt 0.059406 0.000000
vt 0.111386 0.000000
vt 0.153465 0.000000
vt 0.341584 0.000000
vt 0.319307 0.000000
vt 0.339109 0.000000
vt 0.178218 0.000000
vt 0.722772 0.000000
vt 0.626238 0.000000
vt 0.628713 0.000000
vt 0.448020 0.000000
vt 0.797030 0.000000
vt 0.799505 0.000000
vt 0.876238 0.000000
vt 0.465347 0.000000
vt 0.445545 0.000000
vt 0.363861 0.000000
vt 0.361386 0.000000
vt 0.257426 0.000000
vt 0.143564 0.000000
vt 0.014851 0.000000
vt 0.123762 0.000000
vt 0.044554 0.000000
vt 0.883663 0.000000
vt 0.141089 0.000000
vt 0.967822 0.000000
vt 0.970297 0.000000
vt 0.972772 0.000000
vt 0.358911 0.000000
vt 0.259901 0.000000
vt 0.428218 0.000000
vt 0.928218 0.000000
vt 0.930693 0.000000
vt 0.975248 0.000000
vt 0.138614 0.000000
vt 0.017327 0.000000
vt 0.051980 0.000000
vt 0.116337 0.000000
vt 0.977723 0.000000
vt 0.980198 0.000000
vt 0.136139 0.000000
vt 0.019802 0.000000
vt 0.982673 0.000000
vt 0.262376 0.000000
vt 0.985148 0.000000
vt 0.356436 0.000000
vt 0.264851 0.000000
vt 0.987624 0.000000
vt 0.504951 0.000000
vt 0.831683 0.000000
vt 0.502475 0.000000
vt 0.990099 0.000000
vt 0.133663 0.000000
vt 0.022277 0.000000
vt 0.992574 0.000000
vt 0.935644 0.000000
vt 0.524752 0.000000
vt 0.594059 0.000000
vt 0.599010 0.000000
vt 0.371287 0.000000
vt 0.965347 0.000000
vt 0.962871 0.000000
vt 0.353960 0.000000
vt 0.267327 0.000000
vt 0.960396 0.000000
vt 0.056931 0.000000
vt 0.933168 0.000000
vt 0.727723 0.000000
vt 0.618812 0.000000
vt 0.621287 0.000000
vt 0.806931 0.000000
vt 0.809406 0.000000
vt 0.519802 0.000000
vt 0.472772 0.000000
vt 0.863861 0.000000
vt 0.866337 0.000000
vt 0.349010 0.000000
vt 0.294554 0.000000
vt 0.346535 0.000000
vt 0.168317 0.000000
vt 0.430693 0.000000
vt 0.918317 0.000000
vt 0.915842 0.000000
vt 0.913366 0.000000
vt 0.910891 0.000000
vt 0.908416 0.000000
vt 0.905941 0.000000
vt 0.903465 0.000000
vt 0.433168 0.000000
vt 0.957921 0.000000
vt 0.108911 0.000000
vt 0.066832 0.000000
vt 0.106436 0.000000
vt 0.955446 0.000000
vt 0.952970 0.000000
vt 0.811881 0.000000
vt 0.814356 0.000000
vt 0.517327 0.000000
vt 0.950495 0.000000
vt 0.948020 0.000000
vt 0.945545 0.000000
vt 0.269802 0.000000
vt 0.943069 0.000000
vt 0.351485 0.000000
vt 0.272277 0.000000
vt 0.086634 0.000000
vt 0.096535 0.000000
vt 0.940594 0.000000
vt 0.938119 0.000000
vt 0.477723 0.000000
vt 0.856436 0.000000
vt 0.475248 0.000000
vt 0.997525 0.000000
vt 1.000000 0.000000
vt 0.710396 0.000000
vt 0.712871 0.000000
vt 0.715347 0.000000
vt 0.274752 0.000000
vt 0.613861 0.000000
vt 0.616337 0.000000
vt 0.032178 0.000000
vt 0.277228 0.000000
vt 0.279703 0.000000
vt 0.047030 0.000000
vt 0.282178 0.000000
vt 0.034653 0.000000
vt 0.037129 0.000000
vt 0.284653 0.000000
vt 0.039604 0.000000
vt 0.816832 0.000000
vt 0.514852 0.000000
vt 0.500000 0.000000
vt 0.836634 0.000000
vt 0.497525 0.000000
vt 0.564356 0.000000
vt 0.762376 0.000000
vt 0.764852 0.000000
vt 0.042079 0.000000
vt 0.287129 0.000000
vt 0.289604 0.000000
vt 0.482673 0.000000
vt 0.851485 0.000000
vt 0.480198 0.000000
vt 0.873762 0.000000
vt 0.292079 0.000000
vt 0.923267 0.000000
vt 0.925743 0.000000
vt 0.131188 0.000000
vt 0.027228 0.000000
vt 0.900990 0.000000
vt 0.794554 0.000000
vt 0.250000 0.000000
vt 0.297030 0.000000
vt 0.299505 0.000000
vt 0.054455 0.000000
vt 0.301980 0.000000
vt 0.601485 0.000000
vt 0.737624 0.000000
vt 0.995049 0.000000
vt 0.861386 0.000000
vt 0.061881 0.000000
vt 0.304455 0.000000
vt 0.306931 0.000000
vt 0.344059 0.000000
vt 0.707921 0.000000
vt 0.309406 0.000000
vt 0.705446 0.000000
vt 0.064356 0.000000
vt 0.314356 0.000000
vt 0.311881 0.000000
vt 0.702970 0.000000
vt 0.024752 0.000000
vt 0.069307 0.000000
vt 0.591584 0.000000
vt 0.700495 0.000000
vt 0.316832 0.000000
vt 0.698020 0.000000
vt 0.079208 0.000000
vt 0.101485 0.000000
vt 0.076733 0.000000
vt 0.695545 0.000000
vt 0.071782 0.000000
vt 0.074257 0.000000
vt 0.103960 0.000000
vt 0.321782 0.000000
vt 0.693069 0.000000
vt 0.636139 0.000000
vt 0.717822 0.000000
vt 0.720297 0.000000
vt 0.007426 0.000000
vt 0.690594 0.000000
vt 0.324257 0.000000
vt 0.326733 0.000000
vt 0.688119 0.000000
vt 0.329208 0.000000
vt 0.685644 0.000000
vt 0.331683 0.000000
vt 0.336634 0.000000
vt 0.334158 0.000000
vt 0.089109 0.000000
vt 0.683168 0.000000
vt 0.094059 0.000000
vt 0.091584 0.000000
vt 0.680693 0.000000
vt 0.678218 0.000000
vt 0.675743 0.000000
vt 0.673267 0.000000
vt 0.670792 0.000000
vt 0.668317 0.000000
vt 0.665842 0.000000
vt 0.663366 0.000000
vt 0.660891 0.000000
vt 0.658416 0.000000
vt 0.655941 0.000000
vt 0.653465 0.000000
vt 0.650990 0.000000
vt 0.631188 0.000000
vt 0.462871 0.000000
vt 0.643564 0.000000
vt 0.648515 0.000000
vt 0.641089 0.000000
vt 0.638614 0.000000
vt 0.487624 0.000000
vt 0.774752 0.000000
vt 0.556931 0.000000
vt 0.772277 0.000000
vt 0.725248 0.000000
vt 0.646040 0.000000
vt 0.777228 0.000000
vt 0.554455 0.000000
vt 0.452970 0.000000
vt 0.792079 0.000000
vt 0.534653 0.000000
vt 0.789604 0.000000
vt 0.623762 0.000000
vt 0.470297 0.000000
vt 0.542079 0.000000
vt 0.574257 0.000000
vt 0.754951 0.000000
vt 0.757426 0.000000
vt 0.853960 0.000000
vt 0.752475 0.000000
vt 0.576733 0.000000
vt 0.579208 0.000000
vt 0.745049 0.000000
vt 0.878713 0.000000
vt 0.881188 0.000000
vt 0.750000 0.000000
vt 0.584158 0.000000
vt 0.383663 0.000000
vt 0.581683 0.000000
vt 0.844059 0.000000
vt 0.571782 0.000000
vt 0.759901 0.000000
vt 0.569307 0.000000
vt 0.566832 0.000000
vt 0.561881 0.000000
vt 0.767327 0.000000
vt 0.559406 0.000000
vt 0.769802 0.000000
vt 0.507426 0.000000
vt 0.829208 0.000000
vt 0.779703 0.000000
vt 0.898515 0.000000
vt 0.782178 0.000000
vt 0.896040 0.000000
vt 0.435644 0.000000
vt 0.551980 0.000000
vt 0.438119 0.000000
vt 0.547030 0.000000
vt 0.440594 0.000000
vt 0.544554 0.000000
vt 0.893564 0.000000
vt 0.443069 0.000000
vt 0.539604 0.000000
vt 0.537129 0.000000
vt 0.527228 0.000000
vt 0.512376 0.000000
vt 0.824257 0.000000
vt 0.509901 0.000000
vt 0.532178 0.000000
vt 0.158416 0.000000
vt 0.529703 0.000000
vt 0.388614 0.000000
vt 0.160891 0.000000
vt 0.603960 0.000000
vt 0.920792 0.000000
vt 0.633663 0.000000
vt 0.826733 0.000000
vt 0.834158 0.000000
vt 0.858911 0.000000
vt 0.819307 0.000000
vt 0.495050 0.000000
vt 0.839109 0.000000
vt 0.841584 0.000000
vt 0.821782 0.000000
vt 0.490099 0.000000
vt 0.492574 0.000000
s 0
f 173/1/1 99/2/1 100/3/1
f 98/4/1 1/5/1 2/6/1
f 173/1/1 100/3/1 101/7/1
f 98/4/1 2/6/1 3/8/1
f 97/9/1 98/4/1 5/10/1
f 96/11/1 97/9/1 5/10/1
f 95/12/1 96/11/1 6/13/1
f 172/14/1 173/1/1 103/15/1
f 301/16/1 242/17/1 300/18/1
f 50/19/1 21/20/1 49/21/1
f 360/22/1 185/23/1 186/24/1
f 197/25/1 343/26/1 344/27/1
f 171/28/1 150/29/1 170/30/1
f 190/31/1 352/32/1 353/33/1
f 53/34/1 13/35/1 52/36/1
f 93/37/1 61/38/1 92/39/1
f 298/40/1 246/41/1 247/42/1
f 95/12/1 60/43/1 94/44/1
f 168/45/1 153/46/1 154/47/1
f 167/48/1 154/47/1 155/49/1
f 87/50/1 76/51/1 77/52/1
f 160/53/1 165/54/1 159/55/1
f 172/14/1 149/56/1 171/28/1
f 164/57/1 165/54/1 160/53/1
f 88/58/1 76/51/1 87/50/1
f 163/59/1 164/57/1 160/53/1
f 80/60/1 87/50/1 79/61/1
f 162/62/1 163/59/1 160/53/1
f 303/63/1 238/64/1 239/65/1
f 86/66/1 87/50/1 85/67/1
f 161/68/1 162/62/1 160/53/1
f 87/50/1 83/69/1 84/70/1
f 87/50/1 84/70/1 85/67/1
f 35/71/1 41/72/1 34/73/1
f 87/50/1 82/74/1 83/69/1
f 87/50/1 81/75/1 82/74/1
f 87/50/1 80/60/1 81/75/1
f 319/76/1 223/77/1 318/78/1
f 87/50/1 78/79/1 79/61/1
f 68/80/1 90/81/1 67/82/1
f 87/50/1 77/52/1 78/79/1
f 88/58/1 75/83/1 76/51/1
f 361/84/1 183/85/1 360/22/1
f 166/86/1 157/87/1 165/54/1
f 72/88/1 89/89/1 71/90/1
f 88/58/1 74/91/1 75/83/1
f 359/92/1 186/24/1 187/93/1
f 92/39/1 61/38/1 62/94/1
f 71/90/1 89/89/1 70/95/1
f 325/96/1 326/97/1 212/98/1
f 6/13/1 96/11/1 5/10/1
f 91/99/1 64/100/1 90/81/1
f 297/101/1 248/102/1 296/103/1
f 152/104/1 168/45/1 169/105/1
f 104/106/1 172/14/1 103/15/1
f 47/107/1 25/108/1 46/109/1
f 64/100/1 91/99/1 63/110/1
f 139/111/1 130/112/1 138/113/1
f 88/58/1 73/114/1 74/91/1
f 89/89/1 72/88/1 88/58/1
f 360/22/1 186/24/1 359/92/1
f 94/44/1 61/38/1 93/37/1
f 293/115/1 254/116/1 255/117/1
f 361/84/1 182/118/1 183/85/1
f 94/44/1 60/43/1 61/38/1
f 323/119/1 324/120/1 212/98/1
f 190/31/1 355/121/1 189/122/1
f 90/81/1 68/80/1 89/89/1
f 361/84/1 181/123/1 182/118/1
f 104/106/1 149/56/1 172/14/1
f 148/124/1 149/56/1 104/106/1
f 6/13/1 60/43/1 95/12/1
f 147/125/1 148/124/1 105/126/1
f 59/127/1 60/43/1 7/128/1
f 51/129/1 19/130/1 50/19/1
f 187/93/1 358/131/1 359/92/1
f 58/132/1 59/127/1 7/128/1
f 392/133/1 393/134/1 394/135/1
f 146/136/1 147/125/1 106/137/1
f 174/138/1 376/139/1 377/140/1
f 392/133/1 394/135/1 395/141/1
f 57/142/1 58/132/1 8/143/1
f 49/21/1 22/144/1 48/145/1
f 392/133/1 395/141/1 396/146/1
f 392/133/1 396/146/1 397/147/1
f 56/148/1 57/142/1 9/149/1
f 392/133/1 397/147/1 398/150/1
f 146/136/1 106/137/1 107/151/1
f 392/133/1 398/150/1 399/152/1
f 145/153/1 146/136/1 108/154/1
f 392/133/1 399/152/1 400/155/1
f 205/156/1 337/157/1 204/158/1
f 392/133/1 400/155/1 401/159/1
f 55/160/1 56/148/1 10/161/1
f 392/133/1 401/159/1 402/162/1
f 392/133/1 402/162/1 379/163/1
f 213/164/1 323/119/1 212/98/1
f 301/16/1 241/165/1 242/17/1
f 300/18/1 242/17/1 243/166/1
f 324/120/1 325/96/1 212/98/1
f 170/30/1 150/29/1 151/167/1
f 168/45/1 154/47/1 167/48/1
f 391/168/1 392/133/1 379/163/1
f 390/169/1 391/168/1 379/163/1
f 144/170/1 145/153/1 109/171/1
f 389/172/1 390/169/1 379/163/1
f 48/145/1 24/173/1 47/107/1
f 174/138/1 378/174/1 379/163/1
f 295/175/1 251/176/1 252/177/1
f 327/178/1 328/179/1 211/180/1
f 170/30/1 151/167/1 169/105/1
f 192/181/1 350/182/1 351/183/1
f 142/184/1 120/185/1 141/186/1
f 89/89/1 69/187/1 70/95/1
f 175/188/1 372/189/1 174/138/1
f 372/189/1 175/188/1 371/190/1
f 371/190/1 175/188/1 370/191/1
f 370/191/1 175/188/1 369/192/1
f 369/192/1 175/188/1 368/193/1
f 368/193/1 175/188/1 367/194/1
f 367/194/1 175/188/1 366/195/1
f 366/195/1 175/188/1 176/196/1
f 388/197/1 389/172/1 379/163/1
f 45/198/1 28/199/1 44/200/1
f 387/201/1 388/197/1 379/163/1
f 297/101/1 247/42/1 248/102/1
f 386/202/1 387/201/1 379/163/1
f 329/203/1 330/204/1 210/205/1
f 385/206/1 386/202/1 379/163/1
f 384/207/1 385/206/1 379/163/1
f 383/208/1 384/207/1 379/163/1
f 144/170/1 109/171/1 110/209/1
f 382/210/1 383/208/1 379/163/1
f 174/138/1 377/140/1 378/174/1
f 143/211/1 144/170/1 111/212/1
f 41/72/1 36/213/1 40/214/1
f 381/215/1 382/210/1 379/163/1
f 380/216/1 381/215/1 379/163/1
f 194/217/1 347/218/1 193/219/1
f 379/163/1 404/220/1 405/221/1
f 288/222/1 289/223/1 290/224/1
f 109/171/1 145/153/1 108/154/1
f 143/211/1 111/212/1 112/225/1
f 296/103/1 249/226/1 250/227/1
f 106/137/1 147/125/1 105/126/1
f 13/35/1 14/228/1 52/36/1
f 328/179/1 329/203/1 211/180/1
f 113/229/1 114/230/1 143/211/1
f 19/130/1 20/231/1 50/19/1
f 114/230/1 115/232/1 143/211/1
f 15/233/1 16/234/1 52/36/1
f 115/232/1 116/235/1 143/211/1
f 16/234/1 17/236/1 51/129/1
f 330/204/1 331/237/1 209/238/1
f 113/229/1 143/211/1 112/225/1
f 203/239/1 339/240/1 202/241/1
f 229/242/1 309/243/1 310/244/1
f 18/245/1 19/130/1 51/129/1
f 117/246/1 118/247/1 142/184/1
f 196/248/1 345/249/1 195/250/1
f 190/31/1 354/251/1 355/121/1
f 118/247/1 119/252/1 142/184/1
f 20/231/1 21/20/1 50/19/1
f 174/138/1 374/253/1 375/254/1
f 119/252/1 120/185/1 142/184/1
f 54/255/1 12/256/1 53/34/1
f 365/257/1 366/195/1 176/196/1
f 298/40/1 247/42/1 297/101/1
f 322/258/1 323/119/1 213/164/1
f 9/149/1 57/142/1 8/143/1
f 103/15/1 173/1/1 102/259/1
f 121/260/1 122/261/1 141/186/1
f 23/262/1 24/173/1 48/145/1
f 122/261/1 123/263/1 141/186/1
f 300/18/1 244/264/1 299/265/1
f 379/163/1 402/162/1 403/266/1
f 167/48/1 155/49/1 166/86/1
f 193/219/1 349/267/1 192/181/1
f 25/108/1 26/268/1 46/109/1
f 124/269/1 125/270/1 140/271/1
f 102/259/1 173/1/1 101/7/1
f 287/272/1 288/222/1 290/224/1
f 22/144/1 23/262/1 48/145/1
f 125/270/1 126/273/1 140/271/1
f 286/274/1 287/272/1 290/224/1
f 26/268/1 27/275/1 46/109/1
f 128/276/1 139/111/1 127/277/1
f 139/111/1 126/273/1 127/277/1
f 285/278/1 286/274/1 290/224/1
f 11/279/1 12/256/1 54/255/1
f 28/199/1 29/280/1 44/200/1
f 303/63/1 239/65/1 240/281/1
f 284/282/1 285/278/1 290/224/1
f 12/256/1 13/35/1 53/34/1
f 128/276/1 129/283/1 139/111/1
f 283/284/1 284/282/1 290/224/1
f 33/285/1 42/286/1 32/287/1
f 129/283/1 130/112/1 139/111/1
f 282/288/1 283/284/1 290/224/1
f 30/289/1 31/290/1 43/291/1
f 138/113/1 130/112/1 131/292/1
f 281/293/1 282/288/1 290/224/1
f 31/290/1 32/287/1 43/291/1
f 379/163/1 405/221/1 174/138/1
f 258/294/1 291/295/1 292/296/1
f 5/10/1 98/4/1 4/297/1
f 27/275/1 28/199/1 45/198/1
f 280/298/1 281/293/1 290/224/1
f 132/299/1 133/300/1 138/113/1
f 33/285/1 34/73/1 42/286/1
f 279/301/1 280/298/1 290/224/1
f 44/200/1 30/289/1 43/291/1
f 133/300/1 134/302/1 138/113/1
f 132/299/1 138/113/1 131/292/1
f 278/303/1 279/301/1 290/224/1
f 134/302/1 135/304/1 138/113/1
f 35/71/1 36/213/1 41/72/1
f 137/305/1 135/304/1 136/306/1
f 40/214/1 36/213/1 37/307/1
f 277/308/1 278/303/1 290/224/1
f 39/309/1 40/214/1 37/307/1
f 39/309/1 37/307/1 38/310/1
f 276/311/1 277/308/1 290/224/1
f 275/312/1 276/311/1 290/224/1
f 274/313/1 275/312/1 290/224/1
f 273/314/1 274/313/1 290/224/1
f 272/315/1 273/314/1 290/224/1
f 271/316/1 272/315/1 290/224/1
f 270/317/1 271/316/1 290/224/1
f 269/318/1 270/317/1 290/224/1
f 268/319/1 269/318/1 290/224/1
f 267/320/1 268/319/1 290/224/1
f 266/321/1 267/320/1 290/224/1
f 265/322/1 266/321/1 290/224/1
f 264/323/1 265/322/1 290/224/1
f 293/115/1 256/324/1 292/296/1
f 188/325/1 358/131/1 187/93/1
f 291/295/1 261/326/1 263/327/1
f 260/328/1 261/326/1 291/295/1
f 291/295/1 264/323/1 290/224/1
f 260/328/1 291/295/1 259/329/1
f 198/330/1 343/26/1 197/25/1
f 124/269/1 140/271/1 123/263/1
f 314/331/1 226/332/1 313/333/1
f 294/334/1 254/116/1 293/115/1
f 263/327/1 261/326/1 262/335/1
f 256/324/1 293/115/1 255/117/1
f 226/332/1 315/336/1 225/337/1
f 360/22/1 183/85/1 184/338/1
f 321/339/1 217/340/1 320/341/1
f 29/280/1 30/289/1 44/200/1
f 253/342/1 295/175/1 252/177/1
f 10/161/1 11/279/1 55/160/1
f 192/181/1 351/183/1 191/343/1
f 4/297/1 98/4/1 3/8/1
f 24/173/1 25/108/1 47/107/1
f 320/341/1 220/344/1 319/76/1
f 92/39/1 62/94/1 91/99/1
f 21/20/1 22/144/1 49/21/1
f 14/228/1 15/233/1 52/36/1
f 300/18/1 243/166/1 244/264/1
f 210/205/1 330/204/1 209/238/1
f 233/345/1 306/346/1 307/347/1
f 195/250/1 345/249/1 346/348/1
f 121/260/1 141/186/1 120/185/1
f 111/212/1 144/170/1 110/209/1
f 105/126/1 148/124/1 104/106/1
f 305/349/1 234/350/1 235/351/1
f 360/22/1 184/338/1 185/23/1
f 302/352/1 241/165/1 301/16/1
f 174/138/1 375/254/1 376/139/1
f 303/63/1 240/281/1 302/352/1
f 295/175/1 253/342/1 294/334/1
f 189/122/1 356/353/1 357/354/1
f 304/355/1 238/64/1 303/63/1
f 238/64/1 304/355/1 237/356/1
f 166/86/1 156/357/1 157/87/1
f 305/349/1 236/358/1 304/355/1
f 236/358/1 305/349/1 235/351/1
f 140/271/1 126/273/1 139/111/1
f 306/346/1 234/350/1 305/349/1
f 234/350/1 306/346/1 233/345/1
f 198/330/1 342/359/1 343/26/1
f 233/345/1 307/347/1 232/360/1
f 191/343/1 352/32/1 190/31/1
f 308/361/1 231/362/1 307/347/1
f 231/362/1 308/361/1 230/363/1
f 326/97/1 327/178/1 211/180/1
f 230/363/1 309/243/1 229/242/1
f 7/128/1 60/43/1 6/13/1
f 228/364/1 229/242/1 310/244/1
f 228/364/1 310/244/1 311/365/1
f 227/366/1 228/364/1 311/365/1
f 227/366/1 311/365/1 312/367/1
f 226/332/1 227/366/1 312/367/1
f 226/332/1 312/367/1 313/333/1
f 296/103/1 250/227/1 295/175/1
f 206/368/1 336/369/1 205/156/1
f 314/331/1 315/336/1 226/332/1
f 225/337/1 315/336/1 316/370/1
f 364/371/1 365/257/1 176/196/1
f 225/337/1 316/370/1 317/372/1
f 363/373/1 364/371/1 176/196/1
f 225/337/1 317/372/1 318/78/1
f 363/373/1 176/196/1 177/374/1
f 224/375/1 225/337/1 318/78/1
f 223/77/1 224/375/1 318/78/1
f 363/373/1 177/374/1 178/376/1
f 222/377/1 223/77/1 319/76/1
f 363/373/1 178/376/1 179/378/1
f 221/379/1 222/377/1 319/76/1
f 362/380/1 363/373/1 179/378/1
f 362/380/1 179/378/1 180/381/1
f 169/105/1 151/167/1 152/104/1
f 220/344/1 221/379/1 319/76/1
f 362/380/1 180/381/1 181/123/1
f 219/382/1 220/344/1 320/341/1
f 362/380/1 181/123/1 361/84/1
f 218/383/1 219/382/1 320/341/1
f 214/384/1 322/258/1 213/164/1
f 217/340/1 218/383/1 320/341/1
f 208/385/1 334/386/1 207/387/1
f 212/98/1 326/97/1 211/180/1
f 189/122/1 355/121/1 356/353/1
f 216/388/1 217/340/1 321/339/1
f 90/81/1 64/100/1 65/389/1
f 215/390/1 216/388/1 321/339/1
f 165/54/1 157/87/1 158/391/1
f 214/384/1 215/390/1 321/339/1
f 89/89/1 68/80/1 69/187/1
f 295/175/1 250/227/1 251/176/1
f 88/58/1 72/88/1 73/114/1
f 46/109/1 27/275/1 45/198/1
f 296/103/1 248/102/1 249/226/1
f 189/122/1 357/354/1 358/131/1
f 52/36/1 16/234/1 51/129/1
f 55/160/1 11/279/1 54/255/1
f 321/339/1 322/258/1 214/384/1
f 189/122/1 358/131/1 188/325/1
f 165/54/1 158/391/1 159/55/1
f 194/217/1 346/348/1 347/218/1
f 90/81/1 65/389/1 66/392/1
f 190/31/1 353/33/1 354/251/1
f 379/163/1 403/266/1 404/220/1
f 302/352/1 240/281/1 241/165/1
f 299/265/1 244/264/1 245/393/1
f 196/248/1 344/27/1 345/249/1
f 174/138/1 372/189/1 373/394/1
f 18/245/1 51/129/1 17/236/1
f 307/347/1 231/362/1 232/360/1
f 138/113/1 135/304/1 137/305/1
f 304/355/1 236/358/1 237/356/1
f 230/363/1 308/361/1 309/243/1
f 143/211/1 116/235/1 142/184/1
f 298/40/1 245/393/1 246/41/1
f 292/296/1 256/324/1 257/395/1
f 174/138/1 373/394/1 374/253/1
f 43/291/1 32/287/1 42/286/1
f 192/181/1 349/267/1 350/182/1
f 195/250/1 346/348/1 194/217/1
f 207/387/1 335/396/1 206/368/1
f 8/143/1 58/132/1 7/128/1
f 204/158/1 338/397/1 203/239/1
f 193/219/1 348/398/1 349/267/1
f 166/86/1 155/49/1 156/357/1
f 117/246/1 142/184/1 116/235/1
f 299/265/1 245/393/1 298/40/1
f 331/237/1 332/399/1 209/238/1
f 91/99/1 62/94/1 63/110/1
f 141/186/1 123/263/1 140/271/1
f 153/46/1 168/45/1 152/104/1
f 294/334/1 253/342/1 254/116/1
f 191/343/1 351/183/1 352/32/1
f 108/154/1 146/136/1 107/151/1
f 211/180/1 329/203/1 210/205/1
f 202/241/1 339/240/1 201/400/1
f 197/25/1 344/27/1 196/248/1
f 42/286/1 34/73/1 41/72/1
f 171/28/1 149/56/1 150/29/1
f 90/81/1 66/392/1 67/82/1
f 201/400/1 340/401/1 341/402/1
f 193/219/1 347/218/1 348/398/1
f 209/238/1 332/399/1 208/385/1
f 332/399/1 333/403/1 208/385/1
f 199/404/1 342/359/1 198/330/1
f 333/403/1 334/386/1 208/385/1
f 10/161/1 56/148/1 9/149/1
f 334/386/1 335/396/1 207/387/1
f 200/405/1 342/359/1 199/404/1
f 335/396/1 336/369/1 206/368/1
f 200/405/1 341/402/1 342/359/1
f 336/369/1 337/157/1 205/156/1
f 258/294/1 292/296/1 257/395/1
f 337/157/1 338/397/1 204/158/1
f 201/400/1 341/402/1 200/405/1
f 338/397/1 339/240/1 203/239/1
f 259/329/1 291/295/1 258/294/1
f 339/240/1 340/401/1 201/400/1
f 291/295/1 263/327/1 264/323/1
f 578/1/2 505/3/2 504/2/2
f 503/4/2 407/6/2 406/5/2
f 578/1/2 506/7/2 505/3/2
f 503/4/2 408/8/2 407/6/2
f 502/9/2 410/10/2 503/4/2
f 501/11/2 410/10/2 502/9/2
f 500/12/2 411/13/2 501/11/2
f 577/14/2 508/15/2 578/1/2
f 706/16/2 705/18/2 647/17/2
f 455/19/2 454/21/2 426/20/2
f 765/22/2 591/24/2 590/23/2
f 602/25/2 749/27/2 748/26/2
f 576/28/2 575/30/2 555/29/2
f 595/31/2 758/33/2 757/32/2
f 458/34/2 457/36/2 418/35/2
f 498/37/2 497/39/2 466/38/2
f 703/40/2 652/42/2 651/41/2
f 500/12/2 499/44/2 465/43/2
f 573/45/2 559/47/2 558/46/2
f 572/48/2 560/49/2 559/47/2
f 492/50/2 482/52/2 481/51/2
f 565/53/2 564/55/2 570/54/2
f 577/14/2 576/28/2 554/56/2
f 569/57/2 565/53/2 570/54/2
f 493/58/2 492/50/2 481/51/2
f 568/59/2 565/53/2 569/57/2
f 485/60/2 484/61/2 492/50/2
f 567/62/2 565/53/2 568/59/2
f 708/63/2 644/65/2 643/64/2
f 491/66/2 490/67/2 492/50/2
f 566/68/2 565/53/2 567/62/2
f 492/50/2 489/70/2 488/69/2
f 492/50/2 490/67/2 489/70/2
f 440/71/2 439/73/2 446/72/2
f 492/50/2 488/69/2 487/74/2
f 492/50/2 487/74/2 486/75/2
f 492/50/2 486/75/2 485/60/2
f 724/76/2 723/78/2 628/77/2
f 492/50/2 484/61/2 483/79/2
f 473/80/2 472/82/2 495/81/2
f 492/50/2 483/79/2 482/52/2
f 493/58/2 481/51/2 480/83/2
f 766/84/2 765/22/2 588/85/2
f 571/86/2 570/54/2 562/87/2
f 477/88/2 476/90/2 494/89/2
f 493/58/2 480/83/2 479/91/2
f 764/92/2 592/93/2 591/24/2
f 497/39/2 467/94/2 466/38/2
f 476/90/2 475/95/2 494/89/2
f 730/96/2 617/98/2 731/97/2
f 411/13/2 410/10/2 501/11/2
f 496/99/2 495/81/2 469/100/2
f 702/101/2 701/103/2 653/102/2
f 557/104/2 574/105/2 573/45/2
f 509/106/2 508/15/2 577/14/2
f 452/107/2 451/109/2 430/108/2
f 469/100/2 468/110/2 496/99/2
f 544/111/2 543/113/2 535/112/2
f 493/58/2 479/91/2 478/114/2
f 494/89/2 493/58/2 477/88/2
f 765/22/2 764/92/2 591/24/2
f 499/44/2 498/37/2 466/38/2
f 698/115/2 660/117/2 659/116/2
f 766/84/2 588/85/2 587/118/2
f 499/44/2 466/38/2 465/43/2
f 728/119/2 617/98/2 729/120/2
f 595/31/2 594/122/2 760/121/2
f 495/81/2 494/89/2 473/80/2
f 766/84/2 587/118/2 586/123/2
f 509/106/2 577/14/2 554/56/2
f 553/124/2 509/106/2 554/56/2
f 411/13/2 500/12/2 465/43/2
f 552/125/2 510/126/2 553/124/2
f 464/127/2 412/128/2 465/43/2
f 456/129/2 455/19/2 424/130/2
f 592/93/2 764/92/2 763/131/2
f 463/132/2 412/128/2 464/127/2
f 797/133/2 799/135/2 798/134/2
f 551/136/2 511/137/2 552/125/2
f 579/138/2 782/140/2 781/139/2
f 797/133/2 800/141/2 799/135/2
f 462/142/2 413/143/2 463/132/2
f 454/21/2 453/145/2 427/144/2
f 797/133/2 801/146/2 800/141/2
f 797/133/2 802/147/2 801/146/2
f 461/148/2 414/149/2 462/142/2
f 797/133/2 803/150/2 802/147/2
f 551/136/2 512/151/2 511/137/2
f 797/133/2 804/152/2 803/150/2
f 550/153/2 513/154/2 551/136/2
f 797/133/2 805/155/2 804/152/2
f 610/156/2 609/158/2 742/157/2
f 797/133/2 806/159/2 805/155/2
f 460/160/2 415/161/2 461/148/2
f 797/133/2 807/162/2 806/159/2
f 797/133/2 784/163/2 807/162/2
f 618/164/2 617/98/2 728/119/2
f 706/16/2 647/17/2 646/165/2
f 705/18/2 648/166/2 647/17/2
f 729/120/2 617/98/2 730/96/2
f 575/30/2 556/167/2 555/29/2
f 573/45/2 572/48/2 559/47/2
f 796/168/2 784/163/2 797/133/2
f 795/169/2 784/163/2 796/168/2
f 549/170/2 514/171/2 550/153/2
f 794/172/2 784/163/2 795/169/2
f 453/145/2 452/107/2 429/173/2
f 579/138/2 784/163/2 783/174/2
f 700/175/2 657/177/2 656/176/2
f 732/178/2 616/180/2 733/179/2
f 575/30/2 574/105/2 556/167/2
f 597/181/2 756/183/2 755/182/2
f 547/184/2 546/186/2 525/185/2
f 494/89/2 475/95/2 474/187/2
f 580/188/2 579/138/2 777/189/2
f 777/189/2 776/190/2 580/188/2
f 776/190/2 775/191/2 580/188/2
f 775/191/2 774/192/2 580/188/2
f 774/192/2 773/193/2 580/188/2
f 773/193/2 772/194/2 580/188/2
f 772/194/2 771/195/2 580/188/2
f 771/195/2 581/196/2 580/188/2
f 793/197/2 784/163/2 794/172/2
f 450/198/2 449/200/2 433/199/2
f 792/201/2 784/163/2 793/197/2
f 702/101/2 653/102/2 652/42/2
f 791/202/2 784/163/2 792/201/2
f 734/203/2 615/205/2 735/204/2
f 790/206/2 784/163/2 791/202/2
f 789/207/2 784/163/2 790/206/2
f 788/208/2 784/163/2 789/207/2
f 549/170/2 515/209/2 514/171/2
f 787/210/2 784/163/2 788/208/2
f 579/138/2 783/174/2 782/140/2
f 548/211/2 516/212/2 549/170/2
f 446/72/2 445/214/2 441/213/2
f 786/215/2 784/163/2 787/210/2
f 785/216/2 784/163/2 786/215/2
f 599/217/2 598/219/2 752/218/2
f 784/163/2 810/221/2 809/220/2
f 693/222/2 695/224/2 694/223/2
f 514/171/2 513/154/2 550/153/2
f 548/211/2 517/225/2 516/212/2
f 701/103/2 655/227/2 654/226/2
f 511/137/2 510/126/2 552/125/2
f 418/35/2 457/36/2 419/228/2
f 733/179/2 616/180/2 734/203/2
f 518/229/2 548/211/2 519/230/2
f 424/130/2 455/19/2 425/231/2
f 519/230/2 548/211/2 520/232/2
f 420/233/2 457/36/2 421/234/2
f 520/232/2 548/211/2 521/235/2
f 421/234/2 456/129/2 422/236/2
f 735/204/2 614/238/2 736/237/2
f 518/229/2 517/225/2 548/211/2
f 608/239/2 607/241/2 744/240/2
f 634/242/2 715/244/2 714/243/2
f 423/245/2 456/129/2 424/130/2
f 522/246/2 547/184/2 523/247/2
f 601/248/2 600/250/2 750/249/2
f 595/31/2 760/121/2 759/251/2
f 523/247/2 547/184/2 524/252/2
f 425/231/2 455/19/2 426/20/2
f 579/138/2 780/254/2 779/253/2
f 524/252/2 547/184/2 525/185/2
f 459/255/2 458/34/2 417/256/2
f 770/257/2 581/196/2 771/195/2
f 703/40/2 702/101/2 652/42/2
f 727/258/2 618/164/2 728/119/2
f 414/149/2 413/143/2 462/142/2
f 508/15/2 507/259/2 578/1/2
f 526/260/2 546/186/2 527/261/2
f 428/262/2 453/145/2 429/173/2
f 527/261/2 546/186/2 528/263/2
f 705/18/2 704/265/2 649/264/2
f 784/163/2 808/266/2 807/162/2
f 572/48/2 571/86/2 560/49/2
f 598/219/2 597/181/2 754/267/2
f 430/108/2 451/109/2 431/268/2
f 529/269/2 545/271/2 530/270/2
f 507/259/2 506/7/2 578/1/2
f 692/272/2 695/224/2 693/222/2
f 427/144/2 453/145/2 428/262/2
f 530/270/2 545/271/2 531/273/2
f 691/274/2 695/224/2 692/272/2
f 431/268/2 451/109/2 432/275/2
f 533/276/2 532/277/2 544/111/2
f 544/111/2 532/277/2 531/273/2
f 690/278/2 695/224/2 691/274/2
f 416/279/2 459/255/2 417/256/2
f 433/199/2 449/200/2 434/280/2
f 708/63/2 645/281/2 644/65/2
f 689/282/2 695/224/2 690/278/2
f 417/256/2 458/34/2 418/35/2
f 533/276/2 544/111/2 534/283/2
f 688/284/2 695/224/2 689/282/2
f 438/285/2 437/287/2 447/286/2
f 534/283/2 544/111/2 535/112/2
f 687/288/2 695/224/2 688/284/2
f 435/289/2 448/291/2 436/290/2
f 543/113/2 536/292/2 535/112/2
f 686/293/2 695/224/2 687/288/2
f 436/290/2 448/291/2 437/287/2
f 784/163/2 579/138/2 810/221/2
f 663/294/2 697/296/2 696/295/2
f 410/10/2 409/297/2 503/4/2
f 432/275/2 450/198/2 433/199/2
f 685/298/2 695/224/2 686/293/2
f 537/299/2 543/113/2 538/300/2
f 438/285/2 447/286/2 439/73/2
f 684/301/2 695/224/2 685/298/2
f 449/200/2 448/291/2 435/289/2
f 538/300/2 543/113/2 539/302/2
f 537/299/2 536/292/2 543/113/2
f 683/303/2 695/224/2 684/301/2
f 539/302/2 543/113/2 540/304/2
f 440/71/2 446/72/2 441/213/2
f 542/305/2 541/306/2 540/304/2
f 445/214/2 442/307/2 441/213/2
f 682/308/2 695/224/2 683/303/2
f 444/309/2 442/307/2 445/214/2
f 444/309/2 443/310/2 442/307/2
f 681/311/2 695/224/2 682/308/2
f 680/312/2 695/224/2 681/311/2
f 679/313/2 695/224/2 680/312/2
f 678/314/2 695/224/2 679/313/2
f 677/315/2 695/224/2 678/314/2
f 676/316/2 695/224/2 677/315/2
f 675/317/2 695/224/2 676/316/2
f 674/318/2 695/224/2 675/317/2
f 673/319/2 695/224/2 674/318/2
f 672/320/2 695/224/2 673/319/2
f 671/321/2 695/224/2 672/320/2
f 670/322/2 695/224/2 671/321/2
f 669/323/2 695/224/2 670/322/2
f 698/115/2 697/296/2 661/324/2
f 593/325/2 592/93/2 763/131/2
f 696/295/2 668/327/2 666/326/2
f 665/328/2 696/295/2 666/326/2
f 696/295/2 695/224/2 669/323/2
f 665/328/2 664/329/2 696/295/2
f 603/330/2 602/25/2 748/26/2
f 529/269/2 528/263/2 545/271/2
f 719/331/2 718/333/2 631/332/2
f 699/334/2 698/115/2 659/116/2
f 668/327/2 667/335/2 666/326/2
f 661/324/2 660/117/2 698/115/2
f 631/332/2 630/337/2 720/336/2
f 765/22/2 589/338/2 588/85/2
f 726/339/2 725/341/2 622/340/2
f 434/280/2 449/200/2 435/289/2
f 658/342/2 657/177/2 700/175/2
f 415/161/2 460/160/2 416/279/2
f 597/181/2 596/343/2 756/183/2
f 409/297/2 408/8/2 503/4/2
f 429/173/2 452/107/2 430/108/2
f 725/341/2 724/76/2 625/344/2
f 497/39/2 496/99/2 467/94/2
f 426/20/2 454/21/2 427/144/2
f 419/228/2 457/36/2 420/233/2
f 705/18/2 649/264/2 648/166/2
f 615/205/2 614/238/2 735/204/2
f 638/345/2 712/347/2 711/346/2
f 600/250/2 751/348/2 750/249/2
f 526/260/2 525/185/2 546/186/2
f 516/212/2 515/209/2 549/170/2
f 510/126/2 509/106/2 553/124/2
f 710/349/2 640/351/2 639/350/2
f 765/22/2 590/23/2 589/338/2
f 707/352/2 706/16/2 646/165/2
f 579/138/2 781/139/2 780/254/2
f 708/63/2 707/352/2 645/281/2
f 700/175/2 699/334/2 658/342/2
f 594/122/2 762/354/2 761/353/2
f 709/355/2 708/63/2 643/64/2
f 643/64/2 642/356/2 709/355/2
f 571/86/2 562/87/2 561/357/2
f 710/349/2 709/355/2 641/358/2
f 641/358/2 640/351/2 710/349/2
f 545/271/2 544/111/2 531/273/2
f 711/346/2 710/349/2 639/350/2
f 639/350/2 638/345/2 711/346/2
f 603/330/2 748/26/2 747/359/2
f 638/345/2 637/360/2 712/347/2
f 596/343/2 595/31/2 757/32/2
f 713/361/2 712/347/2 636/362/2
f 636/362/2 635/363/2 713/361/2
f 731/97/2 616/180/2 732/178/2
f 635/363/2 634/242/2 714/243/2
f 412/128/2 411/13/2 465/43/2
f 633/364/2 715/244/2 634/242/2
f 633/364/2 716/365/2 715/244/2
f 632/366/2 716/365/2 633/364/2
f 632/366/2 717/367/2 716/365/2
f 631/332/2 717/367/2 632/366/2
f 631/332/2 718/333/2 717/367/2
f 701/103/2 700/175/2 655/227/2
f 611/368/2 610/156/2 741/369/2
f 719/331/2 631/332/2 720/336/2
f 630/337/2 721/370/2 720/336/2
f 769/371/2 581/196/2 770/257/2
f 630/337/2 722/372/2 721/370/2
f 768/373/2 581/196/2 769/371/2
f 630/337/2 723/78/2 722/372/2
f 768/373/2 582/374/2 581/196/2
f 629/375/2 723/78/2 630/337/2
f 628/77/2 723/78/2 629/375/2
f 768/373/2 583/376/2 582/374/2
f 627/377/2 724/76/2 628/77/2
f 768/373/2 584/378/2 583/376/2
f 626/379/2 724/76/2 627/377/2
f 767/380/2 584/378/2 768/373/2
f 767/380/2 585/381/2 584/378/2
f 574/105/2 557/104/2 556/167/2
f 625/344/2 724/76/2 626/379/2
f 767/380/2 586/123/2 585/381/2
f 624/382/2 725/341/2 625/344/2
f 767/380/2 766/84/2 586/123/2
f 623/383/2 725/341/2 624/382/2
f 619/384/2 618/164/2 727/258/2
f 622/340/2 725/341/2 623/383/2
f 613/385/2 612/387/2 739/386/2
f 617/98/2 616/180/2 731/97/2
f 594/122/2 761/353/2 760/121/2
f 621/388/2 726/339/2 622/340/2
f 495/81/2 470/389/2 469/100/2
f 620/390/2 726/339/2 621/388/2
f 570/54/2 563/391/2 562/87/2
f 619/384/2 726/339/2 620/390/2
f 494/89/2 474/187/2 473/80/2
f 700/175/2 656/176/2 655/227/2
f 493/58/2 478/114/2 477/88/2
f 451/109/2 450/198/2 432/275/2
f 701/103/2 654/226/2 653/102/2
f 594/122/2 763/131/2 762/354/2
f 457/36/2 456/129/2 421/234/2
f 460/160/2 459/255/2 416/279/2
f 726/339/2 619/384/2 727/258/2
f 594/122/2 593/325/2 763/131/2
f 570/54/2 564/55/2 563/391/2
f 599/217/2 752/218/2 751/348/2
f 495/81/2 471/392/2 470/389/2
f 595/31/2 759/251/2 758/33/2
f 784/163/2 809/220/2 808/266/2
f 707/352/2 646/165/2 645/281/2
f 704/265/2 650/393/2 649/264/2
f 601/248/2 750/249/2 749/27/2
f 579/138/2 778/394/2 777/189/2
f 423/245/2 422/236/2 456/129/2
f 712/347/2 637/360/2 636/362/2
f 543/113/2 542/305/2 540/304/2
f 709/355/2 642/356/2 641/358/2
f 635/363/2 714/243/2 713/361/2
f 548/211/2 547/184/2 521/235/2
f 703/40/2 651/41/2 650/393/2
f 697/296/2 662/395/2 661/324/2
f 579/138/2 779/253/2 778/394/2
f 448/291/2 447/286/2 437/287/2
f 597/181/2 755/182/2 754/267/2
f 600/250/2 599/217/2 751/348/2
f 612/387/2 611/368/2 740/396/2
f 413/143/2 412/128/2 463/132/2
f 609/158/2 608/239/2 743/397/2
f 598/219/2 754/267/2 753/398/2
f 571/86/2 561/357/2 560/49/2
f 522/246/2 521/235/2 547/184/2
f 704/265/2 703/40/2 650/393/2
f 736/237/2 614/238/2 737/399/2
f 496/99/2 468/110/2 467/94/2
f 546/186/2 545/271/2 528/263/2
f 558/46/2 557/104/2 573/45/2
f 699/334/2 659/116/2 658/342/2
f 596/343/2 757/32/2 756/183/2
f 513/154/2 512/151/2 551/136/2
f 616/180/2 615/205/2 734/203/2
f 607/241/2 606/400/2 744/240/2
f 602/25/2 601/248/2 749/27/2
f 447/286/2 446/72/2 439/73/2
f 576/28/2 555/29/2 554/56/2
f 495/81/2 472/82/2 471/392/2
f 606/400/2 746/402/2 745/401/2
f 598/219/2 753/398/2 752/218/2
f 614/238/2 613/385/2 737/399/2
f 737/399/2 613/385/2 738/403/2
f 604/404/2 603/330/2 747/359/2
f 738/403/2 613/385/2 739/386/2
f 415/161/2 414/149/2 461/148/2
f 739/386/2 612/387/2 740/396/2
f 605/405/2 604/404/2 747/359/2
f 740/396/2 611/368/2 741/369/2
f 605/405/2 747/359/2 746/402/2
f 741/369/2 610/156/2 742/157/2
f 663/294/2 662/395/2 697/296/2
f 742/157/2 609/158/2 743/397/2
f 606/400/2 605/405/2 746/402/2
f 743/397/2 608/239/2 744/240/2
f 664/329/2 663/294/2 696/295/2
f 744/240/2 606/400/2 745/401/2
f 696/295/2 669/323/2 668/327/2
f 359/92/3 765/22/3 360/22/3
f 265/322/4 671/321/4 266/321/4
f 86/66/5 492/50/5 87/50/5
f 264/323/6 670/322/6 265/322/6
f 109/171/7 515/209/7 110/209/7
f 161/68/8 567/62/8 162/62/8
f 321/339/9 727/258/9 322/258/9
f 382/210/10 788/208/10 383/208/10
f 262/335/11 668/327/11 263/327/11
f 85/67/12 491/66/12 86/66/12
f 189/122/13 595/31/13 190/31/13
f 52/36/14 458/34/14 53/34/14
f 211/180/15 617/98/15 212/98/15
f 263/327/16 669/323/16 264/323/16
f 143/211/17 549/170/17 144/170/17
f 4/297/18 410/10/18 5/10/18
f 358/131/19 764/92/19 359/92/19
f 261/326/20 667/335/20 262/335/20
f 160/53/21 566/68/21 161/68/21
f 260/328/22 666/326/22 261/326/22
f 11/279/23 417/256/23 12/256/23
f 84/70/24 490/67/24 85/67/24
f 322/258/25 728/119/25 323/119/25
f 381/215/26 787/210/26 382/210/26
f 83/69/27 489/70/27 84/70/27
f 190/31/28 596/343/28 191/343/28
f 290/224/29 696/295/29 291/295/29
f 380/216/30 786/215/30 381/215/30
f 210/205/31 616/180/31 211/180/31
f 379/163/29 785/216/29 380/216/29
f 82/74/32 488/69/32 83/69/32
f 291/295/33 697/296/33 292/296/33
f 357/354/34 763/131/34 358/131/34
f 259/329/35 665/328/35 260/328/35
f 110/209/36 516/212/36 111/212/36
f 81/75/37 487/74/37 82/74/37
f 51/129/38 457/36/38 52/36/38
f 80/60/39 486/75/39 81/75/39
f 323/119/40 729/120/40 324/120/40
f 292/296/41 698/115/41 293/115/41
f 288/222/42 694/223/42 289/223/42
f 258/294/43 664/329/43 259/329/43
f 79/61/44 485/60/44 80/60/44
f 191/343/45 597/181/45 192/181/45
f 289/223/46 695/224/46 290/224/46
f 209/238/47 615/205/47 210/205/47
f 78/79/48 484/61/48 79/61/48
f 293/115/49 699/334/49 294/334/49
f 12/256/50 418/35/50 13/35/50
f 356/353/51 762/354/51 357/354/51
f 257/395/52 663/294/52 258/294/52
f 77/52/53 483/79/53 78/79/53
f 111/212/54 517/225/54 112/225/54
f 256/324/55 662/395/55 257/395/55
f 142/184/56 548/211/56 143/211/56
f 76/51/57 482/52/57 77/52/57
f 324/120/58 730/96/58 325/96/58
f 159/55/59 565/53/59 160/53/59
f 192/181/60 598/219/60 193/219/60
f 294/334/61 700/175/61 295/175/61
f 112/225/62 518/229/62 113/229/62
f 208/385/63 614/238/63 209/238/63
f 255/117/64 661/324/64 256/324/64
f 75/83/65 481/51/65 76/51/65
f 13/35/66 419/228/66 14/228/66
f 355/121/67 761/353/67 356/353/67
f 50/19/68 456/129/68 51/129/68
f 74/91/69 480/83/69 75/83/69
f 295/175/70 701/103/70 296/103/70
f 254/116/71 660/117/71 255/117/71
f 158/391/72 564/55/72 159/55/72
f 325/96/73 731/97/73 326/97/73
f 113/229/74 519/230/74 114/230/74
f 253/342/75 659/116/75 254/116/75
f 73/114/76 479/91/76 74/91/76
f 193/219/77 599/217/77 194/217/77
f 14/228/78 420/233/78 15/233/78
f 207/387/79 613/385/79 208/385/79
f 72/88/80 478/114/80 73/114/80
f 296/103/81 702/101/81 297/101/81
f 114/230/82 520/232/82 115/232/82
f 354/251/83 760/121/83 355/121/83
f 252/177/84 658/342/84 253/342/84
f 157/87/85 563/391/85 158/391/85
f 15/233/86 421/234/86 16/234/86
f 71/90/87 477/88/87 72/88/87
f 326/97/88 732/178/88 327/178/88
f 297/101/89 703/40/89 298/40/89
f 115/232/90 521/235/90 116/235/90
f 251/176/91 657/177/91 252/177/91
f 70/95/92 476/90/92 71/90/92
f 194/217/93 600/250/93 195/250/93
f 16/234/94 422/236/94 17/236/94
f 206/368/95 612/387/95 207/387/95
f 250/227/96 656/176/96 251/176/96
f 141/186/97 547/184/97 142/184/97
f 156/357/98 562/87/98 157/87/98
f 353/33/99 759/251/99 354/251/99
f 49/21/100 455/19/100 50/19/100
f 69/187/101 475/95/101 70/95/101
f 298/40/102 704/265/102 299/265/102
f 249/226/103 655/227/103 250/227/103
f 68/80/104 474/187/104 69/187/104
f 327/178/105 733/179/105 328/179/105
f 116/235/106 522/246/106 117/246/106
f 248/102/107 654/226/107 249/226/107
f 155/49/108 561/357/108 156/357/108
f 195/250/109 601/248/109 196/248/109
f 17/236/110 423/245/110 18/245/110
f 205/156/111 611/368/111 206/368/111
f 247/42/112 653/102/112 248/102/112
f 67/82/113 473/80/113 68/80/113
f 18/245/114 424/130/114 19/130/114
f 352/32/115 758/33/115 353/33/115
f 66/392/116 472/82/116 67/82/116
f 299/265/117 705/18/117 300/18/117
f 117/246/118 523/247/118 118/247/118
f 246/41/119 652/42/119 247/42/119
f 48/145/120 454/21/120 49/21/120
f 154/47/121 560/49/121 155/49/121
f 328/179/122 734/203/122 329/203/122
f 65/389/123 471/392/123 66/392/123
f 196/248/124 602/25/124 197/25/124
f 300/18/125 706/16/125 301/16/125
f 19/130/126 425/231/126 20/231/126
f 204/158/127 610/156/127 205/156/127
f 245/393/128 651/41/128 246/41/128
f 64/100/129 470/389/129 65/389/129
f 118/247/130 524/252/130 119/252/130
f 244/264/131 650/393/131 245/393/131
f 153/46/132 559/47/132 154/47/132
f 197/25/133 603/330/133 198/330/133
f 20/231/134 426/20/134 21/20/134
f 203/239/135 609/158/135 204/158/135
f 47/107/136 453/145/136 48/145/136
f 63/110/137 469/100/137 64/100/137
f 301/16/138 707/352/138 302/352/138
f 351/183/139 757/32/139 352/32/139
f 243/166/140 649/264/140 244/264/140
f 119/252/141 525/185/141 120/185/141
f 103/15/142 509/106/142 104/106/142
f 242/17/143 648/166/143 243/166/143
f 140/271/144 546/186/144 141/186/144
f 62/94/145 468/110/145 63/110/145
f 329/203/146 735/204/146 330/204/146
f 365/257/147 771/195/147 366/195/147
f 61/38/148 467/94/148 62/94/148
f 198/330/149 604/404/149 199/404/149
f 302/352/150 708/63/150 303/63/150
f 202/241/151 608/239/151 203/239/151
f 241/165/152 647/17/152 242/17/152
f 152/104/153 558/46/153 153/46/153
f 21/20/154 427/144/154 22/144/154
f 151/167/155 557/104/155 152/104/155
f 199/404/156 605/405/156 200/405/156
f 303/63/157 709/355/157 304/355/157
f 120/185/158 526/260/158 121/260/158
f 201/400/159 607/241/159 202/241/159
f 240/281/160 646/165/160 241/165/160
f 46/109/161 452/107/161 47/107/161
f 5/10/162 411/13/162 6/13/162
f 350/182/163 756/183/163 351/183/163
f 239/65/164 645/281/164 240/281/164
f 150/29/165 556/167/165 151/167/165
f 22/144/166 428/262/166 23/262/166
f 238/64/167 644/65/167 239/65/167
f 149/56/168 555/29/168 150/29/168
f 330/204/169 736/237/169 331/237/169
f 121/260/170 527/261/170 122/261/170
f 148/124/171 554/56/171 149/56/171
f 200/405/16 606/400/16 201/400/16
f 304/355/172 710/349/172 305/349/172
f 23/262/173 429/173/173 24/173/173
f 238/64/174 642/356/174 643/64/174
f 60/43/175 466/38/175 61/38/175
f 349/267/176 755/182/176 350/182/176
f 122/261/177 528/263/177 123/263/177
f 236/358/178 642/356/178 237/356/178
f 45/198/179 451/109/179 46/109/179
f 147/125/180 553/124/180 148/124/180
f 331/237/181 737/399/181 332/399/181
f 139/111/182 545/271/182 140/271/182
f 59/127/183 465/43/183 60/43/183
f 348/398/184 754/267/184 349/267/184
f 306/346/185 710/349/185 711/346/185
f 235/351/186 641/358/186 236/358/186
f 24/173/187 430/108/187 25/108/187
f 104/106/188 510/126/188 105/126/188
f 332/399/189 738/403/189 333/403/189
f 234/350/190 640/351/190 235/351/190
f 347/218/191 753/398/191 348/398/191
f 123/263/192 529/269/192 124/269/192
f 6/13/193 412/128/193 7/128/193
f 58/132/194 464/127/194 59/127/194
f 306/346/195 712/347/195 307/347/195
f 25/108/196 431/268/196 26/268/196
f 333/403/197 739/386/197 334/386/197
f 233/345/198 639/350/198 234/350/198
f 392/133/199 798/134/199 393/134/199
f 346/348/200 752/218/200 347/218/200
f 124/269/201 530/270/201 125/270/201
f 44/200/202 450/198/202 45/198/202
f 393/134/203 799/135/203 394/135/203
f 307/347/204 713/361/204 308/361/204
f 146/136/147 552/125/147 147/125/147
f 334/386/205 740/396/205 335/396/205
f 232/360/206 638/345/206 233/345/206
f 287/272/207 693/222/207 288/222/207
f 345/249/208 751/348/208 346/348/208
f 231/362/209 637/360/209 232/360/209
f 105/126/210 511/137/210 106/137/210
f 26/268/211 432/275/211 27/275/211
f 335/396/212 741/369/212 336/369/212
f 394/135/213 800/141/213 395/141/213
f 344/27/214 750/249/214 345/249/214
f 308/361/215 714/243/215 309/243/215
f 125/270/216 531/273/216 126/273/216
f 57/142/217 463/132/217 58/132/217
f 230/363/218 636/362/218 231/362/218
f 286/274/219 692/272/219 287/272/219
f 336/369/220 742/157/220 337/157/220
f 43/291/221 449/200/221 44/200/221
f 7/128/222 413/143/222 8/143/222
f 343/26/223 749/27/223 344/27/223
f 309/243/224 715/244/224 310/244/224
f 229/242/225 635/363/225 230/363/225
f 395/141/226 801/146/226 396/146/226
f 27/275/227 433/199/227 28/199/227
f 337/157/228 743/397/228 338/397/228
f 228/364/229 634/242/229 229/242/229
f 396/146/230 802/147/230 397/147/230
f 342/359/231 748/26/231 343/26/231
f 126/273/232 532/277/232 127/277/232
f 56/148/233 462/142/233 57/142/233
f 285/278/234 691/274/234 286/274/234
f 310/244/235 716/365/235 311/365/235
f 338/397/236 744/240/236 339/240/236
f 227/366/237 633/364/237 228/364/237
f 138/113/238 544/111/238 139/111/238
f 397/147/239 803/150/239 398/150/239
f 341/402/240 747/359/240 342/359/240
f 106/137/241 512/151/241 107/151/241
f 340/401/29 746/402/29 341/402/29
f 311/365/242 717/367/242 312/367/242
f 28/199/243 434/280/243 29/280/243
f 339/240/244 745/401/244 340/401/244
f 226/332/245 632/366/245 227/366/245
f 398/150/246 804/152/246 399/152/246
f 127/277/247 533/276/247 128/276/247
f 145/153/248 551/136/248 146/136/248
f 284/282/249 690/278/249 285/278/249
f 312/367/250 718/333/250 313/333/250
f 225/337/147 631/332/147 226/332/147
f 42/286/251 448/291/251 43/291/251
f 399/152/252 805/155/252 400/155/252
f 8/143/253 414/149/253 9/149/253
f 313/333/254 719/331/254 314/331/254
f 128/276/255 534/283/255 129/283/255
f 283/284/256 689/282/256 284/282/256
f 400/155/257 806/159/257 401/159/257
f 314/331/258 720/336/258 315/336/258
f 55/160/259 461/148/259 56/148/259
f 315/336/46 721/370/46 316/370/46
f 29/280/260 435/289/260 30/289/260
f 364/371/261 770/257/261 365/257/261
f 401/159/262 807/162/262 402/162/262
f 129/283/263 535/112/263 130/112/263
f 282/288/264 688/284/264 283/284/264
f 402/162/265 808/266/265 403/266/265
f 316/370/266 722/372/266 317/372/266
f 363/373/267 769/371/267 364/371/267
f 403/266/268 809/220/268 404/220/268
f 30/289/269 436/290/269 31/290/269
f 404/220/270 810/221/270 405/221/270
f 317/372/271 723/78/271 318/78/271
f 130/112/272 536/292/272 131/292/272
f 281/293/273 687/288/273 282/288/273
f 107/151/274 513/154/274 108/154/274
f 176/196/275 582/374/275 177/374/275
f 224/375/276 630/337/276 225/337/276
f 405/221/277 579/138/277 174/138/277
f 31/290/278 437/287/278 32/287/278
f 54/255/279 460/160/279 55/160/279
f 223/77/280 629/375/280 224/375/280
f 41/72/281 447/286/281 42/286/281
f 173/1/282 504/2/282 99/2/282
f 137/305/283 543/113/283 138/113/283
f 9/149/284 415/161/284 10/161/284
f 177/374/285 583/376/285 178/376/285
f 391/168/286 797/133/286 392/133/286
f 99/2/287 505/3/287 100/3/287
f 222/377/288 628/77/288 223/77/288
f 98/4/289 406/5/289 1/5/289
f 131/292/290 537/299/290 132/299/290
f 390/169/291 796/168/291 391/168/291
f 1/5/292 407/6/292 2/6/292
f 178/376/293 584/378/293 179/378/293
f 32/287/294 438/285/294 33/285/294
f 144/170/295 550/153/295 145/153/295
f 221/379/296 627/377/296 222/377/296
f 280/298/297 686/293/297 281/293/297
f 100/3/298 506/7/298 101/7/298
f 389/172/299 795/169/299 390/169/299
f 362/380/300 768/373/300 363/373/300
f 2/6/301 408/8/301 3/8/301
f 132/299/302 538/300/302 133/300/302
f 97/9/303 503/4/303 98/4/303
f 174/138/16 580/188/16 175/188/16
f 179/378/304 585/381/304 180/381/304
f 33/285/305 439/73/305 34/73/305
f 96/11/306 502/9/306 97/9/306
f 279/301/307 685/298/307 280/298/307
f 318/78/308 724/76/308 319/76/308
f 378/174/309 784/163/309 379/163/309
f 95/12/310 501/11/310 96/11/310
f 220/344/311 626/379/311 221/379/311
f 40/214/312 446/72/312 41/72/312
f 377/140/313 783/174/313 378/174/313
f 172/14/314 578/1/314 173/1/314
f 180/381/315 586/123/315 181/123/315
f 133/300/316 539/302/316 134/302/316
f 376/139/317 782/140/317 377/140/317
f 219/382/318 625/344/318 220/344/318
f 101/7/319 507/259/319 102/259/319
f 34/73/320 440/71/320 35/71/320
f 375/254/321 781/139/321 376/139/321
f 94/44/322 500/12/322 95/12/322
f 278/303/323 684/301/323 279/301/323
f 181/123/324 587/118/324 182/118/324
f 374/253/325 780/254/325 375/254/325
f 171/28/326 577/14/326 172/14/326
f 218/383/327 624/382/327 219/382/327
f 134/302/328 540/304/328 135/304/328
f 373/394/329 779/253/329 374/253/329
f 3/8/330 409/297/330 4/297/330
f 182/118/331 588/85/331 183/85/331
f 35/71/332 441/213/332 36/213/332
f 372/189/99 778/394/99 373/394/99
f 170/30/333 576/28/333 171/28/333
f 217/340/334 623/383/334 218/383/334
f 136/306/335 542/305/335 137/305/335
f 135/304/336 541/306/336 136/306/336
f 371/190/337 777/189/337 372/189/337
f 93/37/338 499/44/338 94/44/338
f 169/105/339 575/30/339 170/30/339
f 183/85/340 589/338/340 184/338/340
f 36/213/341 442/307/341 37/307/341
f 370/191/342 776/190/342 371/190/342
f 361/84/343 767/380/343 362/380/343
f 277/308/344 683/303/344 278/303/344
f 92/39/345 498/37/345 93/37/345
f 369/192/346 775/191/346 370/191/346
f 39/309/347 445/214/347 40/214/347
f 168/45/348 574/105/348 169/105/348
f 319/76/349 725/341/349 320/341/349
f 368/193/350 774/192/350 369/192/350
f 216/388/351 622/340/351 217/340/351
f 38/310/352 444/309/352 39/309/352
f 91/99/353 497/39/353 92/39/353
f 37/307/354 443/310/354 38/310/354
f 367/194/355 773/193/355 368/193/355
f 276/311/356 682/308/356 277/308/356
f 167/48/357 573/45/357 168/45/357
f 184/338/358 590/23/358 185/23/358
f 366/195/359 772/194/359 367/194/359
f 215/390/360 621/388/360 216/388/360
f 275/312/361 681/311/361 276/311/361
f 166/86/362 572/48/362 167/48/362
f 274/313/363 680/312/363 275/312/363
f 175/188/46 581/196/46 176/196/46
f 90/81/364 496/99/364 91/99/364
f 185/23/365 591/24/365 186/24/365
f 388/197/366 794/172/366 389/172/366
f 214/384/367 620/390/367 215/390/367
f 273/314/368 679/313/368 274/313/368
f 165/54/369 571/86/369 166/86/369
f 272/315/370 678/314/370 273/314/370
f 108/154/371 514/171/371 109/171/371
f 89/89/372 495/81/372 90/81/372
f 186/24/373 592/93/373 187/93/373
f 387/201/374 793/197/374 388/197/374
f 213/164/375 619/384/375 214/384/375
f 271/316/376 677/315/376 272/315/376
f 164/57/377 570/54/377 165/54/377
f 53/34/378 459/255/378 54/255/378
f 270/317/379 676/316/379 271/316/379
f 88/58/380 494/89/380 89/89/380
f 187/93/381 593/325/381 188/325/381
f 386/202/382 792/201/382 387/201/382
f 360/22/383 766/84/383 361/84/383
f 269/318/384 675/317/384 270/317/384
f 163/59/385 569/57/385 164/57/385
f 268/319/386 674/318/386 269/318/386
f 10/161/387 416/279/387 11/279/387
f 87/50/388 493/58/388 88/58/388
f 188/325/389 594/122/389 189/122/389
f 385/206/390 791/202/390 386/202/390
f 212/98/391 618/164/391 213/164/391
f 267/320/392 673/319/392 268/319/392
f 162/62/393 568/59/393 163/59/393
f 384/207/394 790/206/394 385/206/394
f 266/321/395 672/320/395 267/320/395
f 320/341/396 726/339/396 321/339/396
f 383/208/397 789/207/397 384/207/397
f 102/259/398 508/15/398 103/15/398
f 359/92/3 764/92/3 765/22/3
f 265/322/4 670/322/4 671/321/4
f 86/66/5 491/66/5 492/50/5
f 264/323/6 669/323/6 670/322/6
f 109/171/7 514/171/7 515/209/7
f 161/68/399 566/68/399 567/62/399
f 321/339/9 726/339/9 727/258/9
f 382/210/10 787/210/10 788/208/10
f 262/335/11 667/335/11 668/327/11
f 85/67/400 490/67/400 491/66/400
f 189/122/13 594/122/13 595/31/13
f 52/36/14 457/36/14 458/34/14
f 211/180/15 616/180/15 617/98/15
f 263/327/16 668/327/16 669/323/16
f 143/211/17 548/211/17 549/170/17
f 4/297/18 409/297/18 410/10/18
f 358/131/19 763/131/19 764/92/19
f 261/326/20 666/326/20 667/335/20
f 160/53/21 565/53/21 566/68/21
f 260/328/22 665/328/22 666/326/22
f 11/279/23 416/279/23 417/256/23
f 84/70/24 489/70/24 490/67/24
f 322/258/25 727/258/25 728/119/25
f 381/215/26 786/215/26 787/210/26
f 83/69/401 488/69/401 489/70/401
f 190/31/28 595/31/28 596/343/28
f 290/224/29 695/224/29 696/295/29
f 380/216/30 785/216/30 786/215/30
f 210/205/31 615/205/31 616/180/31
f 379/163/29 784/163/29 785/216/29
f 82/74/402 487/74/402 488/69/402
f 291/295/33 696/295/33 697/296/33
f 357/354/34 762/354/34 763/131/34
f 259/329/35 664/329/35 665/328/35
f 110/209/36 515/209/36 516/212/36
f 81/75/37 486/75/37 487/74/37
f 51/129/38 456/129/38 457/36/38
f 80/60/403 485/60/403 486/75/403
f 323/119/40 728/119/40 729/120/40
f 292/296/41 697/296/41 698/115/41
f 288/222/42 693/222/42 694/223/42
f 258/294/43 663/294/43 664/329/43
f 79/61/404 484/61/404 485/60/404
f 191/343/45 596/343/45 597/181/45
f 289/223/46 694/223/46 695/224/46
f 209/238/47 614/238/47 615/205/47
f 78/79/48 483/79/48 484/61/48
f 293/115/49 698/115/49 699/334/49
f 12/256/50 417/256/50 418/35/50
f 356/353/51 761/353/51 762/354/51
f 257/395/52 662/395/52 663/294/52
f 77/52/405 482/52/405 483/79/405
f 111/212/54 516/212/54 517/225/54
f 256/324/55 661/324/55 662/395/55
f 142/184/56 547/184/56 548/211/56
f 76/51/406 481/51/406 482/52/406
f 324/120/58 729/120/58 730/96/58
f 159/55/407 564/55/407 565/53/407
f 192/181/60 597/181/60 598/219/60
f 294/334/61 699/334/61 700/175/61
f 112/225/62 517/225/62 518/229/62
f 208/385/63 613/385/63 614/238/63
f 255/117/64 660/117/64 661/324/64
f 75/83/408 480/83/408 481/51/408
f 13/35/66 418/35/66 419/228/66
f 355/121/67 760/121/67 761/353/67
f 50/19/68 455/19/68 456/129/68
f 74/91/409 479/91/409 480/83/409
f 295/175/70 700/175/70 701/103/70
f 254/116/71 659/116/71 660/117/71
f 158/391/410 563/391/410 564/55/410
f 325/96/73 730/96/73 731/97/73
f 113/229/411 518/229/411 519/230/411
f 253/342/75 658/342/75 659/116/75
f 73/114/76 478/114/76 479/91/76
f 193/219/77 598/219/77 599/217/77
f 14/228/412 419/228/412 420/233/412
f 207/387/79 612/387/79 613/385/79
f 72/88/80 477/88/80 478/114/80
f 296/103/81 701/103/81 702/101/81
f 114/230/82 519/230/82 520/232/82
f 354/251/83 759/251/83 760/121/83
f 252/177/84 657/177/84 658/342/84
f 157/87/85 562/87/85 563/391/85
f 15/233/86 420/233/86 421/234/86
f 71/90/413 476/90/413 477/88/413
f 326/97/88 731/97/88 732/178/88
f 297/101/89 702/101/89 703/40/89
f 115/232/90 520/232/90 521/235/90
f 251/176/91 656/176/91 657/177/91
f 70/95/92 475/95/92 476/90/92
f 194/217/93 599/217/93 600/250/93
f 16/234/94 421/234/94 422/236/94
f 206/368/95 611/368/95 612/387/95
f 250/227/96 655/227/96 656/176/96
f 141/186/97 546/186/97 547/184/97
f 156/357/98 561/357/98 562/87/98
f 353/33/99 758/33/99 759/251/99
f 49/21/100 454/21/100 455/19/100
f 69/187/101 474/187/101 475/95/101
f 298/40/102 703/40/102 704/265/102
f 249/226/103 654/226/103 655/227/103
f 68/80/414 473/80/414 474/187/414
f 327/178/105 732/178/105 733/179/105
f 116/235/106 521/235/106 522/246/106
f 248/102/107 653/102/107 654/226/107
f 155/49/108 560/49/108 561/357/108
f 195/250/109 600/250/109 601/248/109
f 17/236/110 422/236/110 423/245/110
f 205/156/111 610/156/111 611/368/111
f 247/42/112 652/42/112 653/102/112
f 67/82/415 472/82/415 473/80/415
f 18/245/114 423/245/114 424/130/114
f 352/32/115 757/32/115 758/33/115
f 66/392/116 471/392/116 472/82/116
f 299/265/117 704/265/117 705/18/117
f 117/246/118 522/246/118 523/247/118
f 246/41/119 651/41/119 652/42/119
f 48/145/120 453/145/120 454/21/120
f 154/47/121 559/47/121 560/49/121
f 328/179/122 733/179/122 734/203/122
f 65/389/123 470/389/123 471/392/123
f 196/248/124 601/248/124 602/25/124
f 300/18/125 705/18/125 706/16/125
f 19/130/126 424/130/126 425/231/126
f 204/158/127 609/158/127 610/156/127
f 245/393/128 650/393/128 651/41/128
f 64/100/129 469/100/129 470/389/129
f 118/247/130 523/247/130 524/252/130
f 244/264/131 649/264/131 650/393/131
f 153/46/132 558/46/132 559/47/132
f 197/25/133 602/25/133 603/330/133
f 20/231/134 425/231/134 426/20/134
f 203/239/135 608/239/135 609/158/135
f 47/107/136 452/107/136 453/145/136
f 63/110/416 468/110/416 469/100/416
f 301/16/138 706/16/138 707/352/138
f 351/183/139 756/183/139 757/32/139
f 243/166/140 648/166/140 649/264/140
f 119/252/141 524/252/141 525/185/141
f 103/15/142 508/15/142 509/106/142
f 242/17/143 647/17/143 648/166/143
f 140/271/144 545/271/144 546/186/144
f 62/94/417 467/94/417 468/110/417
f 329/203/146 734/203/146 735/204/146
f 365/257/147 770/257/147 771/195/147
f 61/38/148 466/38/148 467/94/148
f 198/330/149 603/330/149 604/404/149
f 302/352/150 707/352/150 708/63/150
f 202/241/151 607/241/151 608/239/151
f 241/165/152 646/165/152 647/17/152
f 152/104/418 557/104/418 558/46/418
f 21/20/154 426/20/154 427/144/154
f 151/167/419 556/167/419 557/104/419
f 199/404/156 604/404/156 605/405/156
f 303/63/157 708/63/157 709/355/157
f 120/185/158 525/185/158 526/260/158
f 201/400/159 606/400/159 607/241/159
f 240/281/160 645/281/160 646/165/160
f 46/109/161 451/109/161 452/107/161
f 5/10/162 410/10/162 411/13/162
f 350/182/163 755/182/163 756/183/163
f 239/65/164 644/65/164 645/281/164
f 150/29/420 555/29/420 556/167/420
f 22/144/166 427/144/166 428/262/166
f 238/64/167 643/64/167 644/65/167
f 149/56/168 554/56/168 555/29/168
f 330/204/169 735/204/169 736/237/169
f 121/260/170 526/260/170 527/261/170
f 148/124/171 553/124/171 554/56/171
f 200/405/16 605/405/16 606/400/16
f 304/355/172 709/355/172 710/349/172
f 23/262/173 428/262/173 429/173/173
f 238/64/174 237/356/174 642/356/174
f 60/43/175 465/43/175 466/38/175
f 349/267/176 754/267/176 755/182/176
f 122/261/177 527/261/177 528/263/177
f 236/358/178 641/358/178 642/356/178
f 45/198/179 450/198/179 451/109/179
f 147/125/180 552/125/180 553/124/180
f 331/237/181 736/237/181 737/399/181
f 139/111/182 544/111/182 545/271/182
f 59/127/183 464/127/183 465/43/183
f 348/398/184 753/398/184 754/267/184
f 306/346/185 305/349/185 710/349/185
f 235/351/186 640/351/186 641/358/186
f 24/173/187 429/173/187 430/108/187
f 104/106/188 509/106/188 510/126/188
f 332/399/189 737/399/189 738/403/189
f 234/350/190 639/350/190 640/351/190
f 347/218/191 752/218/191 753/398/191
f 123/263/192 528/263/192 529/269/192
f 6/13/193 411/13/193 412/128/193
f 58/132/194 463/132/194 464/127/194
f 306/346/195 711/346/195 712/347/195
f 25/108/196 430/108/196 431/268/196
f 333/403/197 738/403/197 739/386/197
f 233/345/198 638/345/198 639/350/198
f 392/133/199 797/133/199 798/134/199
f 346/348/200 751/348/200 752/218/200
f 124/269/201 529/269/201 530/270/201
f 44/200/202 449/200/202 450/198/202
f 393/134/203 798/134/203 799/135/203
f 307/347/204 712/347/204 713/361/204
f 146/136/147 551/136/147 552/125/147
f 334/386/205 739/386/205 740/396/205
f 232/360/206 637/360/206 638/345/206
f 287/272/207 692/272/207 693/222/207
f 345/249/208 750/249/208 751/348/208
f 231/362/209 636/362/209 637/360/209
f 105/126/210 510/126/210 511/137/210
f 26/268/211 431/268/211 432/275/211
f 335/396/212 740/396/212 741/369/212
f 394/135/213 799/135/213 800/141/213
f 344/27/421 749/27/421 750/249/421
f 308/361/215 713/361/215 714/243/215
f 125/270/216 530/270/216 531/273/216
f 57/142/217 462/142/217 463/132/217
f 230/363/218 635/363/218 636/362/218
f 286/274/219 691/274/219 692/272/219
f 336/369/422 741/369/422 742/157/422
f 43/291/221 448/291/221 449/200/221
f 7/128/222 412/128/222 413/143/222
f 343/26/223 748/26/223 749/27/223
f 309/243/224 714/243/224 715/244/224
f 229/242/225 634/242/225 635/363/225
f 395/141/226 800/141/226 801/146/226
f 27/275/227 432/275/227 433/199/227
f 337/157/228 742/157/228 743/397/228
f 228/364/229 633/364/229 634/242/229
f 396/146/230 801/146/230 802/147/230
f 342/359/231 747/359/231 748/26/231
f 126/273/232 531/273/232 532/277/232
f 56/148/233 461/148/233 462/142/233
f 285/278/234 690/278/234 691/274/234
f 310/244/235 715/244/235 716/365/235
f 338/397/236 743/397/236 744/240/236
f 227/366/237 632/366/237 633/364/237
f 138/113/238 543/113/238 544/111/238
f 397/147/239 802/147/239 803/150/239
f 341/402/240 746/402/240 747/359/240
f 106/137/241 511/137/241 512/151/241
f 340/401/29 745/401/29 746/402/29
f 311/365/242 716/365/242 717/367/242
f 28/199/243 433/199/243 434/280/243
f 339/240/244 744/240/244 745/401/244
f 226/332/245 631/332/245 632/366/245
f 398/150/246 803/150/246 804/152/246
f 127/277/247 532/277/247 533/276/247
f 145/153/248 550/153/248 551/136/248
f 284/282/249 689/282/249 690/278/249
f 312/367/250 717/367/250 718/333/250
f 225/337/147 630/337/147 631/332/147
f 42/286/251 447/286/251 448/291/251
f 399/152/252 804/152/252 805/155/252
f 8/143/253 413/143/253 414/149/253
f 313/333/254 718/333/254 719/331/254
f 128/276/255 533/276/255 534/283/255
f 283/284/256 688/284/256 689/282/256
f 400/155/257 805/155/257 806/159/257
f 314/331/258 719/331/258 720/336/258
f 55/160/259 460/160/259 461/148/259
f 315/336/46 720/336/46 721/370/46
f 29/280/260 434/280/260 435/289/260
f 364/371/261 769/371/261 770/257/261
f 401/159/262 806/159/262 807/162/262
f 129/283/263 534/283/263 535/112/263
f 282/288/264 687/288/264 688/284/264
f 402/162/265 807/162/265 808/266/265
f 316/370/266 721/370/266 722/372/266
f 363/373/267 768/373/267 769/371/267
f 403/266/423 808/266/423 809/220/423
f 30/289/269 435/289/269 436/290/269
f 404/220/270 809/220/270 810/221/270
f 317/372/271 722/372/271 723/78/271
f 130/112/272 535/112/272 536/292/272
f 281/293/273 686/293/273 687/288/273
f 107/151/274 512/151/274 513/154/274
f 176/196/275 581/196/275 582/374/275
f 224/375/276 629/375/276 630/337/276
f 405/221/277 810/221/277 579/138/277
f 31/290/278 436/290/278 437/287/278
f 54/255/279 459/255/279 460/160/279
f 223/77/280 628/77/280 629/375/280
f 41/72/281 446/72/281 447/286/281
f 173/1/282 578/1/282 504/2/282
f 137/305/283 542/305/283 543/113/283
f 9/149/284 414/149/284 415/161/284
f 177/374/285 582/374/285 583/376/285
f 391/168/286 796/168/286 797/133/286
f 99/2/287 504/2/287 505/3/287
f 222/377/288 627/377/288 628/77/288
f 98/4/289 503/4/289 406/5/289
f 131/292/290 536/292/290 537/299/290
f 390/169/291 795/169/291 796/168/291
f 1/5/292 406/5/292 407/6/292
f 178/376/293 583/376/293 584/378/293
f 32/287/294 437/287/294 438/285/294
f 144/170/295 549/170/295 550/153/295
f 221/379/296 626/379/296 627/377/296
f 280/298/297 685/298/297 686/293/297
f 100/3/298 505/3/298 506/7/298
f 389/172/299 794/172/299 795/169/299
f 362/380/300 767/380/300 768/373/300
f 2/6/301 407/6/301 408/8/301
f 132/299/302 537/299/302 538/300/302
f 97/9/303 502/9/303 503/4/303
f 174/138/16 579/138/16 580/188/16
f 179/378/304 584/378/304 585/381/304
f 33/285/305 438/285/305 439/73/305
f 96/11/424 501/11/424 502/9/424
f 279/301/307 684/301/307 685/298/307
f 318/78/308 723/78/308 724/76/308
f 378/174/309 783/174/309 784/163/309
f 95/12/310 500/12/310 501/11/310
f 220/344/311 625/344/311 626/379/311
f 40/214/312 445/214/312 446/72/312
f 377/140/313 782/140/313 783/174/313
f 172/14/425 577/14/425 578/1/425
f 180/381/315 585/381/315 586/123/315
f 133/300/316 538/300/316 539/302/316
f 376/139/426 781/139/426 782/140/426
f 219/382/318 624/382/318 625/344/318
f 101/7/319 506/7/319 507/259/319
f 34/73/320 439/73/320 440/71/320
f 375/254/321 780/254/321 781/139/321
f 94/44/322 499/44/322 500/12/322
f 278/303/323 683/303/323 684/301/323
f 181/123/324 586/123/324 587/118/324
f 374/253/325 779/253/325 780/254/325
f 171/28/427 576/28/427 577/14/427
f 218/383/327 623/383/327 624/382/327
f 134/302/328 539/302/328 540/304/328
f 373/394/329 778/394/329 779/253/329
f 3/8/330 408/8/330 409/297/330
f 182/118/331 587/118/331 588/85/331
f 35/71/332 440/71/332 441/213/332
f 372/189/428 777/189/428 778/394/428
f 170/30/333 575/30/333 576/28/333
f 217/340/334 622/340/334 623/383/334
f 136/306/335 541/306/335 542/305/335
f 135/304/336 540/304/336 541/306/336
f 371/190/337 776/190/337 777/189/337
f 93/37/338 498/37/338 499/44/338
f 169/105/339 574/105/339 575/30/339
f 183/85/340 588/85/340 589/338/340
f 36/213/341 441/213/341 442/307/341
f 370/191/342 775/191/342 776/190/342
f 361/84/343 766/84/343 767/380/343
f 277/308/344 682/308/344 683/303/344
f 92/39/429 497/39/429 498/37/429
f 369/192/346 774/192/346 775/191/346
f 39/309/347 444/309/347 445/214/347
f 168/45/348 573/45/348 574/105/348
f 319/76/349 724/76/349 725/341/349
f 368/193/350 773/193/350 774/192/350
f 216/388/351 621/388/351 622/340/351
f 38/310/352 443/310/352 444/309/352
f 91/99/353 496/99/353 497/39/353
f 37/307/354 442/307/354 443/310/354
f 367/194/430 772/194/430 773/193/430
f 276/311/356 681/311/356 682/308/356
f 167/48/357 572/48/357 573/45/357
f 184/338/358 589/338/358 590/23/358
f 366/195/359 771/195/359 772/194/359
f 215/390/360 620/390/360 621/388/360
f 275/312/361 680/312/361 681/311/361
f 166/86/362 571/86/362 572/48/362
f 274/313/363 679/313/363 680/312/363
f 175/188/46 580/188/46 581/196/46
f 90/81/364 495/81/364 496/99/364
f 185/23/365 590/23/365 591/24/365
f 388/197/366 793/197/366 794/172/366
f 214/384/367 619/384/367 620/390/367
f 273/314/368 678/314/368 679/313/368
f 165/54/431 570/54/431 571/86/431
f 272/315/370 677/315/370 678/314/370
f 108/154/371 513/154/371 514/171/371
f 89/89/372 494/89/372 495/81/372
f 186/24/373 591/24/373 592/93/373
f 387/201/374 792/201/374 793/197/374
f 213/164/375 618/164/375 619/384/375
f 271/316/376 676/316/376 677/315/376
f 164/57/377 569/57/377 570/54/377
f 53/34/378 458/34/378 459/255/378
f 270/317/379 675/317/379 676/316/379
f 88/58/432 493/58/432 494/89/432
f 187/93/381 592/93/381 593/325/381
f 386/202/382 791/202/382 792/201/382
f 360/22/383 765/22/383 766/84/383
f 269/318/384 674/318/384 675/317/384
f 163/59/385 568/59/385 569/57/385
f 268/319/433 673/319/433 674/318/433
f 10/161/387 415/161/387 416/279/387
f 87/50/388 492/50/388 493/58/388
f 188/325/389 593/325/389 594/122/389
f 385/206/390 790/206/390 791/202/390
f 212/98/391 617/98/391 618/164/391
f 267/320/392 672/320/392 673/319/392
f 162/62/393 567/62/393 568/59/393
f 384/207/394 789/207/394 790/206/394
f 266/321/395 671/321/395 672/320/395
f 320/341/396 725/341/396 726/339/396
f 383/208/397 788/208/397 789/207/397
f 102/259/398 507/259/398 508/15/398
