# Blender 4.4.3
# www.blender.org
mtllib text_hati.mtl
o text_hati
v 0.060308 0.484615 -0.050000
v 0.122769 0.416769 -0.050000
v 0.250923 -0.256308 -0.050000
v 0.247326 -0.257295 -0.050000
v 0.243714 -0.258462 -0.050000
v 0.240087 -0.259808 -0.050000
v 0.236444 -0.261333 -0.050000
v 0.232787 -0.263038 -0.050000
v 0.229115 -0.264923 -0.050000
v 0.225428 -0.266987 -0.050000
v 0.221726 -0.269231 -0.050000
v 0.218010 -0.271654 -0.050000
v 0.214278 -0.274256 -0.050000
v 0.210531 -0.277038 -0.050000
v 0.206769 -0.280000 -0.050000
v 0.204298 -0.282202 -0.050000
v 0.201908 -0.284502 -0.050000
v 0.199601 -0.286899 -0.050000
v 0.197376 -0.289393 -0.050000
v 0.195233 -0.291984 -0.050000
v 0.193173 -0.294673 -0.050000
v 0.191195 -0.297459 -0.050000
v 0.189299 -0.300342 -0.050000
v 0.187486 -0.303322 -0.050000
v 0.185754 -0.306400 -0.050000
v 0.184105 -0.309574 -0.050000
v 0.182538 -0.312846 -0.050000
v 0.181061 -0.316126 -0.050000
v 0.179682 -0.319323 -0.050000
v 0.178399 -0.322437 -0.050000
v 0.177214 -0.325470 -0.050000
v 0.176126 -0.328420 -0.050000
v 0.175135 -0.331288 -0.050000
v 0.174241 -0.334074 -0.050000
v 0.173444 -0.336778 -0.050000
v 0.172745 -0.339399 -0.050000
v 0.172143 -0.341938 -0.050000
v 0.171638 -0.344395 -0.050000
v 0.171231 -0.346769 -0.050000
v 0.170154 -0.359692 -0.050000
v 0.024769 0.358615 -0.050000
v 0.023442 0.364550 -0.050000
v 0.021972 0.370147 -0.050000
v 0.020361 0.375409 -0.050000
v 0.018607 0.380333 -0.050000
v 0.016711 0.384921 -0.050000
v 0.014673 0.389173 -0.050000
v 0.012493 0.393088 -0.050000
v 0.010171 0.396667 -0.050000
v 0.007707 0.399909 -0.050000
v 0.005100 0.402814 -0.050000
v 0.002352 0.405383 -0.050000
v -0.000538 0.407615 -0.050000
v -0.003653 0.409593 -0.050000
v -0.007075 0.411400 -0.050000
v -0.010803 0.413034 -0.050000
v -0.014838 0.414496 -0.050000
v -0.019179 0.415786 -0.050000
v -0.023827 0.416904 -0.050000
v -0.028782 0.417850 -0.050000
v -0.034043 0.418624 -0.050000
v -0.039611 0.419226 -0.050000
v -0.045485 0.419656 -0.050000
v -0.051666 0.419914 -0.050000
v -0.058154 0.420000 -0.050000
v -0.058154 0.425385 -0.050000
v -0.053132 0.426865 -0.050000
v -0.048118 0.428436 -0.050000
v -0.043111 0.430096 -0.050000
v -0.038111 0.431846 -0.050000
v -0.033119 0.433686 -0.050000
v -0.028135 0.435615 -0.050000
v -0.023158 0.437635 -0.050000
v -0.018188 0.439744 -0.050000
v -0.013226 0.441942 -0.050000
v -0.008271 0.444231 -0.050000
v -0.003324 0.446609 -0.050000
v 0.001615 0.449077 -0.050000
v 0.006450 0.451560 -0.050000
v 0.011083 0.453983 -0.050000
v 0.015514 0.456346 -0.050000
v 0.019744 0.458650 -0.050000
v 0.023771 0.460893 -0.050000
v 0.027596 0.463077 -0.050000
v 0.031220 0.465201 -0.050000
v 0.034641 0.467265 -0.050000
v 0.037861 0.469269 -0.050000
v 0.040878 0.471214 -0.050000
v 0.043694 0.473098 -0.050000
v 0.046308 0.474923 -0.050000
v -0.228308 0.238000 -0.050000
v -0.223282 0.239481 -0.050000
v -0.218256 0.241051 -0.050000
v -0.213231 0.242712 -0.050000
v -0.208205 0.244462 -0.050000
v -0.203179 0.246301 -0.050000
v -0.198154 0.248231 -0.050000
v -0.193128 0.250250 -0.050000
v -0.188103 0.252359 -0.050000
v -0.183077 0.254558 -0.050000
v -0.178051 0.256846 -0.050000
v -0.173026 0.259224 -0.050000
v -0.168000 0.261692 -0.050000
v -0.165712 0.262859 -0.050000
v -0.163154 0.264205 -0.050000
v -0.160327 0.265731 -0.050000
v -0.157231 0.267436 -0.050000
v -0.153865 0.269321 -0.050000
v -0.150231 0.271385 -0.050000
v -0.146327 0.273628 -0.050000
v -0.142154 0.276051 -0.050000
v -0.137712 0.278654 -0.050000
v -0.133000 0.281436 -0.050000
v -0.128019 0.284397 -0.050000
v -0.122769 0.287538 -0.050000
v -0.106615 0.297231 -0.050000
v -0.051692 0.235846 -0.050000
v -0.051692 -0.032308 -0.050000
v -0.052006 -0.048738 -0.050000
v -0.052949 -0.065004 -0.050000
v -0.054519 -0.081106 -0.050000
v -0.056718 -0.097043 -0.050000
v -0.059545 -0.112815 -0.050000
v -0.063000 -0.128423 -0.050000
v -0.067083 -0.143866 -0.050000
v -0.071795 -0.159145 -0.050000
v -0.077135 -0.174260 -0.050000
v -0.083103 -0.189209 -0.050000
v -0.089699 -0.203995 -0.050000
v -0.096923 -0.218615 -0.050000
v -0.104746 -0.232907 -0.050000
v -0.113137 -0.246705 -0.050000
v -0.122096 -0.260010 -0.050000
v -0.131624 -0.272821 -0.050000
v -0.141720 -0.285138 -0.050000
v -0.152385 -0.296962 -0.050000
v -0.163617 -0.308292 -0.050000
v -0.175419 -0.319128 -0.050000
v -0.187788 -0.329471 -0.050000
v -0.200726 -0.339321 -0.050000
v -0.214233 -0.348676 -0.050000
v -0.228308 -0.357538 -0.050000
v -0.232615 -0.355385 -0.050000
v -0.221607 -0.338767 -0.050000
v -0.211556 -0.320863 -0.050000
v -0.202462 -0.301673 -0.050000
v -0.194325 -0.281197 -0.050000
v -0.187145 -0.259434 -0.050000
v -0.180923 -0.236385 -0.050000
v -0.175658 -0.212049 -0.050000
v -0.171350 -0.186427 -0.050000
v -0.168000 -0.159519 -0.050000
v -0.165607 -0.131325 -0.050000
v -0.164171 -0.101844 -0.050000
v -0.163692 -0.071077 -0.050000
v -0.163692 0.193846 -0.050000
v -0.163819 0.197197 -0.050000
v -0.164201 0.200427 -0.050000
v -0.164837 0.203538 -0.050000
v -0.165726 0.206530 -0.050000
v -0.166871 0.209402 -0.050000
v -0.168269 0.212154 -0.050000
v -0.169922 0.214786 -0.050000
v -0.171829 0.217299 -0.050000
v -0.173990 0.219692 -0.050000
v -0.176406 0.221966 -0.050000
v -0.179076 0.224120 -0.050000
v -0.182000 0.226154 -0.050000
v -0.185119 0.228046 -0.050000
v -0.188372 0.229774 -0.050000
v -0.191760 0.231337 -0.050000
v -0.195282 0.232735 -0.050000
v -0.198939 0.233969 -0.050000
v -0.202731 0.235038 -0.050000
v -0.206657 0.235943 -0.050000
v -0.210718 0.236684 -0.050000
v -0.214913 0.237260 -0.050000
v -0.219244 0.237671 -0.050000
v -0.223708 0.237918 -0.050000
v 0.060308 0.484615 0.050000
v 0.122769 0.416769 0.050000
v 0.250923 -0.256308 0.050000
v 0.247326 -0.257295 0.050000
v 0.243714 -0.258462 0.050000
v 0.240087 -0.259808 0.050000
v 0.236444 -0.261333 0.050000
v 0.232787 -0.263038 0.050000
v 0.229115 -0.264923 0.050000
v 0.225428 -0.266987 0.050000
v 0.221726 -0.269231 0.050000
v 0.218010 -0.271654 0.050000
v 0.214278 -0.274256 0.050000
v 0.210531 -0.277038 0.050000
v 0.206769 -0.280000 0.050000
v 0.204298 -0.282202 0.050000
v 0.201908 -0.284502 0.050000
v 0.199601 -0.286899 0.050000
v 0.197376 -0.289393 0.050000
v 0.195233 -0.291984 0.050000
v 0.193173 -0.294673 0.050000
v 0.191195 -0.297459 0.050000
v 0.189299 -0.300342 0.050000
v 0.187486 -0.303322 0.050000
v 0.185754 -0.306400 0.050000
v 0.184105 -0.309574 0.050000
v 0.182538 -0.312846 0.050000
v 0.181061 -0.316126 0.050000
v 0.179682 -0.319323 0.050000
v 0.178399 -0.322437 0.050000
v 0.177214 -0.325470 0.050000
v 0.176126 -0.328420 0.050000
v 0.175135 -0.331288 0.050000
v 0.174241 -0.334074 0.050000
v 0.173444 -0.336778 0.050000
v 0.172745 -0.339399 0.050000
v 0.172143 -0.341938 0.050000
v 0.171638 -0.344395 0.050000
v 0.171231 -0.346769 0.050000
v 0.170154 -0.359692 0.050000
v 0.024769 0.358615 0.050000
v 0.023442 0.364550 0.050000
v 0.021972 0.370147 0.050000
v 0.020361 0.375409 0.050000
v 0.018607 0.380333 0.050000
v 0.016711 0.384921 0.050000
v 0.014673 0.389173 0.050000
v 0.012493 0.393088 0.050000
v 0.010171 0.396667 0.050000
v 0.007707 0.399909 0.050000
v 0.005100 0.402814 0.050000
v 0.002352 0.405383 0.050000
v -0.000538 0.407615 0.050000
v -0.003653 0.409593 0.050000
v -0.007075 0.411400 0.050000
v -0.010803 0.413034 0.050000
v -0.014838 0.414496 0.050000
v -0.019179 0.415786 0.050000
v -0.023827 0.416904 0.050000
v -0.028782 0.417850 0.050000
v -0.034043 0.418624 0.050000
v -0.039611 0.419226 0.050000
v -0.045485 0.419656 0.050000
v -0.051666 0.419914 0.050000
v -0.058154 0.420000 0.050000
v -0.058154 0.425385 0.050000
v -0.053132 0.426865 0.050000
v -0.048118 0.428436 0.050000
v -0.043111 0.430096 0.050000
v -0.038111 0.431846 0.050000
v -0.033119 0.433686 0.050000
v -0.028135 0.435615 0.050000
v -0.023158 0.437635 0.050000
v -0.018188 0.439744 0.050000
v -0.013226 0.441942 0.050000
v -0.008271 0.444231 0.050000
v -0.003324 0.446609 0.050000
v 0.001615 0.449077 0.050000
v 0.006450 0.451560 0.050000
v 0.011083 0.453983 0.050000
v 0.015514 0.456346 0.050000
v 0.019744 0.458650 0.050000
v 0.023771 0.460893 0.050000
v 0.027596 0.463077 0.050000
v 0.031220 0.465201 0.050000
v 0.034641 0.467265 0.050000
v 0.037861 0.469269 0.050000
v 0.040878 0.471214 0.050000
v 0.043694 0.473098 0.050000
v 0.046308 0.474923 0.050000
v -0.228308 0.238000 0.050000
v -0.223282 0.239481 0.050000
v -0.218256 0.241051 0.050000
v -0.213231 0.242712 0.050000
v -0.208205 0.244462 0.050000
v -0.203179 0.246301 0.050000
v -0.198154 0.248231 0.050000
v -0.193128 0.250250 0.050000
v -0.188103 0.252359 0.050000
v -0.183077 0.254558 0.050000
v -0.178051 0.256846 0.050000
v -0.173026 0.259224 0.050000
v -0.168000 0.261692 0.050000
v -0.165712 0.262859 0.050000
v -0.163154 0.264205 0.050000
v -0.160327 0.265731 0.050000
v -0.157231 0.267436 0.050000
v -0.153865 0.269321 0.050000
v -0.150231 0.271385 0.050000
v -0.146327 0.273628 0.050000
v -0.142154 0.276051 0.050000
v -0.137712 0.278654 0.050000
v -0.133000 0.281436 0.050000
v -0.128019 0.284397 0.050000
v -0.122769 0.287538 0.050000
v -0.106615 0.297231 0.050000
v -0.051692 0.235846 0.050000
v -0.051692 -0.032308 0.050000
v -0.052006 -0.048738 0.050000
v -0.052949 -0.065004 0.050000
v -0.054519 -0.081106 0.050000
v -0.056718 -0.097043 0.050000
v -0.059545 -0.112815 0.050000
v -0.063000 -0.128423 0.050000
v -0.067083 -0.143866 0.050000
v -0.071795 -0.159145 0.050000
v -0.077135 -0.174260 0.050000
v -0.083103 -0.189209 0.050000
v -0.089699 -0.203995 0.050000
v -0.096923 -0.218615 0.050000
v -0.104746 -0.232907 0.050000
v -0.113137 -0.246705 0.050000
v -0.122096 -0.260010 0.050000
v -0.131624 -0.272821 0.050000
v -0.141720 -0.285138 0.050000
v -0.152385 -0.296962 0.050000
v -0.163617 -0.308292 0.050000
v -0.175419 -0.319128 0.050000
v -0.187788 -0.329471 0.050000
v -0.200726 -0.339321 0.050000
v -0.214233 -0.348676 0.050000
v -0.228308 -0.357538 0.050000
v -0.232615 -0.355385 0.050000
v -0.221607 -0.338767 0.050000
v -0.211556 -0.320863 0.050000
v -0.202462 -0.301673 0.050000
v -0.194325 -0.281197 0.050000
v -0.187145 -0.259434 0.050000
v -0.180923 -0.236385 0.050000
v -0.175658 -0.212049 0.050000
v -0.171350 -0.186427 0.050000
v -0.168000 -0.159519 0.050000
v -0.165607 -0.131325 0.050000
v -0.164171 -0.101844 0.050000
v -0.163692 -0.071077 0.050000
v -0.163692 0.193846 0.050000
v -0.163819 0.197197 0.050000
v -0.164201 0.200427 0.050000
v -0.164837 0.203538 0.050000
v -0.165726 0.206530 0.050000
v -0.166871 0.209402 0.050000
v -0.168269 0.212154 0.050000
v -0.169922 0.214786 0.050000
v -0.171829 0.217299 0.050000
v -0.173990 0.219692 0.050000
v -0.176406 0.221966 0.050000
v -0.179076 0.224120 0.050000
v -0.182000 0.226154 0.050000
v -0.185119 0.228046 0.050000
v -0.188372 0.229774 0.050000
v -0.191760 0.231337 0.050000
v -0.195282 0.232735 0.050000
v -0.198939 0.233969 0.050000
v -0.202731 0.235038 0.050000
v -0.206657 0.235943 0.050000
v -0.210718 0.236684 0.050000
v -0.214913 0.237260 0.050000
v -0.219244 0.237671 0.050000
v -0.223708 0.237918 0.050000
vn -0.0000 -0.0000 -1.0000
vn -0.0000 -0.0000 1.0000
vn -0.6828 -0.7306 -0.0000
vn -0.5111 0.8595 -0.0000
vn -0.9999 0.0156 -0.0000
vn -0.4333 0.9013 -0.0000
vn 0.8874 -0.4610 -0.0000
vn -0.1794 -0.9838 -0.0000
vn 0.6764 -0.7366 -0.0000
vn -0.7444 -0.6677 -0.0000
vn -0.5085 0.8611 -0.0000
vn 0.9906 -0.1367 -0.0000
vn -0.4193 0.9078 -0.0000
vn 0.8715 -0.4903 -0.0000
vn -0.2246 -0.9745 -0.0000
vn 0.6415 -0.7672 -0.0000
vn -0.7961 -0.6051 -0.0000
vn -0.5055 0.8628 -0.0000
vn -0.8720 0.4895 -0.0000
vn -0.5021 0.8648 -0.0000
vn 0.9843 -0.1764 -0.0000
vn -0.4051 0.9143 -0.0000
vn 0.8543 -0.5198 -0.0000
vn -0.2715 -0.9625 -0.0000
vn -0.8389 -0.5443 -0.0000
vn -0.9988 0.0486 -0.0000
vn -0.4983 0.8670 -0.0000
vn -0.3907 0.9205 -0.0000
vn 0.8355 -0.5494 -0.0000
vn -0.3197 -0.9475 -0.0000
vn 0.6057 -0.7957 -0.0000
vn -0.8737 -0.4865 -0.0000
vn -0.8337 0.5523 -0.0000
vn -0.4938 0.8696 -0.0000
vn 0.9764 -0.2161 -0.0000
vn -0.3759 0.9266 -0.0000
vn 0.8154 -0.5790 -0.0000
vn -0.3690 -0.9294 -0.0000
vn -0.9018 -0.4322 -0.0000
vn -0.4886 0.8725 -0.0000
vn 0.9668 -0.2556 -0.0000
vn -0.3610 0.9326 -0.0000
vn 0.7937 -0.6083 -0.0000
vn -0.4189 -0.9080 -0.0000
vn 0.5694 -0.8220 -0.0000
vn -0.9242 -0.3819 -0.0000
vn -0.9964 0.0846 -0.0000
vn -0.4472 -0.8944 -0.0000
vn -0.4824 0.8759 -0.0000
vn -0.3458 0.9383 -0.0000
vn 0.7707 -0.6372 -0.0000
vn -0.4690 -0.8832 -0.0000
vn 0.5328 -0.8462 -0.0000
vn 0.9824 0.1870 -0.0000
vn -0.4749 0.8800 -0.0000
vn 0.9556 -0.2947 -0.0000
vn -0.3304 0.9439 -0.0000
vn 0.7462 -0.6657 -0.0000
vn -0.5187 -0.8550 -0.0000
vn -0.9420 -0.3355 -0.0000
vn -0.4658 0.8849 -0.0000
vn 0.9429 -0.3331 -0.0000
vn -0.3147 0.9492 -0.0000
vn 0.7205 -0.6935 -0.0000
vn -0.5711 -0.8209 -0.0000
vn -0.9561 -0.2929 -0.0000
vn -0.9923 0.1236 -0.0000
vn -0.4542 0.8909 -0.0000
vn -0.2989 0.9543 -0.0000
vn 0.6935 -0.7205 -0.0000
vn -0.6279 -0.7783 -0.0000
vn -0.9672 -0.2539 -0.0000
vn -0.4408 0.8976 -0.0000
vn 0.9287 -0.3707 -0.0000
vn -0.2828 0.9592 -0.0000
vn 0.6653 -0.7466 -0.0000
vn -0.6854 -0.7282 -0.0000
vn -0.9759 -0.2183 -0.0000
vn -0.9862 0.1658 -0.0000
vn -0.4277 0.9039 -0.0000
vn -1.0000 -0.0000 -0.0000
vn 0.6186 -0.7857 -0.0000
vn -0.7421 -0.6702 -0.0000
vn -0.5692 0.8222 -0.0000
vn -0.9801 -0.1984 -0.0000
vn -0.0132 -0.9999 -0.0000
vn 0.9965 -0.0830 -0.0000
vn -0.4144 0.9101 -0.0000
vn 0.9132 -0.4074 -0.0000
vn 0.5961 -0.8029 -0.0000
vn -0.7966 -0.6045 -0.0000
vn 0.7357 0.6773 -0.0000
vn -0.5724 0.8200 -0.0000
vn 0.9856 -0.1692 -0.0000
vn -0.4008 0.9162 -0.0000
vn 0.8965 -0.4430 -0.0000
vn -0.0417 -0.9991 -0.0000
vn 0.5720 -0.8202 -0.0000
vn -0.8469 -0.5317 -0.0000
vn -0.9774 0.2115 -0.0000
vn -0.5562 0.8310 -0.0000
vn 0.9795 -0.2013 -0.0000
vn -0.3870 0.9221 -0.0000
vn -0.0730 -0.9973 -0.0000
vn 0.5461 -0.8377 -0.0000
vn -0.8915 -0.4530 -0.0000
vn -0.5417 0.8406 -0.0000
vn 0.9730 -0.2307 -0.0000
vn -0.3728 0.9279 -0.0000
vn 0.8772 -0.4801 -0.0000
vn -0.1075 -0.9942 -0.0000
vn 0.5183 -0.8552 -0.0000
vn 1.0000 -0.0000 -0.0000
vn -0.5285 0.8489 -0.0000
vn 0.9662 -0.2577 -0.0000
vn -0.3584 0.9336 -0.0000
vn 0.8544 -0.5196 -0.0000
vn -0.1456 -0.9894 -0.0000
vn 0.4885 -0.8726 -0.0000
vn -0.9290 -0.3701 -0.0000
vn -0.9654 0.2606 -0.0000
vn -0.5166 0.8563 -0.0000
vn 0.9592 -0.2826 -0.0000
vn -0.3438 0.9391 -0.0000
vn -0.1876 -0.9823 -0.0000
vn 0.4566 -0.8897 -0.0000
vn -0.9585 -0.2851 -0.0000
vn -0.5057 0.8627 -0.0000
vn 0.9522 -0.3055 -0.0000
vn -0.3288 0.9444 -0.0000
vn 0.8295 -0.5586 -0.0000
vn -0.2339 -0.9723 -0.0000
vn 0.4226 -0.9063 -0.0000
vn -0.9798 -0.2002 -0.0000
vn -0.9497 0.3133 -0.0000
vn -0.4958 0.8685 -0.0000
vn 0.9452 -0.3266 -0.0000
vn -0.3137 0.9495 -0.0000
vn -0.2848 -0.9586 -0.0000
vn 0.3864 -0.9223 -0.0000
vn -0.9931 -0.1172 -0.0000
vn -0.4867 0.8736 -0.0000
vn 0.9382 -0.3460 -0.0000
vn -0.2983 0.9545 -0.0000
vn 0.8024 -0.5968 -0.0000
vn -0.3407 -0.9402 -0.0000
vn 0.3479 -0.9375 -0.0000
vn -0.9993 -0.0379 -0.0000
vn -0.4783 0.8782 -0.0000
vn 0.9314 -0.3641 -0.0000
vn -0.2826 0.9592 -0.0000
vn 0.7734 -0.6339 -0.0000
vn -0.4014 -0.9159 -0.0000
vn 0.3074 -0.9516 -0.0000
vn -0.9293 0.3693 -0.0000
vn -0.4706 0.8824 -0.0000
vn 0.9247 -0.3807 -0.0000
vn -0.0179 -0.9998 -0.0000
vn -0.4668 -0.8844 -0.0000
vn 0.2646 -0.9643 -0.0000
vn -0.5145 0.8575 -0.0000
vn 0.9998 -0.0191 -0.0000
vn -0.4634 0.8861 -0.0000
vn 0.9181 -0.3963 -0.0000
vn -0.0552 -0.9985 -0.0000
vn 0.7426 -0.6698 -0.0000
vn -0.5361 -0.8442 -0.0000
vn 0.7452 0.6668 -0.0000
vn 0.9983 -0.0578 -0.0000
vn -0.4568 0.8896 -0.0000
vn 0.9118 -0.4107 -0.0000
vn -0.0946 -0.9955 -0.0000
vn 0.7101 -0.7041 -0.0000
vn -0.6112 -0.7914 -0.0000
vn -0.5134 0.8581 -0.0000
vn -0.9037 0.4282 -0.0000
vn 0.9953 -0.0971 -0.0000
vn -0.4469 0.8946 -0.0000
vn 0.9019 -0.4319 -0.0000
vn -0.1360 -0.9907 -0.0000
vn -0.6829 -0.7306 -0.0000
vn -0.5084 0.8611 -0.0000
vn -0.2715 -0.9624 -0.0000
vn -0.3760 0.9266 -0.0000
vn -0.3304 0.9438 -0.0000
vn -0.5187 -0.8549 -0.0000
vn 0.6934 -0.7205 -0.0000
vn -0.0133 -0.9999 -0.0000
vn -0.5724 0.8199 -0.0000
vn -0.3869 0.9221 -0.0000
vn -0.1875 -0.9823 -0.0000
vn -0.9585 -0.2852 -0.0000
vn -0.3289 0.9444 -0.0000
vn 0.9314 -0.3640 -0.0000
vn 0.3073 -0.9516 -0.0000
vn 0.9181 -0.3962 -0.0000
vt 0.500000 0.000000
vt 0.000000 0.000000
vt 0.005618 0.000000
vt 0.494382 0.000000
vt 0.488764 0.000000
vt 0.483146 0.000000
vt 0.477528 0.000000
vt 0.471910 0.000000
vt 0.264045 0.000000
vt 0.466292 0.000000
vt 0.460674 0.000000
vt 0.269663 0.000000
vt 0.455056 0.000000
vt 0.275281 0.000000
vt 0.280899 0.000000
vt 0.449438 0.000000
vt 0.286517 0.000000
vt 0.443820 0.000000
vt 0.292135 0.000000
vt 0.438202 0.000000
vt 0.297753 0.000000
vt 0.432584 0.000000
vt 0.303371 0.000000
vt 0.426966 0.000000
vt 0.308989 0.000000
vt 0.421348 0.000000
vt 0.314607 0.000000
vt 0.415730 0.000000
vt 0.410112 0.000000
vt 0.404494 0.000000
vt 0.320225 0.000000
vt 0.398876 0.000000
vt 0.325843 0.000000
vt 0.393258 0.000000
vt 0.331461 0.000000
vt 0.387640 0.000000
vt 0.337079 0.000000
vt 0.382022 0.000000
vt 0.342697 0.000000
vt 0.376404 0.000000
vt 0.348315 0.000000
vt 0.365169 0.000000
vt 0.370787 0.000000
vt 0.353933 0.000000
vt 0.359551 0.000000
vt 0.617977 0.000000
vt 0.893258 0.000000
vt 0.898876 0.000000
vt 0.820225 0.000000
vt 0.764045 0.000000
vt 0.814607 0.000000
vt 0.567416 0.000000
vt 0.926966 0.000000
vt 0.932584 0.000000
vt 0.741573 0.000000
vt 0.831461 0.000000
vt 0.735955 0.000000
vt 0.651685 0.000000
vt 0.882023 0.000000
vt 0.887640 0.000000
vt 0.870786 0.000000
vt 0.876405 0.000000
vt 0.904494 0.000000
vt 0.601124 0.000000
vt 0.606742 0.000000
vt 0.837079 0.000000
vt 0.691011 0.000000
vt 0.859551 0.000000
vt 0.685393 0.000000
vt 0.679775 0.000000
vt 0.865169 0.000000
vt 0.674157 0.000000
vt 0.258427 0.000000
vt 0.252809 0.000000
vt 0.247191 0.000000
vt 0.241573 0.000000
vt 0.235955 0.000000
vt 0.224719 0.000000
vt 0.230337 0.000000
vt 0.769663 0.000000
vt 0.011236 0.000000
vt 0.219101 0.000000
vt 0.213483 0.000000
vt 0.207865 0.000000
vt 0.202247 0.000000
vt 0.196629 0.000000
vt 0.191011 0.000000
vt 0.185393 0.000000
vt 0.179775 0.000000
vt 0.174157 0.000000
vt 0.168539 0.000000
vt 0.162921 0.000000
vt 0.157303 0.000000
vt 0.151685 0.000000
vt 0.146067 0.000000
vt 0.140449 0.000000
vt 0.134831 0.000000
vt 0.129213 0.000000
vt 0.123596 0.000000
vt 0.117978 0.000000
vt 0.112360 0.000000
vt 0.106742 0.000000
vt 0.101124 0.000000
vt 0.095506 0.000000
vt 0.089888 0.000000
vt 0.084270 0.000000
vt 0.078652 0.000000
vt 0.073034 0.000000
vt 0.067416 0.000000
vt 0.061798 0.000000
vt 0.056180 0.000000
vt 0.050562 0.000000
vt 0.044944 0.000000
vt 0.039326 0.000000
vt 0.033708 0.000000
vt 0.028090 0.000000
vt 0.022472 0.000000
vt 0.016854 0.000000
vt 0.640449 0.000000
vt 0.646067 0.000000
vt 0.634831 0.000000
vt 0.629214 0.000000
vt 0.623595 0.000000
vt 0.612360 0.000000
vt 0.910112 0.000000
vt 0.595506 0.000000
vt 0.915730 0.000000
vt 0.589888 0.000000
vt 0.584270 0.000000
vt 0.578652 0.000000
vt 0.955056 0.000000
vt 0.550562 0.000000
vt 0.949438 0.000000
vt 0.960674 0.000000
vt 0.544944 0.000000
vt 0.966292 0.000000
vt 0.539326 0.000000
vt 0.971910 0.000000
vt 0.533708 0.000000
vt 0.528090 0.000000
vt 0.977528 0.000000
vt 0.522472 0.000000
vt 0.983146 0.000000
vt 0.516854 0.000000
vt 0.988764 0.000000
vt 0.511236 0.000000
vt 0.994382 0.000000
vt 0.505618 0.000000
vt 1.000000 0.000000
vt 0.938202 0.000000
vt 0.561798 0.000000
vt 0.943820 0.000000
vt 0.556180 0.000000
vt 0.573034 0.000000
vt 0.921348 0.000000
vt 0.842697 0.000000
vt 0.724719 0.000000
vt 0.747191 0.000000
vt 0.825843 0.000000
vt 0.713483 0.000000
vt 0.848315 0.000000
vt 0.707865 0.000000
vt 0.702247 0.000000
vt 0.853933 0.000000
vt 0.696629 0.000000
vt 0.719101 0.000000
vt 0.775281 0.000000
vt 0.808989 0.000000
vt 0.657303 0.000000
vt 0.662921 0.000000
vt 0.668539 0.000000
vt 0.803371 0.000000
vt 0.792135 0.000000
vt 0.797753 0.000000
vt 0.758427 0.000000
vt 0.730337 0.000000
vt 0.752809 0.000000
vt 0.780899 0.000000
vt 0.786517 0.000000
s 0
f 90/1/1 1/2/1 2/3/1
f 89/4/1 90/1/1 2/3/1
f 88/5/1 89/4/1 2/3/1
f 87/6/1 88/5/1 2/3/1
f 86/7/1 87/6/1 2/3/1
f 85/8/1 86/7/1 48/9/1
f 84/10/1 85/8/1 48/9/1
f 83/11/1 84/10/1 49/12/1
f 82/13/1 83/11/1 50/14/1
f 51/15/1 81/16/1 50/14/1
f 52/17/1 80/18/1 51/15/1
f 53/19/1 79/20/1 52/17/1
f 54/21/1 78/22/1 53/19/1
f 55/23/1 77/24/1 54/21/1
f 56/25/1 76/26/1 55/23/1
f 57/27/1 75/28/1 56/25/1
f 74/29/1 75/28/1 57/27/1
f 73/30/1 74/29/1 58/31/1
f 72/32/1 73/30/1 59/33/1
f 71/34/1 72/32/1 60/35/1
f 70/36/1 71/34/1 61/37/1
f 69/38/1 70/36/1 62/39/1
f 68/40/1 69/38/1 63/41/1
f 55/23/1 76/26/1 77/24/1
f 66/42/1 67/43/1 64/44/1
f 65/45/1 66/42/1 64/44/1
f 63/41/1 64/44/1 68/40/1
f 111/46/1 160/47/1 161/48/1
f 70/36/1 61/37/1 62/39/1
f 71/34/1 60/35/1 61/37/1
f 72/32/1 59/33/1 60/35/1
f 73/30/1 58/31/1 59/33/1
f 74/29/1 57/27/1 58/31/1
f 147/49/1 137/50/1 146/51/1
f 102/52/1 166/53/1 167/54/1
f 133/55/1 149/56/1 132/57/1
f 117/58/1 158/59/1 159/60/1
f 117/58/1 156/61/1 157/62/1
f 162/63/1 108/64/1 109/65/1
f 150/66/1 132/57/1 149/56/1
f 50/14/1 81/16/1 82/13/1
f 124/67/1 154/68/1 123/69/1
f 122/70/1 155/71/1 121/72/1
f 2/3/1 47/73/1 86/7/1
f 47/73/1 2/3/1 46/74/1
f 46/74/1 2/3/1 45/75/1
f 45/75/1 2/3/1 44/76/1
f 2/3/1 43/77/1 44/76/1
f 2/3/1 41/78/1 42/79/1
f 138/80/1 146/51/1 137/50/1
f 3/81/1 41/78/1 2/3/1
f 40/82/1 41/78/1 39/83/1
f 39/83/1 41/78/1 38/84/1
f 38/84/1 41/78/1 37/85/1
f 37/85/1 41/78/1 36/86/1
f 36/86/1 41/78/1 35/87/1
f 35/87/1 41/78/1 34/88/1
f 34/88/1 41/78/1 33/89/1
f 33/89/1 41/78/1 32/90/1
f 32/90/1 41/78/1 31/91/1
f 31/91/1 41/78/1 30/92/1
f 30/92/1 41/78/1 29/93/1
f 29/93/1 41/78/1 28/94/1
f 28/94/1 41/78/1 27/95/1
f 27/95/1 41/78/1 26/96/1
f 26/96/1 41/78/1 25/97/1
f 25/97/1 41/78/1 24/98/1
f 24/98/1 41/78/1 23/99/1
f 23/99/1 41/78/1 22/100/1
f 22/100/1 41/78/1 21/101/1
f 21/101/1 41/78/1 20/102/1
f 20/102/1 41/78/1 19/103/1
f 19/103/1 41/78/1 18/104/1
f 18/104/1 41/78/1 17/105/1
f 17/105/1 41/78/1 16/106/1
f 16/106/1 41/78/1 15/107/1
f 15/107/1 41/78/1 14/108/1
f 14/108/1 41/78/1 13/109/1
f 13/109/1 41/78/1 12/110/1
f 12/110/1 41/78/1 11/111/1
f 11/111/1 41/78/1 10/112/1
f 10/112/1 41/78/1 9/113/1
f 9/113/1 41/78/1 8/114/1
f 8/114/1 41/78/1 7/115/1
f 7/115/1 41/78/1 6/116/1
f 6/116/1 41/78/1 5/117/1
f 5/117/1 41/78/1 4/118/1
f 4/118/1 41/78/1 3/81/1
f 115/119/1 116/120/1 117/58/1
f 114/121/1 115/119/1 117/58/1
f 113/122/1 114/121/1 117/58/1
f 112/123/1 113/122/1 117/58/1
f 111/46/1 112/123/1 160/47/1
f 110/124/1 111/46/1 161/48/1
f 162/63/1 109/65/1 161/48/1
f 163/125/1 108/64/1 162/63/1
f 107/126/1 108/64/1 163/125/1
f 164/127/1 106/128/1 163/125/1
f 105/129/1 106/128/1 164/127/1
f 104/130/1 105/129/1 164/127/1
f 163/125/1 106/128/1 107/126/1
f 52/17/1 79/20/1 80/18/1
f 51/15/1 80/18/1 81/16/1
f 161/48/1 109/65/1 110/124/1
f 171/131/1 99/132/1 170/133/1
f 172/134/1 98/135/1 171/131/1
f 173/136/1 97/137/1 172/134/1
f 174/138/1 96/139/1 173/136/1
f 95/140/1 96/139/1 175/141/1
f 94/142/1 95/140/1 176/143/1
f 93/144/1 94/142/1 177/145/1
f 92/146/1 93/144/1 178/147/1
f 91/148/1 92/146/1 179/149/1
f 92/146/1 178/147/1 179/149/1
f 93/144/1 177/145/1 178/147/1
f 94/142/1 176/143/1 177/145/1
f 95/140/1 175/141/1 176/143/1
f 96/139/1 174/138/1 175/141/1
f 54/21/1 77/24/1 78/22/1
f 168/150/1 101/151/1 167/54/1
f 169/152/1 100/153/1 168/150/1
f 171/131/1 98/135/1 99/132/1
f 172/134/1 97/137/1 98/135/1
f 167/54/1 101/151/1 102/52/1
f 56/25/1 75/28/1 76/26/1
f 103/154/1 165/155/1 166/53/1
f 151/156/1 130/157/1 150/66/1
f 149/56/1 134/158/1 148/159/1
f 128/160/1 152/161/1 127/162/1
f 126/163/1 153/164/1 125/165/1
f 84/10/1 48/9/1 49/12/1
f 170/133/1 99/132/1 169/152/1
f 117/58/1 159/60/1 160/47/1
f 129/166/1 151/156/1 128/160/1
f 164/127/1 165/155/1 104/130/1
f 146/51/1 139/167/1 145/168/1
f 118/169/1 156/61/1 117/58/1
f 155/71/1 156/61/1 118/169/1
f 155/71/1 118/169/1 119/170/1
f 155/71/1 119/170/1 120/171/1
f 155/71/1 120/171/1 121/72/1
f 154/68/1 155/71/1 122/70/1
f 144/172/1 142/173/1 143/174/1
f 154/68/1 122/70/1 123/69/1
f 153/164/1 154/68/1 124/67/1
f 173/136/1 96/139/1 97/137/1
f 153/164/1 124/67/1 125/165/1
f 152/161/1 153/164/1 126/163/1
f 83/11/1 49/12/1 50/14/1
f 152/161/1 126/163/1 127/162/1
f 151/156/1 152/161/1 128/160/1
f 148/159/1 136/175/1 147/49/1
f 104/130/1 165/155/1 103/154/1
f 86/7/1 47/73/1 48/9/1
f 129/166/1 130/157/1 151/156/1
f 103/154/1 166/53/1 102/52/1
f 117/58/1 157/62/1 158/59/1
f 131/176/1 132/57/1 150/66/1
f 169/152/1 99/132/1 100/153/1
f 53/19/1 78/22/1 79/20/1
f 131/176/1 150/66/1 130/157/1
f 69/38/1 62/39/1 63/41/1
f 134/158/1 135/177/1 148/159/1
f 160/47/1 112/123/1 117/58/1
f 133/55/1 134/158/1 149/56/1
f 136/175/1 137/50/1 147/49/1
f 168/150/1 100/153/1 101/151/1
f 140/178/1 145/168/1 139/167/1
f 138/80/1 139/167/1 146/51/1
f 144/172/1 145/168/1 140/178/1
f 135/177/1 136/175/1 148/159/1
f 68/40/1 64/44/1 67/43/1
f 2/3/1 42/79/1 43/77/1
f 141/179/1 142/173/1 144/172/1
f 141/179/1 144/172/1 140/178/1
f 269/1/2 181/3/2 180/2/2
f 268/4/2 181/3/2 269/1/2
f 267/5/2 181/3/2 268/4/2
f 266/6/2 181/3/2 267/5/2
f 265/7/2 181/3/2 266/6/2
f 264/8/2 227/9/2 265/7/2
f 263/10/2 227/9/2 264/8/2
f 262/11/2 228/12/2 263/10/2
f 261/13/2 229/14/2 262/11/2
f 230/15/2 229/14/2 260/16/2
f 231/17/2 230/15/2 259/18/2
f 232/19/2 231/17/2 258/20/2
f 233/21/2 232/19/2 257/22/2
f 234/23/2 233/21/2 256/24/2
f 235/25/2 234/23/2 255/26/2
f 236/27/2 235/25/2 254/28/2
f 253/29/2 236/27/2 254/28/2
f 252/30/2 237/31/2 253/29/2
f 251/32/2 238/33/2 252/30/2
f 250/34/2 239/35/2 251/32/2
f 249/36/2 240/37/2 250/34/2
f 248/38/2 241/39/2 249/36/2
f 247/40/2 242/41/2 248/38/2
f 234/23/2 256/24/2 255/26/2
f 245/42/2 243/44/2 246/43/2
f 244/45/2 243/44/2 245/42/2
f 242/41/2 247/40/2 243/44/2
f 290/46/2 340/48/2 339/47/2
f 249/36/2 241/39/2 240/37/2
f 250/34/2 240/37/2 239/35/2
f 251/32/2 239/35/2 238/33/2
f 252/30/2 238/33/2 237/31/2
f 253/29/2 237/31/2 236/27/2
f 326/49/2 325/51/2 316/50/2
f 281/52/2 346/54/2 345/53/2
f 312/55/2 311/57/2 328/56/2
f 296/58/2 338/60/2 337/59/2
f 296/58/2 336/62/2 335/61/2
f 341/63/2 288/65/2 287/64/2
f 329/66/2 328/56/2 311/57/2
f 229/14/2 261/13/2 260/16/2
f 303/67/2 302/69/2 333/68/2
f 301/70/2 300/72/2 334/71/2
f 181/3/2 265/7/2 226/73/2
f 226/73/2 225/74/2 181/3/2
f 225/74/2 224/75/2 181/3/2
f 224/75/2 223/76/2 181/3/2
f 181/3/2 223/76/2 222/77/2
f 181/3/2 221/79/2 220/78/2
f 317/80/2 316/50/2 325/51/2
f 182/81/2 181/3/2 220/78/2
f 219/82/2 218/83/2 220/78/2
f 218/83/2 217/84/2 220/78/2
f 217/84/2 216/85/2 220/78/2
f 216/85/2 215/86/2 220/78/2
f 215/86/2 214/87/2 220/78/2
f 214/87/2 213/88/2 220/78/2
f 213/88/2 212/89/2 220/78/2
f 212/89/2 211/90/2 220/78/2
f 211/90/2 210/91/2 220/78/2
f 210/91/2 209/92/2 220/78/2
f 209/92/2 208/93/2 220/78/2
f 208/93/2 207/94/2 220/78/2
f 207/94/2 206/95/2 220/78/2
f 206/95/2 205/96/2 220/78/2
f 205/96/2 204/97/2 220/78/2
f 204/97/2 203/98/2 220/78/2
f 203/98/2 202/99/2 220/78/2
f 202/99/2 201/100/2 220/78/2
f 201/100/2 200/101/2 220/78/2
f 200/101/2 199/102/2 220/78/2
f 199/102/2 198/103/2 220/78/2
f 198/103/2 197/104/2 220/78/2
f 197/104/2 196/105/2 220/78/2
f 196/105/2 195/106/2 220/78/2
f 195/106/2 194/107/2 220/78/2
f 194/107/2 193/108/2 220/78/2
f 193/108/2 192/109/2 220/78/2
f 192/109/2 191/110/2 220/78/2
f 191/110/2 190/111/2 220/78/2
f 190/111/2 189/112/2 220/78/2
f 189/112/2 188/113/2 220/78/2
f 188/113/2 187/114/2 220/78/2
f 187/114/2 186/115/2 220/78/2
f 186/115/2 185/116/2 220/78/2
f 185/116/2 184/117/2 220/78/2
f 184/117/2 183/118/2 220/78/2
f 183/118/2 182/81/2 220/78/2
f 294/119/2 296/58/2 295/120/2
f 293/121/2 296/58/2 294/119/2
f 292/122/2 296/58/2 293/121/2
f 291/123/2 296/58/2 292/122/2
f 290/46/2 339/47/2 291/123/2
f 289/124/2 340/48/2 290/46/2
f 341/63/2 340/48/2 288/65/2
f 342/125/2 341/63/2 287/64/2
f 286/126/2 342/125/2 287/64/2
f 343/127/2 342/125/2 285/128/2
f 284/129/2 343/127/2 285/128/2
f 283/130/2 343/127/2 284/129/2
f 342/125/2 286/126/2 285/128/2
f 231/17/2 259/18/2 258/20/2
f 230/15/2 260/16/2 259/18/2
f 340/48/2 289/124/2 288/65/2
f 350/131/2 349/133/2 278/132/2
f 351/134/2 350/131/2 277/135/2
f 352/136/2 351/134/2 276/137/2
f 353/138/2 352/136/2 275/139/2
f 274/140/2 354/141/2 275/139/2
f 273/142/2 355/143/2 274/140/2
f 272/144/2 356/145/2 273/142/2
f 271/146/2 357/147/2 272/144/2
f 270/148/2 358/149/2 271/146/2
f 271/146/2 358/149/2 357/147/2
f 272/144/2 357/147/2 356/145/2
f 273/142/2 356/145/2 355/143/2
f 274/140/2 355/143/2 354/141/2
f 275/139/2 354/141/2 353/138/2
f 233/21/2 257/22/2 256/24/2
f 347/150/2 346/54/2 280/151/2
f 348/152/2 347/150/2 279/153/2
f 350/131/2 278/132/2 277/135/2
f 351/134/2 277/135/2 276/137/2
f 346/54/2 281/52/2 280/151/2
f 235/25/2 255/26/2 254/28/2
f 282/154/2 345/53/2 344/155/2
f 330/156/2 329/66/2 309/157/2
f 328/56/2 327/159/2 313/158/2
f 307/160/2 306/162/2 331/161/2
f 305/163/2 304/165/2 332/164/2
f 263/10/2 228/12/2 227/9/2
f 349/133/2 348/152/2 278/132/2
f 296/58/2 339/47/2 338/60/2
f 308/166/2 307/160/2 330/156/2
f 343/127/2 283/130/2 344/155/2
f 325/51/2 324/168/2 318/167/2
f 297/169/2 296/58/2 335/61/2
f 334/71/2 297/169/2 335/61/2
f 334/71/2 298/170/2 297/169/2
f 334/71/2 299/171/2 298/170/2
f 334/71/2 300/72/2 299/171/2
f 333/68/2 301/70/2 334/71/2
f 323/172/2 322/174/2 321/173/2
f 333/68/2 302/69/2 301/70/2
f 332/164/2 303/67/2 333/68/2
f 352/136/2 276/137/2 275/139/2
f 332/164/2 304/165/2 303/67/2
f 331/161/2 305/163/2 332/164/2
f 262/11/2 229/14/2 228/12/2
f 331/161/2 306/162/2 305/163/2
f 330/156/2 307/160/2 331/161/2
f 327/159/2 326/49/2 315/175/2
f 283/130/2 282/154/2 344/155/2
f 265/7/2 227/9/2 226/73/2
f 308/166/2 330/156/2 309/157/2
f 282/154/2 281/52/2 345/53/2
f 296/58/2 337/59/2 336/62/2
f 310/176/2 329/66/2 311/57/2
f 348/152/2 279/153/2 278/132/2
f 232/19/2 258/20/2 257/22/2
f 310/176/2 309/157/2 329/66/2
f 248/38/2 242/41/2 241/39/2
f 313/158/2 327/159/2 314/177/2
f 339/47/2 296/58/2 291/123/2
f 312/55/2 328/56/2 313/158/2
f 315/175/2 326/49/2 316/50/2
f 347/150/2 280/151/2 279/153/2
f 319/178/2 318/167/2 324/168/2
f 317/80/2 325/51/2 318/167/2
f 323/172/2 319/178/2 324/168/2
f 314/177/2 327/159/2 315/175/2
f 247/40/2 246/43/2 243/44/2
f 181/3/2 222/77/2 221/79/2
f 320/179/2 323/172/2 321/173/2
f 320/179/2 319/178/2 323/172/2
f 51/15/3 231/17/3 52/17/3
f 113/122/4 293/121/4 114/121/4
f 154/68/5 334/71/5 155/71/5
f 76/26/6 256/24/6 77/24/6
f 25/97/7 205/96/7 26/96/7
f 175/141/8 355/143/8 176/143/8
f 137/50/9 317/80/9 138/80/9
f 50/14/10 230/15/10 51/15/10
f 112/123/11 292/122/11 113/122/11
f 121/72/12 301/70/12 122/70/12
f 75/28/13 255/26/13 76/26/13
f 24/98/14 204/97/14 25/97/14
f 174/138/15 354/141/15 175/141/15
f 138/80/16 318/167/16 139/167/16
f 49/12/17 229/14/17 50/14/17
f 111/46/18 291/123/18 112/123/18
f 144/172/19 324/168/19 145/168/19
f 110/124/20 290/46/20 111/46/20
f 122/70/21 302/69/21 123/69/21
f 74/29/22 254/28/22 75/28/22
f 23/99/23 203/98/23 24/98/23
f 173/136/24 353/138/24 174/138/24
f 48/9/25 228/12/25 49/12/25
f 153/164/26 333/68/26 154/68/26
f 109/65/27 289/124/27 110/124/27
f 73/30/28 253/29/28 74/29/28
f 22/100/29 202/99/29 23/99/29
f 172/134/30 352/136/30 173/136/30
f 139/167/31 319/178/31 140/178/31
f 47/73/32 227/9/32 48/9/32
f 143/174/33 323/172/33 144/172/33
f 108/64/34 288/65/34 109/65/34
f 123/69/35 303/67/35 124/67/35
f 72/32/36 252/30/36 73/30/36
f 21/101/37 201/100/37 22/100/37
f 171/131/38 351/134/38 172/134/38
f 46/74/39 226/73/39 47/73/39
f 107/126/40 287/64/40 108/64/40
f 124/67/41 304/165/41 125/165/41
f 71/34/42 251/32/42 72/32/42
f 20/102/43 200/101/43 21/101/43
f 170/133/44 350/131/44 171/131/44
f 140/178/45 320/179/45 141/179/45
f 46/74/46 224/75/46 225/74/46
f 152/161/47 332/164/47 153/164/47
f 142/173/48 322/174/48 143/174/48
f 106/128/49 286/126/49 107/126/49
f 70/36/50 250/34/50 71/34/50
f 19/103/51 199/102/51 20/102/51
f 169/152/52 349/133/52 170/133/52
f 141/179/53 321/173/53 142/173/53
f 2/3/54 182/81/54 3/81/54
f 105/129/55 285/128/55 106/128/55
f 125/165/56 305/163/56 126/163/56
f 69/38/57 249/36/57 70/36/57
f 18/104/58 198/103/58 19/103/58
f 168/150/59 348/152/59 169/152/59
f 44/76/60 224/75/60 45/75/60
f 104/130/61 284/129/61 105/129/61
f 126/163/62 306/162/62 127/162/62
f 68/40/63 248/38/63 69/38/63
f 17/105/64 197/104/64 18/104/64
f 167/54/65 347/150/65 168/150/65
f 43/77/66 223/76/66 44/76/66
f 151/156/67 331/161/67 152/161/67
f 103/154/68 283/130/68 104/130/68
f 67/43/69 247/40/69 68/40/69
f 16/106/70 196/105/70 17/105/70
f 166/53/71 346/54/71 167/54/71
f 42/79/72 222/77/72 43/77/72
f 102/52/73 282/154/73 103/154/73
f 127/162/74 307/160/74 128/160/74
f 66/42/75 246/43/75 67/43/75
f 15/107/76 195/106/76 16/106/76
f 165/155/77 345/53/77 166/53/77
f 41/78/78 221/79/78 42/79/78
f 150/66/79 330/156/79 151/156/79
f 101/151/80 281/52/80 102/52/80
f 65/45/81 245/42/81 66/42/81
f 14/108/82 194/107/82 15/107/82
f 164/127/83 344/155/83 165/155/83
f 90/1/84 180/2/84 1/2/84
f 40/82/85 220/78/85 41/78/85
f 64/44/86 244/45/86 65/45/86
f 39/83/87 219/82/87 40/82/87
f 100/153/88 280/151/88 101/151/88
f 128/160/89 308/166/89 129/166/89
f 13/109/90 193/108/90 14/108/90
f 163/125/91 343/127/91 164/127/91
f 1/2/92 181/3/92 2/3/92
f 89/4/93 269/1/93 90/1/93
f 38/84/94 218/83/94 39/83/94
f 99/132/95 279/153/95 100/153/95
f 129/166/96 309/157/96 130/157/96
f 63/41/97 243/44/97 64/44/97
f 12/110/98 192/109/98 13/109/98
f 162/63/99 342/125/99 163/125/99
f 149/56/100 329/66/100 150/66/100
f 88/5/101 268/4/101 89/4/101
f 37/85/102 217/84/102 38/84/102
f 98/135/103 278/132/103 99/132/103
f 62/39/104 242/41/104 63/41/104
f 11/111/105 191/110/105 12/110/105
f 161/48/106 341/63/106 162/63/106
f 87/6/107 267/5/107 88/5/107
f 36/86/108 216/85/108 37/85/108
f 97/137/109 277/135/109 98/135/109
f 130/157/110 310/176/110 131/176/110
f 61/37/111 241/39/111 62/39/111
f 10/112/112 190/111/112 11/111/112
f 117/58/113 297/169/113 118/169/113
f 87/6/114 265/7/114 266/6/114
f 35/87/115 215/86/115 36/86/115
f 96/139/116 276/137/116 97/137/116
f 131/176/117 311/57/117 132/57/117
f 60/35/118 240/37/118 61/37/118
f 9/113/119 189/112/119 10/112/119
f 160/47/120 340/48/120 161/48/120
f 148/159/121 328/56/121 149/56/121
f 85/8/122 265/7/122 86/7/122
f 34/88/123 214/87/123 35/87/123
f 95/140/124 275/139/124 96/139/124
f 59/33/125 239/35/125 60/35/125
f 8/114/126 188/113/126 9/113/126
f 159/60/127 339/47/127 160/47/127
f 84/10/128 264/8/128 85/8/128
f 33/89/129 213/88/129 34/88/129
f 94/142/130 274/140/130 95/140/130
f 132/57/131 312/55/131 133/55/131
f 58/31/132 238/33/132 59/33/132
f 7/115/133 187/114/133 8/114/133
f 158/59/134 338/60/134 159/60/134
f 147/49/135 327/159/135 148/159/135
f 83/11/136 263/10/136 84/10/136
f 32/90/137 212/89/137 33/89/137
f 93/144/138 273/142/138 94/142/138
f 57/27/139 237/31/139 58/31/139
f 6/116/140 186/115/140 7/115/140
f 157/62/141 337/59/141 158/59/141
f 82/13/142 262/11/142 83/11/142
f 31/91/143 211/90/143 32/90/143
f 92/146/144 272/144/144 93/144/144
f 133/55/145 313/158/145 134/158/145
f 56/25/146 236/27/146 57/27/146
f 5/117/147 185/116/147 6/116/147
f 156/61/148 336/62/148 157/62/148
f 81/16/149 261/13/149 82/13/149
f 30/92/150 210/91/150 31/91/150
f 91/148/151 271/146/151 92/146/151
f 134/158/152 314/177/152 135/177/152
f 55/23/153 235/25/153 56/25/153
f 4/118/154 184/117/154 5/117/154
f 155/71/81 335/61/81 156/61/81
f 146/51/155 326/49/155 147/49/155
f 80/18/156 260/16/156 81/16/156
f 29/93/157 209/92/157 30/92/157
f 179/149/158 270/148/158 91/148/158
f 54/21/159 234/23/159 55/23/159
f 3/81/160 183/118/160 4/118/160
f 115/119/161 295/120/161 116/120/161
f 118/169/162 298/170/162 119/170/162
f 79/20/163 259/18/163 80/18/163
f 28/94/164 208/93/164 29/93/164
f 178/147/165 358/149/165 179/149/165
f 135/177/166 315/175/166 136/175/166
f 53/19/167 233/21/167 54/21/167
f 116/120/168 296/58/168 117/58/168
f 119/170/169 299/171/169 120/171/169
f 78/22/170 258/20/170 79/20/170
f 27/95/171 207/94/171 28/94/171
f 177/145/172 357/147/172 178/147/172
f 136/175/173 316/50/173 137/50/173
f 52/17/174 232/19/174 53/19/174
f 114/121/175 294/119/175 115/119/175
f 145/168/176 325/51/176 146/51/176
f 120/171/177 300/72/177 121/72/177
f 77/24/178 257/22/178 78/22/178
f 26/96/179 206/95/179 27/95/179
f 176/143/180 356/145/180 177/145/180
f 51/15/181 230/15/181 231/17/181
f 113/122/4 292/122/4 293/121/4
f 154/68/5 333/68/5 334/71/5
f 76/26/6 255/26/6 256/24/6
f 25/97/7 204/97/7 205/96/7
f 175/141/8 354/141/8 355/143/8
f 137/50/9 316/50/9 317/80/9
f 50/14/10 229/14/10 230/15/10
f 112/123/182 291/123/182 292/122/182
f 121/72/12 300/72/12 301/70/12
f 75/28/13 254/28/13 255/26/13
f 24/98/14 203/98/14 204/97/14
f 174/138/15 353/138/15 354/141/15
f 138/80/16 317/80/16 318/167/16
f 49/12/17 228/12/17 229/14/17
f 111/46/18 290/46/18 291/123/18
f 144/172/19 323/172/19 324/168/19
f 110/124/20 289/124/20 290/46/20
f 122/70/21 301/70/21 302/69/21
f 74/29/22 253/29/22 254/28/22
f 23/99/23 202/99/23 203/98/23
f 173/136/183 352/136/183 353/138/183
f 48/9/25 227/9/25 228/12/25
f 153/164/26 332/164/26 333/68/26
f 109/65/27 288/65/27 289/124/27
f 73/30/28 252/30/28 253/29/28
f 22/100/29 201/100/29 202/99/29
f 172/134/30 351/134/30 352/136/30
f 139/167/31 318/167/31 319/178/31
f 47/73/32 226/73/32 227/9/32
f 143/174/33 322/174/33 323/172/33
f 108/64/34 287/64/34 288/65/34
f 123/69/35 302/69/35 303/67/35
f 72/32/184 251/32/184 252/30/184
f 21/101/37 200/101/37 201/100/37
f 171/131/38 350/131/38 351/134/38
f 46/74/39 225/74/39 226/73/39
f 107/126/40 286/126/40 287/64/40
f 124/67/41 303/67/41 304/165/41
f 71/34/42 250/34/42 251/32/42
f 20/102/43 199/102/43 200/101/43
f 170/133/44 349/133/44 350/131/44
f 140/178/45 319/178/45 320/179/45
f 46/74/46 45/75/46 224/75/46
f 152/161/47 331/161/47 332/164/47
f 142/173/48 321/173/48 322/174/48
f 106/128/49 285/128/49 286/126/49
f 70/36/50 249/36/50 250/34/50
f 19/103/51 198/103/51 199/102/51
f 169/152/52 348/152/52 349/133/52
f 141/179/53 320/179/53 321/173/53
f 2/3/54 181/3/54 182/81/54
f 105/129/55 284/129/55 285/128/55
f 125/165/56 304/165/56 305/163/56
f 69/38/185 248/38/185 249/36/185
f 18/104/58 197/104/58 198/103/58
f 168/150/186 347/150/186 348/152/186
f 44/76/60 223/76/60 224/75/60
f 104/130/61 283/130/61 284/129/61
f 126/163/62 305/163/62 306/162/62
f 68/40/63 247/40/63 248/38/63
f 17/105/64 196/105/64 197/104/64
f 167/54/65 346/54/65 347/150/65
f 43/77/66 222/77/66 223/76/66
f 151/156/67 330/156/67 331/161/67
f 103/154/68 282/154/68 283/130/68
f 67/43/69 246/43/69 247/40/69
f 16/106/187 195/106/187 196/105/187
f 166/53/71 345/53/71 346/54/71
f 42/79/72 221/79/72 222/77/72
f 102/52/73 281/52/73 282/154/73
f 127/162/74 306/162/74 307/160/74
f 66/42/75 245/42/75 246/43/75
f 15/107/76 194/107/76 195/106/76
f 165/155/77 344/155/77 345/53/77
f 41/78/78 220/78/78 221/79/78
f 150/66/79 329/66/79 330/156/79
f 101/151/80 280/151/80 281/52/80
f 65/45/81 244/45/81 245/42/81
f 14/108/82 193/108/82 194/107/82
f 164/127/83 343/127/83 344/155/83
f 90/1/84 269/1/84 180/2/84
f 40/82/85 219/82/85 220/78/85
f 64/44/188 243/44/188 244/45/188
f 39/83/87 218/83/87 219/82/87
f 100/153/88 279/153/88 280/151/88
f 128/160/89 307/160/89 308/166/89
f 13/109/90 192/109/90 193/108/90
f 163/125/91 342/125/91 343/127/91
f 1/2/92 180/2/92 181/3/92
f 89/4/189 268/4/189 269/1/189
f 38/84/94 217/84/94 218/83/94
f 99/132/95 278/132/95 279/153/95
f 129/166/96 308/166/96 309/157/96
f 63/41/97 242/41/97 243/44/97
f 12/110/98 191/110/98 192/109/98
f 162/63/99 341/63/99 342/125/99
f 149/56/100 328/56/100 329/66/100
f 88/5/101 267/5/101 268/4/101
f 37/85/102 216/85/102 217/84/102
f 98/135/190 277/135/190 278/132/190
f 62/39/104 241/39/104 242/41/104
f 11/111/105 190/111/105 191/110/105
f 161/48/106 340/48/106 341/63/106
f 87/6/107 266/6/107 267/5/107
f 36/86/108 215/86/108 216/85/108
f 97/137/109 276/137/109 277/135/109
f 130/157/110 309/157/110 310/176/110
f 61/37/111 240/37/111 241/39/111
f 10/112/112 189/112/112 190/111/112
f 117/58/113 296/58/113 297/169/113
f 87/6/114 86/7/114 265/7/114
f 35/87/115 214/87/115 215/86/115
f 96/139/116 275/139/116 276/137/116
f 131/176/117 310/176/117 311/57/117
f 60/35/118 239/35/118 240/37/118
f 9/113/119 188/113/119 189/112/119
f 160/47/120 339/47/120 340/48/120
f 148/159/121 327/159/121 328/56/121
f 85/8/122 264/8/122 265/7/122
f 34/88/123 213/88/123 214/87/123
f 95/140/124 274/140/124 275/139/124
f 59/33/191 238/33/191 239/35/191
f 8/114/126 187/114/126 188/113/126
f 159/60/192 338/60/192 339/47/192
f 84/10/128 263/10/128 264/8/128
f 33/89/129 212/89/129 213/88/129
f 94/142/193 273/142/193 274/140/193
f 132/57/131 311/57/131 312/55/131
f 58/31/132 237/31/132 238/33/132
f 7/115/133 186/115/133 187/114/133
f 158/59/134 337/59/134 338/60/134
f 147/49/135 326/49/135 327/159/135
f 83/11/136 262/11/136 263/10/136
f 32/90/137 211/90/137 212/89/137
f 93/144/138 272/144/138 273/142/138
f 57/27/139 236/27/139 237/31/139
f 6/116/140 185/116/140 186/115/140
f 157/62/141 336/62/141 337/59/141
f 82/13/142 261/13/142 262/11/142
f 31/91/143 210/91/143 211/90/143
f 92/146/144 271/146/144 272/144/144
f 133/55/145 312/55/145 313/158/145
f 56/25/146 235/25/146 236/27/146
f 5/117/147 184/117/147 185/116/147
f 156/61/148 335/61/148 336/62/148
f 81/16/149 260/16/149 261/13/149
f 30/92/194 209/92/194 210/91/194
f 91/148/151 270/148/151 271/146/151
f 134/158/152 313/158/152 314/177/152
f 55/23/153 234/23/153 235/25/153
f 4/118/195 183/118/195 184/117/195
f 155/71/81 334/71/81 335/61/81
f 146/51/155 325/51/155 326/49/155
f 80/18/156 259/18/156 260/16/156
f 29/93/157 208/93/157 209/92/157
f 179/149/158 358/149/158 270/148/158
f 54/21/159 233/21/159 234/23/159
f 3/81/160 182/81/160 183/118/160
f 115/119/161 294/119/161 295/120/161
f 118/169/162 297/169/162 298/170/162
f 79/20/163 258/20/163 259/18/163
f 28/94/196 207/94/196 208/93/196
f 178/147/165 357/147/165 358/149/165
f 135/177/166 314/177/166 315/175/166
f 53/19/167 232/19/167 233/21/167
f 116/120/168 295/120/168 296/58/168
f 119/170/169 298/170/169 299/171/169
f 78/22/170 257/22/170 258/20/170
f 27/95/171 206/95/171 207/94/171
f 177/145/172 356/145/172 357/147/172
f 136/175/173 315/175/173 316/50/173
f 52/17/174 231/17/174 232/19/174
f 114/121/175 293/121/175 294/119/175
f 145/168/176 324/168/176 325/51/176
f 120/171/177 299/171/177 300/72/177
f 77/24/178 256/24/178 257/22/178
f 26/96/179 205/96/179 206/95/179
f 176/143/180 355/143/180 356/145/180
