# Blender 5.0.1
# www.blender.org
mtllib TD_Enemy.mtl
o 球
v 0.000000 1.000000 0.000000
v 0.000000 0.831470 -0.555570
v 0.000000 0.555570 -0.831470
v 0.000000 0.195090 -0.980785
v 0.000000 0.000000 -1.172544
v 0.000000 -0.195090 -0.980785
v 0.000000 -0.555570 -0.831470
v 0.000000 -1.000000 0.000000
v 0.038060 0.980785 -0.191342
v 0.074658 0.923880 -0.375330
v 0.108386 0.831470 -0.544895
v 0.137950 0.707107 -0.693520
v 0.162212 0.555570 -0.815493
v 0.180240 0.382683 -0.906127
v 0.191342 0.195090 -0.961940
v 0.195090 0.000000 -0.980785
v 0.191342 -0.195090 -0.961940
v 0.180240 -0.382683 -0.906127
v 0.162212 -0.555570 -0.815493
v 0.137950 -0.707107 -0.693520
v 0.108386 -0.831470 -0.544895
v 0.074658 -0.923880 -0.375330
v 0.038060 -0.980785 -0.191342
v 0.074658 0.980785 -0.180240
v 0.146447 0.923880 -0.353553
v 0.212608 0.831470 -0.513280
v 0.270598 0.707107 -0.653281
v 0.318190 0.555570 -0.768178
v 0.353553 0.382683 -0.853553
v 0.375330 0.195090 -0.906127
v 0.382683 0.000000 -0.923879
v 0.375330 -0.195090 -0.906127
v 0.421149 -0.404334 -0.987987
v 0.318190 -0.555570 -0.768178
v 0.270598 -0.707107 -0.653281
v 0.212608 -0.831470 -0.513280
v 0.146447 -0.923880 -0.353553
v 0.074658 -0.980785 -0.180240
v 0.108386 0.980785 -0.162212
v 0.212608 0.923880 -0.318190
v 0.308658 0.831470 -0.461940
v 0.392847 0.707107 -0.587938
v 0.461940 0.555570 -0.691342
v 0.513280 0.382683 -0.768178
v 0.544895 0.195090 -0.815493
v 0.555570 0.000000 -0.831469
v 0.544895 -0.195090 -0.815493
v 0.513280 -0.382683 -0.768178
v 0.461940 -0.555570 -0.691342
v 0.392847 -0.707107 -0.587938
v 0.308658 -0.831470 -0.461940
v 0.212608 -0.923880 -0.318190
v 0.108386 -0.980785 -0.162212
v 0.137950 0.980785 -0.137950
v 0.270598 0.923880 -0.270598
v 0.392847 1.042409 -0.392847
v 0.500000 0.707107 -0.500000
v 0.587938 0.555570 -0.587938
v 0.833621 0.407439 -0.856279
v 0.693520 0.195090 -0.693520
v 0.707107 0.000000 -0.707107
v 0.693520 -0.195090 -0.693520
v 0.653281 -0.382683 -0.653281
v 0.587938 -0.555570 -0.587938
v 0.500000 -0.707107 -0.500000
v 0.392847 -0.831470 -0.392847
v 0.270598 -0.923880 -0.270598
v 0.137950 -0.980785 -0.137950
v 0.162212 0.980785 -0.108386
v 0.318190 0.923880 -0.212608
v 0.461940 0.831470 -0.308658
v 0.587938 0.707107 -0.392847
v 0.691342 0.555570 -0.461940
v 0.768178 0.382683 -0.513280
v 0.815493 0.195090 -0.544895
v 0.831470 0.000000 -0.555570
v 0.815493 -0.195090 -0.544895
v 0.768178 -0.382683 -0.513280
v 0.691342 -0.555570 -0.461940
v 0.587938 -0.707107 -0.392847
v 0.461940 -0.831470 -0.308658
v 0.318190 -0.923880 -0.212608
v 0.162212 -0.980785 -0.108386
v 0.180240 0.980785 -0.074658
v 0.353553 0.923880 -0.146447
v 0.513280 0.831470 -0.212607
v 0.653281 0.707107 -0.270598
v 0.768178 0.555570 -0.318190
v 0.853553 0.382683 -0.353553
v 0.906127 0.195090 -0.375330
v 0.923879 0.000000 -0.382683
v 0.980572 -0.195090 -0.419467
v 0.853553 -0.382683 -0.353553
v 0.768178 -0.555570 -0.318190
v 0.745711 -0.707107 -0.270598
v 0.513280 -0.831470 -0.212607
v 0.353553 -0.923880 -0.146447
v 0.180240 -0.980785 -0.074658
v 0.191342 0.980785 -0.038060
v 0.375330 0.923880 -0.074658
v 0.544895 0.831470 -0.108386
v 0.693520 0.707107 -0.137950
v 0.815493 0.555570 -0.162212
v 0.906127 0.382683 -0.180240
v 0.961940 0.195090 -0.191342
v 0.980785 0.000000 -0.195090
v 0.961940 -0.195090 -0.191342
v 0.906127 -0.382683 -0.180240
v 0.815493 -0.555570 -0.162212
v 0.693520 -0.707107 -0.137950
v 0.544895 -0.831470 -0.108386
v 0.375330 -0.923880 -0.074658
v 0.191342 -0.980785 -0.038060
v 0.195090 0.980785 0.000000
v 0.382683 0.923880 0.000000
v 0.555570 0.831470 0.000000
v 0.707107 0.707107 -0.000000
v 1.055429 0.555570 0.000000
v 0.923879 0.382683 -0.000000
v 0.980785 0.195090 0.000000
v 1.000000 0.000000 0.000000
v 0.980785 -0.195090 0.000000
v 0.923879 -0.382683 -0.000000
v 0.831469 -0.555570 0.000000
v 0.707107 -0.707107 -0.000000
v 0.555570 -0.831470 0.000000
v 0.382683 -0.923880 0.000000
v 0.195090 -0.980785 0.000000
v 0.191342 0.980785 0.038060
v 0.375330 0.923880 0.074658
v 0.544895 0.831470 0.108386
v 0.693520 0.707107 0.137950
v 0.815493 0.555570 0.162212
v 0.906127 0.382683 0.180240
v 0.961940 0.195090 0.191342
v 0.980785 0.000000 0.195090
v 0.961940 -0.195090 0.191342
v 1.089757 -0.382683 0.180240
v 0.815493 -0.555570 0.162212
v 0.693520 -0.707107 0.137950
v 0.544895 -0.831470 0.108386
v 0.375330 -0.923880 0.074658
v 0.191342 -0.980785 0.038060
v 0.180240 0.980785 0.074658
v 0.353553 0.923880 0.146447
v 0.513280 0.831470 0.212608
v 0.653281 0.707107 0.270598
v 0.768178 0.555570 0.318190
v 0.853553 0.382683 0.353553
v 0.906127 0.195090 0.375330
v 0.923879 0.000000 0.382683
v 0.906127 -0.195090 0.375330
v 0.853553 -0.382683 0.353553
v 0.768178 -0.555570 0.318190
v 0.653281 -0.707107 0.270598
v 0.513280 -0.831470 0.212608
v 0.353553 -0.923880 0.146447
v 0.180240 -0.980785 0.074658
v 0.162212 0.980785 0.108386
v 0.318190 0.923880 0.212608
v 0.461940 0.831470 0.308658
v 0.587938 0.707107 0.392847
v 0.691341 0.555570 0.461940
v 0.768178 0.382683 0.513280
v 0.815493 0.195090 0.544895
v 0.960905 0.000000 0.651403
v 0.815493 -0.195090 0.544895
v 0.768178 -0.382683 0.513280
v 0.691341 -0.555570 0.461940
v 0.711293 -0.707107 0.450101
v 0.461940 -0.831470 0.308658
v 0.318190 -0.923880 0.212608
v 0.162212 -0.980785 0.108386
v 0.137950 0.980785 0.137950
v 0.270598 0.923880 0.270598
v 0.392847 1.042409 0.392847
v 0.500000 0.707107 0.500000
v 0.587938 0.555570 0.587938
v 0.653281 0.382683 0.653281
v 0.693520 0.195090 0.693520
v 0.707106 0.000000 0.707107
v 0.693520 -0.195090 0.693520
v 0.653281 -0.382683 0.653281
v 0.587938 -0.555570 0.587938
v 0.500000 -0.707107 0.500000
v 0.392847 -0.831470 0.392847
v 0.270598 -0.923880 0.270598
v 0.137950 -0.980785 0.137950
v 0.108386 0.980785 0.162212
v 0.212607 0.923880 0.318190
v 0.308658 0.831470 0.461940
v 0.392847 0.707107 0.587938
v 0.461940 0.555570 0.691342
v 0.513280 0.382683 0.768178
v 0.544895 0.195090 0.815493
v 0.555570 0.000000 0.831469
v 0.544895 -0.195090 0.815493
v 0.647593 -0.382683 0.939868
v 0.461940 -0.555570 0.691342
v 0.392847 -0.707107 0.587938
v 0.308658 -0.831470 0.461940
v 0.212607 -0.923880 0.318190
v 0.108386 -0.980785 0.162212
v 0.074658 0.980785 0.180240
v 0.146447 0.923880 0.353553
v 0.212607 0.831470 0.513280
v 0.270598 0.707107 0.653281
v 0.318189 0.555570 0.768178
v 0.535132 0.427585 1.188723
v 0.375330 0.195090 0.906127
v 0.382683 0.000000 0.923879
v 0.375330 -0.195090 0.906127
v 0.353553 -0.382683 0.853553
v 0.318189 -0.555570 0.768178
v 0.270598 -0.707107 0.653281
v 0.212607 -0.831470 0.513280
v 0.146447 -0.923880 0.353553
v 0.074658 -0.980785 0.180240
v 0.038060 0.980785 0.191342
v 0.074658 0.923880 0.375330
v 0.108386 0.831470 0.544895
v 0.137950 0.707107 0.693520
v 0.162212 0.555570 0.815493
v 0.180240 0.382683 0.906127
v 0.191342 0.195090 0.961939
v 0.195090 0.000000 0.980785
v 0.191342 -0.195090 0.961939
v 0.180240 -0.382683 0.906127
v 0.162212 -0.555570 0.815493
v 0.137950 -0.707107 0.693520
v 0.108386 -0.831470 0.544895
v 0.074658 -0.923880 0.375330
v 0.038060 -0.980785 0.191342
v -0.000000 0.980785 0.195090
v -0.000000 0.923880 0.382683
v -0.000000 0.831470 0.555570
v -0.000000 0.707107 0.707107
v -0.000000 0.555570 0.831469
v 0.000000 0.382683 0.923879
v -0.000000 0.195090 0.980785
v -0.000000 0.000000 1.145438
v -0.000000 -0.195090 0.980785
v 0.000000 -0.382683 0.923879
v -0.000000 -0.555570 0.831469
v -0.000000 -0.707107 0.848891
v -0.000000 -0.831470 0.555570
v -0.000000 -0.923880 0.382683
v -0.000000 -0.980785 0.195090
v -0.038060 0.980785 0.191342
v -0.074658 0.923880 0.375330
v -0.108386 0.831470 0.544895
v -0.137950 0.937377 0.780127
v -0.162212 0.555570 0.815493
v -0.180240 0.382683 0.906127
v -0.191342 0.195090 0.961939
v -0.195091 0.000000 0.980785
v -0.191342 -0.195090 0.961939
v -0.180240 -0.382683 0.906127
v -0.162212 -0.555570 0.815493
v -0.137950 -0.707107 0.693520
v -0.108386 -0.831470 0.544895
v -0.074658 -0.923880 0.375330
v -0.038060 -0.980785 0.191342
v -0.074658 0.980785 0.180240
v -0.146447 0.923880 0.353553
v -0.212608 0.831470 0.513280
v -0.270598 0.707107 0.653281
v -0.318190 0.555570 0.768177
v -0.353553 0.382683 0.853553
v -0.375330 0.195090 0.906127
v -0.382683 0.000000 0.923879
v -0.375330 -0.195090 0.906127
v -0.353553 -0.382683 0.853553
v -0.318190 -0.555570 0.768177
v -0.270598 -0.707107 0.653281
v -0.212608 -0.831470 0.513280
v -0.146447 -0.923880 0.353553
v -0.074658 -0.980785 0.180240
v -0.108386 0.980785 0.162212
v -0.212608 0.923880 0.318190
v -0.308658 0.831470 0.461939
v -0.392847 0.707107 0.587938
v -0.461940 0.555570 0.691341
v -0.513280 0.382683 0.768178
v -0.544895 0.195090 0.815493
v -0.555570 0.000000 0.831469
v -0.544895 -0.195090 0.815493
v -0.616672 -0.382683 0.922585
v -0.461940 -0.555570 0.691341
v -0.392847 -0.707107 0.587938
v -0.308658 -0.831470 0.461939
v -0.212608 -0.923880 0.318190
v -0.108386 -0.980785 0.162212
v -0.137950 0.980785 0.137950
v -0.270598 0.923880 0.270598
v -0.392847 1.042409 0.392847
v -0.500000 0.707107 0.500000
v -0.587938 0.555570 0.587937
v -0.866053 0.429035 0.907792
v -0.693520 0.195090 0.693520
v -0.707106 0.000000 0.707106
v -0.693520 -0.195090 0.693520
v -0.653281 -0.382683 0.653281
v -0.587938 -0.555570 0.587937
v -0.500000 -0.707107 0.500000
v -0.392847 -0.831470 0.392847
v -0.270598 -0.923880 0.270598
v -0.137950 -0.980785 0.137950
v -0.162212 0.980785 0.108386
v -0.318190 0.923880 0.212607
v -0.461940 0.831470 0.308658
v -0.587938 0.707107 0.392847
v -0.691341 0.555570 0.461939
v -0.768177 0.382683 0.513280
v -0.815493 0.195090 0.544895
v -0.831469 0.000000 0.555569
v -0.815493 -0.195090 0.544895
v -0.768177 -0.382683 0.513280
v -0.691341 -0.555570 0.461939
v -0.587938 -0.707107 0.392847
v -0.461940 -0.831470 0.308658
v -0.318190 -0.923880 0.212607
v -0.162212 -0.980785 0.108386
v -0.180240 0.980785 0.074658
v -0.353553 0.923880 0.146447
v -0.513280 0.831470 0.212607
v -0.653281 0.707107 0.270598
v -0.768177 0.555570 0.318189
v -0.853553 0.382683 0.353553
v -0.906127 0.195090 0.375330
v -1.059065 0.000000 0.525301
v -0.906127 -0.195090 0.375330
v -0.853553 -0.382683 0.353553
v -0.768177 -0.555570 0.318189
v -0.735995 -0.774537 0.336110
v -0.513280 -0.831470 0.212607
v -0.353553 -0.923880 0.146447
v -0.180240 -0.980785 0.074658
v -0.191342 0.980785 0.038060
v -0.375330 0.923880 0.074658
v -0.544895 0.831470 0.108386
v -0.693520 0.707107 0.137950
v -0.815493 0.555570 0.162211
v -0.906127 0.382683 0.180240
v -0.961939 0.195090 0.191341
v -0.980784 0.000000 0.195090
v -0.961939 -0.195090 0.191341
v -0.906127 -0.382683 0.180240
v -0.815493 -0.555570 0.162211
v -0.693520 -0.707107 0.137950
v -0.544895 -0.831470 0.108386
v -0.375330 -0.923880 0.074658
v -0.191342 -0.980785 0.038060
v -0.195090 0.980785 -0.000000
v -0.382683 0.923880 -0.000000
v -0.555570 0.831470 -0.000000
v -0.931067 0.707107 -0.000000
v -0.831469 0.555570 -0.000000
v -0.923879 0.382683 -0.000000
v -0.980785 0.195090 -0.000000
v -0.999999 0.000000 -0.000000
v -0.980785 -0.195090 -0.000000
v -1.080910 -0.382683 -0.000000
v -0.831469 -0.555570 -0.000000
v -0.707107 -0.707107 -0.000000
v -0.555570 -0.831470 -0.000000
v -0.382683 -0.923880 -0.000000
v -0.195090 -0.980785 -0.000000
v -0.191342 0.980785 -0.038060
v -0.375330 0.923880 -0.074658
v -0.544895 0.831470 -0.108386
v -0.693520 0.707107 -0.137950
v -0.815493 0.555570 -0.162212
v -0.906127 0.382683 -0.180240
v -0.961939 0.195090 -0.191342
v -0.980784 0.000000 -0.195091
v -0.961939 -0.195090 -0.191342
v -0.906127 -0.382683 -0.180240
v -0.815493 -0.555570 -0.162212
v -0.693520 -0.707107 -0.137950
v -0.544895 -0.831470 -0.108386
v -0.375330 -0.923880 -0.074658
v -0.191342 -0.980785 -0.038060
v -0.180240 0.980785 -0.074658
v -0.353553 0.923880 -0.146447
v -0.513279 0.831470 -0.212607
v -0.653281 0.707107 -0.270598
v -0.768177 0.555570 -0.318190
v -0.853553 0.382683 -0.353553
v -0.906127 0.195090 -0.375330
v -1.097205 0.000000 -0.437868
v -0.906127 -0.195090 -0.375330
v -0.853553 -0.382683 -0.353553
v -0.768177 -0.555570 -0.318190
v -0.780876 -0.707107 -0.270598
v -0.513279 -0.831470 -0.212607
v -0.353553 -0.923880 -0.146447
v -0.180240 -0.980785 -0.074658
v -0.162212 0.980785 -0.108386
v -0.318189 0.923880 -0.212607
v -0.461939 0.831470 -0.308658
v -0.587938 0.707107 -0.392847
v -0.691341 0.555570 -0.461940
v -0.768177 0.382683 -0.513280
v -0.815493 0.195090 -0.544895
v -0.831468 0.000000 -0.555570
v -0.815493 -0.195090 -0.544895
v -0.768177 -0.382683 -0.513280
v -0.691341 -0.555570 -0.461940
v -0.587938 -0.707107 -0.392847
v -0.461939 -0.831470 -0.308658
v -0.318189 -0.923880 -0.212607
v -0.162212 -0.980785 -0.108386
v -0.137950 0.980785 -0.137950
v -0.270598 0.923880 -0.270598
v -0.392847 1.042409 -0.392847
v -0.500000 0.707107 -0.500000
v -0.587937 0.555570 -0.587938
v -0.653281 0.382683 -0.653281
v -0.693519 0.195090 -0.693520
v -0.707106 0.000000 -0.707106
v -0.693519 -0.195090 -0.693520
v -0.653281 -0.382683 -0.653281
v -0.587937 -0.555570 -0.587938
v -0.500000 -0.707107 -0.500000
v -0.392847 -0.831470 -0.392847
v -0.270598 -0.923880 -0.270598
v -0.137950 -0.980785 -0.137950
v -0.108386 0.980785 -0.162212
v -0.212607 0.923880 -0.318190
v -0.308658 0.831470 -0.461939
v -0.392847 0.707107 -0.587938
v -0.461939 0.555570 -0.691341
v -0.692107 0.414836 -1.012320
v -0.544895 0.195090 -0.815493
v -0.555569 0.000000 -0.831469
v -0.544895 -0.195090 -0.815493
v -0.636624 -0.382683 -0.919078
v -0.461939 -0.555570 -0.691341
v -0.392847 -0.707107 -0.587938
v -0.308658 -0.831470 -0.461939
v -0.212607 -0.923880 -0.318190
v -0.108386 -0.980785 -0.162212
v -0.074658 0.980785 -0.180240
v -0.146446 0.923880 -0.353553
v -0.212607 0.831470 -0.513279
v -0.270598 0.707107 -0.653281
v -0.318189 0.555570 -0.768177
v -0.353553 0.382683 -0.853553
v -0.375330 0.195090 -0.906127
v -0.382683 0.000000 -0.923879
v -0.375330 -0.195090 -0.906127
v -0.353553 -0.382683 -0.853553
v -0.318189 -0.555570 -0.768177
v -0.270598 -0.707107 -0.653281
v -0.212607 -0.831470 -0.513279
v -0.146446 -0.923880 -0.353553
v -0.074658 -0.980785 -0.180240
v -0.038060 0.980785 -0.191342
v -0.074658 0.923880 -0.375330
v -0.108386 0.831470 -0.544895
v -0.137950 0.707107 -0.693520
v -0.162211 0.555570 -0.815493
v -0.180240 0.382683 -0.906127
v -0.191341 0.195090 -0.961939
v -0.195090 0.000000 -0.980784
v -0.191341 -0.195090 -0.961939
v -0.180240 -0.382683 -0.906127
v -0.162211 -0.555570 -0.815493
v -0.137950 -0.707107 -0.693520
v -0.108386 -0.831470 -0.544895
v -0.074658 -0.923880 -0.375330
v -0.038060 -0.980785 -0.191342
v 0.000000 0.980785 -0.195090
v 0.000000 0.923880 -0.382683
v 0.000000 0.937377 -0.793714
v 0.000000 0.382683 -0.923879
v 0.000000 -0.382683 -0.923879
v 0.000000 -0.707107 -0.797926
v 0.000000 -0.831470 -0.555570
v 0.000000 -0.923880 -0.382683
v 0.000000 -0.980785 -0.195090
vn 0.0938 -0.2890 -0.9527
vn 0.0464 0.8810 -0.4709
vn 0.0865 -0.4696 -0.8786
vn 0.7759 0.5764 0.2563
vn 0.4855 -0.5940 -0.6414
vn 0.0759 0.6326 -0.7708
vn 0.0624 -0.7715 -0.6332
vn 0.0865 0.4696 -0.8786
vn 0.0464 -0.8810 -0.4709
vn 0.0938 0.2890 -0.9527
vn 0.0286 -0.9565 -0.2902
vn 0.5740 0.5740 -0.5840
vn 0.0097 0.9951 -0.0980
vn 0.0097 -0.9951 -0.0980
vn 0.0975 -0.0976 -0.9904
vn 0.0286 0.9565 -0.2902
vn 0.0286 -0.9951 -0.0942
vn 0.2889 -0.0976 -0.9524
vn 0.0846 0.9565 -0.2790
vn -0.2836 0.2949 -0.9125
vn 0.1374 0.8810 -0.4528
vn 0.2563 -0.4696 -0.8448
vn 0.1847 0.7715 -0.6088
vn 0.2248 -0.6326 -0.7412
vn 0.2248 0.6326 -0.7412
vn 0.1847 -0.7715 -0.6088
vn 0.2563 0.4696 -0.8448
vn 0.1374 -0.8810 -0.4528
vn 0.2779 0.2890 -0.9161
vn 0.0846 -0.9565 -0.2790
vn 0.2889 0.0976 -0.9524
vn 0.0286 0.9951 -0.0942
vn 0.2999 -0.7715 -0.5611
vn 0.4162 0.4696 -0.7786
vn 0.2230 -0.8810 -0.4173
vn 0.4513 0.2890 -0.8443
vn 0.1374 -0.9565 -0.2571
vn 0.4691 0.0975 -0.8777
vn 0.0464 0.9951 -0.0869
vn 0.0464 -0.9951 -0.0869
vn 0.4691 -0.0975 -0.8777
vn 0.1374 0.9565 -0.2571
vn 0.8547 0.3404 -0.3918
vn 0.2231 0.8810 -0.4173
vn 0.4162 -0.4696 -0.7786
vn 0.2999 0.7715 -0.5611
vn 0.3651 -0.6326 -0.6831
vn 0.3651 0.6326 -0.6831
vn 0.1850 0.9565 -0.2254
vn 0.6073 -0.2890 -0.7400
vn -0.8109 0.4472 -0.3773
vn 0.5601 -0.4696 -0.6825
vn 0.4036 0.7715 -0.4918
vn 0.4913 -0.6326 -0.5987
vn 0.4913 0.6326 -0.5987
vn 0.4036 -0.7715 -0.4918
vn -0.2291 0.7481 -0.6227
vn 0.3002 -0.8810 -0.3658
vn 0.6073 0.2890 -0.7400
vn 0.1850 -0.9565 -0.2254
vn 0.6314 0.0975 -0.7693
vn 0.0625 0.9951 -0.0761
vn 0.0625 -0.9951 -0.0761
vn 0.6314 -0.0975 -0.7693
vn 0.6423 0.7458 0.1764
vn 0.3658 -0.8810 -0.3002
vn 0.7400 0.2890 -0.6073
vn 0.2254 -0.9566 -0.1850
vn 0.7693 0.0975 -0.6314
vn 0.0761 0.9951 -0.0625
vn 0.0761 -0.9951 -0.0625
vn 0.7693 -0.0975 -0.6314
vn 0.2254 0.9565 -0.1850
vn 0.7400 -0.2890 -0.6073
vn 0.3773 0.4472 0.8109
vn 0.6825 -0.4696 -0.5601
vn 0.4918 0.7715 -0.4036
vn 0.5987 -0.6326 -0.4913
vn 0.5987 0.6326 -0.4913
vn 0.4918 -0.7715 -0.4036
vn 0.8443 -0.2890 -0.4513
vn 0.4173 0.8810 -0.2230
vn 0.7786 -0.4696 -0.4162
vn 0.5611 0.7715 -0.2999
vn 0.5801 -0.3211 -0.7486
vn 0.6831 0.6326 -0.3651
vn 0.5611 -0.7715 -0.2999
vn 0.7786 0.4696 -0.4162
vn 0.4173 -0.8810 -0.2230
vn 0.8443 0.2890 -0.4513
vn 0.2571 -0.9565 -0.1374
vn 0.8777 0.0975 -0.4691
vn 0.0869 0.9951 -0.0464
vn 0.0869 -0.9951 -0.0464
vn 0.5752 0.3099 -0.7570
vn 0.2571 0.9565 -0.1374
vn 0.4528 -0.8810 -0.1374
vn 0.9161 0.2890 -0.2779
vn 0.2790 -0.9565 -0.0846
vn 0.9524 0.0975 -0.2889
vn 0.0942 0.9951 -0.0286
vn 0.0942 -0.9951 -0.0286
vn 0.9612 0.2645 0.0785
vn 0.2790 0.9565 -0.0846
vn 0.9161 -0.2890 -0.2779
vn 0.4528 0.8810 -0.1374
vn 0.8448 -0.4696 -0.2563
vn 0.6088 0.7715 -0.1847
vn 0.7658 -0.5681 0.3013
vn 0.7412 0.6326 -0.2248
vn 0.6088 -0.7715 -0.1847
vn 0.8448 0.4696 -0.2563
vn 0.4709 0.8810 -0.0464
vn 0.8786 -0.4696 -0.0865
vn 0.6332 0.7715 -0.0624
vn 0.7708 -0.6326 -0.0759
vn 0.3436 0.7897 -0.5082
vn 0.6332 -0.7715 -0.0624
vn 0.8786 0.4696 -0.0865
vn 0.4709 -0.8810 -0.0464
vn 0.9527 0.2890 -0.0938
vn 0.2902 -0.9565 -0.0286
vn 0.9904 0.0975 -0.0975
vn 0.0980 0.9951 -0.0097
vn 0.0980 -0.9951 -0.0097
vn 0.9904 -0.0975 -0.0975
vn 0.2902 0.9565 -0.0286
vn 0.9527 -0.2890 -0.0938
vn 0.9527 0.2890 0.0938
vn 0.2902 -0.9565 0.0286
vn 0.9904 0.0975 0.0976
vn 0.0980 0.9951 0.0097
vn 0.0980 -0.9951 0.0097
vn 0.9904 -0.0975 0.0976
vn 0.2902 0.9565 0.0286
vn 0.6471 0.4761 -0.5955
vn 0.4709 0.8810 0.0464
vn 0.8786 -0.4696 0.0865
vn 0.6332 0.7715 0.0624
vn 0.7708 -0.6326 0.0759
vn 0.3436 0.7897 0.5082
vn 0.6332 -0.7715 0.0624
vn 0.8786 0.4696 0.0865
vn 0.4709 -0.8810 0.0464
vn 0.8448 -0.4696 0.2563
vn 0.6088 0.7715 0.1847
vn 0.7412 -0.6326 0.2248
vn 0.7412 0.6326 0.2248
vn 0.6088 -0.7715 0.1847
vn 0.8448 0.4696 0.2563
vn 0.4528 -0.8810 0.1374
vn 0.9161 0.2890 0.2779
vn 0.2790 -0.9565 0.0846
vn 0.9524 0.0975 0.2889
vn 0.0942 0.9951 0.0286
vn 0.0942 -0.9951 0.0286
vn 0.9524 -0.0975 0.2889
vn 0.2790 0.9565 0.0846
vn 0.5574 0.3348 0.7597
vn 0.4528 0.8810 0.1374
vn 0.2571 -0.9565 0.1374
vn 0.8253 0.5531 -0.1137
vn 0.0869 0.9951 0.0464
vn 0.0869 -0.9951 0.0464
vn 0.8777 -0.0975 0.4691
vn 0.2571 0.9565 0.1374
vn 0.8443 -0.2890 0.4513
vn 0.4173 0.8810 0.2231
vn 0.7786 -0.4696 0.4162
vn 0.5611 0.7715 0.2999
vn 0.8069 -0.5299 -0.2608
vn 0.6831 0.6326 0.3651
vn 0.5611 -0.7715 0.2999
vn 0.7786 0.4696 0.4162
vn 0.4173 -0.8810 0.2230
vn 0.8443 0.2890 0.4513
vn 0.2296 -0.0457 0.9722
vn 0.5987 0.6326 0.4913
vn 0.4918 -0.7715 0.4036
vn 0.6825 0.4696 0.5601
vn 0.3658 -0.8810 0.3002
vn 0.7400 0.2890 0.6073
vn 0.2254 -0.9565 0.1850
vn 0.1762 0.5696 0.8028
vn 0.0761 0.9951 0.0625
vn 0.0761 -0.9951 0.0625
vn 0.7693 -0.0975 0.6314
vn 0.2254 0.9565 0.1850
vn 0.7400 -0.2890 0.6073
vn 0.3773 0.4472 -0.8109
vn 0.6825 -0.4696 0.5601
vn 0.4918 0.7715 0.4036
vn 0.0625 0.9951 0.0761
vn 0.0625 -0.9951 0.0761
vn 0.6314 -0.0975 0.7693
vn 0.1850 0.9565 0.2254
vn 0.8721 0.4889 0.0173
vn -0.8109 0.4472 0.3773
vn 0.5601 -0.4696 0.6825
vn 0.4036 0.7715 0.4918
vn 0.4913 -0.6326 0.5987
vn 0.4913 0.6326 0.5987
vn 0.4036 -0.7715 0.4918
vn 0.5601 0.4696 0.6825
vn 0.3002 -0.8810 0.3658
vn 0.6073 0.2890 0.7400
vn 0.1850 -0.9565 0.2254
vn 0.6314 0.0975 0.7693
vn 0.3651 0.6326 0.6831
vn 0.2999 -0.7715 0.5611
vn 0.6589 0.7436 -0.1136
vn 0.2230 -0.8810 0.4173
vn 0.4513 0.2890 0.8443
vn 0.1374 -0.9565 0.2571
vn 0.4691 0.0975 0.8777
vn 0.0464 0.9951 0.0869
vn 0.0464 -0.9951 0.0869
vn 0.4691 -0.0975 0.8777
vn 0.1374 0.9565 0.2571
vn -0.2537 0.4342 0.8644
vn 0.2230 0.8810 0.4173
vn 0.4162 -0.4696 0.7786
vn 0.2999 0.7715 0.5611
vn 0.3651 -0.6326 0.6831
vn 0.2889 -0.0975 0.9524
vn 0.0846 0.9565 0.2790
vn 0.2779 -0.2890 0.9161
vn 0.1374 0.8810 0.4528
vn 0.2563 -0.4696 0.8448
vn 0.1847 0.7715 0.6088
vn 0.2248 -0.6326 0.7412
vn 0.2248 0.6326 0.7412
vn 0.1847 -0.7715 0.6088
vn -0.4685 0.7484 0.4694
vn 0.1374 -0.8810 0.4528
vn 0.2779 0.2890 0.9161
vn 0.0846 -0.9565 0.2790
vn 0.2889 0.0975 0.9524
vn 0.0286 0.9951 0.0942
vn 0.0286 -0.9951 0.0942
vn 0.0624 -0.7715 0.6332
vn 0.0865 0.4696 0.8786
vn 0.0464 -0.8810 0.4709
vn 0.0938 0.2890 0.9527
vn 0.0286 -0.9565 0.2902
vn 0.5420 0.5420 0.6422
vn 0.0097 0.9951 0.0980
vn 0.0097 -0.9951 0.0980
vn 0.0975 -0.0975 0.9904
vn 0.0286 0.9565 0.2902
vn 0.0938 -0.2890 0.9527
vn 0.0464 0.8810 0.4709
vn 0.0865 -0.4696 0.8786
vn 0.0624 0.7715 0.6332
vn 0.6258 -0.5474 0.5556
vn 0.0759 0.6326 0.7708
vn -0.0286 0.9565 0.2902
vn -0.0938 -0.2890 0.9527
vn -0.0464 0.8810 0.4709
vn -0.0865 -0.4696 0.8786
vn 0.8294 0.5410 -0.1394
vn -0.6258 -0.5474 0.5556
vn -0.0759 0.6326 0.7708
vn -0.0624 -0.7715 0.6332
vn -0.0865 0.4696 0.8786
vn -0.0464 -0.8810 0.4709
vn -0.0938 0.2890 0.9527
vn -0.0286 -0.9565 0.2902
vn -0.5420 0.5420 0.6422
vn -0.0097 0.9951 0.0980
vn -0.0097 -0.9951 0.0980
vn -0.0975 -0.0975 0.9904
vn -0.2563 0.4696 0.8448
vn -0.1374 -0.8810 0.4528
vn -0.2779 0.2890 0.9161
vn -0.0846 -0.9565 0.2790
vn -0.2889 0.0975 0.9524
vn -0.0286 0.9951 0.0942
vn -0.0286 -0.9951 0.0942
vn -0.2889 -0.0975 0.9524
vn -0.0846 0.9565 0.2790
vn -0.2779 -0.2890 0.9161
vn -0.1374 0.8810 0.4528
vn -0.2563 -0.4696 0.8448
vn -0.7074 0.6070 -0.3622
vn -0.2248 -0.6326 0.7412
vn -0.2248 0.6326 0.7412
vn -0.1847 -0.7715 0.6088
vn 0.2310 0.4142 0.8804
vn -0.2230 0.8810 0.4173
vn -0.4162 -0.4696 0.7786
vn -0.2999 0.7715 0.5611
vn -0.3651 -0.6326 0.6831
vn -0.3651 0.6326 0.6831
vn -0.2999 -0.7715 0.5611
vn -0.4162 0.4696 0.7786
vn -0.2230 -0.8810 0.4173
vn -0.4513 0.2890 0.8443
vn -0.1374 -0.9565 0.2571
vn -0.4691 0.0975 0.8777
vn -0.0464 0.9951 0.0869
vn -0.0464 -0.9951 0.0869
vn -0.4691 -0.0975 0.8777
vn -0.1374 0.9565 0.2571
vn -0.3002 -0.8810 0.3658
vn -0.6073 0.2890 0.7400
vn -0.1850 -0.9565 0.2254
vn -0.6314 0.0975 0.7693
vn -0.0625 0.9951 0.0761
vn -0.0625 -0.9951 0.0761
vn -0.6314 -0.0975 0.7693
vn -0.1850 0.9565 0.2254
vn -0.9016 0.4149 0.1226
vn 0.8109 0.4472 0.3773
vn -0.5601 -0.4696 0.6825
vn -0.4036 0.7715 0.4918
vn -0.4913 -0.6326 0.5987
vn -0.4913 0.6326 0.5987
vn -0.4036 -0.7715 0.4918
vn 0.3275 0.7460 0.5799
vn -0.6825 -0.4696 0.5601
vn -0.4918 0.7715 0.4036
vn -0.5987 -0.6326 0.4913
vn -0.5987 0.6326 0.4913
vn -0.4918 -0.7715 0.4036
vn -0.6179 0.7483 -0.2412
vn -0.3658 -0.8810 0.3002
vn -0.7400 0.2890 0.6073
vn -0.2254 -0.9566 0.1850
vn -0.7693 0.0975 0.6314
vn -0.0761 0.9951 0.0625
vn -0.0761 -0.9951 0.0625
vn -0.7693 -0.0975 0.6314
vn -0.2254 0.9565 0.1850
vn -0.7400 -0.2890 0.6073
vn -0.3773 0.4472 -0.8109
vn -0.2571 -0.9565 0.1374
vn -0.0997 0.6544 0.7496
vn -0.0869 0.9951 0.0464
vn -0.0869 -0.9951 0.0464
vn -0.8777 -0.0975 0.4691
vn -0.2571 0.9565 0.1374
vn -0.8443 -0.2890 0.4513
vn -0.4173 0.8810 0.2230
vn -0.7786 -0.4696 0.4162
vn -0.5611 0.7715 0.2999
vn -0.3666 0.0222 0.9301
vn -0.6831 0.6326 0.3651
vn -0.5611 -0.7715 0.2999
vn -0.7786 0.4696 0.4162
vn -0.4173 -0.8810 0.2231
vn -0.8443 0.2890 0.4513
vn -0.6088 0.7715 0.1847
vn -0.9523 -0.1612 -0.2590
vn -0.7412 0.6326 0.2248
vn -0.6088 -0.7715 0.1847
vn -0.8448 0.4696 0.2563
vn -0.4528 -0.8810 0.1374
vn -0.9161 0.2890 0.2779
vn -0.2790 -0.9565 0.0846
vn -0.8397 0.5052 -0.1991
vn -0.0942 0.9951 0.0286
vn -0.0942 -0.9951 0.0286
vn -0.9524 -0.0975 0.2889
vn -0.2790 0.9565 0.0846
vn -0.9161 -0.2890 0.2779
vn -0.4528 0.8810 0.1374
vn -0.8448 -0.4696 0.2563
vn -0.9904 0.0975 0.0975
vn -0.0980 0.9951 0.0097
vn -0.0980 -0.9951 0.0097
vn -0.9904 -0.0975 0.0976
vn -0.2902 0.9565 0.0286
vn -0.6704 0.3578 0.6501
vn -0.4709 0.8810 0.0464
vn -0.8786 -0.4696 0.0865
vn -0.2765 0.8348 0.4761
vn -0.7708 -0.6326 0.0759
vn -0.7708 0.6326 0.0759
vn -0.6332 -0.7715 0.0624
vn -0.8786 0.4696 0.0865
vn -0.4709 -0.8810 0.0464
vn -0.9527 0.2890 0.0938
vn -0.2902 -0.9565 0.0286
vn -0.7708 -0.6326 -0.0759
vn -0.7708 0.6326 -0.0759
vn -0.6332 -0.7715 -0.0624
vn -0.8786 0.4696 -0.0865
vn -0.4709 -0.8810 -0.0464
vn -0.9527 0.2890 -0.0938
vn -0.2902 -0.9565 -0.0286
vn -0.9904 0.0975 -0.0975
vn -0.0980 0.9951 -0.0097
vn -0.0980 -0.9951 -0.0097
vn -0.9904 -0.0975 -0.0976
vn -0.2902 0.9565 -0.0286
vn -0.6704 0.3578 -0.6501
vn -0.4709 0.8810 -0.0464
vn -0.8786 -0.4696 -0.0865
vn -0.2765 0.8348 -0.4761
vn -0.0942 0.9951 -0.0286
vn -0.0942 -0.9951 -0.0286
vn -0.9524 -0.0975 -0.2889
vn -0.2790 0.9565 -0.0846
vn -0.9161 -0.2890 -0.2779
vn -0.4528 0.8810 -0.1374
vn -0.8448 -0.4696 -0.2563
vn -0.6088 0.7715 -0.1847
vn -0.7211 -0.5044 0.4749
vn -0.7412 0.6326 -0.2248
vn -0.6088 -0.7715 -0.1847
vn -0.8448 0.4696 -0.2563
vn -0.4528 -0.8810 -0.1374
vn -0.9161 0.2890 -0.2779
vn -0.2790 -0.9565 -0.0846
vn -0.7232 0.5972 0.3468
vn -0.6831 0.6326 -0.3651
vn -0.5611 -0.7715 -0.2999
vn -0.7786 0.4696 -0.4162
vn -0.4173 -0.8810 -0.2231
vn -0.8443 0.2890 -0.4513
vn -0.2571 -0.9565 -0.1374
vn -0.3334 0.5678 -0.7527
vn -0.0869 0.9951 -0.0464
vn -0.0869 -0.9951 -0.0464
vn -0.8777 -0.0975 -0.4691
vn -0.2571 0.9565 -0.1374
vn -0.8443 -0.2890 -0.4513
vn -0.4173 0.8810 -0.2231
vn -0.7786 -0.4696 -0.4162
vn -0.5611 0.7715 -0.2999
vn -0.5227 -0.2153 -0.8249
vn -0.7693 -0.0975 -0.6314
vn -0.2254 0.9565 -0.1850
vn -0.7400 -0.2890 -0.6073
vn -0.3773 0.4472 0.8109
vn -0.6825 -0.4696 -0.5601
vn -0.4918 0.7715 -0.4036
vn -0.5987 -0.6326 -0.4913
vn -0.5987 0.6326 -0.4913
vn -0.4918 -0.7715 -0.4036
vn -0.6825 0.4696 -0.5601
vn -0.3658 -0.8810 -0.3002
vn -0.7400 0.2890 -0.6073
vn -0.2254 -0.9565 -0.1850
vn -0.7693 0.0975 -0.6314
vn -0.0761 0.9951 -0.0625
vn -0.0761 -0.9951 -0.0625
vn -0.4036 -0.7715 -0.4918
vn -0.6489 0.7484 0.1372
vn -0.3002 -0.8810 -0.3658
vn -0.6073 0.2890 -0.7400
vn -0.1850 -0.9565 -0.2254
vn -0.6314 0.0975 -0.7693
vn -0.0625 0.9951 -0.0761
vn -0.0625 -0.9951 -0.0761
vn -0.6314 -0.0975 -0.7693
vn -0.1850 0.9565 -0.2254
vn -0.8846 0.4631 -0.0554
vn 0.8109 0.4472 -0.3773
vn -0.5601 -0.4696 -0.6825
vn -0.4036 0.7715 -0.4918
vn -0.4913 -0.6326 -0.5987
vn -0.4913 0.6326 -0.5987
vn 0.2073 0.3932 -0.8958
vn -0.2230 0.8810 -0.4173
vn -0.4162 -0.4696 -0.7786
vn -0.2999 0.7715 -0.5611
vn -0.3651 -0.6326 -0.6831
vn -0.3651 0.6326 -0.6831
vn -0.2999 -0.7715 -0.5611
vn 0.3387 0.7479 -0.5708
vn -0.2230 -0.8810 -0.4173
vn -0.4513 0.2890 -0.8443
vn -0.1374 -0.9565 -0.2571
vn -0.4691 0.0975 -0.8777
vn -0.0464 0.9951 -0.0869
vn -0.0464 -0.9951 -0.0869
vn -0.4691 -0.0975 -0.8777
vn -0.1374 0.9565 -0.2571
vn -0.1374 -0.8810 -0.4528
vn -0.2779 0.2890 -0.9161
vn -0.0846 -0.9565 -0.2790
vn -0.2889 0.0975 -0.9524
vn -0.0286 0.9951 -0.0942
vn -0.0286 -0.9951 -0.0942
vn -0.2889 -0.0975 -0.9524
vn -0.0846 0.9565 -0.2790
vn -0.2779 -0.2890 -0.9161
vn -0.1374 0.8810 -0.4528
vn -0.2563 -0.4696 -0.8448
vn -0.1847 0.7715 -0.6088
vn -0.2248 -0.6326 -0.7412
vn -0.2248 0.6326 -0.7412
vn -0.1847 -0.7715 -0.6088
vn -0.2563 0.4696 -0.8448
vn -0.0464 0.8810 -0.4709
vn -0.0865 -0.4696 -0.8786
vn -0.7759 0.5764 0.2563
vn -0.4855 -0.5940 -0.6414
vn -0.0759 0.6326 -0.7708
vn -0.0624 -0.7715 -0.6332
vn -0.0865 0.4696 -0.8786
vn -0.0464 -0.8810 -0.4709
vn -0.0938 0.2890 -0.9527
vn -0.0286 -0.9565 -0.2902
vn -0.5740 0.5740 -0.5840
vn -0.0097 0.9951 -0.0980
vn -0.0097 -0.9951 -0.0980
vn -0.0976 -0.0975 -0.9904
vn -0.0286 0.9565 -0.2902
vn -0.0938 -0.2890 -0.9527
vn 0.0624 0.7715 -0.6332
vn 0.0957 -0.2151 -0.9719
vn 0.6636 0.0736 -0.7445
vn 0.3266 -0.8409 -0.4315
vn 0.0975 0.0976 -0.9904
vn 0.5740 -0.5740 -0.5840
vn 0.2779 -0.2890 -0.9161
vn -0.2791 -0.7251 -0.6296
vn 0.2231 -0.8810 -0.4173
vn 0.4513 -0.2890 -0.8443
vn 0.2230 0.8810 -0.4173
vn 0.6498 -0.7333 -0.2001
vn 0.3002 0.8810 -0.3658
vn 0.0106 0.3074 -0.9515
vn 0.5601 0.4696 -0.6825
vn -0.1900 -0.5152 -0.8357
vn 0.6825 0.4696 -0.5601
vn 0.8709 -0.4734 0.1320
vn 0.2254 -0.9565 -0.1850
vn 0.3658 0.8810 -0.3002
vn 0.9515 0.3074 -0.0106
vn 0.4981 -0.5676 -0.6555
vn 0.6831 -0.6326 -0.3651
vn 0.3377 -0.8343 -0.4358
vn 0.8777 -0.0975 -0.4691
vn 0.9524 -0.0975 -0.2889
vn 0.8371 -0.5428 0.0684
vn 0.9320 -0.2270 -0.2827
vn 0.5003 -0.8432 0.1968
vn 0.7708 0.6326 -0.0759
vn 0.5152 -0.3920 -0.7621
vn 0.9527 -0.2890 0.0938
vn 0.4958 -0.7389 -0.4563
vn 0.7708 0.6326 0.0759
vn 0.5152 -0.3920 0.7621
vn 0.4136 -0.7149 0.5637
vn 0.9161 -0.2890 0.2779
vn 0.8777 0.0975 0.4691
vn 0.8253 -0.5531 -0.1137
vn 0.4173 0.8810 0.2230
vn 0.8792 0.0790 0.4699
vn 0.5140 -0.8416 -0.1661
vn 0.4173 -0.8810 0.2231
vn 0.5987 -0.6326 0.4913
vn 0.1236 -0.8431 0.5234
vn 0.7693 0.0975 0.6314
vn 0.1762 -0.5696 0.8028
vn 0.3658 0.8810 0.3002
vn 0.9515 0.3074 0.0106
vn 0.6073 -0.2890 0.7400
vn 0.3002 0.8810 0.3658
vn 0.6718 -0.7406 0.0133
vn 0.0106 0.3074 0.9515
vn 0.4162 0.4696 0.7786
vn 0.2231 -0.8810 0.4173
vn 0.8124 -0.5827 0.0200
vn 0.4513 -0.2890 0.8443
vn -0.1917 -0.7328 0.6529
vn 0.2563 0.4696 0.8448
vn -0.4938 -0.5135 0.7017
vn 0.4025 -0.8428 0.3573
vn 0.0975 0.0975 0.9904
vn 0.5420 -0.5420 0.6422
vn 0.0974 0.1137 0.9887
vn -0.0624 0.7715 0.6332
vn -0.0974 0.1137 0.9887
vn 0.5254 0.0453 0.8497
vn -0.4025 -0.8428 0.3573
vn -0.0975 0.0975 0.9904
vn -0.5420 -0.5420 0.6422
vn -0.1847 0.7715 0.6088
vn -0.7777 0.1068 0.6194
vn -0.4513 -0.2890 0.8443
vn -0.2231 0.8810 0.4173
vn 0.1736 -0.7295 0.6616
vn -0.2231 -0.8810 0.4173
vn 0.2434 -0.5514 0.7980
vn -0.6073 -0.2890 0.7400
vn -0.3002 0.8810 0.3658
vn -0.6776 -0.7296 0.0921
vn -0.0106 0.3074 0.9515
vn -0.5601 0.4696 0.6825
vn -0.9515 0.3074 0.0106
vn -0.6825 0.4696 0.5601
vn -0.8576 -0.4904 -0.1551
vn -0.2254 -0.9565 0.1850
vn -0.3658 0.8810 0.3002
vn -0.8777 0.0975 0.4691
vn -0.0997 -0.6544 0.7496
vn -0.6831 -0.6326 0.3651
vn 0.1302 -0.7900 0.5991
vn -0.4173 -0.8810 0.2230
vn -0.7412 -0.6326 0.2248
vn -0.4180 -0.8289 -0.3717
vn -0.9524 0.0975 0.2889
vn -0.8397 -0.5052 -0.1991
vn -0.9904 0.0975 0.0976
vn -0.9904 -0.0975 0.0975
vn -0.9527 -0.2890 0.0938
vn -0.4986 -0.7194 0.4835
vn -0.6332 0.7715 0.0624
vn -0.4769 -0.3134 0.8212
vn -0.4769 -0.3134 -0.8212
vn -0.9904 0.0975 -0.0976
vn -0.9904 -0.0975 -0.0975
vn -0.9527 -0.2890 -0.0938
vn -0.4986 -0.7194 -0.4835
vn -0.6332 0.7715 -0.0624
vn -0.7232 -0.5972 0.3468
vn -0.9569 -0.0110 -0.2903
vn -0.4547 -0.8388 0.2995
vn -0.9524 0.0975 -0.2889
vn -0.2907 -0.8396 -0.4589
vn -0.8777 0.0975 -0.4691
vn -0.3334 -0.5678 -0.7527
vn -0.6831 -0.6326 -0.3651
vn -0.3658 0.8810 -0.3002
vn -0.9515 0.3074 -0.0106
vn -0.5601 0.4696 -0.6825
vn -0.8479 -0.5283 0.0444
vn -0.6073 -0.2890 -0.7400
vn -0.3002 0.8810 -0.3658
vn -0.6744 -0.7371 -0.0423
vn -0.0106 0.3074 -0.9515
vn -0.4513 -0.2890 -0.8443
vn 0.1551 -0.7259 -0.6701
vn -0.4162 0.4696 -0.7786
vn 0.3289 -0.4982 -0.8022
vn -0.0624 0.7715 -0.6332
vn -0.0957 -0.2151 -0.9719
vn -0.6636 0.0736 -0.7445
vn -0.3266 -0.8409 -0.4315
vn -0.0976 0.0975 -0.9904
vn -0.5740 -0.5740 -0.5840
vt 0.750000 0.437500
vt 0.718750 0.375000
vt 0.750000 0.375000
vt 0.750000 0.812500
vt 0.718750 0.875000
vt 0.718750 0.812500
vt 0.718750 0.312500
vt 0.750000 0.312500
vt 0.718750 0.750000
vt 0.750000 0.750000
vt 0.750000 0.250000
vt 0.718750 0.250000
vt 0.750000 0.687500
vt 0.718750 0.687500
vt 0.750000 0.187500
vt 0.718750 0.187500
vt 0.750000 0.625000
vt 0.718750 0.625000
vt 0.718750 0.125000
vt 0.750000 0.125000
vt 0.750000 0.562500
vt 0.718750 0.562500
vt 0.718750 0.062500
vt 0.750000 0.062500
vt 0.718750 0.500000
vt 0.750000 0.500000
vt 0.750000 0.937500
vt 0.734375 1.000000
vt 0.718750 0.937500
vt 0.734375 0.000000
vt 0.718750 0.437500
vt 0.750000 0.875000
vt 0.703125 0.000000
vt 0.687500 0.062500
vt 0.687500 0.437500
vt 0.687500 0.875000
vt 0.687500 0.375000
vt 0.687500 0.812500
vt 0.687500 0.312500
vt 0.687500 0.750000
vt 0.687500 0.250000
vt 0.687500 0.687500
vt 0.687500 0.187500
vt 0.687500 0.625000
vt 0.687500 0.125000
vt 0.687500 0.562500
vt 0.687500 0.500000
vt 0.703125 1.000000
vt 0.687500 0.937500
vt 0.656250 0.250000
vt 0.656250 0.187500
vt 0.656250 0.625000
vt 0.656250 0.125000
vt 0.656250 0.562500
vt 0.656250 0.062500
vt 0.656250 0.500000
vt 0.671875 1.000000
vt 0.656250 0.937500
vt 0.671875 0.000000
vt 0.656250 0.437500
vt 0.656250 0.875000
vt 0.656250 0.375000
vt 0.656250 0.812500
vt 0.656250 0.312500
vt 0.656250 0.750000
vt 0.656250 0.687500
vt 0.625000 0.875000
vt 0.625000 0.375000
vt 0.625000 0.812500
vt 0.625000 0.312500
vt 0.625000 0.750000
vt 0.625000 0.250000
vt 0.625000 0.687500
vt 0.625000 0.187500
vt 0.625000 0.625000
vt 0.625000 0.125000
vt 0.625000 0.562500
vt 0.625000 0.062500
vt 0.625000 0.500000
vt 0.640625 1.000000
vt 0.625000 0.937500
vt 0.640625 0.000000
vt 0.625000 0.437500
vt 0.593750 0.625000
vt 0.593750 0.187500
vt 0.593750 0.125000
vt 0.593750 0.562500
vt 0.593750 0.062500
vt 0.593750 0.500000
vt 0.609375 1.000000
vt 0.593750 0.937500
vt 0.609375 0.000000
vt 0.593750 0.437500
vt 0.593750 0.875000
vt 0.593750 0.375000
vt 0.593750 0.812500
vt 0.593750 0.312500
vt 0.593750 0.750000
vt 0.593750 0.250000
vt 0.593750 0.687500
vt 0.562500 0.375000
vt 0.562500 0.812500
vt 0.562500 0.312500
vt 0.562500 0.750000
vt 0.562500 0.250000
vt 0.562500 0.687500
vt 0.562500 0.187500
vt 0.562500 0.625000
vt 0.562500 0.125000
vt 0.562500 0.562500
vt 0.562500 0.062500
vt 0.562500 0.500000
vt 0.578125 1.000000
vt 0.562500 0.937500
vt 0.578125 0.000000
vt 0.562500 0.437500
vt 0.562500 0.875000
vt 0.531250 0.187500
vt 0.531250 0.125000
vt 0.531250 0.625000
vt 0.531250 0.562500
vt 0.531250 0.062500
vt 0.531250 0.500000
vt 0.546875 1.000000
vt 0.531250 0.937500
vt 0.546875 0.000000
vt 0.531250 0.437500
vt 0.531250 0.875000
vt 0.531250 0.375000
vt 0.531250 0.812500
vt 0.531250 0.312500
vt 0.531250 0.750000
vt 0.531250 0.250000
vt 0.531250 0.687500
vt 0.500000 0.812500
vt 0.500000 0.375000
vt 0.500000 0.312500
vt 0.500000 0.750000
vt 0.500000 0.250000
vt 0.500000 0.687500
vt 0.500000 0.187500
vt 0.500000 0.625000
vt 0.500000 0.125000
vt 0.500000 0.562500
vt 0.500000 0.062500
vt 0.500000 0.500000
vt 0.515625 1.000000
vt 0.500000 0.937500
vt 0.515625 0.000000
vt 0.500000 0.437500
vt 0.500000 0.875000
vt 0.468750 0.625000
vt 0.468750 0.562500
vt 0.468750 0.062500
vt 0.468750 0.500000
vt 0.484375 1.000000
vt 0.468750 0.937500
vt 0.484375 0.000000
vt 0.468750 0.437500
vt 0.468750 0.875000
vt 0.468750 0.375000
vt 0.468750 0.812500
vt 0.468750 0.312500
vt 0.468750 0.750000
vt 0.468750 0.250000
vt 0.468750 0.687500
vt 0.468750 0.187500
vt 0.468750 0.125000
vt 0.437500 0.375000
vt 0.437500 0.312500
vt 0.437500 0.750000
vt 0.437500 0.250000
vt 0.437500 0.687500
vt 0.437500 0.187500
vt 0.437500 0.625000
vt 0.437500 0.125000
vt 0.437500 0.562500
vt 0.437500 0.062500
vt 0.437500 0.500000
vt 0.453125 1.000000
vt 0.437500 0.937500
vt 0.453125 0.000000
vt 0.437500 0.437500
vt 0.437500 0.875000
vt 0.437500 0.812500
vt 0.406250 0.062500
vt 0.406250 0.562500
vt 0.406250 0.500000
vt 0.421875 1.000000
vt 0.406250 0.937500
vt 0.421875 0.000000
vt 0.406250 0.437500
vt 0.406250 0.875000
vt 0.406250 0.375000
vt 0.406250 0.812500
vt 0.406250 0.312500
vt 0.406250 0.750000
vt 0.406250 0.250000
vt 0.406250 0.687500
vt 0.406250 0.187500
vt 0.406250 0.625000
vt 0.406250 0.125000
vt 0.375000 0.250000
vt 0.375000 0.750000
vt 0.375000 0.687500
vt 0.375000 0.187500
vt 0.375000 0.625000
vt 0.375000 0.125000
vt 0.375000 0.562500
vt 0.375000 0.062500
vt 0.375000 0.500000
vt 0.390625 1.000000
vt 0.375000 0.937500
vt 0.390625 0.000000
vt 0.375000 0.437500
vt 0.375000 0.875000
vt 0.375000 0.375000
vt 0.375000 0.812500
vt 0.375000 0.312500
vt 0.359375 1.000000
vt 0.343750 0.937500
vt 0.359375 0.000000
vt 0.343750 0.062500
vt 0.343750 0.437500
vt 0.343750 0.875000
vt 0.343750 0.375000
vt 0.343750 0.812500
vt 0.343750 0.312500
vt 0.343750 0.750000
vt 0.343750 0.250000
vt 0.343750 0.687500
vt 0.343750 0.187500
vt 0.343750 0.625000
vt 0.343750 0.125000
vt 0.343750 0.562500
vt 0.343750 0.500000
vt 0.312500 0.750000
vt 0.312500 0.687500
vt 0.312500 0.250000
vt 0.312500 0.187500
vt 0.312500 0.625000
vt 0.312500 0.125000
vt 0.312500 0.562500
vt 0.312500 0.062500
vt 0.312500 0.500000
vt 0.328125 1.000000
vt 0.312500 0.937500
vt 0.328125 0.000000
vt 0.312500 0.437500
vt 0.312500 0.875000
vt 0.312500 0.375000
vt 0.312500 0.812500
vt 0.312500 0.312500
vt 0.281250 0.437500
vt 0.281250 0.875000
vt 0.281250 0.375000
vt 0.281250 0.812500
vt 0.281250 0.312500
vt 0.281250 0.750000
vt 0.281250 0.250000
vt 0.281250 0.687500
vt 0.281250 0.187500
vt 0.281250 0.625000
vt 0.281250 0.125000
vt 0.281250 0.562500
vt 0.281250 0.062500
vt 0.281250 0.500000
vt 0.296875 1.000000
vt 0.281250 0.937500
vt 0.296875 0.000000
vt 0.250000 0.187500
vt 0.250000 0.625000
vt 0.250000 0.125000
vt 0.250000 0.562500
vt 0.250000 0.062500
vt 0.250000 0.500000
vt 0.265625 1.000000
vt 0.250000 0.937500
vt 0.265625 0.000000
vt 0.250000 0.437500
vt 0.250000 0.875000
vt 0.250000 0.375000
vt 0.250000 0.812500
vt 0.250000 0.312500
vt 0.250000 0.750000
vt 0.250000 0.250000
vt 0.250000 0.687500
vt 0.218750 0.875000
vt 0.218750 0.375000
vt 0.218750 0.812500
vt 0.218750 0.312500
vt 0.218750 0.750000
vt 0.218750 0.250000
vt 0.218750 0.687500
vt 0.218750 0.187500
vt 0.218750 0.625000
vt 0.218750 0.125000
vt 0.218750 0.562500
vt 0.218750 0.062500
vt 0.218750 0.500000
vt 0.234375 1.000000
vt 0.218750 0.937500
vt 0.234375 0.000000
vt 0.218750 0.437500
vt 0.187500 0.625000
vt 0.187500 0.125000
vt 0.187500 0.562500
vt 0.187500 0.062500
vt 0.187500 0.500000
vt 0.203125 1.000000
vt 0.187500 0.937500
vt 0.203125 0.000000
vt 0.187500 0.437500
vt 0.187500 0.875000
vt 0.187500 0.375000
vt 0.187500 0.812500
vt 0.187500 0.312500
vt 0.187500 0.750000
vt 0.187500 0.250000
vt 0.187500 0.687500
vt 0.187500 0.187500
vt 0.156250 0.437500
vt 0.156250 0.375000
vt 0.156250 0.812500
vt 0.156250 0.312500
vt 0.156250 0.750000
vt 0.156250 0.250000
vt 0.156250 0.687500
vt 0.156250 0.187500
vt 0.156250 0.625000
vt 0.156250 0.125000
vt 0.156250 0.562500
vt 0.156250 0.062500
vt 0.156250 0.500000
vt 0.171875 1.000000
vt 0.156250 0.937500
vt 0.171875 0.000000
vt 0.156250 0.875000
vt 0.125000 0.125000
vt 0.125000 0.562500
vt 0.125000 0.062500
vt 0.125000 0.500000
vt 0.140625 1.000000
vt 0.125000 0.937500
vt 0.140625 0.000000
vt 0.125000 0.437500
vt 0.125000 0.875000
vt 0.125000 0.375000
vt 0.125000 0.812500
vt 0.125000 0.312500
vt 0.125000 0.750000
vt 0.125000 0.250000
vt 0.125000 0.687500
vt 0.125000 0.187500
vt 0.125000 0.625000
vt 0.093750 0.375000
vt 0.093750 0.312500
vt 0.093750 0.812500
vt 0.093750 0.750000
vt 0.093750 0.250000
vt 0.093750 0.687500
vt 0.093750 0.187500
vt 0.093750 0.625000
vt 0.093750 0.125000
vt 0.093750 0.562500
vt 0.093750 0.062500
vt 0.093750 0.500000
vt 0.109375 1.000000
vt 0.093750 0.937500
vt 0.109375 0.000000
vt 0.093750 0.437500
vt 0.093750 0.875000
vt 0.062500 0.062500
vt 0.062500 0.562500
vt 0.062500 0.500000
vt 0.078125 1.000000
vt 0.062500 0.937500
vt 0.078125 0.000000
vt 0.062500 0.437500
vt 0.062500 0.875000
vt 0.062500 0.375000
vt 0.062500 0.812500
vt 0.062500 0.312500
vt 0.062500 0.750000
vt 0.062500 0.250000
vt 0.062500 0.687500
vt 0.062500 0.187500
vt 0.062500 0.625000
vt 0.062500 0.125000
vt 0.031250 0.750000
vt 0.031250 0.250000
vt 0.031250 0.687500
vt 0.031250 0.187500
vt 0.031250 0.625000
vt 0.031250 0.125000
vt 0.031250 0.562500
vt 0.031250 0.062500
vt 0.031250 0.500000
vt 0.046875 1.000000
vt 0.031250 0.937500
vt 0.046875 0.000000
vt 0.031250 0.437500
vt 0.031250 0.875000
vt 0.031250 0.375000
vt 0.031250 0.812500
vt 0.031250 0.312500
vt 0.000000 0.562500
vt 0.000000 0.500000
vt 0.015625 1.000000
vt 0.000000 0.937500
vt 0.015625 0.000000
vt 0.000000 0.062500
vt 0.000000 0.437500
vt 0.000000 0.875000
vt 0.000000 0.375000
vt 0.000000 0.812500
vt 0.000000 0.312500
vt 0.000000 0.750000
vt 0.000000 0.250000
vt 0.000000 0.687500
vt 0.000000 0.187500
vt 0.000000 0.625000
vt 0.000000 0.125000
vt 1.000000 0.312500
vt 0.968750 0.250000
vt 1.000000 0.250000
vt 1.000000 0.687500
vt 0.968750 0.750000
vt 0.968750 0.687500
vt 1.000000 0.187500
vt 0.968750 0.187500
vt 0.968750 0.625000
vt 1.000000 0.625000
vt 0.968750 0.125000
vt 1.000000 0.125000
vt 1.000000 0.562500
vt 0.968750 0.562500
vt 0.968750 0.062500
vt 1.000000 0.062500
vt 1.000000 0.500000
vt 0.968750 0.500000
vt 1.000000 0.937500
vt 0.984375 1.000000
vt 0.968750 0.937500
vt 0.984375 0.000000
vt 0.968750 0.437500
vt 1.000000 0.437500
vt 0.968750 0.875000
vt 1.000000 0.875000
vt 0.968750 0.375000
vt 1.000000 0.375000
vt 1.000000 0.812500
vt 0.968750 0.812500
vt 0.968750 0.312500
vt 1.000000 0.750000
vt 0.953125 1.000000
vt 0.937500 0.937500
vt 0.953125 0.000000
vt 0.937500 0.062500
vt 0.937500 0.437500
vt 0.937500 0.875000
vt 0.937500 0.375000
vt 0.937500 0.812500
vt 0.937500 0.312500
vt 0.937500 0.750000
vt 0.937500 0.250000
vt 0.937500 0.687500
vt 0.937500 0.187500
vt 0.937500 0.625000
vt 0.937500 0.125000
vt 0.937500 0.562500
vt 0.937500 0.500000
vt 0.906250 0.750000
vt 0.906250 0.687500
vt 0.906250 0.250000
vt 0.906250 0.187500
vt 0.906250 0.625000
vt 0.906250 0.125000
vt 0.906250 0.562500
vt 0.906250 0.062500
vt 0.906250 0.500000
vt 0.921875 1.000000
vt 0.906250 0.937500
vt 0.921875 0.000000
vt 0.906250 0.437500
vt 0.906250 0.875000
vt 0.906250 0.375000
vt 0.906250 0.812500
vt 0.906250 0.312500
vt 0.875000 0.437500
vt 0.875000 0.875000
vt 0.875000 0.375000
vt 0.875000 0.812500
vt 0.875000 0.312500
vt 0.875000 0.750000
vt 0.875000 0.250000
vt 0.875000 0.687500
vt 0.875000 0.187500
vt 0.875000 0.625000
vt 0.875000 0.125000
vt 0.875000 0.562500
vt 0.875000 0.062500
vt 0.875000 0.500000
vt 0.890625 1.000000
vt 0.875000 0.937500
vt 0.890625 0.000000
vt 0.843750 0.250000
vt 0.843750 0.187500
vt 0.843750 0.687500
vt 0.843750 0.625000
vt 0.843750 0.125000
vt 0.843750 0.562500
vt 0.843750 0.062500
vt 0.843750 0.500000
vt 0.859375 1.000000
vt 0.843750 0.937500
vt 0.859375 0.000000
vt 0.843750 0.437500
vt 0.843750 0.875000
vt 0.843750 0.375000
vt 0.843750 0.812500
vt 0.843750 0.312500
vt 0.843750 0.750000
vt 0.812500 0.375000
vt 0.812500 0.812500
vt 0.812500 0.312500
vt 0.812500 0.750000
vt 0.812500 0.250000
vt 0.812500 0.687500
vt 0.812500 0.187500
vt 0.812500 0.625000
vt 0.812500 0.125000
vt 0.812500 0.562500
vt 0.812500 0.062500
vt 0.812500 0.500000
vt 0.828125 1.000000
vt 0.812500 0.937500
vt 0.828125 0.000000
vt 0.812500 0.437500
vt 0.812500 0.875000
vt 0.781250 0.125000
vt 0.781250 0.625000
vt 0.781250 0.562500
vt 0.781250 0.062500
vt 0.781250 0.500000
vt 0.796875 1.000000
vt 0.781250 0.937500
vt 0.796875 0.000000
vt 0.781250 0.437500
vt 0.781250 0.875000
vt 0.781250 0.375000
vt 0.781250 0.812500
vt 0.781250 0.312500
vt 0.781250 0.750000
vt 0.781250 0.250000
vt 0.781250 0.687500
vt 0.781250 0.187500
vt 0.765625 1.000000
vt 0.765625 0.000000
s 0
usemtl マテリアル
f 6/1/1 18/2/1 478/3/1
f 2/4/2 10/5/2 11/6/2
f 478/3/3 19/7/3 7/8/3
f 2/4/4 12/9/4 476/10/4
f 479/11/5 19/7/5 20/12/5
f 3/13/6 12/9/6 13/14/6
f 480/15/7 20/12/7 21/16/7
f 477/17/8 13/14/8 14/18/8
f 480/15/9 22/19/9 481/20/9
f 4/21/10 14/18/10 15/22/10
f 481/20/11 23/23/11 482/24/11
f 4/21/12 16/25/12 5/26/12
f 474/27/13 1/28/13 9/29/13
f 8/30/14 482/24/14 23/23/14
f 6/1/15 16/25/15 17/31/15
f 475/32/16 9/29/16 10/5/16
f 8/33/17 23/23/17 38/34/17
f 16/25/18 32/35/18 17/31/18
f 9/29/19 25/36/19 10/5/19
f 18/2/20 32/35/20 33/37/20
f 10/5/21 26/38/21 11/6/21
f 18/2/22 34/39/22 19/7/22
f 11/6/23 27/40/23 12/9/23
f 19/7/24 35/41/24 20/12/24
f 12/9/25 28/42/25 13/14/25
f 21/16/26 35/41/26 36/43/26
f 13/14/27 29/44/27 14/18/27
f 22/19/28 36/43/28 37/45/28
f 15/22/29 29/44/29 30/46/29
f 22/19/30 38/34/30 23/23/30
f 15/22/31 31/47/31 16/25/31
f 9/29/32 1/48/32 24/49/32
f 36/43/33 50/50/33 51/51/33
f 28/42/34 44/52/34 29/44/34
f 36/43/35 52/53/35 37/45/35
f 29/44/36 45/54/36 30/46/36
f 37/45/37 53/55/37 38/34/37
f 30/46/38 46/56/38 31/47/38
f 24/49/39 1/57/39 39/58/39
f 8/59/40 38/34/40 53/55/40
f 32/35/41 46/56/41 47/60/41
f 24/49/42 40/61/42 25/36/42
f 32/35/43 48/62/43 33/37/43
f 25/36/44 41/63/44 26/38/44
f 34/39/45 48/62/45 49/64/45
f 26/38/46 42/65/46 27/40/46
f 35/41/47 49/64/47 50/50/47
f 27/40/48 43/66/48 28/42/48
f 39/58/49 55/67/49 40/61/49
f 47/60/50 63/68/50 48/62/50
f 41/63/51 55/67/51 56/69/51
f 49/64/52 63/68/52 64/70/52
f 41/63/53 57/71/53 42/65/53
f 49/64/54 65/72/54 50/50/54
f 42/65/55 58/73/55 43/66/55
f 50/50/56 66/74/56 51/51/56
f 44/52/57 58/73/57 59/75/57
f 51/51/58 67/76/58 52/53/58
f 44/52/59 60/77/59 45/54/59
f 52/53/60 68/78/60 53/55/60
f 46/56/61 60/77/61 61/79/61
f 39/58/62 1/80/62 54/81/62
f 8/82/63 53/55/63 68/78/63
f 46/56/64 62/83/64 47/60/64
f 58/73/65 74/84/65 59/75/65
f 67/76/66 81/85/66 82/86/66
f 60/77/67 74/84/67 75/87/67
f 67/76/68 83/88/68 68/78/68
f 61/79/69 75/87/69 76/89/69
f 54/81/70 1/90/70 69/91/70
f 8/92/71 68/78/71 83/88/71
f 61/79/72 77/93/72 62/83/72
f 54/81/73 70/94/73 55/67/73
f 62/83/74 78/95/74 63/68/74
f 55/67/75 71/96/75 56/69/75
f 64/70/76 78/95/76 79/97/76
f 57/71/77 71/96/77 72/98/77
f 64/70/78 80/99/78 65/72/78
f 58/73/79 72/98/79 73/100/79
f 65/72/80 81/85/80 66/74/80
f 77/93/81 93/101/81 78/95/81
f 70/94/82 86/102/82 71/96/82
f 79/97/83 93/101/83 94/103/83
f 71/96/84 87/104/84 72/98/84
f 80/99/85 94/103/85 95/105/85
f 73/100/86 87/104/86 88/106/86
f 80/99/87 96/107/87 81/85/87
f 73/100/88 89/108/88 74/84/88
f 81/85/89 97/109/89 82/86/89
f 75/87/90 89/108/90 90/110/90
f 83/88/91 97/109/91 98/111/91
f 76/89/92 90/110/92 91/112/92
f 69/91/93 1/113/93 84/114/93
f 8/115/94 83/88/94 98/111/94
f 77/93/95 91/112/95 92/116/95
f 69/91/96 85/117/96 70/94/96
f 97/109/97 111/118/97 112/119/97
f 90/110/98 104/120/98 105/121/98
f 97/109/99 113/122/99 98/111/99
f 91/112/100 105/121/100 106/123/100
f 84/114/101 1/124/101 99/125/101
f 8/126/102 98/111/102 113/122/102
f 91/112/103 107/127/103 92/116/103
f 85/117/104 99/125/104 100/128/104
f 93/101/105 107/127/105 108/129/105
f 85/117/106 101/130/106 86/102/106
f 94/103/107 108/129/107 109/131/107
f 86/102/108 102/132/108 87/104/108
f 95/105/109 109/131/109 110/133/109
f 88/106/110 102/132/110 103/134/110
f 96/107/111 110/133/111 111/118/111
f 88/106/112 104/120/112 89/108/112
f 100/128/113 116/135/113 101/130/113
f 109/131/114 123/136/114 124/137/114
f 101/130/115 117/138/115 102/132/115
f 109/131/116 125/139/116 110/133/116
f 103/134/117 117/138/117 118/140/117
f 111/118/118 125/139/118 126/141/118
f 103/134/119 119/142/119 104/120/119
f 111/118/120 127/143/120 112/119/120
f 105/121/121 119/142/121 120/144/121
f 112/119/122 128/145/122 113/122/122
f 106/123/123 120/144/123 121/146/123
f 99/125/124 1/147/124 114/148/124
f 8/149/125 113/122/125 128/145/125
f 106/123/126 122/150/126 107/127/126
f 100/128/127 114/148/127 115/151/127
f 107/127/128 123/136/128 108/129/128
f 120/144/129 134/152/129 135/153/129
f 127/143/130 143/154/130 128/145/130
f 121/146/131 135/153/131 136/155/131
f 114/148/132 1/156/132 129/157/132
f 8/158/133 128/145/133 143/154/133
f 121/146/134 137/159/134 122/150/134
f 114/148/135 130/160/135 115/151/135
f 123/136/136 137/159/136 138/161/136
f 115/151/137 131/162/137 116/135/137
f 123/136/138 139/163/138 124/137/138
f 116/135/139 132/164/139 117/138/139
f 124/137/140 140/165/140 125/139/140
f 117/138/141 133/166/141 118/140/141
f 126/141/142 140/165/142 141/167/142
f 119/142/143 133/166/143 134/152/143
f 126/141/144 142/168/144 127/143/144
f 139/163/145 153/169/145 154/170/145
f 131/162/146 147/171/146 132/164/146
f 139/163/147 155/172/147 140/165/147
f 133/166/148 147/171/148 148/173/148
f 141/167/149 155/172/149 156/174/149
f 133/166/150 149/175/150 134/152/150
f 141/167/151 157/176/151 142/168/151
f 135/153/152 149/175/152 150/177/152
f 143/154/153 157/176/153 158/178/153
f 136/155/154 150/177/154 151/179/154
f 129/157/155 1/180/155 144/181/155
f 8/182/156 143/154/156 158/178/156
f 136/155/157 152/183/157 137/159/157
f 129/157/158 145/184/158 130/160/158
f 137/159/159 153/169/159 138/161/159
f 131/162/160 145/184/160 146/185/160
f 157/176/161 173/186/161 158/178/161
f 151/179/162 165/187/162 166/188/162
f 144/181/163 1/189/163 159/190/163
f 8/191/164 158/178/164 173/186/164
f 151/179/165 167/192/165 152/183/165
f 144/181/166 160/193/166 145/184/166
f 152/183/167 168/194/167 153/169/167
f 146/185/168 160/193/168 161/195/168
f 154/170/169 168/194/169 169/196/169
f 146/185/170 162/197/170 147/171/170
f 154/170/171 170/198/171 155/172/171
f 148/173/172 162/197/172 163/199/172
f 155/172/173 171/200/173 156/174/173
f 148/173/174 164/201/174 149/175/174
f 156/174/175 172/202/175 157/176/175
f 150/177/176 164/201/176 165/187/176
f 169/196/177 185/203/177 170/198/177
f 163/199/178 177/204/178 178/205/178
f 171/200/179 185/203/179 186/206/179
f 163/199/180 179/207/180 164/201/180
f 172/202/181 186/206/181 187/208/181
f 165/187/182 179/207/182 180/209/182
f 173/186/183 187/208/183 188/210/183
f 165/187/184 181/211/184 166/188/184
f 159/190/185 1/212/185 174/213/185
f 8/214/186 173/186/186 188/210/186
f 167/192/187 181/211/187 182/215/187
f 159/190/188 175/216/188 160/193/188
f 167/192/189 183/217/189 168/194/189
f 161/195/190 175/216/190 176/218/190
f 169/196/191 183/217/191 184/219/191
f 161/195/192 177/204/192 162/197/192
f 174/213/193 1/220/193 189/221/193
f 8/222/194 188/210/194 203/223/194
f 181/211/195 197/224/195 182/215/195
f 175/216/196 189/221/196 190/225/196
f 183/217/197 197/224/197 198/226/197
f 175/216/198 191/227/198 176/218/198
f 183/217/199 199/228/199 184/219/199
f 177/204/200 191/227/200 192/229/200
f 184/219/201 200/230/201 185/203/201
f 178/205/202 192/229/202 193/231/202
f 186/206/203 200/230/203 201/232/203
f 178/205/204 194/233/204 179/207/204
f 186/206/205 202/234/205 187/208/205
f 180/209/206 194/233/206 195/235/206
f 187/208/207 203/223/207 188/210/207
f 181/211/208 195/235/208 196/236/208
f 193/231/209 207/237/209 208/238/209
f 201/232/210 215/239/210 216/240/210
f 194/233/211 208/238/211 209/241/211
f 201/232/212 217/242/212 202/234/212
f 194/233/213 210/243/213 195/235/213
f 202/234/214 218/244/214 203/223/214
f 196/236/215 210/243/215 211/245/215
f 189/221/216 1/246/216 204/247/216
f 8/248/217 203/223/217 218/244/217
f 196/236/218 212/249/218 197/224/218
f 189/221/219 205/250/219 190/225/219
f 197/224/220 213/251/220 198/226/220
f 190/225/221 206/252/221 191/227/221
f 199/228/222 213/251/222 214/253/222
f 191/227/223 207/237/223 192/229/223
f 199/228/224 215/239/224 200/230/224
f 211/245/225 227/254/225 212/249/225
f 204/247/226 220/255/226 205/250/226
f 212/249/227 228/256/227 213/251/227
f 205/250/228 221/257/228 206/252/228
f 214/253/229 228/256/229 229/258/229
f 206/252/230 222/259/230 207/237/230
f 214/253/231 230/260/231 215/239/231
f 208/238/232 222/259/232 223/261/232
f 216/240/233 230/260/233 231/262/233
f 208/238/234 224/263/234 209/241/234
f 216/240/235 232/264/235 217/242/235
f 210/243/236 224/263/236 225/265/236
f 217/242/237 233/266/237 218/244/237
f 211/245/238 225/265/238 226/267/238
f 204/247/239 1/268/239 219/269/239
f 8/270/240 218/244/240 233/266/240
f 230/260/241 246/271/241 231/262/241
f 223/261/242 239/272/242 224/263/242
f 231/262/243 247/273/243 232/264/243
f 225/265/244 239/272/244 240/274/244
f 233/266/245 247/273/245 248/275/245
f 226/267/246 240/274/246 241/276/246
f 219/269/247 1/277/247 234/278/247
f 8/279/248 233/266/248 248/275/248
f 226/267/249 242/280/249 227/254/249
f 219/269/250 235/281/250 220/255/250
f 227/254/251 243/282/251 228/256/251
f 221/257/252 235/281/252 236/283/252
f 229/258/253 243/282/253 244/284/253
f 221/257/254 237/285/254 222/259/254
f 229/258/255 245/286/255 230/260/255
f 223/261/256 237/285/256 238/287/256
f 234/278/257 250/288/257 235/281/257
f 242/280/258 258/289/258 243/282/258
f 235/281/259 251/290/259 236/283/259
f 244/284/260 258/289/260 259/291/260
f 237/285/261 251/290/261 252/292/261
f 245/286/262 259/291/262 260/293/262
f 237/285/263 253/294/263 238/287/263
f 246/271/264 260/293/264 261/295/264
f 238/287/265 254/296/265 239/272/265
f 246/271/266 262/297/266 247/273/266
f 240/274/267 254/296/267 255/298/267
f 247/273/268 263/299/268 248/275/268
f 240/274/269 256/300/269 241/276/269
f 234/278/270 1/301/270 249/302/270
f 8/303/271 248/275/271 263/299/271
f 242/280/272 256/300/272 257/304/272
f 253/294/273 269/305/273 254/296/273
f 261/295/274 277/306/274 262/297/274
f 255/298/275 269/305/275 270/307/275
f 262/297/276 278/308/276 263/299/276
f 256/300/277 270/307/277 271/309/277
f 249/302/278 1/310/278 264/311/278
f 8/312/279 263/299/279 278/308/279
f 256/300/280 272/313/280 257/304/280
f 250/288/281 264/311/281 265/314/281
f 257/304/282 273/315/282 258/289/282
f 250/288/283 266/316/283 251/290/283
f 259/291/284 273/315/284 274/317/284
f 251/290/285 267/318/285 252/292/285
f 259/291/286 275/319/286 260/293/286
f 253/294/287 267/318/287 268/320/287
f 261/295/288 275/319/288 276/321/288
f 273/315/289 287/322/289 288/323/289
f 265/314/290 281/324/290 266/316/290
f 273/315/291 289/325/291 274/317/291
f 266/316/292 282/326/292 267/318/292
f 274/317/293 290/327/293 275/319/293
f 268/320/294 282/326/294 283/328/294
f 276/321/295 290/327/295 291/329/295
f 268/320/296 284/330/296 269/305/296
f 276/321/297 292/331/297 277/306/297
f 270/307/298 284/330/298 285/332/298
f 278/308/299 292/331/299 293/333/299
f 271/309/300 285/332/300 286/334/300
f 264/311/301 1/335/301 279/336/301
f 8/337/302 278/308/302 293/333/302
f 271/309/303 287/322/303 272/313/303
f 265/314/304 279/336/304 280/338/304
f 291/329/305 307/339/305 292/331/305
f 284/330/306 300/340/306 285/332/306
f 293/333/307 307/339/307 308/341/307
f 286/334/308 300/340/308 301/342/308
f 279/336/309 1/343/309 294/344/309
f 8/345/310 293/333/310 308/341/310
f 286/334/311 302/346/311 287/322/311
f 279/336/312 295/347/312 280/338/312
f 287/322/313 303/348/313 288/323/313
f 281/324/314 295/347/314 296/349/314
f 289/325/315 303/348/315 304/350/315
f 281/324/316 297/351/316 282/326/316
f 289/325/317 305/352/317 290/327/317
f 283/328/318 297/351/318 298/353/318
f 291/329/319 305/352/319 306/354/319
f 284/330/320 298/353/320 299/355/320
f 304/350/321 318/356/321 319/357/321
f 297/351/322 311/358/322 312/359/322
f 304/350/323 320/360/323 305/352/323
f 298/353/324 312/359/324 313/361/324
f 306/354/325 320/360/325 321/362/325
f 298/353/326 314/363/326 299/355/326
f 306/354/327 322/364/327 307/339/327
f 300/340/328 314/363/328 315/365/328
f 307/339/329 323/366/329 308/341/329
f 301/342/330 315/365/330 316/367/330
f 294/344/331 1/368/331 309/369/331
f 8/370/332 308/341/332 323/366/332
f 301/342/333 317/371/333 302/346/333
f 294/344/334 310/372/334 295/347/334
f 302/346/335 318/356/335 303/348/335
f 295/347/336 311/358/336 296/349/336
f 322/364/337 338/373/337 323/366/337
f 316/367/338 330/374/338 331/375/338
f 309/369/339 1/376/339 324/377/339
f 8/378/340 323/366/340 338/373/340
f 316/367/341 332/379/341 317/371/341
f 309/369/342 325/380/342 310/372/342
f 317/371/343 333/381/343 318/356/343
f 310/372/344 326/382/344 311/358/344
f 319/357/345 333/381/345 334/383/345
f 311/358/346 327/384/346 312/359/346
f 320/360/347 334/383/347 335/385/347
f 312/359/348 328/386/348 313/361/348
f 320/360/349 336/387/349 321/362/349
f 313/361/350 329/388/350 314/363/350
f 321/362/351 337/389/351 322/364/351
f 315/365/352 329/388/352 330/374/352
f 326/382/353 342/390/353 327/384/353
f 334/383/354 350/391/354 335/385/354
f 328/386/355 342/390/355 343/392/355
f 336/387/356 350/391/356 351/393/356
f 328/386/357 344/394/357 329/388/357
f 336/387/358 352/395/358 337/389/358
f 330/374/359 344/394/359 345/396/359
f 337/389/360 353/397/360 338/373/360
f 330/374/361 346/398/361 331/375/361
f 324/377/362 1/399/362 339/400/362
f 8/401/363 338/373/363 353/397/363
f 332/379/364 346/398/364 347/402/364
f 324/377/365 340/403/365 325/380/365
f 332/379/366 348/404/366 333/381/366
f 325/380/367 341/405/367 326/382/367
f 334/383/368 348/404/368 349/406/368
f 346/398/369 360/407/369 361/408/369
f 339/400/370 1/409/370 354/410/370
f 8/411/371 353/397/371 368/412/371
f 346/398/372 362/413/372 347/402/372
f 339/400/373 355/414/373 340/403/373
f 348/404/374 362/413/374 363/415/374
f 341/405/375 355/414/375 356/416/375
f 348/404/376 364/417/376 349/406/376
f 342/390/377 356/416/377 357/418/377
f 349/406/378 365/419/378 350/391/378
f 342/390/379 358/420/379 343/392/379
f 351/393/380 365/419/380 366/421/380
f 343/392/381 359/422/381 344/394/381
f 351/393/382 367/423/382 352/395/382
f 345/396/383 359/422/383 360/407/383
f 352/395/384 368/412/384 353/397/384
f 364/424/385 380/425/385 365/426/385
f 358/427/386 372/428/386 373/429/386
f 366/430/387 380/425/387 381/431/387
f 358/427/388 374/432/388 359/433/388
f 366/430/389 382/434/389 367/435/389
f 360/436/390 374/432/390 375/437/390
f 367/435/391 383/438/391 368/439/391
f 361/440/392 375/437/392 376/441/392
f 354/442/393 1/443/393 369/444/393
f 8/445/394 368/439/394 383/438/394
f 361/440/395 377/446/395 362/447/395
f 354/442/396 370/448/396 355/449/396
f 362/447/397 378/450/397 363/451/397
f 356/452/398 370/448/398 371/453/398
f 364/424/399 378/450/399 379/454/399
f 356/452/400 372/428/400 357/455/400
f 369/444/401 1/456/401 384/457/401
f 8/458/402 383/438/402 398/459/402
f 376/441/403 392/460/403 377/446/403
f 369/444/404 385/461/404 370/448/404
f 377/446/405 393/462/405 378/450/405
f 371/453/406 385/461/406 386/463/406
f 379/454/407 393/462/407 394/464/407
f 371/453/408 387/465/408 372/428/408
f 379/454/409 395/466/409 380/425/409
f 373/429/410 387/465/410 388/467/410
f 380/425/411 396/468/411 381/431/411
f 373/429/412 389/469/412 374/432/412
f 381/431/413 397/470/413 382/434/413
f 375/437/414 389/469/414 390/471/414
f 382/434/415 398/459/415 383/438/415
f 376/441/416 390/471/416 391/472/416
f 388/467/417 402/473/417 403/474/417
f 396/468/418 410/475/418 411/476/418
f 388/467/419 404/477/419 389/469/419
f 397/470/420 411/476/420 412/478/420
f 390/471/421 404/477/421 405/479/421
f 397/470/422 413/480/422 398/459/422
f 390/471/423 406/481/423 391/472/423
f 384/457/424 1/482/424 399/483/424
f 8/484/425 398/459/425 413/480/425
f 392/460/426 406/481/426 407/485/426
f 385/461/427 399/483/427 400/486/427
f 392/460/428 408/487/428 393/462/428
f 385/461/429 401/488/429 386/463/429
f 394/464/430 408/487/430 409/489/430
f 386/463/431 402/473/431 387/465/431
f 394/464/432 410/475/432 395/466/432
f 406/481/433 422/490/433 407/485/433
f 399/483/434 415/491/434 400/486/434
f 407/485/435 423/492/435 408/487/435
f 401/488/436 415/491/436 416/493/436
f 409/489/437 423/492/437 424/494/437
f 401/488/438 417/495/438 402/473/438
f 409/489/439 425/496/439 410/475/439
f 403/474/440 417/495/440 418/497/440
f 411/476/441 425/496/441 426/498/441
f 403/474/442 419/499/442 404/477/442
f 411/476/443 427/500/443 412/478/443
f 405/479/444 419/499/444 420/501/444
f 412/478/445 428/502/445 413/480/445
f 406/481/446 420/501/446 421/503/446
f 399/483/447 1/504/447 414/505/447
f 8/506/448 413/480/448 428/502/448
f 426/498/449 440/507/449 441/508/449
f 419/499/450 433/509/450 434/510/450
f 426/498/451 442/511/451 427/500/451
f 419/499/452 435/512/452 420/501/452
f 427/500/453 443/513/453 428/502/453
f 421/503/454 435/512/454 436/514/454
f 414/505/455 1/515/455 429/516/455
f 8/517/456 428/502/456 443/513/456
f 421/503/457 437/518/457 422/490/457
f 414/505/458 430/519/458 415/491/458
f 423/492/459 437/518/459 438/520/459
f 415/491/460 431/521/460 416/493/460
f 423/492/461 439/522/461 424/494/461
f 417/495/462 431/521/462 432/523/462
f 424/494/463 440/507/463 425/496/463
f 418/497/464 432/523/464 433/509/464
f 437/518/465 453/524/465 438/520/465
f 430/519/466 446/525/466 431/521/466
f 439/522/467 453/524/467 454/526/467
f 431/521/468 447/527/468 432/523/468
f 439/522/469 455/528/469 440/507/469
f 433/509/470 447/527/470 448/529/470
f 441/508/471 455/528/471 456/530/471
f 433/509/472 449/531/472 434/510/472
f 441/508/473 457/532/473 442/511/473
f 435/512/474 449/531/474 450/533/474
f 442/511/475 458/534/475 443/513/475
f 436/514/476 450/533/476 451/535/476
f 429/516/477 1/536/477 444/537/477
f 8/538/478 443/513/478 458/534/478
f 436/514/479 452/539/479 437/518/479
f 430/519/480 444/537/480 445/540/480
f 456/530/481 472/541/481 457/532/481
f 450/533/482 464/542/482 465/543/482
f 458/534/483 472/541/483 473/544/483
f 451/535/484 465/543/484 466/545/484
f 444/537/485 1/546/485 459/547/485
f 8/548/486 458/534/486 473/544/486
f 451/535/487 467/549/487 452/539/487
f 444/537/488 460/550/488 445/540/488
f 452/539/489 468/551/489 453/524/489
f 446/525/490 460/550/490 461/552/490
f 454/526/491 468/551/491 469/553/491
f 446/525/492 462/554/492 447/527/492
f 454/526/493 470/555/493 455/528/493
f 448/529/494 462/554/494 463/556/494
f 456/530/495 470/555/495 471/557/495
f 448/529/496 464/542/496 449/531/496
f 461/552/497 475/32/497 2/4/497
f 468/551/498 7/8/498 469/553/498
f 462/554/499 2/4/499 476/10/499
f 469/553/500 479/11/500 470/555/500
f 462/554/501 3/13/501 463/556/501
f 470/555/502 480/15/502 471/557/502
f 464/542/503 3/13/503 477/17/503
f 471/557/504 481/20/504 472/541/504
f 465/543/505 477/17/505 4/21/505
f 472/541/506 482/24/506 473/544/506
f 466/545/507 4/21/507 5/26/507
f 459/547/508 1/558/508 474/27/508
f 8/559/509 473/544/509 482/24/509
f 466/545/510 6/1/510 467/549/510
f 460/550/511 474/27/511 475/32/511
f 467/549/512 478/3/512 468/551/512
f 6/1/1 17/31/1 18/2/1
f 2/4/2 475/32/2 10/5/2
f 478/3/3 18/2/3 19/7/3
f 2/4/513 11/6/513 12/9/513
f 479/11/514 7/8/514 19/7/514
f 3/13/515 476/10/515 12/9/515
f 480/15/516 479/11/516 20/12/516
f 477/17/8 3/13/8 13/14/8
f 480/15/9 21/16/9 22/19/9
f 4/21/10 477/17/10 14/18/10
f 481/20/11 22/19/11 23/23/11
f 4/21/517 15/22/517 16/25/517
f 6/1/518 5/26/518 16/25/518
f 475/32/16 474/27/16 9/29/16
f 16/25/18 31/47/18 32/35/18
f 9/29/19 24/49/19 25/36/19
f 18/2/519 17/31/519 32/35/519
f 10/5/21 25/36/21 26/38/21
f 18/2/520 33/37/520 34/39/520
f 11/6/23 26/38/23 27/40/23
f 19/7/24 34/39/24 35/41/24
f 12/9/25 27/40/25 28/42/25
f 21/16/26 20/12/26 35/41/26
f 13/14/27 28/42/27 29/44/27
f 22/19/28 21/16/28 36/43/28
f 15/22/29 14/18/29 29/44/29
f 22/19/30 37/45/30 38/34/30
f 15/22/31 30/46/31 31/47/31
f 36/43/33 35/41/33 50/50/33
f 28/42/34 43/66/34 44/52/34
f 36/43/521 51/51/521 52/53/521
f 29/44/36 44/52/36 45/54/36
f 37/45/37 52/53/37 53/55/37
f 30/46/38 45/54/38 46/56/38
f 32/35/41 31/47/41 46/56/41
f 24/49/42 39/58/42 40/61/42
f 32/35/522 47/60/522 48/62/522
f 25/36/523 40/61/523 41/63/523
f 34/39/524 33/37/524 48/62/524
f 26/38/46 41/63/46 42/65/46
f 35/41/47 34/39/47 49/64/47
f 27/40/48 42/65/48 43/66/48
f 39/58/49 54/81/49 55/67/49
f 47/60/50 62/83/50 63/68/50
f 41/63/525 40/61/525 55/67/525
f 49/64/52 48/62/52 63/68/52
f 41/63/526 56/69/526 57/71/526
f 49/64/54 64/70/54 65/72/54
f 42/65/55 57/71/55 58/73/55
f 50/50/56 65/72/56 66/74/56
f 44/52/527 43/66/527 58/73/527
f 51/51/58 66/74/58 67/76/58
f 44/52/528 59/75/528 60/77/528
f 52/53/60 67/76/60 68/78/60
f 46/56/61 45/54/61 60/77/61
f 46/56/64 61/79/64 62/83/64
f 58/73/529 73/100/529 74/84/529
f 67/76/66 66/74/66 81/85/66
f 60/77/530 59/75/530 74/84/530
f 67/76/531 82/86/531 83/88/531
f 61/79/69 60/77/69 75/87/69
f 61/79/72 76/89/72 77/93/72
f 54/81/73 69/91/73 70/94/73
f 62/83/74 77/93/74 78/95/74
f 55/67/532 70/94/532 71/96/532
f 64/70/76 63/68/76 78/95/76
f 57/71/533 56/69/533 71/96/533
f 64/70/78 79/97/78 80/99/78
f 58/73/79 57/71/79 72/98/79
f 65/72/80 80/99/80 81/85/80
f 77/93/534 92/116/534 93/101/534
f 70/94/82 85/117/82 86/102/82
f 79/97/83 78/95/83 93/101/83
f 71/96/84 86/102/84 87/104/84
f 80/99/535 79/97/535 94/103/535
f 73/100/86 72/98/86 87/104/86
f 80/99/536 95/105/536 96/107/536
f 73/100/88 88/106/88 89/108/88
f 81/85/89 96/107/89 97/109/89
f 75/87/90 74/84/90 89/108/90
f 83/88/91 82/86/91 97/109/91
f 76/89/92 75/87/92 90/110/92
f 77/93/537 76/89/537 91/112/537
f 69/91/96 84/114/96 85/117/96
f 97/109/97 96/107/97 111/118/97
f 90/110/98 89/108/98 104/120/98
f 97/109/99 112/119/99 113/122/99
f 91/112/100 90/110/100 105/121/100
f 91/112/538 106/123/538 107/127/538
f 85/117/104 84/114/104 99/125/104
f 93/101/539 92/116/539 107/127/539
f 85/117/106 100/128/106 101/130/106
f 94/103/107 93/101/107 108/129/107
f 86/102/108 101/130/108 102/132/108
f 95/105/540 94/103/540 109/131/540
f 88/106/110 87/104/110 102/132/110
f 96/107/541 95/105/541 110/133/541
f 88/106/112 103/134/112 104/120/112
f 100/128/113 115/151/113 116/135/113
f 109/131/114 108/129/114 123/136/114
f 101/130/115 116/135/115 117/138/115
f 109/131/116 124/137/116 125/139/116
f 103/134/542 102/132/542 117/138/542
f 111/118/118 110/133/118 125/139/118
f 103/134/543 118/140/543 119/142/543
f 111/118/120 126/141/120 127/143/120
f 105/121/121 104/120/121 119/142/121
f 112/119/122 127/143/122 128/145/122
f 106/123/123 105/121/123 120/144/123
f 106/123/126 121/146/126 122/150/126
f 100/128/127 99/125/127 114/148/127
f 107/127/128 122/150/128 123/136/128
f 120/144/129 119/142/129 134/152/129
f 127/143/130 142/168/130 143/154/130
f 121/146/131 120/144/131 135/153/131
f 121/146/134 136/155/134 137/159/134
f 114/148/135 129/157/135 130/160/135
f 123/136/544 122/150/544 137/159/544
f 115/151/137 130/160/137 131/162/137
f 123/136/545 138/161/545 139/163/545
f 116/135/139 131/162/139 132/164/139
f 124/137/140 139/163/140 140/165/140
f 117/138/546 132/164/546 133/166/546
f 126/141/142 125/139/142 140/165/142
f 119/142/547 118/140/547 133/166/547
f 126/141/144 141/167/144 142/168/144
f 139/163/548 138/161/548 153/169/548
f 131/162/146 146/185/146 147/171/146
f 139/163/147 154/170/147 155/172/147
f 133/166/148 132/164/148 147/171/148
f 141/167/149 140/165/149 155/172/149
f 133/166/150 148/173/150 149/175/150
f 141/167/151 156/174/151 157/176/151
f 135/153/152 134/152/152 149/175/152
f 143/154/153 142/168/153 157/176/153
f 136/155/154 135/153/154 150/177/154
f 136/155/157 151/179/157 152/183/157
f 129/157/158 144/181/158 145/184/158
f 137/159/549 152/183/549 153/169/549
f 131/162/160 130/160/160 145/184/160
f 157/176/161 172/202/161 173/186/161
f 151/179/550 150/177/550 165/187/550
f 151/179/551 166/188/551 167/192/551
f 144/181/166 159/190/166 160/193/166
f 152/183/167 167/192/167 168/194/167
f 146/185/552 145/184/552 160/193/552
f 154/170/169 153/169/169 168/194/169
f 146/185/170 161/195/170 162/197/170
f 154/170/553 169/196/553 170/198/553
f 148/173/172 147/171/172 162/197/172
f 155/172/554 170/198/554 171/200/554
f 148/173/174 163/199/174 164/201/174
f 156/174/555 171/200/555 172/202/555
f 150/177/176 149/175/176 164/201/176
f 169/196/556 184/219/556 185/203/556
f 163/199/178 162/197/178 177/204/178
f 171/200/557 170/198/557 185/203/557
f 163/199/180 178/205/180 179/207/180
f 172/202/181 171/200/181 186/206/181
f 165/187/182 164/201/182 179/207/182
f 173/186/183 172/202/183 187/208/183
f 165/187/558 180/209/558 181/211/558
f 167/192/559 166/188/559 181/211/559
f 159/190/188 174/213/188 175/216/188
f 167/192/189 182/215/189 183/217/189
f 161/195/560 160/193/560 175/216/560
f 169/196/191 168/194/191 183/217/191
f 161/195/561 176/218/561 177/204/561
f 181/211/195 196/236/195 197/224/195
f 175/216/196 174/213/196 189/221/196
f 183/217/562 182/215/562 197/224/562
f 175/216/563 190/225/563 191/227/563
f 183/217/564 198/226/564 199/228/564
f 177/204/565 176/218/565 191/227/565
f 184/219/201 199/228/201 200/230/201
f 178/205/202 177/204/202 192/229/202
f 186/206/203 185/203/203 200/230/203
f 178/205/204 193/231/204 194/233/204
f 186/206/205 201/232/205 202/234/205
f 180/209/206 179/207/206 194/233/206
f 187/208/207 202/234/207 203/223/207
f 181/211/208 180/209/208 195/235/208
f 193/231/209 192/229/209 207/237/209
f 201/232/210 200/230/210 215/239/210
f 194/233/566 193/231/566 208/238/566
f 201/232/567 216/240/567 217/242/567
f 194/233/568 209/241/568 210/243/568
f 202/234/214 217/242/214 218/244/214
f 196/236/215 195/235/215 210/243/215
f 196/236/218 211/245/218 212/249/218
f 189/221/219 204/247/219 205/250/219
f 197/224/569 212/249/569 213/251/569
f 190/225/221 205/250/221 206/252/221
f 199/228/570 198/226/570 213/251/570
f 191/227/223 206/252/223 207/237/223
f 199/228/224 214/253/224 215/239/224
f 211/245/225 226/267/225 227/254/225
f 204/247/226 219/269/226 220/255/226
f 212/249/227 227/254/227 228/256/227
f 205/250/228 220/255/228 221/257/228
f 214/253/229 213/251/229 228/256/229
f 206/252/230 221/257/230 222/259/230
f 214/253/231 229/258/231 230/260/231
f 208/238/232 207/237/232 222/259/232
f 216/240/233 215/239/233 230/260/233
f 208/238/571 223/261/571 224/263/571
f 216/240/235 231/262/235 232/264/235
f 210/243/572 209/241/572 224/263/572
f 217/242/237 232/264/237 233/266/237
f 211/245/238 210/243/238 225/265/238
f 230/260/573 245/286/573 246/271/573
f 223/261/242 238/287/242 239/272/242
f 231/262/243 246/271/243 247/273/243
f 225/265/244 224/263/244 239/272/244
f 233/266/245 232/264/245 247/273/245
f 226/267/574 225/265/574 240/274/574
f 226/267/575 241/276/575 242/280/575
f 219/269/250 234/278/250 235/281/250
f 227/254/251 242/280/251 243/282/251
f 221/257/252 220/255/252 235/281/252
f 229/258/253 228/256/253 243/282/253
f 221/257/254 236/283/254 237/285/254
f 229/258/576 244/284/576 245/286/576
f 223/261/256 222/259/256 237/285/256
f 234/278/257 249/302/257 250/288/257
f 242/280/258 257/304/258 258/289/258
f 235/281/259 250/288/259 251/290/259
f 244/284/260 243/282/260 258/289/260
f 237/285/577 236/283/577 251/290/577
f 245/286/578 244/284/578 259/291/578
f 237/285/579 252/292/579 253/294/579
f 246/271/580 245/286/580 260/293/580
f 238/287/265 253/294/265 254/296/265
f 246/271/266 261/295/266 262/297/266
f 240/274/267 239/272/267 254/296/267
f 247/273/268 262/297/268 263/299/268
f 240/274/581 255/298/581 256/300/581
f 242/280/582 241/276/582 256/300/582
f 253/294/273 268/320/273 269/305/273
f 261/295/274 276/321/274 277/306/274
f 255/298/275 254/296/275 269/305/275
f 262/297/276 277/306/276 278/308/276
f 256/300/277 255/298/277 270/307/277
f 256/300/280 271/309/280 272/313/280
f 250/288/281 249/302/281 264/311/281
f 257/304/282 272/313/282 273/315/282
f 250/288/283 265/314/283 266/316/283
f 259/291/284 258/289/284 273/315/284
f 251/290/583 266/316/583 267/318/583
f 259/291/286 274/317/286 275/319/286
f 253/294/584 252/292/584 267/318/584
f 261/295/288 260/293/288 275/319/288
f 273/315/585 272/313/585 287/322/585
f 265/314/586 280/338/586 281/324/586
f 273/315/587 288/323/587 289/325/587
f 266/316/292 281/324/292 282/326/292
f 274/317/293 289/325/293 290/327/293
f 268/320/294 267/318/294 282/326/294
f 276/321/295 275/319/295 290/327/295
f 268/320/296 283/328/296 284/330/296
f 276/321/588 291/329/588 292/331/588
f 270/307/298 269/305/298 284/330/298
f 278/308/299 277/306/299 292/331/299
f 271/309/300 270/307/300 285/332/300
f 271/309/303 286/334/303 287/322/303
f 265/314/304 264/311/304 279/336/304
f 291/329/305 306/354/305 307/339/305
f 284/330/589 299/355/589 300/340/589
f 293/333/307 292/331/307 307/339/307
f 286/334/308 285/332/308 300/340/308
f 286/334/311 301/342/311 302/346/311
f 279/336/312 294/344/312 295/347/312
f 287/322/590 302/346/590 303/348/590
f 281/324/591 280/338/591 295/347/591
f 289/325/592 288/323/592 303/348/592
f 281/324/593 296/349/593 297/351/593
f 289/325/317 304/350/317 305/352/317
f 283/328/318 282/326/318 297/351/318
f 291/329/319 290/327/319 305/352/319
f 284/330/594 283/328/594 298/353/594
f 304/350/321 303/348/321 318/356/321
f 297/351/595 296/349/595 311/358/595
f 304/350/323 319/357/323 320/360/323
f 298/353/324 297/351/324 312/359/324
f 306/354/325 305/352/325 320/360/325
f 298/353/596 313/361/596 314/363/596
f 306/354/327 321/362/327 322/364/327
f 300/340/597 299/355/597 314/363/597
f 307/339/598 322/364/598 323/366/598
f 301/342/330 300/340/330 315/365/330
f 301/342/333 316/367/333 317/371/333
f 294/344/334 309/369/334 310/372/334
f 302/346/335 317/371/335 318/356/335
f 295/347/599 310/372/599 311/358/599
f 322/364/337 337/389/337 338/373/337
f 316/367/600 315/365/600 330/374/600
f 316/367/601 331/375/601 332/379/601
f 309/369/342 324/377/342 325/380/342
f 317/371/343 332/379/343 333/381/343
f 310/372/344 325/380/344 326/382/344
f 319/357/345 318/356/345 333/381/345
f 311/358/346 326/382/346 327/384/346
f 320/360/602 319/357/602 334/383/602
f 312/359/348 327/384/348 328/386/348
f 320/360/603 335/385/603 336/387/603
f 313/361/350 328/386/350 329/388/350
f 321/362/604 336/387/604 337/389/604
f 315/365/352 314/363/352 329/388/352
f 326/382/353 341/405/353 342/390/353
f 334/383/605 349/406/605 350/391/605
f 328/386/355 327/384/355 342/390/355
f 336/387/606 335/385/606 350/391/606
f 328/386/357 343/392/357 344/394/357
f 336/387/358 351/393/358 352/395/358
f 330/374/359 329/388/359 344/394/359
f 337/389/360 352/395/360 353/397/360
f 330/374/607 345/396/607 346/398/607
f 332/379/608 331/375/608 346/398/608
f 324/377/365 339/400/365 340/403/365
f 332/379/366 347/402/366 348/404/366
f 325/380/367 340/403/367 341/405/367
f 334/383/368 333/381/368 348/404/368
f 346/398/609 345/396/609 360/407/609
f 346/398/610 361/408/610 362/413/610
f 339/400/373 354/410/373 355/414/373
f 348/404/611 347/402/611 362/413/611
f 341/405/375 340/403/375 355/414/375
f 348/404/612 363/415/612 364/417/612
f 342/390/613 341/405/613 356/416/613
f 349/406/378 364/417/378 365/419/378
f 342/390/614 357/418/614 358/420/614
f 351/393/380 350/391/380 365/419/380
f 343/392/381 358/420/381 359/422/381
f 351/393/382 366/421/382 367/423/382
f 345/396/383 344/394/383 359/422/383
f 352/395/384 367/423/384 368/412/384
f 364/424/385 379/454/385 380/425/385
f 358/427/615 357/455/615 372/428/615
f 366/430/387 365/426/387 380/425/387
f 358/427/388 373/429/388 374/432/388
f 366/430/389 381/431/389 382/434/389
f 360/436/390 359/433/390 374/432/390
f 367/435/391 382/434/391 383/438/391
f 361/440/616 360/436/616 375/437/616
f 361/440/617 376/441/617 377/446/617
f 354/442/396 369/444/396 370/448/396
f 362/447/618 377/446/618 378/450/618
f 356/452/398 355/449/398 370/448/398
f 364/424/619 363/451/619 378/450/619
f 356/452/620 371/453/620 372/428/620
f 376/441/621 391/472/621 392/460/621
f 369/444/404 384/457/404 385/461/404
f 377/446/405 392/460/405 393/462/405
f 371/453/406 370/448/406 385/461/406
f 379/454/407 378/450/407 393/462/407
f 371/453/408 386/463/408 387/465/408
f 379/454/622 394/464/622 395/466/622
f 373/429/410 372/428/410 387/465/410
f 380/425/623 395/466/623 396/468/623
f 373/429/412 388/467/412 389/469/412
f 381/431/413 396/468/413 397/470/413
f 375/437/414 374/432/414 389/469/414
f 382/434/415 397/470/415 398/459/415
f 376/441/624 375/437/624 390/471/624
f 388/467/417 387/465/417 402/473/417
f 396/468/625 395/466/625 410/475/625
f 388/467/419 403/474/419 404/477/419
f 397/470/420 396/468/420 411/476/420
f 390/471/421 389/469/421 404/477/421
f 397/470/422 412/478/422 413/480/422
f 390/471/626 405/479/626 406/481/626
f 392/460/627 391/472/627 406/481/627
f 385/461/427 384/457/427 399/483/427
f 392/460/428 407/485/428 408/487/428
f 385/461/429 400/486/429 401/488/429
f 394/464/430 393/462/430 408/487/430
f 386/463/431 401/488/431 402/473/431
f 394/464/628 409/489/628 410/475/628
f 406/481/433 421/503/433 422/490/433
f 399/483/434 414/505/434 415/491/434
f 407/485/435 422/490/435 423/492/435
f 401/488/629 400/486/629 415/491/629
f 409/489/437 408/487/437 423/492/437
f 401/488/630 416/493/630 417/495/630
f 409/489/439 424/494/439 425/496/439
f 403/474/440 402/473/440 417/495/440
f 411/476/441 410/475/441 425/496/441
f 403/474/442 418/497/442 419/499/442
f 411/476/443 426/498/443 427/500/443
f 405/479/444 404/477/444 419/499/444
f 412/478/445 427/500/445 428/502/445
f 406/481/446 405/479/446 420/501/446
f 426/498/449 425/496/449 440/507/449
f 419/499/631 418/497/631 433/509/631
f 426/498/451 441/508/451 442/511/451
f 419/499/632 434/510/632 435/512/632
f 427/500/453 442/511/453 443/513/453
f 421/503/454 420/501/454 435/512/454
f 421/503/457 436/514/457 437/518/457
f 414/505/458 429/516/458 430/519/458
f 423/492/633 422/490/633 437/518/633
f 415/491/634 430/519/634 431/521/634
f 423/492/635 438/520/635 439/522/635
f 417/495/636 416/493/636 431/521/636
f 424/494/463 439/522/463 440/507/463
f 418/497/464 417/495/464 432/523/464
f 437/518/637 452/539/637 453/524/637
f 430/519/466 445/540/466 446/525/466
f 439/522/638 438/520/638 453/524/638
f 431/521/468 446/525/468 447/527/468
f 439/522/469 454/526/469 455/528/469
f 433/509/470 432/523/470 447/527/470
f 441/508/471 440/507/471 455/528/471
f 433/509/639 448/529/639 449/531/639
f 441/508/473 456/530/473 457/532/473
f 435/512/640 434/510/640 449/531/640
f 442/511/475 457/532/475 458/534/475
f 436/514/476 435/512/476 450/533/476
f 436/514/479 451/535/479 452/539/479
f 430/519/480 429/516/480 444/537/480
f 456/530/481 471/557/481 472/541/481
f 450/533/482 449/531/482 464/542/482
f 458/534/483 457/532/483 472/541/483
f 451/535/484 450/533/484 465/543/484
f 451/535/487 466/545/487 467/549/487
f 444/537/488 459/547/488 460/550/488
f 452/539/489 467/549/489 468/551/489
f 446/525/490 445/540/490 460/550/490
f 454/526/491 453/524/491 468/551/491
f 446/525/492 461/552/492 462/554/492
f 454/526/493 469/553/493 470/555/493
f 448/529/494 447/527/494 462/554/494
f 456/530/495 455/528/495 470/555/495
f 448/529/496 463/556/496 464/542/496
f 461/552/497 460/550/497 475/32/497
f 468/551/498 478/3/498 7/8/498
f 462/554/641 461/552/641 2/4/641
f 469/553/642 7/8/642 479/11/642
f 462/554/643 476/10/643 3/13/643
f 470/555/644 479/11/644 480/15/644
f 464/542/503 463/556/503 3/13/503
f 471/557/504 480/15/504 481/20/504
f 465/543/505 464/542/505 477/17/505
f 472/541/506 481/20/506 482/24/506
f 466/545/645 465/543/645 4/21/645
f 466/545/646 5/26/646 6/1/646
f 460/550/511 459/547/511 474/27/511
f 467/549/512 6/1/512 478/3/512
