mtllib Debris_Wall.mtl
o tripo_node_9face02a-d241-4f89-9884-ddca6b64b4ad
g tripo_node_9face02a-d241-4f89-9884-ddca6b64b4ad
usemtl tripo_material_9face02a_d241_4f89_9884_ddca6b64b4ad
v 0.408553988 0.181030273 -0.446044981
vt 0.232421875 0.315673828
vn 0.748774588 -0.283746183 -0.599019885
v 0.437332094 0.098205596 -0.256866485
vt 0.190917969 0.374511719
vn 0.952962756 -0.275650322 -0.126011699
v 0.287368715 0.080688447 -0.414978027
vt 0.178955078 0.300048828
vn 0.205496639 -0.837794185 -0.505837917
v 0.435195863 0.348937988 -0.302795470
vt 0.279296875 0.376464844
vn 0.988699138 0.015693672 -0.149089694
v 0.221237108 0.156219453 -0.462005645
vt 0.191894531 0.264160156
vn -0.031578515 -0.236838043 -0.971035779
v 0.391372591 0.349807739 -0.475341856
vt 0.280029297 0.280029297
vn 0.543105006 0.094453059 -0.834335506
v 0.143249452 0.082611054 -0.346405029
vt 0.137207031 0.264160156
vn 0.063293032 -0.901925862 -0.427228034
v 0.387954682 0.043853790 -0.203811675
vt 0.159912109 0.379394531
vn 0.212902278 -0.969888031 -0.118279010
v 0.397079438 0.044952422 -0.053215060
vt 0.138427734 0.426757812
vn 0.339828074 -0.940454364 0.007902974
v 0.215728715 0.036529541 -0.289489746
vt 0.130371094 0.319824219
vn -0.039335925 -0.991266012 -0.125874996
v 0.097373918 0.049530029 -0.237701416
vt 0.095703125 0.273925781
vn 0.110089608 -0.990806222 -0.078635380
v 0.226409882 0.043273926 -0.099693306
vt 0.093261719 0.385498047
vn -0.031479437 -0.999473393 -0.007869822
v 0.119010903 0.055725098 -0.098373406
vt 0.066162109 0.357666016
vn 0.023677217 -0.994440794 0.102601074
v -0.059837364 0.019592285 -0.126647919
vt 0.028564453 0.281250000
vn 0.023589225 -0.990744889 0.133671969
v 0.116477951 0.060272217 -0.036003109
vt 0.049560547 0.371582031
vn -0.150119081 -0.971823633 -0.181723043
v 0.085662834 0.037719727 0.028217323
vt 0.025878906 0.382080078
vn 0.000000039 -0.999225974 -0.039339561
v -0.000329987 0.066497803 -0.034448601
vt 0.021484375 0.342529297
vn 0.125875086 -0.991266012 -0.039335921
v -0.087547332 0.054321289 -0.155975312
vt 0.012695312 0.271484375
vn -0.007844373 -0.996239424 -0.086288407
v -0.017419823 0.016174316 0.009179140
vt 0.000244141 0.353515625
vn 0.189641893 -0.979816318 -0.063213937
vt 0.506591797 1.000000000
vt 0.440673828 0.992431641
v 0.108993456 0.162475556 -0.465209961
vt 0.490478516 0.955810547
vn 0.023702903 -0.292337209 -0.956021607
v 0.142349169 0.310775757 -0.454376251
vt 0.553710938 0.944335938
vn 0.031471554 -0.023603804 -0.999225974
v 0.012253079 0.367599458 -0.475738525
vt 0.553222656 0.884521484
vn -0.031445544 -0.047168169 -0.998391926
v -0.018627230 0.050048798 -0.406829804
vt 0.423339844 0.921142578
vn 0.133453414 -0.808570981 -0.573064864
v -0.062637404 0.256103516 -0.437072754
vt 0.504394531 0.874511719
vn 0.015787108 -0.102617063 -0.994595706
v -0.031730741 0.384910554 -0.477844238
vt 0.553466797 0.864746094
vn 0.055007253 -0.031432830 -0.997991085
v -0.138916105 0.350875854 -0.476898164
vt 0.522216797 0.829345703
vn 0.054951292 -0.054951463 -0.996975780
v -0.190445021 0.139190644 -0.468261659
vt 0.439697266 0.838867188
vn -0.000000121 -0.188556045 -0.982062519
v -0.139373854 0.134002656 -0.460113466
vt 0.444580078 0.860107422
vn 0.196188465 -0.172646001 -0.965247929
v -0.166870192 0.081512421 -0.427307069
vt 0.417236328 0.859375000
vn -0.007895118 -0.876355231 -0.481600612
v -0.094635084 0.111541718 -0.444152802
vt 0.442382812 0.881835938
vn -0.031422224 -0.392776549 -0.919097006
v -0.095329337 0.016906738 -0.308288544
vt 0.369140625 0.915771484
vn -0.023691904 -0.987163544 -0.157946125
vt 0.389648438 1.000000000
vt 0.313232422 0.969726562
v -0.166183516 0.055358887 -0.283691347
vt 0.358398438 0.877441406
vn 0.047139026 -0.989919007 -0.133560449
vt 0.311279297 0.947509766
v -0.144561797 0.024566650 -0.140686005
vt 0.304931641 0.908935547
vn 0.173465163 -0.977712512 -0.118271656
v -0.153427139 0.016235352 -0.068756059
vt 0.274902344 0.901855469
vn 0.039501358 -0.995433450 -0.086902879
vt 0.228271484 0.947998047
v 0.438827515 0.136718780 0.038104970
vt 0.687500000 0.918212891
vn 0.993883729 -0.110431477 -0.000000126
vt 0.713623047 0.937988281
vt 0.659423828 0.988281250
v 0.438156068 0.362731934 -0.171524107
vt 0.604980469 0.961181641
vn 0.998762369 0.047185667 -0.015728673
v 0.439376801 0.332611084 -0.007992794
vt 0.633789062 0.923339844
vn 0.999876022 0.015746122 -0.000000132
vt 0.835693359 0.926269531
vt 0.776123047 0.971191406
v 0.365310669 0.039520293 0.137557954
vt 0.743896484 0.876464844
vn 0.244018912 -0.968203902 0.055101041
v 0.189605713 0.045776367 0.125213608
vt 0.808105469 0.873779297
vn -0.086354837 -0.973455250 0.211962104
v 0.436447144 0.085052520 0.190307572
vt 0.721435547 0.853271484
vn 0.887976408 -0.432200849 0.157163844
v 0.437698394 0.334838897 0.349761903
vt 0.671386719 0.761718750
vn 0.960481107 0.039364029 0.275547713
v 0.402938873 0.138092101 0.356719941
vt 0.733398438 0.789062500
vn 0.441369355 -0.559593081 0.701461792
v 0.301528960 0.056701660 0.215942353
vt 0.765625000 0.849121094
vn 0.094904013 -0.949039280 0.300529122
v 0.222839385 0.075683594 0.297668457
vt 0.789794922 0.821289062
vn -0.007899157 -0.718834341 0.695136607
v 0.166442886 0.075256348 0.199707031
vt 0.815917969 0.845703125
vn -0.133556291 -0.966319680 0.219975263
v 0.096267708 0.066162109 0.167343140
vt 0.837646484 0.852539062
vn 0.164697066 -0.972496688 0.164697036
v 0.103233367 0.110290527 0.322418243
vt 0.865722656 0.819580078
vn 0.188719228 -0.896415949 0.401028156
vt 0.572998047 0.704101562
vt 0.547851562 0.642089844
v 0.300552279 0.422180176 -0.467834502
vt 0.604736328 0.684814453
vn 0.157970667 -0.015797116 -0.987317502
vt 0.588867188 0.632080078
vt 0.604980469 0.600585938
v 0.065685183 0.402358979 -0.471221924
vt 0.607421875 0.616699219
vn -0.039338518 -0.007867723 -0.999195039
v 0.099677950 0.548622131 -0.459808350
vt 0.643554688 0.620849609
vn -0.094809227 -0.000000048 -0.995495498
v -0.023758020 0.443981141 -0.446990967
vt 0.621582031 0.590332031
vn 0.118581586 0.158108905 -0.980275512
v 0.191787630 0.550354004 -0.477355987
vt 0.645019531 0.650146484
vn 0.015706565 0.070680097 -0.997375369
v 0.247100741 0.641067505 -0.453491241
vt 0.672363281 0.662597656
vn 0.015745461 0.007872754 -0.999845147
v 0.397018343 0.646057129 -0.447845519
vt 0.668212891 0.706787109
vn 0.496972680 -0.007888474 -0.867730319
v 0.412307650 0.526424408 -0.420105040
vt 0.634277344 0.717041016
vn 0.887018263 -0.141294912 -0.439584404
v 0.426772982 0.677093506 -0.353057921
vt 0.681884766 0.737304688
vn 0.996638060 0.078475483 -0.023542766
v 0.418594301 0.439613342 -0.344818175
vt 0.604980469 0.736328125
vn 0.895309448 0.070682339 -0.439801276
v 0.440444887 0.501104355 -0.249237120
vt 0.624267578 0.763183594
vn 0.996914387 0.062797800 0.047098182
vt 0.577880859 0.752929688
vt 0.541259766 0.721923828
v 0.406509340 0.581375122 -0.210006759
vt 0.645751953 0.784667969
vn 0.994998753 0.031587310 0.094761662
vt 0.585693359 0.789062500
vt 0.536132812 0.793212891
v 0.407913148 0.395446777 -0.169174239
vt 0.599853516 0.789550781
vn 0.950841904 0.180738598 0.251462191
v 0.406570405 0.474552155 -0.104339652
vt 0.618896484 0.808837891
vn 0.971490026 -0.007898262 -0.236948937
v 0.439559877 0.612594604 -0.137313902
vt 0.653808594 0.804443359
vn 0.997713923 -0.039280035 -0.054992236
v 0.416946352 0.654113770 -0.222778395
vt 0.664306641 0.790527344
vn 0.975773215 -0.133775324 -0.173121184
v 0.434646577 0.467096359 -0.007421071
vt 0.620117188 0.836425781
vn 0.998885930 0.000000042 -0.047191594
v 0.441299438 0.663192749 0.252777040
vt 0.680175781 0.903564453
vn 0.997898698 -0.015714895 0.062859625
vt 0.585205078 0.833007812
v 0.436477661 0.420261413 0.131423891
vt 0.617919922 0.871826172
vn 0.995464504 0.007900559 0.094806023
vt 0.149169922 0.683349609
vt 0.168457031 0.697265625
vt 0.144775391 0.720947266
vt 0.169189453 0.715087891
v -0.086876012 0.591056824 -0.478912354
vt 0.116455078 0.774902344
vn 0.133395776 0.188323602 -0.973005533
v -0.243331999 0.499443024 -0.465698212
vt 0.177978516 0.804443359
vn -0.126294047 0.102613755 -0.986671269
v -0.131439298 0.650024414 -0.440490693
vt 0.087158203 0.786376953
vn -0.015744260 0.015744084 -0.999752104
vt 0.091064453 0.691894531
v -0.346695036 0.512329042 -0.438537538
vt 0.167236328 0.839111328
vn -0.416022480 -0.109892741 -0.902689874
v -0.204635724 0.634872437 -0.480163544
vt 0.098876953 0.815673828
vn 0.227782145 -0.172800362 -0.958256483
v -0.086532697 0.850769043 -0.425598174
vt 0.009521484 0.783935547
vn -0.000000131 0.597481310 -0.801882923
v -0.201690778 0.783477783 -0.476287812
vt 0.049316406 0.841308594
vn 0.007889058 0.165673018 -0.986149251
v -0.396957487 0.577278078 -0.467712343
vt 0.152832031 0.868164062
vn -0.538041472 -0.142422765 -0.830799103
v -0.418502867 0.518028259 -0.289520204
vt 0.223876953 0.864746094
vn -0.988699257 -0.015693689 -0.149089441
v -0.413864225 0.643676758 -0.327972353
vt 0.197265625 0.906005859
vn -0.997991085 -0.031432837 -0.055007253
v -0.412368864 0.759155214 -0.459045351
vt 0.095703125 0.906250000
vn -0.694314003 0.189358279 -0.694313765
v -0.327896208 0.874938905 -0.431243867
vt 0.041015625 0.901367188
vn -0.189240679 0.851582527 -0.488871455
v -0.406601042 0.819915771 -0.331726015
vt 0.116699219 0.954589844
vn -0.954859912 0.228850633 -0.189393580
v -0.431808531 0.726272583 -0.237258866
vt 0.166259766 0.966064453
vn -0.997744679 0.023568727 -0.062849924
v -0.418075621 0.594749451 -0.136047304
vt 0.224365234 0.989257812
vn -0.988577425 -0.117687844 -0.094150096
v -0.414901823 0.863464355 -0.277435273
vt 0.077392578 0.956542969
vn -0.677333415 0.708837271 -0.196899191
v -0.212356657 0.877075195 -0.308197021
vt 0.000488281 0.949707031
vn -0.062906459 0.959322333 -0.275215447
v -0.358200163 0.912689209 -0.228546113
vt 0.055419922 0.981933594
vn -0.189234763 0.961942971 -0.197119474
vt 0.007324219 0.087158203
v -0.266952574 0.021545410 -0.288299501
vt 0.047119141 0.076904297
vn -0.189169973 -0.977378368 -0.094584934
vt 0.011230469 0.136474609
v -0.345016539 0.087188661 -0.418701082
vt 0.073242188 0.124511719
vn -0.589383125 -0.644392133 -0.487223208
v -0.411819488 0.080078095 -0.237045214
vt 0.115966797 0.075927734
vn -0.817884088 -0.566227496 -0.102235384
vt 0.022705078 0.160644531
v -0.437088072 0.265624970 -0.278564394
vt 0.156494141 0.133789062
vn -0.991480768 -0.118033469 -0.055082131
v -0.419754118 0.226440370 -0.452697694
vt 0.102783203 0.163330078
vn -0.699985087 -0.141570047 -0.699984908
v -0.292038053 0.298217744 -0.470855683
vt 0.075683594 0.201416016
vt 0.033447266 0.234863281
vt 0.098388672 0.267333984
vt 0.018310547 0.267578125
v -0.370254606 0.420993775 -0.451843202
vt 0.123535156 0.222412109
vn -0.463519275 0.157125086 -0.872044504
vt 0.136474609 0.251220703
v -0.429702818 0.438781708 -0.349426210
vt 0.165039062 0.205566406
vn -0.945850134 0.157641605 -0.283754885
vt 0.180175781 0.231933594
v -0.422592223 0.432170838 -0.184829652
vt 0.205078125 0.170166016
vn -0.988547087 0.070610464 0.133375525
v -0.427047759 0.199310273 -0.088096544
vt 0.213623047 0.107666016
vn -0.990989983 -0.133705035 -0.007864865
vt 0.039550781 0.471191406
vt 0.079101562 0.488281250
vt 0.030761719 0.502929688
v -0.237838775 0.030303955 -0.095138498
vt 0.083251953 0.522216797
vn -0.196110055 -0.980550528 0.007844472
vt 0.097412109 0.497802734
v -0.228240982 0.019439697 0.010031752
vt 0.116699219 0.525146484
vn -0.133692548 -0.990898073 -0.015728481
v -0.115264893 0.021362305 0.083488502
vt 0.148925781 0.495849609
vn 0.023542685 -0.996638060 0.078475483
v -0.238265991 0.036224365 0.168258712
vt 0.171386719 0.540039062
vn -0.094453007 -0.991757095 0.086582035
v -0.393783569 0.040344208 0.104080275
vt 0.133056641 0.580810547
vn -0.678935587 -0.734197915 0.000000121
v -0.346847564 0.066040009 -0.096473634
vt 0.069580078 0.558105469
vn -0.557227075 -0.824068308 -0.102027386
v -0.412185699 0.134704560 -0.140167162
vt 0.041503906 0.574462891
vn -0.828159153 -0.544218898 0.134083048
vt 0.027099609 0.550048828
vt 0.005371094 0.570312500
vt 0.035400391 0.608886719
v -0.441299438 0.205139130 0.168411329
vt 0.125000000 0.641601562
vn -0.996147394 -0.086280532 0.015687494
v -0.420303375 0.277435303 0.018379278
vt 0.068603516 0.643066406
vn -0.990255177 0.133605808 -0.039295718
v -0.407485962 0.309387207 0.186431959
vt 0.113525391 0.674316406
vn -0.995433331 0.086902864 0.039501447
v -0.426010132 0.394538879 0.142974913
vt 0.080566406 0.690429688
vn -0.993698299 -0.086751483 0.070978582
v -0.402084380 0.332595825 -0.083015382
vt 0.035156250 0.644775391
vn -0.993111670 0.086700179 0.078818507
vt 0.009521484 0.661376953
v -0.404617339 0.455511063 -0.072349496
vt 0.029785156 0.680664062
vn -0.998206854 -0.055019319 -0.023579556
v -0.406936675 0.374916077 0.025714936
vt 0.057617188 0.670654297
vn -0.990255177 -0.039295893 -0.133605719
v -0.433822662 0.420726776 0.074951231
vt 0.060546875 0.694335938
vn -0.991757095 -0.086582027 -0.094452925
v -0.435745269 0.673233032 0.069389395
vt 0.044677734 0.769531250
vn -0.999102235 0.015733849 -0.039334603
vt 0.000000000 0.718505859
vt 0.896728516 0.002197266
vt 0.851318359 0.034912109
vt 0.850585938 0.001220703
vt 0.127685547 0.427246094
vt 0.134521484 0.465576172
vt 0.087158203 0.405761719
vt 0.042724609 0.409912109
vt 0.082519531 0.463623047
vt 0.898193359 0.566406250
vt 0.928955078 0.571289062
vt 0.907470703 0.610595703
vt 0.936523438 0.629882812
vt 0.978515625 0.619384766
v -0.067550637 0.016784668 0.225036651
vt 0.983886719 0.568847656
vn 0.173400506 -0.969466150 0.173400462
vt 0.586425781 0.173828125
vt 0.503662109 0.166748047
vt 0.561279297 0.077636719
v -0.069885217 0.066131622 0.365264922
vt 0.480224609 0.076904297
vn 0.007856622 -0.707084894 0.707085013
v 0.101127662 0.159606963 0.373840332
vt 0.463623047 0.175292969
vn 0.205266133 -0.300004154 0.931591868
v -0.049941979 0.206665069 0.411285400
vt 0.413330078 0.103271484
vn -0.062865444 -0.007858156 0.997991085
vt 0.268554688 0.087646484
vt 0.255615234 0.151367188
vt 0.211181641 0.094238281
v 0.162261993 0.172424346 0.374206513
vt 0.310546875 0.148193359
vn 0.023630245 -0.275684536 0.960957706
vt 0.287597656 0.171386719
v 0.341537505 0.291107208 0.399902314
vt 0.402099609 0.090332031
vn 0.062797889 -0.133445188 0.989064693
vt 0.353759766 0.071289062
vt 0.235839844 0.068847656
vt 0.310791016 0.010498047
vt 0.258300781 0.009277344
vt 0.295166016 0.603271484
vt 0.215820312 0.538574219
vt 0.248046875 0.501708984
v 0.395706207 0.591529846 0.396057069
vt 0.244628906 0.639892578
vn 0.757504165 -0.086797282 0.647034585
v 0.378067046 0.432739288 0.391998231
vt 0.185546875 0.621337891
vn 0.653300405 -0.047226466 0.755624413
v 0.151947051 0.509258270 0.405639619
vt 0.188232422 0.708984375
vn -0.133704856 -0.007864961 0.990989983
v 0.410049438 0.702239990 0.385131776
vt 0.280517578 0.653320312
vn 0.449474424 0.063084170 0.891063035
v 0.418777466 0.857635558 0.348785311
vt 0.329345703 0.664794922
vn 0.653017282 0.558605075 0.511398971
v 0.436569184 0.884277344 0.177596971
vt 0.362548828 0.621093750
vn 0.869898260 0.482398152 0.102806017
v 0.320358276 0.750274658 0.385955781
vt 0.284179688 0.692871094
vn -0.015808798 0.197611526 0.980152965
v 0.273086548 0.704513550 0.367126435
vt 0.260742188 0.706054688
vn -0.212651044 0.031503908 0.976620197
v 0.267349243 0.819488525 0.356262177
vt 0.313720703 0.708740234
vn 0.267683476 0.307048619 0.913272619
v 0.260955811 0.927337646 0.309600770
vt 0.373291016 0.722656250
vn 0.292245984 0.884636462 0.363332778
v 0.174972549 0.780426025 0.401123017
vt 0.279785156 0.739746094
vn 0.094806269 -0.007900463 0.995464385
v 0.195266739 0.577079773 0.364593476
vt 0.214355469 0.721679688
vn 0.212756917 0.000000052 0.977105200
v 0.116821304 0.497355491 0.366333008
vt 0.181640625 0.725830078
vn -0.086716264 -0.228615895 0.969646931
v 0.153015152 0.558891296 0.401428193
vt 0.204833984 0.742919922
vn 0.125781789 -0.055029429 0.990530550
v 0.209320068 0.905853271 0.406097353
vt 0.333251953 0.737792969
vn 0.512494743 0.433649421 0.741146028
v 0.225143418 0.955322266 0.261047304
vt 0.377197266 0.745605469
vn 0.260124892 0.961673975 0.086708225
v 0.141037002 0.905578613 0.437896669
vt 0.322753906 0.754638672
vn -0.417258054 0.078727975 0.905371547
v 0.152954102 0.914428711 0.379577577
vt 0.333251953 0.777099609
vn -0.172906995 0.730925262 0.660190463
v -0.101593003 0.743255615 0.399597198
vt 0.252441406 0.836181641
vn -0.054973315 0.047120135 0.997375369
v 0.060527824 0.538341522 0.406066895
vt 0.184814453 0.772460938
vn -0.204775080 -0.307162791 0.929364443
v -0.021545395 0.565414429 0.364593506
vt 0.182373047 0.805908203
vn 0.015697638 -0.078487478 0.996791542
v -0.154281601 0.645111084 0.392547637
vt 0.216308594 0.854736328
vn 0.078490071 -0.125583857 0.988973260
v -0.045204159 0.906951904 0.391113251
vt 0.315673828 0.840332031
vn -0.149195224 0.910876215 0.384766668
v 0.120803811 0.909851074 0.176193208
vt 0.378173828 0.820068359
vn -0.039295889 0.998114347 -0.047155049
vt 0.354736328 0.313720703
vt 0.272460938 0.268798828
vt 0.381347656 0.275146484
v 0.301589996 0.397132903 0.365539521
vt 0.412841797 0.297363281
vn -0.047314420 -0.102514818 0.993605673
vt 0.471191406 0.248779297
vt 0.392822266 0.344726562
vt 0.490478516 0.266845703
v 0.182205230 0.326522827 0.372772187
vt 0.458984375 0.334960938
vn 0.055019405 -0.023579644 0.998206854
vt 0.454833984 0.398925781
v 0.169616714 0.409332305 0.369445771
vt 0.465576172 0.300781250
vn 0.102687530 0.213273913 0.971580923
v 0.047298454 0.390243530 0.372741699
vt 0.516357422 0.286132812
vn 0.447089881 0.023531100 0.894179463
v 0.077346839 0.322906494 0.441192627
vt 0.508789062 0.328613281
vn 0.282938868 -0.801659942 0.526580513
vt 0.559814453 0.019042969
vt 0.604248047 0.071289062
vt 0.496582031 0.068359375
vt 0.638183594 0.038818359
v 0.345565826 0.294708282 0.403259248
vt 0.937744141 0.445556641
vn 0.504061878 0.417426348 -0.756093085
v 0.346054107 0.194061309 0.432464570
vt 0.950927734 0.405761719
vn 0.432094276 -0.282825202 0.856332004
v 0.222290084 0.180908233 0.430419892
vt 1.000000000 0.416992188
vn -0.078545719 -0.274909645 -0.958256423
v 0.229644805 0.292602569 0.413146943
vt 0.982666016 0.458984375
vn -0.165103838 -0.149379611 -0.974898219
v 0.213455245 0.176391631 0.431304902
vt 0.933593750 0.328857422
vn -0.635494471 -0.682568133 0.360898256
v 0.218917891 0.337844878 0.480163544
vt 0.938720703 0.272949219
vn 0.284090668 -0.086805388 0.954859912
vt 0.972900391 0.331787109
vt 0.848876953 0.401123047
vt 0.873046875 0.319335938
vt 0.932617188 0.388183594
vt 0.921630859 0.800781250
v 0.055439025 0.260391235 0.371063232
vt 0.942626953 0.730468750
vn 0.102397263 -0.141780585 0.984587789
vt 0.998291016 0.778076172
vt 1.000000000 0.744140625
vt 0.890136719 0.745361328
vt 0.969238281 0.672363281
v -0.013610814 0.326904297 0.372344971
vt 0.913574219 0.690673828
vn 0.464840949 -0.433326155 0.772108495
vt 0.182373047 0.030273438
vt 0.239990234 0.005371094
vt 0.241210938 0.037841797
vt 0.141113281 0.010009766
vt 0.343994141 0.010009766
v 0.140625030 0.405975372 0.454009980
vt 0.401367188 0.071289062
vn 0.407921463 0.274562597 -0.870755792
vt 0.358886719 0.069824219
vt 0.391357422 0.012207031
vt 0.467529297 0.059570312
vt 0.180664062 0.070556641
vt 0.147705078 0.041259766
vt 0.206787109 0.038574219
vt 0.231689453 0.071289062
vt 0.135009766 0.437011719
vt 0.187500000 0.425781250
vt 0.149902344 0.478759766
vt 0.158203125 0.421142578
v -0.014091469 0.516529083 0.403137207
vt 0.187500000 0.445556641
vn 0.220315531 0.173105031 0.959945738
v -0.038944215 0.378356934 0.402618408
vt 0.184570312 0.486816406
vn 0.070669375 -0.023556368 0.997221589
v -0.171524033 0.575492859 0.389007598
vt 0.247558594 0.443115234
vn -0.055177890 0.102473497 0.993204236
vt 0.242919922 0.422119141
v -0.232559174 0.403755188 0.398101836
vt 0.257324219 0.498291016
vn -0.023579560 0.055019319 0.998206854
v -0.254531831 0.539951324 0.365661651
vt 0.281005859 0.453125000
vn -0.330186903 0.031446408 0.943391562
v -0.294998139 0.603759766 0.400970489
vt 0.291992188 0.421630859
vn -0.180543423 -0.141294912 0.973365247
v -0.415481567 0.658798218 0.332550108
vt 0.345458984 0.407714844
vn -0.897276223 -0.086579308 0.432896554
v -0.415542603 0.794097900 0.376068175
vt 0.349365234 0.370361328
vn -0.632257938 0.244999975 0.734999955
v -0.401473999 0.596275330 0.357544005
vt 0.333496094 0.431884766
vn -0.441382825 -0.346800894 0.827593148
v -0.335891694 0.456825256 0.397186339
vt 0.294921875 0.495605469
vn -0.300004035 0.205266029 0.931591928
v -0.369399995 0.230865479 0.402618468
vt 0.299072266 0.578613281
vn -0.385516077 -0.180956557 0.904782951
v -0.413101166 0.360359192 0.347015440
vt 0.330078125 0.535400391
vn -0.936079800 0.062929720 0.346113682
v -0.409286469 0.429725647 0.341552794
vt 0.326904297 0.506591797
vn -0.880771041 0.385337293 0.275241017
vt 0.383056641 0.541259766
v -0.400924683 0.485916376 0.267364562
vt 0.344726562 0.477050781
vn -0.853388369 -0.126427934 0.505711794
vt 0.387695312 0.502685547
v -0.433731079 0.539085388 0.270416319
vt 0.355712891 0.453369141
vn -0.991480768 -0.055082306 0.118033551
v -0.433700591 0.806365967 0.157867476
vt 0.419921875 0.381347656
vn -0.976983905 0.212730318 0.015757924
vt 0.439697266 0.436279297
vt 0.997802734 0.282470703
vt 0.972656250 0.316650391
vt 0.944824219 0.270263672
v -0.135955781 0.051269531 0.261901915
vt 0.719238281 0.345458984
vn -0.015697898 -0.926181257 0.376751751
vt 0.733886719 0.273681641
vt 0.750244141 0.326171875
vt 0.750976562 0.385009766
vt 0.679931641 0.293945312
v -0.149124116 0.135925323 0.354736388
vt 0.710693359 0.405761719
vn -0.086544320 -0.416986883 0.904782891
vt 0.755371094 0.442871094
vt 0.750732422 0.497314453
v -0.242111176 0.000000000 0.224227950
vt 0.674560547 0.319335938
vn -0.212591797 -0.976347685 0.039368924
v -0.392990083 0.105529755 0.244033888
vt 0.599121094 0.325927734
vn -0.655170143 -0.741999984 0.142085209
vt 0.608154297 0.264160156
vt 0.541992188 0.313476562
v -0.304092377 0.055694580 0.303131163
vt 0.645263672 0.348632812
vn -0.323779404 -0.750220895 0.576485634
v -0.431289643 0.162933320 0.295257628
vt 0.577636719 0.357177734
vn -0.929364383 -0.204775244 0.307162941
vt 0.500488281 0.342285156
vt 0.525390625 0.419921875
vt 0.589111328 0.423095703
v -0.228820756 0.121459991 0.404357970
vt 0.670166016 0.404052734
vn -0.007866080 -0.409043282 0.912481189
vt 0.633056641 0.510253906
v -0.167190522 0.176574737 0.404815704
vt 0.691406250 0.430419922
vn 0.189346671 -0.149899274 0.970400989
vt 0.725341797 0.521728516
vt 0.758056641 0.532714844
vt 0.672607422 0.602783203
vt 0.662841797 0.620849609
v 0.405380160 0.705841064 -0.319366515
vt 0.648681641 0.566162109
vn 0.995993078 -0.063237607 0.063237526
vt 0.624755859 0.563720703
v 0.429977328 0.812133789 -0.351348937
vt 0.668212891 0.532226562
vn 0.914776444 0.252352178 -0.315440297
vt 0.595214844 0.533691406
v 0.393600374 0.706008911 -0.468414366
vt 0.609863281 0.507080078
vn 0.323145211 0.126105472 -0.937909663
vt 0.547363281 0.497802734
v 0.227142230 0.786407471 -0.458068877
vt 0.579101562 0.437744141
vn 0.047189869 -0.007865041 -0.998854995
v -0.052650556 0.713989258 -0.471252441
vt 0.463134766 0.411621094
vn -0.070669368 -0.023556462 -0.997221589
vt 0.476074219 0.486328125
vt 0.844238281 0.719238281
v 0.307083011 0.853363037 -0.449371397
vt 0.809814453 0.750976562
vn 0.402361304 0.568039596 -0.717939079
vt 0.752441406 0.720703125
vt 0.736816406 0.783447266
v 0.349502474 0.901367188 -0.298156798
vt 0.790039062 0.801757812
vn 0.283008665 0.927639723 -0.243702039
v 0.214767352 0.895660400 -0.434356749
vt 0.864013672 0.764892578
vn 0.235665828 0.911241472 -0.337787837
v 0.189544573 0.906494141 -0.469451964
vt 0.874511719 0.750732422
vn 0.078632869 0.841372907 -0.534704268
v 0.032520186 0.874969482 -0.476196319
vt 0.919433594 0.665771484
vn -0.149782985 0.260149121 -0.953880250
v 0.186996371 0.908050537 -0.334594786
vt 0.911132812 0.796386719
vn -0.110400662 0.993605554 -0.023657303
v 0.234008700 0.880920410 -0.295227110
vt 0.918945312 0.818359375
vn 0.196941927 0.945321679 -0.259963512
vt 0.874755859 0.569824219
vt 0.912841797 0.631591797
vt 0.843505859 0.596435547
vt 0.826660156 0.552001953
vt 0.785156250 0.574951172
vt 0.734863281 0.566162109
vt 0.776611328 0.523681641
v -0.067047209 0.877899170 -0.352722198
vt 0.834716797 0.522460938
vn -0.015795182 0.971399188 -0.236926690
v -0.233596891 0.911163330 -0.282226562
vt 0.769775391 0.506591797
vn 0.031445354 0.990530550 -0.133643046
v -0.032634791 0.911407471 -0.065345779
vt 0.821533203 0.418457031
vn 0.102371663 0.992218256 -0.070872791
v -0.015647948 0.873046875 -0.100959785
vt 0.843994141 0.428710938
vn -0.267924279 0.961375296 0.063040994
v -0.041946508 0.911651611 -0.381317168
vt 0.853515625 0.527587891
vn -0.165492952 0.985076845 -0.047283709
vt 0.925048828 0.549560547
v 0.030294355 0.911224365 -0.112419151
vt 0.868652344 0.426025391
vn -0.157441303 0.976135910 0.149569184
vt 0.925292969 0.494140625
v 0.113944940 0.903900146 -0.164535552
vt 0.904052734 0.438964844
vn 0.142085060 0.986702085 0.078936107
vt 0.426025391 0.676025391
v 0.435104281 0.886108398 -0.228164747
vt 0.448242188 0.722900391
vn 0.470765620 0.878762603 -0.078461044
vt 0.381103516 0.717529297
v 0.439895570 0.854705811 -0.191146925
vt 0.453857422 0.744628906
vn 0.970038831 0.236594886 -0.055205598
vt 0.386474609 0.811767578
vt 0.409423828 0.850830078
v 0.436477602 0.892089844 0.004405902
vt 0.545898438 0.759033203
vn 0.951517940 0.306687623 -0.023591492
v 0.297927797 0.913330078 -0.100563109
vt 0.522216797 0.674560547
vn 0.282877594 0.958640933 0.031430770
v 0.321243197 0.897827148 -0.248275816
vt 0.452148438 0.669189453
vn 0.314648628 0.936079860 -0.157324433
vt 0.441406250 0.623779297
vt 0.379882812 0.599853516
v 0.264327914 0.961303711 -0.239181563
vt 0.484130859 0.645263672
vn 0.322017074 0.918926954 -0.227768317
v 0.229431093 0.950805664 -0.083137564
vt 0.540771484 0.642578125
vn -0.180923015 0.975410879 0.125859454
vt 0.449462891 0.593750000
v 0.186660707 0.912933350 -0.073684737
vt 0.552001953 0.618164062
vn -0.958966553 -0.204369947 0.196509674
v 0.229049593 0.878875732 -0.295257628
vt 0.456542969 0.570800781
vn -0.188556001 0.942780018 0.274977475
v 0.294753969 0.913879395 -0.101142943
vt 0.553710938 0.566406250
vn -0.794955432 0.558829904 -0.236125290
vt 0.376953125 0.550048828
v 0.160125673 0.875732422 -0.072273292
vt 0.540283203 0.501464844
vn -0.110428140 0.993852854 0.007887692
vt 0.721679688 0.130859375
vt 0.744384766 0.079101562
vt 0.746826172 0.100830078
v 0.256225556 0.887786865 0.130767778
vt 0.850830078 0.087402344
vn -0.212099358 0.974085748 0.078555286
vt 0.752685547 0.123291016
vt 0.773437500 0.147949219
v 0.158157319 0.876892090 0.172653168
vt 0.845214844 0.029541016
vn 0.125607044 0.965604722 -0.227662951
v 0.080284059 0.883544922 -0.076751731
vt 0.728271484 0.043457031
vn 0.236771569 0.970763624 -0.039462008
vt 0.840576172 0.000244141
vt 0.715576172 0.000488281
vt 0.704101562 0.059326172
vt 0.704345703 0.031494141
v 0.224136338 0.954315186 0.239974931
vt 0.572021484 0.016113281
vn -0.592372060 0.805625916 -0.007898252
v 0.228836000 0.953247070 -0.080246024
vt 0.714355469 0.016113281
v 0.193771318 0.928314209 -0.022953076
vt 0.688720703 0.034912109
vt 0.909912109 0.000244141
vt 0.916259766 0.024902344
vt 0.895507812 0.034912109
vt 0.875488281 0.028320312
vt 0.475341797 0.024414062
vt 0.550781250 0.018066406
vt 0.477050781 0.059814453
vt 0.427246094 0.011718750
vt 0.827636719 0.895507812
vt 0.906250000 0.822509766
v -0.260086119 0.910217285 -0.108825669
vt 0.915771484 0.886962891
vn -0.023615502 0.999721110 -0.000000041
v -0.133667022 0.911346436 0.113494873
vt 0.865722656 0.967773438
vn -0.007867715 0.999195039 0.039338343
v -0.232284576 0.910186768 0.145065323
vt 0.900146484 0.981445312
vn -0.015711570 0.989827394 0.141403854
v -0.403488189 0.908508301 0.106323279
vt 0.973876953 0.967529297
vn -0.549361885 0.831890941 0.078480311
vt 0.952880859 0.841796875
v -0.415695250 0.896728516 -0.085922197
vt 0.975585938 0.890136719
vn -0.808371603 0.588620126 -0.007848188
vt 0.983154297 0.825683594
v -0.112625152 0.910644531 0.156051636
vt 0.448486328 0.225341797
vn -0.086946376 0.995930731 0.023712605
vt 0.370361328 0.179199219
vt 0.447753906 0.202392578
vt 0.368164062 0.241943359
v -0.134857208 0.880859375 0.173110962
vt 0.462646484 0.215576172
vn -0.063117489 0.978320897 0.197242081
vt 0.456298828 0.176025391
v -0.162200928 0.875854492 0.310394287
vt 0.523437500 0.230712891
vn -0.205387652 0.868947864 0.450272948
vt 0.532470703 0.283447266
v -0.196838394 0.878295898 0.265869141
vt 0.515136719 0.212402344
vn 0.023635948 0.992710948 0.118179835
vt 0.582275391 0.274414062
v -0.338760376 0.873321533 0.344146758
vt 0.575439453 0.179687500
vn -0.125797182 0.872718215 0.471739590
v -0.170074448 0.816040039 0.403320342
vt 0.565185547 0.238281250
vn 0.015789807 0.268424809 0.963171303
v -0.436233580 0.652679443 -0.119514413
vt 0.870361328 0.232666016
vn -0.999473393 -0.031479523 0.007870002
vt 0.894531250 0.237304688
vt 0.887695312 0.301269531
vt 0.908691406 0.188476562
v -0.426589996 0.767059326 -0.010979608
vt 0.819824219 0.199462891
vn -0.993698299 0.070978411 0.086751565
vt 0.837402344 0.139404297
vt 0.909667969 0.135498047
vt 0.770263672 0.154296875
vt 0.918945312 0.437255859
v -0.405777007 0.662719727 0.030437518
vt 0.938232422 0.455078125
vn -0.981033683 0.180510148 -0.070634298
vt 0.940673828 0.541259766
v -0.433822662 0.732254028 0.052761126
vt 0.962646484 0.474121094
vn -0.972370028 -0.110676304 0.205541760
vt 0.992919922 0.470703125
vt 0.891845703 0.039550781
vt 0.968261719 0.129882812
vt 0.829589844 0.130126953
vt 0.951904297 0.050048828
vt 0.678222656 0.654541016
vt 0.655517578 0.626464844
v 0.358077973 0.912475586 0.114822321
vt 0.686279297 0.636230469
vn 0.078494735 0.996883690 -0.007849531
v 0.305618256 0.913391113 0.176391542
vt 0.726318359 0.648193359
vn 0.157946125 0.987163544 0.023691863
vt 0.695312500 0.724121094
vt 0.756591797 0.693603516
v 0.306991547 0.942565918 0.160034120
vt 0.719726562 0.638916016
vn -0.266989261 0.934462190 -0.235578731
vt 0.737548828 0.617431641
vt 0.680908203 0.547851562
vt 0.782714844 0.626464844
v 0.195251450 0.909606934 0.214553788
vt 0.769287109 0.645019531
vn 0.765466094 0.591855347 -0.252525032
v 0.197296143 0.902465820 0.374938905
vt 0.778320312 0.714843750
vn 0.031375658 -0.854987442 -0.517698765
v 0.191436708 0.926483154 -0.030298276
vt 0.865722656 0.614990234
vn 0.457786858 0.094714530 -0.884002507
v 0.188919038 0.947814941 0.196105912
vt 0.789306641 0.651855469
vn -0.196019709 0.980098307 -0.031363163
vt 0.102539062 0.000976562
vt 0.066894531 0.049804688
vt 0.003173828 0.005371094
vt 0.649902344 0.274658203
vt 0.645263672 0.205078125
vt 0.659423828 0.193847656
vt 0.690429688 0.190917969
vt 0.662841797 0.116943359
vt 0.715332031 0.166503906
vt 0.705566406 0.196044922
vt 0.753417969 0.174072266
v 0.306961030 0.945587158 0.162689149
vt 0.732177734 0.138183594
vn -0.102537207 -0.891284823 -0.441698641
vt 0.765869141 0.153076172
vt 0.839843750 0.641601562
vt 0.884521484 0.636230469
vt 0.891601562 0.658203125
vt 0.952392578 0.011474609
vt 0.926269531 0.030273438
vt 0.915771484 0.000000000
vt 0.791748047 0.353027344
vt 0.856445312 0.352294922
vt 0.835693359 0.395019531
vt 0.798828125 0.389160156
vt 0.821533203 0.277587891
vt 0.776367188 0.286376953
v -0.362808257 0.891326904 0.225479156
vt 0.770507812 0.245361328
vn -0.455733269 0.887894094 0.062859781
vt 0.720458984 0.260009766
vt 0.800292969 0.206787109
vt 0.864990234 0.237060547
v -0.347671539 0.878631592 0.165420562
vt 0.760253906 0.224121094
vn -0.252164006 0.929854751 0.267924249
vt 0.760742188 0.197509766
vt 0.712646484 0.218017578
vt 0.687011719 0.235351562
vt 0.063720703 0.066162109
vt 0.112060547 0.000000000
vt 0.159179688 0.071533203
v -0.390701324 0.912445068 0.149734542
vt 0.950927734 0.189697266
vn -0.924129188 -0.379129976 0.047391377
vt 0.995605469 0.236816406
vt 0.897460938 0.258789062
v -0.434738189 0.737579346 0.059707694
vt 0.999511719 0.160644531
vn -0.384375781 -0.902106583 0.196110219
vt 0.922851562 0.159179688
vt 0.672119141 0.985839844
vt 0.732421875 0.996337891
vt 0.658203125 0.998779297
vt 0.940673828 0.388916016
vt 1.000000000 0.354492188
vt 0.985107422 0.397460938
vt 0.981689453 0.331787109
vt 0.793212891 0.659912109
vt 0.823974609 0.642333984
vt 0.870849609 0.661132812
vt 0.745849609 0.998779297
vt 0.733642578 0.988525391
vt 0.790771484 0.990234375
f 1/1/1 2/2/2 3/3/3
f 2/2/2 1/1/1 4/4/4
f 1/1/1 3/3/3 5/5/5
f 1/1/1 5/5/5 6/6/6
f 5/5/5 3/3/3 7/7/7
f 3/3/3 2/2/2 8/8/8
f 8/8/8 2/2/2 9/9/9
f 7/7/7 3/3/3 10/10/10
f 10/10/10 3/3/3 8/8/8
f 7/7/7 10/10/10 11/11/11
f 8/8/8 9/9/9 12/12/12
f 8/8/8 12/12/12 10/10/10
f 11/11/11 10/10/10 13/13/13
f 13/13/13 10/10/10 12/12/12
f 11/11/11 13/13/13 14/14/14
f 13/13/13 12/12/12 15/15/15
f 15/15/15 12/12/12 16/16/16
f 14/14/14 13/13/13 17/17/17
f 17/17/17 13/13/13 15/15/15
f 17/17/17 15/15/15 16/16/16
f 14/14/14 17/17/17 18/18/18
f 17/17/17 16/16/16 19/19/19
f 17/17/17 19/19/19 18/18/18
f 5/20/5 7/21/7 20/22/20
f 5/20/5 20/22/20 21/23/21
f 21/23/21 20/22/20 22/24/22
f 20/22/20 7/21/7 23/25/23
f 22/24/22 20/22/20 24/26/24
f 22/24/22 24/26/24 25/27/25
f 25/27/25 24/26/24 26/28/26
f 26/28/26 24/26/24 27/29/27
f 27/29/27 24/26/24 28/30/28
f 27/29/27 28/30/28 29/31/29
f 24/26/24 20/22/20 30/32/30
f 24/26/24 30/32/30 28/30/28
f 30/32/30 20/22/20 23/25/23
f 28/30/28 30/32/30 29/31/29
f 30/32/30 23/25/23 31/33/31
f 30/32/30 31/33/31 29/31/29
f 31/33/31 23/25/23 7/21/7
f 31/33/31 7/21/7 11/34/11
f 31/33/31 11/34/11 14/35/14
f 29/31/29 31/33/31 32/36/32
f 31/33/31 14/35/14 18/37/18
f 31/33/31 18/37/18 32/36/32
f 32/36/32 18/37/18 33/38/33
f 33/38/33 18/37/18 34/39/34
f 34/39/34 18/37/18 19/40/19
f 35/41/35 9/42/9 2/43/2
f 35/41/35 2/43/2 36/44/36
f 35/41/35 36/44/36 37/45/37
f 16/46/16 12/47/12 9/42/9
f 16/46/16 9/42/9 38/48/38
f 38/48/38 9/42/9 35/41/35
f 16/46/16 38/48/38 39/49/39
f 38/48/38 35/41/35 40/50/40
f 40/50/40 35/41/35 41/51/41
f 40/50/40 41/51/41 42/52/42
f 38/48/38 40/50/40 43/53/43
f 43/53/43 40/50/40 42/52/42
f 38/48/38 43/53/43 39/49/39
f 43/53/43 42/52/42 44/54/44
f 43/53/43 44/54/44 45/55/45
f 43/53/43 45/55/45 39/49/39
f 39/49/39 45/55/45 46/56/46
f 46/56/46 45/55/45 47/57/47
f 6/58/6 5/59/5 48/60/48
f 48/60/48 5/59/5 21/61/21
f 22/62/22 49/63/49 21/61/21
f 21/61/21 49/63/49 48/60/48
f 50/64/50 49/63/49 51/65/51
f 49/63/49 50/64/50 52/66/52
f 49/63/49 52/66/52 48/60/48
f 52/66/52 50/64/50 53/67/53
f 52/66/52 53/67/53 54/68/54
f 52/66/52 54/68/54 48/60/48
f 48/60/48 54/68/54 55/69/55
f 55/69/55 54/68/54 56/70/56
f 48/60/48 55/69/55 57/71/57
f 48/60/48 57/71/57 6/58/6
f 55/69/55 56/70/56 58/72/58
f 55/69/55 58/72/58 57/71/57
f 6/58/6 57/71/57 4/73/4
f 4/73/4 57/71/57 58/72/58
f 6/58/6 4/73/4 1/74/1
f 58/72/58 56/70/56 59/75/59
f 4/73/4 58/72/58 36/76/36
f 4/73/4 36/76/36 2/77/2
f 58/72/58 59/75/59 60/78/60
f 58/72/58 60/78/60 36/76/36
f 60/78/60 59/75/59 61/79/61
f 60/78/60 61/79/61 36/76/36
f 61/79/61 59/75/59 62/80/62
f 62/80/62 59/75/59 63/81/63
f 36/76/36 61/79/61 64/82/64
f 64/82/64 61/79/61 62/80/62
f 64/82/64 62/80/62 65/83/65
f 36/76/36 64/82/64 37/84/37
f 37/84/37 64/82/64 66/85/66
f 49/86/49 22/87/22 51/88/51
f 51/88/51 22/87/22 25/89/25
f 51/88/51 25/89/25 67/90/67
f 67/90/67 25/89/25 68/91/68
f 51/88/51 67/90/67 69/92/69
f 69/92/69 67/90/67 68/91/68
f 51/88/51 69/92/69 50/93/50
f 69/92/69 68/91/68 70/94/70
f 69/92/69 70/94/70 71/95/71
f 69/92/69 71/95/71 72/96/72
f 72/96/72 71/95/71 73/97/73
f 71/95/71 70/94/70 74/98/74
f 71/95/71 74/98/74 73/97/73
f 74/98/74 70/94/70 75/99/75
f 74/98/74 75/99/75 76/100/76
f 73/97/73 74/98/74 77/101/77
f 77/101/77 74/98/74 76/100/76
f 73/97/73 77/101/77 78/102/78
f 77/101/77 76/100/76 79/103/79
f 77/101/77 79/103/79 78/102/78
f 79/103/79 76/100/76 80/104/80
f 80/104/80 76/100/76 81/105/81
f 79/103/79 80/104/80 82/106/82
f 79/103/79 82/106/82 78/102/78
f 78/102/78 82/106/82 83/107/83
f 83/107/83 82/106/82 84/108/84
f 32/109/32 85/110/85 29/111/29
f 29/111/29 85/110/85 86/112/86
f 86/112/86 85/110/85 87/113/87
f 29/111/29 86/112/86 27/114/27
f 86/112/86 87/113/87 88/115/88
f 27/114/27 86/112/86 89/116/89
f 89/116/89 86/112/86 88/115/88
f 27/114/27 89/116/89 90/117/50
f 27/114/27 90/117/50 26/118/26
f 26/118/26 90/117/50 68/119/68
f 26/118/26 68/119/68 25/120/25
f 68/119/68 90/117/50 91/121/90
f 91/121/90 90/117/50 89/116/89
f 68/119/68 91/121/90 70/122/70
f 91/121/90 89/116/89 92/123/91
f 91/121/90 92/123/91 70/122/70
f 92/123/91 89/116/89 88/115/88
f 70/122/70 92/123/91 75/124/75
f 92/123/91 88/115/88 93/125/92
f 93/125/92 88/115/88 94/126/93
f 32/127/32 33/128/33 85/129/85
f 85/129/85 33/128/33 95/130/94
f 95/130/94 33/128/33 34/131/34
f 95/130/94 34/131/34 96/132/95
f 96/132/95 34/131/34 97/133/96
f 96/132/95 97/133/96 98/134/97
f 96/132/95 98/134/97 99/135/98
f 95/130/94 96/132/95 100/136/99
f 95/130/94 100/136/99 85/129/85
f 100/136/99 96/132/95 99/135/98
f 85/129/85 100/136/99 101/137/100
f 85/129/85 101/137/100 87/138/87
f 87/138/87 101/137/100 88/139/88
f 88/139/88 101/137/100 94/140/93
f 94/140/93 101/137/100 100/136/99
f 94/140/93 100/136/99 99/135/98
f 94/140/93 99/135/98 102/141/101
f 94/140/93 102/141/101 103/142/102
f 103/142/102 102/141/101 104/143/103
f 103/142/102 104/143/103 105/144/104
f 94/140/93 103/142/102 106/145/105
f 94/140/93 106/145/105 93/146/92
f 93/146/92 106/145/105 107/147/106
f 106/145/105 103/142/102 108/148/107
f 108/148/107 103/142/102 105/144/104
f 106/145/105 108/148/107 107/147/106
f 108/148/107 105/144/104 109/149/108
f 108/148/107 109/149/108 107/147/106
f 109/149/108 105/144/104 110/150/109
f 107/147/106 109/149/108 81/151/81
f 81/151/81 109/149/108 110/150/109
f 93/152/92 92/153/91 75/154/75
f 93/155/92 107/156/106 75/157/75
f 75/157/75 107/156/106 76/158/76
f 76/158/76 107/156/106 81/159/81
f 39/160/39 46/161/46 16/162/16
f 16/162/16 46/161/46 19/163/19
f 19/163/19 46/161/46 97/164/96
f 97/164/96 46/161/46 111/165/110
f 46/166/46 47/167/47 111/168/110
f 111/168/110 47/167/47 112/169/111
f 112/169/111 47/167/47 113/170/112
f 112/169/111 113/170/112 114/171/113
f 44/172/44 47/173/47 45/174/45
f 47/173/47 44/172/44 115/175/114
f 47/173/47 115/175/114 113/176/112
f 115/175/114 44/172/44 116/177/115
f 41/178/41 35/179/35 66/180/66
f 66/180/66 35/179/35 37/181/37
f 65/182/65 66/183/66 64/184/64
f 66/183/66 65/182/65 117/185/116
f 66/183/66 117/185/116 118/186/117
f 118/186/117 117/185/116 119/187/118
f 117/185/116 65/182/65 120/188/119
f 117/185/116 120/188/119 119/187/118
f 120/188/119 65/182/65 121/189/120
f 121/189/120 65/182/65 122/190/121
f 119/187/118 120/188/119 123/191/122
f 123/191/122 120/188/119 121/189/120
f 119/187/118 123/191/122 124/192/123
f 123/191/122 121/189/120 125/193/124
f 125/193/124 121/189/120 126/194/125
f 124/192/123 123/191/122 127/195/126
f 127/195/126 123/191/122 125/193/124
f 119/187/118 124/192/123 128/196/127
f 128/196/127 124/192/123 127/195/126
f 119/187/118 128/196/127 129/197/128
f 129/197/128 128/196/127 130/198/129
f 130/198/129 128/196/127 127/195/126
f 125/193/124 126/194/125 131/199/130
f 125/193/124 131/199/130 127/195/126
f 131/199/130 126/194/125 132/200/131
f 127/195/126 131/199/130 133/201/132
f 131/199/130 132/200/131 134/202/133
f 131/199/130 134/202/133 133/201/132
f 133/201/132 134/202/133 127/195/126
f 130/198/129 127/195/126 135/203/134
f 135/203/134 127/195/126 134/202/133
f 130/198/129 135/203/134 136/204/135
f 136/204/135 135/203/134 137/205/136
f 137/205/136 135/203/134 138/206/137
f 135/203/134 134/202/133 139/207/138
f 139/207/138 134/202/133 140/208/139
f 41/209/41 66/210/66 118/211/117
f 41/209/41 118/211/117 141/212/140
f 141/212/140 118/211/117 119/213/118
f 41/209/41 141/212/140 116/214/115
f 141/212/140 119/213/118 129/215/128
f 116/214/115 141/212/140 142/216/141
f 116/214/115 142/216/141 115/217/114
f 141/212/140 129/215/128 143/218/142
f 141/212/140 143/218/142 142/216/141
f 143/218/142 129/215/128 144/219/143
f 142/216/141 143/218/142 145/220/144
f 145/220/144 143/218/142 144/219/143
f 42/221/42 116/222/115 44/223/44
f 116/222/115 42/221/42 41/224/41
f 146/225/145 147/226/146 148/227/147
f 146/225/145 148/227/147 149/228/148
f 150/229/149 151/230/150 149/231/148
f 151/230/150 150/229/149 147/232/146
f 147/232/146 150/229/149 149/231/148
f 151/230/150 147/232/146 146/233/145
f 147/232/146 149/231/148 148/234/147
f 142/235/141 152/236/151 115/237/114
f 115/237/114 152/236/151 113/238/112
f 152/236/151 142/235/141 145/239/144
f 113/238/112 152/236/151 114/240/113
f 152/236/151 145/239/144 153/241/152
f 152/236/151 153/241/152 114/240/113
f 145/242/144 149/243/148 151/244/150
f 149/243/148 145/242/144 153/245/152
f 146/246/145 154/247/153 151/248/150
f 154/247/153 146/246/145 149/249/148
f 154/247/153 149/249/148 153/250/152
f 154/251/153 151/252/150 145/253/144
f 154/251/153 145/253/144 144/254/143
f 129/255/128 137/256/136 144/257/143
f 137/256/136 129/255/128 136/258/135
f 144/257/143 137/256/136 155/259/154
f 144/257/143 155/259/154 156/260/155
f 155/259/154 137/256/136 157/261/156
f 155/259/154 157/261/156 156/260/155
f 157/261/156 137/256/136 138/262/137
f 156/260/155 157/261/156 158/263/157
f 157/261/156 138/262/137 159/264/158
f 157/261/156 159/264/158 158/263/157
f 159/264/158 138/262/137 160/265/159
f 161/266/160 160/265/159 162/267/161
f 160/265/159 161/266/160 159/264/158
f 159/264/158 161/266/160 163/268/162
f 158/263/157 159/264/158 164/269/163
f 158/263/157 164/269/163 165/270/164
f 165/270/164 164/269/163 166/271/165
f 166/271/165 164/269/163 167/272/166
f 167/272/166 164/269/163 159/264/158
f 166/271/165 167/272/166 104/273/103
f 167/272/166 159/264/158 168/274/167
f 167/272/166 168/274/167 104/273/103
f 168/274/167 159/264/158 163/268/162
f 104/273/103 168/274/167 105/275/104
f 169/276/168 163/268/162 161/266/160
f 163/268/162 169/276/168 168/274/167
f 168/274/167 169/276/168 105/275/104
f 169/276/168 161/266/160 170/277/169
f 105/275/104 169/276/168 110/278/109
f 110/278/109 169/276/168 170/277/169
f 19/279/19 97/280/96 34/281/34
f 171/282/170 97/283/96 111/284/110
f 171/282/170 111/284/110 112/285/111
f 97/283/96 171/282/170 98/286/97
f 171/282/170 112/285/111 172/287/171
f 172/287/171 112/285/111 114/288/113
f 172/287/171 114/288/113 153/289/152
f 98/286/97 171/282/170 173/290/172
f 98/286/97 173/290/172 174/291/173
f 98/286/97 174/291/173 99/292/98
f 99/292/98 174/291/173 102/293/101
f 174/291/173 173/290/172 175/294/174
f 175/294/174 173/290/172 171/282/170
f 102/293/101 174/291/173 176/295/175
f 176/295/175 174/291/173 175/294/174
f 102/293/101 176/295/175 104/296/103
f 104/296/103 176/295/175 166/297/165
f 166/297/165 176/295/175 165/298/164
f 165/298/164 176/295/175 175/294/174
f 175/294/174 171/282/170 177/299/176
f 175/294/174 177/299/176 165/298/164
f 177/299/176 171/282/170 172/287/171
f 165/298/164 177/299/176 158/300/157
f 177/299/176 172/287/171 178/301/177
f 177/299/176 178/301/177 158/300/157
f 178/301/177 172/287/171 153/289/152
f 158/300/157 178/301/177 156/302/155
f 156/302/155 178/301/177 153/289/152
f 156/302/155 153/289/152 144/303/143
f 63/304/63 59/305/59 179/306/178
f 179/306/178 59/305/59 56/307/56
f 63/304/63 179/306/178 180/308/179
f 180/308/179 179/306/178 56/307/56
f 180/308/179 56/307/56 54/309/54
f 180/308/179 54/309/54 181/310/180
f 181/310/180 54/309/54 53/311/53
f 181/310/180 53/311/53 182/312/181
f 182/312/181 53/311/53 183/313/182
f 183/313/182 53/311/53 50/314/50
f 182/315/181 184/316/183 181/317/180
f 181/317/180 184/316/183 180/318/179
f 180/318/179 184/316/183 185/319/184
f 185/319/184 184/316/183 186/320/185
f 186/320/185 184/316/183 182/315/181
f 186/320/185 182/315/181 187/321/186
f 187/321/186 182/315/181 188/322/187
f 186/320/185 187/321/186 189/323/188
f 186/320/185 189/323/188 190/324/189
f 188/325/187 182/326/181 183/327/182
f 188/325/187 183/327/182 72/328/72
f 73/329/73 78/330/78 72/328/72
f 72/328/72 78/330/78 83/331/83
f 72/328/72 83/331/83 191/332/190
f 72/328/72 191/332/190 188/325/187
f 191/332/190 83/331/83 192/333/191
f 191/332/190 192/333/191 193/334/192
f 191/332/190 193/334/192 194/335/193
f 188/325/187 191/332/190 195/336/194
f 195/336/194 191/332/190 194/335/193
f 188/325/187 195/336/194 187/337/186
f 195/336/194 194/335/193 196/338/195
f 187/337/186 195/336/194 189/339/188
f 195/336/194 196/338/195 197/340/196
f 195/336/194 197/340/196 189/339/188
f 185/341/184 198/342/197 180/343/179
f 180/343/179 198/342/197 199/344/198
f 180/343/179 199/344/198 63/345/63
f 63/345/63 199/344/198 62/346/62
f 62/346/62 199/344/198 200/347/199
f 200/347/199 199/344/198 201/348/200
f 201/348/200 199/344/198 198/342/197
f 198/342/197 185/341/184 202/349/201
f 198/342/197 202/349/201 201/348/200
f 202/349/201 185/341/184 190/350/189
f 190/350/189 185/341/184 186/351/185
f 201/348/200 202/349/201 203/352/202
f 203/352/202 202/349/201 190/350/189
f 201/348/200 203/352/202 204/353/203
f 203/352/202 190/350/189 189/354/188
f 203/352/202 189/354/188 204/353/203
f 204/353/203 189/354/188 205/355/204
f 205/355/204 189/354/188 206/356/205
f 205/355/204 206/356/205 207/357/206
f 206/356/205 189/354/188 197/358/196
f 207/357/206 206/356/205 208/359/207
f 208/359/207 206/356/205 197/358/196
f 207/360/206 208/361/207 205/362/204
f 205/362/204 208/361/207 209/363/208
f 205/362/204 209/363/208 204/364/203
f 204/364/203 209/363/208 201/365/200
f 209/363/208 208/361/207 210/366/209
f 210/366/209 208/361/207 211/367/210
f 210/366/209 211/367/210 140/368/139
f 140/368/139 211/367/210 193/369/192
f 211/367/210 208/361/207 197/370/196
f 211/367/210 197/370/196 196/371/195
f 212/372/211 213/373/211 214/374/211
f 211/375/210 196/376/195 194/377/193
f 211/375/210 194/377/193 193/378/192
f 183/379/182 50/380/50 69/381/69
f 183/379/182 69/381/69 72/382/72
f 193/383/192 192/384/191 215/385/212
f 193/383/192 215/385/212 216/386/213
f 216/386/213 215/385/212 217/387/214
f 217/387/214 215/385/212 218/388/215
f 215/385/212 192/384/191 84/389/84
f 218/388/215 215/385/212 219/390/216
f 219/390/216 215/385/212 84/389/84
f 219/390/216 84/389/84 82/391/82
f 220/392/217 193/393/192 216/394/213
f 193/393/192 220/392/217 140/395/139
f 220/392/217 216/394/213 221/396/218
f 221/396/218 216/394/213 217/397/214
f 220/392/217 221/396/218 222/398/219
f 220/392/217 222/398/219 139/399/138
f 222/398/219 221/396/218 223/400/220
f 139/399/138 222/398/219 135/401/134
f 222/398/219 223/400/220 224/402/221
f 135/401/134 222/398/219 225/403/222
f 225/403/222 222/398/219 224/402/221
f 226/404/223 81/405/81 110/406/109
f 81/405/81 226/404/223 80/407/80
f 80/407/80 226/404/223 227/408/224
f 80/407/80 227/408/224 219/409/216
f 80/407/80 219/409/216 82/410/82
f 219/409/216 227/408/224 218/411/215
f 110/412/109 228/413/225 226/414/223
f 226/414/223 228/413/225 229/415/226
f 226/414/223 229/415/226 227/416/224
f 227/416/224 229/415/226 228/413/225
f 200/417/199 65/418/65 62/419/62
f 65/418/65 200/417/199 122/420/121
f 122/421/121 200/422/199 230/423/227
f 122/421/121 230/423/227 231/424/228
f 122/421/121 231/424/228 121/425/120
f 121/425/120 231/424/228 126/426/125
f 231/424/228 230/423/227 232/427/229
f 232/427/229 230/423/227 209/428/208
f 232/427/229 209/428/208 231/424/228
f 209/428/208 230/423/227 201/429/200
f 231/424/228 209/428/208 210/430/209
f 126/426/125 231/424/228 233/431/230
f 233/431/230 231/424/228 210/430/209
f 126/426/125 233/431/230 234/432/231
f 233/431/230 210/430/209 235/433/232
f 233/431/230 235/433/232 236/434/233
f 230/435/227 200/436/199 201/437/200
f 235/438/232 210/439/209 140/440/139
f 235/438/232 140/440/139 236/441/233
f 236/441/233 140/440/139 134/442/133
f 236/441/233 134/442/133 132/443/131
f 236/441/233 132/443/131 233/444/230
f 233/444/230 132/443/131 234/445/231
f 234/445/231 132/443/131 237/446/234
f 234/445/231 237/446/234 126/447/125
f 237/448/234 132/449/131 126/450/125
f 136/451/135 129/452/128 130/453/129
f 225/454/222 160/455/159 138/456/137
f 225/454/222 138/456/137 135/457/134
f 160/455/159 225/454/222 162/458/161
f 162/458/161 225/454/222 224/459/221
f 162/458/161 224/459/221 238/460/235
f 238/460/235 224/459/221 223/461/220
f 162/458/161 238/460/235 170/462/169
f 162/458/161 170/462/169 161/463/160
f 170/462/169 238/460/235 239/464/236
f 239/464/236 238/460/235 223/461/220
f 170/462/169 239/464/236 218/465/215
f 218/465/215 239/464/236 217/466/214
f 217/466/214 239/464/236 223/461/220
f 217/466/214 223/461/220 221/467/218
f 140/468/139 220/469/217 139/470/138
f 240/471/237 227/472/224 228/473/225
f 227/472/224 240/471/237 241/474/238
f 240/471/237 228/473/225 170/475/169
f 240/471/237 170/475/169 241/474/238
f 110/476/109 170/477/169 228/478/225
f 218/479/215 241/480/238 170/481/169
f 241/480/238 218/479/215 227/482/224
f 153/483/152 144/484/143 154/485/153
f 192/486/191 83/487/83 84/488/84
